<?xml version="1.0" encoding="UTF-8" standalone="no"?>
<svg
   xmlns:osb="http://www.openswatchbook.org/uri/2009/osb"
   xmlns:dc="http://purl.org/dc/elements/1.1/"
   xmlns:cc="http://creativecommons.org/ns#"
   xmlns:rdf="http://www.w3.org/1999/02/22-rdf-syntax-ns#"
   xmlns:svg="http://www.w3.org/2000/svg"
   xmlns="http://www.w3.org/2000/svg"
   xmlns:xlink="http://www.w3.org/1999/xlink"
   xmlns:sodipodi="http://sodipodi.sourceforge.net/DTD/sodipodi-0.dtd"
   xmlns:inkscape="http://www.inkscape.org/namespaces/inkscape"
   sodipodi:docname="ruler.svg"
   inkscape:version="1.1-dev (7fa40cb683, 2020-03-24)"
   version="1.1"
   id="svg2"
   height="22"
   width="22">
  <defs
     id="defs4">
    <linearGradient
       id="linearGradient6057">
      <stop
         style="stop-color:#222222;stop-opacity:0.88973391;"
         offset="0"
         id="stop6059" />
      <stop
         id="stop6065"
         offset="1"
         style="stop-color:#989898;stop-opacity:0.44313726;" />
    </linearGradient>
    <linearGradient
       id="linearGradient6041">
      <stop
         style="stop-color:#000000;stop-opacity:1;"
         offset="0"
         id="stop6043" />
      <stop
         style="stop-color:#000000;stop-opacity:0;"
         offset="1"
         id="stop6045" />
    </linearGradient>
    <linearGradient
       id="linearGradient6035"
       osb:paint="solid">
      <stop
         style="stop-color:#ff0000;stop-opacity:1;"
         offset="0"
         id="stop6037" />
    </linearGradient>
    <marker
       inkscape:stockid="Arrow1Lstart"
       orient="auto"
       refY="0.0"
       refX="0.0"
       id="Arrow1Lstart"
       style="overflow:visible">
      <path
         id="path3787"
         d="M 0.0,0.0 L 5.0,-5.0 L -12.5,0.0 L 5.0,5.0 L 0.0,0.0 z "
         style="fill-rule:evenodd;stroke:#000000;stroke-width:1.0pt"
         transform="scale(0.8) translate(12.5,0)" />
    </marker>
    <linearGradient
       id="linearGradient2999">
      <stop
         id="stop3775"
         offset="0"
         style="stop-color:#4c4c4c;stop-opacity:0.41176471;" />
      <stop
         style="stop-color:#999999;stop-opacity:0;"
         offset="1"
         id="stop3003" />
    </linearGradient>
    <linearGradient
       inkscape:collect="always"
       xlink:href="#linearGradient6057-4"
       id="linearGradient6063-2"
       x1="9.4017859"
       y1="0.4598214"
       x2="15.6875"
       y2="21.084822"
       gradientUnits="userSpaceOnUse"
       gradientTransform="matrix(0.83739436,0,0,0.92539931,0.27955268,1030.3551)" />
    <linearGradient
       id="linearGradient6057-4">
      <stop
         style="stop-color:#222222;stop-opacity:1;"
         offset="0"
         id="stop6059-3" />
      <stop
         id="stop6065-7"
         offset="1"
         style="stop-color:#989898;stop-opacity:1;" />
    </linearGradient>
  </defs>
  <sodipodi:namedview
     inkscape:snap-nodes="false"
     inkscape:object-paths="true"
     inkscape:snap-center="true"
     inkscape:snap-object-midpoints="true"
     inkscape:window-maximized="1"
     inkscape:window-y="30"
     inkscape:window-x="0"
     inkscape:window-height="1377"
     inkscape:window-width="2560"
     showgrid="false"
     inkscape:current-layer="layer1"
     inkscape:document-units="px"
     inkscape:cy="-4.926843"
     inkscape:cx="1.5524147"
     inkscape:zoom="4.0000001"
     inkscape:pageshadow="2"
     inkscape:pageopacity="0.0"
     borderopacity="1.0"
     bordercolor="#666666"
     pagecolor="#ffffff"
     id="base" />
  <metadata
     id="metadata7">
    <rdf:RDF>
      <cc:Work
         rdf:about="">
        <dc:format>image/svg+xml</dc:format>
        <dc:type
           rdf:resource="http://purl.org/dc/dcmitype/StillImage" />
        <dc:title />
      </cc:Work>
    </rdf:RDF>
  </metadata>
  <g
     transform="translate(0,-1030.3622)"
     id="layer1"
     inkscape:groupmode="layer"
     inkscape:label="Ebene 1">
    <path
       inkscape:connector-curvature="0"
       id="path3765"
       d="M 19.264896,1049.86 3.0014396,1033.4198 v 0"
       style="fill:none;stroke:#727272;stroke-width:4;stroke-linecap:butt;stroke-linejoin:miter;stroke-miterlimit:4;stroke-dasharray:none;stroke-opacity:1" />
    <circle
       r="3.7898562"
       cy="1035.0005"
       cx="4.5776119"
       id="path2985-3"
       style="fill:#727272;fill-opacity:1;stroke:none;stroke-width:1.76100028;stroke-linejoin:round;stroke-miterlimit:4;stroke-dasharray:none;stroke-opacity:1" />
    <circle
       style="fill:#727272;fill-opacity:1;stroke:none;stroke-width:1.761;stroke-linejoin:round;stroke-miterlimit:4;stroke-dasharray:none;stroke-opacity:1"
       id="circle848"
       cx="17.323109"
       cy="1047.9253"
       r="3.7898562" />
    <path
       style="color:#000000;fill:none;stroke-width:4"
       d="M 19.264896,1049.86 3.0014396,1033.4198 v 0"
       id="path845"
       inkscape:connector-curvature="0" />
    <path
       transform="translate(0,1030.3622)"
       d="M 4.578125 0.84765625 A 3.7898562 3.7898562 0 0 0 0.78710938 4.6386719 A 3.7898562 3.7898562 0 0 0 4.578125 8.4277344 A 3.7898562 3.7898562 0 0 0 5.3476562 8.2734375 L 13.734375 16.751953 A 3.7898562 3.7898562 0 0 0 13.574219 17.5625 A 3.7898562 3.7898562 0 0 0 17.363281 21.353516 A 3.7898562 3.7898562 0 0 0 21.152344 17.5625 A 3.7898562 3.7898562 0 0 0 17.363281 13.773438 A 3.7898562 3.7898562 0 0 0 16.572266 13.931641 L 8.2011719 5.4707031 A 3.7898562 3.7898562 0 0 0 8.3671875 4.6386719 A 3.7898562 3.7898562 0 0 0 4.578125 0.84765625 z "
       style="color:#000000;fill:none;stroke-width:1;stroke:#241f31;stroke-opacity:1;stroke-miterlimit:4;stroke-dasharray:none"
       id="path847" />
    <path
       transform="translate(0,1030.3622)"
       d="M 4.578125 0.84765625 A 3.7898562 3.7898562 0 0 0 1.4863281 2.5722656 A 3.7898562 3.7898562 0 0 1 4.0566406 1.5371094 A 3.7898562 3.7898562 0 0 1 7.8457031 5.328125 A 3.7898562 3.7898562 0 0 1 7.6796875 6.1601562 L 16.050781 14.621094 A 3.7898562 3.7898562 0 0 1 16.841797 14.462891 A 3.7898562 3.7898562 0 0 1 20.630859 18.251953 A 3.7898562 3.7898562 0 0 1 20.099609 20.171875 A 3.7898562 3.7898562 0 0 0 21.152344 17.5625 A 3.7898562 3.7898562 0 0 0 17.363281 13.773438 A 3.7898562 3.7898562 0 0 0 16.572266 13.931641 L 8.2011719 5.4707031 A 3.7898562 3.7898562 0 0 0 8.3671875 4.6386719 A 3.7898562 3.7898562 0 0 0 4.578125 0.84765625 z "
       style="color:#000000;fill:#999999;stroke-width:1;stroke:none;stroke-opacity:1;stroke-miterlimit:4;stroke-dasharray:none;fill-opacity:1"
       id="path859" />
    <path
       transform="translate(0,1030.3622)"
       d="M 1.5917969 2.4121094 A 3.7898562 3.7898562 0 0 0 0.78710938 4.6386719 A 3.7898562 3.7898562 0 0 0 4.578125 8.4277344 A 3.7898562 3.7898562 0 0 0 5.3476562 8.2734375 L 13.734375 16.751953 A 3.7898562 3.7898562 0 0 0 13.574219 17.5625 A 3.7898562 3.7898562 0 0 0 17.363281 21.353516 A 3.7898562 3.7898562 0 0 0 20.925781 18.832031 A 3.7898562 3.7898562 0 0 1 17.933594 20.308594 A 3.7898562 3.7898562 0 0 1 14.144531 16.517578 A 3.7898562 3.7898562 0 0 1 14.304688 15.707031 L 5.9179688 7.2285156 A 3.7898562 3.7898562 0 0 1 5.1484375 7.3828125 A 3.7898562 3.7898562 0 0 1 1.3574219 3.59375 A 3.7898562 3.7898562 0 0 1 1.5917969 2.4121094 z "
       style="color:#000000;fill:#4d4d4d;stroke-width:1;stroke:none;stroke-opacity:1;stroke-miterlimit:4;stroke-dasharray:none;fill-opacity:1"
       id="path864" />
    <rect
       ry="1.3"
       rx="1.5"
       y="1035.2053"
       x="30.931911"
       height="4.6382856"
       width="4.6382856"
       id="rect847"
       style="fill:#d9d9d9;fill-opacity:1;stroke:#273445;stroke-width:0;stroke-linecap:round" />
    <rect
       style="fill:#727272;fill-opacity:1;stroke:#273445;stroke-width:0;stroke-linecap:round"
       id="rect849"
       width="4.6382856"
       height="4.6382856"
       x="30.946146"
       y="1040.9819"
       rx="1.5"
       ry="1.3" />
    <rect
       style="fill:#b2b2b2;fill-opacity:1;stroke:#273445;stroke-width:0;stroke-linecap:round"
       id="rect851"
       width="4.6382856"
       height="4.6382856"
       x="36.874714"
       y="1035.2053"
       rx="1.5"
       ry="1.3" />
    <rect
       ry="1.3"
       rx="1.5"
       y="1040.9585"
       x="36.914574"
       height="4.6382856"
       width="4.6382856"
       id="rect853"
       style="fill:#4d4d4d;fill-opacity:1;stroke:#273445;stroke-width:0;stroke-linecap:round" />
    <rect
       style="fill:#241f31;fill-opacity:1;stroke:#273445;stroke-width:0;stroke-linecap:round"
       id="rect855"
       width="4.6382856"
       height="4.6382856"
       x="36.814926"
       y="1046.6681"
       rx="1.5"
       ry="1.3" />
    <rect
       style="fill:#ffffff;fill-opacity:1;stroke:#000000;stroke-width:0.1;stroke-linecap:round;stroke-miterlimit:4;stroke-dasharray:none;stroke-opacity:1"
       id="rect857"
       width="4.6382856"
       height="4.6382856"
       x="25.089828"
       y="1035.2053"
       rx="1.5"
       ry="1.3" />
    <rect
       ry="1.3"
       rx="1.5"
       y="1040.9834"
       x="25.089828"
       height="4.6382856"
       width="4.6382856"
       id="rect860"
       style="fill:#999999;fill-opacity:1;stroke:none;stroke-width:0.1;stroke-linecap:round;stroke-miterlimit:4;stroke-dasharray:none;stroke-opacity:1" />
  </g>
</svg>
