<?xml version="1.0" encoding="UTF-8" standalone="no"?>
<svg
   xmlns:dc="http://purl.org/dc/elements/1.1/"
   xmlns:cc="http://creativecommons.org/ns#"
   xmlns:rdf="http://www.w3.org/1999/02/22-rdf-syntax-ns#"
   xmlns:svg="http://www.w3.org/2000/svg"
   xmlns="http://www.w3.org/2000/svg"
   id="svg8"
   version="1.1"
   viewBox="0 0 6.7716004 6.7716197"
   height="6.7716198mm"
   width="6.7716002mm">
  <defs
     id="defs2">
    <style
       type="text/css"
       id="current-color-scheme">
      .ColorScheme-Text {
        color:#4d4d4d;
      }
      .ColorScheme-Background {
        color:#eff0f1;
      }
      .ColorScheme-Highlight {
        color:#3daee9;
      }
      .ColorScheme-ViewText {
        color:#31363b;
      }
      .ColorScheme-ViewBackground {
        color:#fcfcfc;
      }
      .ColorScheme-ViewHover {
        color:#93cee9;
      }
      .ColorScheme-ViewFocus{
        color:#3daee9;
      }
      .ColorScheme-ButtonText {
        color:#31363b;
      }
      .ColorScheme-ButtonBackground {
        color:#eff0f1;
      }
      .ColorScheme-ButtonHover {
        color:#93cee9;
      }
      .ColorScheme-ButtonFocus{
        color:#3daee9;
      }
      </style>
    <style
       type="text/css"
       id="current-color-scheme-2">
      .ColorScheme-Text {
        color:#4d4d4d;
      }
      .ColorScheme-Background {
        color:#eff0f1;
      }
      .ColorScheme-Highlight {
        color:#3daee9;
      }
      .ColorScheme-ViewText {
        color:#31363b;
      }
      .ColorScheme-ViewBackground {
        color:#fcfcfc;
      }
      .ColorScheme-ViewHover {
        color:#93cee9;
      }
      .ColorScheme-ViewFocus{
        color:#3daee9;
      }
      .ColorScheme-ButtonText {
        color:#31363b;
      }
      .ColorScheme-ButtonBackground {
        color:#eff0f1;
      }
      .ColorScheme-ButtonHover {
        color:#93cee9;
      }
      .ColorScheme-ButtonFocus{
        color:#3daee9;
      }
      </style>
    <style
       type="text/css"
       id="current-color-scheme-23">
      .ColorScheme-Text {
        color:#4d4d4d;
      }
      .ColorScheme-Background {
        color:#eff0f1;
      }
      .ColorScheme-Highlight {
        color:#3daee9;
      }
      .ColorScheme-ViewText {
        color:#31363b;
      }
      .ColorScheme-ViewBackground {
        color:#fcfcfc;
      }
      .ColorScheme-ViewHover {
        color:#93cee9;
      }
      .ColorScheme-ViewFocus{
        color:#3daee9;
      }
      .ColorScheme-ButtonText {
        color:#31363b;
      }
      .ColorScheme-ButtonBackground {
        color:#eff0f1;
      }
      .ColorScheme-ButtonHover {
        color:#93cee9;
      }
      .ColorScheme-ButtonFocus{
        color:#3daee9;
      }
      </style>
    <style
       type="text/css"
       id="current-color-scheme-2-7">
      .ColorScheme-Text {
        color:#4d4d4d;
      }
      .ColorScheme-Background {
        color:#eff0f1;
      }
      .ColorScheme-Highlight {
        color:#3daee9;
      }
      .ColorScheme-ViewText {
        color:#31363b;
      }
      .ColorScheme-ViewBackground {
        color:#fcfcfc;
      }
      .ColorScheme-ViewHover {
        color:#93cee9;
      }
      .ColorScheme-ViewFocus{
        color:#3daee9;
      }
      .ColorScheme-ButtonText {
        color:#31363b;
      }
      .ColorScheme-ButtonBackground {
        color:#eff0f1;
      }
      .ColorScheme-ButtonHover {
        color:#93cee9;
      }
      .ColorScheme-ButtonFocus{
        color:#3daee9;
      }
      </style>
  </defs>
  <metadata
     id="metadata5">
    <rdf:RDF>
      <cc:Work
         rdf:about="">
        <dc:format>image/svg+xml</dc:format>
        <dc:type
           rdf:resource="http://purl.org/dc/dcmitype/StillImage" />
        <dc:title></dc:title>
      </cc:Work>
    </rdf:RDF>
  </metadata>
  <g
     transform="translate(-277.13952,-80.861424)"
     id="layer1">
    <g
       id="layer1-8"
       transform="translate(-157.63268,-51.740836)">
      <g
         transform="matrix(0.26458333,0,0,0.26458333,114.64049,-138.86605)"
         id="layer1-6-7">
        <circle
           transform="translate(0.28410543,1029.983)"
           id="path2985-9"
           style="fill:none;fill-opacity:1;stroke:#000000;stroke-width:1.76100004;stroke-linejoin:round;stroke-miterlimit:4;stroke-dasharray:none;stroke-opacity:1"
           cx="10.732871"
           cy="11.361831"
           r="10.038391" />
      </g>
      <path
         style="fill:#ffffff;fill-opacity:1;fill-rule:nonzero;stroke-width:0.26784974"
         d="m 124.52448,133.31227 a 2.8764881,2.8764881 0 0 0 -2.87631,2.87631 2.8764881,2.8764881 0 0 0 2.87631,2.87683 2.8764881,2.8764881 0 0 0 2.87631,-2.87683 2.8764881,2.8764881 0 0 0 -2.87631,-2.87631 z m 0,0.46768 a 2.4087665,2.4087665 0 0 1 2.40863,2.40863 2.4087665,2.4087665 0 0 1 -2.40863,2.40864 2.4087665,2.4087665 0 0 1 -2.40864,-2.40864 2.4087665,2.4087665 0 0 1 2.40864,-2.40863 z"
         id="path41" />
    </g>
    <path
       style="fill:#ffffff;fill-opacity:1;fill-rule:nonzero;stroke-width:0.54969352"
       d="m 278.29951,81.161424 c -0.47515,1e-4 -0.86022,0.38431 -0.85999,0.85805 10e-5,0.47354 0.38507,0.85739 0.85999,0.85748 0.0852,-2.9e-4 0.17001,-0.0132 0.25146,-0.0384 l 3.86819,3.90867 h -1.07935 -0.87983 -0.0974 c -0.30235,0.0805 -0.33355,0.48102 0.021,0.58523 0.31593,8.7e-4 0.63709,-6e-5 0.95627,0 0.56198,9e-5 1.12389,5.9e-4 1.68379,5.9e-4 h 0.0163 0.31796 c 0.0828,-0.005 0.22113,-0.0712 0.25322,-0.2484 v -1.74114 -0.87725 -0.0971 c -0.0807,-0.30144 -0.48241,-0.33257 -0.58694,0.021 -8.9e-4,0.31501 7e-5,0.63523 0,0.95346 h -10e-4 v 0.93718 l -3.91894,-3.96045 c 0.0364,-0.0962 0.0552,-0.198 0.0555,-0.30076 2.4e-4,-0.47375 -0.38483,-0.85796 -0.85998,-0.85805 z"
       id="path102" />
  </g>
</svg>
