<?xml version="1.0" encoding="UTF-8" standalone="no"?>
<svg
   xmlns:dc="http://purl.org/dc/elements/1.1/"
   xmlns:cc="http://creativecommons.org/ns#"
   xmlns:rdf="http://www.w3.org/1999/02/22-rdf-syntax-ns#"
   xmlns:svg="http://www.w3.org/2000/svg"
   xmlns="http://www.w3.org/2000/svg"
   xmlns:sodipodi="http://sodipodi.sourceforge.net/DTD/sodipodi-0.dtd"
   xmlns:inkscape="http://www.inkscape.org/namespaces/inkscape"
   width="22"
   height="22"
   id="svg2"
   version="1.1"
   inkscape:version="1.1-dev (7fa40cb683, 2020-03-24)"
   sodipodi:docname="coordinate-system-draw.svg">
  <defs
     id="defs4" />
  <sodipodi:namedview
     id="base"
     pagecolor="#ffffff"
     bordercolor="#666666"
     borderopacity="1.0"
     inkscape:pageopacity="0.0"
     inkscape:pageshadow="2"
     inkscape:zoom="32"
     inkscape:cx="20.323696"
     inkscape:cy="15.347584"
     inkscape:document-units="px"
     inkscape:current-layer="layer1"
     showgrid="false"
     inkscape:window-width="2560"
     inkscape:window-height="1377"
     inkscape:window-x="0"
     inkscape:window-y="30"
     inkscape:window-maximized="1"
     inkscape:snap-object-midpoints="true"
     inkscape:snap-center="true" />
  <metadata
     id="metadata7">
    <rdf:RDF>
      <cc:Work
         rdf:about="">
        <dc:format>image/svg+xml</dc:format>
        <dc:type
           rdf:resource="http://purl.org/dc/dcmitype/StillImage" />
        <dc:title />
      </cc:Work>
    </rdf:RDF>
  </metadata>
  <g
     inkscape:label="Ebene 1"
     inkscape:groupmode="layer"
     id="layer1"
     transform="translate(0,-1030.3622)">
    <path
       style="fill:none;stroke:#727272;stroke-width:4;stroke-linecap:round;stroke-linejoin:round;stroke-miterlimit:4;stroke-dasharray:none;stroke-opacity:1"
       d="m 4.8720091,1035.0764 v 12.7299 H 17.118049"
       id="path4535"
       inkscape:connector-curvature="0"
       sodipodi:nodetypes="ccc" />
    <circle
       style="fill:#727272;fill-opacity:1;stroke:none;stroke-width:1.76100028;stroke-linejoin:round;stroke-miterlimit:4;stroke-dasharray:none;stroke-opacity:1"
       id="path2985-3"
       cx="4.8720093"
       cy="1035.0764"
       r="3.7898562" />
    <circle
       r="3.7898562"
       cy="1047.8063"
       cx="17.11805"
       id="circle4551"
       style="fill:#727272;fill-opacity:1;stroke:none;stroke-width:1.76100028;stroke-linejoin:round;stroke-miterlimit:4;stroke-dasharray:none;stroke-opacity:1" />
    <path
       id="path855"
       style="color:#000000;fill:none;stroke:#241f31;stroke-width:1;stroke-linecap:round;stroke-linejoin:round;stroke-miterlimit:4;stroke-dasharray:none;stroke-opacity:1"
       d="m 4.8710057,1031.2861 a 3.7898562,3.7898562 0 0 0 -3.7890626,3.791 3.7898562,3.7898562 0 0 0 1.7890626,3.1328 v 9.5977 a 2.0002,2.0002 0 0 0 2,2 h 9.1132813 a 3.7898562,3.7898562 0 0 0 3.132813,1.789 3.7898562,3.7898562 0 0 0 3.791015,-3.791 3.7898562,3.7898562 0 0 0 -3.791015,-3.7891 3.7898562,3.7898562 0 0 0 -3.134766,1.7911 H 6.8710057 v -7.5157 a 3.7898562,3.7898562 0 0 0 1.7910156,-3.2148 3.7898562,3.7898562 0 0 0 -3.7910156,-3.791 z"
       inkscape:connector-curvature="0" />
    <path
       id="path862"
       style="color:#000000;fill:#999999;stroke:none;stroke-width:1;stroke-linecap:round;stroke-linejoin:round;stroke-miterlimit:4;stroke-dasharray:none;stroke-opacity:1;fill-opacity:1"
       d="M 4.8710938 0.92382812 A 3.7898562 3.7898562 0 0 0 2.0390625 2.2636719 A 3.7898562 3.7898562 0 0 1 4.1386719 1.5410156 A 3.7898562 3.7898562 0 0 1 7.9296875 5.3320312 A 3.7898562 3.7898562 0 0 1 6.1386719 8.546875 L 6.1386719 16.0625 L 13.25 16.0625 A 3.7898562 3.7898562 0 0 1 13.791016 15.445312 L 6.8710938 15.445312 L 6.8710938 7.9296875 A 3.7898562 3.7898562 0 0 0 8.6621094 4.7148438 A 3.7898562 3.7898562 0 0 0 4.8710938 0.92382812 z M 17.117188 13.654297 A 3.7898562 3.7898562 0 0 0 14.458984 14.902344 A 3.7898562 3.7898562 0 0 1 16.384766 14.271484 A 3.7898562 3.7898562 0 0 1 20.175781 18.060547 A 3.7898562 3.7898562 0 0 1 19.154297 20.638672 A 3.7898562 3.7898562 0 0 0 20.908203 17.443359 A 3.7898562 3.7898562 0 0 0 17.117188 13.654297 z "
       transform="translate(0,1030.3622)" />
    <path
       id="path867"
       style="color:#000000;fill:#4d4d4d;stroke:none;stroke-width:1;stroke-linecap:round;stroke-linejoin:round;stroke-miterlimit:4;stroke-dasharray:none;stroke-opacity:1;fill-opacity:1"
       d="M 2.5546875 1.7929688 A 3.7898562 3.7898562 0 0 0 1.0820312 4.7148438 A 3.7898562 3.7898562 0 0 0 2.8710938 7.8476562 L 2.8710938 17.445312 A 2.0002 2.0002 0 0 0 4.8710938 19.445312 L 13.984375 19.445312 A 3.7898562 3.7898562 0 0 0 17.117188 21.234375 A 3.7898562 3.7898562 0 0 0 20.121094 19.742188 A 3.7898562 3.7898562 0 0 1 17.757812 20.578125 A 3.7898562 3.7898562 0 0 1 14.625 18.789062 L 5.5117188 18.789062 A 2.0002 2.0002 0 0 1 3.5117188 16.789062 L 3.5117188 7.1914062 A 3.7898562 3.7898562 0 0 1 1.7226562 4.0585938 A 3.7898562 3.7898562 0 0 1 2.5546875 1.7929688 z M 7.9238281 6.90625 A 3.7898562 3.7898562 0 0 1 7.5117188 7.2734375 L 7.5117188 7.3632812 A 3.7898562 3.7898562 0 0 0 7.9238281 6.90625 z M 14.931641 14.435547 A 3.7898562 3.7898562 0 0 0 14.558594 14.789062 L 14.623047 14.789062 A 3.7898562 3.7898562 0 0 1 14.931641 14.435547 z "
       transform="translate(0,1030.3622)" />
    <rect
       ry="1.3"
       rx="1.5"
       y="1033.5518"
       x="30.240875"
       height="4.6382856"
       width="4.6382856"
       id="rect847-5"
       style="fill:#d9d9d9;fill-opacity:1;stroke:#273445;stroke-width:0;stroke-linecap:round" />
    <rect
       style="fill:#727272;fill-opacity:1;stroke:#273445;stroke-width:0;stroke-linecap:round"
       id="rect849"
       width="4.6382856"
       height="4.6382856"
       x="30.25511"
       y="1039.3284"
       rx="1.5"
       ry="1.3" />
    <rect
       style="fill:#b2b2b2;fill-opacity:1;stroke:#273445;stroke-width:0;stroke-linecap:round"
       id="rect851"
       width="4.6382856"
       height="4.6382856"
       x="36.183681"
       y="1033.5518"
       rx="1.5"
       ry="1.3" />
    <rect
       ry="1.3"
       rx="1.5"
       y="1039.3049"
       x="36.223537"
       height="4.6382856"
       width="4.6382856"
       id="rect853"
       style="fill:#4d4d4d;fill-opacity:1;stroke:#273445;stroke-width:0;stroke-linecap:round" />
    <rect
       style="fill:#241f31;fill-opacity:1;stroke:#273445;stroke-width:0;stroke-linecap:round"
       id="rect855"
       width="4.6382856"
       height="4.6382856"
       x="36.123894"
       y="1045.0145"
       rx="1.5"
       ry="1.3" />
    <rect
       style="fill:#ffffff;fill-opacity:1;stroke:#000000;stroke-width:0.1;stroke-linecap:round;stroke-miterlimit:4;stroke-dasharray:none;stroke-opacity:1"
       id="rect857"
       width="4.6382856"
       height="4.6382856"
       x="24.398792"
       y="1033.5518"
       rx="1.5"
       ry="1.3" />
    <rect
       ry="1.3"
       rx="1.5"
       y="1039.3298"
       x="24.398792"
       height="4.6382856"
       width="4.6382856"
       id="rect860"
       style="fill:#999999;fill-opacity:1;stroke:none;stroke-width:0.1;stroke-linecap:round;stroke-miterlimit:4;stroke-dasharray:none;stroke-opacity:1" />
  </g>
</svg>
