<?xml version="1.0" encoding="UTF-8" standalone="no"?>
<svg
   xmlns:osb="http://www.openswatchbook.org/uri/2009/osb"
   xmlns:dc="http://purl.org/dc/elements/1.1/"
   xmlns:cc="http://creativecommons.org/ns#"
   xmlns:rdf="http://www.w3.org/1999/02/22-rdf-syntax-ns#"
   xmlns:svg="http://www.w3.org/2000/svg"
   xmlns="http://www.w3.org/2000/svg"
   xmlns:sodipodi="http://sodipodi.sourceforge.net/DTD/sodipodi-0.dtd"
   xmlns:inkscape="http://www.inkscape.org/namespaces/inkscape"
   width="23.466667"
   height="23.466667"
   id="svg3049"
   version="1.1"
   inkscape:version="1.1-dev (7fa40cb683, 2020-03-24)"
   sodipodi:docname="fill.svg"
   inkscape:export-filename="/home/uri/.kde/share/icons/NITRUX-KDE/16x16/actions/view-right-new.png"
   inkscape:export-xdpi="30"
   inkscape:export-ydpi="30"
   viewBox="0 0 22 22">
  <defs
     id="defs3051">
    <style
       type="text/css"
       id="current-color-scheme">
      .ColorScheme-Text {
        color:#4d4d4d;
      }
      .ColorScheme-Background {
        color:#eff0f1;
      }
      .ColorScheme-Highlight {
        color:#3daee9;
      }
      .ColorScheme-ViewText {
        color:#31363b;
      }
      .ColorScheme-ViewBackground {
        color:#fcfcfc;
      }
      .ColorScheme-ViewHover {
        color:#93cee9;
      }
      .ColorScheme-ViewFocus{
        color:#3daee9;
      }
      .ColorScheme-ButtonText {
        color:#31363b;
      }
      .ColorScheme-ButtonBackground {
        color:#eff0f1;
      }
      .ColorScheme-ButtonHover {
        color:#93cee9;
      }
      .ColorScheme-ButtonFocus{
        color:#3daee9;
      }
      </style>
    <linearGradient
       osb:paint="gradient"
       id="linearGradient3797">
      <stop
         id="stop3799"
         offset="0"
         style="stop-color:#f8f8f8;stop-opacity:1;" />
      <stop
         id="stop3801"
         offset="1"
         style="stop-color:#f8f8f8;stop-opacity:0;" />
    </linearGradient>
    <clipPath
       id="clipPath898"
       clipPathUnits="userSpaceOnUse">
      <path
         sodipodi:nodetypes="aaaaaaaaaaaaa"
         inkscape:connector-curvature="0"
         id="path900"
         d="m 15.828397,1058.9318 c 1.197562,0.1302 2.312949,-0.7593 3.3289,-1.4066 2.261947,-1.4411 4.698491,-3.0326 5.970306,-5.394 1.164135,-2.1614 1.762974,-4.9118 1.115569,-7.28 -0.50346,-1.8415 -2.008741,-3.4197 -3.626955,-4.4326 -2.491115,-1.5593 -5.64982,-2.2983 -8.577443,-2.0405 -1.933142,0.1703 -3.869984,1.0512 -5.3411257,2.3169 -1.5085836,1.2978 -2.6771103,3.132 -3.1670748,5.0608 -0.3452329,1.3591 -0.5981033,3.0891 0.2591566,4.1987 0.8331608,1.0785 2.6360452,0.7284 3.8848833,1.2739 1.2084756,0.5279 2.7122496,0.8333 3.4588736,1.9204 0.819931,1.1938 -0.14829,3.0654 0.604965,4.3022 0.444138,0.7292 1.241126,1.3885 2.089945,1.4808 z"
         style="fill:#fff394;stroke:#d48e15;stroke-width:1px;stroke-linecap:butt;stroke-linejoin:miter;stroke-opacity:1" />
    </clipPath>
  </defs>
  <sodipodi:namedview
     id="base"
     pagecolor="#ffffff"
     bordercolor="#666666"
     borderopacity="1.0"
     inkscape:pageopacity="0.0"
     inkscape:pageshadow="2"
     inkscape:zoom="10.700315"
     inkscape:cx="6.2692541"
     inkscape:cy="1.7444974"
     inkscape:document-units="px"
     inkscape:current-layer="layer1"
     showgrid="false"
     fit-margin-top="0"
     fit-margin-left="0"
     fit-margin-right="0"
     fit-margin-bottom="0"
     inkscape:window-width="2560"
     inkscape:window-height="1377"
     inkscape:window-x="0"
     inkscape:window-y="30"
     inkscape:window-maximized="1"
     inkscape:showpageshadow="false"
     borderlayer="true"
     inkscape:snap-bbox="true"
     inkscape:snap-global="true"
     inkscape:snap-grids="false"
     inkscape:snap-to-guides="false"
     showguides="false">
    <inkscape:grid
       type="xygrid"
       id="grid4085"
       originx="0"
       originy="0"
       spacingx="1"
       spacingy="1" />
    <sodipodi:guide
       position="2.0000044,14.00003"
       orientation="12,0"
       id="guide4075"
       inkscape:locked="false" />
    <sodipodi:guide
       position="2.0000044,2.0000296"
       orientation="0,12"
       id="guide4077"
       inkscape:locked="false" />
    <sodipodi:guide
       position="14.000004,2.0000296"
       orientation="-12,0"
       id="guide4079"
       inkscape:locked="false" />
    <sodipodi:guide
       position="22,22"
       orientation="0,-12"
       id="guide4081"
       inkscape:locked="false" />
  </sodipodi:namedview>
  <metadata
     id="metadata3054">
    <rdf:RDF>
      <cc:Work
         rdf:about="">
        <dc:format>image/svg+xml</dc:format>
        <dc:type
           rdf:resource="http://purl.org/dc/dcmitype/StillImage" />
        <dc:title />
      </cc:Work>
    </rdf:RDF>
  </metadata>
  <g
     inkscape:label="Capa 1"
     inkscape:groupmode="layer"
     id="layer1"
     transform="translate(-421.71429,-525.79074)">
    <path
       id="path850"
       d="m 439.37917,537.04892 c 0.68805,0.007 1.4222,-0.29196 1.91422,-0.78383 1.09503,-1.09533 1.09324,-2.8793 -0.004,-3.97687 -0.98359,-0.98359 -2.44457,-1.06728 -3.72176,-0.21334 -0.28808,0.19245 -0.6245,0.19171 -0.81829,-0.002 -0.0601,-0.0601 -0.24288,-0.24288 -0.10816,-0.80874 0.13829,-0.57989 0.0545,-1.21961 -0.24243,-1.85037 -0.26675,-0.56706 -0.64151,-1.00462 -0.9087,-1.27197 -0.7519,-0.75175 -1.7522,-1.16679 -2.81665,-1.16828 -0.002,0 -0.004,0 -0.006,0 -1.06281,0 -2.06042,0.41235 -2.80949,1.16142 -0.93659,0.9366 -1.35417,2.20871 -1.11711,3.40251 0.0333,0.16813 -0.019,0.35044 -0.13307,0.46456 -0.17545,0.1753 -0.47457,0.19082 -0.86514,0.0448 -0.32344,-0.12099 -1.30777,-0.48903 -2.0176,0.22095 -0.34373,0.34372 -0.52499,0.84648 -0.48471,1.34507 0.0328,0.40459 0.23959,0.79457 0.55333,1.04326 0.25079,0.19902 0.47412,0.30524 0.65359,0.39042 0.0269,0.0128 0.0533,0.0255 0.0797,0.0382 0.21214,0.10339 0.3655,0.17799 0.54244,0.34388 0.3112,0.29166 0.48635,0.68566 0.49306,1.10965 0.007,0.39968 -0.14545,0.78473 -0.41712,1.05639 -0.24094,0.24094 -0.51873,0.37954 -0.90079,0.4498 -0.0786,0.0145 -0.15814,0.0284 -0.23841,0.0421 -0.63807,0.10995 -1.36147,0.23453 -1.92704,0.80024 -0.53051,0.53051 -0.82202,1.23706 -0.82068,1.98956 0.001,0.75086 0.29435,1.45651 0.825,1.98717 0.52857,0.52842 1.22692,0.8262 1.96659,0.83798 0.74668,0.0116 1.44427,-0.26779 1.96434,-0.78785 l 0.0312,-0.0318 c 0.12442,-0.1289 0.33179,-0.35372 0.43055,-0.47054 0.0528,-0.0625 0.10906,-0.12367 0.16694,-0.18156 0.55751,-0.55751 1.26093,-0.81202 1.88155,-0.68103 0.38505,0.0813 0.91168,0.35357 1.23571,1.19155 l 0.013,0.0328 c 0.31031,0.80352 0.73535,1.90378 1.41773,2.58616 0.75175,0.75175 1.7516,1.16679 2.8156,1.16858 h 0.007 c 1.06281,0 2.06057,-0.41265 2.80979,-1.16187 0.75638,-0.75638 1.18097,-1.7343 1.19559,-2.75354 0.0149,-1.03073 -0.38923,-2.01239 -1.13785,-2.76399 l -0.0222,-0.0218 c -0.30852,-0.29807 -0.53618,-0.52126 -0.60973,-0.59824 -0.44637,-0.46442 -0.39609,-1.25555 0.11204,-1.76369 0.28733,-0.28718 0.61032,-0.42025 1.0185,-0.41578 z m 0,0"
       style="fill:#d9d9d9;fill-opacity:1;stroke-width:0.9375" />
    <path
       style="fill:none;fill-opacity:1;stroke:#241f31;stroke-width:0.9375;stroke-opacity:1"
       d="m 439.37971,537.04888 c 0.68805,0.007 1.4222,-0.29196 1.91422,-0.78383 1.09503,-1.09533 1.09324,-2.8793 -0.004,-3.97687 -0.98359,-0.98359 -2.44457,-1.06728 -3.72176,-0.21334 -0.28808,0.19245 -0.6245,0.19171 -0.81829,-0.002 -0.0601,-0.0601 -0.24288,-0.24288 -0.10816,-0.80874 0.13829,-0.57989 0.0545,-1.21961 -0.24243,-1.85037 -0.26675,-0.56706 -0.64151,-1.00462 -0.9087,-1.27197 -0.7519,-0.75175 -1.7522,-1.16679 -2.81665,-1.16828 -0.002,0 -0.004,0 -0.006,0 -1.06281,0 -2.06042,0.41235 -2.80949,1.16142 -0.93659,0.9366 -1.35417,2.20871 -1.11711,3.40251 0.0333,0.16813 -0.019,0.35044 -0.13307,0.46456 -0.17545,0.1753 -0.47457,0.19082 -0.86514,0.0448 -0.32344,-0.12099 -1.30777,-0.48903 -2.0176,0.22095 -0.34373,0.34372 -0.52499,0.84648 -0.48471,1.34507 0.0328,0.40459 0.23959,0.79457 0.55333,1.04326 0.25079,0.19902 0.47412,0.30524 0.65359,0.39042 0.0269,0.0128 0.0533,0.0255 0.0797,0.0382 0.21214,0.10339 0.3655,0.17799 0.54244,0.34388 0.3112,0.29166 0.48635,0.68566 0.49306,1.10965 0.007,0.39968 -0.14545,0.78473 -0.41712,1.05639 -0.24094,0.24094 -0.51873,0.37954 -0.90079,0.4498 -0.0786,0.0145 -0.15814,0.0284 -0.23841,0.0421 -0.63807,0.10995 -1.36147,0.23453 -1.92704,0.80024 -0.53051,0.53051 -0.82202,1.23706 -0.82068,1.98956 0.001,0.75086 0.29435,1.45651 0.825,1.98717 0.52857,0.52842 1.22692,0.8262 1.96659,0.83798 0.74668,0.0116 1.44427,-0.26779 1.96434,-0.78785 l 0.0312,-0.0318 c 0.12442,-0.1289 0.33179,-0.35372 0.43055,-0.47054 0.0528,-0.0625 0.10906,-0.12367 0.16694,-0.18156 0.55751,-0.55751 1.26093,-0.81202 1.88155,-0.68103 0.38505,0.0813 0.91168,0.35357 1.23571,1.19155 l 0.013,0.0328 c 0.31031,0.80352 0.73535,1.90378 1.41773,2.58616 0.75175,0.75175 1.7516,1.16679 2.8156,1.16858 h 0.007 c 1.06281,0 2.06057,-0.41265 2.80979,-1.16187 0.75638,-0.75638 1.18097,-1.7343 1.19559,-2.75354 0.0149,-1.03073 -0.38923,-2.01239 -1.13785,-2.76399 l -0.0222,-0.0218 c -0.30852,-0.29807 -0.53618,-0.52126 -0.60973,-0.59824 -0.44637,-0.46442 -0.39609,-1.25555 0.11204,-1.76369 0.28733,-0.28718 0.61032,-0.42025 1.0185,-0.41578 z m 0,0"
       id="path861" />
    <path
       id="path863"
       style="fill:#ffffff;fill-opacity:1;stroke-width:0.9375"
       d="m 432.66828,526.9736 c -1.06281,0 -2.0616,0.41182 -2.81067,1.16089 -0.93659,0.9366 -1.35401,2.2083 -1.11695,3.4021 0.0333,0.16813 -0.0196,0.35097 -0.13366,0.46509 -0.17545,0.1753 -0.47369,0.19179 -0.86426,0.0458 -0.32344,-0.12099 -1.30799,-0.49025 -2.01782,0.21973 -0.34373,0.34372 -0.52551,0.84724 -0.48523,1.34583 0.0191,0.23544 0.10333,0.46225 0.22705,0.66284 0.0721,-0.12668 0.15552,-0.24525 0.25818,-0.3479 0.70983,-0.70998 1.69438,-0.34255 2.01782,-0.22156 0.39057,0.14602 0.68881,0.13135 0.86426,-0.044 0.11407,-0.11412 0.16696,-0.29695 0.13366,-0.46508 -0.23706,-1.1938 0.18036,-2.4655 1.11695,-3.4021 0.74907,-0.74907 1.74786,-1.16272 2.81067,-1.16272 h 0.005 c 1.06445,10e-4 2.06426,0.41646 2.81616,1.16821 0.26719,0.26735 0.64145,0.70552 0.9082,1.27258 0.0835,0.17733 0.14634,0.35562 0.19593,0.53284 0.002,-0.0952 0.0153,-0.20674 0.0476,-0.34241 0.13829,-0.57989 0.0534,-1.2186 -0.24353,-1.84936 -0.26675,-0.56706 -0.64101,-1.00524 -0.9082,-1.27259 -0.7519,-0.75175 -1.75171,-1.16672 -2.81616,-1.16821 z m 6.87011,4.51904 c -0.64784,-0.0371 -1.33162,0.15531 -1.97021,0.58228 -0.28808,0.19245 -0.62469,0.19188 -0.81848,-0.002 -0.0183,-0.0183 -0.0482,-0.0557 -0.0769,-0.10437 0.0489,0.3283 0.0417,0.65062 -0.0311,0.95581 -0.13472,0.56586 0.0479,0.74739 0.10804,0.80749 0.19379,0.19371 0.5304,0.19429 0.81848,0.002 1.27719,-0.85394 2.73711,-0.76936 3.7207,0.21423 0.33537,0.33547 0.55599,0.73826 0.68665,1.16272 0.29825,-0.9654 0.0771,-2.05949 -0.68665,-2.82349 -0.49179,-0.49179 -1.10264,-0.75755 -1.75049,-0.79468 z m -12.22595,5.89417 c -0.0497,0.0739 -0.10366,0.14394 -0.16663,0.20691 -0.24093,0.24094 -0.51881,0.38018 -0.90087,0.45044 -0.0786,0.0145 -0.15777,0.0284 -0.23804,0.0421 -0.63807,0.10995 -1.36253,0.23446 -1.9281,0.80017 -0.53051,0.53051 -0.82165,1.23786 -0.82031,1.99036 3.8e-4,0.28516 0.0556,0.55896 0.13732,0.82397 0.13285,-0.42989 0.35625,-0.82683 0.68299,-1.15356 0.56557,-0.56571 1.29003,-0.69022 1.9281,-0.80017 0.0803,-0.0137 0.15944,-0.0276 0.23804,-0.0421 0.38206,-0.0703 0.65994,-0.20949 0.90087,-0.45044 0.27168,-0.27166 0.42449,-0.65683 0.41749,-1.05651 -0.005,-0.2933 -0.0957,-0.57051 -0.25086,-0.81116 z m 10.95154,1.85486 c -0.41011,0.50643 -0.42886,1.21516 -0.0146,1.64612 0.0735,0.077 0.30122,0.30068 0.60974,0.59875 l 0.022,0.022 c 0.53372,0.53585 0.88353,1.19102 1.04004,1.89514 0.059,-0.25869 0.0932,-0.52335 0.0971,-0.79101 0.0149,-1.03073 -0.38847,-2.01329 -1.13709,-2.76489 l -0.022,-0.022 c -0.30149,-0.29128 -0.51639,-0.5024 -0.59509,-0.5841 z" />
    <path
       id="path868"
       style="fill:#b2b2b2;fill-opacity:1;stroke-width:0.9375"
       d="m 425.50519,532.5455 c -0.1974,0.31124 -0.29413,0.69044 -0.26367,1.06751 0.0328,0.40459 0.23924,0.79501 0.55298,1.0437 0.25079,0.19902 0.47421,0.30483 0.65368,0.39001 0.0269,0.0128 0.0542,0.0257 0.0806,0.0384 0.21214,0.10339 0.36505,0.17835 0.54199,0.34424 0.0743,0.0696 0.13943,0.14496 0.19776,0.22522 0.19154,-0.25533 0.30062,-0.57403 0.2948,-0.90637 -0.007,-0.42399 -0.18136,-0.81796 -0.49256,-1.10962 -0.17694,-0.16589 -0.32985,-0.23902 -0.54199,-0.34241 -0.0264,-0.0127 -0.0537,-0.0257 -0.0806,-0.0385 -0.17947,-0.0852 -0.40289,-0.19099 -0.65368,-0.39001 -0.11298,-0.0895 -0.2072,-0.20199 -0.28931,-0.32227 z m 16.45203,0.83862 c -0.13328,0.39841 -0.34637,0.77475 -0.66285,1.09131 -0.49202,0.49187 -1.2254,0.79069 -1.91345,0.78369 -0.40818,-0.004 -0.73073,0.12847 -1.01806,0.41565 -0.50813,0.50814 -0.55807,1.30072 -0.1117,1.76514 0.009,0.009 0.0585,0.0583 0.0714,0.0714 0.0141,-0.0154 0.0254,-0.0327 0.0403,-0.0476 0.28733,-0.28718 0.60988,-0.42012 1.01806,-0.41565 0.68805,0.007 1.42143,-0.29182 1.91345,-0.78369 0.77789,-0.7781 0.99146,-1.90005 0.66285,-2.88025 z m -11.90918,6.34827 c -0.4858,0.0425 -0.98629,0.29049 -1.40442,0.70862 -0.0579,0.0579 -0.11383,0.11877 -0.16663,0.18127 -0.0988,0.11682 -0.30588,0.34168 -0.4303,0.47058 l -0.0311,0.0311 c -0.52007,0.52006 -1.21805,0.80079 -1.96473,0.78919 -0.73967,-0.0118 -1.43798,-0.31021 -1.96655,-0.83863 -0.31221,-0.31221 -0.53162,-0.68986 -0.66833,-1.0968 -0.0961,0.28668 -0.1562,0.58736 -0.15564,0.89905 0.001,0.75086 0.29332,1.45603 0.82397,1.98669 0.52857,0.52842 1.22688,0.82685 1.96655,0.83863 0.74668,0.0116 1.44466,-0.26913 1.96473,-0.78919 l 0.0311,-0.0311 c 0.12442,-0.1289 0.33154,-0.35376 0.4303,-0.47058 0.0528,-0.0625 0.10875,-0.12338 0.16663,-0.18127 0.55751,-0.55751 1.2617,-0.81214 1.88232,-0.68115 0.38505,0.0813 0.91193,0.35403 1.23596,1.19201 l 0.0128,0.033 c 0.31031,0.80352 0.73486,1.90307 1.41724,2.58545 0.75175,0.75175 1.75216,1.16642 2.81616,1.16821 h 0.007 c 1.06281,0 2.05962,-0.41167 2.80884,-1.16089 0.75638,-0.75637 1.18106,-1.73466 1.19568,-2.7539 0.005,-0.32022 -0.045,-0.63218 -0.11902,-0.9375 -0.17277,0.70226 -0.53529,1.3611 -1.07666,1.90246 -0.74922,0.74922 -1.74603,1.16089 -2.80884,1.16089 h -0.007 c -1.064,-0.002 -2.06441,-0.41646 -2.81616,-1.16821 -0.68238,-0.68238 -1.10693,-1.78193 -1.41724,-2.58545 l -0.0128,-0.033 c -0.32403,-0.83798 -0.85091,-1.11071 -1.23596,-1.19201 -0.15515,-0.0327 -0.31597,-0.0416 -0.4779,-0.0275 z" />
    <rect
       style="fill:#d9d9d9;fill-opacity:1;stroke:#273445;stroke-width:0;stroke-linecap:round"
       id="rect847"
       width="4.3483925"
       height="4.3483925"
       x="451.03156"
       y="528.5116"
       rx="1.40625"
       ry="1.2187499" />
    <rect
       ry="1.2187499"
       rx="1.40625"
       y="533.92712"
       x="451.04489"
       height="4.3483925"
       width="4.3483925"
       id="rect849"
       style="fill:#727272;fill-opacity:1;stroke:#273445;stroke-width:0;stroke-linecap:round" />
    <rect
       ry="1.2187499"
       rx="1.40625"
       y="528.5116"
       x="456.60294"
       height="4.3483925"
       width="4.3483925"
       id="rect851"
       style="fill:#b2b2b2;fill-opacity:1;stroke:#273445;stroke-width:0;stroke-linecap:round" />
    <rect
       style="fill:#4d4d4d;fill-opacity:1;stroke:#273445;stroke-width:0;stroke-linecap:round"
       id="rect853"
       width="4.3483925"
       height="4.3483925"
       x="456.64029"
       y="533.90515"
       rx="1.40625"
       ry="1.2187499" />
    <rect
       ry="1.2187499"
       rx="1.40625"
       y="539.25793"
       x="456.54688"
       height="4.3483925"
       width="4.3483925"
       id="rect855"
       style="fill:#241f31;fill-opacity:1;stroke:#273445;stroke-width:0;stroke-linecap:round" />
    <rect
       ry="1.2187499"
       rx="1.40625"
       y="528.5116"
       x="445.5546"
       height="4.3483925"
       width="4.3483925"
       id="rect857"
       style="fill:#ffffff;fill-opacity:1;stroke:#000000;stroke-width:0.09375;stroke-linecap:round;stroke-miterlimit:4;stroke-dasharray:none;stroke-opacity:1" />
    <rect
       style="fill:#999999;fill-opacity:1;stroke:none;stroke-width:0.09375;stroke-linecap:round;stroke-miterlimit:4;stroke-dasharray:none;stroke-opacity:1"
       id="rect860"
       width="4.3483925"
       height="4.3483925"
       x="445.5546"
       y="533.92853"
       rx="1.40625"
       ry="1.2187499" />
  </g>
</svg>
