<?xml version="1.0" encoding="UTF-8" standalone="no"?>
<svg
   xmlns:osb="http://www.openswatchbook.org/uri/2009/osb"
   xmlns:dc="http://purl.org/dc/elements/1.1/"
   xmlns:cc="http://creativecommons.org/ns#"
   xmlns:rdf="http://www.w3.org/1999/02/22-rdf-syntax-ns#"
   xmlns:svg="http://www.w3.org/2000/svg"
   xmlns="http://www.w3.org/2000/svg"
   xmlns:xlink="http://www.w3.org/1999/xlink"
   xmlns:sodipodi="http://sodipodi.sourceforge.net/DTD/sodipodi-0.dtd"
   xmlns:inkscape="http://www.inkscape.org/namespaces/inkscape"
   sodipodi:docname="floating_toolbox.svg"
   inkscape:version="1.1-dev (7fa40cb683, 2020-03-24)"
   id="svg41"
   version="1.1"
   viewBox="0 0 20.625 20.625"
   height="22"
   width="22">
  <defs
     id="defs35">
    <linearGradient
       id="linearGradient6057">
      <stop
         id="stop6059"
         offset="0"
         style="stop-color:#222222;stop-opacity:0.88973391;" />
      <stop
         style="stop-color:#989898;stop-opacity:0.44313726;"
         offset="1"
         id="stop6065" />
    </linearGradient>
    <linearGradient
       id="linearGradient6041">
      <stop
         id="stop6043"
         offset="0"
         style="stop-color:#000000;stop-opacity:1;" />
      <stop
         id="stop6045"
         offset="1"
         style="stop-color:#000000;stop-opacity:0;" />
    </linearGradient>
    <linearGradient
       osb:paint="solid"
       id="linearGradient6035">
      <stop
         id="stop6037"
         offset="0"
         style="stop-color:#ff0000;stop-opacity:1;" />
    </linearGradient>
    <marker
       style="overflow:visible"
       id="Arrow1Lstart"
       refX="0.0"
       refY="0.0"
       orient="auto"
       inkscape:stockid="Arrow1Lstart">
      <path
         transform="scale(0.8) translate(12.5,0)"
         style="fill-rule:evenodd;stroke:#000000;stroke-width:1.0pt"
         d="M 0.0,0.0 L 5.0,-5.0 L -12.5,0.0 L 5.0,5.0 L 0.0,0.0 z "
         id="path3787" />
    </marker>
    <linearGradient
       id="linearGradient2999">
      <stop
         style="stop-color:#4c4c4c;stop-opacity:0.41176471;"
         offset="0"
         id="stop3775" />
      <stop
         id="stop3003"
         offset="1"
         style="stop-color:#999999;stop-opacity:0;" />
    </linearGradient>
    <linearGradient
       gradientTransform="matrix(0.83739436,0,0,0.92539931,0.02701454,1029.9763)"
       gradientUnits="userSpaceOnUse"
       y2="21.084822"
       x2="15.6875"
       y1="0.4598214"
       x1="9.4017859"
       id="linearGradient6063"
       xlink:href="#linearGradient6057-4"
       inkscape:collect="always" />
    <linearGradient
       gradientTransform="matrix(0.83739436,0,0,0.92539931,0.27955268,1030.3551)"
       gradientUnits="userSpaceOnUse"
       y2="21.084822"
       x2="15.6875"
       y1="0.4598214"
       x1="9.4017859"
       id="linearGradient6063-2"
       xlink:href="#linearGradient6057-4"
       inkscape:collect="always" />
    <linearGradient
       id="linearGradient6057-4">
      <stop
         id="stop6059-3"
         offset="0"
         style="stop-color:#222222;stop-opacity:1;" />
      <stop
         style="stop-color:#989898;stop-opacity:1;"
         offset="1"
         id="stop6065-7" />
    </linearGradient>
    <linearGradient
       inkscape:collect="always"
       xlink:href="#linearGradient6057-4"
       id="linearGradient6101"
       gradientUnits="userSpaceOnUse"
       gradientTransform="matrix(0.83739436,0,0,0.92539931,2.8079284,1032.6099)"
       x1="9.4017859"
       y1="0.4598214"
       x2="15.6875"
       y2="21.084822" />
    <linearGradient
       y2="10.23719"
       x2="18.929443"
       y1="0.4598214"
       x1="9.4017859"
       gradientTransform="matrix(0.83739436,0,0,0.92539931,-1.1695472,1038.6099)"
       gradientUnits="userSpaceOnUse"
       id="linearGradient6148-9"
       xlink:href="#linearGradient6057-4"
       inkscape:collect="always" />
    <linearGradient
       inkscape:collect="always"
       xlink:href="#linearGradient6057-4"
       id="linearGradient6165-5"
       gradientUnits="userSpaceOnUse"
       gradientTransform="matrix(0.83739436,0,0,0.92539931,-1.2011139,1033.6831)"
       x1="9.4017859"
       y1="0.4598214"
       x2="18.929443"
       y2="10.23719" />
    <linearGradient
       inkscape:collect="always"
       xlink:href="#linearGradient6057-4"
       id="linearGradient6165-2"
       gradientUnits="userSpaceOnUse"
       gradientTransform="matrix(0.83739436,0,0,0.92539931,-1.2011139,1033.1149)"
       x1="9.4017859"
       y1="0.4598214"
       x2="18.929443"
       y2="10.23719" />
    <linearGradient
       inkscape:collect="always"
       xlink:href="#linearGradient6057-4"
       id="linearGradient6250"
       gradientUnits="userSpaceOnUse"
       gradientTransform="matrix(0.83739436,0,0,0.92539931,-4.1053025,1032.5467)"
       x1="9.4017859"
       y1="0.4598214"
       x2="18.929443"
       y2="10.23719" />
    <linearGradient
       y2="10.23719"
       x2="18.929443"
       y1="0.4598214"
       x1="9.4017859"
       gradientTransform="matrix(0.83739436,0,0,0.92539931,-1.1695472,1042.4206)"
       gradientUnits="userSpaceOnUse"
       id="linearGradient6148-3"
       xlink:href="#linearGradient6057-4"
       inkscape:collect="always" />
  </defs>
  <sodipodi:namedview
     inkscape:snap-midpoints="true"
     inkscape:snap-smooth-nodes="true"
     inkscape:snap-grids="false"
     inkscape:snap-intersection-paths="true"
     inkscape:object-paths="true"
     inkscape:snap-global="false"
     inkscape:snap-nodes="true"
     inkscape:snap-others="true"
     inkscape:bbox-paths="false"
     inkscape:bbox-nodes="true"
     inkscape:snap-bbox-edge-midpoints="false"
     inkscape:snap-bbox-midpoints="true"
     inkscape:snap-bbox="false"
     inkscape:snap-object-midpoints="true"
     scale-x="1e-05"
     inkscape:snap-page="false"
     units="px"
     inkscape:window-maximized="1"
     inkscape:window-y="30"
     inkscape:window-x="0"
     inkscape:window-height="1377"
     inkscape:window-width="2560"
     showgrid="false"
     inkscape:current-layer="g4666"
     inkscape:document-units="px"
     inkscape:cy="13.182473"
     inkscape:cx="19.521549"
     inkscape:zoom="16"
     inkscape:pageshadow="2"
     inkscape:pageopacity="0"
     borderopacity="1.0"
     bordercolor="#666666"
     pagecolor="#ffffff"
     id="base" />
  <metadata
     id="metadata38">
    <rdf:RDF>
      <cc:Work
         rdf:about="">
        <dc:format>image/svg+xml</dc:format>
        <dc:type
           rdf:resource="http://purl.org/dc/dcmitype/StillImage" />
        <dc:title />
      </cc:Work>
    </rdf:RDF>
  </metadata>
  <g
     transform="translate(0.05960665,-289.96858)"
     id="layer1"
     inkscape:groupmode="layer"
     inkscape:label="Ebene 1">
    <g
       transform="matrix(0.00172838,0,0,-0.0015338,0.65072341,289.30392)"
       style="fill:#333333;stroke:#ff0000;stroke-width:0.98215002"
       id="use18">
      <g
         id="g3838"
         style="clip-rule:evenodd">
        <g
           style="fill:#ff4343;fill-opacity:1"
           transform="matrix(0.92900719,0.14588654,-0.09169444,1.1369171,21.027059,-136.15221)"
           id="g4162">
          <g
             style="fill:#ff4343;fill-opacity:1"
             id="g4666"
             transform="matrix(0.86313882,-0.22943906,0.21454484,0.8594656,-13.863256,-6.6037461)">
            <path
               inkscape:connector-curvature="0"
               id="path878"
               d="M 11200.362,-276.15289 1713.9145,-2966.5198"
               style="fill:none;stroke:#4d4d4d;stroke-width:1251.94;stroke-linecap:round;stroke-linejoin:miter;stroke-miterlimit:4;stroke-dasharray:none;stroke-opacity:1" />
            <path
               inkscape:connector-curvature="0"
               id="path880"
               d="m 1839.5726,-3581.524 a 618.03929,634.13318 53.137041 0 0 -311.9338,1215.1588 L 11014.086,324.00058 a 618.03929,634.13318 53.137041 1 0 372.551,-1200.30781 L 1900.1894,-3566.673 a 618.03929,634.13318 53.137041 0 0 -60.6168,-14.851 z"
               style="color:#000000;font-style:normal;font-variant:normal;font-weight:normal;font-stretch:normal;font-size:medium;line-height:normal;font-family:sans-serif;font-variant-ligatures:normal;font-variant-position:normal;font-variant-caps:normal;font-variant-numeric:normal;font-variant-alternates:normal;font-feature-settings:normal;text-indent:0;text-align:start;text-decoration:none;text-decoration-line:none;text-decoration-style:solid;text-decoration-color:#000000;letter-spacing:normal;word-spacing:normal;text-transform:none;writing-mode:lr-tb;direction:ltr;text-orientation:mixed;dominant-baseline:auto;baseline-shift:baseline;text-anchor:start;white-space:normal;shape-padding:0;clip-rule:nonzero;display:inline;overflow:visible;visibility:visible;isolation:auto;mix-blend-mode:normal;color-interpolation:sRGB;color-interpolation-filters:linearRGB;solid-color:#000000;solid-opacity:1;vector-effect:none;fill:none;fill-opacity:1;fill-rule:nonzero;stroke:#241f31;stroke-width:625.972;stroke-linecap:round;stroke-linejoin:miter;stroke-miterlimit:4;stroke-dasharray:none;stroke-dashoffset:0;stroke-opacity:1;color-rendering:auto;image-rendering:auto;shape-rendering:auto;text-rendering:auto;enable-background:accumulate" />
            <path
               id="path884"
               d="m 1486.1856,-2378.721 a 618.03929,634.13318 53.137041 0 1 -229.5596,-1016.1382 618.03929,634.13318 53.137041 0 0 443.5558,495.4358 l 9486.4472,2690.36703 a 618.03929,634.13318 53.137041 0 0 643.496,-171.235 618.03929,634.13318 53.137041 0 1 -815.97,703.71299 L 1527.7072,-2366.9454 a 618.03929,634.13318 53.137041 0 1 -41.5216,-11.7756 z"
               style="color:#000000;font-style:normal;font-variant:normal;font-weight:normal;font-stretch:normal;font-size:medium;line-height:normal;font-family:sans-serif;font-variant-ligatures:normal;font-variant-position:normal;font-variant-caps:normal;font-variant-numeric:normal;font-variant-alternates:normal;font-feature-settings:normal;text-indent:0;text-align:start;text-decoration:none;text-decoration-line:none;text-decoration-style:solid;text-decoration-color:#000000;letter-spacing:normal;word-spacing:normal;text-transform:none;writing-mode:lr-tb;direction:ltr;text-orientation:mixed;dominant-baseline:auto;baseline-shift:baseline;text-anchor:start;white-space:normal;shape-padding:0;clip-rule:nonzero;display:inline;overflow:visible;visibility:visible;isolation:auto;mix-blend-mode:normal;color-interpolation:sRGB;color-interpolation-filters:linearRGB;solid-color:#000000;solid-opacity:1;vector-effect:none;fill:#727272;fill-opacity:1;fill-rule:nonzero;stroke:none;stroke-width:1251.94;stroke-linecap:round;stroke-linejoin:miter;stroke-miterlimit:4;stroke-dasharray:none;stroke-dashoffset:0;stroke-opacity:1;color-rendering:auto;image-rendering:auto;shape-rendering:auto;text-rendering:auto;enable-background:accumulate"
               inkscape:connector-curvature="0" />
            <rect
               style="fill:#727272;fill-opacity:1;stroke:none;stroke-width:965.934;stroke-linecap:round;stroke-linejoin:round;stroke-miterlimit:4;stroke-dasharray:none;stroke-opacity:1"
               id="rect848"
               width="1345.2797"
               height="5121.3032"
               x="9896.9844"
               y="2542.5769"
               transform="matrix(0.96205913,0.27284103,0.30814747,-0.9513386,0,0)"
               rx="271.59164"
               ry="381.5076" />
            <rect
               ry="381.5076"
               rx="271.59164"
               transform="matrix(0.96205913,0.27284103,0.30814747,-0.9513386,0,0)"
               y="2542.5769"
               x="9896.9844"
               height="5121.3032"
               width="1345.2797"
               id="rect850"
               style="fill:none;fill-opacity:1;stroke:#241f31;stroke-width:626.185;stroke-linecap:round;stroke-linejoin:round;stroke-miterlimit:4;stroke-dasharray:none;stroke-opacity:1" />
            <path
               id="rect852"
               d="m 11652.187,-3876.3146 113.288,-349.7539 c 65.367,-201.8049 233.826,-331.4813 378.129,-290.5568 l 773.034,219.2332 c 144.303,40.9245 207.477,236.2924 142.11,438.0973 l -113.288,349.7539 c 65.366,-201.8048 2.192,-397.1727 -142.111,-438.0973 l -773.034,-219.2332 c -144.303,-40.9245 -312.762,88.752 -378.128,290.5568 z"
               style="fill:#7e8087;fill-opacity:1;stroke:none;stroke-width:965.606;stroke-linecap:round;stroke-linejoin:round;stroke-miterlimit:4;stroke-dasharray:none;stroke-opacity:1"
               inkscape:connector-curvature="0" />
            <path
               id="rect854"
               d="m 10565.552,355.26791 c -144.303,-40.92452 -207.477,-236.29246 -142.111,-438.097285 l 98.765,-304.913705 c -65.367,201.80483 -2.193,397.1727518 142.111,438.097274 L 11437.35,269.5874 c 144.303,40.92452 312.762,-88.75194 378.129,-290.556777 l -98.764,304.913707 c -65.367,201.80482 -233.826,331.48131 -378.129,290.55678 z"
               style="fill:#999999;fill-opacity:1;stroke:none;stroke-width:965.606;stroke-linecap:round;stroke-linejoin:round;stroke-miterlimit:4;stroke-dasharray:none;stroke-opacity:1"
               inkscape:connector-curvature="0" />
            <rect
               ry="381.5076"
               rx="271.59164"
               transform="matrix(0.96205913,0.27284103,0.30814747,-0.9513386,0,0)"
               y="2542.5769"
               x="21.587145"
               height="5121.3032"
               width="1345.2797"
               id="rect868"
               style="fill:#727272;fill-opacity:1;stroke:none;stroke-width:965.934;stroke-linecap:round;stroke-linejoin:round;stroke-miterlimit:4;stroke-dasharray:none;stroke-opacity:1" />
            <rect
               style="fill:none;fill-opacity:1;stroke:#241f31;stroke-width:626.185;stroke-linecap:round;stroke-linejoin:round;stroke-miterlimit:4;stroke-dasharray:none;stroke-opacity:1"
               id="rect870"
               width="1345.2797"
               height="5121.3032"
               x="21.587145"
               y="2542.5769"
               transform="matrix(0.96205913,0.27284103,0.30814747,-0.9513386,0,0)"
               rx="271.59164"
               ry="381.5076" />
            <path
               style="fill:#7e8087;fill-opacity:1;stroke:none;stroke-width:965.606;stroke-linecap:round;stroke-linejoin:round;stroke-miterlimit:4;stroke-dasharray:none;stroke-opacity:1"
               d="m 2151.4708,-6570.7281 113.2885,-349.7539 c 65.3665,-201.8049 233.8256,-331.4813 378.1287,-290.5568 l 773.0337,219.2332 c 144.3031,40.9245 207.4773,236.2924 142.1108,438.0973 l -113.2886,349.7539 c 65.3665,-201.8048 2.1923,-397.1727 -142.1108,-438.0973 l -773.0337,-219.2332 c -144.3031,-40.9245 -312.7622,88.752 -378.1286,290.5568 z"
               id="path872"
               inkscape:connector-curvature="0" />
            <path
               style="fill:#999999;fill-opacity:1;stroke:none;stroke-width:965.606;stroke-linecap:round;stroke-linejoin:round;stroke-miterlimit:4;stroke-dasharray:none;stroke-opacity:1"
               d="m 1064.8362,-2339.1456 c -144.30307,-40.9245 -207.47725,-236.2925 -142.11079,-438.0973 l 98.76439,-304.9137 c -65.36646,201.8049 -2.1923,397.1728 142.1108,438.0973 l 773.0337,219.2332 c 144.3031,40.9245 312.7622,-88.7519 378.1287,-290.5568 l -98.7644,304.9137 c -65.3665,201.8048 -233.8256,331.4813 -378.1287,290.5568 z"
               id="path874"
               inkscape:connector-curvature="0" />
            <rect
               rx="594.99707"
               ry="548.60614"
               transform="matrix(0.96205913,0.27284103,0.30814747,-0.9513386,0,0)"
               y="5086.8921"
               x="-290.29688"
               height="7484.8555"
               width="11844.445"
               id="rect823"
               style="fill:#d9d9d9;fill-opacity:1;stroke:none;stroke-width:1714.45;stroke-linecap:round;stroke-linejoin:round;stroke-miterlimit:4;stroke-dasharray:none;stroke-opacity:1" />
            <path
               id="rect955"
               d="m 3170.6603,-10728.368 254.8994,-786.947 c 93.9966,-290.194 423.743,-451.426 739.88,-361.769 l 10253.3743,2907.8687 c 316.137,89.6567 494.738,395.0562 400.741,685.2502 l -254.899,786.9466 c 93.996,-290.1941 -84.241,-596.7145 -400.378,-686.3712 L 3910.9034,-11091.258 c -316.1369,-89.657 -646.2465,72.696 -740.2431,362.89 z"
               style="fill:#b2b2b2;fill-opacity:1;stroke:none;stroke-width:1713.87;stroke-linecap:round;stroke-linejoin:round;stroke-miterlimit:4;stroke-dasharray:none;stroke-opacity:1"
               inkscape:connector-curvature="0" />
            <path
               sodipodi:nodetypes="cssc"
               inkscape:connector-curvature="0"
               id="rect945"
               d="m 13935.305,-6305.5768 c -308.982,953.9134 -1394.333,1484.6036 -2433.524,1189.8877 L 4305.2798,-7156.6246 C 3266.0892,-7451.3402 2678.2308,-8456.5544 2987.2119,-9410.468"
               style="fill:none;fill-opacity:1;stroke:#241f31;stroke-width:625.972;stroke-linecap:round;stroke-linejoin:round;stroke-miterlimit:4;stroke-dasharray:none;stroke-opacity:1" />
            <path
               inkscape:connector-curvature="0"
               id="rect950"
               d="m 1904.5581,-4757.3795 c -316.1369,-89.6568 -494.7372,-395.0562 -400.7405,-685.2507 l 287.5787,-887.8369 c -93.9967,290.1944 84.6036,595.5938 400.7406,685.2506 l 10253.3741,2907.8683 c 316.138,89.6568 645.884,-71.5749 739.88,-361.7694 l -287.578,887.8371 c -93.997,290.1944 -423.744,451.426 -739.88,361.7693 z"
               style="fill:#ffffff;fill-opacity:1;stroke:none;stroke-width:1713.87;stroke-linecap:round;stroke-linejoin:round;stroke-miterlimit:4;stroke-dasharray:none;stroke-opacity:1" />
            <path
               inkscape:connector-curvature="0"
               id="rect960"
               d="M 4055.0252,-6369.8741 C 3052.5349,-6654.1814 2404.776,-7539.1844 2444.4512,-8486.3557 l 157.5872,-486.5166 c -39.6751,947.1714 608.0837,1832.1741 1610.5742,2116.4816 l 7195.4364,2040.6336 c 1000.969,283.8764 2056.743,-109.813 2584.354,-914.5556 l -157.587,486.5166 c -527.611,804.7426 -1583.385,1198.4321 -2584.354,914.5557 z"
               style="fill:#ffffff;fill-opacity:1;stroke:none;stroke-width:1713.87;stroke-linecap:round;stroke-linejoin:round;stroke-miterlimit:4;stroke-dasharray:none;stroke-opacity:1" />
            <path
               inkscape:connector-curvature="0"
               id="rect972"
               d="m 4399.1824,-7457.086 c -890.8692,-252.6516 -1366.1613,-1084.4446 -1113.6058,-1864.1591 61.4645,-179.8523 -49.2838,-368.423 -235.487,-400.9317 -75.0306,-12.8185 -152.8719,2.0985 -218.932,41.9495 l 135.4381,-418.1357 c 66.06,-39.851 143.9012,-54.767 218.9317,-41.949 186.2038,32.509 296.9515,221.0797 235.487,400.932 -252.5553,779.7139 222.7368,1611.5068 1113.606,1864.1584 l 7195.4366,2040.6337 c 890.873,252.6524 1789.572,-198.0436 2042.13,-977.7563 86.209,-276.1702 468.194,-308.1205 586.588,-49.0638 l -135.438,418.1355 c -118.394,-259.0566 -500.378,-227.1062 -586.589,49.0637 -252.556,779.7131 -1151.257,1230.4088 -2042.129,977.7565 z"
               style="fill:#b2b2b2;fill-opacity:1;stroke:none;stroke-width:1713.87;stroke-linecap:round;stroke-linejoin:round;stroke-miterlimit:4;stroke-dasharray:none;stroke-opacity:1" />
            <rect
               style="fill:none;fill-opacity:1;stroke:#241f31;stroke-width:626.185;stroke-linecap:round;stroke-linejoin:round;stroke-miterlimit:4;stroke-dasharray:none;stroke-opacity:1"
               id="rect948"
               width="11844.445"
               height="7484.8555"
               x="-290.29688"
               y="5086.8921"
               transform="matrix(0.96205913,0.27284103,0.30814747,-0.9513386,0,0)"
               ry="548.60614"
               rx="594.99707" />
            <rect
               ry="601.11761"
               rx="651.94891"
               transform="matrix(0.96205913,0.27284103,0.30814747,-0.9513386,0,0)"
               y="6349.8496"
               x="4210.2178"
               height="3601.0261"
               width="3066.8289"
               id="rect982"
               style="fill:#727272;fill-opacity:1;stroke:none;stroke-width:626.185;stroke-linecap:round;stroke-linejoin:round;stroke-miterlimit:4;stroke-dasharray:none;stroke-opacity:1" />
            <path
               sodipodi:nodetypes="sscsscsss"
               inkscape:connector-curvature="0"
               id="rect986"
               d="m 6632.4331,-4714.811 c -346.397,-98.2386 -542.3497,-433.31 -439.3558,-751.2812 l 223.6723,-690.5398 c -102.9939,317.9712 92.9589,653.0426 439.3559,751.2811 l 1699.9401,482.1049 c 346.397,98.2386 708.181,-78.6581 811.1748,-396.6292 l -223.6723,690.5398 c -102.9939,317.9712 -464.7778,494.8679 -811.1748,396.6293 z"
               style="fill:#999999;fill-opacity:1;stroke:none;stroke-width:625.972;stroke-linecap:round;stroke-linejoin:round;stroke-miterlimit:4;stroke-dasharray:none;stroke-opacity:1" />
            <path
               id="rect991"
               d="m 6689.8041,-6999.6287 241.1013,-744.3482 c 102.9939,-317.9712 464.7778,-494.8678 811.1748,-396.6293 l 1699.9402,482.1049 c 346.397,98.2386 542.3497,433.31 439.3559,751.2812 l -241.1014,744.3481 c 102.9939,-317.9711 -92.9589,-653.0425 -439.3559,-751.2811 L 7500.9789,-7396.258 c -346.397,-98.2386 -708.181,78.6581 -811.1748,396.6293 z"
               style="fill:#4d4d4d;fill-opacity:1;stroke:none;stroke-width:625.972;stroke-linecap:round;stroke-linejoin:round;stroke-miterlimit:4;stroke-dasharray:none;stroke-opacity:1"
               inkscape:connector-curvature="0" />
            <rect
               style="fill:none;fill-opacity:1;stroke:#241f31;stroke-width:626.185;stroke-linecap:round;stroke-linejoin:round;stroke-miterlimit:4;stroke-dasharray:none;stroke-opacity:1"
               id="rect984"
               width="3066.8289"
               height="3601.0261"
               x="4210.2178"
               y="6349.8496"
               transform="matrix(0.96205913,0.27284103,0.30814747,-0.9513386,0,0)"
               rx="651.94891"
               ry="601.11761" />
            <path
               sodipodi:nodetypes="cssccssccsscccc"
               inkscape:connector-curvature="0"
               id="path1000"
               d="m 16327.368,-7907.4727 c -80.828,551.9522 -680.258,991.7652 -1572.491,1153.7654 -892.233,162 -1941.717,21.5754 -2753.123,-368.3776 -811.405,-389.9529 -1261.459,-970.1905 -1180.631,-1522.1437 v 0 c 80.828,-551.9531 -369.226,-1132.1908 -1180.6318,-1522.1434 -811.4051,-389.953 -1860.8896,-530.378 -2753.1227,-368.378 -892.2334,162 -1491.6637,601.8133 -1572.4911,1153.7665 h -1e-4 c -80.8282,551.9521 -680.2585,991.7651 -1572.4913,1153.7653 -892.233,162 -1941.7175,21.5753 -2753.1227,-368.3775 -811.4054,-389.9529 -1261.45952,-970.1906 -1180.63124,-1522.1433 L 1045.573,-14203.712 c 0,0 15871.333,2619.192 15940.837,2641.885 69.502,22.693 -659.042,3654.3543 -659.042,3654.3543 z"
               style="fill:#727272;fill-opacity:1;stroke:none;stroke-width:625.97192383;stroke-linecap:round;stroke-linejoin:round;stroke-miterlimit:4;stroke-dasharray:none;stroke-opacity:1" />
            <path
               style="fill:none;fill-opacity:1;stroke:#241f31;stroke-width:625.97192383;stroke-linecap:round;stroke-linejoin:round;stroke-miterlimit:4;stroke-dasharray:none;stroke-opacity:1"
               d="m 16327.368,-7907.4727 c -80.828,551.9522 -680.258,991.7652 -1572.491,1153.7654 -892.233,162 -1941.717,21.5754 -2753.123,-368.3776 -811.405,-389.9529 -1261.459,-970.1905 -1180.631,-1522.1437 v 0 c 80.828,-551.9531 -369.226,-1132.1908 -1180.6318,-1522.1434 -811.4051,-389.953 -1860.8896,-530.378 -2753.1227,-368.378 -892.2334,162 -1491.6637,601.8133 -1572.4911,1153.7665 h -1e-4 c -80.8282,551.9521 -680.2585,991.7651 -1572.4913,1153.7653 -892.233,162 -1941.7175,21.5753 -2753.1227,-368.3775 -811.4054,-389.9529 -1261.45952,-970.1906 -1180.63124,-1522.1433 L 1045.573,-14203.712 c 0,0 15871.333,2619.192 15940.837,2641.885 69.502,22.693 -659.042,3654.3543 -659.042,3654.3543 z"
               id="path1009"
               inkscape:connector-curvature="0"
               sodipodi:nodetypes="cssccssccsscccc" />
            <path
               id="path1011"
               transform="matrix(646.48343,86.50175,87.053149,-594.46322,-459.29453,-346.70704)"
               d="M 2.4941406 13.582031 C 1.7588922 13.582031 1.0240441 13.697565 0.36523438 13.929688 C -0.95238544 14.393932 -1.7636724 15.251198 -1.7636719 16.179688 L -1.6328125 17.126953 C -1.3563877 16.452108 -0.64700644 15.862508 0.36523438 15.505859 C 1.6828539 15.041615 3.3054276 15.041615 4.6230469 15.505859 C 5.9406658 15.970104 6.7519525 16.827371 6.7519531 17.755859 C 6.7519523 18.684349 7.5651926 19.541615 8.8828125 20.005859 C 10.200432 20.470104 11.823006 20.470104 13.140625 20.005859 C 14.458245 19.541614 15.269531 18.684349 15.269531 17.755859 C 15.269531 16.827369 16.082771 15.970104 17.400391 15.505859 C 18.718011 15.041615 20.340584 15.041615 21.658203 15.505859 C 22.975822 15.970104 23.787109 16.827371 23.787109 17.755859 C 23.787109 17.755859 23.918933 20.527508 23.972656 22.355469 C 23.972665 22.355467 23.974601 22.35547 23.974609 22.355469 C 24.085093 22.333372 23.787109 16.179688 23.787109 16.179688 C 23.787109 15.251199 22.975822 14.393932 21.658203 13.929688 C 20.340584 13.465443 18.718011 13.465443 17.400391 13.929688 C 16.082771 14.393932 15.269531 15.251197 15.269531 16.179688 C 15.269531 17.108177 14.458245 17.967396 13.140625 18.431641 C 11.823006 18.895886 10.200432 18.895885 8.8828125 18.431641 C 7.5651926 17.967396 6.7519522 17.108177 6.7519531 16.179688 C 6.7519526 15.251199 5.9406658 14.393932 4.6230469 13.929688 C 3.9642372 13.697565 3.229389 13.582031 2.4941406 13.582031 z "
               style="fill:#999999;fill-opacity:1;stroke:none;stroke-width:1;stroke-linecap:round;stroke-linejoin:round;stroke-miterlimit:4;stroke-dasharray:none;stroke-opacity:1" />
            <rect
               transform="matrix(0.99116674,0.13262159,0.14489456,-0.9894471,0,0)"
               style="fill:#d9d9d9;fill-opacity:1;stroke:#273445;stroke-width:0;stroke-linecap:round"
               id="rect847"
               width="3025.2981"
               height="2786.698"
               x="20936.316"
               y="2520.5154"
               rx="978.36731"
               ry="781.04443" />
            <rect
               transform="matrix(0.99116674,0.13262159,0.14489456,-0.9894471,0,0)"
               ry="781.04443"
               rx="978.36731"
               y="5991.123"
               x="20945.602"
               height="2786.698"
               width="3025.2981"
               id="rect849"
               style="fill:#727272;fill-opacity:1;stroke:#273445;stroke-width:0;stroke-linecap:round" />
            <rect
               transform="matrix(0.99116674,0.13262159,0.14489456,-0.9894471,0,0)"
               ry="781.04443"
               rx="978.36731"
               y="2520.5154"
               x="24812.48"
               height="2786.698"
               width="3025.2981"
               id="rect851"
               style="fill:#b2b2b2;fill-opacity:1;stroke:#273445;stroke-width:0;stroke-linecap:round" />
            <rect
               transform="matrix(0.99116674,0.13262159,0.14489456,-0.9894471,0,0)"
               style="fill:#4d4d4d;fill-opacity:1;stroke:#273445;stroke-width:0;stroke-linecap:round"
               id="rect853"
               width="3025.2981"
               height="2786.698"
               x="24838.479"
               y="5977.042"
               rx="978.36731"
               ry="781.04443" />
            <rect
               transform="matrix(0.99116674,0.13262159,0.14489456,-0.9894471,0,0)"
               ry="781.04443"
               rx="978.36731"
               y="9407.3857"
               x="24773.484"
               height="2786.698"
               width="3025.2981"
               id="rect855"
               style="fill:#241f31;fill-opacity:1;stroke:#273445;stroke-width:0;stroke-linecap:round" />
            <rect
               transform="matrix(0.99116674,0.13262159,0.14489456,-0.9894471,0,0)"
               ry="781.04443"
               rx="978.36731"
               y="2520.5154"
               x="17125.848"
               height="2786.698"
               width="3025.2981"
               id="rect857"
               style="fill:#ffffff;fill-opacity:1;stroke:#000000;stroke-width:62.5996;stroke-linecap:round;stroke-miterlimit:4;stroke-dasharray:none;stroke-opacity:1" />
            <rect
               transform="matrix(0.99116674,0.13262159,0.14489456,-0.9894471,0,0)"
               style="fill:#999999;fill-opacity:1;stroke:none;stroke-width:62.5996;stroke-linecap:round;stroke-miterlimit:4;stroke-dasharray:none;stroke-opacity:1"
               id="rect860"
               width="3025.2981"
               height="2786.698"
               x="17125.848"
               y="5992.0034"
               rx="978.36731"
               ry="781.04443" />
          </g>
        </g>
      </g>
    </g>
  </g>
</svg>
