<?xml version="1.0" encoding="UTF-8" standalone="no"?>
<svg
   xmlns:dc="http://purl.org/dc/elements/1.1/"
   xmlns:cc="http://creativecommons.org/ns#"
   xmlns:rdf="http://www.w3.org/1999/02/22-rdf-syntax-ns#"
   xmlns:svg="http://www.w3.org/2000/svg"
   xmlns="http://www.w3.org/2000/svg"
   xmlns:sodipodi="http://sodipodi.sourceforge.net/DTD/sodipodi-0.dtd"
   xmlns:inkscape="http://www.inkscape.org/namespaces/inkscape"
   sodipodi:docname="hand.svg"
   inkscape:version="1.1-dev (7fa40cb683, 2020-03-24)"
   id="svg41"
   version="1.1"
   viewBox="0 0 1.42076 1.42076"
   height="22"
   width="22">
  <defs
     id="defs35" />
  <sodipodi:namedview
     inkscape:snap-others="false"
     inkscape:snap-grids="false"
     inkscape:snap-nodes="true"
     inkscape:bbox-paths="false"
     inkscape:bbox-nodes="true"
     inkscape:snap-bbox-edge-midpoints="false"
     inkscape:snap-bbox-midpoints="true"
     inkscape:snap-bbox="true"
     inkscape:snap-object-midpoints="true"
     scale-x="1e-05"
     inkscape:snap-page="false"
     units="px"
     inkscape:window-maximized="1"
     inkscape:window-y="30"
     inkscape:window-x="0"
     inkscape:window-height="1377"
     inkscape:window-width="2560"
     showgrid="false"
     inkscape:current-layer="layer1"
     inkscape:document-units="px"
     inkscape:cy="6.4789194"
     inkscape:cx="-4.6138366"
     inkscape:zoom="7.0131082"
     inkscape:pageshadow="2"
     inkscape:pageopacity="0.0"
     borderopacity="1.0"
     bordercolor="#666666"
     pagecolor="#ffffff"
     id="base" />
  <metadata
     id="metadata38">
    <rdf:RDF>
      <cc:Work
         rdf:about="">
        <dc:format>image/svg+xml</dc:format>
        <dc:type
           rdf:resource="http://purl.org/dc/dcmitype/StillImage" />
        <dc:title />
      </cc:Work>
    </rdf:RDF>
  </metadata>
  <g
     transform="translate(0.05960665,-288.59358)"
     id="layer1"
     inkscape:groupmode="layer"
     inkscape:label="Ebene 1">
    <path
       sodipodi:nodetypes="ccsscsscssscccsscccsssscc"
       id="path833"
       d="m 1.1585923,288.91805 c -0.057958,0 -0.1049962,0.047 -0.1049962,0.10501 v -0.07 c 0,-0.058 -0.047038,-0.10513 -0.10499628,-0.10513 -0.0579581,0 -0.10499627,0.0471 -0.10499627,0.10513 v -0.07 c 0,-0.058 -0.047038,-0.10513 -0.10499627,-0.10513 -0.0579581,0 -0.10499626,0.047 -0.10499626,0.10513 v -0.0866 c 0,-0.058 -0.047038,-0.10512 -0.10499627,-0.10512 -0.0579581,0 -0.10499626,0.047 -0.10499626,0.10512 v 0.52834 l -0.26017092,-0.11076 h -2.1791e-4 c -0.0153932,-0.0104 -0.034298,-0.0154 -0.0546001,-0.0154 -0.05809912,0 -0.10499626,0.0469 -0.10499626,0.10501 0,0.0204 0.005601,0.0399 0.01609806,0.056 l -1.2816e-4,-2.7e-4 0.32170481,0.46982 c 0.051242,0.0818 0.14083239,0.13129 0.23721566,0.13129 h 0.33508569 c 0.19325364,0 0.34997894,-0.15678 0.34997894,-0.35012 v -0.58715 c 0,-0.0581 -0.047038,-0.10502 -0.1049969,-0.10502 z"
       inkscape:connector-curvature="0"
       style="fill:#d9d9d9;stroke-width:0.08598968;fill-opacity:1" />
    <path
       inkscape:connector-curvature="0"
       id="path870"
       d="m 0.02110607,289.24564 c -0.01097856,0.0166 -0.01755556,0.0365 -0.01755556,0.0579 0,0.0204 0.0056077,0.0399 0.01610469,0.056 l 0.32165836,0.46947 c 0.051242,0.0818 0.14083434,0.1313 0.2372176,0.1313 h 0.3350064 c 0.19325364,0 0.35009544,-0.15674 0.35009544,-0.35008 v -0.11606 c 0,0.19334 -0.1568418,0.35008 -0.35009544,0.35008 h -0.3350064 c -0.0963832,0 -0.18597556,-0.0496 -0.2372176,-0.1313 z"
       style="fill:#b2b2b2;stroke-width:0.08598968;fill-opacity:1" />
    <path
       id="path822"
       d="m 0.52865815,288.69114 c -0.0579581,0 -0.10506863,0.0469 -0.10506863,0.10507 v 0.11982 c 0,-0.0581 0.0471105,-0.10519 0.10506863,-0.10519 0.0579583,0 0.1049425,0.0472 0.1049425,0.10519 v 0.0865 c 0,-0.0581 0.0469844,-0.10507 0.1049425,-0.10507 0.0579583,0 0.10506863,0.0471 0.10506863,0.10507 v 0.07 c 0,-0.058 0.0469844,-0.10507 0.1049425,-0.10507 0.0579583,0 0.10506862,0.0471 0.10506862,0.10507 v 0.07 c 0,-0.058 0.046984,-0.10495 0.1049425,-0.10495 v 1.3e-4 c 0.057959,0 0.1049425,0.0468 0.1049425,0.10494 v -0.1197 c 0,-0.0581 -0.046984,-0.10494 -0.1049425,-0.10494 v -2.5e-4 c -0.057958,0 -0.1049425,0.0471 -0.1049425,0.10507 v -0.07 c 0,-0.058 -0.04711,-0.10507 -0.10506862,-0.10507 -0.0579581,0 -0.1049425,0.047 -0.1049425,0.10507 v -0.07 c 0,-0.058 -0.0471103,-0.10507 -0.10506863,-0.10507 -0.0579581,0 -0.1049425,0.0469 -0.1049425,0.10507 v -0.0867 c 0,-0.058 -0.0469842,-0.10507 -0.1049425,-0.10507 z m -0.42002226,0.5073 c -0.05809913,0 -0.10506864,0.047 -0.10506864,0.10507 0,0.0203 0.00565983,0.0396 0.01601887,0.0556 l 0.0029011,0.004 c 0.01894836,-0.0272 0.05038372,-0.0452 0.08614871,-0.0452 0.0203021,0 0.0392223,0.005 0.0546155,0.0154 h 1.2614e-4 l 0.26021199,0.11075 v -0.1197 l -0.26021199,-0.11075 h -1.2614e-4 c -0.0153932,-0.0104 -0.0343134,-0.0154 -0.0546155,-0.0154 z"
       style="fill:#ffffff;stroke-width:0.0859897;fill-opacity:1" />
    <path
       inkscape:connector-curvature="0"
       id="path875"
       d="m 1.0535705,288.99913 v 0.22709"
       style="fill:none;stroke:#241f31;stroke-width:0.06457999px;stroke-linecap:round;stroke-linejoin:miter;stroke-opacity:1" />
    <path
       inkscape:connector-curvature="0"
       id="path877"
       d="m 0.84357794,288.93898 v 0.25998"
       style="fill:none;stroke:#241f31;stroke-width:0.06457999px;stroke-linecap:round;stroke-linejoin:miter;stroke-opacity:1" />
    <path
       inkscape:connector-curvature="0"
       id="path879"
       d="m 0.63358538,288.88148 v 0.28123"
       style="fill:none;stroke:#241f31;stroke-width:0.06458px;stroke-linecap:round;stroke-linejoin:miter;stroke-opacity:1" />
    <path
       style="fill:none;stroke:#241f31;stroke-width:0.06458;stroke-linecap:round;stroke-miterlimit:4;stroke-dasharray:none;stroke-opacity:1"
       inkscape:connector-curvature="0"
       d="m 1.1585654,288.91805 c -0.057958,0 -0.1049961,0.047 -0.1049961,0.10501 v -0.07 c 0,-0.058 -0.047038,-0.10513 -0.10499629,-0.10513 -0.0579581,0 -0.10499627,0.0471 -0.10499627,0.10513 v -0.07 c 0,-0.058 -0.047038,-0.10513 -0.10499627,-0.10513 -0.0579581,0 -0.10499626,0.047 -0.10499626,0.10513 v -0.0866 c 0,-0.058 -0.047038,-0.10512 -0.10499627,-0.10512 -0.0579581,0 -0.10499626,0.047 -0.10499626,0.10512 v 0.52834 l -0.26017092,-0.11076 h -2.1791e-4 c -0.0153932,-0.0104 -0.034298,-0.0154 -0.0546001,-0.0154 -0.05809912,0 -0.10499626,0.0469 -0.10499626,0.10501 0,0.0204 0.005601,0.0399 0.01609806,0.056 l -1.2816e-4,-2.7e-4 0.32170481,0.46982 c 0.051242,0.0818 0.14083239,0.13129 0.23721566,0.13129 H 0.9135825 c 0.1932536,0 0.349979,-0.15678 0.349979,-0.35012 v -0.58715 c 0.00242,-0.0801 -0.06767,-0.10467 -0.1049958,-0.10502 z"
       id="path820"
       sodipodi:nodetypes="ccsscsscssscccsscccssscc" />
    <rect
       ry="0.083953999"
       rx="0.096869998"
       y="288.87659"
       x="1.8739786"
       height="0.29954049"
       width="0.29954049"
       id="rect847-5"
       style="fill:#d9d9d9;fill-opacity:1;stroke:#273445;stroke-width:0;stroke-linecap:round" />
    <rect
       style="fill:#727272;fill-opacity:1;stroke:#273445;stroke-width:0;stroke-linecap:round"
       id="rect849"
       width="0.29954049"
       height="0.29954049"
       x="1.874898"
       y="289.24963"
       rx="0.096869998"
       ry="0.083953999" />
    <rect
       style="fill:#b2b2b2;fill-opacity:1;stroke:#273445;stroke-width:0;stroke-linecap:round"
       id="rect851"
       width="0.29954049"
       height="0.29954049"
       x="2.2577651"
       y="288.87659"
       rx="0.096869998"
       ry="0.083953999" />
    <rect
       ry="0.083953999"
       rx="0.096869998"
       y="289.24814"
       x="2.260339"
       height="0.29954049"
       width="0.29954049"
       id="rect853"
       style="fill:#4d4d4d;fill-opacity:1;stroke:#273445;stroke-width:0;stroke-linecap:round" />
    <rect
       style="fill:#241f31;fill-opacity:1;stroke:#273445;stroke-width:0;stroke-linecap:round"
       id="rect855"
       width="0.29954049"
       height="0.29954049"
       x="2.2539039"
       y="289.61685"
       rx="0.096869998"
       ry="0.083953999" />
    <rect
       style="fill:#ffffff;fill-opacity:1;stroke:#000000;stroke-width:0.006458;stroke-linecap:round;stroke-miterlimit:4;stroke-dasharray:none;stroke-opacity:1"
       id="rect857"
       width="0.29954049"
       height="0.29954049"
       x="1.4966969"
       y="288.87659"
       rx="0.096869998"
       ry="0.083953999" />
    <rect
       ry="0.083953999"
       rx="0.096869998"
       y="289.24976"
       x="1.4966969"
       height="0.29954049"
       width="0.29954049"
       id="rect860"
       style="fill:#999999;fill-opacity:1;stroke:none;stroke-width:0.006458;stroke-linecap:round;stroke-miterlimit:4;stroke-dasharray:none;stroke-opacity:1" />
  </g>
</svg>
