<?xml version="1.0" encoding="UTF-8" standalone="no"?>
<svg
   xmlns:osb="http://www.openswatchbook.org/uri/2009/osb"
   xmlns:dc="http://purl.org/dc/elements/1.1/"
   xmlns:cc="http://creativecommons.org/ns#"
   xmlns:rdf="http://www.w3.org/1999/02/22-rdf-syntax-ns#"
   xmlns:svg="http://www.w3.org/2000/svg"
   xmlns="http://www.w3.org/2000/svg"
   xmlns:xlink="http://www.w3.org/1999/xlink"
   xmlns:sodipodi="http://sodipodi.sourceforge.net/DTD/sodipodi-0.dtd"
   xmlns:inkscape="http://www.inkscape.org/namespaces/inkscape"
   width="22"
   height="22"
   id="svg2"
   version="1.1"
   inkscape:version="1.1-dev (7fa40cb683, 2020-03-24)"
   sodipodi:docname="spline-draw.svg">
  <defs
     id="defs4">
    <linearGradient
       id="linearGradient6057">
      <stop
         style="stop-color:#222222;stop-opacity:0.88973391;"
         offset="0"
         id="stop6059" />
      <stop
         id="stop6065"
         offset="1"
         style="stop-color:#989898;stop-opacity:0.44313726;" />
    </linearGradient>
    <linearGradient
       id="linearGradient6041">
      <stop
         style="stop-color:#000000;stop-opacity:1;"
         offset="0"
         id="stop6043" />
      <stop
         style="stop-color:#000000;stop-opacity:0;"
         offset="1"
         id="stop6045" />
    </linearGradient>
    <linearGradient
       id="linearGradient6035"
       osb:paint="solid">
      <stop
         style="stop-color:#ff0000;stop-opacity:1;"
         offset="0"
         id="stop6037" />
    </linearGradient>
    <marker
       inkscape:stockid="Arrow1Lstart"
       orient="auto"
       refY="0.0"
       refX="0.0"
       id="Arrow1Lstart"
       style="overflow:visible">
      <path
         id="path3787"
         d="M 0.0,0.0 L 5.0,-5.0 L -12.5,0.0 L 5.0,5.0 L 0.0,0.0 z "
         style="fill-rule:evenodd;stroke:#000000;stroke-width:1.0pt"
         transform="scale(0.8) translate(12.5,0)" />
    </marker>
    <linearGradient
       id="linearGradient2999">
      <stop
         id="stop3775"
         offset="0"
         style="stop-color:#4c4c4c;stop-opacity:0.41176471;" />
      <stop
         style="stop-color:#999999;stop-opacity:0;"
         offset="1"
         id="stop3003" />
    </linearGradient>
    <linearGradient
       inkscape:collect="always"
       xlink:href="#linearGradient6057-4"
       id="linearGradient6063-2"
       x1="9.4017859"
       y1="0.4598214"
       x2="15.6875"
       y2="21.084822"
       gradientUnits="userSpaceOnUse"
       gradientTransform="matrix(0.83739436,0,0,0.92539931,0.27955268,1030.3551)" />
    <linearGradient
       id="linearGradient6057-4">
      <stop
         style="stop-color:#222222;stop-opacity:1;"
         offset="0"
         id="stop6059-3" />
      <stop
         id="stop6065-7"
         offset="1"
         style="stop-color:#989898;stop-opacity:1;" />
    </linearGradient>
  </defs>
  <sodipodi:namedview
     id="base"
     pagecolor="#ffffff"
     bordercolor="#666666"
     borderopacity="1.0"
     inkscape:pageopacity="0.0"
     inkscape:pageshadow="2"
     inkscape:zoom="29.184225"
     inkscape:cx="17.307117"
     inkscape:cy="13.990821"
     inkscape:document-units="px"
     inkscape:current-layer="layer1"
     showgrid="false"
     inkscape:window-width="2560"
     inkscape:window-height="1377"
     inkscape:window-x="0"
     inkscape:window-y="30"
     inkscape:window-maximized="1"
     inkscape:snap-text-baseline="true"
     inkscape:snap-object-midpoints="true"
     inkscape:snap-center="true"
     inkscape:object-paths="true"
     inkscape:snap-intersection-paths="true"
     inkscape:snap-nodes="false" />
  <metadata
     id="metadata7">
    <rdf:RDF>
      <cc:Work
         rdf:about="">
        <dc:format>image/svg+xml</dc:format>
        <dc:type
           rdf:resource="http://purl.org/dc/dcmitype/StillImage" />
        <dc:title />
      </cc:Work>
    </rdf:RDF>
  </metadata>
  <g
     inkscape:label="Ebene 1"
     inkscape:groupmode="layer"
     id="layer1"
     transform="translate(0,-1030.3622)">
    <path
       style="fill:none;stroke:#727272;stroke-width:5;stroke-linecap:round;stroke-linejoin:miter;stroke-miterlimit:4;stroke-dasharray:none;stroke-opacity:1"
       d="m 5.2994571,1048.2254 c 12.9576249,-0.091 -1.7702388,-14.5974 11.0658749,-13.9339"
       id="Bezier"
       inkscape:connector-curvature="0"
       sodipodi:nodetypes="cc"
       inkscape:label="#pathBezier" />
    <path
       style="color:#000000;font-style:normal;font-variant:normal;font-weight:normal;font-stretch:normal;font-size:medium;line-height:normal;font-family:sans-serif;font-variant-ligatures:normal;font-variant-position:normal;font-variant-caps:normal;font-variant-numeric:normal;font-variant-alternates:normal;font-feature-settings:normal;text-indent:0;text-align:start;text-decoration:none;text-decoration-line:none;text-decoration-style:solid;text-decoration-color:#000000;letter-spacing:normal;word-spacing:normal;text-transform:none;writing-mode:lr-tb;direction:ltr;text-orientation:mixed;dominant-baseline:auto;baseline-shift:baseline;text-anchor:start;white-space:normal;shape-padding:0;clip-rule:nonzero;display:inline;overflow:visible;visibility:visible;opacity:1;isolation:auto;mix-blend-mode:normal;color-interpolation:sRGB;color-interpolation-filters:linearRGB;solid-color:#000000;solid-opacity:1;vector-effect:none;fill:#999999;fill-opacity:1;fill-rule:nonzero;stroke:none;stroke-width:5;stroke-linecap:round;stroke-linejoin:miter;stroke-miterlimit:4;stroke-dasharray:none;stroke-dashoffset:0;stroke-opacity:1;color-rendering:auto;image-rendering:auto;shape-rendering:auto;text-rendering:auto;enable-background:accumulate"
       d="m 15.181641,1.4101562 c -1.257571,0.025884 -2.356698,0.2060063 -3.357422,0.5976563 -1.334299,0.5227 -2.45075,1.5445187 -3.0214846,2.6992187 -1.1414692,2.3093 -0.6323663,4.4553626 -0.4042969,6.2265628 0.2280694,1.7713 0.2130913,3.16654 0.029297,3.55664 -0.091897,0.195 -0.115668,0.269785 -0.5195313,0.458985 -0.4038632,0.1893 -1.2421302,0.406215 -2.6269531,0.416015 -2.5453428,-0.01 -3.4760302,3.346116 -1.2890625,4.648438 -0.570515,-1.630068 0.6440876,-3.333914 2.3710937,-3.326172 1.384823,-0.0098 2.2563941,-0.386944 2.6602573,-0.576244 0.4038633,-0.1892 0.8009841,-0.785111 0.8928811,-0.980111 C 10.164465,14.528303 10.120248,13.22103 9.8921791,11.44973 9.6641094,9.6785298 9.5441085,6.8928374 9.9903649,5.5590422 10.561099,4.4043422 11.571951,3.8527781 12.90625,3.3300781 c 1.334299,-0.5222 2.843212,-0.6682187 4.669922,-0.5742187 0.404854,0.021862 0.798319,0.1418453 1.146484,0.3496094 -0.334811,-0.957833 -1.215263,-1.6183655 -2.228515,-1.671875 -0.456678,-0.0235 -0.89331,-0.032066 -1.3125,-0.023438 z"
       transform="translate(0,1030.3622)"
       id="path907"
       inkscape:connector-curvature="0"
       sodipodi:nodetypes="sccccccccccccccccs" />
    <path
       style="color:#000000;font-style:normal;font-variant:normal;font-weight:normal;font-stretch:normal;font-size:medium;line-height:normal;font-family:sans-serif;font-variant-ligatures:normal;font-variant-position:normal;font-variant-caps:normal;font-variant-numeric:normal;font-variant-alternates:normal;font-feature-settings:normal;text-indent:0;text-align:start;text-decoration:none;text-decoration-line:none;text-decoration-style:solid;text-decoration-color:#000000;letter-spacing:normal;word-spacing:normal;text-transform:none;writing-mode:lr-tb;direction:ltr;text-orientation:mixed;dominant-baseline:auto;baseline-shift:baseline;text-anchor:start;white-space:normal;shape-padding:0;clip-rule:nonzero;display:inline;overflow:visible;visibility:visible;opacity:1;isolation:auto;mix-blend-mode:normal;color-interpolation:sRGB;color-interpolation-filters:linearRGB;solid-color:#000000;solid-opacity:1;vector-effect:none;fill:none;fill-opacity:1;fill-rule:nonzero;stroke:#241f31;stroke-width:1;stroke-linecap:round;stroke-linejoin:miter;stroke-miterlimit:4;stroke-dasharray:none;stroke-dashoffset:0;stroke-opacity:1;color-rendering:auto;image-rendering:auto;shape-rendering:auto;text-rendering:auto;enable-background:accumulate"
       d="m 16.494141,1031.7949 c -1.82671,-0.094 -3.335623,0.052 -4.669922,0.5742 -1.334299,0.5227 -2.45075,1.5446 -3.0214846,2.6993 -1.1414692,2.3093 -0.6323663,4.4553 -0.4042969,6.2265 0.2280694,1.7713 0.2130914,3.1666 0.029297,3.5567 -0.091897,0.195 -0.115668,0.2678 -0.5195313,0.457 -0.4038632,0.1892 -1.2421302,0.4063 -2.6269531,0.416 a 2.50025,2.50025 0 1 0 0.035156,5 c 1.8545834,-0.013 3.3918725,-0.2678 4.7128908,-0.8867 1.321018,-0.6189 2.371779,-1.6881 2.921875,-2.8555 1.100191,-2.3347 0.635929,-4.5424 0.40625,-6.3262 -0.229679,-1.7837 -0.184405,-3.1461 -0.07227,-3.373 0.05607,-0.1134 -0.0045,-0.1157 0.363282,-0.2598 0.367799,-0.144 1.205571,-0.3058 2.58789,-0.2343 a 2.500425,2.500425 0 1 0 0.257813,-4.9942 z"
       id="path860"
       inkscape:connector-curvature="0" />
    <circle
       style="opacity:1;fill:#d9d9d9;fill-opacity:1;stroke:none;stroke-width:2.5;stroke-linecap:round;stroke-linejoin:round;stroke-miterlimit:4;stroke-dasharray:none;stroke-opacity:1"
       id="path848"
       cx="5.2994571"
       cy="1048.2255"
       r="2.8986402" />
    <circle
       r="2.8986402"
       cy="1048.2255"
       cx="5.2994571"
       id="circle850"
       style="opacity:1;fill:none;fill-opacity:1;stroke:#241f31;stroke-width:1;stroke-linecap:round;stroke-linejoin:round;stroke-miterlimit:4;stroke-dasharray:none;stroke-opacity:1" />
    <g
       id="g858"
       transform="translate(-0.84965671,0.91444361)"
       style="stroke:none;fill:#d9d9d9;fill-opacity:1">
      <circle
         style="opacity:1;fill:#d9d9d9;fill-opacity:1;stroke:none;stroke-width:2.5;stroke-linecap:round;stroke-linejoin:round;stroke-miterlimit:4;stroke-dasharray:none;stroke-opacity:1"
         id="circle852"
         cx="17.214989"
         cy="1033.3771"
         r="2.8986402" />
      <circle
         r="2.8986402"
         cy="1033.3771"
         cx="17.214989"
         id="circle854"
         style="opacity:1;fill:#d9d9d9;fill-opacity:1;stroke:none;stroke-width:1;stroke-linecap:round;stroke-linejoin:round;stroke-miterlimit:4;stroke-dasharray:none;stroke-opacity:1" />
    </g>
    <g
       transform="translate(-0.84965671,0.91444361)"
       id="g874"
       style="fill:none;stroke:#241f31;stroke-opacity:1">
      <circle
         style="opacity:1;fill:none;fill-opacity:1;stroke:#241f31;stroke-width:1;stroke-linecap:round;stroke-linejoin:round;stroke-miterlimit:4;stroke-dasharray:none;stroke-opacity:1"
         id="circle872"
         cx="17.214989"
         cy="1033.3771"
         r="2.8986402" />
    </g>
    <path
       style="opacity:1;fill:#ffffff;fill-opacity:1;stroke:none;stroke-width:2.5;stroke-linecap:round;stroke-linejoin:round;stroke-miterlimit:4;stroke-dasharray:none;stroke-opacity:1"
       d="M 16.365234 1.03125 A 2.8986402 2.8986402 0 0 0 13.466797 3.9296875 A 2.8986402 2.8986402 0 0 0 13.515625 4.4472656 A 2.8986402 2.8986402 0 0 1 16.369141 2.0429688 A 2.8986402 2.8986402 0 0 1 19.21875 4.4238281 A 2.8986402 2.8986402 0 0 0 19.263672 3.9296875 A 2.8986402 2.8986402 0 0 0 16.365234 1.03125 z "
       transform="translate(0,1030.3622)"
       id="circle876" />
    <path
       inkscape:connector-curvature="0"
       id="circle878"
       d="m 19.263972,1034.2915 a 2.8986402,2.8986402 0 0 1 -2.89864,2.8986 2.8986402,2.8986402 0 0 1 -2.89864,-2.8986 2.8986402,2.8986402 0 0 1 2.89864,-2.8987 2.8986402,2.8986402 0 0 1 2.89864,2.8987 z"
       style="opacity:1;fill:none;fill-opacity:1;stroke:none;stroke-width:1;stroke-linecap:round;stroke-linejoin:round;stroke-miterlimit:4;stroke-dasharray:none;stroke-opacity:1" />
    <path
       inkscape:connector-curvature="0"
       id="circle884"
       d="m 19.267656,1035.3041 a 2.8986402,2.8986402 0 0 1 -2.89864,2.8986 2.8986402,2.8986402 0 0 1 -2.89864,-2.8986 2.8986402,2.8986402 0 0 1 2.89864,-2.8987 2.8986402,2.8986402 0 0 1 2.89864,2.8987 z"
       style="opacity:1;fill:none;fill-opacity:1;stroke:none;stroke-width:1;stroke-linecap:round;stroke-linejoin:round;stroke-miterlimit:4;stroke-dasharray:none;stroke-opacity:1" />
    <path
       id="path905"
       d="m 5.2994566,1045.3268 a 2.8986402,2.8986402 0 0 0 -2.898437,2.8984 2.8986402,2.8986402 0 0 0 0.048828,0.5176 2.8986402,2.8986402 0 0 1 2.853516,-2.4043 2.8986402,2.8986402 0 0 1 2.849609,2.3808 2.8986402,2.8986402 0 0 0 0.044922,-0.4941 2.8986402,2.8986402 0 0 0 -2.898438,-2.8984 z"
       style="opacity:1;fill:#ffffff;fill-opacity:1;stroke:none;stroke-width:2.5;stroke-linecap:round;stroke-linejoin:round;stroke-miterlimit:4;stroke-dasharray:none;stroke-opacity:1"
       inkscape:connector-curvature="0" />
    <rect
       ry="1.3"
       rx="1.5"
       y="1032.3252"
       x="34.25243"
       height="4.6382856"
       width="4.6382856"
       id="rect847"
       style="fill:#d9d9d9;fill-opacity:1;stroke:#273445;stroke-width:0;stroke-linecap:round" />
    <rect
       style="fill:#727272;fill-opacity:1;stroke:#273445;stroke-width:0;stroke-linecap:round"
       id="rect849"
       width="4.6382856"
       height="4.6382856"
       x="34.266666"
       y="1038.1018"
       rx="1.5"
       ry="1.3" />
    <rect
       style="fill:#b2b2b2;fill-opacity:1;stroke:#273445;stroke-width:0;stroke-linecap:round"
       id="rect851"
       width="4.6382856"
       height="4.6382856"
       x="40.195236"
       y="1032.3252"
       rx="1.5"
       ry="1.3" />
    <rect
       ry="1.3"
       rx="1.5"
       y="1038.0784"
       x="40.235092"
       height="4.6382856"
       width="4.6382856"
       id="rect853"
       style="fill:#4d4d4d;fill-opacity:1;stroke:#273445;stroke-width:0;stroke-linecap:round" />
    <rect
       style="fill:#241f31;fill-opacity:1;stroke:#273445;stroke-width:0;stroke-linecap:round"
       id="rect855"
       width="4.6382856"
       height="4.6382856"
       x="40.135448"
       y="1043.788"
       rx="1.5"
       ry="1.3" />
    <rect
       style="fill:#ffffff;fill-opacity:1;stroke:#000000;stroke-width:0.1;stroke-linecap:round;stroke-miterlimit:4;stroke-dasharray:none;stroke-opacity:1"
       id="rect857"
       width="4.6382856"
       height="4.6382856"
       x="28.410349"
       y="1032.3252"
       rx="1.5"
       ry="1.3" />
    <rect
       ry="1.3"
       rx="1.5"
       y="1038.1033"
       x="28.410349"
       height="4.6382856"
       width="4.6382856"
       id="rect860"
       style="fill:#999999;fill-opacity:1;stroke:none;stroke-width:0.1;stroke-linecap:round;stroke-miterlimit:4;stroke-dasharray:none;stroke-opacity:1" />
  </g>
</svg>
