<?xml version="1.0" encoding="UTF-8" standalone="no"?>
<svg
   xmlns:dc="http://purl.org/dc/elements/1.1/"
   xmlns:cc="http://creativecommons.org/ns#"
   xmlns:rdf="http://www.w3.org/1999/02/22-rdf-syntax-ns#"
   xmlns:svg="http://www.w3.org/2000/svg"
   xmlns="http://www.w3.org/2000/svg"
   xmlns:xlink="http://www.w3.org/1999/xlink"
   xmlns:sodipodi="http://sodipodi.sourceforge.net/DTD/sodipodi-0.dtd"
   xmlns:inkscape="http://www.inkscape.org/namespaces/inkscape"
   width="22"
   height="22"
   id="svg2"
   version="1.1"
   inkscape:version="1.1-dev (3459c49765, 2020-03-29)"
   sodipodi:docname="tool_math_tex.svg">
  <defs
     id="defs4">
    <radialGradient
       id="radialGradient6719"
       xlink:href="#linearGradient5060"
       gradientUnits="userSpaceOnUse"
       cy="486.64999"
       cx="605.71002"
       gradientTransform="matrix(-5.587696,0,0,4.0730444,2246.0302,-308.07462)"
       r="117.14"
       inkscape:collect="always" />
    <linearGradient
       id="linearGradient5060"
       inkscape:collect="always">
      <stop
         id="stop5062"
         style="stop-color:black"
         offset="0" />
      <stop
         id="stop5064"
         style="stop-color:black;stop-opacity:0"
         offset="1" />
    </linearGradient>
    <radialGradient
       id="radialGradient6717"
       xlink:href="#linearGradient5060"
       gradientUnits="userSpaceOnUse"
       cy="486.64999"
       cx="605.71002"
       gradientTransform="matrix(5.587696,0,0,4.0730444,-1790.7901,-308.07462)"
       r="117.14"
       inkscape:collect="always" />
    <linearGradient
       id="linearGradient6715"
       y2="609.51001"
       gradientUnits="userSpaceOnUse"
       x2="302.85999"
       gradientTransform="matrix(5.587696,0,0,4.0730444,-1791.9986,-308.07462)"
       y1="366.64999"
       x1="302.85999"
       inkscape:collect="always">
      <stop
         id="stop5050"
         style="stop-color:black;stop-opacity:0"
         offset="0" />
      <stop
         id="stop5056"
         style="stop-color:black"
         offset=".5" />
      <stop
         id="stop5052"
         style="stop-color:black;stop-opacity:0"
         offset="1" />
    </linearGradient>
    <linearGradient
       id="linearGradient7671"
       y2="7.1090999"
       gradientUnits="userSpaceOnUse"
       x2="21.933001"
       gradientTransform="matrix(2.2134076,0,0,-1.6496482,-3.8564269,82.901592)"
       y1="24.627001"
       x1="21.933001"
       inkscape:collect="always">
      <stop
         id="stop7650"
         style="stop-color:#8595bc"
         offset="0" />
      <stop
         id="stop7652"
         style="stop-color:#041a3b"
         offset="1" />
    </linearGradient>
    <linearGradient
       id="linearGradient7673"
       y2="7.1090999"
       gradientUnits="userSpaceOnUse"
       x2="21.933001"
       gradientTransform="matrix(2.2134076,0,0,2.2884897,-3.8564269,-4.4578402)"
       y1="24.627001"
       x1="21.933001"
       inkscape:collect="always">
      <stop
         id="stop16199"
         style="stop-color:#D0D6E5;stroke-width:1.2167"
         offset="0" />
      <stop
         id="stop16201"
         style="stop-color:#093A80;stroke-width:1.2167"
         offset="1" />
    </linearGradient>
    <linearGradient
       id="linearGradient8148"
       y2="36.033001"
       gradientUnits="userSpaceOnUse"
       x2="31.080999"
       gradientTransform="matrix(1.434,0,0,0.99009,52.286378,5.1263289)"
       y1="3.7319"
       x1="12.487"
       inkscape:collect="always">
      <stop
         id="stop16177"
         style="stop-color:#D2D2D2;stroke-width:1.2167"
         offset="0" />
      <stop
         id="stop16179"
         style="stop-color:#EDEDED;stroke-width:1.2167"
         offset="1" />
    </linearGradient>
    <radialGradient
       id="radialGradient8161"
       gradientUnits="userSpaceOnUse"
       cy="10.405"
       cx="12.7"
       gradientTransform="matrix(1.7105,0,0,1.1248,-11.60362,4.0900289)"
       r="19.969"
       inkscape:collect="always">
      <stop
         id="stop8157"
         style="stop-color:#ffffff"
         offset="0" />
      <stop
         id="stop8159"
         style="stop-color:#ffffff;stop-opacity:0"
         offset="1" />
    </radialGradient>
    <linearGradient
       id="linearGradient8166"
       y2="38.07"
       gradientUnits="userSpaceOnUse"
       x2="34.169998"
       gradientTransform="translate(5.1119795,-1.1223716)"
       y1="36.921001"
       x1="33.396"
       inkscape:collect="always">
      <stop
         id="stop2253"
         style="stop-color:#ffffff"
         offset="0" />
      <stop
         id="stop2255"
         style="stop-color:#ffffff;stop-opacity:0"
         offset="1" />
    </linearGradient>
    <linearGradient
       id="linearGradient8169"
       y2="37.771"
       gradientUnits="userSpaceOnUse"
       x2="33.665001"
       gradientTransform="translate(5.1119795,-0.74737173)"
       y1="40.458"
       x1="35.997002"
       inkscape:collect="always">
      <stop
         id="stop2226"
         style="stop-color:#7c7c7c"
         offset="0" />
      <stop
         id="stop2228"
         style="stop-color:#b8b8b8"
         offset="1" />
    </linearGradient>
    <linearGradient
       id="linearGradient8177"
       y2="39.985001"
       gradientUnits="userSpaceOnUse"
       x2="45"
       y1="31"
       x1="42.188"
       inkscape:collect="always"
       gradientTransform="translate(-0.03561996,2.2874287)">
      <stop
         id="stop8173"
         style="stop-color:#bbbdba"
         offset="0" />
      <stop
         id="stop8175"
         style="stop-color:#70746e"
         offset="1" />
    </linearGradient>
    <clipPath
       clipPathUnits="userSpaceOnUse"
       id="clipPath1027">
      <rect
         y="3.5739653"
         x="0.86882812"
         height="13.951644"
         width="20.298611"
         id="rect1029"
         style="opacity:1;fill:#8cd5ff;fill-opacity:1;stroke:#000000;stroke-width:1.05890512;stroke-linecap:round;stroke-linejoin:round;stroke-miterlimit:4;stroke-dasharray:none;stroke-opacity:1" />
    </clipPath>
    <clipPath
       clipPathUnits="userSpaceOnUse"
       id="clipPath1033">
      <rect
         y="3.5739653"
         x="0.86882812"
         height="13.951644"
         width="20.298611"
         id="rect1035"
         style="opacity:1;fill:#8cd5ff;fill-opacity:1;stroke:#000000;stroke-width:1.05890512;stroke-linecap:round;stroke-linejoin:round;stroke-miterlimit:4;stroke-dasharray:none;stroke-opacity:1" />
    </clipPath>
  </defs>
  <sodipodi:namedview
     id="base"
     pagecolor="#ffffff"
     bordercolor="#666666"
     borderopacity="1.0"
     inkscape:pageopacity="0.0"
     inkscape:pageshadow="2"
     inkscape:zoom="32"
     inkscape:cx="18.100689"
     inkscape:cy="10.465719"
     inkscape:document-units="px"
     inkscape:current-layer="layer2"
     showgrid="false"
     inkscape:window-width="1920"
     inkscape:window-height="1047"
     inkscape:window-x="2560"
     inkscape:window-y="0"
     inkscape:window-maximized="1"
     inkscape:snap-page="true"
     inkscape:snap-bbox="false"
     showguides="true"
     inkscape:guide-bbox="true">
    <sodipodi:guide
       position="15.849382,19.045641"
       orientation="0,-1"
       id="guide865" />
    <sodipodi:guide
       position="15.751497,2.9510565"
       orientation="0,-1"
       id="guide867" />
  </sodipodi:namedview>
  <metadata
     id="metadata7">
    <rdf:RDF>
      <cc:Work
         rdf:about="">
        <dc:format>image/svg+xml</dc:format>
        <dc:type
           rdf:resource="http://purl.org/dc/dcmitype/StillImage" />
        <dc:title />
        <cc:license
           rdf:resource="http://creativecommons.org/licenses/by/4.0/" />
      </cc:Work>
      <cc:License
         rdf:about="http://creativecommons.org/licenses/by/4.0/">
        <cc:permits
           rdf:resource="http://creativecommons.org/ns#Reproduction" />
        <cc:permits
           rdf:resource="http://creativecommons.org/ns#Distribution" />
        <cc:requires
           rdf:resource="http://creativecommons.org/ns#Notice" />
        <cc:requires
           rdf:resource="http://creativecommons.org/ns#Attribution" />
        <cc:permits
           rdf:resource="http://creativecommons.org/ns#DerivativeWorks" />
      </cc:License>
    </rdf:RDF>
  </metadata>
  <g
     inkscape:label="Ebene 1"
     inkscape:groupmode="layer"
     id="layer1"
     transform="translate(0,-1030.3622)"
     style="display:none">
    <rect
       style="opacity:1;fill:#5e5e5e;fill-opacity:1;stroke:none;stroke-width:2;stroke-linecap:round;stroke-linejoin:round;stroke-miterlimit:4;stroke-dasharray:none;stroke-opacity:1"
       id="rect841"
       width="22"
       height="22"
       x="0"
       y="1030.3622"
       rx="0.884"
       ry="0.136957" />
    <flowRoot
       xml:space="preserve"
       id="flowRoot2989"
       style="font-style:normal;font-weight:normal;line-height:0.01%;font-family:'Bitstream Vera Sans';letter-spacing:0px;word-spacing:0px;fill:#000000;fill-opacity:1;stroke:none;stroke-width:1px;stroke-linecap:butt;stroke-linejoin:miter;stroke-opacity:1"><flowRegion
         id="flowRegion2991"><rect
           id="rect2993"
           width="387.5"
           height="400"
           x="-3.125"
           y="-921.75" /></flowRegion><flowPara
         id="flowPara2995"
         style="font-size:40px;line-height:1.25"> </flowPara></flowRoot>
    <flowRoot
       xml:space="preserve"
       id="flowRoot2997"
       style="font-style:normal;font-weight:normal;line-height:0.01%;font-family:'Bitstream Vera Sans';letter-spacing:0px;word-spacing:0px;fill:#000000;fill-opacity:1;stroke:none;stroke-width:1px;stroke-linecap:butt;stroke-linejoin:miter;stroke-opacity:1"><flowRegion
         id="flowRegion2999"><rect
           id="rect3001"
           width="50.195312"
           height="41.015625"
           x="-11.71875"
           y="-5.1484375" /></flowRegion><flowPara
         id="flowPara3003"
         style="font-size:40px;line-height:1.25"> </flowPara></flowRoot>
  </g>
  <g
     inkscape:groupmode="layer"
     id="layer2"
     inkscape:label="Ebene 2">
    <g
       transform="translate(6.327299,-1030.8837)"
       style="font-style:normal;font-variant:normal;font-weight:normal;font-stretch:normal;font-size:28px;line-height:125%;font-family:'URW Bookman L';-inkscape-font-specification:'URW Bookman L';text-align:start;letter-spacing:0px;word-spacing:0px;writing-mode:lr-tb;text-anchor:start;fill:#5b5b5b;fill-opacity:1;stroke:#313131;stroke-width:1;stroke-linecap:round;stroke-linejoin:round;stroke-miterlimit:1;stroke-dasharray:none;stroke-opacity:1"
       id="text2985-3" />
    <path
       style="fill:none;stroke:#d9d9d9;stroke-width:3;stroke-linecap:round;stroke-linejoin:round;stroke-miterlimit:4;stroke-dasharray:none;stroke-opacity:1"
       d="M 15.639396,4.1101892 H 6.0715953 L 12.197048,11.00002 6.3403533,18.027039 h 9.3035257"
       id="path869"
       sodipodi:nodetypes="ccccc" />
    <g
       id="g875"
       style="stroke:#727272;stroke-opacity:1;fill:none;stroke-width:1;stroke-miterlimit:4;stroke-dasharray:none">
      <path
         style="color:#000000;fill:none;stroke-width:1;stroke-linecap:round;stroke-linejoin:round;stroke:#727272;stroke-opacity:1;stroke-miterlimit:4;stroke-dasharray:none"
         d="M 6.0625,2.6113281 A 1.50015,1.50015 0 0 0 4.9414062,5.109375 l 5.2675778,5.923828 -5.0312496,6.035156 a 1.50015,1.50015 0 0 0 1.1523437,2.460938 h 9.3046879 a 1.5,1.5 0 0 0 1.5,-1.5 1.5,1.5 0 0 0 -1.5,-1.5 H 9.5332031 l 3.8066409,-4.566406 a 1.50015,1.50015 0 0 0 -0.03125,-1.957032 L 9.4023438,5.6113281 h 6.2285152 a 1.5,1.5 0 0 0 1.5,-1.5 1.5,1.5 0 0 0 -1.5,-1.5 z"
         id="path879" />
    </g>
    <flowRoot
       xml:space="preserve"
       id="flowRoot2989-56"
       style="font-style:normal;font-weight:normal;line-height:0.01%;font-family:'Bitstream Vera Sans';letter-spacing:0px;word-spacing:0px;fill:#000000;fill-opacity:1;stroke:none;stroke-width:1px;stroke-linecap:butt;stroke-linejoin:miter;stroke-opacity:1"
       transform="translate(27.458745,-558.79697)"><flowRegion
         id="flowRegion2991-2"><rect
           id="rect2993-9"
           width="387.5"
           height="400"
           x="-3.125"
           y="-921.75" /></flowRegion><flowPara
         id="flowPara2995-12"
         style="font-size:40px;line-height:1.25"> </flowPara></flowRoot>
    <flowRoot
       xml:space="preserve"
       id="flowRoot2997-7"
       style="font-style:normal;font-weight:normal;line-height:0.01%;font-family:'Bitstream Vera Sans';letter-spacing:0px;word-spacing:0px;fill:#000000;fill-opacity:1;stroke:none;stroke-width:1px;stroke-linecap:butt;stroke-linejoin:miter;stroke-opacity:1"
       transform="translate(27.458745,-558.79697)"><flowRegion
         id="flowRegion2999-0"><rect
           id="rect3001-93"
           width="50.195312"
           height="41.015625"
           x="-11.71875"
           y="-5.1484375" /></flowRegion><flowPara
         id="flowPara3003-60"
         style="font-size:40px;line-height:1.25"> </flowPara></flowRoot>
    <flowRoot
       style="font-style:normal;font-weight:normal;line-height:0.01%;font-family:'Bitstream Vera Sans';letter-spacing:0px;word-spacing:0px;fill:#000000;fill-opacity:1;stroke:none;stroke-width:1px;stroke-linecap:butt;stroke-linejoin:miter;stroke-opacity:1"
       id="flowRoot2989-5"
       xml:space="preserve"
       transform="translate(4.810741,-562.25817)"><flowRegion
         id="flowRegion2991-6"><rect
           y="-921.75"
           x="-3.125"
           height="400"
           width="387.5"
           id="rect2993-29" /></flowRegion><flowPara
         style="font-size:40px;line-height:1.25"
         id="flowPara2995-1"> </flowPara></flowRoot>
    <flowRoot
       style="font-style:normal;font-weight:normal;line-height:0.01%;font-family:'Bitstream Vera Sans';letter-spacing:0px;word-spacing:0px;fill:#000000;fill-opacity:1;stroke:none;stroke-width:1px;stroke-linecap:butt;stroke-linejoin:miter;stroke-opacity:1"
       id="flowRoot2997-2"
       xml:space="preserve"
       transform="translate(4.810741,-562.25817)"><flowRegion
         id="flowRegion2999-70"><rect
           y="-5.1484375"
           x="-11.71875"
           height="41.015625"
           width="50.195312"
           id="rect3001-9" /></flowRegion><flowPara
         style="font-size:40px;line-height:1.25"
         id="flowPara3003-3"> </flowPara></flowRoot>
    <g
       inkscape:label="Ebene 1"
       id="layer1-7-6"
       transform="translate(28.948506,389.52815)">
      <g
         style="font-style:normal;font-variant:normal;font-weight:normal;font-stretch:normal;font-size:28px;line-height:125%;font-family:'URW Bookman L';-inkscape-font-specification:'URW Bookman L';text-align:start;letter-spacing:0px;word-spacing:0px;writing-mode:lr-tb;text-anchor:start;fill:#5b5b5b;fill-opacity:1;stroke:#313131;stroke-width:1;stroke-linecap:round;stroke-linejoin:round;stroke-miterlimit:1;stroke-dasharray:none;stroke-opacity:1"
         id="text2985-2">
        <path
           inkscape:connector-curvature="0"
           d="M 19.480701,1032.2986 H 3.2407015 l -1.596,4.928 0.924,0.336 c 1.6519983,-2.912 3.5840026,-4.2 6.16,-4.2 0.9239991,0 1.232,0.28 1.232,1.12 v 12.852 c 0,2.268 -0.4200014,2.968 -1.82,3.08 l -1.092,0.084 v 0.868 h 8.6239995 v -0.868 l -1.092,-0.084 c -1.399998,-0.112 -1.82,-0.812 -1.82,-3.08 v -12.74 c 0,-0.98 0.224001,-1.232 1.148,-1.232 2.463998,0 4.592002,1.456 6.16,4.2 l 0.98,-0.336 -1.568,-4.928"
           style="line-height:125%;font-family:'URW Bookman L';-inkscape-font-specification:'URW Bookman L';fill:#5b5b5b;fill-opacity:1;stroke:#313131;stroke-width:1;stroke-linecap:round;stroke-linejoin:round;stroke-miterlimit:1;stroke-dasharray:none;stroke-opacity:1"
           id="path3006-6" />
      </g>
      <flowRoot
         xml:space="preserve"
         id="flowRoot2989-2-1"
         style="font-style:normal;font-weight:normal;line-height:0.01%;font-family:'Bitstream Vera Sans';letter-spacing:0px;word-spacing:0px;fill:#000000;fill-opacity:1;stroke:none;stroke-width:1px;stroke-linecap:butt;stroke-linejoin:miter;stroke-opacity:1"><flowRegion
           id="flowRegion2991-7-8"><rect
             id="rect2993-2-7"
             width="387.5"
             height="400"
             x="-3.125"
             y="-921.75" /></flowRegion><flowPara
           id="flowPara2995-2-9"
           style="font-size:40px;line-height:1.25"> </flowPara></flowRoot>
      <flowRoot
         xml:space="preserve"
         id="flowRoot2997-6-2"
         style="font-style:normal;font-weight:normal;line-height:0.01%;font-family:'Bitstream Vera Sans';letter-spacing:0px;word-spacing:0px;fill:#000000;fill-opacity:1;stroke:none;stroke-width:1px;stroke-linecap:butt;stroke-linejoin:miter;stroke-opacity:1"><flowRegion
           id="flowRegion2999-1-0"><rect
             id="rect3001-0-2"
             width="50.195312"
             height="41.015625"
             x="-11.71875"
             y="-5.1484375" /></flowRegion><flowPara
           id="flowPara3003-6-3"
           style="font-size:40px;line-height:1.25"> </flowPara></flowRoot>
    </g>
    <g
       id="text2985-3-2"
       style="font-style:normal;font-variant:normal;font-weight:normal;font-stretch:normal;font-size:28px;line-height:125%;font-family:'URW Bookman L';-inkscape-font-specification:'URW Bookman L';text-align:start;letter-spacing:0px;word-spacing:0px;writing-mode:lr-tb;text-anchor:start;fill:#5b5b5b;fill-opacity:1;stroke:#313131;stroke-width:1;stroke-linecap:round;stroke-linejoin:round;stroke-miterlimit:1;stroke-dasharray:none;stroke-opacity:1"
       transform="translate(11.13804,-562.77967)" />
    <g
       transform="translate(44.676655,-0.66362854)"
       style="display:none"
       inkscape:label="Layer 1"
       id="layer1-6">
      <g
         transform="translate(0.03561996,-2.2874287)"
         id="g4189">
        <g
           id="g6707"
           transform="matrix(0.01079979,0,0,0.01205745,20.57036,18.049257)">
          <rect
             id="rect6709"
             style="color:#000000;opacity:0.40206;fill:url(#linearGradient6715)"
             height="478.35999"
             width="1339.6"
             y="-150.7"
             x="-1559.3" />
          <path
             id="path6711"
             sodipodi:nodetypes="cccc"
             style="color:#000000;opacity:0.40206;fill:url(#radialGradient6717)"
             d="m -219.62,-150.68 v 478.33 c 142.88,0.9 345.4,-107.17 345.4,-239.2 0,-132.02 -159.44,-239.13 -345.4,-239.13 z"
             inkscape:connector-curvature="0" />
          <path
             id="path6713"
             sodipodi:nodetypes="cccc"
             style="color:#000000;opacity:0.40206;fill:url(#radialGradient6719)"
             d="m -1559.3,-150.68 v 478.33 c -142.8,0.9 -345.4,-107.17 -345.4,-239.2 0,-132.02 159.5,-239.13 345.4,-239.13 z"
             inkscape:connector-curvature="0" />
        </g>
        <path
           id="rect7603"
           sodipodi:nodetypes="ccccccccc"
           style="color:#000000;fill:url(#linearGradient8148);stroke:#bbbfbb;stroke-width:0.490014"
           d="M 0.86240796,4.8199615 H 21.051885 c 0.309331,0 0.558584,0.2426191 0.558584,0.5440431 V 16.922386 c 0,0.301279 -4.199066,3.87794 -4.508397,3.87794 H 0.86240796 c -0.30957938,0 -0.55868318,-0.242763 -0.55868318,-0.544043 V 5.3640046 c 0,-0.3015208 0.2491038,-0.5441398 0.55858418,-0.5441398 z"
           inkscape:connector-curvature="0" />
        <g
           id="g7654"
           transform="matrix(0.52372876,0,0,0.50777374,-0.89152169,3.8673779)">
          <path
             id="path7644"
             style="fill:url(#linearGradient7671)"
             d="m 5.5127,30 h 34.13 V 19.627 H 5.5127 L 5.5124,30 Z"
             inkscape:connector-curvature="0" />
          <path
             id="path16203"
             style="fill:url(#linearGradient7673)"
             d="m 5.5127,5.2378 h 34.13 v 14.389 h -34.13 l -3e-4,-14.389 z"
             inkscape:connector-curvature="0" />
          <g
             id="g16205"
             style="stroke:#000000;stroke-width:1.1561"
             transform="matrix(1.1892,0,0,1.1892,-3.5254,-6.5354)">
            <g
               id="g16207">
              <path
                 id="path16209"
                 style="opacity:0.05;fill:#e8f52f"
                 d="m 18.4,15.4 c 0,2.2 -1.8,4.1 -4.1,4.1 -2.2,0 -4.1,-1.8 -4.1,-4.1 0,-2.2 1.8,-4.1 4.1,-4.1 2.2,0 4.1,1.8 4.1,4.1 z"
                 inkscape:connector-curvature="0" />
              <path
                 id="path16211"
                 style="opacity:0.2083;fill:#ecf751"
                 d="m 18,15.4 c 0,2 -1.6,3.7 -3.7,3.7 -2,0 -3.7,-1.6 -3.7,-3.7 0,-2 1.6,-3.7 3.7,-3.7 2,0 3.7,1.6 3.7,3.7 z"
                 inkscape:connector-curvature="0" />
              <path
                 id="path16213"
                 style="opacity:0.3667;fill:#f0f972"
                 d="m 17.6,15.4 c 0,1.8 -1.5,3.3 -3.3,3.3 -1.8,0 -3.3,-1.5 -3.3,-3.3 0,-1.8 1.5,-3.3 3.3,-3.3 1.8,0 3.3,1.5 3.3,3.3 z"
                 inkscape:connector-curvature="0" />
              <path
                 id="path16215"
                 style="opacity:0.525;fill:#f4fa95"
                 d="m 17.2,15.4 c 0,1.6 -1.3,2.9 -2.9,2.9 -1.6,0 -2.9,-1.3 -2.9,-2.9 0,-1.6 1.3,-2.9 2.9,-2.9 1.6,0 2.9,1.3 2.9,2.9 z"
                 inkscape:connector-curvature="0" />
              <path
                 id="path16217"
                 style="opacity:0.6833;fill:#f7fcb7"
                 d="m 16.8,15.4 c 0,1.4 -1.1,2.5 -2.5,2.5 -1.4,0 -2.5,-1.1 -2.5,-2.5 0,-1.4 1.1,-2.5 2.5,-2.5 1.4,0 2.5,1.1 2.5,2.5 z"
                 inkscape:connector-curvature="0" />
              <path
                 id="path16219"
                 style="opacity:0.8417;fill:#fbfddb"
                 d="m 16.4,15.4 c 0,1.2 -1,2.1 -2.1,2.1 -1.1,0 -2.1,-1 -2.1,-2.1 0,-1.1 1,-2.1 2.1,-2.1 1.1,0 2.1,1 2.1,2.1 z"
                 inkscape:connector-curvature="0" />
              <path
                 id="path16221"
                 style="fill:#ffffff"
                 d="m 16,15.4 c 0,1 -0.8,1.8 -1.8,1.8 -1,0 -1.8,-0.8 -1.8,-1.8 0,-1 0.8,-1.8 1.8,-1.8 1,0 1.8,0.8 1.8,1.8 z"
                 inkscape:connector-curvature="0" />
            </g>
          </g>
          <path
             id="path16223"
             style="opacity:0.3"
             d="m 25.016,21.649 h 8.681 l 1.665,0.476 h -2.854 c 0,0 2.854,0.238 4.281,2.021 1.427,1.665 -1.665,3.687 -1.665,3.687 -0.119,-0.357 -0.832,-3.211 -2.259,-4.4 -1.071,-0.952 -2.26,-1.189 -2.26,-1.189 h -5.589 v -0.476 z"
             inkscape:connector-curvature="0" />
          <path
             id="path16225"
             style="opacity:0.3"
             d="m 30.724,22.363 h -4.995 l 9.276,5.232 z"
             inkscape:connector-curvature="0" />
          <path
             id="path16227"
             style="fill:#515151"
             d="m 25.016,21.768 h 8.681 l 1.308,-0.832 h -2.854 c 0,0 2.616,-0.476 2.973,-3.449 0.357,-2.973 -4.043,-6.303 -4.043,-6.303 v 0.119 c 0.119,0.713 1.308,5.708 0.476,7.611 -0.357,1.665 -1.428,2.022 -1.428,2.022 h -5.47 l 0.238,0.832 z"
             inkscape:connector-curvature="0" />
          <path
             id="path16229"
             style="fill:#515151"
             d="M 30.248,20.46 H 25.254 L 31.2,11.422 Z"
             inkscape:connector-curvature="0" />
        </g>
        <path
           id="rect7675"
           sodipodi:nodetypes="ccccccccc"
           style="color:#000000;fill:none;stroke:#ffffff;stroke-width:0.490014"
           d="M 0.90530751,5.3026365 H 20.979591 c 0.07447,0 0.134556,0.058515 0.134556,0.1312476 V 16.894579 c 0,0.45748 -3.526777,3.422395 -3.601752,3.422395 H 0.90530751 c -0.0745254,0 -0.13465599,-0.05851 -0.13465599,-0.131054 V 5.4338841 c 0,-0.072588 0.0601245,-0.1311021 0.13475499,-0.1311021 z"
           inkscape:connector-curvature="0" />
        <rect
           id="rect8163"
           style="color:#000000;opacity:0.84659;fill:none;stroke:#4f4f4f;stroke-width:0.490014"
           height="12.119834"
           width="17.408966"
           y="6.776196"
           x="2.2438247" />
        <path
           id="path2210"
           sodipodi:nodetypes="cccc"
           style="color:#000000;fill:url(#linearGradient8169);fill-rule:evenodd;stroke:url(#linearGradient8177);stroke-width:0.490014"
           d="m 16.99393,20.785432 c 1.007934,0.159585 4.760628,-2.190681 4.609686,-4.109582 -0.77606,1.171748 -2.362439,0.622385 -4.402638,0.699277 0,0 0.196126,3.168508 -0.207048,3.410305 z"
           inkscape:connector-curvature="0" />
        <path
           id="path2247"
           sodipodi:nodetypes="cccc"
           style="color:#000000;opacity:0.36932;fill:none;stroke:url(#linearGradient8166);stroke-width:0.490014"
           d="m 17.713883,19.725393 c 0.680232,-0.330777 2.198588,-1.037792 2.844063,-1.947433 -0.792445,0.328844 -1.463739,0.101072 -2.83165,0.09188 0,0 0.08094,1.480764 -0.01241,1.855549 z"
           inkscape:connector-curvature="0" />
        <path
           id="rect8150"
           sodipodi:nodetypes="ccccc"
           style="color:#000000;opacity:0.30114;fill:url(#radialGradient8161)"
           d="M 1.0335581,5.5672109 V 16.236263 C 12.118853,16.666178 13.358166,9.9195572 20.863554,9.9195572 V 5.5672109 Z"
           inkscape:connector-curvature="0" />
      </g>
    </g>
    <g
       id="g1210">
      <rect
         ry="1.3"
         rx="1.5"
         y="1.9558731"
         x="32.489761"
         height="4.6382856"
         width="4.6382856"
         id="rect847"
         style="fill:#d9d9d9;fill-opacity:1;stroke:#273445;stroke-width:0;stroke-linecap:round" />
      <rect
         style="fill:#727272;fill-opacity:1;stroke:#273445;stroke-width:0;stroke-linecap:round"
         id="rect849"
         width="4.6382856"
         height="4.6382856"
         x="32.503998"
         y="7.7324882"
         rx="1.5"
         ry="1.3" />
      <rect
         style="fill:#b2b2b2;fill-opacity:1;stroke:#273445;stroke-width:0;stroke-linecap:round"
         id="rect851"
         width="4.6382856"
         height="4.6382856"
         x="38.432568"
         y="1.9558731"
         rx="1.5"
         ry="1.3" />
      <rect
         ry="1.3"
         rx="1.5"
         y="7.7090507"
         x="38.472427"
         height="4.6382856"
         width="4.6382856"
         id="rect853"
         style="fill:#4d4d4d;fill-opacity:1;stroke:#273445;stroke-width:0;stroke-linecap:round" />
      <rect
         style="fill:#241f31;fill-opacity:1;stroke:#273445;stroke-width:0;stroke-linecap:round"
         id="rect855"
         width="4.6382856"
         height="4.6382856"
         x="38.37278"
         y="13.418646"
         rx="1.5"
         ry="1.3" />
      <rect
         style="fill:#ffffff;fill-opacity:1;stroke:#000000;stroke-width:0.1;stroke-linecap:round;stroke-miterlimit:4;stroke-dasharray:none;stroke-opacity:1"
         id="rect857"
         width="4.6382856"
         height="4.6382856"
         x="26.64768"
         y="1.9558731"
         rx="1.5"
         ry="1.3" />
      <rect
         ry="1.3"
         rx="1.5"
         y="7.733953"
         x="26.64768"
         height="4.6382856"
         width="4.6382856"
         id="rect860"
         style="fill:#999999;fill-opacity:1;stroke:none;stroke-width:0.1;stroke-linecap:round;stroke-miterlimit:4;stroke-dasharray:none;stroke-opacity:1" />
    </g>
  </g>
</svg>
