<svg xmlns="http://www.w3.org/2000/svg" xmlns:xlink="http://www.w3.org/1999/xlink" width="24" height="24" viewBox="0 0 6.35 6.35"><defs><linearGradient id="b"><stop offset="0" style="stop-color:#fff;stop-opacity:.5"/><stop style="stop-color:#fff;stop-opacity:.20114942" offset=".381"/><stop offset=".909" style="stop-color:gray;stop-opacity:.19540229"/><stop offset="1" style="stop-color:gray;stop-opacity:.5"/></linearGradient><linearGradient id="a"><stop offset="0" style="stop-color:#abacae;stop-opacity:1"/><stop offset="1" style="stop-color:#d4d4d4;stop-opacity:1"/></linearGradient><linearGradient gradientTransform="translate(.138 .1) scale(.9684)" gradientUnits="userSpaceOnUse" y2=".241" x2="4.134" y1="10.238" x1="4.184" id="d" xlink:href="#a"/><linearGradient gradientUnits="userSpaceOnUse" y2="6.35" x2="4.123" y1="0" x1="4.14" id="f" xlink:href="#b"/><linearGradient y2=".241" x2="4.134" y1="10.238" x1="4.184" gradientTransform="translate(.138 .1) scale(.9684)" gradientUnits="userSpaceOnUse" id="c" xlink:href="#a"/><clipPath id="e" clipPathUnits="userSpaceOnUse"><path style="opacity:1;fill:url(#c);fill-opacity:1;stroke-width:.264999;stroke-linecap:round;stroke-linejoin:round" d="M2.855.356v5.632h2.18a.844.844 0 0 0 .845-.845V1.202a.844.844 0 0 0-.846-.846z"/></clipPath></defs><g style="display:inline"><rect ry=".794" rx=".794" y=".529" x=".509" height="5.287" width="5.278" style="opacity:1;fill:#fafafa;fill-opacity:1;stroke-width:.264999;stroke-linecap:round;stroke-linejoin:round"/><path d="M2.855.356v5.632h2.18a.844.844 0 0 0 .845-.845V1.202a.844.844 0 0 0-.846-.846z" style="opacity:1;fill:url(#d);fill-opacity:1;stroke-width:.264999;stroke-linecap:round;stroke-linejoin:round"/><path transform="scale(.26458)" d="M10.793 1.346v.652H4.926c-1.662 0-3 1.338-3 3V18.98c0 1.662 1.338 3 3 3h5.867v.653h8.234a3.188 3.188 0 0 0 3.196-3.195V4.54a3.188 3.188 0 0 0-3.196-3.195h-8.234z" style="opacity:1;fill:none;fill-opacity:1;stroke-width:1.00157;stroke-linecap:round;stroke-linejoin:round;stroke:#1a1a1a;stroke-opacity:1"/><path d="M2.856.356v5.46" style="fill:none;stroke:#000;stroke-width:.264583px;stroke-linecap:butt;stroke-linejoin:miter;stroke-opacity:1"/><path d="m3.78 2.39.294-.487.294-.487.293.487.294.486M3.78 3.955l.294.487.294.486.293-.486.294-.487" style="opacity:1;fill:none;fill-opacity:1;stroke:#333;stroke-width:.529167;stroke-linecap:round;stroke-linejoin:round;stroke-miterlimit:4;stroke-dasharray:none;stroke-opacity:1"/><path clip-path="url(#e)" d="M2.855.356v5.632h2.18a.844.844 0 0 0 .845-.845V1.202a.844.844 0 0 0-.846-.846z" style="opacity:1;fill:none;fill-opacity:1;stroke-width:.264999;stroke-linecap:round;stroke-linejoin:round;stroke:url(#f)"/><g style="font-style:normal;font-weight:400;font-size:10.5833px;line-height:1.25;font-family:sans-serif;fill:#000;fill-opacity:1;stroke:none;stroke-width:.305333" aria-label="1"><path style="font-style:normal;font-variant:normal;font-weight:400;font-stretch:normal;font-family:Bebas;-inkscape-font-specification:Bebas;stroke-width:.305333" d="M3.183 2.172h-.602V1.8q.291-.02.482-.125.196-.106.281-.261h.372V4.93h-.533z" transform="translate(-1.068 .423) scale(.86654)"/></g></g></svg>