<?xml version="1.0" encoding="UTF-8" standalone="no"?>
<svg
   xmlns:dc="http://purl.org/dc/elements/1.1/"
   xmlns:cc="http://creativecommons.org/ns#"
   xmlns:rdf="http://www.w3.org/1999/02/22-rdf-syntax-ns#"
   xmlns:svg="http://www.w3.org/2000/svg"
   xmlns="http://www.w3.org/2000/svg"
   xmlns:sodipodi="http://sodipodi.sourceforge.net/DTD/sodipodi-0.dtd"
   xmlns:inkscape="http://www.inkscape.org/namespaces/inkscape"
   width="22"
   height="22"
   viewBox="0 0 5.8208332 5.8208335"
   version="1.1"
   id="svg3342"
   inkscape:version="1.0 (4035a4fb49, 2020-05-01)"
   sodipodi:docname="hand.svg">
  <defs
     id="defs3336">
    <clipPath
       id="clipPath945"
       clipPathUnits="userSpaceOnUse">
      <rect
         clip-path="none"
         y="1.5076531"
         x="1.4166161"
         height="17.993876"
         width="19.166759"
         id="rect947"
         style="fill:#ffffff;fill-opacity:1;stroke:none;stroke-width:0.999999;stroke-linecap:butt;stroke-linejoin:round;stroke-miterlimit:4;stroke-dasharray:8.00001, 3.99999;stroke-dashoffset:0;stroke-opacity:1" />
    </clipPath>
    <clipPath
       id="clipPath1207"
       clipPathUnits="userSpaceOnUse">
      <path
         sodipodi:nodetypes="aaaaaaaaaaaaa"
         inkscape:connector-curvature="0"
         id="path1209"
         d="m 3.2087793,17.926116 c 0.6763335,0.841477 1.9469084,0.984559 3.0008599,1.218239 2.3467132,0.520114 4.8993168,1.055626 7.2017128,0.365147 2.107416,-0.631977 4.229857,-1.995435 5.320275,-3.906384 0.847989,-1.486084 0.894199,-3.440109 0.510606,-5.107467 C 18.651735,7.9288718 17.118348,5.4588651 15.099722,3.7669781 13.766691,2.6499148 11.981129,1.9806927 10.246771,1.8505027 8.4683438,1.7169273 6.565493,2.1387702 5.0327041,3.0505723 3.9526534,3.6930661 2.696094,4.629136 2.536119,5.8756121 2.3807174,7.0869915 3.7450738,8.0076254 4.1907845,9.1447114 4.6220713,10.245067 5.3814256,11.391617 5.1657268,12.553598 4.928803,13.829715 3.1291849,14.402193 2.82276,15.663307 2.6421178,16.406864 2.729375,17.329728 3.2087793,17.926116 Z"
         style="fill:#8cd5ff;fill-opacity:1;stroke:none;stroke-width:0.264582px;stroke-linecap:butt;stroke-linejoin:miter;stroke-opacity:1" />
    </clipPath>
    <clipPath
       id="clipPath1419"
       clipPathUnits="userSpaceOnUse">
      <path
         style="fill:#ffe16b;fill-opacity:1;stroke:none;stroke-width:0.9375;stroke-linecap:round;stroke-linejoin:round;stroke-miterlimit:4;stroke-dasharray:none;stroke-opacity:1"
         d="M 1.4177004,4.9852691 20.582329,4.985217 20.58229,17.385743 1.4177191,17.385728 Z"
         id="path1421"
         inkscape:connector-curvature="0" />
    </clipPath>
    <clipPath
       clipPathUnits="userSpaceOnUse"
       id="clipPath1055">
      <rect
         y="740.11414"
         x="-736.96967"
         height="17.857143"
         width="19.0625"
         id="rect1057"
         style="fill:#ffe16b;fill-opacity:1;stroke:none;stroke-width:1;stroke-linecap:butt;stroke-linejoin:round;stroke-miterlimit:4;stroke-dasharray:8, 4;stroke-dashoffset:0;stroke-opacity:1"
         transform="rotate(-45)" />
    </clipPath>
  </defs>
  <sodipodi:namedview
     id="base"
     pagecolor="#ffffff"
     bordercolor="#666666"
     borderopacity="1.0"
     inkscape:pageopacity="0.0"
     inkscape:pageshadow="2"
     inkscape:zoom="11.2"
     inkscape:cx="-1.164994"
     inkscape:cy="28.728365"
     inkscape:document-units="mm"
     inkscape:current-layer="layer2"
     showgrid="true"
     units="px"
     showguides="true"
     inkscape:guide-bbox="true"
     inkscape:snap-nodes="true"
     inkscape:object-nodes="false"
     inkscape:object-paths="true"
     inkscape:document-rotation="0"
     inkscape:snap-grids="false">
    <inkscape:grid
       type="xygrid"
       id="grid3887" />
    <sodipodi:guide
       position="4.2333332,5.2916668"
       orientation="0,1"
       id="guide3889"
       inkscape:locked="false" />
    <sodipodi:guide
       position="5.2916665,0.26458334"
       orientation="0,1"
       id="guide3891"
       inkscape:locked="false" />
    <sodipodi:guide
       position="5.5562499,0.52916668"
       orientation="0,1"
       id="guide3893"
       inkscape:locked="false" />
  </sodipodi:namedview>
  <metadata
     id="metadata3339">
    <rdf:RDF>
      <cc:Work
         rdf:about="">
        <dc:format>image/svg+xml</dc:format>
        <dc:type
           rdf:resource="http://purl.org/dc/dcmitype/StillImage" />
        <dc:title />
      </cc:Work>
    </rdf:RDF>
  </metadata>
  <g
     inkscape:label="Layer 1"
     inkscape:groupmode="layer"
     id="layer1"
     transform="translate(0,-291.17915)"
     style="display:none">
    <rect
       style="fill:#d4d4d4;stroke:none;stroke-width:0.264583;stroke-linecap:round;stroke-linejoin:round"
       id="rect3994"
       width="5.8208332"
       height="5.8208332"
       x="0"
       y="291.17914" />
  </g>
  <g
     inkscape:groupmode="layer"
     id="layer2"
     inkscape:label="Layer 2">
    <path
       sodipodi:nodetypes="ccsscsscssscccsscccsssscc"
       id="path833"
       d="m 5.0612428,1.4200052 c -0.237453,0 -0.430169,0.1925583 -0.430169,0.4302246 V 1.5634406 c 0,-0.2376251 -0.192713,-0.430716 -0.430168,-0.430716 -0.237453,0 -0.4301683,0.192968 -0.4301683,0.430716 V 1.2766517 c 0,-0.2376251 -0.192714,-0.43071594 -0.430168,-0.43071594 -0.237454,0 -0.430168,0.19255824 -0.430168,0.43071594 V 0.92185286 c 0,-0.2376252 -0.192714,-0.4306751 -0.430169,-0.4306751 -0.237453,0 -0.430168,0.1925583 -0.430168,0.4306751 V 3.1038906 L 0.98414847,2.6501083 h -8.73e-4 c -0.06307,-0.042609 -0.14051903,-0.063094 -0.22369603,-0.063094 -0.238032,0 -0.430168,0.1921489 -0.430168,0.4302246 0,0.083579 0.02295,0.1634696 0.06595,0.229431 l -5.29e-4,-0.00108 1.31802006,1.4699069 c 0.209938,0.3351332 0.576988,0.5378929 0.971869,0.5378929 h 1.3728423 c 0.791757,0 1.433858,-0.6423252 1.433858,-1.4344364 v -1.968068 c 0,-0.238035 -0.192714,-0.4302655 -0.430171,-0.4302655 z"
       inkscape:connector-curvature="0"
       style="fill:#d9d9d9;fill-opacity:1;stroke-width:0.352299" />
    <path
       inkscape:connector-curvature="0"
       id="path875"
       d="M 4.6315698,1.5536185 V 2.4840032"
       style="fill:none;stroke:#241f31;stroke-width:0.264583px;stroke-linecap:round;stroke-linejoin:miter;stroke-opacity:1" />
    <path
       inkscape:connector-curvature="0"
       id="path877"
       d="M 3.7712335,1.3071849 V 2.3723194"
       style="fill:none;stroke:#241f31;stroke-width:0.264583px;stroke-linecap:round;stroke-linejoin:miter;stroke-opacity:1" />
    <path
       inkscape:connector-curvature="0"
       id="path879"
       d="M 2.9108965,1.0716083 V 2.2238035"
       style="fill:none;stroke:#241f31;stroke-width:0.264583px;stroke-linecap:round;stroke-linejoin:miter;stroke-opacity:1" />
    <path
       style="fill:#000000;fill-opacity:0;stroke:#241f31;stroke-width:0.264583;stroke-linecap:round;stroke-linejoin:round;stroke-miterlimit:4;stroke-dasharray:none;stroke-opacity:1"
       inkscape:connector-curvature="0"
       d="m 5.0612428,1.4200052 c -0.237453,0 -0.430169,0.1925583 -0.430169,0.4302246 V 1.5634406 c 0,-0.2376251 -0.192713,-0.430716 -0.430168,-0.430716 -0.237453,0 -0.4301683,0.192968 -0.4301683,0.430716 V 1.2766517 c 0,-0.2376251 -0.192714,-0.43071594 -0.430168,-0.43071594 -0.237454,0 -0.430168,0.19255824 -0.430168,0.43071594 V 0.92185286 c 0,-0.2376252 -0.192714,-0.4306751 -0.430169,-0.4306751 -0.237453,0 -0.430168,0.1925583 -0.430168,0.4306751 V 3.1038906 L 0.98414847,2.6501083 h -8.73e-4 c -0.06307,-0.042609 -0.14051903,-0.063094 -0.22369603,-0.063094 -0.238032,0 -0.430168,0.1921489 -0.430168,0.4302246 0,0.083579 0.02295,0.1634696 0.06595,0.229431 l -5.29e-4,-0.00108 1.31802006,1.4699069 c 0.209938,0.3351332 0.576988,0.5378929 0.971869,0.5378929 h 1.3728423 c 0.791757,0 1.433858,-0.6423252 1.433858,-1.4344364 v -1.968068 c 0,-0.238035 -0.192714,-0.4302655 -0.430171,-0.4302655 z"
       id="path46419"
       sodipodi:nodetypes="ccsscsscssscccsscccsssscc" />
    <path
       inkscape:connector-curvature="0"
       d="m 0.35189944,2.8866373 c -0.01323,0.041436 -0.02274,0.084845 -0.02274,0.1307412 0,0.083579 0.02314,0.1634823 0.06615,0.2294434 L 1.7130585,4.7154661 c 0.209937,0.3351334 0.576636,0.5379516 0.971516,0.5379516 h 1.3730433 c 0.791758,0 1.434021,-0.6424263 1.434021,-1.4345377 V 3.5542966 c 0,0.7921107 -0.642263,1.4345378 -1.434021,1.4345378 H 2.6845745 c -0.39488,0 -0.761579,-0.2028182 -0.971516,-0.5379516 L 0.39530944,2.9822386 c -0.01903,-0.029189 -0.03248,-0.061845 -0.04341,-0.095601 z"
       style="fill:#b2b2b2;fill-opacity:1;stroke-width:0.352298"
       id="path46414" />
  </g>
</svg>
