<?xml version="1.0" encoding="UTF-8" standalone="no"?>
<!-- Created with Inkscape (http://www.inkscape.org/) -->

<svg
   xmlns:dc="http://purl.org/dc/elements/1.1/"
   xmlns:cc="http://creativecommons.org/ns#"
   xmlns:rdf="http://www.w3.org/1999/02/22-rdf-syntax-ns#"
   xmlns:svg="http://www.w3.org/2000/svg"
   xmlns="http://www.w3.org/2000/svg"
   xmlns:sodipodi="http://sodipodi.sourceforge.net/DTD/sodipodi-0.dtd"
   xmlns:inkscape="http://www.inkscape.org/namespaces/inkscape"
   width="22"
   height="22"
   viewBox="0 0 1.42076 1.42076"
   version="1.1"
   id="svg41"
   inkscape:version="0.92.4 (unknown)"
   sodipodi:docname="hand.svg">
  <defs
     id="defs35" />
  <sodipodi:namedview
     id="base"
     pagecolor="#ffffff"
     bordercolor="#666666"
     borderopacity="1.0"
     inkscape:pageopacity="0.0"
     inkscape:pageshadow="2"
     inkscape:zoom="4.9590164"
     inkscape:cx="-4.5111521"
     inkscape:cy="21.333972"
     inkscape:document-units="px"
     inkscape:current-layer="layer1"
     showgrid="false"
     inkscape:window-width="2560"
     inkscape:window-height="1377"
     inkscape:window-x="0"
     inkscape:window-y="30"
     inkscape:window-maximized="1"
     units="px"
     inkscape:snap-page="false"
     scale-x="1e-05"
     inkscape:snap-object-midpoints="true"
     inkscape:snap-bbox="true"
     inkscape:snap-bbox-midpoints="true"
     inkscape:snap-bbox-edge-midpoints="false"
     inkscape:bbox-nodes="true"
     inkscape:bbox-paths="false"
     inkscape:snap-nodes="true"
     inkscape:snap-grids="false"
     inkscape:snap-others="false" />
  <metadata
     id="metadata38">
    <rdf:RDF>
      <cc:Work
         rdf:about="">
        <dc:format>image/svg+xml</dc:format>
        <dc:type
           rdf:resource="http://purl.org/dc/dcmitype/StillImage" />
        <dc:title />
      </cc:Work>
    </rdf:RDF>
  </metadata>
  <g
     inkscape:label="Ebene 1"
     inkscape:groupmode="layer"
     id="layer1"
     transform="translate(0.05960665,-288.59358)">
    <path
       style="fill:#ffa154;stroke-width:0.08598968"
       inkscape:connector-curvature="0"
       d="m 1.1585923,288.91805 c -0.057958,0 -0.1049962,0.047 -0.1049962,0.10501 v -0.07 c 0,-0.058 -0.047038,-0.10513 -0.10499628,-0.10513 -0.0579581,0 -0.10499627,0.0471 -0.10499627,0.10513 v -0.07 c 0,-0.058 -0.047038,-0.10513 -0.10499627,-0.10513 -0.0579581,0 -0.10499626,0.047 -0.10499626,0.10513 v -0.0866 c 0,-0.058 -0.047038,-0.10512 -0.10499627,-0.10512 -0.0579581,0 -0.10499626,0.047 -0.10499626,0.10512 v 0.52834 l -0.26017092,-0.11076 h -2.1791e-4 c -0.0153932,-0.0104 -0.034298,-0.0154 -0.0546001,-0.0154 -0.05809912,0 -0.10499626,0.0469 -0.10499626,0.10501 0,0.0204 0.005601,0.0399 0.01609806,0.056 l -1.2816e-4,-2.7e-4 0.32170481,0.46982 c 0.051242,0.0818 0.14083239,0.13129 0.23721566,0.13129 h 0.33508569 c 0.19325364,0 0.34997894,-0.15678 0.34997894,-0.35012 v -0.58715 c 0,-0.0581 -0.047038,-0.10502 -0.1049969,-0.10502 z"
       id="path833"
       sodipodi:nodetypes="ccsscsscssscccsscccsssscc" />
    <path
       style="fill:#f37329;stroke-width:0.08598968"
       d="m 0.02110607,289.24564 c -0.01097856,0.0166 -0.01755556,0.0365 -0.01755556,0.0579 0,0.0204 0.0056077,0.0399 0.01610469,0.056 l 0.32165836,0.46947 c 0.051242,0.0818 0.14083434,0.1313 0.2372176,0.1313 h 0.3350064 c 0.19325364,0 0.35009544,-0.15674 0.35009544,-0.35008 v -0.11606 c 0,0.19334 -0.1568418,0.35008 -0.35009544,0.35008 h -0.3350064 c -0.0963832,0 -0.18597556,-0.0496 -0.2372176,-0.1313 z"
       id="path870"
       inkscape:connector-curvature="0" />
    <path
       style="fill:#ffc27d;stroke-width:1.33152175"
       d="M 9.109375 1.5136719 C 8.2119129 1.5136719 7.4824219 2.240656 7.4824219 3.140625 L 7.4824219 4.9960938 C 7.4824219 4.0961247 8.2119129 3.3671875 9.109375 3.3671875 C 10.00684 3.3671875 10.734375 4.0979829 10.734375 4.9960938 L 10.734375 6.3359375 C 10.734375 5.4358136 11.461913 4.7089844 12.359375 4.7089844 C 13.25684 4.7089844 13.986328 5.4378266 13.986328 6.3359375 L 13.986328 7.4199219 C 13.986328 6.5213465 14.713866 5.7929688 15.611328 5.7929688 C 16.508793 5.7929688 17.238281 6.521811 17.238281 7.4199219 L 17.238281 8.5039062 C 17.238281 7.6056405 17.965821 6.8789062 18.863281 6.8789062 L 18.863281 6.8808594 C 19.760756 6.8808594 20.488281 7.6062 20.488281 8.5058594 L 20.488281 6.6523438 C 20.488281 5.7526844 19.760756 5.0273438 18.863281 5.0273438 L 18.863281 5.0234375 C 17.965821 5.0234375 17.238281 5.7521249 17.238281 6.6503906 L 17.238281 5.5664062 C 17.238281 4.6682954 16.508793 3.9394531 15.611328 3.9394531 C 14.713866 3.9394531 13.986328 4.6678308 13.986328 5.5664062 L 13.986328 4.4824219 C 13.986328 3.584311 13.25684 2.8554688 12.359375 2.8554688 C 11.461913 2.8554688 10.734375 3.582298 10.734375 4.4824219 L 10.734375 3.140625 C 10.734375 2.2425141 10.00684 1.5136719 9.109375 1.5136719 z M 2.6054688 9.3691406 C 1.705823 9.3691406 0.97851563 10.09628 0.97851562 10.996094 C 0.97851562 11.309826 1.0661562 11.609108 1.2265625 11.857422 L 1.2714844 11.921875 C 1.5648935 11.500389 2.0516597 11.222656 2.6054688 11.222656 C 2.9198401 11.222656 3.2128133 11.299897 3.4511719 11.460938 L 3.453125 11.460938 L 7.4824219 13.175781 L 7.4824219 11.322266 L 3.453125 9.6074219 L 3.4511719 9.6074219 C 3.2128133 9.4463813 2.9198401 9.3691406 2.6054688 9.3691406 z "
       transform="matrix(0.06458,0,0,0.06458,-0.05960665,288.59358)"
       id="path822" />
    <path
       style="fill:none;stroke:#a62100;stroke-width:0.06457999px;stroke-linecap:round;stroke-linejoin:miter;stroke-opacity:1"
       d="m 1.0535705,288.99913 v 0.22709"
       id="path875"
       inkscape:connector-curvature="0" />
    <path
       style="fill:none;stroke:#a62100;stroke-width:0.06457999px;stroke-linecap:round;stroke-linejoin:miter;stroke-opacity:1"
       d="m 0.84357794,288.93898 v 0.25998"
       id="path877"
       inkscape:connector-curvature="0" />
    <path
       style="fill:none;stroke:#a62100;stroke-width:0.06458px;stroke-linecap:round;stroke-linejoin:miter;stroke-opacity:1"
       d="m 0.63358538,288.88148 v 0.28123"
       id="path879"
       inkscape:connector-curvature="0" />
    <path
       sodipodi:nodetypes="ccsscsscssscccsscccssscc"
       id="path820"
       d="m 1.1585654,288.91805 c -0.057958,0 -0.1049961,0.047 -0.1049961,0.10501 v -0.07 c 0,-0.058 -0.047038,-0.10513 -0.10499629,-0.10513 -0.0579581,0 -0.10499627,0.0471 -0.10499627,0.10513 v -0.07 c 0,-0.058 -0.047038,-0.10513 -0.10499627,-0.10513 -0.0579581,0 -0.10499626,0.047 -0.10499626,0.10513 v -0.0866 c 0,-0.058 -0.047038,-0.10512 -0.10499627,-0.10512 -0.0579581,0 -0.10499626,0.047 -0.10499626,0.10512 v 0.52834 l -0.26017092,-0.11076 h -2.1791e-4 c -0.0153932,-0.0104 -0.034298,-0.0154 -0.0546001,-0.0154 -0.05809912,0 -0.10499626,0.0469 -0.10499626,0.10501 0,0.0204 0.005601,0.0399 0.01609806,0.056 l -1.2816e-4,-2.7e-4 0.32170481,0.46982 c 0.051242,0.0818 0.14083239,0.13129 0.23721566,0.13129 H 0.9135825 c 0.1932536,0 0.349979,-0.15678 0.349979,-0.35012 v -0.58715 c 0.00242,-0.0801 -0.06767,-0.10467 -0.1049958,-0.10502 z"
       inkscape:connector-curvature="0"
       style="fill:none;stroke:#a62100;stroke-width:0.06458;stroke-linecap:round;stroke-miterlimit:4;stroke-dasharray:none;stroke-opacity:1" />
  </g>
</svg>
