<?xml version="1.0" encoding="UTF-8" standalone="no"?>
<svg
   xmlns:dc="http://purl.org/dc/elements/1.1/"
   xmlns:cc="http://creativecommons.org/ns#"
   xmlns:rdf="http://www.w3.org/1999/02/22-rdf-syntax-ns#"
   xmlns:svg="http://www.w3.org/2000/svg"
   xmlns="http://www.w3.org/2000/svg"
   xmlns:sodipodi="http://sodipodi.sourceforge.net/DTD/sodipodi-0.dtd"
   xmlns:inkscape="http://www.inkscape.org/namespaces/inkscape"
   version="1.0"
   width="22"
   height="22"
   viewBox="0 0 17.6 17.6"
   preserveAspectRatio="xMidYMid meet"
   id="svg2"
   inkscape:version="1.1-dev (3459c49765, 2020-03-29)"
   sodipodi:docname="object-select.svg">
  <defs
     id="defs12" />
  <sodipodi:namedview
     pagecolor="#ffffff"
     bordercolor="#666666"
     borderopacity="1"
     objecttolerance="10"
     gridtolerance="10"
     guidetolerance="10"
     inkscape:pageopacity="0"
     inkscape:pageshadow="2"
     inkscape:window-width="1920"
     inkscape:window-height="1047"
     id="namedview10"
     showgrid="false"
     inkscape:zoom="16.000001"
     inkscape:cx="4.5475059"
     inkscape:cy="11.192117"
     inkscape:window-x="2560"
     inkscape:window-y="0"
     inkscape:window-maximized="1"
     inkscape:current-layer="svg2" />
  <metadata
     id="metadata4">
Created by potrace 1.11, written by Peter Selinger 2001-2013
<rdf:RDF>
  <cc:Work
     rdf:about="">
    <dc:format>image/svg+xml</dc:format>
    <dc:type
       rdf:resource="http://purl.org/dc/dcmitype/StillImage" />
  </cc:Work>
</rdf:RDF>
</metadata>
  <g
     id="g853"
     transform="matrix(0.89792546,0,0,0.88549253,1.3187063,1.1783257)"
     style="stroke-width:1.12147">
    <path
       inkscape:connector-curvature="0"
       id="path4"
       d="m 4.122256,0.65286879 a 0.34577128,0.34609975 0 0 0 -0.3457712,0.34609975 0.34577128,0.34609975 0 0 0 0.00151,0.0302271 0.38617038,0.38653723 0 0 0 0,0.00151 0.38617038,0.38653723 0 0 0 -0.00151,0.010579 0.38617038,0.38653723 0 0 0 0,0.034761 0.38617038,0.38653723 0 0 0 0,0.013602 0.38617038,0.38653723 0 0 0 0,0.012091 0.38617038,0.38653723 0 0 0 0,0.060454 V 13.854534 a 0.38617038,0.38653723 0 0 0 0.6522846,0.2796 l 2.7978785,-2.632776 2.2573281,5.217188 a 0.38617038,0.38653723 0 0 0 0.519412,0.191943 l 1.688088,-0.772302 a 0.38617038,0.38653723 0 0 0 0.193269,-0.506303 L 9.5322934,10.485729 13.46563,10.147186 A 0.38617038,0.38653723 0 0 0 13.695138,9.4716118 L 4.4891662,0.88410575 a 0.38617038,0.38653723 0 0 0 -0.060397,-0.0604541 0.38617038,0.38653723 0 0 0 -0.025668,-0.0272043 0.34577128,0.34609975 0 0 0 -0.00151,0 A 0.34577128,0.34609975 0 0 0 4.122256,0.65286879 Z"
       style="line-height:normal;font-family:'Bitstream Vera Sans';-inkscape-font-specification:'Bitstream Vera Sans';text-indent:0;text-align:start;text-transform:none;overflow:visible;fill:#ffffff;fill-opacity:1;stroke:none;stroke-width:0.70003;stroke-opacity:1;enable-background:accumulate" />
    <path
       style="line-height:normal;font-family:'Bitstream Vera Sans';-inkscape-font-specification:'Bitstream Vera Sans';text-indent:0;text-align:start;text-transform:none;overflow:visible;fill:none;fill-opacity:1;stroke:#000000;stroke-width:0.897179;stroke-miterlimit:4;stroke-dasharray:none;stroke-opacity:1;enable-background:accumulate"
       d="m 4.122256,0.65286879 a 0.34577128,0.34609975 0 0 0 -0.3457712,0.34609975 0.34577128,0.34609975 0 0 0 0.00151,0.0302271 0.38617038,0.38653723 0 0 0 0,0.00151 0.38617038,0.38653723 0 0 0 -0.00151,0.010579 0.38617038,0.38653723 0 0 0 0,0.034761 0.38617038,0.38653723 0 0 0 0,0.013602 0.38617038,0.38653723 0 0 0 0,0.012091 0.38617038,0.38653723 0 0 0 0,0.060454 V 13.854534 a 0.38617038,0.38653723 0 0 0 0.6522846,0.2796 l 2.7978785,-2.632776 2.2573281,5.217188 a 0.38617038,0.38653723 0 0 0 0.519412,0.191943 l 1.688088,-0.772302 a 0.38617038,0.38653723 0 0 0 0.193269,-0.506303 L 9.5322934,10.485729 13.46563,10.147186 A 0.38617038,0.38653723 0 0 0 13.695138,9.4716118 L 4.4891662,0.88410575 a 0.38617038,0.38653723 0 0 0 -0.060397,-0.0604541 0.38617038,0.38653723 0 0 0 -0.025668,-0.0272043 0.34577128,0.34609975 0 0 0 -0.00151,0 A 0.34577128,0.34609975 0 0 0 4.122256,0.65286879 Z"
       id="path836"
       inkscape:connector-curvature="0" />
    <path
       id="path838"
       transform="scale(0.8)"
       d="m 5.1523438,0.81640625 a 0.4322141,0.43262469 0 0 0 -0.4316407,0.43164065 0.4322141,0.43262469 0 0 0 0.00195,0.039063 0.48271297,0.48317154 0 0 0 0,0.00195 0.48271297,0.48317154 0 0 0 -0.00195,0.011719 0.48271297,0.48317154 0 0 0 0,0.044922 0.48271297,0.48317154 0 0 0 0,0.015625 0.48271297,0.48317154 0 0 0 0,0.015625 0.48271297,0.48317154 0 0 0 0,0.076172 v 0.9882812 a 0.4322141,0.43262469 0 0 1 0.4316407,-0.4316406 0.4322141,0.43262469 0 0 1 0.3496093,0.1796875 0.4322141,0.43262469 0 0 0 0.00195,0 0.48271297,0.48317154 0 0 1 0.03125,0.033203 0.48271297,0.48317154 0 0 1 0.076172,0.076172 l 11.1406249,10.392578 0.08008,-0.0078 a 0.48271297,0.48317154 0 0 0 0.28711,-0.84375 L 5.6113281,1.1054688 a 0.48271297,0.48317154 0 0 0 -0.076172,-0.076172 0.48271297,0.48317154 0 0 0 -0.03125,-0.0332032 0.4322141,0.43262469 0 0 0 -0.00195,0 A 0.4322141,0.43262469 0 0 0 5.1523468,0.8164061 Z M 4.7207031,2.4414062 v 0.052734 a 0.48271297,0.48317154 0 0 1 0.00195,-0.011719 0.48271297,0.48317154 0 0 0 0,-0.00195 0.4322141,0.43262469 0 0 1 -0.00195,-0.039063 z m 7.7207029,11.8144528 -0.52539,0.04492 2.685546,5.876953 0.01367,-0.0059 a 0.48271297,0.48317154 0 0 0 0.240235,-0.632813 z"
       style="line-height:normal;font-family:'Bitstream Vera Sans';-inkscape-font-specification:'Bitstream Vera Sans';text-indent:0;text-align:start;text-transform:none;overflow:visible;fill:#d4d4d4;fill-opacity:1;stroke:none;stroke-width:0.875034;stroke-opacity:1;enable-background:accumulate" />
    <path
       id="path843"
       transform="scale(0.8)"
       d="m 4.7207031,1.3769531 a 0.48271297,0.48317154 0 0 0 0,0.076172 z M 17.121094,11.841797 a 0.48271297,0.48317154 0 0 1 -0.289063,0.123047 l -4.916015,0.423828 0.316406,0.691406 4.599609,-0.396484 a 0.48271297,0.48317154 0 0 0 0.289063,-0.841797 z m -8.0878909,1.816406 -3.4980469,3.291016 a 0.48271297,0.48317154 0 0 1 -0.8144531,-0.34961 v 0.71875 a 0.48271297,0.48317154 0 0 0 0.8144531,0.34961 l 3.4980469,-3.291016 2.8222659,6.521485 a 0.48271297,0.48317154 0 0 0 0.648437,0.240234 l 2.111328,-0.966797 a 0.48271297,0.48317154 0 0 0 0.240235,-0.632813 l -0.08984,-0.195312 a 0.48271297,0.48317154 0 0 1 -0.150391,0.109375 l -2.111328,0.966797 a 0.48271297,0.48317154 0 0 1 -0.648437,-0.240234 z"
       style="line-height:normal;font-family:'Bitstream Vera Sans';-inkscape-font-specification:'Bitstream Vera Sans';text-indent:0;text-align:start;text-transform:none;overflow:visible;fill:#555761;fill-opacity:1;stroke:none;stroke-width:0.875034;stroke-opacity:1;enable-background:accumulate" />
  </g>
</svg>
