<?xml version="1.0" encoding="UTF-8" standalone="no"?>
<svg
   xmlns:dc="http://purl.org/dc/elements/1.1/"
   xmlns:cc="http://creativecommons.org/ns#"
   xmlns:rdf="http://www.w3.org/1999/02/22-rdf-syntax-ns#"
   xmlns:svg="http://www.w3.org/2000/svg"
   xmlns="http://www.w3.org/2000/svg"
   xmlns:xlink="http://www.w3.org/1999/xlink"
   xmlns:sodipodi="http://sodipodi.sourceforge.net/DTD/sodipodi-0.dtd"
   xmlns:inkscape="http://www.inkscape.org/namespaces/inkscape"
   sodipodi:docname="select-lasso.svg"
   inkscape:version="1.0 (4035a4fb49, 2020-05-01)"
   id="svg3342"
   version="1.1"
   viewBox="0 0 5.8208332 5.8208335"
   height="22"
   width="22">
  <defs
     id="defs3336">
    <linearGradient
       id="linearGradient896"
       inkscape:collect="always">
      <stop
         id="stop892"
         offset="0"
         style="stop-color:#3689e6;stop-opacity:1;" />
      <stop
         id="stop894"
         offset="1"
         style="stop-color:#0d52bf;stop-opacity:0.97428107" />
    </linearGradient>
    <linearGradient
       id="linearGradient888"
       inkscape:collect="always">
      <stop
         id="stop884"
         offset="0"
         style="stop-color:#8cd5ff;stop-opacity:1;" />
      <stop
         id="stop886"
         offset="1"
         style="stop-color:#64baff;stop-opacity:1" />
    </linearGradient>
    <clipPath
       clipPathUnits="userSpaceOnUse"
       id="clipPath5175">
      <path
         style="fill:#ffe16b;fill-opacity:1;stroke:none;stroke-width:0.9375;stroke-linecap:round;stroke-linejoin:round;stroke-miterlimit:4;stroke-dasharray:none;stroke-opacity:1"
         d="m 2.7829782,1046.3311 15.3447168,-15.3448 9.928837,9.9289 -15.344724,15.3447 z"
         id="path5177"
         inkscape:connector-curvature="0" />
    </clipPath>
    <clipPath
       clipPathUnits="userSpaceOnUse"
       id="clipPath945">
      <rect
         style="fill:#ffffff;fill-opacity:1;stroke:none;stroke-width:0.999999;stroke-linecap:butt;stroke-linejoin:round;stroke-miterlimit:4;stroke-dasharray:8.00001, 3.99999;stroke-dashoffset:0;stroke-opacity:1"
         id="rect947"
         width="19.166759"
         height="17.993876"
         x="1.4166161"
         y="1.5076531"
         clip-path="none" />
    </clipPath>
    <linearGradient
       inkscape:collect="always"
       xlink:href="#linearGradient888"
       id="linearGradient923"
       x1="19.891943"
       y1="0.85751539"
       x2="23.24608"
       y2="4.5683088"
       gradientUnits="userSpaceOnUse"
       gradientTransform="translate(-18.642527)" />
    <linearGradient
       inkscape:collect="always"
       xlink:href="#linearGradient896"
       id="linearGradient939"
       x1="20.092352"
       y1="0.74183154"
       x2="23.317513"
       y2="4.4981894"
       gradientUnits="userSpaceOnUse"
       gradientTransform="translate(-18.642527)" />
    <linearGradient
       inkscape:collect="always"
       xlink:href="#linearGradient896"
       id="linearGradient957"
       gradientUnits="userSpaceOnUse"
       x1="5.3817472"
       y1="1046.4047"
       x2="26.479944"
       y2="1047.6481"
       gradientTransform="matrix(0.63370779,0.63370779,-0.63370779,0.63370779,664.23145,-663.15776)" />
    <clipPath
       clipPathUnits="userSpaceOnUse"
       id="clipPath1207">
      <path
         style="fill:#8cd5ff;fill-opacity:1;stroke:none;stroke-width:0.264582px;stroke-linecap:butt;stroke-linejoin:miter;stroke-opacity:1"
         d="m 3.2087793,17.926116 c 0.6763335,0.841477 1.9469084,0.984559 3.0008599,1.218239 2.3467132,0.520114 4.8993168,1.055626 7.2017128,0.365147 2.107416,-0.631977 4.229857,-1.995435 5.320275,-3.906384 0.847989,-1.486084 0.894199,-3.440109 0.510606,-5.107467 C 18.651735,7.9288718 17.118348,5.4588651 15.099722,3.7669781 13.766691,2.6499148 11.981129,1.9806927 10.246771,1.8505027 8.4683438,1.7169273 6.565493,2.1387702 5.0327041,3.0505723 3.9526534,3.6930661 2.696094,4.629136 2.536119,5.8756121 2.3807174,7.0869915 3.7450738,8.0076254 4.1907845,9.1447114 4.6220713,10.245067 5.3814256,11.391617 5.1657268,12.553598 4.928803,13.829715 3.1291849,14.402193 2.82276,15.663307 2.6421178,16.406864 2.729375,17.329728 3.2087793,17.926116 Z"
         id="path1209"
         inkscape:connector-curvature="0"
         sodipodi:nodetypes="aaaaaaaaaaaaa" />
    </clipPath>
  </defs>
  <sodipodi:namedview
     inkscape:snap-grids="false"
     inkscape:document-rotation="0"
     inkscape:object-paths="true"
     inkscape:object-nodes="false"
     inkscape:snap-nodes="true"
     inkscape:guide-bbox="true"
     showguides="true"
     units="px"
     showgrid="true"
     inkscape:current-layer="layer2"
     inkscape:document-units="mm"
     inkscape:cy="27.512431"
     inkscape:cx="-5.3037149"
     inkscape:zoom="5.6"
     inkscape:pageshadow="2"
     inkscape:pageopacity="0.0"
     borderopacity="1.0"
     bordercolor="#666666"
     pagecolor="#ffffff"
     id="base">
    <inkscape:grid
       id="grid3887"
       type="xygrid" />
    <sodipodi:guide
       inkscape:locked="false"
       id="guide3889"
       orientation="0,1"
       position="4.2333332,5.2916668" />
    <sodipodi:guide
       inkscape:locked="false"
       id="guide3891"
       orientation="0,1"
       position="5.2916665,0.26458334" />
    <sodipodi:guide
       inkscape:locked="false"
       id="guide3893"
       orientation="0,1"
       position="5.5562499,0.52916668" />
  </sodipodi:namedview>
  <metadata
     id="metadata3339">
    <rdf:RDF>
      <cc:Work
         rdf:about="">
        <dc:format>image/svg+xml</dc:format>
        <dc:type
           rdf:resource="http://purl.org/dc/dcmitype/StillImage" />
        <dc:title />
      </cc:Work>
    </rdf:RDF>
  </metadata>
  <g
     style="display:none"
     transform="translate(0,-291.17915)"
     id="layer1"
     inkscape:groupmode="layer"
     inkscape:label="Layer 1">
    <rect
       y="291.17914"
       x="0"
       height="5.8208332"
       width="5.8208332"
       id="rect3994"
       style="fill:#d4d4d4;stroke:none;stroke-width:0.264583;stroke-linecap:round;stroke-linejoin:round" />
  </g>
  <g
     inkscape:label="Layer 2"
     id="layer2"
     inkscape:groupmode="layer">
    <path
       style="fill:#8cd5ff;fill-opacity:1;stroke:url(#linearGradient923);stroke-width:0.264583px;stroke-linecap:butt;stroke-linejoin:miter;stroke-opacity:1"
       d="M 0.848976,4.7429584 C 1.027932,4.9655899 1.364094,5.0034576 1.642963,5.0652746 2.263854,5.2028984 2.939239,5.3445773 3.548402,5.1619006 4.105995,4.9946842 4.667562,4.6339311 4.956072,4.1283224 5.180434,3.7351314 5.192648,3.2181409 5.091161,2.7769806 4.934931,2.0978477 4.529224,1.4443238 3.995117,0.99669055 3.642432,0.70112156 3.169994,0.52406476 2.711119,0.48961136 2.240566,0.45428036 1.737104,0.56589236 1.331556,0.80713756 1.045795,0.97712825 0.713328,1.224799 0.671013,1.5545841 0.629893,1.8750982 0.990871,2.1186906 1.108796,2.4195472 1.222908,2.710682 1.423832,3.0140286 1.366754,3.3214773 1.304074,3.6591108 0.827921,3.8105826 0.746842,4.1442566 c -0.0478,0.1967378 -0.0247,0.440899 0.102134,0.5987018 z"
       id="path1430"
       inkscape:connector-curvature="0"
       sodipodi:nodetypes="aaaaaaaaaaaaa" />
    <path
       id="path985-8"
       style="fill:none;stroke:url(#linearGradient957);stroke-width:2;stroke-linecap:round;stroke-linejoin:miter;stroke-miterlimit:4;stroke-dasharray:none;stroke-opacity:1"
       d="M 12.222656 -11.035156 C 12.176655 -11.207899 -7.015625 8.203125 -7.015625 8.203125 L 12.222656 -11.035156 z M 14.9375 -8.3203125 C 14.891499 -8.4930558 -4.2988281 10.917969 -4.2988281 10.917969 L 14.9375 -8.3203125 z M 17.654297 -5.6035156 C 17.608296 -5.7762589 -1.5839844 13.634766 -1.5839844 13.634766 L 17.654297 -5.6035156 z M 20.369141 -2.8867188 C 20.32314 -3.0594612 1.1328125 16.349609 1.1328125 16.349609 L 20.369141 -2.8867188 z M 23.085938 -0.171875 C 23.039936 -0.3446174 3.8476562 19.066406 3.8476562 19.066406 L 23.085938 -0.171875 z M 25.800781 2.5449219 C 25.75478 2.3721795 6.5644531 21.78125 6.5644531 21.78125 L 25.800781 2.5449219 z M 28.517578 5.2597656 C 28.471577 5.0870231 9.2792969 24.498047 9.2792969 24.498047 L 28.517578 5.2597656 z M 31.232422 7.9765625 C 31.186421 7.8038199 11.996094 27.212891 11.996094 27.212891 L 31.232422 7.9765625 z "
       transform="scale(0.26458333)"
       clip-path="url(#clipPath1207)" />
    <path
       sodipodi:nodetypes="aaaaaaaaaaaaa"
       inkscape:connector-curvature="0"
       id="path49744"
       d="M 0.848976,4.7429584 C 1.027932,4.9655899 1.364094,5.0034576 1.642963,5.0652746 2.263854,5.2028984 2.939239,5.3445773 3.548402,5.1619006 4.105995,4.9946842 4.667562,4.6339311 4.956072,4.1283224 5.180434,3.7351314 5.192648,3.2181409 5.091161,2.7769806 4.934931,2.0978477 4.529224,1.4443238 3.995117,0.99669055 3.642432,0.70112156 3.169994,0.52406476 2.711119,0.48961136 2.240566,0.45428036 1.737104,0.56589236 1.331556,0.80713756 1.045795,0.97712825 0.713328,1.224799 0.671013,1.5545841 0.629893,1.8750982 0.990871,2.1186906 1.108796,2.4195472 1.222908,2.710682 1.423832,3.0140286 1.366754,3.3214773 1.304074,3.6591108 0.827921,3.8105826 0.746842,4.1442566 c -0.0478,0.1967378 -0.0247,0.440899 0.102134,0.5987018 z"
       style="fill:none;fill-opacity:1;stroke:url(#linearGradient939);stroke-width:0.264583px;stroke-linecap:butt;stroke-linejoin:miter;stroke-opacity:1" />
  </g>
</svg>
