<?xml version="1.0" encoding="UTF-8" standalone="no"?>
<svg
   xmlns:dc="http://purl.org/dc/elements/1.1/"
   xmlns:cc="http://creativecommons.org/ns#"
   xmlns:rdf="http://www.w3.org/1999/02/22-rdf-syntax-ns#"
   xmlns:svg="http://www.w3.org/2000/svg"
   xmlns="http://www.w3.org/2000/svg"
   xmlns:xlink="http://www.w3.org/1999/xlink"
   xmlns:sodipodi="http://sodipodi.sourceforge.net/DTD/sodipodi-0.dtd"
   xmlns:inkscape="http://www.inkscape.org/namespaces/inkscape"
   width="22"
   height="22"
   viewBox="0 0 5.8208332 5.8208335"
   version="1.1"
   id="svg3342"
   inkscape:version="1.0 (4035a4fb49, 2020-05-01)"
   sodipodi:docname="stretch.svg">
  <defs
     id="defs3336">
    <linearGradient
       inkscape:collect="always"
       id="linearGradient896">
      <stop
         style="stop-color:#3689e6;stop-opacity:1;"
         offset="0"
         id="stop892" />
      <stop
         style="stop-color:#0d52bf;stop-opacity:0.97428107"
         offset="1"
         id="stop894" />
    </linearGradient>
    <linearGradient
       inkscape:collect="always"
       id="linearGradient888">
      <stop
         style="stop-color:#8cd5ff;stop-opacity:1;"
         offset="0"
         id="stop884" />
      <stop
         style="stop-color:#64baff;stop-opacity:1"
         offset="1"
         id="stop886" />
    </linearGradient>
    <clipPath
       id="clipPath945"
       clipPathUnits="userSpaceOnUse">
      <rect
         clip-path="none"
         y="1.5076531"
         x="1.4166161"
         height="17.993876"
         width="19.166759"
         id="rect947"
         style="fill:#ffffff;fill-opacity:1;stroke:none;stroke-width:0.999999;stroke-linecap:butt;stroke-linejoin:round;stroke-miterlimit:4;stroke-dasharray:8.00001, 3.99999;stroke-dashoffset:0;stroke-opacity:1" />
    </clipPath>
    <linearGradient
       gradientTransform="translate(-6.6184436)"
       inkscape:collect="always"
       xlink:href="#linearGradient888"
       id="linearGradient890"
       x1="-0.26458332"
       y1="-0.26458332"
       x2="6.3499999"
       y2="6.6145835"
       gradientUnits="userSpaceOnUse" />
    <linearGradient
       inkscape:collect="always"
       xlink:href="#linearGradient896"
       id="linearGradient898"
       x1="1.63091"
       y1="1.507653"
       x2="20"
       y2="19"
       gradientUnits="userSpaceOnUse" />
    <linearGradient
       gradientTransform="translate(-6.6184436)"
       inkscape:collect="always"
       xlink:href="#linearGradient896"
       id="linearGradient906"
       x1="0.3748138"
       y1="0.429001"
       x2="5.4460192"
       y2="5.1008863"
       gradientUnits="userSpaceOnUse" />
    <linearGradient
       gradientTransform="translate(-6.5653483)"
       gradientUnits="userSpaceOnUse"
       y2="4.7844415"
       x2="12.161901"
       y1="1.1793295"
       x1="6.840045"
       id="linearGradient899"
       xlink:href="#linearGradient896"
       inkscape:collect="always" />
    <linearGradient
       gradientTransform="translate(-6.5653483)"
       gradientUnits="userSpaceOnUse"
       y2="4.5999827"
       x2="12.011078"
       y1="1.3190265"
       x1="6.9567204"
       id="linearGradient907"
       xlink:href="#linearGradient888"
       inkscape:collect="always" />
    <linearGradient
       gradientTransform="translate(-6.4547276)"
       gradientUnits="userSpaceOnUse"
       y2="4.5683088"
       x2="23.24608"
       y1="0.85751539"
       x1="19.891943"
       id="linearGradient923"
       xlink:href="#linearGradient888"
       inkscape:collect="always" />
    <linearGradient
       gradientTransform="translate(-6.4547276)"
       gradientUnits="userSpaceOnUse"
       y2="4.4981894"
       x2="23.317513"
       y1="0.74183154"
       x1="20.092352"
       id="linearGradient939"
       xlink:href="#linearGradient896"
       inkscape:collect="always" />
    <linearGradient
       gradientTransform="matrix(0.62446825,0.62446825,-0.62446825,0.62446825,653.08037,-650.15316)"
       y2="1040.9148"
       x2="28.056181"
       y1="1046.2888"
       x1="2.8252947"
       gradientUnits="userSpaceOnUse"
       id="linearGradient941"
       xlink:href="#linearGradient896"
       inkscape:collect="always" />
    <linearGradient
       gradientTransform="matrix(0.63370779,0.63370779,-0.63370779,0.63370779,664.23145,-663.15776)"
       y2="1047.6481"
       x2="26.479944"
       y1="1046.4047"
       x1="5.3817472"
       gradientUnits="userSpaceOnUse"
       id="linearGradient957"
       xlink:href="#linearGradient896"
       inkscape:collect="always" />
    <clipPath
       id="clipPath1207"
       clipPathUnits="userSpaceOnUse">
      <path
         sodipodi:nodetypes="aaaaaaaaaaaaa"
         inkscape:connector-curvature="0"
         id="path1209"
         d="m 3.2087793,17.926116 c 0.6763335,0.841477 1.9469084,0.984559 3.0008599,1.218239 2.3467132,0.520114 4.8993168,1.055626 7.2017128,0.365147 2.107416,-0.631977 4.229857,-1.995435 5.320275,-3.906384 0.847989,-1.486084 0.894199,-3.440109 0.510606,-5.107467 C 18.651735,7.9288718 17.118348,5.4588651 15.099722,3.7669781 13.766691,2.6499148 11.981129,1.9806927 10.246771,1.8505027 8.4683438,1.7169273 6.565493,2.1387702 5.0327041,3.0505723 3.9526534,3.6930661 2.696094,4.629136 2.536119,5.8756121 2.3807174,7.0869915 3.7450738,8.0076254 4.1907845,9.1447114 4.6220713,10.245067 5.3814256,11.391617 5.1657268,12.553598 4.928803,13.829715 3.1291849,14.402193 2.82276,15.663307 2.6421178,16.406864 2.729375,17.329728 3.2087793,17.926116 Z"
         style="fill:#8cd5ff;fill-opacity:1;stroke:none;stroke-width:0.264582px;stroke-linecap:butt;stroke-linejoin:miter;stroke-opacity:1" />
    </clipPath>
    <clipPath
       id="clipPath1419"
       clipPathUnits="userSpaceOnUse">
      <path
         style="fill:#ffe16b;fill-opacity:1;stroke:none;stroke-width:0.9375;stroke-linecap:round;stroke-linejoin:round;stroke-miterlimit:4;stroke-dasharray:none;stroke-opacity:1"
         d="M 1.4177004,4.9852691 20.582329,4.985217 20.58229,17.385743 1.4177191,17.385728 Z"
         id="path1421"
         inkscape:connector-curvature="0" />
    </clipPath>
  </defs>
  <sodipodi:namedview
     id="base"
     pagecolor="#ffffff"
     bordercolor="#666666"
     borderopacity="1.0"
     inkscape:pageopacity="0.0"
     inkscape:pageshadow="2"
     inkscape:zoom="15.839192"
     inkscape:cx="8.4383821"
     inkscape:cy="16.510292"
     inkscape:document-units="mm"
     inkscape:current-layer="layer2"
     showgrid="true"
     units="px"
     showguides="true"
     inkscape:guide-bbox="true"
     inkscape:snap-nodes="true"
     inkscape:object-nodes="false"
     inkscape:object-paths="true"
     inkscape:document-rotation="0"
     inkscape:snap-grids="false">
    <inkscape:grid
       type="xygrid"
       id="grid3887" />
    <sodipodi:guide
       position="4.2333332,5.2916668"
       orientation="0,1"
       id="guide3889"
       inkscape:locked="false" />
    <sodipodi:guide
       position="5.2916665,0.26458334"
       orientation="0,1"
       id="guide3891"
       inkscape:locked="false" />
    <sodipodi:guide
       position="5.5562499,0.52916668"
       orientation="0,1"
       id="guide3893"
       inkscape:locked="false" />
  </sodipodi:namedview>
  <metadata
     id="metadata3339">
    <rdf:RDF>
      <cc:Work
         rdf:about="">
        <dc:format>image/svg+xml</dc:format>
        <dc:type
           rdf:resource="http://purl.org/dc/dcmitype/StillImage" />
        <dc:title></dc:title>
      </cc:Work>
    </rdf:RDF>
  </metadata>
  <g
     inkscape:label="Layer 1"
     inkscape:groupmode="layer"
     id="layer1"
     transform="translate(0,-291.17915)"
     style="display:none">
    <rect
       style="fill:#d4d4d4;stroke:none;stroke-width:0.264583;stroke-linecap:round;stroke-linejoin:round"
       id="rect3994"
       width="5.8208332"
       height="5.8208332"
       x="0"
       y="291.17914" />
  </g>
  <g
     inkscape:groupmode="layer"
     id="layer2"
     inkscape:label="Layer 2">
    <rect
       style="fill:url(#linearGradient890);fill-opacity:1;stroke:none;stroke-width:0.264584;stroke-linecap:butt;stroke-linejoin:round;stroke-miterlimit:4;stroke-dasharray:2.11667, 1.05833;stroke-dashoffset:0;stroke-opacity:1"
       id="rect2985-5"
       width="5.0712056"
       height="4.760879"
       x="-6.2436295"
       y="0.39889985"
       clip-path="none" />
    <path
       clip-path="url(#clipPath945)"
       transform="matrix(0.26458333,0,0,0.26458333,-6.6184436,0)"
       d="M 11.119141,-9.28125 C 11.070449,-9.4640998 -9.2441406,11.082031 -9.2441406,11.082031 Z m 2.875,2.875 C 13.945449,-6.5890998 -6.3691406,13.957031 -6.3691406,13.957031 Z m 2.875,2.875 C 16.820449,-3.714098 -3.4941406,16.832031 -3.4941406,16.832031 Z m 2.875,2.875 C 19.695449,-0.83909814 -0.61914062,19.705078 -0.61914062,19.705078 Z m 2.875,2.8730469 C 22.570449,2.0339489 2.2558594,22.580078 2.2558594,22.580078 Z m 2.875,2.875 C 25.445449,4.9089486 5.1308594,25.455078 5.1308594,25.455078 Z m 2.875,2.875 C 28.320449,7.783949 8.0058594,28.330078 8.0058594,28.330078 Z m 2.875,2.8750001 C 31.195449,10.658949 10.880859,31.205078 10.880859,31.205078 Z"
       style="fill:none;stroke:url(#linearGradient898);stroke-width:2;stroke-linecap:round;stroke-linejoin:miter;stroke-miterlimit:4;stroke-dasharray:none;stroke-opacity:1"
       id="path985" />
    <rect
       clip-path="none"
       y="0.39889985"
       x="-6.2436295"
       height="4.760879"
       width="5.0712056"
       id="rect2377"
       style="fill:none;fill-opacity:1;stroke:url(#linearGradient906);stroke-width:0.264583;stroke-linecap:butt;stroke-linejoin:round;stroke-miterlimit:4;stroke-dasharray:none;stroke-dashoffset:0;stroke-opacity:1" />
    <path
       style="fill:url(#linearGradient907);fill-opacity:1;stroke:none;stroke-width:0.330729;stroke-linecap:round;stroke-linejoin:round;stroke-miterlimit:4;stroke-dasharray:none;stroke-opacity:1"
       d="m 0.37509665,1.3190265 5.07063995,-1.32e-5 -7e-6,3.2809693 -5.07062695,-3.4e-6 z"
       id="path865"
       inkscape:connector-curvature="0" />
    <path
       clip-path="url(#clipPath1419)"
       transform="scale(0.26458333)"
       d="M 10.578125 -7.5390625 C 10.532793 -7.7092849 -8.3789062 11.417969 -8.3789062 11.417969 L 10.578125 -7.5390625 z M 13.253906 -4.8632812 C 13.208575 -5.0335036 -5.703125 14.09375 -5.703125 14.09375 L 13.253906 -4.8632812 z M 15.929688 -2.1855469 C 15.884357 -2.3557707 -3.0273437 16.771484 -3.0273438 16.771484 L 15.929688 -2.1855469 z M 18.605469 0.49023438 C 18.560139 0.32001058 -0.3515625 19.447266 -0.3515625 19.447266 L 18.605469 0.49023438 z M 21.283203 3.1660156 C 21.237873 2.9957918 2.3261719 22.123047 2.3261719 22.123047 L 21.283203 3.1660156 z M 23.958984 5.8417969 C 23.913654 5.671573 5.0019531 24.800781 5.0019531 24.800781 L 23.958984 5.8417969 z M 26.634766 8.5195312 C 26.589435 8.3493074 7.6777344 27.476563 7.6777344 27.476562 L 26.634766 8.5195312 z M 29.310547 11.195312 C 29.265217 11.025089 10.353516 30.152344 10.353516 30.152344 L 29.310547 11.195312 z "
       style="fill:none;stroke:url(#linearGradient941);stroke-width:2;stroke-linecap:round;stroke-linejoin:miter;stroke-miterlimit:4;stroke-dasharray:none;stroke-opacity:1"
       id="path985-0" />
    <path
       sodipodi:type="star"
       style="fill:#2775d8;fill-opacity:1;fill-rule:evenodd;stroke:none;stroke-width:66.1068;stroke-linecap:round;stroke-linejoin:round;stroke-miterlimit:4;stroke-dasharray:none;stroke-dashoffset:0;stroke-opacity:1;paint-order:markers fill stroke"
       id="path15962"
       sodipodi:sides="3"
       sodipodi:cx="-37.120785"
       sodipodi:cy="-55.207649"
       sodipodi:r1="27.050175"
       sodipodi:r2="13.525088"
       sodipodi:arg1="0.52359878"
       sodipodi:arg2="1.5707963"
       inkscape:flatsided="true"
       inkscape:rounded="0.06"
       inkscape:randomized="0"
       inkscape:transform-center-y="-1.0391722"
       transform="matrix(-0.02196269,-1.5331231e-4,-1.0340084e-4,0.02184192,2.0816125,2.2402078)"
       inkscape:transform-center-x="-0.13622114"
       d="m -13.694646,-41.682562 c -1.405569,2.434516 -45.446709,2.434516 -46.852277,0 -1.405569,-2.434516 20.615002,-40.575262 23.426138,-40.575262 2.811137,0 24.831707,38.140747 23.426139,40.575262 z" />
    <path
       inkscape:transform-center-x="-0.13622114"
       transform="matrix(-0.02196269,1.5331231e-4,-1.0340084e-4,-0.02184192,2.0816125,3.6837152)"
       inkscape:transform-center-y="1.0391722"
       inkscape:randomized="0"
       inkscape:rounded="0.06"
       inkscape:flatsided="true"
       sodipodi:arg2="1.5707963"
       sodipodi:arg1="0.52359878"
       sodipodi:r2="13.525088"
       sodipodi:r1="27.050175"
       sodipodi:cy="-55.207649"
       sodipodi:cx="-37.120785"
       sodipodi:sides="3"
       id="path2429"
       style="fill:#1c66ce;fill-opacity:1;fill-rule:evenodd;stroke:none;stroke-width:66.1068;stroke-linecap:round;stroke-linejoin:round;stroke-miterlimit:4;stroke-dasharray:none;stroke-dashoffset:0;stroke-opacity:1;paint-order:markers fill stroke"
       sodipodi:type="star"
       d="m -13.694646,-41.682562 c -1.405569,2.434516 -45.446709,2.434516 -46.852277,0 -1.405569,-2.434516 20.615002,-40.575262 23.426138,-40.575262 2.811137,0 24.831707,38.140747 23.426139,40.575262 z" />
    <path
       sodipodi:nodetypes="cccc"
       inkscape:connector-curvature="0"
       id="path5179"
       d="m 5.4457296,4.5999826 -5.07062695,-3.4e-6 m -6e-6,-3.2809527 5.07063995,-1.32e-5"
       style="fill:#ffe16b;fill-opacity:1;stroke:url(#linearGradient899);stroke-width:0.330729;stroke-linecap:round;stroke-linejoin:round;stroke-miterlimit:4;stroke-dasharray:none;stroke-opacity:1" />
    <path
       sodipodi:nodetypes="ccsscsscssscccsscccsssscc"
       id="path833"
       d="m 11.223015,1.4200052 c -0.237453,0 -0.430169,0.1925583 -0.430169,0.4302246 V 1.5634406 c 0,-0.2376251 -0.192713,-0.430716 -0.430168,-0.430716 -0.237453,0 -0.4301683,0.192968 -0.4301683,0.430716 V 1.2766517 c 0,-0.2376251 -0.192714,-0.43071594 -0.430168,-0.43071594 -0.237454,0 -0.430168,0.19255824 -0.430168,0.43071594 V 0.92185286 c 0,-0.2376252 -0.192714,-0.4306751 -0.430169,-0.4306751 -0.237453,0 -0.430168,0.1925583 -0.430168,0.4306751 V 3.1038906 L 7.1459207,2.6501083 h -8.73e-4 c -0.06307,-0.042609 -0.140519,-0.063094 -0.223696,-0.063094 -0.238032,0 -0.430168,0.1921489 -0.430168,0.4302246 0,0.083579 0.02295,0.1634696 0.06595,0.229431 l -5.29e-4,-0.00108 1.31802,1.4699069 c 0.209938,0.3351332 0.576988,0.5378929 0.971869,0.5378929 h 1.3728423 c 0.791757,0 1.433858,-0.6423252 1.433858,-1.4344364 v -1.968068 c 0,-0.238035 -0.192714,-0.4302655 -0.430171,-0.4302655 z"
       inkscape:connector-curvature="0"
       style="fill:#ffc27d;fill-opacity:1;stroke-width:0.352299" />
    <path
       inkscape:connector-curvature="0"
       id="path875"
       d="M 10.793342,1.5536185 V 2.4840032"
       style="fill:none;stroke:#f37329;stroke-width:0.264583px;stroke-linecap:round;stroke-linejoin:miter;stroke-opacity:1" />
    <path
       inkscape:connector-curvature="0"
       id="path877"
       d="M 9.9330057,1.3071849 V 2.3723194"
       style="fill:none;stroke:#f37329;stroke-width:0.264583px;stroke-linecap:round;stroke-linejoin:miter;stroke-opacity:1" />
    <path
       inkscape:connector-curvature="0"
       id="path879"
       d="M 9.0726687,1.0716083 V 2.2238035"
       style="fill:none;stroke:#f37329;stroke-width:0.264583px;stroke-linecap:round;stroke-linejoin:miter;stroke-opacity:1" />
    <path
       sodipodi:nodetypes="aaaaaaaaaaaaa"
       inkscape:connector-curvature="0"
       id="path1430"
       d="m 13.036775,4.7429584 c 0.178956,0.2226315 0.515118,0.2604992 0.793987,0.3223162 0.620891,0.1376238 1.296276,0.2793027 1.905439,0.096626 0.557593,-0.1672164 1.11916,-0.5279695 1.40767,-1.0335782 C 17.368233,3.7351314 17.380447,3.2181409 17.27896,2.7769806 17.12273,2.0978477 16.717023,1.4443238 16.182916,0.99669055 15.830231,0.70112156 15.357793,0.52406476 14.898918,0.48961136 c -0.470553,-0.035331 -0.974015,0.076281 -1.379563,0.3175262 -0.285761,0.16999069 -0.618228,0.41766144 -0.660543,0.74744654 -0.04112,0.3205141 0.319858,0.5641065 0.437783,0.8649631 0.114112,0.2911348 0.315036,0.5944814 0.257958,0.9019301 -0.06268,0.3376335 -0.538833,0.4891053 -0.619912,0.8227793 -0.0478,0.1967378 -0.0247,0.440899 0.102134,0.5987018 z"
       style="fill:#8cd5ff;fill-opacity:1;stroke:url(#linearGradient923);stroke-width:0.264583px;stroke-linecap:butt;stroke-linejoin:miter;stroke-opacity:1" />
    <path
       clip-path="url(#clipPath1207)"
       transform="matrix(0.26458333,0,0,0.26458333,12.187799,0)"
       d="M 12.222656,-11.035156 C 12.176655,-11.207899 -7.015625,8.203125 -7.015625,8.203125 Z M 14.9375,-8.3203125 C 14.891499,-8.4930558 -4.2988281,10.917969 -4.2988281,10.917969 Z m 2.716797,2.7167969 C 17.608296,-5.7762589 -1.5839844,13.634766 -1.5839844,13.634766 Z m 2.714844,2.7167968 C 20.32314,-3.0594612 1.1328125,16.349609 1.1328125,16.349609 Z m 2.716797,2.7148438 C 23.039936,-0.3446174 3.8476562,19.066406 3.8476562,19.066406 Z m 2.714843,2.7167969 C 25.75478,2.3721795 6.5644531,21.78125 6.5644531,21.78125 Z m 2.716797,2.7148437 C 28.471577,5.0870231 9.2792969,24.498047 9.2792969,24.498047 Z m 2.714844,2.7167969 C 31.186421,7.8038199 11.996094,27.212891 11.996094,27.212891 Z"
       style="fill:none;stroke:url(#linearGradient957);stroke-width:2;stroke-linecap:round;stroke-linejoin:miter;stroke-miterlimit:4;stroke-dasharray:none;stroke-opacity:1"
       id="path985-8" />
    <path
       style="fill:none;fill-opacity:1;stroke:url(#linearGradient939);stroke-width:0.264583px;stroke-linecap:butt;stroke-linejoin:miter;stroke-opacity:1"
       d="m 13.036775,4.7429584 c 0.178956,0.2226315 0.515118,0.2604992 0.793987,0.3223162 0.620891,0.1376238 1.296276,0.2793027 1.905439,0.096626 0.557593,-0.1672164 1.11916,-0.5279695 1.40767,-1.0335782 C 17.368233,3.7351314 17.380447,3.2181409 17.27896,2.7769806 17.12273,2.0978477 16.717023,1.4443238 16.182916,0.99669055 15.830231,0.70112156 15.357793,0.52406476 14.898918,0.48961136 c -0.470553,-0.035331 -0.974015,0.076281 -1.379563,0.3175262 -0.285761,0.16999069 -0.618228,0.41766144 -0.660543,0.74744654 -0.04112,0.3205141 0.319858,0.5641065 0.437783,0.8649631 0.114112,0.2911348 0.315036,0.5944814 0.257958,0.9019301 -0.06268,0.3376335 -0.538833,0.4891053 -0.619912,0.8227793 -0.0478,0.1967378 -0.0247,0.440899 0.102134,0.5987018 z"
       id="path49744"
       inkscape:connector-curvature="0"
       sodipodi:nodetypes="aaaaaaaaaaaaa" />
    <path
       style="fill:#000000;fill-opacity:0;stroke:#f37329;stroke-width:0.264583;stroke-linecap:round;stroke-linejoin:round;stroke-miterlimit:4;stroke-dasharray:none;stroke-opacity:1"
       inkscape:connector-curvature="0"
       d="m 11.223015,1.4200052 c -0.237453,0 -0.430169,0.1925583 -0.430169,0.4302246 V 1.5634406 c 0,-0.2376251 -0.192713,-0.430716 -0.430168,-0.430716 -0.237453,0 -0.4301683,0.192968 -0.4301683,0.430716 V 1.2766517 c 0,-0.2376251 -0.192714,-0.43071594 -0.430168,-0.43071594 -0.237454,0 -0.430168,0.19255824 -0.430168,0.43071594 V 0.92185286 c 0,-0.2376252 -0.192714,-0.4306751 -0.430169,-0.4306751 -0.237453,0 -0.430168,0.1925583 -0.430168,0.4306751 V 3.1038906 L 7.1459207,2.6501083 h -8.73e-4 c -0.06307,-0.042609 -0.140519,-0.063094 -0.223696,-0.063094 -0.238032,0 -0.430168,0.1921489 -0.430168,0.4302246 0,0.083579 0.02295,0.1634696 0.06595,0.229431 l -5.29e-4,-0.00108 1.31802,1.4699069 c 0.209938,0.3351332 0.576988,0.5378929 0.971869,0.5378929 h 1.3728423 c 0.791757,0 1.433858,-0.6423252 1.433858,-1.4344364 v -1.968068 c 0,-0.238035 -0.192714,-0.4302655 -0.430171,-0.4302655 z"
       id="path46419"
       sodipodi:nodetypes="ccsscsscssscccsscccsssscc" />
    <path
       inkscape:connector-curvature="0"
       d="m 6.5136717,2.8866373 c -0.01323,0.041436 -0.02274,0.084845 -0.02274,0.1307412 0,0.083579 0.02314,0.1634823 0.06615,0.2294434 l 1.317749,1.4686442 c 0.209937,0.3351334 0.576636,0.5379516 0.971516,0.5379516 H 10.21939 c 0.791758,0 1.434021,-0.6424263 1.434021,-1.4345377 V 3.5542966 c 0,0.7921107 -0.642263,1.4345378 -1.434021,1.4345378 H 8.8463467 c -0.39488,0 -0.761579,-0.2028182 -0.971516,-0.5379516 L 6.5570817,2.9822386 c -0.01903,-0.029189 -0.03248,-0.061845 -0.04341,-0.095601 z"
       style="fill:#cc3b02;fill-opacity:1;stroke-width:0.352298"
       id="path46414" />
    <g
       transform="translate(-11.963936,-10.166914)"
       id="g924">
      <path
         inkscape:connector-curvature="0"
         d="M 8.2664333,2.8686035 C 8.2535502,2.820225 2.8787181,8.2563188 2.8787181,8.2563188"
         style="fill:none;stroke:#3689e6;stroke-width:0.529167;stroke-linecap:round;stroke-linejoin:miter;stroke-miterlimit:4;stroke-dasharray:none;stroke-opacity:1"
         id="path908" />
      <path
         inkscape:connector-curvature="0"
         d="M 7.5058162,2.1079864 C 7.4929331,2.0596079 2.118101,7.4957017 2.118101,7.4957017"
         style="fill:none;stroke:#3689e6;stroke-width:0.529167;stroke-linecap:round;stroke-linejoin:miter;stroke-miterlimit:4;stroke-dasharray:none;stroke-opacity:1"
         id="path910" />
      <path
         inkscape:connector-curvature="0"
         d="M 6.7451988,1.3473692 C 6.7323157,1.2989906 1.3574837,6.7350842 1.3574837,6.7350842"
         style="fill:none;stroke:#3689e6;stroke-width:0.529167;stroke-linecap:round;stroke-linejoin:miter;stroke-miterlimit:4;stroke-dasharray:none;stroke-opacity:1"
         id="path912" />
      <path
         inkscape:connector-curvature="0"
         d="M 5.9845817,0.58675208 C 5.9716986,0.53837355 0.59686659,5.9744671 0.59686659,5.9744671"
         style="fill:none;stroke:#3689e6;stroke-width:0.529167;stroke-linecap:round;stroke-linejoin:miter;stroke-miterlimit:4;stroke-dasharray:none;stroke-opacity:1"
         id="path914" />
      <path
         inkscape:connector-curvature="0"
         d="M 5.2239646,-0.17386501 C 5.2110815,-0.22224358 -0.16375052,5.2138501 -0.16375052,5.2138501"
         style="fill:none;stroke:#3689e6;stroke-width:0.529167;stroke-linecap:round;stroke-linejoin:miter;stroke-miterlimit:4;stroke-dasharray:none;stroke-opacity:1"
         id="path916" />
      <path
         inkscape:connector-curvature="0"
         d="M 4.4633475,-0.93448221 C 4.4504644,-0.98286074 -0.9243677,4.453233 -0.9243677,4.453233"
         style="fill:none;stroke:#3689e6;stroke-width:0.529167;stroke-linecap:round;stroke-linejoin:miter;stroke-miterlimit:4;stroke-dasharray:none;stroke-opacity:1"
         id="path918" />
      <path
         inkscape:connector-curvature="0"
         d="m 3.7027301,-1.6950994 c -0.012883,-0.048379 -5.387715,5.3877149 -5.387715,5.3877149"
         style="fill:none;stroke:#3689e6;stroke-width:0.529167;stroke-linecap:round;stroke-linejoin:miter;stroke-miterlimit:4;stroke-dasharray:none;stroke-opacity:1"
         id="path920" />
      <path
         inkscape:connector-curvature="0"
         d="M 2.942113,-2.4557165 C 2.92923,-2.5040955 -2.445602,2.9319984 -2.445602,2.9319984"
         style="fill:none;stroke:#3689e6;stroke-width:0.529167;stroke-linecap:round;stroke-linejoin:miter;stroke-miterlimit:4;stroke-dasharray:none;stroke-opacity:1"
         id="path922" />
    </g>
  </g>
</svg>
