<?xml version="1.0" encoding="UTF-8" standalone="no"?>
<svg
   xmlns:dc="http://purl.org/dc/elements/1.1/"
   xmlns:cc="http://creativecommons.org/ns#"
   xmlns:rdf="http://www.w3.org/1999/02/22-rdf-syntax-ns#"
   xmlns:svg="http://www.w3.org/2000/svg"
   xmlns="http://www.w3.org/2000/svg"
   xmlns:xlink="http://www.w3.org/1999/xlink"
   xmlns:sodipodi="http://sodipodi.sourceforge.net/DTD/sodipodi-0.dtd"
   xmlns:inkscape="http://www.inkscape.org/namespaces/inkscape"
   sodipodi:docname="stretch.svg"
   inkscape:version="1.0 (4035a4fb49, 2020-05-01)"
   id="svg3342"
   version="1.1"
   viewBox="0 0 5.8208332 5.8208335"
   height="22"
   width="22">
  <defs
     id="defs3336">
    <linearGradient
       id="linearGradient896"
       inkscape:collect="always">
      <stop
         id="stop892"
         offset="0"
         style="stop-color:#3689e6;stop-opacity:1;" />
      <stop
         id="stop894"
         offset="1"
         style="stop-color:#0d52bf;stop-opacity:0.97428107" />
    </linearGradient>
    <linearGradient
       id="linearGradient888"
       inkscape:collect="always">
      <stop
         id="stop884"
         offset="0"
         style="stop-color:#8cd5ff;stop-opacity:1;" />
      <stop
         id="stop886"
         offset="1"
         style="stop-color:#64baff;stop-opacity:1" />
    </linearGradient>
    <clipPath
       clipPathUnits="userSpaceOnUse"
       id="clipPath945">
      <rect
         style="fill:#ffffff;fill-opacity:1;stroke:none;stroke-width:0.999999;stroke-linecap:butt;stroke-linejoin:round;stroke-miterlimit:4;stroke-dasharray:8.00001, 3.99999;stroke-dashoffset:0;stroke-opacity:1"
         id="rect947"
         width="19.166759"
         height="17.993876"
         x="1.4166161"
         y="1.5076531"
         clip-path="none" />
    </clipPath>
    <linearGradient
       inkscape:collect="always"
       xlink:href="#linearGradient896"
       id="linearGradient899"
       x1="6.840045"
       y1="1.1793295"
       x2="12.161901"
       y2="4.7844415"
       gradientUnits="userSpaceOnUse"
       gradientTransform="translate(-6.5653483)" />
    <linearGradient
       inkscape:collect="always"
       xlink:href="#linearGradient888"
       id="linearGradient907"
       x1="6.9567204"
       y1="1.3190265"
       x2="12.011078"
       y2="4.5999827"
       gradientUnits="userSpaceOnUse"
       gradientTransform="translate(-6.5653483)" />
    <linearGradient
       inkscape:collect="always"
       xlink:href="#linearGradient896"
       id="linearGradient941"
       gradientUnits="userSpaceOnUse"
       x1="2.8252947"
       y1="1046.2888"
       x2="28.056181"
       y2="1040.9148"
       gradientTransform="matrix(0.62446825,0.62446825,-0.62446825,0.62446825,653.08037,-650.15316)" />
    <clipPath
       clipPathUnits="userSpaceOnUse"
       id="clipPath1207">
      <path
         style="fill:#8cd5ff;fill-opacity:1;stroke:none;stroke-width:0.264582px;stroke-linecap:butt;stroke-linejoin:miter;stroke-opacity:1"
         d="m 3.2087793,17.926116 c 0.6763335,0.841477 1.9469084,0.984559 3.0008599,1.218239 2.3467132,0.520114 4.8993168,1.055626 7.2017128,0.365147 2.107416,-0.631977 4.229857,-1.995435 5.320275,-3.906384 0.847989,-1.486084 0.894199,-3.440109 0.510606,-5.107467 C 18.651735,7.9288718 17.118348,5.4588651 15.099722,3.7669781 13.766691,2.6499148 11.981129,1.9806927 10.246771,1.8505027 8.4683438,1.7169273 6.565493,2.1387702 5.0327041,3.0505723 3.9526534,3.6930661 2.696094,4.629136 2.536119,5.8756121 2.3807174,7.0869915 3.7450738,8.0076254 4.1907845,9.1447114 4.6220713,10.245067 5.3814256,11.391617 5.1657268,12.553598 4.928803,13.829715 3.1291849,14.402193 2.82276,15.663307 2.6421178,16.406864 2.729375,17.329728 3.2087793,17.926116 Z"
         id="path1209"
         inkscape:connector-curvature="0"
         sodipodi:nodetypes="aaaaaaaaaaaaa" />
    </clipPath>
    <clipPath
       clipPathUnits="userSpaceOnUse"
       id="clipPath1419">
      <path
         inkscape:connector-curvature="0"
         id="path1421"
         d="M 1.4177004,4.9852691 20.582329,4.985217 20.58229,17.385743 1.4177191,17.385728 Z"
         style="fill:#ffe16b;fill-opacity:1;stroke:none;stroke-width:0.9375;stroke-linecap:round;stroke-linejoin:round;stroke-miterlimit:4;stroke-dasharray:none;stroke-opacity:1" />
    </clipPath>
  </defs>
  <sodipodi:namedview
     inkscape:snap-grids="false"
     inkscape:document-rotation="0"
     inkscape:object-paths="true"
     inkscape:object-nodes="false"
     inkscape:snap-nodes="true"
     inkscape:guide-bbox="true"
     showguides="true"
     units="px"
     showgrid="true"
     inkscape:current-layer="layer2"
     inkscape:document-units="mm"
     inkscape:cy="22.571207"
     inkscape:cx="2.630005"
     inkscape:zoom="7.919596"
     inkscape:pageshadow="2"
     inkscape:pageopacity="0.0"
     borderopacity="1.0"
     bordercolor="#666666"
     pagecolor="#ffffff"
     id="base">
    <inkscape:grid
       id="grid3887"
       type="xygrid" />
    <sodipodi:guide
       inkscape:locked="false"
       id="guide3889"
       orientation="0,1"
       position="4.2333332,5.2916668" />
    <sodipodi:guide
       inkscape:locked="false"
       id="guide3893"
       orientation="0,1"
       position="5.5562499,0.52916668" />
  </sodipodi:namedview>
  <metadata
     id="metadata3339">
    <rdf:RDF>
      <cc:Work
         rdf:about="">
        <dc:format>image/svg+xml</dc:format>
        <dc:type
           rdf:resource="http://purl.org/dc/dcmitype/StillImage" />
        <dc:title />
      </cc:Work>
    </rdf:RDF>
  </metadata>
  <g
     style="display:none"
     transform="translate(0,-291.17915)"
     id="layer1"
     inkscape:groupmode="layer"
     inkscape:label="Layer 1">
    <rect
       y="291.17914"
       x="0"
       height="5.8208332"
       width="5.8208332"
       id="rect3994"
       style="fill:#d4d4d4;stroke:none;stroke-width:0.264583;stroke-linecap:round;stroke-linejoin:round" />
  </g>
  <g
     inkscape:label="Layer 2"
     id="layer2"
     inkscape:groupmode="layer">
    <path
       inkscape:connector-curvature="0"
       id="path865"
       d="m 0.37509665,1.3190265 5.07063995,-1.32e-5 -7e-6,3.2809693 -5.07062695,-3.4e-6 z"
       style="fill:url(#linearGradient907);fill-opacity:1;stroke:none;stroke-width:0.330729;stroke-linecap:round;stroke-linejoin:round;stroke-miterlimit:4;stroke-dasharray:none;stroke-opacity:1" />
    <path
       id="path985-0"
       style="fill:none;stroke:url(#linearGradient941);stroke-width:2;stroke-linecap:round;stroke-linejoin:miter;stroke-miterlimit:4;stroke-dasharray:none;stroke-opacity:1"
       d="M 10.578125 -7.5390625 C 10.532793 -7.7092849 -8.3789062 11.417969 -8.3789062 11.417969 L 10.578125 -7.5390625 z M 13.253906 -4.8632812 C 13.208575 -5.0335036 -5.703125 14.09375 -5.703125 14.09375 L 13.253906 -4.8632812 z M 15.929688 -2.1855469 C 15.884357 -2.3557707 -3.0273437 16.771484 -3.0273438 16.771484 L 15.929688 -2.1855469 z M 18.605469 0.49023438 C 18.560139 0.32001058 -0.3515625 19.447266 -0.3515625 19.447266 L 18.605469 0.49023438 z M 21.283203 3.1660156 C 21.237873 2.9957918 2.3261719 22.123047 2.3261719 22.123047 L 21.283203 3.1660156 z M 23.958984 5.8417969 C 23.913654 5.671573 5.0019531 24.800781 5.0019531 24.800781 L 23.958984 5.8417969 z M 26.634766 8.5195312 C 26.589435 8.3493074 7.6777344 27.476563 7.6777344 27.476562 L 26.634766 8.5195312 z M 29.310547 11.195312 C 29.265217 11.025089 10.353516 30.152344 10.353516 30.152344 L 29.310547 11.195312 z "
       transform="scale(0.26458333)"
       clip-path="url(#clipPath1419)" />
    <path
       d="m -13.694646,-41.682562 c -1.405569,2.434516 -45.446709,2.434516 -46.852277,0 -1.405569,-2.434516 20.615002,-40.575262 23.426138,-40.575262 2.811137,0 24.831707,38.140747 23.426139,40.575262 z"
       inkscape:transform-center-x="-0.13622114"
       transform="matrix(-0.02196269,-1.5331231e-4,-1.0340084e-4,0.02184192,2.0816125,2.2402078)"
       inkscape:transform-center-y="-1.0391722"
       inkscape:randomized="0"
       inkscape:rounded="0.06"
       inkscape:flatsided="true"
       sodipodi:arg2="1.5707963"
       sodipodi:arg1="0.52359878"
       sodipodi:r2="13.525088"
       sodipodi:r1="27.050175"
       sodipodi:cy="-55.207649"
       sodipodi:cx="-37.120785"
       sodipodi:sides="3"
       id="path15962"
       style="fill:#2775d8;fill-opacity:1;fill-rule:evenodd;stroke:none;stroke-width:66.1068;stroke-linecap:round;stroke-linejoin:round;stroke-miterlimit:4;stroke-dasharray:none;stroke-dashoffset:0;stroke-opacity:1;paint-order:markers fill stroke"
       sodipodi:type="star" />
    <path
       d="m -13.694646,-41.682562 c -1.405569,2.434516 -45.446709,2.434516 -46.852277,0 -1.405569,-2.434516 20.615002,-40.575262 23.426138,-40.575262 2.811137,0 24.831707,38.140747 23.426139,40.575262 z"
       sodipodi:type="star"
       style="fill:#1c66ce;fill-opacity:1;fill-rule:evenodd;stroke:none;stroke-width:66.1068;stroke-linecap:round;stroke-linejoin:round;stroke-miterlimit:4;stroke-dasharray:none;stroke-dashoffset:0;stroke-opacity:1;paint-order:markers fill stroke"
       id="path2429"
       sodipodi:sides="3"
       sodipodi:cx="-37.120785"
       sodipodi:cy="-55.207649"
       sodipodi:r1="27.050175"
       sodipodi:r2="13.525088"
       sodipodi:arg1="0.52359878"
       sodipodi:arg2="1.5707963"
       inkscape:flatsided="true"
       inkscape:rounded="0.06"
       inkscape:randomized="0"
       inkscape:transform-center-y="1.0391722"
       transform="matrix(-0.02196269,1.5331231e-4,-1.0340084e-4,-0.02184192,2.0816125,3.6837152)"
       inkscape:transform-center-x="-0.13622114" />
    <path
       style="fill:#ffe16b;fill-opacity:1;stroke:url(#linearGradient899);stroke-width:0.330729;stroke-linecap:round;stroke-linejoin:round;stroke-miterlimit:4;stroke-dasharray:none;stroke-opacity:1"
       d="m 5.4457296,4.5999826 -5.07062695,-3.4e-6 m -6e-6,-3.2809527 5.07063995,-1.32e-5"
       id="path5179"
       inkscape:connector-curvature="0"
       sodipodi:nodetypes="cccc" />
  </g>
</svg>
