<?xml version="1.0" encoding="UTF-8" standalone="no"?>
<svg
   xmlns:dc="http://purl.org/dc/elements/1.1/"
   xmlns:cc="http://creativecommons.org/ns#"
   xmlns:rdf="http://www.w3.org/1999/02/22-rdf-syntax-ns#"
   xmlns:svg="http://www.w3.org/2000/svg"
   xmlns="http://www.w3.org/2000/svg"
   xmlns:sodipodi="http://sodipodi.sourceforge.net/DTD/sodipodi-0.dtd"
   xmlns:inkscape="http://www.inkscape.org/namespaces/inkscape"
   sodipodi:docname="stretch.svg"
   inkscape:version="1.0 (4035a4fb49, 2020-05-01)"
   id="svg3342"
   version="1.1"
   viewBox="0 0 5.8208332 5.8208335"
   height="22"
   width="22">
  <defs
     id="defs3336">
    <clipPath
       id="clipPath4037"
       clipPathUnits="userSpaceOnUse">
      <path
         sodipodi:nodetypes="aaaaaaaaaaaaa"
         inkscape:connector-curvature="0"
         id="path4039"
         d="m 15.828436,1058.9317 c 1.197564,0.1303 2.312949,-0.7593 3.3289,-1.4065 2.261947,-1.4412 4.698493,-3.0327 5.970307,-5.3941 1.164132,-2.1614 1.762974,-4.9118 1.11557,-7.2799 -0.503462,-1.8416 -2.008742,-3.4198 -3.626957,-4.4327 -2.491114,-1.5593 -5.64982,-2.2983 -8.577442,-2.0405 -1.933142,0.1704 -3.869984,1.0512 -5.3411258,2.3169 -1.5085838,1.2978 -2.6771096,3.132 -3.1670728,5.0608 -0.3452357,1.3591 -0.5981042,3.0891 0.2591531,4.1988 0.833174,1.0784 2.6360479,0.7283 3.8848857,1.2738 1.2084768,0.5279 2.7122488,0.8334 3.4588728,1.9204 0.819931,1.1938 -0.148292,3.0654 0.604965,4.3022 0.444144,0.7292 1.241137,1.3885 2.089944,1.4808 z"
         style="fill:#8cd5ff;fill-opacity:1;stroke:none;stroke-width:0.26458332px;stroke-linecap:butt;stroke-linejoin:miter;stroke-opacity:1" />
    </clipPath>
    <clipPath
       clipPathUnits="userSpaceOnUse"
       id="clipPath945">
      <rect
         style="fill:#ffffff;fill-opacity:1;stroke:none;stroke-width:0.999999;stroke-linecap:butt;stroke-linejoin:round;stroke-miterlimit:4;stroke-dasharray:8.00001, 3.99999;stroke-dashoffset:0;stroke-opacity:1"
         id="rect947"
         width="19.166759"
         height="17.993876"
         x="1.4166161"
         y="1.5076531"
         clip-path="none" />
    </clipPath>
    <clipPath
       id="clipPath877"
       clipPathUnits="userSpaceOnUse">
      <path
         style="fill:#ffffff;fill-opacity:1;stroke:none;stroke-width:0.219058;stroke-linecap:round;stroke-linejoin:round;stroke-miterlimit:4;stroke-dasharray:none;stroke-opacity:1"
         d="m 0.3750999,1.3190191 5.0706413,-1.38e-5 -1.03e-5,3.2809725 -5.07062605,-3.9e-6 z"
         id="path880"
         inkscape:connector-curvature="0" />
    </clipPath>
  </defs>
  <sodipodi:namedview
     inkscape:document-rotation="0"
     inkscape:object-paths="true"
     inkscape:object-nodes="false"
     inkscape:snap-nodes="true"
     inkscape:guide-bbox="true"
     showguides="true"
     units="px"
     showgrid="true"
     inkscape:current-layer="layer2"
     inkscape:document-units="mm"
     inkscape:cy="25.246057"
     inkscape:cx="-4.407352"
     inkscape:zoom="15.839192"
     inkscape:pageshadow="2"
     inkscape:pageopacity="0.0"
     borderopacity="1.0"
     bordercolor="#666666"
     pagecolor="#ffffff"
     id="base">
    <inkscape:grid
       id="grid3887"
       type="xygrid" />
    <sodipodi:guide
       inkscape:locked="false"
       id="guide3889"
       orientation="0,1"
       position="4.2333332,5.2916668" />
    <sodipodi:guide
       inkscape:locked="false"
       id="guide3891"
       orientation="0,1"
       position="5.2916665,0.26458334" />
    <sodipodi:guide
       inkscape:locked="false"
       id="guide3893"
       orientation="0,1"
       position="5.5562499,0.52916668" />
  </sodipodi:namedview>
  <metadata
     id="metadata3339">
    <rdf:RDF>
      <cc:Work
         rdf:about="">
        <dc:format>image/svg+xml</dc:format>
        <dc:type
           rdf:resource="http://purl.org/dc/dcmitype/StillImage" />
        <dc:title />
      </cc:Work>
    </rdf:RDF>
  </metadata>
  <g
     style="display:none"
     transform="translate(0,-291.17915)"
     id="layer1"
     inkscape:groupmode="layer"
     inkscape:label="Layer 1">
    <rect
       y="291.17914"
       x="0"
       height="5.8208332"
       width="5.8208332"
       id="rect3994"
       style="fill:#d4d4d4;stroke:none;stroke-width:0.264583;stroke-linecap:round;stroke-linejoin:round" />
  </g>
  <g
     inkscape:label="Layer 2"
     id="layer2"
     inkscape:groupmode="layer">
    <rect
       clip-path="none"
       y="0.39889985"
       x="-6.1010361"
       height="4.760879"
       width="5.0712056"
       id="rect2985-5"
       style="fill:#8cd5ff;fill-opacity:1;stroke:none;stroke-width:0.264584;stroke-linecap:butt;stroke-linejoin:round;stroke-miterlimit:4;stroke-dasharray:2.11667, 1.05833;stroke-dashoffset:0;stroke-opacity:1" />
    <path
       id="path985"
       style="fill:none;stroke:#3689e6;stroke-width:2;stroke-linecap:round;stroke-linejoin:miter;stroke-miterlimit:4;stroke-dasharray:none;stroke-opacity:1"
       d="M 11.119141,-9.28125 C 11.070449,-9.4640998 -9.2441406,11.082031 -9.2441406,11.082031 Z m 2.875,2.875 C 13.945449,-6.5890998 -6.3691406,13.957031 -6.3691406,13.957031 Z m 2.875,2.875 C 16.820449,-3.714098 -3.4941406,16.832031 -3.4941406,16.832031 Z m 2.875,2.875 C 19.695449,-0.83909814 -0.61914062,19.705078 -0.61914062,19.705078 Z m 2.875,2.8730469 C 22.570449,2.0339489 2.2558594,22.580078 2.2558594,22.580078 Z m 2.875,2.875 C 25.445449,4.9089486 5.1308594,25.455078 5.1308594,25.455078 Z m 2.875,2.875 C 28.320449,7.783949 8.0058594,28.330078 8.0058594,28.330078 Z m 2.875,2.8750001 C 31.195449,10.658949 10.880859,31.205078 10.880859,31.205078 Z"
       transform="matrix(0.26458333,0,0,0.26458333,-6.47585,0)"
       clip-path="url(#clipPath945)" />
    <rect
       style="fill:none;fill-opacity:1;stroke:#3689e6;stroke-width:0.264583;stroke-linecap:butt;stroke-linejoin:round;stroke-miterlimit:4;stroke-dasharray:none;stroke-dashoffset:0;stroke-opacity:1"
       id="rect2377"
       width="5.0712056"
       height="4.760879"
       x="-6.1010361"
       y="0.39889985"
       clip-path="none" />
    <path
       inkscape:connector-curvature="0"
       id="path865"
       d="m 0.37509661,1.3190265 5.07063999,-1.32e-5 -7e-6,3.2809693 -5.07062699,-3.4e-6 z"
       style="fill:#8cd5ff;fill-opacity:1;stroke:none;stroke-width:0.330729;stroke-linecap:round;stroke-linejoin:round;stroke-miterlimit:4;stroke-dasharray:none;stroke-opacity:1" />
    <path
       id="path985-0"
       style="fill:none;stroke:#3689e6;stroke-width:0.529167;stroke-linecap:round;stroke-linejoin:miter;stroke-miterlimit:4;stroke-dasharray:none;stroke-opacity:1"
       d="m 2.8461341,-1.9947103 c 0.011994,-0.045038 5.0157144,5.0157146 5.0157144,5.0157146 z M 2.138167,-1.2867431 c 0.011994,-0.045038 5.0157144,5.0157144 5.0157144,5.0157144 z M 1.4301997,-0.57825928 C 1.4421935,-0.62329766 6.4459143,4.4374551 6.4459143,4.4374551 Z M 0.72223265,0.12970784 C 0.73422621,0.08466946 5.7379472,5.1454224 5.7379472,5.1454224 Z M 0.01374887,0.83767495 C 0.02574243,0.79263657 5.0294633,5.8533894 5.0294633,5.8533894 Z M -0.69421818,1.5456421 C -0.68222462,1.5006037 4.3214962,6.5618732 4.3214962,6.5618732 Z M -1.4021855,2.2541259 c 0.011994,-0.045038 5.0157146,5.0157146 5.0157146,5.0157144 z m -0.707967,0.707967 c 0.011993,-0.045038 5.0157143,5.0157147 5.0157143,5.0157147 z"
       clip-path="url(#clipPath877)" />
    <path
       d="m -13.694646,-41.682562 c -1.405569,2.434516 -45.446709,2.434516 -46.852277,0 -1.405569,-2.434516 20.615002,-40.575262 23.426138,-40.575262 2.811137,0 24.831707,38.140747 23.426139,40.575262 z"
       inkscape:transform-center-x="-0.13622114"
       transform="matrix(-0.02196269,-1.5331231e-4,-1.0340084e-4,0.02184192,2.0908007,2.2402078)"
       inkscape:transform-center-y="-1.0391722"
       inkscape:randomized="0"
       inkscape:rounded="0.06"
       inkscape:flatsided="true"
       sodipodi:arg2="1.5707963"
       sodipodi:arg1="0.52359878"
       sodipodi:r2="13.525088"
       sodipodi:r1="27.050175"
       sodipodi:cy="-55.207649"
       sodipodi:cx="-37.120785"
       sodipodi:sides="3"
       id="path15962"
       style="fill:#3689e6;fill-opacity:1;fill-rule:evenodd;stroke:none;stroke-width:66.1068;stroke-linecap:round;stroke-linejoin:round;stroke-miterlimit:4;stroke-dasharray:none;stroke-dashoffset:0;stroke-opacity:1;paint-order:markers fill stroke"
       sodipodi:type="star" />
    <path
       d="m -13.694646,-41.682562 c -1.405569,2.434516 -45.446709,2.434516 -46.852277,0 -1.405569,-2.434516 20.615002,-40.575262 23.426138,-40.575262 2.811137,0 24.831707,38.140747 23.426139,40.575262 z"
       sodipodi:type="star"
       style="fill:#3689e6;fill-opacity:1;fill-rule:evenodd;stroke:none;stroke-width:66.1068;stroke-linecap:round;stroke-linejoin:round;stroke-miterlimit:4;stroke-dasharray:none;stroke-dashoffset:0;stroke-opacity:1;paint-order:markers fill stroke"
       id="path2429"
       sodipodi:sides="3"
       sodipodi:cx="-37.120785"
       sodipodi:cy="-55.207649"
       sodipodi:r1="27.050175"
       sodipodi:r2="13.525088"
       sodipodi:arg1="0.52359878"
       sodipodi:arg2="1.5707963"
       inkscape:flatsided="true"
       inkscape:rounded="0.06"
       inkscape:randomized="0"
       inkscape:transform-center-y="1.0391722"
       transform="matrix(-0.02196269,1.5331231e-4,-1.0340084e-4,-0.02184192,2.0908007,3.6837152)"
       inkscape:transform-center-x="-0.13622114" />
    <path
       style="fill:#ffe16b;fill-opacity:1;stroke:#3689e6;stroke-width:0.330729;stroke-linecap:round;stroke-linejoin:round;stroke-miterlimit:4;stroke-dasharray:none;stroke-opacity:1"
       d="m 5.4457296,4.5999826 -5.07062699,-3.4e-6 m -6e-6,-3.2809527 5.07063999,-1.32e-5"
       id="path5179"
       inkscape:connector-curvature="0"
       sodipodi:nodetypes="cccc" />
    <path
       style="fill:#ffc27d;fill-opacity:1;stroke-width:0.352299"
       inkscape:connector-curvature="0"
       d="m 11.365608,1.4200052 c -0.237453,0 -0.430169,0.1925583 -0.430169,0.4302246 V 1.5634406 c 0,-0.2376251 -0.192713,-0.430716 -0.430168,-0.430716 -0.237453,0 -0.430168,0.192968 -0.430168,0.430716 V 1.2766517 c 0,-0.2376251 -0.192714,-0.43071594 -0.430168,-0.43071594 -0.237454,0 -0.430168,0.19255824 -0.430168,0.43071594 V 0.92185286 c 0,-0.2376252 -0.192714,-0.4306751 -0.430169,-0.4306751 -0.237453,0 -0.430168,0.1925583 -0.430168,0.4306751 V 3.1038906 L 7.288514,2.6501083 h -8.73e-4 c -0.06307,-0.042609 -0.140519,-0.063094 -0.223696,-0.063094 -0.238032,0 -0.430168,0.1921489 -0.430168,0.4302246 0,0.083579 0.02295,0.1634696 0.06595,0.229431 l -5.29e-4,-0.00108 1.31802,1.4699069 C 8.227156,5.05063 8.594206,5.2533897 8.989087,5.2533897 h 1.372842 c 0.791757,0 1.433858,-0.6423252 1.433858,-1.4344364 v -1.968068 c 0,-0.238035 -0.192714,-0.4302655 -0.430171,-0.4302655 z"
       id="path833"
       sodipodi:nodetypes="ccsscsscssscccsscccsssscc" />
    <path
       style="fill:none;stroke:#f37329;stroke-width:0.264583px;stroke-linecap:round;stroke-linejoin:miter;stroke-opacity:1"
       d="M 10.935935,1.5536185 V 2.4840032"
       id="path875"
       inkscape:connector-curvature="0" />
    <path
       style="fill:none;stroke:#f37329;stroke-width:0.264583px;stroke-linecap:round;stroke-linejoin:miter;stroke-opacity:1"
       d="M 10.075599,1.3071849 V 2.3723194"
       id="path877"
       inkscape:connector-curvature="0" />
    <path
       style="fill:none;stroke:#f37329;stroke-width:0.264583px;stroke-linecap:round;stroke-linejoin:miter;stroke-opacity:1"
       d="M 9.215262,1.0716083 V 2.2238035"
       id="path879"
       inkscape:connector-curvature="0" />
    <path
       style="fill:#8cd5ff;fill-opacity:1;stroke:none;stroke-width:0.264583px;stroke-linecap:butt;stroke-linejoin:miter;stroke-opacity:1"
       d="m 13.015653,4.7429584 c 0.178956,0.2226315 0.515118,0.2604992 0.793987,0.3223162 0.620891,0.1376238 1.296276,0.2793027 1.905439,0.096626 0.557593,-0.1672164 1.11916,-0.5279695 1.40767,-1.0335782 0.224362,-0.393191 0.236576,-0.9101815 0.135089,-1.3513418 C 17.101608,2.0978477 16.695901,1.4443238 16.161794,0.99669055 15.809109,0.70112156 15.336671,0.52406476 14.877796,0.48961136 c -0.470553,-0.035331 -0.974015,0.076281 -1.379563,0.3175262 -0.285761,0.16999069 -0.618228,0.41766144 -0.660543,0.74744654 -0.04112,0.3205141 0.319858,0.5641065 0.437783,0.8649631 0.114112,0.2911348 0.315036,0.5944814 0.257958,0.9019301 -0.06268,0.3376335 -0.538833,0.4891053 -0.619912,0.8227793 -0.0478,0.1967378 -0.0247,0.440899 0.102134,0.5987018 z"
       id="path1430"
       inkscape:connector-curvature="0"
       sodipodi:nodetypes="aaaaaaaaaaaaa" />
    <g
       id="g1048"
       transform="matrix(0.16766852,0.16766852,-0.16766852,0.16766852,187.91124,-175.46049)"
       clip-path="url(#clipPath4037)"
       style="stroke:#3689e6;stroke-width:1.11582;stroke-opacity:1">
      <path
         id="path985-8"
         style="opacity:1;fill:none;stroke:#3689e6;stroke-width:2.23165;stroke-linecap:round;stroke-linejoin:miter;stroke-miterlimit:4;stroke-dasharray:none;stroke-opacity:1"
         d="m 30.089286,1028.9693 c -0.17259,-0.1 0,30.3572 0,30.3572"
         inkscape:connector-curvature="0" />
      <path
         id="path987-5"
         style="opacity:1;fill:none;stroke:#3689e6;stroke-width:2.23165;stroke-linecap:round;stroke-linejoin:miter;stroke-miterlimit:4;stroke-dasharray:none;stroke-opacity:1"
         d="m 25.803572,1028.9693 c -0.17259,-0.1 0,30.3572 0,30.3572"
         inkscape:connector-curvature="0" />
      <path
         id="path989-1"
         style="opacity:1;fill:none;stroke:#3689e6;stroke-width:2.23165;stroke-linecap:round;stroke-linejoin:miter;stroke-miterlimit:4;stroke-dasharray:none;stroke-opacity:1"
         d="m 21.517857,1028.9693 c -0.17259,-0.1 0,30.3572 0,30.3572"
         inkscape:connector-curvature="0" />
      <path
         id="path991-0"
         style="opacity:1;fill:none;stroke:#3689e6;stroke-width:2.23165;stroke-linecap:round;stroke-linejoin:miter;stroke-miterlimit:4;stroke-dasharray:none;stroke-opacity:1"
         d="m 17.232143,1028.9693 c -0.17259,-0.1 0,30.3572 0,30.3572"
         inkscape:connector-curvature="0" />
      <path
         id="path993-8"
         style="opacity:1;fill:none;stroke:#3689e6;stroke-width:2.23165;stroke-linecap:round;stroke-linejoin:miter;stroke-miterlimit:4;stroke-dasharray:none;stroke-opacity:1"
         d="m 12.946429,1028.9693 c -0.17259,-0.1 0,30.3572 0,30.3572"
         inkscape:connector-curvature="0" />
      <path
         id="path995-7"
         style="opacity:1;fill:none;stroke:#3689e6;stroke-width:2.23165;stroke-linecap:round;stroke-linejoin:miter;stroke-miterlimit:4;stroke-dasharray:none;stroke-opacity:1"
         d="m 8.6607146,1028.9693 c -0.17259,-0.1 0,30.3572 0,30.3572"
         inkscape:connector-curvature="0" />
      <path
         id="path997-6"
         style="opacity:1;fill:none;stroke:#3689e6;stroke-width:2.23165;stroke-linecap:round;stroke-linejoin:miter;stroke-miterlimit:4;stroke-dasharray:none;stroke-opacity:1"
         d="m 4.375,1028.9693 c -0.17259,-0.1 0,30.3572 0,30.3572"
         inkscape:connector-curvature="0" />
      <path
         id="path999-3"
         style="opacity:1;fill:none;stroke:#3689e6;stroke-width:2.23165;stroke-linecap:round;stroke-linejoin:miter;stroke-miterlimit:4;stroke-dasharray:none;stroke-opacity:1"
         d="m 0.089286,1028.9693 c -0.17259,-0.1 0,30.3572 0,30.3572"
         inkscape:connector-curvature="0" />
    </g>
    <path
       sodipodi:nodetypes="aaaaaaaaaaaaa"
       inkscape:connector-curvature="0"
       id="path49744"
       d="m 13.015653,4.7429584 c 0.178956,0.2226315 0.515118,0.2604992 0.793987,0.3223162 0.620891,0.1376238 1.296276,0.2793027 1.905439,0.096626 0.557593,-0.1672164 1.11916,-0.5279695 1.40767,-1.0335782 0.224362,-0.393191 0.236576,-0.9101815 0.135089,-1.3513418 C 17.101608,2.0978477 16.695901,1.4443238 16.161794,0.99669055 15.809109,0.70112156 15.336671,0.52406476 14.877796,0.48961136 c -0.470553,-0.035331 -0.974015,0.076281 -1.379563,0.3175262 -0.285761,0.16999069 -0.618228,0.41766144 -0.660543,0.74744654 -0.04112,0.3205141 0.319858,0.5641065 0.437783,0.8649631 0.114112,0.2911348 0.315036,0.5944814 0.257958,0.9019301 -0.06268,0.3376335 -0.538833,0.4891053 -0.619912,0.8227793 -0.0478,0.1967378 -0.0247,0.440899 0.102134,0.5987018 z"
       style="fill:none;fill-opacity:1;stroke:#3689e6;stroke-width:0.264583px;stroke-linecap:butt;stroke-linejoin:miter;stroke-opacity:1" />
    <path
       sodipodi:nodetypes="ccsscsscssscccsscccsssscc"
       id="path46419"
       d="m 11.365608,1.4200052 c -0.237453,0 -0.430169,0.1925583 -0.430169,0.4302246 V 1.5634406 c 0,-0.2376251 -0.192713,-0.430716 -0.430168,-0.430716 -0.237453,0 -0.430168,0.192968 -0.430168,0.430716 V 1.2766517 c 0,-0.2376251 -0.192714,-0.43071594 -0.430168,-0.43071594 -0.237454,0 -0.430168,0.19255824 -0.430168,0.43071594 V 0.92185286 c 0,-0.2376252 -0.192714,-0.4306751 -0.430169,-0.4306751 -0.237453,0 -0.430168,0.1925583 -0.430168,0.4306751 V 3.1038906 L 7.288514,2.6501083 h -8.73e-4 c -0.06307,-0.042609 -0.140519,-0.063094 -0.223696,-0.063094 -0.238032,0 -0.430168,0.1921489 -0.430168,0.4302246 0,0.083579 0.02295,0.1634696 0.06595,0.229431 l -5.29e-4,-0.00108 1.31802,1.4699069 C 8.227156,5.05063 8.594206,5.2533897 8.989087,5.2533897 h 1.372842 c 0.791757,0 1.433858,-0.6423252 1.433858,-1.4344364 v -1.968068 c 0,-0.238035 -0.192714,-0.4302655 -0.430171,-0.4302655 z"
       inkscape:connector-curvature="0"
       style="fill:#000000;fill-opacity:0;stroke:#f37329;stroke-width:0.264583;stroke-linecap:round;stroke-linejoin:round;stroke-miterlimit:4;stroke-dasharray:none;stroke-opacity:1" />
    <path
       id="path46414"
       style="fill:#cc3b02;fill-opacity:1;stroke-width:0.352298"
       d="m 6.656265,2.8866373 c -0.01323,0.041436 -0.02274,0.084845 -0.02274,0.1307412 0,0.083579 0.02314,0.1634823 0.06615,0.2294434 L 8.017424,4.7154661 C 8.227361,5.0505995 8.59406,5.2534177 8.98894,5.2534177 h 1.373043 c 0.791758,0 1.434021,-0.6424263 1.434021,-1.4345377 V 3.5542966 c 0,0.7921107 -0.642263,1.4345378 -1.434021,1.4345378 H 8.98894 c -0.39488,0 -0.761579,-0.2028182 -0.971516,-0.5379516 L 6.699675,2.9822386 c -0.01903,-0.029189 -0.03248,-0.061845 -0.04341,-0.095601 z"
       inkscape:connector-curvature="0" />
    <g
       id="g924"
       transform="translate(-11.963936,-10.166914)">
      <path
         id="path908"
         style="fill:none;stroke:#3689e6;stroke-width:0.529167;stroke-linecap:round;stroke-linejoin:miter;stroke-miterlimit:4;stroke-dasharray:none;stroke-opacity:1"
         d="M 8.2664333,2.8686035 C 8.2535502,2.820225 2.8787181,8.2563188 2.8787181,8.2563188"
         inkscape:connector-curvature="0" />
      <path
         id="path910"
         style="fill:none;stroke:#3689e6;stroke-width:0.529167;stroke-linecap:round;stroke-linejoin:miter;stroke-miterlimit:4;stroke-dasharray:none;stroke-opacity:1"
         d="M 7.5058162,2.1079864 C 7.4929331,2.0596079 2.118101,7.4957017 2.118101,7.4957017"
         inkscape:connector-curvature="0" />
      <path
         id="path912"
         style="fill:none;stroke:#3689e6;stroke-width:0.529167;stroke-linecap:round;stroke-linejoin:miter;stroke-miterlimit:4;stroke-dasharray:none;stroke-opacity:1"
         d="M 6.7451988,1.3473692 C 6.7323157,1.2989906 1.3574837,6.7350842 1.3574837,6.7350842"
         inkscape:connector-curvature="0" />
      <path
         id="path914"
         style="fill:none;stroke:#3689e6;stroke-width:0.529167;stroke-linecap:round;stroke-linejoin:miter;stroke-miterlimit:4;stroke-dasharray:none;stroke-opacity:1"
         d="M 5.9845817,0.58675208 C 5.9716986,0.53837355 0.59686659,5.9744671 0.59686659,5.9744671"
         inkscape:connector-curvature="0" />
      <path
         id="path916"
         style="fill:none;stroke:#3689e6;stroke-width:0.529167;stroke-linecap:round;stroke-linejoin:miter;stroke-miterlimit:4;stroke-dasharray:none;stroke-opacity:1"
         d="M 5.2239646,-0.17386501 C 5.2110815,-0.22224358 -0.16375052,5.2138501 -0.16375052,5.2138501"
         inkscape:connector-curvature="0" />
      <path
         id="path918"
         style="fill:none;stroke:#3689e6;stroke-width:0.529167;stroke-linecap:round;stroke-linejoin:miter;stroke-miterlimit:4;stroke-dasharray:none;stroke-opacity:1"
         d="M 4.4633475,-0.93448221 C 4.4504644,-0.98286074 -0.9243677,4.453233 -0.9243677,4.453233"
         inkscape:connector-curvature="0" />
      <path
         id="path920"
         style="fill:none;stroke:#3689e6;stroke-width:0.529167;stroke-linecap:round;stroke-linejoin:miter;stroke-miterlimit:4;stroke-dasharray:none;stroke-opacity:1"
         d="m 3.7027301,-1.6950994 c -0.012883,-0.048379 -5.387715,5.3877149 -5.387715,5.3877149"
         inkscape:connector-curvature="0" />
      <path
         id="path922"
         style="fill:none;stroke:#3689e6;stroke-width:0.529167;stroke-linecap:round;stroke-linejoin:miter;stroke-miterlimit:4;stroke-dasharray:none;stroke-opacity:1"
         d="M 2.942113,-2.4557165 C 2.92923,-2.5040955 -2.445602,2.9319984 -2.445602,2.9319984"
         inkscape:connector-curvature="0" />
    </g>
  </g>
</svg>
