<?xml version="1.0" encoding="UTF-8" standalone="no"?>
<svg
   xmlns:dc="http://purl.org/dc/elements/1.1/"
   xmlns:cc="http://creativecommons.org/ns#"
   xmlns:rdf="http://www.w3.org/1999/02/22-rdf-syntax-ns#"
   xmlns:svg="http://www.w3.org/2000/svg"
   xmlns="http://www.w3.org/2000/svg"
   xmlns:sodipodi="http://sodipodi.sourceforge.net/DTD/sodipodi-0.dtd"
   xmlns:inkscape="http://www.inkscape.org/namespaces/inkscape"
   sodipodi:docname="thickness_thick.svg"
   inkscape:version="1.1-dev (7fa40cb683, 2020-03-24)"
   version="1.1"
   id="svg2"
   height="22"
   width="22">
  <defs
     id="defs4" />
  <sodipodi:namedview
     inkscape:window-maximized="1"
     inkscape:window-y="24"
     inkscape:window-x="0"
     inkscape:window-height="1000"
     inkscape:window-width="1280"
     showgrid="false"
     inkscape:current-layer="layer1"
     inkscape:document-units="px"
     inkscape:cy="10.600234"
     inkscape:cx="16.329392"
     inkscape:zoom="31.678384"
     inkscape:pageshadow="2"
     inkscape:pageopacity="0.0"
     borderopacity="1.0"
     bordercolor="#666666"
     pagecolor="#ffffff"
     id="base" />
  <metadata
     id="metadata7">
    <rdf:RDF>
      <cc:Work
         rdf:about="">
        <dc:format>image/svg+xml</dc:format>
        <dc:type
           rdf:resource="http://purl.org/dc/dcmitype/StillImage" />
        <dc:title />
      </cc:Work>
    </rdf:RDF>
  </metadata>
  <g
     transform="translate(0,-1030.3622)"
     id="layer1"
     inkscape:groupmode="layer"
     inkscape:label="Ebene 1">
    <path
       transform="matrix(0.59148937,0,0,0.59148937,2.5322947,1032.5922)"
       d="m 24.776786,14.857142 a 10.491072,10.491072 0 1 1 -20.9821436,0 10.491072,10.491072 0 1 1 20.9821436,0 z"
       sodipodi:ry="10.491072"
       sodipodi:rx="10.491072"
       sodipodi:cy="14.857142"
       sodipodi:cx="14.285714"
       id="path2985"
       style="fill:#d9d9d9;fill-opacity:1;stroke:none"
       sodipodi:type="arc" />
    <rect
       ry="1.3000001"
       rx="1.5000001"
       y="1034.4585"
       x="28.729324"
       height="4.6382856"
       width="4.6382856"
       id="rect847-5"
       style="fill:#d9d9d9;fill-opacity:1;stroke:#273445;stroke-width:0;stroke-linecap:round" />
    <rect
       style="fill:#727272;fill-opacity:1;stroke:#273445;stroke-width:0;stroke-linecap:round"
       id="rect849"
       width="4.6382856"
       height="4.6382856"
       x="28.743557"
       y="1040.2351"
       rx="1.5000001"
       ry="1.3000001" />
    <rect
       style="fill:#b2b2b2;fill-opacity:1;stroke:#273445;stroke-width:0;stroke-linecap:round"
       id="rect851"
       width="4.6382856"
       height="4.6382856"
       x="34.672131"
       y="1034.4585"
       rx="1.5000001"
       ry="1.3000001" />
    <rect
       ry="1.3000001"
       rx="1.5000001"
       y="1040.2117"
       x="34.71199"
       height="4.6382856"
       width="4.6382856"
       id="rect853"
       style="fill:#4d4d4d;fill-opacity:1;stroke:#273445;stroke-width:0;stroke-linecap:round" />
    <rect
       style="fill:#241f31;fill-opacity:1;stroke:#273445;stroke-width:0;stroke-linecap:round"
       id="rect855"
       width="4.6382856"
       height="4.6382856"
       x="34.612339"
       y="1045.9213"
       rx="1.5000001"
       ry="1.3000001" />
    <rect
       style="fill:#ffffff;fill-opacity:1;stroke:#000000;stroke-width:0.1;stroke-linecap:round;stroke-miterlimit:4;stroke-dasharray:none;stroke-opacity:1"
       id="rect857"
       width="4.6382856"
       height="4.6382856"
       x="22.887239"
       y="1034.4585"
       rx="1.5000001"
       ry="1.3000001" />
    <rect
       ry="1.3000001"
       rx="1.5000001"
       y="1040.2366"
       x="22.887239"
       height="4.6382856"
       width="4.6382856"
       id="rect860"
       style="fill:#999999;fill-opacity:1;stroke:none;stroke-width:0.1;stroke-linecap:round;stroke-miterlimit:4;stroke-dasharray:none;stroke-opacity:1" />
    <path
       transform="translate(0,1030.3622)"
       d="M 4.8554688 10.517578 A 6.2053576 6.2053576 0 0 0 4.7773438 11.017578 A 6.2053576 6.2053576 0 0 0 10.982422 17.222656 A 6.2053576 6.2053576 0 0 0 17.1875 11.017578 A 6.2053576 6.2053576 0 0 0 17.144531 10.740234 A 6.2053576 6.2053576 0 0 1 10.982422 16.222656 A 6.2053576 6.2053576 0 0 1 4.8554688 10.517578 z "
       style="fill:#b2b2b2;fill-opacity:1;stroke:none;stroke-width:0.591489"
       id="path849" />
    <path
       transform="translate(0,1030.3622)"
       d="M 10.982422 4.8125 A 6.2053576 6.2053576 0 0 0 4.7773438 11.017578 A 6.2053576 6.2053576 0 0 0 4.8554688 11.517578 A 6.2053576 6.2053576 0 0 1 10.982422 5.8125 A 6.2053576 6.2053576 0 0 1 17.107422 11.517578 A 6.2053576 6.2053576 0 0 0 17.1875 11.017578 A 6.2053576 6.2053576 0 0 0 10.982422 4.8125 z "
       style="fill:#ffffff;fill-opacity:1;stroke:none;stroke-width:0.591489"
       id="path856" />
    <path
       sodipodi:type="arc"
       style="fill:none;fill-opacity:1;stroke:#241f31;stroke-opacity:1;stroke-width:1.69064746;stroke-miterlimit:4;stroke-dasharray:none"
       id="path863"
       sodipodi:cx="14.285714"
       sodipodi:cy="14.857142"
       sodipodi:rx="10.491072"
       sodipodi:ry="10.491072"
       d="m 24.776786,14.857142 a 10.491072,10.491072 0 1 1 -20.9821436,0 10.491072,10.491072 0 1 1 20.9821436,0 z"
       transform="matrix(0.59148937,0,0,0.59148937,2.5322947,1032.5922)" />
  </g>
</svg>
