<?xml version="1.0" encoding="UTF-8" standalone="no"?>
<svg
   xmlns:dc="http://purl.org/dc/elements/1.1/"
   xmlns:cc="http://creativecommons.org/ns#"
   xmlns:rdf="http://www.w3.org/1999/02/22-rdf-syntax-ns#"
   xmlns:svg="http://www.w3.org/2000/svg"
   xmlns="http://www.w3.org/2000/svg"
   xmlns:sodipodi="http://sodipodi.sourceforge.net/DTD/sodipodi-0.dtd"
   xmlns:inkscape="http://www.inkscape.org/namespaces/inkscape"
   sodipodi:docname="thickness_medium.svg"
   inkscape:version="1.1-dev (7fa40cb683, 2020-03-24)"
   version="1.1"
   id="svg2"
   height="22"
   width="22">
  <defs
     id="defs4" />
  <sodipodi:namedview
     inkscape:window-maximized="1"
     inkscape:window-y="24"
     inkscape:window-x="0"
     inkscape:window-height="1000"
     inkscape:window-width="1280"
     showgrid="false"
     inkscape:current-layer="layer1"
     inkscape:document-units="px"
     inkscape:cy="9.6369057"
     inkscape:cx="14.900056"
     inkscape:zoom="15.839192"
     inkscape:pageshadow="2"
     inkscape:pageopacity="0.0"
     borderopacity="1.0"
     bordercolor="#666666"
     pagecolor="#ffffff"
     id="base" />
  <metadata
     id="metadata7">
    <rdf:RDF>
      <cc:Work
         rdf:about="">
        <dc:format>image/svg+xml</dc:format>
        <dc:type
           rdf:resource="http://purl.org/dc/dcmitype/StillImage" />
        <dc:title />
      </cc:Work>
    </rdf:RDF>
  </metadata>
  <g
     transform="translate(0,-1030.3622)"
     id="layer1"
     inkscape:groupmode="layer"
     inkscape:label="Ebene 1">
    <path
       transform="matrix(0.34468087,0,0,0.34468087,6.0581305,1036.2591)"
       d="m 24.776786,14.857142 a 10.491072,10.491072 0 1 1 -20.9821436,0 10.491072,10.491072 0 1 1 20.9821436,0 z"
       sodipodi:ry="10.491072"
       sodipodi:rx="10.491072"
       sodipodi:cy="14.857142"
       sodipodi:cx="14.285714"
       id="path2985"
       style="fill:#d9d9d9;fill-opacity:1;stroke:none"
       sodipodi:type="arc" />
    <rect
       style="fill:#d9d9d9;fill-opacity:1;stroke:#273445;stroke-width:0;stroke-linecap:round"
       id="rect847-5"
       width="4.6382856"
       height="4.6382856"
       x="29.218365"
       y="1033.3544"
       rx="1.5000001"
       ry="1.3000001" />
    <rect
       ry="1.3000001"
       rx="1.5000001"
       y="1039.131"
       x="29.232597"
       height="4.6382856"
       width="4.6382856"
       id="rect849"
       style="fill:#727272;fill-opacity:1;stroke:#273445;stroke-width:0;stroke-linecap:round" />
    <rect
       ry="1.3000001"
       rx="1.5000001"
       y="1033.3544"
       x="35.161171"
       height="4.6382856"
       width="4.6382856"
       id="rect851"
       style="fill:#b2b2b2;fill-opacity:1;stroke:#273445;stroke-width:0;stroke-linecap:round" />
    <rect
       style="fill:#4d4d4d;fill-opacity:1;stroke:#273445;stroke-width:0;stroke-linecap:round"
       id="rect853"
       width="4.6382856"
       height="4.6382856"
       x="35.201031"
       y="1039.1075"
       rx="1.5000001"
       ry="1.3000001" />
    <rect
       ry="1.3000001"
       rx="1.5000001"
       y="1044.8171"
       x="35.101379"
       height="4.6382856"
       width="4.6382856"
       id="rect855"
       style="fill:#241f31;fill-opacity:1;stroke:#273445;stroke-width:0;stroke-linecap:round" />
    <rect
       ry="1.3000001"
       rx="1.5000001"
       y="1033.3544"
       x="23.376282"
       height="4.6382856"
       width="4.6382856"
       id="rect857"
       style="fill:#ffffff;fill-opacity:1;stroke:#000000;stroke-width:0.1;stroke-linecap:round;stroke-miterlimit:4;stroke-dasharray:none;stroke-opacity:1" />
    <rect
       style="fill:#999999;fill-opacity:1;stroke:none;stroke-width:0.1;stroke-linecap:round;stroke-miterlimit:4;stroke-dasharray:none;stroke-opacity:1"
       id="rect860"
       width="4.6382856"
       height="4.6382856"
       x="23.376282"
       y="1039.1324"
       rx="1.5000001"
       ry="1.3000001" />
    <path
       transform="translate(0,1030.3622)"
       d="M 7.4648438 10.517578 A 3.6160718 3.6160718 0 0 0 7.3652344 11.017578 A 3.6160718 3.6160718 0 0 0 10.982422 14.634766 A 3.6160718 3.6160718 0 0 0 14.597656 11.017578 A 3.6160718 3.6160718 0 0 0 14.529297 10.679688 A 3.6160717 3.6160717 0 0 1 10.982422 13.634766 A 3.6160717 3.6160717 0 0 1 7.4648438 10.517578 z "
       style="fill:#b2b2b2;fill-opacity:1;stroke:none;stroke-width:0.344681"
       id="path851" />
    <path
       transform="translate(0,1030.3622)"
       d="M 10.982422 7.4023438 A 3.6160718 3.6160718 0 0 0 7.3652344 11.017578 A 3.6160718 3.6160718 0 0 0 7.4648438 11.517578 A 3.6160717 3.6160717 0 0 1 10.982422 8.4023438 A 3.6160717 3.6160717 0 0 1 14.498047 11.517578 A 3.6160718 3.6160718 0 0 0 14.597656 11.017578 A 3.6160718 3.6160718 0 0 0 10.982422 7.4023438 z "
       style="fill:#ffffff;fill-opacity:1;stroke:none;stroke-width:0.344681"
       id="path856" />
    <path
       sodipodi:cx="14.285714"
       sodipodi:cy="14.857142"
       sodipodi:rx="10.491072"
       sodipodi:ry="10.491072"
       sodipodi:type="arc"
       d="m 24.776786,14.857142 a 10.491072,10.491072 0 1 1 -20.9821436,0 10.491072,10.491072 0 1 1 20.9821436,0 z"
       transform="matrix(0.34468087,0,0,0.34468087,6.0581305,1036.2591)"
       style="fill:none;fill-opacity:1;stroke:#241f31;stroke-opacity:1;stroke-width:2.90123441;stroke-miterlimit:4;stroke-dasharray:none"
       id="path863" />
  </g>
</svg>
