<svg xmlns="http://www.w3.org/2000/svg" xmlns:xlink="http://www.w3.org/1999/xlink" width="128" height="128" version="1.0" enable-background="new"><defs><linearGradient y2="228.014" x2="153.584" y1="227.933" x1="156.012" gradientUnits="userSpaceOnUse" id="c" xlink:href="#a" gradientTransform="translate(18.108 -1.908)"/><linearGradient id="a"><stop style="stop-color:#e5a50a;stop-opacity:1" offset="0"/><stop style="stop-color:#f6d32d;stop-opacity:1" offset="1"/></linearGradient><filter id="b" x="-.014" width="1.027" y="-.011" height="1.021" color-interpolation-filters="sRGB"><feGaussianBlur stdDeviation="2"/></filter></defs><g stroke-width=".25"><path d="M111.828-178.55h200L432-58.88l.005 296.24c0 17.728-14.449 32.089-32.177 32.089h-288c-17.728 0-32-14.272-32-32v-384c0-17.728 14.272-32 32-32z" opacity=".4" filter="url(#b)" enable-background="new" transform="matrix(.25 0 0 .25 .02 52.741)"/><path d="M27.978 7.823h50l30.043 29.918.001 74.06c0 4.432-3.612 8.022-8.044 8.022h-72c-4.432 0-8-3.568-8-8v-96c0-4.432 3.568-8 8-8z" fill="#f6f5f4" enable-background="new"/><path d="M77.978 7.823v22c0 4.432 3.61 7.924 8.042 7.924l22-.006z" fill="#deddda" enable-background="new"/></g><g style="stroke-width:1.65835"><g style="font-style:italic;font-variant:normal;font-weight:400;font-stretch:normal;font-size:134.429px;line-height:90.0195px;font-family:Cormorant;-inkscape-font-specification:'Cormorant Italic';text-align:center;letter-spacing:0;word-spacing:0;text-anchor:middle;display:inline;fill:#3d3846;fill-opacity:1;stroke-width:1.65835;enable-background:new"><path d="M75.672 219.987c-3.898 0-5.646 1.479-10.889 9.68L57.39 241.36l-3.495-11.964c-2.151-7.528-5.109-9.41-8.604-9.41-3.898 0-8.603 3.361-14.653 10.217-.672.538.538 1.747 1.076 1.075 3.63-3.764 6.721-5.511 9.007-5.511 1.882 0 4.57.94 6.721 8.065l4.57 15.325-9.41 13.981c-2.15 3.092-4.167 4.033-5.914 4.033-2.689 0-2.958-2.689-6.05-2.689-2.15 0-3.63 1.345-3.898 3.227-.538 3.63 3.226 6.721 6.721 6.721 4.033 0 5.78-1.613 10.89-9.813l8.334-13.174 4.302 14.518c2.016 6.99 4.57 8.469 8.065 8.469 3.899 0 8.604-3.495 14.653-10.217.672-.672-.403-1.747-1.075-1.21-3.63 3.765-6.587 5.512-8.873 5.512-2.016 0-4.436-.538-6.318-6.856l-5.377-18.148 8.469-12.367c2.15-2.958 4.167-4.033 5.915-4.033 2.688 0 2.957 2.689 6.05 2.689 2.15 0 3.629-1.345 3.898-3.227.537-3.495-3.227-6.587-6.722-6.587z" style="fill:#3d3846;stroke-width:1.65835" transform="matrix(.603 0 0 .603 19.907 -66.986)" aria-label="x"/></g><g style="display:inline;stroke-width:1.67283;enable-background:new"><g style="stroke-width:1.67283" transform="matrix(.6436 .33034 -.21057 .44716 39.686 -66.786)"><ellipse style="fill:#77767b;fill-rule:evenodd;stroke:none;stroke-width:10.527;stroke-linecap:round;stroke-linejoin:round" cx="128.273" cy="260.314" rx="1.42" ry="3.198"/><g style="fill:#5e5c64;fill-opacity:0;stroke-width:1.3507"><path style="opacity:1;vector-effect:none;fill:url(#c);fill-opacity:1;fill-rule:evenodd;stroke:none;stroke-width:1.3507;stroke-linecap:butt;stroke-linejoin:miter;stroke-miterlimit:4;stroke-dasharray:none;stroke-dashoffset:0;stroke-opacity:1" d="M173.33 278.463c-.919.013-1.889-10.698-3.222-16.698l7.593.312c-1.333 6-1.874 16.564-2.72 16.498" transform="matrix(1.62478 -.03535 -.00217 .94408 -154.007 3.502)"/></g><path style="fill:#ffbe6f;fill-rule:evenodd;stroke:none;stroke-width:10.527;stroke-linecap:round;stroke-linejoin:round" d="M132.875 3.602a3.022 3.022 0 0 0-3.03 3.027v82l1.273 4h8.007l3.03-4v-82a3.022 3.022 0 0 0-3.03-3.027z" transform="translate(-8 156)"/><path d="M126.088 159.633v88.996h3.985l2.096-4h1.985v-82c0-1.677-1.027-2.923-2.127-2.923z" style="fill:#ff7800;fill-rule:evenodd;stroke:none;stroke-width:10.527;stroke-linecap:round;stroke-linejoin:round"/><path d="M129.77 241.602v7.027h3.08l1.304-4v-82c0-2.17-.562-3.027-3.079-3.027h-1.274" style="fill:#e66100;fill-rule:evenodd;stroke:none;stroke-width:10.5269;stroke-linecap:round;stroke-linejoin:round"/><path d="M124.875 159.602a3.022 3.022 0 0 0-3.03 3.027h12.31c.094-2.699-1.353-3.027-3.03-3.027z" style="fill:#3d3846;fill-opacity:1;fill-rule:evenodd;stroke:none;stroke-width:10.527;stroke-linecap:round;stroke-linejoin:round"/></g></g></g></svg>