<?xml version="1.0" encoding="UTF-8" standalone="no"?>
<!-- Created with Inkscape (http://www.inkscape.org/) -->

<svg
   xmlns:dc="http://purl.org/dc/elements/1.1/"
   xmlns:cc="http://creativecommons.org/ns#"
   xmlns:rdf="http://www.w3.org/1999/02/22-rdf-syntax-ns#"
   xmlns:svg="http://www.w3.org/2000/svg"
   xmlns="http://www.w3.org/2000/svg"
   xmlns:sodipodi="http://sodipodi.sourceforge.net/DTD/sodipodi-0.dtd"
   xmlns:inkscape="http://www.inkscape.org/namespaces/inkscape"
   width="23.9998"
   height="24.000025"
   viewBox="0 0 6.349947 6.3500066"
   version="1.1"
   id="svg8"
   inkscape:version="0.92.3 (2405546, 2018-03-11)"
   sodipodi:docname="linea-freccia.svg">
  <defs
     id="defs2" />
  <sodipodi:namedview
     id="base"
     pagecolor="#ffffff"
     bordercolor="#666666"
     borderopacity="1.0"
     inkscape:pageopacity="0.0"
     inkscape:pageshadow="2"
     inkscape:zoom="22.627417"
     inkscape:cx="26.927757"
     inkscape:cy="10.841468"
     inkscape:document-units="mm"
     inkscape:current-layer="layer1"
     showgrid="false"
     fit-margin-top="1"
     fit-margin-left="1"
     fit-margin-right="1"
     fit-margin-bottom="1"
     inkscape:window-width="1920"
     inkscape:window-height="1018"
     inkscape:window-x="0"
     inkscape:window-y="0"
     inkscape:window-maximized="1"
     units="px" />
  <metadata
     id="metadata5">
    <rdf:RDF>
      <cc:Work
         rdf:about="">
        <dc:format>image/svg+xml</dc:format>
        <dc:type
           rdf:resource="http://purl.org/dc/dcmitype/StillImage" />
        <dc:title></dc:title>
      </cc:Work>
    </rdf:RDF>
  </metadata>
  <g
     inkscape:label="Livello 1"
     inkscape:groupmode="layer"
     id="layer1"
     transform="translate(-117.74249,-143.68327)">
    <rect
       style="fill:#0000ff;fill-opacity:1;fill-rule:nonzero;stroke-width:0.26458332"
       id="rect22"
       width="5.8208332"
       height="5.8208332"
       x="114.43873"
       y="136.36804" />
    <rect
       style="fill:#0000ff;fill-opacity:1;fill-rule:nonzero;stroke-width:0.26458332"
       id="rect22-7"
       width="5.8208332"
       height="5.8208332"
       x="121.0875"
       y="136.38763" />
    <path
       style="fill:#ffffff;fill-opacity:1;fill-rule:nonzero;stroke-width:0.54969352"
       d="m 118.69166,143.77245 c -0.47515,1e-4 -0.86022,0.38431 -0.85999,0.85805 1e-4,0.47354 0.38507,0.85739 0.85999,0.85748 0.0852,-2.9e-4 0.17001,-0.0132 0.25146,-0.0384 l 3.86819,3.90867 h -1.07935 -0.87983 -0.0974 c -0.30235,0.0805 -0.33355,0.48102 0.021,0.58523 0.31593,8.7e-4 0.63709,-6e-5 0.95627,0 0.56198,9e-5 1.12389,5.9e-4 1.68379,5.9e-4 h 0.0163 0.31796 c 0.0828,-0.005 0.22113,-0.0712 0.25322,-0.2484 v -1.74114 -0.87725 -0.0971 c -0.0807,-0.30144 -0.48241,-0.33257 -0.58694,0.021 -8.9e-4,0.31501 7e-5,0.63523 0,0.95346 h -0.001 v 0.93718 l -3.91894,-3.96045 c 0.0364,-0.0962 0.0552,-0.198 0.0555,-0.30076 2.4e-4,-0.47375 -0.38483,-0.85796 -0.85998,-0.85805 z"
       id="path102"
       inkscape:connector-curvature="0" />
    <g
       transform="matrix(0.26458333,0,0,0.26458333,114.5587,-136.15461)"
       id="layer1-6"
       inkscape:label="Ebene 1">
      <ellipse
         transform="translate(1.3447646,1031.9585)"
         id="path2985"
         style="fill:#000000;fill-opacity:1;stroke:none"
         cx="1.7046324"
         cy="1.6075455"
         rx="2.8726213"
         ry="3.0304577" />
      <path
         inkscape:connector-curvature="0"
         id="path3763"
         d="m 19.996094,1040.6513 v 9.707 h -9.710938"
         style="fill:none;stroke:#000000;stroke-width:2;stroke-linecap:round;stroke-linejoin:round;stroke-miterlimit:4;stroke-dasharray:none;stroke-opacity:1" />
      <path
         transform="translate(0,1030.3622)"
         inkscape:connector-curvature="0"
         id="path3765"
         d="M 19.445436,19.613515 3.1819805,3.173282 v 0"
         style="fill:none;stroke:#000000;stroke-width:2.5;stroke-linecap:butt;stroke-linejoin:miter;stroke-miterlimit:4;stroke-dasharray:none;stroke-opacity:1" />
    </g>
  </g>
</svg>
