<?xml version="1.0" encoding="UTF-8" standalone="no"?>
<!-- Created with Inkscape (http://www.inkscape.org/) -->

<svg
   xmlns:dc="http://purl.org/dc/elements/1.1/"
   xmlns:cc="http://creativecommons.org/ns#"
   xmlns:rdf="http://www.w3.org/1999/02/22-rdf-syntax-ns#"
   xmlns:svg="http://www.w3.org/2000/svg"
   xmlns="http://www.w3.org/2000/svg"
   xmlns:sodipodi="http://sodipodi.sourceforge.net/DTD/sodipodi-0.dtd"
   xmlns:inkscape="http://www.inkscape.org/namespaces/inkscape"
   width="23.742186"
   height="23.744152"
   viewBox="0 0 6.2817866 6.2823069"
   version="1.1"
   id="svg8"
   inkscape:version="0.92.3 (2405546, 2018-03-11)"
   sodipodi:docname="circle.svg">
  <defs
     id="defs2" />
  <sodipodi:namedview
     id="base"
     pagecolor="#ffffff"
     bordercolor="#666666"
     borderopacity="1.0"
     inkscape:pageopacity="0.0"
     inkscape:pageshadow="2"
     inkscape:zoom="22.627417"
     inkscape:cx="-5.1987084"
     inkscape:cy="14.091034"
     inkscape:document-units="mm"
     inkscape:current-layer="layer1"
     showgrid="false"
     fit-margin-top="1"
     fit-margin-left="1"
     fit-margin-right="1"
     fit-margin-bottom="1"
     inkscape:window-width="1920"
     inkscape:window-height="1018"
     inkscape:window-x="0"
     inkscape:window-y="0"
     inkscape:window-maximized="1"
     units="px" />
  <metadata
     id="metadata5">
    <rdf:RDF>
      <cc:Work
         rdf:about="">
        <dc:format>image/svg+xml</dc:format>
        <dc:type
           rdf:resource="http://purl.org/dc/dcmitype/StillImage" />
        <dc:title></dc:title>
      </cc:Work>
    </rdf:RDF>
  </metadata>
  <g
     inkscape:label="Livello 1"
     inkscape:groupmode="layer"
     id="layer1"
     transform="translate(-121.38359,-133.04769)">
    <g
       transform="matrix(0.26458333,0,0,0.26458333,114.64049,-138.86605)"
       id="layer1-6"
       inkscape:label="Ebene 1">
      <circle
         transform="translate(0.28410543,1029.983)"
         id="path2985"
         style="fill:none;fill-opacity:1;stroke:#000000;stroke-width:1.76100004;stroke-linejoin:round;stroke-miterlimit:4;stroke-dasharray:none;stroke-opacity:1"
         cx="10.732871"
         cy="11.361831"
         r="10.038391" />
    </g>
    <path
       style="fill:#ffffff;fill-opacity:1;fill-rule:nonzero;stroke-width:0.26784974"
       d="m 124.52448,133.31227 a 2.8764881,2.8764881 0 0 0 -2.87631,2.87631 2.8764881,2.8764881 0 0 0 2.87631,2.87683 2.8764881,2.8764881 0 0 0 2.87631,-2.87683 2.8764881,2.8764881 0 0 0 -2.87631,-2.87631 z m 0,0.46768 a 2.4087665,2.4087665 0 0 1 2.40863,2.40863 2.4087665,2.4087665 0 0 1 -2.40863,2.40864 2.4087665,2.4087665 0 0 1 -2.40864,-2.40864 2.4087665,2.4087665 0 0 1 2.40864,-2.40863 z"
       id="path41"
       inkscape:connector-curvature="0" />
  </g>
</svg>
