<?xml version="1.0" encoding="UTF-8"?>
<svg height="128px" viewBox="0 0 128 128" width="128px" xmlns="http://www.w3.org/2000/svg" xmlns:xlink="http://www.w3.org/1999/xlink">
    <linearGradient id="a" gradientTransform="matrix(0.232143 0 0 0.328947 -8.566925 263.826965)" gradientUnits="userSpaceOnUse" x1="88.595886" x2="536.595886" y1="-449.394012" y2="-449.394012">
        <stop offset="0" stop-color="#deddda"/>
        <stop offset="0.0454546" stop-color="#eeeeec"/>
        <stop offset="0.0909091" stop-color="#deddda"/>
        <stop offset="0.909091" stop-color="#deddda"/>
        <stop offset="0.954545" stop-color="#eeeeec"/>
        <stop offset="1" stop-color="#c0bfbc"/>
    </linearGradient>
    <filter id="b" height="100%" width="100%" x="0%" y="0%">
        <feColorMatrix in="SourceGraphic" type="matrix" values="0 0 0 0 1 0 0 0 0 1 0 0 0 0 1 0 0 0 1 0"/>
    </filter>
    <mask id="c">
        <g filter="url(#b)">
            <rect fill-opacity="0.3" height="128" width="128"/>
        </g>
    </mask>
    <clipPath id="d">
        <rect height="152" width="192"/>
    </clipPath>
    <mask id="e">
        <g filter="url(#b)">
            <rect fill-opacity="0.3" height="128" width="128"/>
        </g>
    </mask>
    <clipPath id="f">
        <rect height="152" width="192"/>
    </clipPath>
    <mask id="g">
        <g filter="url(#b)">
            <rect fill-opacity="0.3" height="128" width="128"/>
        </g>
    </mask>
    <clipPath id="h">
        <rect height="152" width="192"/>
    </clipPath>
    <mask id="i">
        <g filter="url(#b)">
            <rect fill-opacity="0.3" height="128" width="128"/>
        </g>
    </mask>
    <clipPath id="j">
        <rect height="152" width="192"/>
    </clipPath>
    <mask id="k">
        <g filter="url(#b)">
            <rect fill-opacity="0.3" height="128" width="128"/>
        </g>
    </mask>
    <clipPath id="l">
        <rect height="152" width="192"/>
    </clipPath>
    <mask id="m">
        <g filter="url(#b)">
            <rect fill-opacity="0.3" height="128" width="128"/>
        </g>
    </mask>
    <clipPath id="n">
        <rect height="152" width="192"/>
    </clipPath>
    <mask id="o">
        <g filter="url(#b)">
            <rect fill-opacity="0.3" height="128" width="128"/>
        </g>
    </mask>
    <clipPath id="p">
        <rect height="152" width="192"/>
    </clipPath>
    <mask id="q">
        <g filter="url(#b)">
            <rect fill-opacity="0.3" height="128" width="128"/>
        </g>
    </mask>
    <clipPath id="r">
        <rect height="152" width="192"/>
    </clipPath>
    <mask id="s">
        <g filter="url(#b)">
            <rect fill-opacity="0.3" height="128" width="128"/>
        </g>
    </mask>
    <clipPath id="t">
        <rect height="152" width="192"/>
    </clipPath>
    <linearGradient id="u" gradientTransform="matrix(2.394266 0.611044 -0.206807 0.759051 -229.510394 -213.888102)" gradientUnits="userSpaceOnUse" x1="156.012192" x2="153.584274" y1="227.93338" y2="228.013672">
        <stop offset="0" stop-color="#e5a50a"/>
        <stop offset="1" stop-color="#f6d32d"/>
    </linearGradient>
    <path d="m 20 16 h 88 c 4.417969 0 8 3.582031 8 8 v 84 c 0 4.417969 -3.582031 8 -8 8 h -88 c -4.417969 0 -8 -3.582031 -8 -8 v -84 c 0 -4.417969 3.582031 -8 8 -8 z m 0 0" fill="url(#a)"/>
    <path d="m 20 12 h 88 c 4.417969 0 8 3.582031 8 8 v 84 c 0 4.417969 -3.582031 8 -8 8 h -88 c -4.417969 0 -8 -3.582031 -8 -8 v -84 c 0 -4.417969 3.582031 -8 8 -8 z m 0 0" fill="#f5f4f3"/>
    <g clip-path="url(#d)" mask="url(#c)" transform="matrix(1 0 0 1 -8 -16)">
        <path d="m 28.921875 37.085938 v 1.828124 h 86.152344 v -1.828124 z m 0 0" fill="#c0bfbc" fill-rule="evenodd"/>
    </g>
    <g clip-path="url(#f)" mask="url(#e)" transform="matrix(1 0 0 1 -8 -16)">
        <path d="m 28.921875 47.085938 v 1.828124 h 86.152344 v -1.828124 z m 0 0" fill="#c0bfbc" fill-rule="evenodd"/>
    </g>
    <g clip-path="url(#h)" mask="url(#g)" transform="matrix(1 0 0 1 -8 -16)">
        <path d="m 28.921875 57.085938 v 1.828124 h 86.152344 v -1.828124 z m 0 0" fill="#c0bfbc" fill-rule="evenodd"/>
    </g>
    <g clip-path="url(#j)" mask="url(#i)" transform="matrix(1 0 0 1 -8 -16)">
        <path d="m 28.921875 67.085938 v 1.828124 h 86.152344 v -1.828124 z m 0 0" fill="#c0bfbc" fill-rule="evenodd"/>
    </g>
    <g clip-path="url(#l)" mask="url(#k)" transform="matrix(1 0 0 1 -8 -16)">
        <path d="m 28.921875 77.085938 v 1.828124 h 86.152344 v -1.828124 z m 0 0" fill="#c0bfbc" fill-rule="evenodd"/>
    </g>
    <g clip-path="url(#n)" mask="url(#m)" transform="matrix(1 0 0 1 -8 -16)">
        <path d="m 28.921875 87.085938 v 1.828124 h 86.152344 v -1.828124 z m 0 0" fill="#c0bfbc" fill-rule="evenodd"/>
    </g>
    <g clip-path="url(#p)" mask="url(#o)" transform="matrix(1 0 0 1 -8 -16)">
        <path d="m 28.921875 97.085938 v 1.828124 h 86.152344 v -1.828124 z m 0 0" fill="#c0bfbc" fill-rule="evenodd"/>
    </g>
    <g clip-path="url(#r)" mask="url(#q)" transform="matrix(1 0 0 1 -8 -16)">
        <path d="m 28.921875 107.085938 v 1.828124 h 86.152344 v -1.828124 z m 0 0" fill="#c0bfbc" fill-rule="evenodd"/>
    </g>
    <g clip-path="url(#t)" mask="url(#s)" transform="matrix(1 0 0 1 -8 -16)">
        <path d="m 28.921875 117.085938 v 1.828124 h 78.972656 v -1.828124 z m 0 0" fill="#c0bfbc" fill-rule="evenodd"/>
    </g>
    <path d="m 36.878906 46.914062 l 48 48" fill="none" stroke="#a51d2d" stroke-linecap="round" stroke-width="6.1"/>
    <path d="m 83.367188 46.820312 l -48 48" fill="none" stroke="#a51d2d" stroke-linecap="round" stroke-linejoin="round" stroke-width="6.1"/>
    <g fill-rule="evenodd">
        <path d="m 88.078125 94.867188 c -0.382813 1.421874 -1.625 2.324218 -2.777344 2.015624 c -1.152343 -0.308593 -1.777343 -1.710937 -1.394531 -3.132812 c 0.378906 -1.421875 1.621094 -2.324219 2.773438 -2.015625 c 1.152343 0.308594 1.777343 1.710937 1.398437 3.132813 z m 0 0" fill="#77767b"/>
        <path d="m 84.148438 93.773438 c -2.203126 -0.550782 -2.308594 -9.273438 -4.261719 -14.640626 l 18.117187 4.875 c -4.433594 3.738282 -7.914062 11.425782 -9.925781 10.859376" fill="url(#u)"/>
        <path d="m 102.722656 11.90625 c -2.464844 -0.660156 -4.742187 -0.105469 -5.105468 1.246094 l -10.671876 39.832031 l -6.359374 23.734375 l -0.652344 2.4375 l 1.003906 3.71875 l 11.761719 3.152344 l 5.3125 -2.027344 l 0.65625 -2.4375 l 6.359375 -23.734375 l 10.671875 -39.832031 c 0.363281 -1.351563 -1.332031 -2.96875 -3.796875 -3.628906 z m 0 0" fill="#9a9996"/>
        <path d="m 104.496094 12.410156 l -11.320313 42.242188 l -6.359375 23.734375 l -1.515625 5.65625 l 5.855469 1.570312 l 3.941406 -2.394531 l 2.914063 0.78125 l 0.65625 -2.4375 l 6.359375 -23.734375 l 10.671875 -39.832031 c 0.363281 -1.351563 -0.648438 -2.785156 -2.261719 -3.21875 z m 0 0" fill="#5e5c64"/>
        <path d="m 92.226562 79.835938 l -1.515624 5.65625 l 4.523437 1.214843 l 2.777344 -2.707031 l 0.65625 -2.4375 l 17.03125 -63.566406 c 0.46875 -1.746094 -0.171875 -2.65625 -3.871094 -3.648438 l -1.871094 -0.5" fill="#241f31"/>
        <path d="m 102.722656 11.90625 c -2.464844 -0.660156 -4.742187 -0.105469 -5.105468 1.246094 l 18.082031 4.84375 c 0.363281 -1.351563 -1.332031 -2.96875 -3.796875 -3.628906 z m 0 0"/>
    </g>
</svg>
