<?xml version="1.0" encoding="UTF-8"?>
<svg height="16px" viewBox="0 0 16 16" width="16px" xmlns="http://www.w3.org/2000/svg" xmlns:xlink="http://www.w3.org/1999/xlink">
    <filter id="a" height="100%" width="100%" x="0%" y="0%">
        <feColorMatrix in="SourceGraphic" type="matrix" values="0 0 0 0 1 0 0 0 0 1 0 0 0 0 1 0 0 0 1 0"/>
    </filter>
    <mask id="b">
        <g filter="url(#a)">
            <rect fill-opacity="0.3" height="16" width="16"/>
        </g>
    </mask>
    <clipPath id="c">
        <rect height="152" width="192"/>
    </clipPath>
    <mask id="d">
        <g filter="url(#a)">
            <rect fill-opacity="0.3" height="16" width="16"/>
        </g>
    </mask>
    <clipPath id="e">
        <rect height="152" width="192"/>
    </clipPath>
    <mask id="f">
        <g filter="url(#a)">
            <rect fill-opacity="0.3" height="16" width="16"/>
        </g>
    </mask>
    <clipPath id="g">
        <rect height="152" width="192"/>
    </clipPath>
    <mask id="h">
        <g filter="url(#a)">
            <rect fill-opacity="0.3" height="16" width="16"/>
        </g>
    </mask>
    <clipPath id="i">
        <rect height="152" width="192"/>
    </clipPath>
    <mask id="j">
        <g filter="url(#a)">
            <rect fill-opacity="0.3" height="16" width="16"/>
        </g>
    </mask>
    <clipPath id="k">
        <rect height="152" width="192"/>
    </clipPath>
    <mask id="l">
        <g filter="url(#a)">
            <rect fill-opacity="0.3" height="16" width="16"/>
        </g>
    </mask>
    <clipPath id="m">
        <rect height="152" width="192"/>
    </clipPath>
    <mask id="n">
        <g filter="url(#a)">
            <rect fill-opacity="0.3" height="16" width="16"/>
        </g>
    </mask>
    <clipPath id="o">
        <rect height="152" width="192"/>
    </clipPath>
    <mask id="p">
        <g filter="url(#a)">
            <rect fill-opacity="0.3" height="16" width="16"/>
        </g>
    </mask>
    <clipPath id="q">
        <rect height="152" width="192"/>
    </clipPath>
    <mask id="r">
        <g filter="url(#a)">
            <rect fill-opacity="0.3" height="16" width="16"/>
        </g>
    </mask>
    <clipPath id="s">
        <rect height="152" width="192"/>
    </clipPath>
    <g clip-path="url(#c)" mask="url(#b)" transform="matrix(1 0 0 1 -168 -16)">
        <path d="m 28.921875 37.085938 v 1.828124 h 86.152344 v -1.828124 z m 0 0" fill="#c0bfbc" fill-rule="evenodd"/>
    </g>
    <g clip-path="url(#e)" mask="url(#d)" transform="matrix(1 0 0 1 -168 -16)">
        <path d="m 28.921875 47.085938 v 1.828124 h 86.152344 v -1.828124 z m 0 0" fill="#c0bfbc" fill-rule="evenodd"/>
    </g>
    <g clip-path="url(#g)" mask="url(#f)" transform="matrix(1 0 0 1 -168 -16)">
        <path d="m 28.921875 57.085938 v 1.828124 h 86.152344 v -1.828124 z m 0 0" fill="#c0bfbc" fill-rule="evenodd"/>
    </g>
    <g clip-path="url(#i)" mask="url(#h)" transform="matrix(1 0 0 1 -168 -16)">
        <path d="m 28.921875 67.085938 v 1.828124 h 86.152344 v -1.828124 z m 0 0" fill="#c0bfbc" fill-rule="evenodd"/>
    </g>
    <g clip-path="url(#k)" mask="url(#j)" transform="matrix(1 0 0 1 -168 -16)">
        <path d="m 28.921875 77.085938 v 1.828124 h 86.152344 v -1.828124 z m 0 0" fill="#c0bfbc" fill-rule="evenodd"/>
    </g>
    <g clip-path="url(#m)" mask="url(#l)" transform="matrix(1 0 0 1 -168 -16)">
        <path d="m 28.921875 87.085938 v 1.828124 h 86.152344 v -1.828124 z m 0 0" fill="#c0bfbc" fill-rule="evenodd"/>
    </g>
    <g clip-path="url(#o)" mask="url(#n)" transform="matrix(1 0 0 1 -168 -16)">
        <path d="m 28.921875 97.085938 v 1.828124 h 86.152344 v -1.828124 z m 0 0" fill="#c0bfbc" fill-rule="evenodd"/>
    </g>
    <g clip-path="url(#q)" mask="url(#p)" transform="matrix(1 0 0 1 -168 -16)">
        <path d="m 28.921875 107.085938 v 1.828124 h 86.152344 v -1.828124 z m 0 0" fill="#c0bfbc" fill-rule="evenodd"/>
    </g>
    <g clip-path="url(#s)" mask="url(#r)" transform="matrix(1 0 0 1 -168 -16)">
        <path d="m 28.921875 117.085938 v 1.828124 h 78.972656 v -1.828124 z m 0 0" fill="#c0bfbc" fill-rule="evenodd"/>
    </g>
    <g fill="#2e3436" fill-rule="evenodd">
        <path d="m 1.273438 0.0351562 v 13.9687498 h 13 v -5 h -3 v -2 l 3 -6 v -0.9687498 z m 1.992187 1.9726558 c 0.269531 0 0.527344 0.109376 0.714844 0.300782 l 3.292969 3.296875 l 3.292968 -3.296875 c 0.183594 -0.183594 0.429688 -0.292969 0.6875 -0.300782 c 0.914063 -0.027343 1.382813 1.082032 0.726563 1.714844 l -3.292969 3.296875 l 3.292969 3.292969 c 0.984375 0.941406 -0.46875 2.394531 -1.414063 1.410156 l -3.292968 -3.289062 l -3.292969 3.289062 c -0.941407 0.984375 -2.394531 -0.46875 -1.414063 -1.410156 l 3.292969 -3.292969 l -3.292969 -3.296875 c -0.640625 -0.625 -0.199218 -1.714844 0.699219 -1.714844 z m 0 0"/>
        <path d="m 1.273438 16.003906 h 13 v -1 h -13 z m 0 0"/>
        <path d="m 12.355469 6.695312 l 2.3125 -4.769531 c 0.597656 -0.261719 1.355469 0.121094 1.511719 0.765625 l -2.476563 4.949219 l -1.558594 0.808594 z m 0 0"/>
    </g>
</svg>
