<?xml version="1.0" encoding="UTF-8" standalone="no"?>
<svg
   xmlns:dc="http://purl.org/dc/elements/1.1/"
   xmlns:cc="http://creativecommons.org/ns#"
   xmlns:rdf="http://www.w3.org/1999/02/22-rdf-syntax-ns#"
   xmlns:svg="http://www.w3.org/2000/svg"
   xmlns="http://www.w3.org/2000/svg"
   xmlns:sodipodi="http://sodipodi.sourceforge.net/DTD/sodipodi-0.dtd"
   xmlns:inkscape="http://www.inkscape.org/namespaces/inkscape"
   height="128px"
   viewBox="0 0 128 128"
   width="128px"
   version="1.1"
   id="svg4160"
   sodipodi:docname="com.github.xournalpp.xournalpp.svg"
   inkscape:export-filename="/home/luya/Projects/xournalpp/v3/com.github.xournalpp.xournalpp.png"
   inkscape:export-xdpi="192"
   inkscape:export-ydpi="192"
   inkscape:version="1.0.1 (3bc2e813f5, 2020-09-07)">
  <metadata
     id="metadata4166">
    <rdf:RDF>
      <cc:Work
         rdf:about="">
        <dc:format>image/svg+xml</dc:format>
        <dc:type
           rdf:resource="http://purl.org/dc/dcmitype/StillImage" />
      </cc:Work>
    </rdf:RDF>
  </metadata>
  <defs
     id="defs4164" />
  <sodipodi:namedview
     pagecolor="#ffffff"
     bordercolor="#666666"
     borderopacity="1"
     objecttolerance="10"
     gridtolerance="10"
     guidetolerance="10"
     inkscape:pageopacity="0"
     inkscape:pageshadow="2"
     inkscape:window-width="1920"
     inkscape:window-height="1016"
     id="namedview4162"
     showgrid="false"
     inkscape:zoom="5.7421875"
     inkscape:cx="64"
     inkscape:cy="64"
     inkscape:window-x="0"
     inkscape:window-y="0"
     inkscape:window-maximized="1"
     inkscape:current-layer="svg4160" />
  <linearGradient
     id="a"
     gradientTransform="matrix(0.232143 0 0 0.328947 -8.566925 263.826965)"
     gradientUnits="userSpaceOnUse"
     x1="88.595886"
     x2="536.595886"
     y1="-449.394012"
     y2="-449.394012">
    <stop
       offset="0"
       stop-color="#deddda"
       id="stop4011" />
    <stop
       offset="0.0454546"
       stop-color="#eeeeec"
       id="stop4013" />
    <stop
       offset="0.0909091"
       stop-color="#deddda"
       id="stop4015" />
    <stop
       offset="0.909091"
       stop-color="#deddda"
       id="stop4017" />
    <stop
       offset="0.954545"
       stop-color="#eeeeec"
       id="stop4019" />
    <stop
       offset="1"
       stop-color="#c0bfbc"
       id="stop4021" />
  </linearGradient>
  <filter
     id="b"
     height="100%"
     width="100%"
     x="0%"
     y="0%">
    <feColorMatrix
       in="SourceGraphic"
       type="matrix"
       values="0 0 0 0 1 0 0 0 0 1 0 0 0 0 1 0 0 0 1 0"
       id="feColorMatrix4024" />
  </filter>
  <mask
     id="c">
    <g
       filter="url(#b)"
       id="g4029">
      <rect
         fill-opacity="0.3"
         height="128"
         width="128"
         id="rect4027" />
    </g>
  </mask>
  <clipPath
     id="d">
    <rect
       height="152"
       width="192"
       id="rect4032" />
  </clipPath>
  <mask
     id="e">
    <g
       filter="url(#b)"
       id="g4037">
      <rect
         fill-opacity="0.3"
         height="128"
         width="128"
         id="rect4035" />
    </g>
  </mask>
  <clipPath
     id="f">
    <rect
       height="152"
       width="192"
       id="rect4040" />
  </clipPath>
  <mask
     id="g">
    <g
       filter="url(#b)"
       id="g4045">
      <rect
         fill-opacity="0.3"
         height="128"
         width="128"
         id="rect4043" />
    </g>
  </mask>
  <clipPath
     id="h">
    <rect
       height="152"
       width="192"
       id="rect4048" />
  </clipPath>
  <mask
     id="i">
    <g
       filter="url(#b)"
       id="g4053">
      <rect
         fill-opacity="0.3"
         height="128"
         width="128"
         id="rect4051" />
    </g>
  </mask>
  <clipPath
     id="j">
    <rect
       height="152"
       width="192"
       id="rect4056" />
  </clipPath>
  <mask
     id="k">
    <g
       filter="url(#b)"
       id="g4061">
      <rect
         fill-opacity="0.3"
         height="128"
         width="128"
         id="rect4059" />
    </g>
  </mask>
  <clipPath
     id="l">
    <rect
       height="152"
       width="192"
       id="rect4064" />
  </clipPath>
  <mask
     id="m">
    <g
       filter="url(#b)"
       id="g4069">
      <rect
         fill-opacity="0.3"
         height="128"
         width="128"
         id="rect4067" />
    </g>
  </mask>
  <clipPath
     id="n">
    <rect
       height="152"
       width="192"
       id="rect4072" />
  </clipPath>
  <mask
     id="o">
    <g
       filter="url(#b)"
       id="g4077">
      <rect
         fill-opacity="0.3"
         height="128"
         width="128"
         id="rect4075" />
    </g>
  </mask>
  <clipPath
     id="p">
    <rect
       height="152"
       width="192"
       id="rect4080" />
  </clipPath>
  <mask
     id="q">
    <g
       filter="url(#b)"
       id="g4085">
      <rect
         fill-opacity="0.3"
         height="128"
         width="128"
         id="rect4083" />
    </g>
  </mask>
  <clipPath
     id="r">
    <rect
       height="152"
       width="192"
       id="rect4088" />
  </clipPath>
  <mask
     id="s">
    <g
       filter="url(#b)"
       id="g4093">
      <rect
         fill-opacity="0.3"
         height="128"
         width="128"
         id="rect4091" />
    </g>
  </mask>
  <clipPath
     id="t">
    <rect
       height="152"
       width="192"
       id="rect4096" />
  </clipPath>
  <linearGradient
     id="u"
     gradientTransform="matrix(1.7465 0.863866 -0.331992 0.698898 -100.536515 -239.128476)"
     gradientUnits="userSpaceOnUse"
     x1="156.012192"
     x2="153.584274"
     y1="227.93338"
     y2="228.013672">
    <stop
       offset="0"
       stop-color="#e5a50a"
       id="stop4099" />
    <stop
       offset="1"
       stop-color="#f6d32d"
       id="stop4101" />
  </linearGradient>
  <path
     d="m 20 16 h 88 c 4.417969 0 8 3.582031 8 8 v 84 c 0 4.417969 -3.582031 8 -8 8 h -88 c -4.417969 0 -8 -3.582031 -8 -8 v -84 c 0 -4.417969 3.582031 -8 8 -8 z m 0 0"
     fill="url(#a)"
     id="path4104" />
  <path
     d="m 20 12 h 88 c 4.417969 0 8 3.582031 8 8 v 84 c 0 4.417969 -3.582031 8 -8 8 h -88 c -4.417969 0 -8 -3.582031 -8 -8 v -84 c 0 -4.417969 3.582031 -8 8 -8 z m 0 0"
     fill="#f5f4f3"
     id="path4106" />
  <g
     clip-path="url(#d)"
     mask="url(#c)"
     transform="matrix(1 0 0 1 -8 -16)"
     id="g4110">
    <path
       d="m 28.921875 37.085938 v 1.828124 h 86.152344 v -1.828124 z m 0 0"
       fill="#c0bfbc"
       fill-rule="evenodd"
       id="path4108" />
  </g>
  <g
     clip-path="url(#f)"
     mask="url(#e)"
     transform="matrix(1 0 0 1 -8 -16)"
     id="g4114">
    <path
       d="m 28.921875 47.085938 v 1.828124 h 86.152344 v -1.828124 z m 0 0"
       fill="#c0bfbc"
       fill-rule="evenodd"
       id="path4112" />
  </g>
  <g
     clip-path="url(#h)"
     mask="url(#g)"
     transform="matrix(1 0 0 1 -8 -16)"
     id="g4118">
    <path
       d="m 28.921875 57.085938 v 1.828124 h 86.152344 v -1.828124 z m 0 0"
       fill="#c0bfbc"
       fill-rule="evenodd"
       id="path4116" />
  </g>
  <g
     clip-path="url(#j)"
     mask="url(#i)"
     transform="matrix(1 0 0 1 -8 -16)"
     id="g4122">
    <path
       d="m 28.921875 67.085938 v 1.828124 h 86.152344 v -1.828124 z m 0 0"
       fill="#c0bfbc"
       fill-rule="evenodd"
       id="path4120" />
  </g>
  <g
     clip-path="url(#l)"
     mask="url(#k)"
     transform="matrix(1 0 0 1 -8 -16)"
     id="g4126">
    <path
       d="m 28.921875 77.085938 v 1.828124 h 86.152344 v -1.828124 z m 0 0"
       fill="#c0bfbc"
       fill-rule="evenodd"
       id="path4124" />
  </g>
  <g
     clip-path="url(#n)"
     mask="url(#m)"
     transform="matrix(1 0 0 1 -8 -16)"
     id="g4130">
    <path
       d="m 28.921875 87.085938 v 1.828124 h 86.152344 v -1.828124 z m 0 0"
       fill="#c0bfbc"
       fill-rule="evenodd"
       id="path4128" />
  </g>
  <g
     clip-path="url(#p)"
     mask="url(#o)"
     transform="matrix(1 0 0 1 -8 -16)"
     id="g4134">
    <path
       d="m 28.921875 97.085938 v 1.828124 h 86.152344 v -1.828124 z m 0 0"
       fill="#c0bfbc"
       fill-rule="evenodd"
       id="path4132" />
  </g>
  <g
     clip-path="url(#r)"
     mask="url(#q)"
     transform="matrix(1 0 0 1 -8 -16)"
     id="g4138">
    <path
       d="m 28.921875 107.085938 v 1.828124 h 86.152344 v -1.828124 z m 0 0"
       fill="#c0bfbc"
       fill-rule="evenodd"
       id="path4136" />
  </g>
  <g
     clip-path="url(#t)"
     mask="url(#s)"
     transform="matrix(1 0 0 1 -8 -16)"
     id="g4142">
    <path
       d="m 28.921875 117.085938 v 1.828124 h 78.972656 v -1.828124 z m 0 0"
       fill="#c0bfbc"
       fill-rule="evenodd"
       id="path4140" />
  </g>
  <path
     d="m 75.671875 47.988281 c -3.898437 0 -5.644531 1.476563 -10.886719 9.679688 l -7.394531 11.695312 l -3.496094 -11.964843 c -2.152343 -7.527344 -5.109375 -9.410157 -8.601562 -9.410157 c -3.898438 0 -8.605469 3.359375 -14.65625 10.214844 c -0.671875 0.539063 0.539062 1.75 1.078125 1.078125 c 3.628906 -3.765625 6.71875 -5.511719 9.003906 -5.511719 c 1.882812 0 4.574219 0.9375 6.722656 8.0625 l 4.570313 15.328125 l -9.410157 13.980469 c -2.148437 3.089844 -4.167968 4.03125 -5.914062 4.03125 c -2.6875 0 -2.957031 -2.6875 -6.050781 -2.6875 c -2.148438 0 -3.628907 1.34375 -3.898438 3.226563 c -0.535156 3.628906 3.226563 6.71875 6.722657 6.71875 c 4.035156 0 5.78125 -1.613282 10.890624 -9.8125 l 8.332032 -13.171876 l 4.304687 14.515626 c 2.015625 6.992187 4.570313 8.46875 8.0625 8.46875 c 3.898438 0 8.605469 -3.492188 14.652344 -10.214844 c 0.675781 -0.671875 -0.402344 -1.746094 -1.074219 -1.210938 c -3.628906 3.765625 -6.585937 5.511719 -8.871094 5.511719 c -2.015624 0 -4.4375 -0.539063 -6.320312 -6.855469 l -5.375 -18.148437 l 8.46875 -12.367188 c 2.152344 -2.957031 4.167969 -4.03125 5.914062 -4.03125 c 2.6875 0 2.957032 2.6875 6.050782 2.6875 c 2.148437 0 3.628906 -1.34375 3.898437 -3.226562 c 0.535157 -3.496094 -3.226562 -6.585938 -6.722656 -6.585938 z m 0 0"
     fill="#3d3846"
     id="path4144" />
  <g
     fill-rule="evenodd"
     id="g4158">
    <path
       d="m 80.324219 92.417969 c -0.617188 1.308593 -1.796875 2.023437 -2.632813 1.59375 c -0.839844 -0.429688 -1.015625 -1.839844 -0.402344 -3.152344 c 0.617188 -1.308594 1.796876 -2.023437 2.632813 -1.59375 c 0.839844 0.429687 1.019531 1.839844 0.402344 3.152344 z m 0 0"
       fill="#77767b"
       id="path4146" />
    <path
       d="m 77.476562 90.914062 c -1.609374 -0.785156 0.253907 -9.109374 -0.082031 -14.453124 l 13.15625 6.777343 c -4.320312 3.039063 -8.773437 9.957031 -10.226562 9.179688"
       fill="url(#u)"
       id="path4148" />
    <path
       d="m 110.347656 15.09375 c -1.789062 -0.917969 -3.703125 -0.65625 -4.289062 0.585938 l -17.28125 36.695312 l -10.296875 21.867188 l -1.054688 2.246093 l -0.039062 3.660157 l 8.542969 4.386718 l 4.632812 -1.304687 l 1.054688 -2.246094 l 10.296874 -21.867187 l 17.28125 -36.695313 c 0.585938 -1.242187 -0.386718 -2.984375 -2.175781 -3.902344 z m 0 0"
       fill="#ffbe6f"
       id="path4150" />
    <path
       d="m 111.632812 15.78125 l -18.328124 38.917969 l -10.296876 21.867187 l -2.453124 5.210938 l 4.253906 2.183594 l 3.632812 -1.820313 l 2.121094 1.089844 l 1.054688 -2.246094 l 10.296874 -21.867187 l 17.28125 -36.695313 c 0.585938 -1.242187 -0.074218 -2.730469 -1.25 -3.332031 z m 0 0"
       fill="#ff7800"
       id="path4152" />
    <path
       d="m 86.941406 78.582031 l -2.457031 5.210938 l 3.289063 1.6875 l 2.789062 -2.25 l 1.054688 -2.246094 l 27.578124 -58.5625 c 0.757813 -1.609375 0.457032 -2.550781 -2.226562 -3.929687 l -1.363281 -0.699219"
       fill="#e66100"
       id="path4154" />
    <path
       d="m 110.347656 15.09375 c -1.789062 -0.917969 -3.703125 -0.65625 -4.289062 0.585938 l 13.136718 6.742187 c 1.042969 -1.949219 -0.386718 -2.984375 -2.175781 -3.902344 z m 0 0"
       fill="#3d3846"
       id="path4156" />
  </g>
</svg>
