<svg xmlns="http://www.w3.org/2000/svg" height="128" width="128"><linearGradient id="a" gradientTransform="matrix(.23214 0 0 .32895 -8.567 263.827)" gradientUnits="userSpaceOnUse" x1="88.596" x2="536.596" y1="-449.394" y2="-449.394"><stop offset="0" stop-color="#deddda"/><stop offset=".045" stop-color="#eeeeec"/><stop offset=".091" stop-color="#deddda"/><stop offset=".909" stop-color="#deddda"/><stop offset=".955" stop-color="#eeeeec"/><stop offset="1" stop-color="#c0bfbc"/></linearGradient><linearGradient id="b" gradientTransform="matrix(1.7465 .86387 -.332 .6989 -100.537 -239.128)" gradientUnits="userSpaceOnUse" x1="156.012" x2="153.584" y1="227.933" y2="228.014"><stop offset="0" stop-color="#e5a50a"/><stop offset="1" stop-color="#f6d32d"/></linearGradient><path d="M20 16h88a8 8 0 0 1 8 8v84a8 8 0 0 1-8 8H20a8 8 0 0 1-8-8V24a8 8 0 0 1 8-8zm0 0" fill="url(#a)"/><path d="M20 12h88a8 8 0 0 1 8 8v84a8 8 0 0 1-8 8H20a8 8 0 0 1-8-8V20a8 8 0 0 1 8-8zm0 0" fill="#f5f4f3"/><path d="M20.922 21.086v1.828h86.152v-1.828zM20.922 31.086v1.828h86.152v-1.828zM20.922 41.086v1.828h86.152v-1.828zM20.922 51.086v1.828h86.152v-1.828zM20.922 61.086v1.828h86.152v-1.828zM20.922 71.086v1.828h86.152v-1.828zM20.922 81.086v1.828h86.152v-1.828zM20.922 91.086v1.828h86.152v-1.828zM20.922 101.086v1.828h78.973v-1.828zm0 0" fill="#c0bfbc" fill-rule="evenodd" fill-opacity=".3"/><path d="M75.672 47.988c-3.899 0-5.645 1.477-10.887 9.68l-7.394 11.695-3.496-11.965c-2.153-7.527-5.11-9.41-8.602-9.41-3.898 0-8.605 3.36-14.656 10.215-.672.54.539 1.75 1.078 1.078 3.629-3.765 6.719-5.511 9.004-5.511 1.883 0 4.574.937 6.722 8.062l4.57 15.328-9.41 13.98c-2.148 3.09-4.167 4.032-5.913 4.032-2.688 0-2.958-2.688-6.051-2.688-2.149 0-3.63 1.344-3.899 3.227-.535 3.629 3.227 6.719 6.723 6.719 4.035 0 5.781-1.614 10.89-9.813l8.333-13.172 4.304 14.516c2.016 6.992 4.57 8.469 8.063 8.469 3.898 0 8.605-3.493 14.652-10.215.676-.672-.402-1.746-1.074-1.211-3.629 3.766-6.586 5.512-8.871 5.512-2.016 0-4.438-.54-6.32-6.856l-5.376-18.148 8.47-12.367c2.152-2.958 4.167-4.032 5.913-4.032 2.688 0 2.957 2.688 6.051 2.688 2.149 0 3.629-1.344 3.899-3.227.535-3.496-3.227-6.586-6.723-6.586zm0 0" fill="#3d3846"/><g fill-rule="evenodd"><path d="M80.324 92.418c-.617 1.309-1.797 2.023-2.633 1.594-.84-.43-1.015-1.84-.402-3.153.617-1.308 1.797-2.023 2.633-1.593.84.43 1.02 1.84.402 3.152zm0 0" fill="#77767b"/><path d="M77.477 90.914c-1.61-.785.253-9.11-.082-14.453l13.156 6.777c-4.32 3.04-8.774 9.957-10.227 9.18" fill="url(#b)"/><path d="M110.348 15.094c-1.79-.918-3.703-.656-4.29.586l-17.28 36.695L78.48 74.242l-1.054 2.246-.04 3.66 8.544 4.387 4.632-1.305 1.055-2.246 10.297-21.867 17.281-36.695c.586-1.242-.386-2.985-2.175-3.902zm0 0" fill="#ffbe6f"/><path d="M111.633 15.781 93.305 54.7 83.008 76.566l-2.453 5.211 4.254 2.184 3.632-1.82 2.121 1.09 1.055-2.247 10.297-21.867 17.281-36.695c.586-1.242-.074-2.73-1.25-3.332zm0 0" fill="#ff7800"/><path d="m86.941 78.582-2.457 5.211 3.29 1.687 2.788-2.25 1.055-2.246 27.578-58.562c.758-1.61.457-2.55-2.226-3.93l-1.364-.699" fill="#e66100"/><path d="M110.348 15.094c-1.79-.918-3.703-.656-4.29.586l13.137 6.742c1.043-1.95-.386-2.985-2.175-3.902zm0 0" fill="#3d3846"/></g></svg>