<?xml version="1.0" encoding="UTF-8"?>
<svg xmlns="http://www.w3.org/2000/svg" xmlns:xlink="http://www.w3.org/1999/xlink" width="128px" height="128px" viewBox="0 0 128 128" version="1.1">
<defs>
<linearGradient id="linear0" gradientUnits="userSpaceOnUse" x1="88.595886" y1="-449.394012" x2="536.595886" y2="-449.394012" gradientTransform="matrix(0.232143,0,0,0.328947,-8.566925,263.826965)">
<stop offset="0" style="stop-color:rgb(87.058824%,86.666667%,85.490197%);stop-opacity:1;"/>
<stop offset="0.0454546" style="stop-color:rgb(93.333334%,93.333334%,92.54902%);stop-opacity:1;"/>
<stop offset="0.0909091" style="stop-color:rgb(87.058824%,86.666667%,85.490197%);stop-opacity:1;"/>
<stop offset="0.909091" style="stop-color:rgb(87.058824%,86.666667%,85.490197%);stop-opacity:1;"/>
<stop offset="0.954545" style="stop-color:rgb(93.333334%,93.333334%,92.54902%);stop-opacity:1;"/>
<stop offset="1" style="stop-color:rgb(75.294119%,74.901962%,73.725492%);stop-opacity:1;"/>
</linearGradient>
<filter id="alpha" filterUnits="objectBoundingBox" x="0%" y="0%" width="100%" height="100%">
  <feColorMatrix type="matrix" in="SourceGraphic" values="0 0 0 0 1 0 0 0 0 1 0 0 0 0 1 0 0 0 1 0"/>
</filter>
<mask id="mask0">
  <g filter="url(#alpha)">
<rect x="0" y="0" width="128" height="128" style="fill:rgb(0%,0%,0%);fill-opacity:0.3;stroke:none;"/>
  </g>
</mask>
<clipPath id="clip1">
  <rect x="0" y="0" width="192" height="152"/>
</clipPath>
<g id="surface73485" clip-path="url(#clip1)">
<path style=" stroke:none;fill-rule:evenodd;fill:rgb(75.294119%,74.901962%,73.725492%);fill-opacity:1;" d="M 28.921875 37.085938 L 28.921875 38.914062 L 115.074219 38.914062 L 115.074219 37.085938 Z M 28.921875 37.085938 "/>
</g>
<mask id="mask1">
  <g filter="url(#alpha)">
<rect x="0" y="0" width="128" height="128" style="fill:rgb(0%,0%,0%);fill-opacity:0.3;stroke:none;"/>
  </g>
</mask>
<clipPath id="clip2">
  <rect x="0" y="0" width="192" height="152"/>
</clipPath>
<g id="surface73488" clip-path="url(#clip2)">
<path style=" stroke:none;fill-rule:evenodd;fill:rgb(75.294119%,74.901962%,73.725492%);fill-opacity:1;" d="M 28.921875 47.085938 L 28.921875 48.914062 L 115.074219 48.914062 L 115.074219 47.085938 Z M 28.921875 47.085938 "/>
</g>
<mask id="mask2">
  <g filter="url(#alpha)">
<rect x="0" y="0" width="128" height="128" style="fill:rgb(0%,0%,0%);fill-opacity:0.3;stroke:none;"/>
  </g>
</mask>
<clipPath id="clip3">
  <rect x="0" y="0" width="192" height="152"/>
</clipPath>
<g id="surface73491" clip-path="url(#clip3)">
<path style=" stroke:none;fill-rule:evenodd;fill:rgb(75.294119%,74.901962%,73.725492%);fill-opacity:1;" d="M 28.921875 57.085938 L 28.921875 58.914062 L 115.074219 58.914062 L 115.074219 57.085938 Z M 28.921875 57.085938 "/>
</g>
<mask id="mask3">
  <g filter="url(#alpha)">
<rect x="0" y="0" width="128" height="128" style="fill:rgb(0%,0%,0%);fill-opacity:0.3;stroke:none;"/>
  </g>
</mask>
<clipPath id="clip4">
  <rect x="0" y="0" width="192" height="152"/>
</clipPath>
<g id="surface73494" clip-path="url(#clip4)">
<path style=" stroke:none;fill-rule:evenodd;fill:rgb(75.294119%,74.901962%,73.725492%);fill-opacity:1;" d="M 28.921875 67.085938 L 28.921875 68.914062 L 115.074219 68.914062 L 115.074219 67.085938 Z M 28.921875 67.085938 "/>
</g>
<mask id="mask4">
  <g filter="url(#alpha)">
<rect x="0" y="0" width="128" height="128" style="fill:rgb(0%,0%,0%);fill-opacity:0.3;stroke:none;"/>
  </g>
</mask>
<clipPath id="clip5">
  <rect x="0" y="0" width="192" height="152"/>
</clipPath>
<g id="surface73497" clip-path="url(#clip5)">
<path style=" stroke:none;fill-rule:evenodd;fill:rgb(75.294119%,74.901962%,73.725492%);fill-opacity:1;" d="M 28.921875 77.085938 L 28.921875 78.914062 L 115.074219 78.914062 L 115.074219 77.085938 Z M 28.921875 77.085938 "/>
</g>
<mask id="mask5">
  <g filter="url(#alpha)">
<rect x="0" y="0" width="128" height="128" style="fill:rgb(0%,0%,0%);fill-opacity:0.3;stroke:none;"/>
  </g>
</mask>
<clipPath id="clip6">
  <rect x="0" y="0" width="192" height="152"/>
</clipPath>
<g id="surface73500" clip-path="url(#clip6)">
<path style=" stroke:none;fill-rule:evenodd;fill:rgb(75.294119%,74.901962%,73.725492%);fill-opacity:1;" d="M 28.921875 87.085938 L 28.921875 88.914062 L 115.074219 88.914062 L 115.074219 87.085938 Z M 28.921875 87.085938 "/>
</g>
<mask id="mask6">
  <g filter="url(#alpha)">
<rect x="0" y="0" width="128" height="128" style="fill:rgb(0%,0%,0%);fill-opacity:0.3;stroke:none;"/>
  </g>
</mask>
<clipPath id="clip7">
  <rect x="0" y="0" width="192" height="152"/>
</clipPath>
<g id="surface73503" clip-path="url(#clip7)">
<path style=" stroke:none;fill-rule:evenodd;fill:rgb(75.294119%,74.901962%,73.725492%);fill-opacity:1;" d="M 28.921875 97.085938 L 28.921875 98.914062 L 115.074219 98.914062 L 115.074219 97.085938 Z M 28.921875 97.085938 "/>
</g>
<mask id="mask7">
  <g filter="url(#alpha)">
<rect x="0" y="0" width="128" height="128" style="fill:rgb(0%,0%,0%);fill-opacity:0.3;stroke:none;"/>
  </g>
</mask>
<clipPath id="clip8">
  <rect x="0" y="0" width="192" height="152"/>
</clipPath>
<g id="surface73506" clip-path="url(#clip8)">
<path style=" stroke:none;fill-rule:evenodd;fill:rgb(75.294119%,74.901962%,73.725492%);fill-opacity:1;" d="M 28.921875 107.085938 L 28.921875 108.914062 L 115.074219 108.914062 L 115.074219 107.085938 Z M 28.921875 107.085938 "/>
</g>
<mask id="mask8">
  <g filter="url(#alpha)">
<rect x="0" y="0" width="128" height="128" style="fill:rgb(0%,0%,0%);fill-opacity:0.3;stroke:none;"/>
  </g>
</mask>
<clipPath id="clip9">
  <rect x="0" y="0" width="192" height="152"/>
</clipPath>
<g id="surface73509" clip-path="url(#clip9)">
<path style=" stroke:none;fill-rule:evenodd;fill:rgb(75.294119%,74.901962%,73.725492%);fill-opacity:1;" d="M 28.921875 117.085938 L 28.921875 118.914062 L 107.894531 118.914062 L 107.894531 117.085938 Z M 28.921875 117.085938 "/>
</g>
<linearGradient id="linear1" gradientUnits="userSpaceOnUse" x1="151.877243" y1="230.975113" x2="160.132812" y2="230.975113" gradientTransform="matrix(1.578569,0.386378,-0.246444,0.91135,-88.517754,-226.92001)">
<stop offset="0" style="stop-color:rgb(75.294119%,74.901962%,73.725492%);stop-opacity:1;"/>
<stop offset="1" style="stop-color:rgb(60.392159%,60.000002%,58.823532%);stop-opacity:1;"/>
</linearGradient>
<linearGradient id="linear2" gradientUnits="userSpaceOnUse" x1="154.548386" y1="227.624603" x2="159.770477" y2="228.124863" gradientTransform="matrix(1.578569,0.386378,-0.246444,0.91135,-88.517754,-226.92001)">
<stop offset="0" style="stop-color:rgb(75.294119%,74.901962%,73.725492%);stop-opacity:1;"/>
<stop offset="1" style="stop-color:rgb(60.392159%,60.000002%,58.823532%);stop-opacity:1;"/>
</linearGradient>
<linearGradient id="linear3" gradientUnits="userSpaceOnUse" x1="154.548386" y1="227.624603" x2="159.770477" y2="228.124863" gradientTransform="matrix(1.578569,0.386378,-0.246444,0.91135,-88.517754,-226.92001)">
<stop offset="0" style="stop-color:rgb(90.980393%,90.588236%,89.411765%);stop-opacity:1;"/>
<stop offset="0.511049" style="stop-color:rgb(100%,100%,100%);stop-opacity:1;"/>
<stop offset="1" style="stop-color:rgb(76.078433%,74.901962%,72.941178%);stop-opacity:1;"/>
</linearGradient>
<linearGradient id="linear4" gradientUnits="userSpaceOnUse" x1="145.910141" y1="227.619797" x2="158.450287" y2="228.318146" gradientTransform="matrix(1.578569,0.386378,-0.246444,0.91135,-88.517754,-226.92001)">
<stop offset="0" style="stop-color:rgb(90.980393%,90.588236%,89.411765%);stop-opacity:1;"/>
<stop offset="0.511049" style="stop-color:rgb(100%,100%,100%);stop-opacity:1;"/>
<stop offset="1" style="stop-color:rgb(76.078433%,74.901962%,72.941178%);stop-opacity:1;"/>
</linearGradient>
<linearGradient id="linear5" gradientUnits="userSpaceOnUse" x1="154.548386" y1="227.624603" x2="159.770477" y2="228.124863" gradientTransform="matrix(1.578569,0.386378,-0.246444,0.91135,-88.517754,-226.92001)">
<stop offset="0" style="stop-color:rgb(100%,100%,100%);stop-opacity:1;"/>
<stop offset="1" style="stop-color:rgb(100%,100%,100%);stop-opacity:0.0941176;"/>
</linearGradient>
</defs>
<g id="surface73467">
<path style=" stroke:none;fill-rule:nonzero;fill:url(#linear0);" d="M 20 16 L 108 16 C 112.417969 16 116 19.582031 116 24 L 116 108 C 116 112.417969 112.417969 116 108 116 L 20 116 C 15.582031 116 12 112.417969 12 108 L 12 24 C 12 19.582031 15.582031 16 20 16 Z M 20 16 "/>
<path style=" stroke:none;fill-rule:nonzero;fill:rgb(96.078432%,95.686275%,95.294118%);fill-opacity:1;" d="M 20 12 L 108 12 C 112.417969 12 116 15.582031 116 20 L 116 104 C 116 108.417969 112.417969 112 108 112 L 20 112 C 15.582031 112 12 108.417969 12 104 L 12 20 C 12 15.582031 15.582031 12 20 12 Z M 20 12 "/>
<use xlink:href="#surface73485" transform="matrix(1,0,0,1,-8,-16)" mask="url(#mask0)"/>
<use xlink:href="#surface73488" transform="matrix(1,0,0,1,-8,-16)" mask="url(#mask1)"/>
<use xlink:href="#surface73491" transform="matrix(1,0,0,1,-8,-16)" mask="url(#mask2)"/>
<use xlink:href="#surface73494" transform="matrix(1,0,0,1,-8,-16)" mask="url(#mask3)"/>
<use xlink:href="#surface73497" transform="matrix(1,0,0,1,-8,-16)" mask="url(#mask4)"/>
<use xlink:href="#surface73500" transform="matrix(1,0,0,1,-8,-16)" mask="url(#mask5)"/>
<use xlink:href="#surface73503" transform="matrix(1,0,0,1,-8,-16)" mask="url(#mask6)"/>
<use xlink:href="#surface73506" transform="matrix(1,0,0,1,-8,-16)" mask="url(#mask7)"/>
<use xlink:href="#surface73509" transform="matrix(1,0,0,1,-8,-16)" mask="url(#mask8)"/>
<path style="fill:none;stroke-width:4.40315;stroke-linecap:round;stroke-linejoin:miter;stroke:rgb(100%,47.058824%,0%);stroke-opacity:1;stroke-miterlimit:4;" d="M 40 212 L 88 260 " transform="matrix(1,0,0,1,0,-172)"/>
<path style=" stroke:none;fill-rule:evenodd;fill:rgb(87.058824%,86.666667%,85.490197%);fill-opacity:1;" d="M 106.765625 11.53125 C 104.972656 11.625 103.464844 12.1875 102.835938 13.109375 C 102.421875 14.511719 101.960938 16.085938 101.53125 17.539062 L 101.480469 17.523438 L 100.558594 20.820312 C 96.160156 35.679688 91.242188 52.542969 87.511719 68.738281 L 87.183594 68.652344 L 86.160156 72.304688 C 86.910156 78.355469 86.394531 89.636719 88.402344 90.453125 C 90.523438 91.316406 96.019531 80.640625 99.832031 75.734375 L 100.851562 72.082031 L 100.820312 72.074219 C 105.304688 56.261719 109.699219 40.429688 114.128906 24.605469 C 114.46875 23.386719 114.808594 22.171875 115.148438 20.953125 C 115.304688 20.40625 115.453125 19.859375 115.605469 19.308594 C 117.320312 17.074219 115.886719 13.054688 110.167969 11.886719 C 109.015625 11.578125 107.839844 11.46875 106.765625 11.527344 Z M 106.765625 11.53125 "/>
<path style=" stroke:none;fill-rule:evenodd;fill:url(#linear1);" d="M 109.261719 11.9375 C 114.546875 12.964844 115.835938 16.917969 114.222656 19.175781 C 109.25 37.492188 104.355469 55.828125 99.328125 74.132812 C 98.140625 77.714844 87.621094 75.953125 86.941406 71.992188 C 91.242188 52.132812 97.515625 30.652344 102.457031 13.3125 C 103.402344 11.828125 106.421875 11.195312 109.261719 11.9375 Z M 109.261719 11.9375 "/>
<path style=" stroke:none;fill-rule:evenodd;fill:url(#linear2);" d="M 86.363281 72.40625 L 98.992188 75.496094 C 95.410156 80.449219 90.199219 91.164062 88.242188 90.355469 C 86.390625 89.589844 86.988281 78.390625 86.363281 72.40625 Z M 86.363281 72.40625 "/>
<path style=" stroke:none;fill-rule:evenodd;fill:url(#linear3);" d="M 87.347656 68.761719 L 99.976562 71.851562 L 98.992188 75.496094 L 86.363281 72.40625 Z M 87.347656 68.761719 "/>
<path style=" stroke:none;fill-rule:evenodd;fill:url(#linear4);" d="M 101.148438 17.726562 L 113.777344 20.816406 L 112.792969 24.460938 L 100.164062 21.371094 Z M 101.148438 17.726562 "/>
<path style=" stroke:none;fill-rule:evenodd;fill:url(#linear5);" d="M 98.898438 43.421875 C 101.0625 43.410156 101.632812 44.742188 101.003906 45.671875 C 99.207031 52.640625 97.4375 59.605469 95.617188 66.570312 C 95.179688 67.949219 90.878906 68.074219 90.554688 66.695312 C 92.058594 59.21875 94.351562 51.019531 96.148438 44.410156 C 96.515625 43.804688 97.734375 43.359375 98.898438 43.421875 Z M 98.898438 43.421875 "/>
<path style="fill:none;stroke-width:4.40315;stroke-linecap:round;stroke-linejoin:round;stroke:rgb(100%,47.058824%,0%);stroke-opacity:1;stroke-miterlimit:4;" d="M 88 212 L 40 260 " transform="matrix(1,0,0,1,0,-172)"/>
</g>
</svg>
