<?xml version="1.0" encoding="UTF-8"?>
<svg height="16px" viewBox="0 0 16 16" width="16px" xmlns="http://www.w3.org/2000/svg" xmlns:xlink="http://www.w3.org/1999/xlink">
    <filter id="a" height="100%" width="100%" x="0%" y="0%">
        <feColorMatrix in="SourceGraphic" type="matrix" values="0 0 0 0 1 0 0 0 0 1 0 0 0 0 1 0 0 0 1 0"/>
    </filter>
    <mask id="b">
        <g filter="url(#a)">
            <rect fill-opacity="0.3" height="16" width="16"/>
        </g>
    </mask>
    <clipPath id="c">
        <rect height="152" width="192"/>
    </clipPath>
    <mask id="d">
        <g filter="url(#a)">
            <rect fill-opacity="0.3" height="16" width="16"/>
        </g>
    </mask>
    <clipPath id="e">
        <rect height="152" width="192"/>
    </clipPath>
    <mask id="f">
        <g filter="url(#a)">
            <rect fill-opacity="0.3" height="16" width="16"/>
        </g>
    </mask>
    <clipPath id="g">
        <rect height="152" width="192"/>
    </clipPath>
    <mask id="h">
        <g filter="url(#a)">
            <rect fill-opacity="0.3" height="16" width="16"/>
        </g>
    </mask>
    <clipPath id="i">
        <rect height="152" width="192"/>
    </clipPath>
    <mask id="j">
        <g filter="url(#a)">
            <rect fill-opacity="0.3" height="16" width="16"/>
        </g>
    </mask>
    <clipPath id="k">
        <rect height="152" width="192"/>
    </clipPath>
    <mask id="l">
        <g filter="url(#a)">
            <rect fill-opacity="0.3" height="16" width="16"/>
        </g>
    </mask>
    <clipPath id="m">
        <rect height="152" width="192"/>
    </clipPath>
    <mask id="n">
        <g filter="url(#a)">
            <rect fill-opacity="0.3" height="16" width="16"/>
        </g>
    </mask>
    <clipPath id="o">
        <rect height="152" width="192"/>
    </clipPath>
    <mask id="p">
        <g filter="url(#a)">
            <rect fill-opacity="0.3" height="16" width="16"/>
        </g>
    </mask>
    <clipPath id="q">
        <rect height="152" width="192"/>
    </clipPath>
    <mask id="r">
        <g filter="url(#a)">
            <rect fill-opacity="0.3" height="16" width="16"/>
        </g>
    </mask>
    <clipPath id="s">
        <rect height="152" width="192"/>
    </clipPath>
    <g clip-path="url(#c)" mask="url(#b)" transform="matrix(1 0 0 1 -168 -16)">
        <path d="m 28.921875 37.085938 v 1.828124 h 86.152344 v -1.828124 z m 0 0" fill="#c0bfbc" fill-rule="evenodd"/>
    </g>
    <g clip-path="url(#e)" mask="url(#d)" transform="matrix(1 0 0 1 -168 -16)">
        <path d="m 28.921875 47.085938 v 1.828124 h 86.152344 v -1.828124 z m 0 0" fill="#c0bfbc" fill-rule="evenodd"/>
    </g>
    <g clip-path="url(#g)" mask="url(#f)" transform="matrix(1 0 0 1 -168 -16)">
        <path d="m 28.921875 57.085938 v 1.828124 h 86.152344 v -1.828124 z m 0 0" fill="#c0bfbc" fill-rule="evenodd"/>
    </g>
    <g clip-path="url(#i)" mask="url(#h)" transform="matrix(1 0 0 1 -168 -16)">
        <path d="m 28.921875 67.085938 v 1.828124 h 86.152344 v -1.828124 z m 0 0" fill="#c0bfbc" fill-rule="evenodd"/>
    </g>
    <g clip-path="url(#k)" mask="url(#j)" transform="matrix(1 0 0 1 -168 -16)">
        <path d="m 28.921875 77.085938 v 1.828124 h 86.152344 v -1.828124 z m 0 0" fill="#c0bfbc" fill-rule="evenodd"/>
    </g>
    <g clip-path="url(#m)" mask="url(#l)" transform="matrix(1 0 0 1 -168 -16)">
        <path d="m 28.921875 87.085938 v 1.828124 h 86.152344 v -1.828124 z m 0 0" fill="#c0bfbc" fill-rule="evenodd"/>
    </g>
    <g clip-path="url(#o)" mask="url(#n)" transform="matrix(1 0 0 1 -168 -16)">
        <path d="m 28.921875 97.085938 v 1.828124 h 86.152344 v -1.828124 z m 0 0" fill="#c0bfbc" fill-rule="evenodd"/>
    </g>
    <g clip-path="url(#q)" mask="url(#p)" transform="matrix(1 0 0 1 -168 -16)">
        <path d="m 28.921875 107.085938 v 1.828124 h 86.152344 v -1.828124 z m 0 0" fill="#c0bfbc" fill-rule="evenodd"/>
    </g>
    <g clip-path="url(#s)" mask="url(#r)" transform="matrix(1 0 0 1 -168 -16)">
        <path d="m 28.921875 117.085938 v 1.828124 h 78.972656 v -1.828124 z m 0 0" fill="#c0bfbc" fill-rule="evenodd"/>
    </g>
    <g fill="#241f31" fill-rule="evenodd">
        <path d="m 1.273438 0.0390625 v 13.9648435 h 13 v -5 h -3 v -2 l 3 -6 v -0.9648435 z m 4.339843 2.9257815 c 0.539063 0 0.996094 0.289062 1.328125 1.453125 l 0.539063 1.847656 l 1.144531 -1.804687 c 0.808594 -1.265626 1.078125 -1.496094 1.679688 -1.496094 c 0.539062 0 1.121093 0.476562 1.039062 1.015625 c -0.042969 0.292969 -0.269531 0.5 -0.605469 0.5 c -0.476562 0 -0.515625 -0.414063 -0.933593 -0.414063 c -0.269532 0 -0.578126 0.167969 -0.910157 0.621094 l -1.3125 1.914062 l 0.835938 2.796876 c 0.289062 0.976562 0.660156 1.0625 0.972656 1.0625 c 0.351563 0 0.8125 -0.269532 1.371094 -0.851563 c 0.105469 -0.082031 0.269531 0.082031 0.164062 0.183594 c -0.933593 1.039062 -1.660156 1.582031 -2.261719 1.582031 c -0.539062 0 -0.933593 -0.230469 -1.246093 -1.308594 l -0.664063 -2.242187 l -1.285156 2.03125 c -0.789062 1.269531 -1.0625 1.519531 -1.683594 1.519531 c -0.539062 0 -1.121094 -0.480469 -1.035156 -1.039062 c 0.039062 -0.289063 0.265625 -0.5 0.601562 -0.5 c 0.476563 0 0.515626 0.414062 0.929688 0.414062 c 0.273438 0 0.582031 -0.144531 0.917969 -0.621094 l 1.449219 -2.160156 l -0.703126 -2.363281 c -0.332031 -1.101563 -0.75 -1.25 -1.039062 -1.25 c -0.351562 0 -0.832031 0.273437 -1.390625 0.851562 c -0.082031 0.105469 -0.269531 -0.082031 -0.164063 -0.164062 c 0.933594 -1.058594 1.660157 -1.578125 2.261719 -1.578125 z m 0 0"/>
        <path d="m 1.273438 16.003906 h 13 v -1 h -13 z m 0 0"/>
        <path d="m 12.355469 6.695312 l 2.3125 -4.769531 c 0.597656 -0.261719 1.355469 0.121094 1.511719 0.765625 l -2.476563 4.949219 l -1.558594 0.808594 z m 0 0"/>
    </g>
</svg>
