#define eraserCursor_width 20
#define eraserCursor_height 20
static unsigned char eraserCursor_bits[] = {
   0x00, 0x00, 0x00, 0xc0, 0x3a, 0x00, 0x70, 0xe0, 0x00, 0x18, 0x80, 0x01,
   0x0c, 0x00, 0x03, 0x04, 0x00, 0x06, 0x06, 0x00, 0x06, 0x02, 0x00, 0x0c,
   0x02, 0x00, 0x0c, 0x00, 0x00, 0x08, 0x02, 0x00, 0x0c, 0x02, 0x00, 0x0c,
   0x02, 0x00, 0x0c, 0x06, 0x00, 0x06, 0x04, 0x00, 0x06, 0x0c, 0x00, 0x03,
   0x18, 0x80, 0x01, 0x30, 0xe0, 0x00, 0xe0, 0x75, 0x00, 0x80, 0x1f, 0x00 };
