#define eraserCursor_mask_width 20
#define eraserCursor_mask_height 20
static unsigned char eraserCursor_mask_bits[] = {
   0x00, 0x00, 0x00, 0xc0, 0x3f, 0x00, 0xf0, 0xff, 0x00, 0xf8, 0xff, 0x01,
   0xfc, 0xff, 0x03, 0xfc, 0xff, 0x07, 0xfe, 0xff, 0x07, 0xfe, 0xff, 0x0f,
   0xfe, 0xff, 0x0f, 0xfe, 0xff, 0x0f, 0xfe, 0xff, 0x0f, 0xfe, 0xff, 0x0f,
   0xfe, 0xff, 0x0f, 0xfe, 0xff, 0x07, 0xfc, 0xff, 0x07, 0xfc, 0xff, 0x03,
   0xf8, 0xff, 0x01, 0xf0, 0xff, 0x00, 0xe0, 0x7f, 0x00, 0x80, 0x1f, 0x00 };
