<?xml version="1.0" encoding="UTF-8" standalone="no"?>
<svg
   xmlns:dc="http://purl.org/dc/elements/1.1/"
   xmlns:cc="http://creativecommons.org/ns#"
   xmlns:rdf="http://www.w3.org/1999/02/22-rdf-syntax-ns#"
   xmlns:svg="http://www.w3.org/2000/svg"
   xmlns="http://www.w3.org/2000/svg"
   xmlns:sodipodi="http://sodipodi.sourceforge.net/DTD/sodipodi-0.dtd"
   xmlns:inkscape="http://www.inkscape.org/namespaces/inkscape"
   version="1.0"
   width="22"
   height="22"
   viewBox="0 0 17.6 17.6"
   preserveAspectRatio="xMidYMid meet"
   id="svg2"
   inkscape:version="0.91 r13725"
   sodipodi:docname="object-play.svg">
  <defs
     id="defs12">
    <linearGradient
       id="linearGradient2395"
       y2="43.877998"
       gradientUnits="userSpaceOnUse"
       x2="18.037001"
       gradientTransform="matrix(0.3608068,0,0,0.31393635,-2.1784132,-0.29902998)"
       y1="14.511"
       x1="18.037001">
      <stop
         id="stop2266"
         style="stop-color:#d7e866"
         offset="0" />
      <stop
         id="stop2268"
         style="stop-color:#8cab2a"
         offset="1" />
    </linearGradient>
    <linearGradient
       id="linearGradient2392"
       y2="46.874001"
       gradientUnits="userSpaceOnUse"
       x2="13.759"
       gradientTransform="matrix(0.30016815,0,0,0.28595857,-0.3497084,0.29843031)"
       y1="14.66"
       x1="34.403999">
      <stop
         id="stop4224"
         style="stop-color:#fff"
         offset="0" />
      <stop
         id="stop4226"
         style="stop-color:#fff;stop-opacity:0"
         offset="1" />
    </linearGradient>
    <linearGradient
       id="linearGradient2395-3"
       y2="43.877998"
       gradientUnits="userSpaceOnUse"
       x2="18.037001"
       gradientTransform="matrix(0.61021244,0,0,0.51936283,-21.290976,-16.216856)"
       y1="14.511"
       x1="18.037001">
      <stop
         id="stop2266-6"
         style="stop-color:#d7e866"
         offset="0" />
      <stop
         id="stop2268-7"
         style="stop-color:#8cab2a"
         offset="1" />
    </linearGradient>
    <linearGradient
       id="linearGradient2392-5"
       y2="46.874001"
       gradientUnits="userSpaceOnUse"
       x2="13.759"
       gradientTransform="matrix(0.50765768,0,0,0.47307759,-18.198189,-15.228443)"
       y1="14.66"
       x1="34.403999">
      <stop
         id="stop4224-3"
         style="stop-color:#fff"
         offset="0" />
      <stop
         id="stop4226-5"
         style="stop-color:#fff;stop-opacity:0"
         offset="1" />
    </linearGradient>
    <linearGradient
       id="linearGradient2395-3-3"
       y2="43.877998"
       gradientUnits="userSpaceOnUse"
       x2="18.037001"
       gradientTransform="matrix(0.61021244,0,0,0.51936283,-21.273636,-8.4108414)"
       y1="14.511"
       x1="18.037001">
      <stop
         id="stop2266-6-6"
         style="stop-color:#d7e866"
         offset="0" />
      <stop
         id="stop2268-7-7"
         style="stop-color:#8cab2a"
         offset="1" />
    </linearGradient>
    <linearGradient
       id="linearGradient2392-5-5"
       y2="46.874001"
       gradientUnits="userSpaceOnUse"
       x2="13.759"
       gradientTransform="matrix(0.50765768,0,0,0.47307759,-18.180849,-7.4224284)"
       y1="14.66"
       x1="34.403999">
      <stop
         id="stop4224-3-3"
         style="stop-color:#fff"
         offset="0" />
      <stop
         id="stop4226-5-5"
         style="stop-color:#fff;stop-opacity:0"
         offset="1" />
    </linearGradient>
  </defs>
  <sodipodi:namedview
     pagecolor="#ffffff"
     bordercolor="#666666"
     borderopacity="1"
     objecttolerance="10"
     gridtolerance="10"
     guidetolerance="10"
     inkscape:pageopacity="0"
     inkscape:pageshadow="2"
     inkscape:window-width="1920"
     inkscape:window-height="1176"
     id="namedview10"
     showgrid="false"
     inkscape:zoom="8.689598"
     inkscape:cx="-25.721503"
     inkscape:cy="12.605803"
     inkscape:window-x="0"
     inkscape:window-y="24"
     inkscape:window-maximized="1"
     inkscape:current-layer="svg2" />
  <metadata
     id="metadata4">
Created by potrace 1.11, written by Peter Selinger 2001-2013
<rdf:RDF>
  <cc:Work
     rdf:about="">
    <dc:format>image/svg+xml</dc:format>
    <dc:type
       rdf:resource="http://purl.org/dc/dcmitype/StillImage" />
  </cc:Work>
</rdf:RDF>
</metadata>
  <path
     style="line-height:normal;font-family:'Bitstream Vera Sans';-inkscape-font-specification:'Bitstream Vera Sans';text-indent:0;text-align:start;text-transform:none;block-progression:tb;overflow:visible;fill:#ffffff;fill-opacity:1;stroke:#000000;stroke-width:0.62420827;stroke-opacity:1;enable-background:accumulate"
     d="m 0.69426686,0.37716024 a 0.3578125,0.3578125 0 0 0 -0.3578125,0.3578125 0.3578125,0.3578125 0 0 0 0.00156,0.03125 0.39961847,0.39961847 0 0 0 0,0.00156 0.39961847,0.39961847 0 0 0 -0.00156,0.010937 0.39961847,0.39961847 0 0 0 0,0.035938 0.39961847,0.39961847 0 0 0 0,0.014062 0.39961847,0.39961847 0 0 0 0,0.0125 0.39961847,0.39961847 0 0 0 0,0.0625 l 0,13.12187426 a 0.39961847,0.39961847 0 0 0 0.67499984,0.289063 l 2.8953123,-2.721875 2.3359378,5.393748 a 0.39961847,0.39961847 0 0 0 0.5375005,0.198439 l 1.746874,-0.798439 a 0.39961847,0.39961847 0 0 0 0.2,-0.523436 l -2.4343745,-5.320312 4.0703117,-0.35 a 0.39961847,0.39961847 0 0 0 0.2375,-0.6984376 L 1.0739542,0.61622274 a 0.39961847,0.39961847 0 0 0 -0.0625,-0.0625 0.39961847,0.39961847 0 0 0 -0.026562,-0.028125 0.3578125,0.3578125 0 0 0 -0.00156,0 0.3578125,0.3578125 0 0 0 -0.28906537,-0.1484376 z"
     id="path4"
     inkscape:connector-curvature="0" />
  <g
     transform="matrix(0.55353833,0,0,0.58990746,9.2700106,4.0807403)"
     id="layer1">
    <path
       inkscape:connector-curvature="0"
       id="path3375"
       style="fill:url(#linearGradient2395-3-3);fill-rule:evenodd;stroke:#548820;stroke-linecap:round;stroke-linejoin:round"
       d="m 1.5,14.5 0,-13 13,6.5 -13,6.5 z" />
    <path
       inkscape:connector-curvature="0"
       id="path2294"
       style="opacity:0.41000001;fill:none;stroke:url(#linearGradient2392-5-5);stroke-linecap:round"
       d="M 2.5,12.878 2.5,3.1 12.341,8 2.5,12.878 Z" />
  </g>
</svg>
