<?xml version="1.0" encoding="UTF-8"?>
<svg xmlns="http://www.w3.org/2000/svg" xmlns:xlink="http://www.w3.org/1999/xlink" width="22pt" height="22pt" viewBox="0 0 22 22" version="1.1">
<g id="surface1">
<path style=" stroke:none;fill-rule:nonzero;fill:rgb(0%,0%,0%);fill-opacity:1;" d="M 10.1875 0.230469 C 8.792969 0.355469 7.519531 0.699219 6.328125 1.273438 C 5.125 1.855469 4.359375 2.40625 3.382812 3.386719 C 2.398438 4.367188 1.894531 5.074219 1.292969 6.296875 C 0.785156 7.328125 0.484375 8.304688 0.296875 9.519531 C 0.195312 10.199219 0.195312 11.792969 0.300781 12.46875 C 0.496094 13.761719 0.828125 14.796875 1.375 15.875 C 1.933594 16.96875 2.460938 17.683594 3.382812 18.605469 C 4.347656 19.574219 5.0625 20.085938 6.246094 20.667969 C 7 21.039062 7.496094 21.226562 8.261719 21.429688 C 11.457031 22.269531 14.820312 21.597656 17.523438 19.582031 C 18.039062 19.195312 19.1875 18.042969 19.574219 17.527344 C 21.800781 14.546875 22.375 10.816406 21.144531 7.347656 C 20.773438 6.304688 20.078125 5.078125 19.355469 4.1875 C 18.945312 3.675781 18.015625 2.78125 17.515625 2.40625 C 16.03125 1.292969 14.367188 0.597656 12.507812 0.308594 C 12.082031 0.246094 10.597656 0.191406 10.1875 0.230469 Z M 11.964844 1.089844 C 13.1875 1.210938 14.265625 1.523438 15.394531 2.078125 C 17.386719 3.0625 18.917969 4.59375 19.90625 6.589844 C 20.636719 8.070312 20.976562 9.621094 20.925781 11.289062 C 20.878906 12.808594 20.570312 14.050781 19.90625 15.398438 C 18.625 17.996094 16.292969 19.898438 13.476562 20.632812 C 12.054688 21.003906 10.410156 21.035156 8.914062 20.726562 C 7.832031 20.503906 6.457031 19.9375 5.535156 19.324219 C 3.265625 17.820312 1.722656 15.511719 1.214844 12.851562 C 0.308594 8.132812 2.949219 3.398438 7.445312 1.695312 C 8.863281 1.15625 10.460938 0.941406 11.964844 1.089844 Z M 11.964844 1.089844 "/>
<path style=" stroke:none;fill-rule:nonzero;fill:rgb(0%,0%,0%);fill-opacity:1;" d="M 5.59375 5.15625 L 4.519531 6.230469 L 5.605469 7.320312 L 6.691406 8.402344 L 8.839844 6.253906 L 7.753906 5.164062 L 6.667969 4.082031 Z M 7.167969 6.703125 C 6.917969 6.957031 6.695312 7.160156 6.667969 7.160156 C 6.648438 7.160156 6.425781 6.957031 6.175781 6.707031 L 5.71875 6.253906 L 6.667969 5.304688 L 7.617188 6.253906 Z M 7.167969 6.703125 "/>
<path style=" stroke:none;fill-rule:nonzero;fill:rgb(0%,0%,0%);fill-opacity:1;" d="M 8.828125 8.414062 L 8.539062 8.707031 L 10.515625 10.703125 L 12.496094 12.703125 L 11.410156 12.726562 L 11.410156 13.566406 L 14.023438 13.566406 L 14.023438 10.996094 L 13.140625 10.996094 L 13.140625 12.113281 L 11.144531 10.117188 C 10.054688 9.027344 9.148438 8.128906 9.132812 8.128906 C 9.121094 8.128906 8.984375 8.257812 8.828125 8.414062 Z M 8.828125 8.414062 "/>
<path style=" stroke:none;fill-rule:nonzero;fill:rgb(0%,0%,0%);fill-opacity:1;" d="M 15.085938 14.675781 L 14.023438 15.738281 L 15.097656 16.8125 L 16.175781 17.886719 L 18.324219 15.738281 L 17.261719 14.675781 C 16.675781 14.089844 16.1875 13.609375 16.175781 13.609375 C 16.160156 13.609375 15.671875 14.089844 15.085938 14.675781 Z M 16.652344 15.285156 L 17.101562 15.738281 L 16.152344 16.6875 L 15.691406 16.222656 L 15.226562 15.757812 L 15.691406 15.292969 C 15.941406 15.039062 16.160156 14.832031 16.175781 14.832031 C 16.1875 14.832031 16.402344 15.035156 16.652344 15.285156 Z M 16.652344 15.285156 "/>
</g>
</svg>
