<?xml version="1.0" encoding="UTF-8"?>
<svg xmlns="http://www.w3.org/2000/svg" xmlns:xlink="http://www.w3.org/1999/xlink" width="22pt" height="22pt" viewBox="0 0 22 22" version="1.1">
<g id="surface1">
<path style=" stroke:none;fill-rule:nonzero;fill:rgb(0%,0%,0%);fill-opacity:1;" d="M 21.992188 10.996094 C 21.992188 17.058594 17.058594 21.992188 10.996094 21.992188 C 4.933594 21.992188 0 17.058594 0 10.996094 L 1.941406 10.996094 C 1.941406 15.988281 6.003906 20.054688 10.996094 20.054688 C 15.988281 20.054688 20.050781 15.988281 20.050781 10.996094 C 20.050781 6.003906 15.988281 1.941406 10.996094 1.941406 C 8.800781 1.941406 6.703125 2.730469 5.054688 4.164062 L 7.035156 6.144531 L 0.882812 7.125 L 1.867188 0.976562 L 3.679688 2.789062 C 5.699219 0.992188 8.285156 0 10.996094 0 C 17.058594 0 21.992188 4.933594 21.992188 10.996094 Z M 17.671875 10.835938 L 11 4.164062 L 4.328125 10.835938 L 11 17.503906 Z M 17.671875 10.835938 "/>
</g>
</svg>
