<?xml version="1.0" encoding="UTF-8" standalone="no"?>
<svg
   xmlns:dc="http://purl.org/dc/elements/1.1/"
   xmlns:cc="http://creativecommons.org/ns#"
   xmlns:rdf="http://www.w3.org/1999/02/22-rdf-syntax-ns#"
   xmlns:svg="http://www.w3.org/2000/svg"
   xmlns="http://www.w3.org/2000/svg"
   xmlns:xlink="http://www.w3.org/1999/xlink"
   width="128"
   height="128"
   version="1.0"
   enable-background="new"
   id="svg32">
  <metadata
     id="metadata36">
    <rdf:RDF>
      <cc:Work
         rdf:about="">
        <dc:format>image/svg+xml</dc:format>
        <dc:type
           rdf:resource="http://purl.org/dc/dcmitype/StillImage" />
        <dc:title></dc:title>
      </cc:Work>
    </rdf:RDF>
  </metadata>
  <defs
     id="defs20">
    <linearGradient
       id="a">
      <stop
         offset="0"
         stop-color="#d5d3cf"
         id="stop2" />
      <stop
         offset="1"
         stop-color="#f6f5f4"
         id="stop4" />
    </linearGradient>
    <linearGradient
       id="b">
      <stop
         offset="0"
         stop-color="#d5d3cf"
         id="stop7" />
      <stop
         offset="1"
         stop-color="#949390"
         id="stop9" />
    </linearGradient>
    <linearGradient
       id="c">
      <stop
         offset="0"
         stop-color="#9a9996"
         id="stop12" />
      <stop
         offset="1"
         stop-color="#77767b"
         id="stop14" />
    </linearGradient>
    <filter
       id="d"
       x="-.014"
       width="1.027"
       y="-.011"
       height="1.021"
       color-interpolation-filters="sRGB">
      <feGaussianBlur
         stdDeviation="2"
         id="feGaussianBlur17" />
    </filter>
    <linearGradient
       y2="228.01367"
       x2="153.58427"
       y1="227.93338"
       x1="156.01219"
       gradientUnits="userSpaceOnUse"
       id="linearGradient5381"
       xlink:href="#linearGradient2812"
       gradientTransform="translate(18.108481,-1.9077054)" />
    <linearGradient
       id="linearGradient2812">
      <stop
         style="stop-color:#e5a50a;stop-opacity:1"
         offset="0"
         id="stop2808" />
      <stop
         style="stop-color:#f6d32d;stop-opacity:1"
         offset="1"
         id="stop2810" />
    </linearGradient>
  </defs>
  <g
     stroke-width=".25"
     id="g28">
    <path
       d="M111.828-178.55h200L432-58.88l.005 296.24c0 17.728-14.449 32.089-32.177 32.089h-288c-17.728 0-32-14.272-32-32v-384c0-17.728 14.272-32 32-32z"
       opacity=".4"
       filter="url(#d)"
       enable-background="new"
       transform="matrix(.25 0 0 .25 .02 52.741)"
       id="path22" />
    <path
       d="M27.978 7.823h50l30.043 29.918.001 74.06c0 4.432-3.612 8.022-8.044 8.022h-72c-4.432 0-8-3.568-8-8v-96c0-4.432 3.568-8 8-8z"
       fill="#f6f5f4"
       enable-background="new"
       id="path24" />
    <path
       d="M77.978 7.823v22c0 4.432 3.61 7.924 8.042 7.924l22-.006z"
       fill="#deddda"
       enable-background="new"
       id="path26" />
  </g>
  <g
     id="g955"
     transform="matrix(0.60300743,0,0,0.60300743,-30.370275,49.549806)"
     style="stroke-width:1.65835">
    <g
       aria-label="x"
       id="text1340"
       style="font-style:italic;font-variant:normal;font-weight:normal;font-stretch:normal;font-size:134.429px;line-height:90.0195px;font-family:Cormorant;-inkscape-font-specification:'Cormorant Italic';text-align:center;letter-spacing:0px;word-spacing:0px;text-anchor:middle;display:inline;fill:#3d3846;fill-opacity:1;stroke-width:1.65835;enable-background:new"
       transform="translate(83.377004,-193.25755)">
      <path
         d="m 75.672173,219.98728 c -3.898441,0 -5.646018,1.47871 -10.888749,9.67888 l -7.393595,11.69533 -3.495154,-11.96418 c -2.150864,-7.52803 -5.108302,-9.41003 -8.603456,-9.41003 -3.898441,0 -8.603456,3.36072 -14.652761,10.2166 -0.672145,0.53772 0.537716,1.74758 1.075432,1.07543 3.629583,-3.76401 6.72145,-5.51159 9.006743,-5.51159 1.882006,0 4.570586,0.94101 6.72145,8.06574 l 4.570586,15.32491 -9.41003,13.98061 c -2.150864,3.09187 -4.167299,4.03287 -5.914876,4.03287 -2.68858,0 -2.957438,-2.68858 -6.049305,-2.68858 -2.150864,0 -3.629583,1.34429 -3.898441,3.2263 -0.537716,3.62958 3.226296,6.72145 6.72145,6.72145 4.03287,0 5.780447,-1.61315 10.888749,-9.81332 l 8.334598,-13.17404 4.301728,14.51833 c 2.016435,6.99031 4.570586,8.46903 8.06574,8.46903 3.898441,0 8.603456,-3.49515 14.652761,-10.2166 0.672145,-0.67215 -0.403287,-1.74758 -1.075432,-1.20986 -3.629583,3.76401 -6.587021,5.51158 -8.872314,5.51158 -2.016435,0 -4.436157,-0.53771 -6.318163,-6.85587 l -5.37716,-18.14792 8.469027,-12.36747 c 2.150864,-2.95744 4.167299,-4.03287 5.914876,-4.03287 2.68858,0 2.957438,2.68858 6.049305,2.68858 2.150864,0 3.629583,-1.34429 3.898441,-3.22629 0.537716,-3.49516 -3.226296,-6.58702 -6.72145,-6.58702 z"
         style="fill:#3d3846;stroke-width:1.65835"
         id="path1342" />
    </g>
    <g
       style="display:inline;stroke-width:1.67283;enable-background:new"
       id="g1965"
       transform="matrix(1.1898396,-0.08942619,0.04850899,0.82232376,12.314353,-127.99646)">
      <g
         style="stroke-width:1.67283"
         transform="matrix(0.86602541,0.760358,-0.32879249,0.86602541,90.111797,-69.158518)"
         id="g1362">
        <ellipse
           style="fill:#77767b;fill-rule:evenodd;stroke:none;stroke-width:10.527;stroke-linecap:round;stroke-linejoin:round"
           id="path1954"
           cx="128.27255"
           cy="260.31354"
           rx="1.4204603"
           ry="3.1979713" />
        <g
           style="fill:#5e5c64;fill-opacity:0;stroke-width:1.3507"
           transform="matrix(1.6247826,-0.03535073,-0.00217247,0.9440806,-154.0074,3.5021546)"
           id="g5246">
          <path
             style="opacity:1;vector-effect:none;fill:url(#linearGradient5381);fill-opacity:1;fill-rule:evenodd;stroke:none;stroke-width:1.3507;stroke-linecap:butt;stroke-linejoin:miter;stroke-miterlimit:4;stroke-dasharray:none;stroke-dashoffset:0;stroke-opacity:1"
             d="m 173.32963,278.4628 c -0.91846,0.0136 -1.88825,-10.69781 -3.22158,-16.69781 l 7.59313,0.31188 c -1.33333,6 -1.87465,16.56389 -2.72047,16.49795"
             id="rect5214" />
        </g>
        <path
           id="rect1945"
           style="fill:#ffbe6f;fill-rule:evenodd;stroke:none;stroke-width:10.527;stroke-linecap:round;stroke-linejoin:round"
           d="m 132.875,3.601562 c -1.67728,0 -3.0293,1.350064 -3.0293,3.027344 v 49.486328 29.486328 3.027344 l 1.27195,4 h 8.00735 l 3.0293,-4 V 85.601562 56.115234 6.628906 c 0,-1.67728 -1.35201,-3.027344 -3.0293,-3.027344 z"
           transform="translate(-8,156)" />
        <path
           d="m 126.08753,159.63319 v 52.48204 29.48633 7.02735 h 3.98534 l 2.0961,-4 h 1.98533 v -3.02735 -29.48633 -49.48632 c 0,-1.67728 -1.02762,-2.92279 -2.12687,-2.92279 z"
           style="fill:#ff7800;fill-rule:evenodd;stroke:none;stroke-width:10.527;stroke-linecap:round;stroke-linejoin:round"
           id="path1952" />
        <path
           d="m 129.77077,241.60156 v 7.02735 h 3.07884 l 1.30469,-4 v -3.02735 -78.97265 c 0,-2.16931 -0.56238,-3.02735 -3.07884,-3.02735 h -1.27495"
           style="fill:#e66100;fill-rule:evenodd;stroke:none;stroke-width:10.5269;stroke-linecap:round;stroke-linejoin:round"
           id="path1950" />
        <path
           d="m 124.875,159.60156 c -1.67728,0 -3.0293,1.35007 -3.0293,3.02735 h 12.3086 c 0.0948,-2.69883 -1.35201,-3.02735 -3.0293,-3.02735 z"
           style="fill:#3d3846;fill-opacity:1;fill-rule:evenodd;stroke:none;stroke-width:10.527;stroke-linecap:round;stroke-linejoin:round"
           id="path1956" />
      </g>
    </g>
  </g>
</svg>
