<?xml version="1.0" encoding="UTF-8" standalone="no"?>
<svg
   xmlns:dc="http://purl.org/dc/elements/1.1/"
   xmlns:cc="http://creativecommons.org/ns#"
   xmlns:rdf="http://www.w3.org/1999/02/22-rdf-syntax-ns#"
   xmlns:svg="http://www.w3.org/2000/svg"
   xmlns="http://www.w3.org/2000/svg"
   xmlns:sodipodi="http://sodipodi.sourceforge.net/DTD/sodipodi-0.dtd"
   xmlns:inkscape="http://www.inkscape.org/namespaces/inkscape"
   width="22"
   height="22"
   id="svg2"
   version="1.1"
   inkscape:version="1.1-dev (7fa40cb683, 2020-03-24)"
   sodipodi:docname="thickness_fine.svg">
  <defs
     id="defs4" />
  <sodipodi:namedview
     id="base"
     pagecolor="#ffffff"
     bordercolor="#666666"
     borderopacity="1.0"
     inkscape:pageopacity="0.0"
     inkscape:pageshadow="2"
     inkscape:zoom="31.678384"
     inkscape:cx="20.635324"
     inkscape:cy="13.675005"
     inkscape:document-units="px"
     inkscape:current-layer="layer1"
     showgrid="false"
     inkscape:window-width="1280"
     inkscape:window-height="1000"
     inkscape:window-x="0"
     inkscape:window-y="24"
     inkscape:window-maximized="1" />
  <metadata
     id="metadata7">
    <rdf:RDF>
      <cc:Work
         rdf:about="">
        <dc:format>image/svg+xml</dc:format>
        <dc:type
           rdf:resource="http://purl.org/dc/dcmitype/StillImage" />
        <dc:title></dc:title>
      </cc:Work>
    </rdf:RDF>
  </metadata>
  <g
     inkscape:label="Ebene 1"
     inkscape:groupmode="layer"
     id="layer1"
     transform="translate(0,-1030.3622)">
    <rect
       ry="1.3000001"
       rx="1.5000001"
       y="1033.3544"
       x="29.218365"
       height="4.6382856"
       width="4.6382856"
       id="rect847-5"
       style="fill:#d9d9d9;fill-opacity:1;stroke:#273445;stroke-width:0;stroke-linecap:round" />
    <rect
       style="fill:#727272;fill-opacity:1;stroke:#273445;stroke-width:0;stroke-linecap:round"
       id="rect849"
       width="4.6382856"
       height="4.6382856"
       x="29.232597"
       y="1039.131"
       rx="1.5000001"
       ry="1.3000001" />
    <rect
       style="fill:#b2b2b2;fill-opacity:1;stroke:#273445;stroke-width:0;stroke-linecap:round"
       id="rect851"
       width="4.6382856"
       height="4.6382856"
       x="35.161171"
       y="1033.3544"
       rx="1.5000001"
       ry="1.3000001" />
    <rect
       ry="1.3000001"
       rx="1.5000001"
       y="1039.1075"
       x="35.201031"
       height="4.6382856"
       width="4.6382856"
       id="rect853"
       style="fill:#4d4d4d;fill-opacity:1;stroke:#273445;stroke-width:0;stroke-linecap:round" />
    <rect
       style="fill:#241f31;fill-opacity:1;stroke:#273445;stroke-width:0;stroke-linecap:round"
       id="rect855"
       width="4.6382856"
       height="4.6382856"
       x="35.101379"
       y="1044.8171"
       rx="1.5000001"
       ry="1.3000001" />
    <rect
       style="fill:#ffffff;fill-opacity:1;stroke:#000000;stroke-width:0.1;stroke-linecap:round;stroke-miterlimit:4;stroke-dasharray:none;stroke-opacity:1"
       id="rect857"
       width="4.6382856"
       height="4.6382856"
       x="23.376282"
       y="1033.3544"
       rx="1.5000001"
       ry="1.3000001" />
    <rect
       ry="1.3000001"
       rx="1.5000001"
       y="1039.1324"
       x="23.376282"
       height="4.6382856"
       width="4.6382856"
       id="rect860"
       style="fill:#999999;fill-opacity:1;stroke:none;stroke-width:0.1;stroke-linecap:round;stroke-miterlimit:4;stroke-dasharray:none;stroke-opacity:1" />
    <g
       transform="translate(1.0291905,1.0290155)"
       id="g855">
      <ellipse
         id="path2985"
         style="fill:#d9d9d9;fill-opacity:1;stroke:none;stroke-width:0.34468"
         cx="9.9529524"
         cy="1040.3511"
         rx="2.5871191"
         ry="2.587117" />
      <path
         d="m 7.4364999,1039.9932 a 2.5871191,2.587117 0 0 0 -0.071265,0.3577 2.5871191,2.587117 0 0 0 2.5879175,2.5879 2.5871191,2.587117 0 0 0 2.5865196,-2.5879 2.5871191,2.587117 0 0 0 -0.04891,-0.2417 2.5871191,2.5871169 0 0 1 -2.5376124,2.1142 2.5871191,2.5871169 0 0 1 -2.5166514,-2.2302 z"
         style="fill:#b2b2b2;fill-opacity:1;stroke:none;stroke-width:0.344681"
         id="path851" />
      <path
         d="m 9.9531518,1037.7644 a 2.5871191,2.587117 0 0 0 -2.5879175,2.5865 2.5871191,2.587117 0 0 0 0.071265,0.3577 2.5871191,2.5871169 0 0 1 2.5166519,-2.2287 2.5871191,2.5871169 0 0 1 2.5152548,2.2287 2.5871191,2.587117 0 0 0 0.07127,-0.3577 2.5871191,2.587117 0 0 0 -2.5865205,-2.5865 z"
         style="fill:#ffffff;fill-opacity:1;stroke:none;stroke-width:0.344681"
         id="path856" />
      <ellipse
         style="fill:none;fill-opacity:1;stroke:#241f31;stroke-width:1;stroke-miterlimit:4;stroke-dasharray:none;stroke-opacity:1"
         id="path863"
         cx="9.9529524"
         cy="1040.3511"
         rx="2.5871191"
         ry="2.587117" />
    </g>
  </g>
</svg>
