<?xml version="1.0" encoding="UTF-8" standalone="no"?>
<svg
   xmlns:dc="http://purl.org/dc/elements/1.1/"
   xmlns:cc="http://creativecommons.org/ns#"
   xmlns:rdf="http://www.w3.org/1999/02/22-rdf-syntax-ns#"
   xmlns:svg="http://www.w3.org/2000/svg"
   xmlns="http://www.w3.org/2000/svg"
   xmlns:xlink="http://www.w3.org/1999/xlink"
   xmlns:sodipodi="http://sodipodi.sourceforge.net/DTD/sodipodi-0.dtd"
   xmlns:inkscape="http://www.inkscape.org/namespaces/inkscape"
   width="22"
   height="22"
   id="svg2"
   version="1.1"
   inkscape:version="1.1-dev (7fa40cb683, 2020-03-24)"
   sodipodi:docname="tool_text.svg">
  <defs
     id="defs4">
    <radialGradient
       inkscape:collect="always"
       r="117.14"
       gradientTransform="matrix(-5.587696,0,0,4.0730444,2246.0302,-308.07462)"
       cx="605.71002"
       cy="486.64999"
       gradientUnits="userSpaceOnUse"
       xlink:href="#linearGradient5060"
       id="radialGradient6719" />
    <linearGradient
       inkscape:collect="always"
       id="linearGradient5060">
      <stop
         offset="0"
         style="stop-color:black"
         id="stop5062" />
      <stop
         offset="1"
         style="stop-color:black;stop-opacity:0"
         id="stop5064" />
    </linearGradient>
    <radialGradient
       inkscape:collect="always"
       r="117.14"
       gradientTransform="matrix(5.587696,0,0,4.0730444,-1790.7901,-308.07462)"
       cx="605.71002"
       cy="486.64999"
       gradientUnits="userSpaceOnUse"
       xlink:href="#linearGradient5060"
       id="radialGradient6717" />
    <linearGradient
       inkscape:collect="always"
       x1="302.85999"
       y1="366.64999"
       gradientTransform="matrix(5.587696,0,0,4.0730444,-1791.9986,-308.07462)"
       x2="302.85999"
       gradientUnits="userSpaceOnUse"
       y2="609.51001"
       id="linearGradient6715">
      <stop
         offset="0"
         style="stop-color:black;stop-opacity:0"
         id="stop5050" />
      <stop
         offset=".5"
         style="stop-color:black"
         id="stop5056" />
      <stop
         offset="1"
         style="stop-color:black;stop-opacity:0"
         id="stop5052" />
    </linearGradient>
    <linearGradient
       inkscape:collect="always"
       x1="21.933001"
       y1="24.627001"
       gradientTransform="matrix(2.2134076,0,0,-1.6496482,-3.8564269,82.901592)"
       x2="21.933001"
       gradientUnits="userSpaceOnUse"
       y2="7.1090999"
       id="linearGradient7671">
      <stop
         offset="0"
         style="stop-color:#8595bc"
         id="stop7650" />
      <stop
         offset="1"
         style="stop-color:#041a3b"
         id="stop7652" />
    </linearGradient>
    <linearGradient
       inkscape:collect="always"
       x1="21.933001"
       y1="24.627001"
       gradientTransform="matrix(2.2134076,0,0,2.2884897,-3.8564269,-4.4578402)"
       x2="21.933001"
       gradientUnits="userSpaceOnUse"
       y2="7.1090999"
       id="linearGradient7673">
      <stop
         offset="0"
         style="stop-color:#D0D6E5;stroke-width:1.2167"
         id="stop16199" />
      <stop
         offset="1"
         style="stop-color:#093A80;stroke-width:1.2167"
         id="stop16201" />
    </linearGradient>
    <linearGradient
       inkscape:collect="always"
       x1="12.487"
       y1="3.7319"
       gradientTransform="matrix(1.434,0,0,0.99009,52.286378,5.1263289)"
       x2="31.080999"
       gradientUnits="userSpaceOnUse"
       y2="36.033001"
       id="linearGradient8148">
      <stop
         offset="0"
         style="stop-color:#D2D2D2;stroke-width:1.2167"
         id="stop16177" />
      <stop
         offset="1"
         style="stop-color:#EDEDED;stroke-width:1.2167"
         id="stop16179" />
    </linearGradient>
    <radialGradient
       inkscape:collect="always"
       r="19.969"
       gradientTransform="matrix(1.7105,0,0,1.1248,-11.60362,4.0900289)"
       cx="12.7"
       cy="10.405"
       gradientUnits="userSpaceOnUse"
       id="radialGradient8161">
      <stop
         offset="0"
         style="stop-color:#ffffff"
         id="stop8157" />
      <stop
         offset="1"
         style="stop-color:#ffffff;stop-opacity:0"
         id="stop8159" />
    </radialGradient>
    <linearGradient
       inkscape:collect="always"
       x1="33.396"
       y1="36.921001"
       gradientTransform="translate(5.1119795,-1.1223716)"
       x2="34.169998"
       gradientUnits="userSpaceOnUse"
       y2="38.07"
       id="linearGradient8166">
      <stop
         offset="0"
         style="stop-color:#ffffff"
         id="stop2253" />
      <stop
         offset="1"
         style="stop-color:#ffffff;stop-opacity:0"
         id="stop2255" />
    </linearGradient>
    <linearGradient
       inkscape:collect="always"
       x1="35.997002"
       y1="40.458"
       gradientTransform="translate(5.1119795,-0.74737173)"
       x2="33.665001"
       gradientUnits="userSpaceOnUse"
       y2="37.771"
       id="linearGradient8169">
      <stop
         offset="0"
         style="stop-color:#7c7c7c"
         id="stop2226" />
      <stop
         offset="1"
         style="stop-color:#b8b8b8"
         id="stop2228" />
    </linearGradient>
    <linearGradient
       gradientTransform="translate(-0.03561996,2.2874287)"
       inkscape:collect="always"
       x1="42.188"
       y1="31"
       x2="45"
       gradientUnits="userSpaceOnUse"
       y2="39.985001"
       id="linearGradient8177">
      <stop
         offset="0"
         style="stop-color:#bbbdba"
         id="stop8173" />
      <stop
         offset="1"
         style="stop-color:#70746e"
         id="stop8175" />
    </linearGradient>
    <clipPath
       id="clipPath1027"
       clipPathUnits="userSpaceOnUse">
      <rect
         style="opacity:1;fill:#8cd5ff;fill-opacity:1;stroke:#000000;stroke-width:1.05890512;stroke-linecap:round;stroke-linejoin:round;stroke-miterlimit:4;stroke-dasharray:none;stroke-opacity:1"
         id="rect1029"
         width="20.298611"
         height="13.951644"
         x="0.86882812"
         y="3.5739653" />
    </clipPath>
    <clipPath
       id="clipPath1033"
       clipPathUnits="userSpaceOnUse">
      <rect
         style="opacity:1;fill:#8cd5ff;fill-opacity:1;stroke:#000000;stroke-width:1.05890512;stroke-linecap:round;stroke-linejoin:round;stroke-miterlimit:4;stroke-dasharray:none;stroke-opacity:1"
         id="rect1035"
         width="20.298611"
         height="13.951644"
         x="0.86882812"
         y="3.5739653" />
    </clipPath>
  </defs>
  <sodipodi:namedview
     id="base"
     pagecolor="#ffffff"
     bordercolor="#666666"
     borderopacity="1.0"
     inkscape:pageopacity="0.0"
     inkscape:pageshadow="2"
     inkscape:zoom="20.48"
     inkscape:cx="37.275761"
     inkscape:cy="15.508482"
     inkscape:document-units="px"
     inkscape:current-layer="layer1"
     showgrid="false"
     inkscape:window-width="2560"
     inkscape:window-height="1377"
     inkscape:window-x="0"
     inkscape:window-y="30"
     inkscape:window-maximized="1"
     inkscape:lockguides="true"
     inkscape:object-paths="true"
     inkscape:snap-intersection-paths="true"
     inkscape:snap-nodes="false" />
  <metadata
     id="metadata7">
    <rdf:RDF>
      <cc:Work
         rdf:about="">
        <dc:format>image/svg+xml</dc:format>
        <dc:type
           rdf:resource="http://purl.org/dc/dcmitype/StillImage" />
        <dc:title />
      </cc:Work>
    </rdf:RDF>
  </metadata>
  <g
     inkscape:label="Ebene 1"
     inkscape:groupmode="layer"
     id="layer1"
     transform="translate(0,-1030.3622)">
    <path
       style="fill:none;stroke:#727272;stroke-width:3.00000048;stroke-linecap:round;stroke-linejoin:miter;stroke-miterlimit:4;stroke-dasharray:none;stroke-opacity:1"
       d="m 11.128739,1035.6322 v 12.6077"
       id="path826"
       inkscape:connector-curvature="0" />
    <flowRoot
       xml:space="preserve"
       id="flowRoot2989"
       style="font-style:normal;font-weight:normal;line-height:0.01%;font-family:'Bitstream Vera Sans';letter-spacing:0px;word-spacing:0px;fill:#000000;fill-opacity:1;stroke:none;stroke-width:1px;stroke-linecap:butt;stroke-linejoin:miter;stroke-opacity:1"><flowRegion
         id="flowRegion2991"><rect
           id="rect2993"
           width="387.5"
           height="400"
           x="-3.125"
           y="-921.75" /></flowRegion><flowPara
         id="flowPara2995"
         style="font-size:40px;line-height:1.25"> </flowPara></flowRoot>
    <flowRoot
       xml:space="preserve"
       id="flowRoot2997"
       style="font-style:normal;font-weight:normal;line-height:0.01%;font-family:'Bitstream Vera Sans';letter-spacing:0px;word-spacing:0px;fill:#000000;fill-opacity:1;stroke:none;stroke-width:1px;stroke-linecap:butt;stroke-linejoin:miter;stroke-opacity:1"><flowRegion
         id="flowRegion2999"><rect
           id="rect3001"
           width="50.195312"
           height="41.015625"
           x="-11.71875"
           y="-5.1484375" /></flowRegion><flowPara
         id="flowPara3003"
         style="font-size:40px;line-height:1.25"> </flowPara></flowRoot>
    <path
       style="color:#000000;font-style:normal;font-variant:normal;font-weight:normal;font-stretch:normal;font-size:medium;line-height:normal;font-family:sans-serif;font-variant-ligatures:normal;font-variant-position:normal;font-variant-caps:normal;font-variant-numeric:normal;font-variant-alternates:normal;font-feature-settings:normal;text-indent:0;text-align:start;text-decoration:none;text-decoration-line:none;text-decoration-style:solid;text-decoration-color:#000000;letter-spacing:normal;word-spacing:normal;text-transform:none;writing-mode:lr-tb;direction:ltr;text-orientation:mixed;dominant-baseline:auto;baseline-shift:baseline;text-anchor:start;white-space:normal;shape-padding:0;clip-rule:nonzero;display:inline;overflow:visible;visibility:visible;opacity:1;isolation:auto;mix-blend-mode:normal;color-interpolation:sRGB;color-interpolation-filters:linearRGB;solid-color:#000000;solid-opacity:1;vector-effect:none;fill:none;fill-opacity:1;fill-rule:nonzero;stroke:#241f31;stroke-width:1;stroke-linecap:round;stroke-linejoin:miter;stroke-miterlimit:4;stroke-dasharray:none;stroke-dashoffset:0;stroke-opacity:1;color-rendering:auto;image-rendering:auto;shape-rendering:auto;text-rendering:auto;enable-background:accumulate"
       d="m 11.106259,1034.1619 a 1.449585,1.4495524 0 0 0 -1.4267921,1.4703 v 12.6067 a 1.449585,1.4495524 0 1 0 2.8988791,0 v -12.6067 a 1.449585,1.4495524 0 0 0 -1.472087,-1.4703 z"
       id="path1013"
       inkscape:connector-curvature="0" />
    <path
       style="fill:none;stroke:#727272;stroke-width:3.00000024;stroke-linecap:round;stroke-linejoin:miter;stroke-miterlimit:4;stroke-dasharray:none;stroke-opacity:1"
       d="M 17.515849,1035.6322 H 4.7416318"
       id="path824"
       inkscape:connector-curvature="0"
       sodipodi:nodetypes="cc" />
    <flowRoot
       style="font-style:normal;font-weight:normal;line-height:0.01%;font-family:'Bitstream Vera Sans';letter-spacing:0px;word-spacing:0px;fill:#000000;fill-opacity:1;stroke:none;stroke-width:1px;stroke-linecap:butt;stroke-linejoin:miter;stroke-opacity:1"
       id="flowRoot2989-5"
       xml:space="preserve"
       transform="translate(-22.648004,-3.4612)"><flowRegion
         id="flowRegion2991-6"><rect
           y="-921.75"
           x="-3.125"
           height="400"
           width="387.5"
           id="rect2993-29" /></flowRegion><flowPara
         style="font-size:40px;line-height:1.25"
         id="flowPara2995-1"> </flowPara></flowRoot>
    <flowRoot
       style="font-style:normal;font-weight:normal;line-height:0.01%;font-family:'Bitstream Vera Sans';letter-spacing:0px;word-spacing:0px;fill:#000000;fill-opacity:1;stroke:none;stroke-width:1px;stroke-linecap:butt;stroke-linejoin:miter;stroke-opacity:1"
       id="flowRoot2997-2"
       xml:space="preserve"
       transform="translate(-22.648004,-3.4612)"><flowRegion
         id="flowRegion2999-70"><rect
           y="-5.1484375"
           x="-11.71875"
           height="41.015625"
           width="50.195312"
           id="rect3001-9" /></flowRegion><flowPara
         style="font-size:40px;line-height:1.25"
         id="flowPara3003-3"> </flowPara></flowRoot>
    <g
       inkscape:label="Ebene 1"
       id="layer1-7"
       transform="translate(1.489761,948.32512)">
      <g
         style="font-style:normal;font-variant:normal;font-weight:normal;font-stretch:normal;font-size:28px;line-height:125%;font-family:'URW Bookman L';-inkscape-font-specification:'URW Bookman L';text-align:start;letter-spacing:0px;word-spacing:0px;writing-mode:lr-tb;text-anchor:start;fill:#5b5b5b;fill-opacity:1;stroke:#313131;stroke-width:1;stroke-linecap:round;stroke-linejoin:round;stroke-miterlimit:1;stroke-dasharray:none;stroke-opacity:1"
         id="text2985">
        <path
           inkscape:connector-curvature="0"
           d="M 19.480701,1032.2986 H 3.2407015 l -1.596,4.928 0.924,0.336 c 1.6519983,-2.912 3.5840026,-4.2 6.16,-4.2 0.9239991,0 1.232,0.28 1.232,1.12 v 12.852 c 0,2.268 -0.4200014,2.968 -1.82,3.08 l -1.092,0.084 v 0.868 h 8.6239995 v -0.868 l -1.092,-0.084 c -1.399998,-0.112 -1.82,-0.812 -1.82,-3.08 v -12.74 c 0,-0.98 0.224001,-1.232 1.148,-1.232 2.463998,0 4.592002,1.456 6.16,4.2 l 0.98,-0.336 -1.568,-4.928"
           style="line-height:125%;font-family:'URW Bookman L';-inkscape-font-specification:'URW Bookman L';fill:#5b5b5b;fill-opacity:1;stroke:#313131;stroke-width:1;stroke-linecap:round;stroke-linejoin:round;stroke-miterlimit:1;stroke-dasharray:none;stroke-opacity:1"
           id="path3006" />
      </g>
      <flowRoot
         xml:space="preserve"
         id="flowRoot2989-2"
         style="font-style:normal;font-weight:normal;line-height:0.01%;font-family:'Bitstream Vera Sans';letter-spacing:0px;word-spacing:0px;fill:#000000;fill-opacity:1;stroke:none;stroke-width:1px;stroke-linecap:butt;stroke-linejoin:miter;stroke-opacity:1"><flowRegion
           id="flowRegion2991-7"><rect
             id="rect2993-2"
             width="387.5"
             height="400"
             x="-3.125"
             y="-921.75" /></flowRegion><flowPara
           id="flowPara2995-2"
           style="font-size:40px;line-height:1.25"> </flowPara></flowRoot>
      <flowRoot
         xml:space="preserve"
         id="flowRoot2997-6"
         style="font-style:normal;font-weight:normal;line-height:0.01%;font-family:'Bitstream Vera Sans';letter-spacing:0px;word-spacing:0px;fill:#000000;fill-opacity:1;stroke:none;stroke-width:1px;stroke-linecap:butt;stroke-linejoin:miter;stroke-opacity:1"><flowRegion
           id="flowRegion2999-1"><rect
             id="rect3001-0"
             width="50.195312"
             height="41.015625"
             x="-11.71875"
             y="-5.1484375" /></flowRegion><flowPara
           id="flowPara3003-6"
           style="font-size:40px;line-height:1.25"> </flowPara></flowRoot>
    </g>
    <g
       inkscape:label="Ebene 1"
       id="layer1-0"
       transform="translate(13.452652,965.75676)">
      <g
         style="font-style:normal;font-variant:normal;font-weight:normal;font-stretch:normal;font-size:28px;line-height:125%;font-family:'URW Bookman L';-inkscape-font-specification:'URW Bookman L';text-align:start;letter-spacing:0px;word-spacing:0px;writing-mode:lr-tb;text-anchor:start;fill:#5b5b5b;fill-opacity:1;stroke:#313131;stroke-width:1;stroke-linecap:round;stroke-linejoin:round;stroke-miterlimit:1;stroke-dasharray:none;stroke-opacity:1"
         id="text2985-9">
        <path
           inkscape:connector-curvature="0"
           d="M 19.480701,1032.2986 H 3.2407015 l -1.596,4.928 0.924,0.336 c 1.6519983,-2.912 3.5840026,-4.2 6.16,-4.2 0.9239991,0 1.232,0.28 1.232,1.12 v 12.852 c 0,2.268 -0.4200014,2.968 -1.82,3.08 l -1.092,0.084 v 0.868 h 8.6239995 v -0.868 l -1.092,-0.084 c -1.399998,-0.112 -1.82,-0.812 -1.82,-3.08 v -12.74 c 0,-0.98 0.224001,-1.232 1.148,-1.232 2.463998,0 4.592002,1.456 6.16,4.2 l 0.98,-0.336 -1.568,-4.928"
           style="line-height:125%;font-family:'URW Bookman L';-inkscape-font-specification:'URW Bookman L';fill:#5b5b5b;fill-opacity:1;stroke:#313131;stroke-width:1;stroke-linecap:round;stroke-linejoin:round;stroke-miterlimit:1;stroke-dasharray:none;stroke-opacity:1"
           id="path3006-1" />
      </g>
      <flowRoot
         xml:space="preserve"
         id="flowRoot2989-7"
         style="font-style:normal;font-weight:normal;line-height:0.01%;font-family:'Bitstream Vera Sans';letter-spacing:0px;word-spacing:0px;fill:#000000;fill-opacity:1;stroke:none;stroke-width:1px;stroke-linecap:butt;stroke-linejoin:miter;stroke-opacity:1"><flowRegion
           id="flowRegion2991-71"><rect
             id="rect2993-1"
             width="387.5"
             height="400"
             x="-3.125"
             y="-921.75" /></flowRegion><flowPara
           id="flowPara2995-5"
           style="font-size:40px;line-height:1.25"> </flowPara></flowRoot>
      <flowRoot
         xml:space="preserve"
         id="flowRoot2997-9"
         style="font-style:normal;font-weight:normal;line-height:0.01%;font-family:'Bitstream Vera Sans';letter-spacing:0px;word-spacing:0px;fill:#000000;fill-opacity:1;stroke:none;stroke-width:1px;stroke-linecap:butt;stroke-linejoin:miter;stroke-opacity:1"><flowRegion
           id="flowRegion2999-7"><rect
             id="rect3001-7"
             width="50.195312"
             height="41.015625"
             x="-11.71875"
             y="-5.1484375" /></flowRegion><flowPara
           id="flowPara3003-67"
           style="font-size:40px;line-height:1.25"> </flowPara></flowRoot>
    </g>
    <g
       id="text2985-3"
       style="font-style:normal;font-variant:normal;font-weight:normal;font-stretch:normal;font-size:28px;line-height:125%;font-family:'URW Bookman L';-inkscape-font-specification:'URW Bookman L';text-align:start;letter-spacing:0px;word-spacing:0px;writing-mode:lr-tb;text-anchor:start;fill:#5b5b5b;fill-opacity:1;stroke:#313131;stroke-width:1;stroke-linecap:round;stroke-linejoin:round;stroke-miterlimit:1;stroke-dasharray:none;stroke-opacity:1"
       transform="translate(-16.320705,-3.9827)" />
    <path
       style="color:#000000;font-style:normal;font-variant:normal;font-weight:normal;font-stretch:normal;font-size:medium;line-height:normal;font-family:sans-serif;font-variant-ligatures:normal;font-variant-position:normal;font-variant-caps:normal;font-variant-numeric:normal;font-variant-alternates:normal;font-feature-settings:normal;text-indent:0;text-align:start;text-decoration:none;text-decoration-line:none;text-decoration-style:solid;text-decoration-color:#000000;letter-spacing:normal;word-spacing:normal;text-transform:none;writing-mode:lr-tb;direction:ltr;text-orientation:mixed;dominant-baseline:auto;baseline-shift:baseline;text-anchor:start;white-space:normal;shape-padding:0;clip-rule:nonzero;display:inline;overflow:visible;visibility:visible;opacity:1;isolation:auto;mix-blend-mode:normal;color-interpolation:sRGB;color-interpolation-filters:linearRGB;solid-color:#000000;solid-opacity:1;vector-effect:none;fill:none;fill-opacity:1;fill-rule:nonzero;stroke:#241f31;stroke-width:1;stroke-linecap:round;stroke-linejoin:miter;stroke-miterlimit:4;stroke-dasharray:none;stroke-dashoffset:0;stroke-opacity:1;color-rendering:auto;image-rendering:auto;shape-rendering:auto;text-rendering:auto;enable-background:accumulate"
       d="M 12.587621,1037.0815 H 17.5155 c 1.961183,0.029 1.961183,-2.9276 0,-2.8988 H 4.7423128 c -1.9611829,-0.029 -1.9611829,2.9275 0,2.8988 h 4.9346771"
       id="path1005"
       inkscape:connector-curvature="0"
       sodipodi:nodetypes="cccccc" />
    <g
       transform="translate(45.212718,1027.9649)"
       id="layer1-6"
       inkscape:label="Layer 1"
       style="display:none">
      <g
         id="g4189"
         transform="translate(0.03561996,-2.2874287)">
        <g
           transform="matrix(0.01079979,0,0,0.01205745,20.57036,18.049257)"
           id="g6707">
          <rect
             x="-1559.3"
             y="-150.7"
             width="1339.6"
             height="478.35999"
             style="color:#000000;opacity:0.40206;fill:url(#linearGradient6715)"
             id="rect6709" />
          <path
             inkscape:connector-curvature="0"
             d="m -219.62,-150.68 v 478.33 c 142.88,0.9 345.4,-107.17 345.4,-239.2 0,-132.02 -159.44,-239.13 -345.4,-239.13 z"
             style="color:#000000;opacity:0.40206;fill:url(#radialGradient6717)"
             sodipodi:nodetypes="cccc"
             id="path6711" />
          <path
             inkscape:connector-curvature="0"
             d="m -1559.3,-150.68 v 478.33 c -142.8,0.9 -345.4,-107.17 -345.4,-239.2 0,-132.02 159.5,-239.13 345.4,-239.13 z"
             style="color:#000000;opacity:0.40206;fill:url(#radialGradient6719)"
             sodipodi:nodetypes="cccc"
             id="path6713" />
        </g>
        <path
           inkscape:connector-curvature="0"
           d="M 0.86240796,4.8199615 H 21.051885 c 0.309331,0 0.558584,0.2426191 0.558584,0.5440431 V 16.922386 c 0,0.301279 -4.199066,3.87794 -4.508397,3.87794 H 0.86240796 c -0.30957938,0 -0.55868318,-0.242763 -0.55868318,-0.544043 V 5.3640046 c 0,-0.3015208 0.2491038,-0.5441398 0.55858418,-0.5441398 z"
           style="color:#000000;fill:url(#linearGradient8148);stroke:#bbbfbb;stroke-width:0.490014"
           sodipodi:nodetypes="ccccccccc"
           id="rect7603" />
        <g
           transform="matrix(0.52372876,0,0,0.50777374,-0.89152169,3.8673779)"
           id="g7654">
          <path
             inkscape:connector-curvature="0"
             d="m 5.5127,30 h 34.13 V 19.627 H 5.5127 L 5.5124,30 Z"
             style="fill:url(#linearGradient7671)"
             id="path7644" />
          <path
             inkscape:connector-curvature="0"
             d="m 5.5127,5.2378 h 34.13 v 14.389 h -34.13 l -3e-4,-14.389 z"
             style="fill:url(#linearGradient7673)"
             id="path16203" />
          <g
             transform="matrix(1.1892,0,0,1.1892,-3.5254,-6.5354)"
             style="stroke:#000000;stroke-width:1.1561"
             id="g16205">
            <g
               id="g16207">
              <path
                 inkscape:connector-curvature="0"
                 d="m 18.4,15.4 c 0,2.2 -1.8,4.1 -4.1,4.1 -2.2,0 -4.1,-1.8 -4.1,-4.1 0,-2.2 1.8,-4.1 4.1,-4.1 2.2,0 4.1,1.8 4.1,4.1 z"
                 style="opacity:0.05;fill:#e8f52f"
                 id="path16209" />
              <path
                 inkscape:connector-curvature="0"
                 d="m 18,15.4 c 0,2 -1.6,3.7 -3.7,3.7 -2,0 -3.7,-1.6 -3.7,-3.7 0,-2 1.6,-3.7 3.7,-3.7 2,0 3.7,1.6 3.7,3.7 z"
                 style="opacity:0.2083;fill:#ecf751"
                 id="path16211" />
              <path
                 inkscape:connector-curvature="0"
                 d="m 17.6,15.4 c 0,1.8 -1.5,3.3 -3.3,3.3 -1.8,0 -3.3,-1.5 -3.3,-3.3 0,-1.8 1.5,-3.3 3.3,-3.3 1.8,0 3.3,1.5 3.3,3.3 z"
                 style="opacity:0.3667;fill:#f0f972"
                 id="path16213" />
              <path
                 inkscape:connector-curvature="0"
                 d="m 17.2,15.4 c 0,1.6 -1.3,2.9 -2.9,2.9 -1.6,0 -2.9,-1.3 -2.9,-2.9 0,-1.6 1.3,-2.9 2.9,-2.9 1.6,0 2.9,1.3 2.9,2.9 z"
                 style="opacity:0.525;fill:#f4fa95"
                 id="path16215" />
              <path
                 inkscape:connector-curvature="0"
                 d="m 16.8,15.4 c 0,1.4 -1.1,2.5 -2.5,2.5 -1.4,0 -2.5,-1.1 -2.5,-2.5 0,-1.4 1.1,-2.5 2.5,-2.5 1.4,0 2.5,1.1 2.5,2.5 z"
                 style="opacity:0.6833;fill:#f7fcb7"
                 id="path16217" />
              <path
                 inkscape:connector-curvature="0"
                 d="m 16.4,15.4 c 0,1.2 -1,2.1 -2.1,2.1 -1.1,0 -2.1,-1 -2.1,-2.1 0,-1.1 1,-2.1 2.1,-2.1 1.1,0 2.1,1 2.1,2.1 z"
                 style="opacity:0.8417;fill:#fbfddb"
                 id="path16219" />
              <path
                 inkscape:connector-curvature="0"
                 d="m 16,15.4 c 0,1 -0.8,1.8 -1.8,1.8 -1,0 -1.8,-0.8 -1.8,-1.8 0,-1 0.8,-1.8 1.8,-1.8 1,0 1.8,0.8 1.8,1.8 z"
                 style="fill:#ffffff"
                 id="path16221" />
            </g>
          </g>
          <path
             inkscape:connector-curvature="0"
             d="m 25.016,21.649 h 8.681 l 1.665,0.476 h -2.854 c 0,0 2.854,0.238 4.281,2.021 1.427,1.665 -1.665,3.687 -1.665,3.687 -0.119,-0.357 -0.832,-3.211 -2.259,-4.4 -1.071,-0.952 -2.26,-1.189 -2.26,-1.189 h -5.589 v -0.476 z"
             style="opacity:0.3"
             id="path16223" />
          <path
             inkscape:connector-curvature="0"
             d="m 30.724,22.363 h -4.995 l 9.276,5.232 z"
             style="opacity:0.3"
             id="path16225" />
          <path
             inkscape:connector-curvature="0"
             d="m 25.016,21.768 h 8.681 l 1.308,-0.832 h -2.854 c 0,0 2.616,-0.476 2.973,-3.449 0.357,-2.973 -4.043,-6.303 -4.043,-6.303 v 0.119 c 0.119,0.713 1.308,5.708 0.476,7.611 -0.357,1.665 -1.428,2.022 -1.428,2.022 h -5.47 l 0.238,0.832 z"
             style="fill:#515151"
             id="path16227" />
          <path
             inkscape:connector-curvature="0"
             d="M 30.248,20.46 H 25.254 L 31.2,11.422 Z"
             style="fill:#515151"
             id="path16229" />
        </g>
        <path
           inkscape:connector-curvature="0"
           d="M 0.90530751,5.3026365 H 20.979591 c 0.07447,0 0.134556,0.058515 0.134556,0.1312476 V 16.894579 c 0,0.45748 -3.526777,3.422395 -3.601752,3.422395 H 0.90530751 c -0.0745254,0 -0.13465599,-0.05851 -0.13465599,-0.131054 V 5.4338841 c 0,-0.072588 0.0601245,-0.1311021 0.13475499,-0.1311021 z"
           style="color:#000000;fill:none;stroke:#ffffff;stroke-width:0.490014"
           sodipodi:nodetypes="ccccccccc"
           id="rect7675" />
        <rect
           x="2.2438247"
           y="6.776196"
           width="17.408966"
           height="12.119834"
           style="color:#000000;opacity:0.84659;fill:none;stroke:#4f4f4f;stroke-width:0.490014"
           id="rect8163" />
        <path
           inkscape:connector-curvature="0"
           d="m 16.99393,20.785432 c 1.007934,0.159585 4.760628,-2.190681 4.609686,-4.109582 -0.77606,1.171748 -2.362439,0.622385 -4.402638,0.699277 0,0 0.196126,3.168508 -0.207048,3.410305 z"
           style="color:#000000;fill:url(#linearGradient8169);fill-rule:evenodd;stroke:url(#linearGradient8177);stroke-width:0.490014"
           sodipodi:nodetypes="cccc"
           id="path2210" />
        <path
           inkscape:connector-curvature="0"
           d="m 17.713883,19.725393 c 0.680232,-0.330777 2.198588,-1.037792 2.844063,-1.947433 -0.792445,0.328844 -1.463739,0.101072 -2.83165,0.09188 0,0 0.08094,1.480764 -0.01241,1.855549 z"
           style="color:#000000;opacity:0.36932;fill:none;stroke:url(#linearGradient8166);stroke-width:0.490014"
           sodipodi:nodetypes="cccc"
           id="path2247" />
        <path
           inkscape:connector-curvature="0"
           d="M 1.0335581,5.5672109 V 16.236263 C 12.118853,16.666178 13.358166,9.9195572 20.863554,9.9195572 V 5.5672109 Z"
           style="color:#000000;opacity:0.30114;fill:url(#radialGradient8161)"
           sodipodi:nodetypes="ccccc"
           id="rect8150" />
      </g>
    </g>
    <rect
       ry="1.3"
       rx="1.5"
       y="1030.3958"
       x="32.987816"
       height="4.6382856"
       width="4.6382856"
       id="rect847"
       style="fill:#d9d9d9;fill-opacity:1;stroke:#273445;stroke-width:0;stroke-linecap:round" />
    <rect
       style="fill:#727272;fill-opacity:1;stroke:#273445;stroke-width:0;stroke-linecap:round"
       id="rect849"
       width="4.6382856"
       height="4.6382856"
       x="33.002052"
       y="1036.1724"
       rx="1.5"
       ry="1.3" />
    <rect
       style="fill:#b2b2b2;fill-opacity:1;stroke:#273445;stroke-width:0;stroke-linecap:round"
       id="rect851"
       width="4.6382856"
       height="4.6382856"
       x="38.930618"
       y="1030.3958"
       rx="1.5"
       ry="1.3" />
    <rect
       ry="1.3"
       rx="1.5"
       y="1036.1489"
       x="38.970478"
       height="4.6382856"
       width="4.6382856"
       id="rect853"
       style="fill:#4d4d4d;fill-opacity:1;stroke:#273445;stroke-width:0;stroke-linecap:round" />
    <rect
       style="fill:#241f31;fill-opacity:1;stroke:#273445;stroke-width:0;stroke-linecap:round"
       id="rect855"
       width="4.6382856"
       height="4.6382856"
       x="38.870834"
       y="1041.8585"
       rx="1.5"
       ry="1.3" />
    <rect
       style="fill:#ffffff;fill-opacity:1;stroke:#000000;stroke-width:0.1;stroke-linecap:round;stroke-miterlimit:4;stroke-dasharray:none;stroke-opacity:1"
       id="rect857"
       width="4.6382856"
       height="4.6382856"
       x="27.145733"
       y="1030.3958"
       rx="1.5"
       ry="1.3" />
    <rect
       ry="1.3"
       rx="1.5"
       y="1036.1738"
       x="27.145733"
       height="4.6382856"
       width="4.6382856"
       id="rect860"
       style="fill:#999999;fill-opacity:1;stroke:none;stroke-width:0.1;stroke-linecap:round;stroke-miterlimit:4;stroke-dasharray:none;stroke-opacity:1" />
  </g>
</svg>
