<?xml version="1.0" encoding="UTF-8" standalone="no"?>
<svg
   xmlns:dc="http://purl.org/dc/elements/1.1/"
   xmlns:cc="http://creativecommons.org/ns#"
   xmlns:rdf="http://www.w3.org/1999/02/22-rdf-syntax-ns#"
   xmlns:svg="http://www.w3.org/2000/svg"
   xmlns="http://www.w3.org/2000/svg"
   xmlns:xlink="http://www.w3.org/1999/xlink"
   xmlns:sodipodi="http://sodipodi.sourceforge.net/DTD/sodipodi-0.dtd"
   xmlns:inkscape="http://www.inkscape.org/namespaces/inkscape"
   width="22"
   height="22"
   viewBox="0 0 5.8208332 5.8208335"
   version="1.1"
   id="svg3342"
   inkscape:version="1.0 (4035a4fb49, 2020-05-01)"
   sodipodi:docname="select-lasso.svg">
  <defs
     id="defs3336">
    <linearGradient
       id="linearGradient949"
       inkscape:collect="always">
      <stop
         id="stop945"
         offset="0"
         style="stop-color:#d9d9d9;stop-opacity:1" />
      <stop
         id="stop947"
         offset="1"
         style="stop-color:#b2b2b2;stop-opacity:1" />
    </linearGradient>
    <linearGradient
       id="linearGradient938"
       inkscape:collect="always">
      <stop
         id="stop934"
         offset="0"
         style="stop-color:#727272;stop-opacity:1" />
      <stop
         id="stop936"
         offset="1"
         style="stop-color:#4d4d4d;stop-opacity:1" />
    </linearGradient>
    <clipPath
       id="clipPath945"
       clipPathUnits="userSpaceOnUse">
      <rect
         clip-path="none"
         y="1.5076531"
         x="1.4166161"
         height="17.993876"
         width="19.166759"
         id="rect947"
         style="fill:#ffffff;fill-opacity:1;stroke:none;stroke-width:0.999999;stroke-linecap:butt;stroke-linejoin:round;stroke-miterlimit:4;stroke-dasharray:8.00001, 3.99999;stroke-dashoffset:0;stroke-opacity:1" />
    </clipPath>
    <linearGradient
       gradientTransform="translate(-18.642527)"
       gradientUnits="userSpaceOnUse"
       y2="4.4981894"
       x2="23.317513"
       y1="0.74183154"
       x1="20.092352"
       id="linearGradient939"
       xlink:href="#linearGradient938"
       inkscape:collect="always" />
    <linearGradient
       gradientTransform="matrix(0.63370779,0.63370779,-0.63370779,0.63370779,664.23145,-663.15776)"
       y2="1047.6481"
       x2="26.479944"
       y1="1046.4047"
       x1="5.3817472"
       gradientUnits="userSpaceOnUse"
       id="linearGradient957"
       xlink:href="#linearGradient938"
       inkscape:collect="always" />
    <clipPath
       id="clipPath1207"
       clipPathUnits="userSpaceOnUse">
      <path
         sodipodi:nodetypes="aaaaaaaaaaaaa"
         inkscape:connector-curvature="0"
         id="path1209"
         d="m 3.2087793,17.926116 c 0.6763335,0.841477 1.9469084,0.984559 3.0008599,1.218239 2.3467132,0.520114 4.8993168,1.055626 7.2017128,0.365147 2.107416,-0.631977 4.229857,-1.995435 5.320275,-3.906384 0.847989,-1.486084 0.894199,-3.440109 0.510606,-5.107467 C 18.651735,7.9288718 17.118348,5.4588651 15.099722,3.7669781 13.766691,2.6499148 11.981129,1.9806927 10.246771,1.8505027 8.4683438,1.7169273 6.565493,2.1387702 5.0327041,3.0505723 3.9526534,3.6930661 2.696094,4.629136 2.536119,5.8756121 2.3807174,7.0869915 3.7450738,8.0076254 4.1907845,9.1447114 4.6220713,10.245067 5.3814256,11.391617 5.1657268,12.553598 4.928803,13.829715 3.1291849,14.402193 2.82276,15.663307 2.6421178,16.406864 2.729375,17.329728 3.2087793,17.926116 Z"
         style="fill:#8cd5ff;fill-opacity:1;stroke:none;stroke-width:0.264582px;stroke-linecap:butt;stroke-linejoin:miter;stroke-opacity:1" />
    </clipPath>
    <clipPath
       id="clipPath1419"
       clipPathUnits="userSpaceOnUse">
      <path
         style="fill:#ffe16b;fill-opacity:1;stroke:none;stroke-width:0.9375;stroke-linecap:round;stroke-linejoin:round;stroke-miterlimit:4;stroke-dasharray:none;stroke-opacity:1"
         d="M 1.4177004,4.9852691 20.582329,4.985217 20.58229,17.385743 1.4177191,17.385728 Z"
         id="path1421"
         inkscape:connector-curvature="0" />
    </clipPath>
    <clipPath
       clipPathUnits="userSpaceOnUse"
       id="clipPath1055">
      <rect
         y="740.11414"
         x="-736.96967"
         height="17.857143"
         width="19.0625"
         id="rect1057"
         style="fill:#ffe16b;fill-opacity:1;stroke:none;stroke-width:1;stroke-linecap:butt;stroke-linejoin:round;stroke-miterlimit:4;stroke-dasharray:8, 4;stroke-dashoffset:0;stroke-opacity:1"
         transform="rotate(-45)" />
    </clipPath>
    <linearGradient
       inkscape:collect="always"
       xlink:href="#linearGradient949"
       id="linearGradient1166"
       x1="0.66776717"
       y1="2.865931"
       x2="5.1522026"
       y2="2.865931"
       gradientUnits="userSpaceOnUse" />
  </defs>
  <sodipodi:namedview
     id="base"
     pagecolor="#ffffff"
     bordercolor="#666666"
     borderopacity="1.0"
     inkscape:pageopacity="0.0"
     inkscape:pageshadow="2"
     inkscape:zoom="5.6"
     inkscape:cx="-26.87928"
     inkscape:cy="33.460508"
     inkscape:document-units="mm"
     inkscape:current-layer="layer2"
     showgrid="true"
     units="px"
     showguides="true"
     inkscape:guide-bbox="true"
     inkscape:snap-nodes="true"
     inkscape:object-nodes="false"
     inkscape:object-paths="true"
     inkscape:document-rotation="0"
     inkscape:snap-grids="false">
    <inkscape:grid
       type="xygrid"
       id="grid3887" />
    <sodipodi:guide
       position="4.2333332,5.2916668"
       orientation="0,1"
       id="guide3889"
       inkscape:locked="false" />
    <sodipodi:guide
       position="5.2916665,0.26458334"
       orientation="0,1"
       id="guide3891"
       inkscape:locked="false" />
    <sodipodi:guide
       position="5.5562499,0.52916668"
       orientation="0,1"
       id="guide3893"
       inkscape:locked="false" />
  </sodipodi:namedview>
  <metadata
     id="metadata3339">
    <rdf:RDF>
      <cc:Work
         rdf:about="">
        <dc:format>image/svg+xml</dc:format>
        <dc:type
           rdf:resource="http://purl.org/dc/dcmitype/StillImage" />
        <dc:title />
      </cc:Work>
    </rdf:RDF>
  </metadata>
  <g
     inkscape:label="Layer 1"
     inkscape:groupmode="layer"
     id="layer1"
     transform="translate(0,-291.17915)"
     style="display:none">
    <rect
       style="fill:#d4d4d4;stroke:none;stroke-width:0.264583;stroke-linecap:round;stroke-linejoin:round"
       id="rect3994"
       width="5.8208332"
       height="5.8208332"
       x="0"
       y="291.17914" />
  </g>
  <g
     inkscape:groupmode="layer"
     id="layer2"
     inkscape:label="Layer 2">
    <path
       sodipodi:nodetypes="aaaaaaaaaaaaa"
       inkscape:connector-curvature="0"
       id="path1430"
       d="M 0.84897604,4.7429584 C 1.027932,4.9655899 1.364094,5.0034576 1.642963,5.0652746 2.263854,5.2028984 2.939239,5.3445773 3.548402,5.1619006 4.105995,4.9946842 4.667562,4.6339311 4.956072,4.1283224 5.180434,3.7351314 5.192648,3.2181409 5.091161,2.7769806 4.934931,2.0978477 4.529224,1.4443238 3.995117,0.99669055 3.642432,0.70112156 3.169994,0.52406476 2.711119,0.48961136 2.240566,0.45428036 1.737104,0.56589236 1.331556,0.80713756 1.045795,0.97712825 0.71332804,1.224799 0.67101304,1.5545841 0.62989294,1.8750982 0.990871,2.1186906 1.108796,2.4195472 1.222908,2.710682 1.423832,3.0140286 1.366754,3.3214773 1.304074,3.6591108 0.82792104,3.8105826 0.74684204,4.1442566 c -0.0478,0.1967378 -0.0247,0.440899 0.102134,0.5987018 z"
       style="fill:url(#linearGradient1166);fill-opacity:1.0;stroke:none;stroke-width:0.264583px;stroke-linecap:butt;stroke-linejoin:miter;stroke-opacity:1" />
    <path
       clip-path="url(#clipPath1207)"
       transform="scale(0.26458333)"
       d="M 12.222656,-11.035156 C 12.176655,-11.207899 -7.015625,8.203125 -7.015625,8.203125 Z M 14.9375,-8.3203125 C 14.891499,-8.4930558 -4.2988281,10.917969 -4.2988281,10.917969 Z m 2.716797,2.7167969 C 17.608296,-5.7762589 -1.5839844,13.634766 -1.5839844,13.634766 Z m 2.714844,2.7167968 C 20.32314,-3.0594612 1.1328125,16.349609 1.1328125,16.349609 Z m 2.716797,2.7148438 C 23.039936,-0.3446174 3.8476562,19.066406 3.8476562,19.066406 Z m 2.714843,2.7167969 C 25.75478,2.3721795 6.5644531,21.78125 6.5644531,21.78125 Z m 2.716797,2.7148437 C 28.471577,5.0870231 9.2792969,24.498047 9.2792969,24.498047 Z m 2.714844,2.7167969 C 31.186421,7.8038199 11.996094,27.212891 11.996094,27.212891 Z"
       style="fill:none;stroke:url(#linearGradient957);stroke-width:2;stroke-linecap:round;stroke-linejoin:miter;stroke-miterlimit:4;stroke-dasharray:none;stroke-opacity:1"
       id="path985-8" />
    <path
       style="fill:none;fill-opacity:1;stroke:url(#linearGradient939);stroke-width:0.264583px;stroke-linecap:butt;stroke-linejoin:miter;stroke-opacity:1"
       d="M 0.84897604,4.7429584 C 1.027932,4.9655899 1.364094,5.0034576 1.642963,5.0652746 2.263854,5.2028984 2.939239,5.3445773 3.548402,5.1619006 4.105995,4.9946842 4.667562,4.6339311 4.956072,4.1283224 5.180434,3.7351314 5.192648,3.2181409 5.091161,2.7769806 4.934931,2.0978477 4.529224,1.4443238 3.995117,0.99669055 3.642432,0.70112156 3.169994,0.52406476 2.711119,0.48961136 2.240566,0.45428036 1.737104,0.56589236 1.331556,0.80713756 1.045795,0.97712825 0.71332804,1.224799 0.67101304,1.5545841 0.62989294,1.8750982 0.990871,2.1186906 1.108796,2.4195472 1.222908,2.710682 1.423832,3.0140286 1.366754,3.3214773 1.304074,3.6591108 0.82792104,3.8105826 0.74684204,4.1442566 c -0.0478,0.1967378 -0.0247,0.440899 0.102134,0.5987018 z"
       id="path49744"
       inkscape:connector-curvature="0"
       sodipodi:nodetypes="aaaaaaaaaaaaa" />
  </g>
</svg>
