<?xml version="1.0" encoding="UTF-8" standalone="no"?>
<svg
   xmlns:dc="http://purl.org/dc/elements/1.1/"
   xmlns:cc="http://creativecommons.org/ns#"
   xmlns:rdf="http://www.w3.org/1999/02/22-rdf-syntax-ns#"
   xmlns:svg="http://www.w3.org/2000/svg"
   xmlns="http://www.w3.org/2000/svg"
   xmlns:sodipodi="http://sodipodi.sourceforge.net/DTD/sodipodi-0.dtd"
   xmlns:inkscape="http://www.inkscape.org/namespaces/inkscape"
   width="22"
   height="22"
   id="svg2"
   version="1.1"
   inkscape:version="1.0 (4035a4fb49, 2020-05-01)"
   sodipodi:docname="thickness-fine.svg">
  <defs
     id="defs4" />
  <sodipodi:namedview
     id="base"
     pagecolor="#ffffff"
     bordercolor="#666666"
     borderopacity="1.0"
     inkscape:pageopacity="0.0"
     inkscape:pageshadow="2"
     inkscape:zoom="31.678384"
     inkscape:cx="17.962721"
     inkscape:cy="13.848756"
     inkscape:document-units="px"
     inkscape:current-layer="layer1"
     showgrid="false"
     inkscape:window-width="1280"
     inkscape:window-height="1000"
     inkscape:window-x="0"
     inkscape:window-y="24"
     inkscape:window-maximized="1"
     inkscape:document-rotation="0" />
  <metadata
     id="metadata7">
    <rdf:RDF>
      <cc:Work
         rdf:about="">
        <dc:format>image/svg+xml</dc:format>
        <dc:type
           rdf:resource="http://purl.org/dc/dcmitype/StillImage" />
        <dc:title />
      </cc:Work>
    </rdf:RDF>
  </metadata>
  <g
     inkscape:label="Ebene 1"
     inkscape:groupmode="layer"
     id="layer1"
     transform="translate(0,-1030.3622)">
    <ellipse
       ry="2.587117"
       rx="2.5871191"
       cy="1041.3801"
       cx="10.982142"
       style="fill:#d9d9d9;fill-opacity:1;stroke:none;stroke-width:0.34468"
       id="path2985" />
    <path
       id="path851"
       style="fill:#b2b2b2;fill-opacity:1;stroke:none;stroke-width:0.344681"
       d="m 8.4656904,1041.0222 a 2.5871191,2.587117 0 0 0 -0.071265,0.3577 2.5871191,2.587117 0 0 0 2.5879176,2.5879 2.5871191,2.587117 0 0 0 2.58652,-2.5879 2.5871191,2.587117 0 0 0 -0.04891,-0.2417 2.5871191,2.5871169 0 0 1 -2.537613,2.1142 2.5871191,2.5871169 0 0 1 -2.5166513,-2.2302 z" />
    <path
       id="path856"
       style="fill:#ffffff;fill-opacity:1;stroke:none;stroke-width:0.344681"
       d="m 10.982342,1038.7934 a 2.5871191,2.587117 0 0 0 -2.5879172,2.5865 2.5871191,2.587117 0 0 0 0.071265,0.3577 2.5871191,2.5871169 0 0 1 2.5166522,-2.2287 2.5871191,2.5871169 0 0 1 2.515255,2.2287 2.5871191,2.587117 0 0 0 0.07127,-0.3577 2.5871191,2.587117 0 0 0 -2.586521,-2.5865 z" />
    <ellipse
       ry="2.587117"
       rx="2.5871191"
       cy="1041.3801"
       cx="10.982142"
       id="path863"
       style="fill:none;fill-opacity:1;stroke:#241f31;stroke-width:1;stroke-miterlimit:4;stroke-dasharray:none;stroke-opacity:1" />
  </g>
</svg>
