<?xml version="1.0" encoding="UTF-8"?>
<svg xmlns="http://www.w3.org/2000/svg" xmlns:xlink="http://www.w3.org/1999/xlink" width="22pt" height="22pt" viewBox="0 0 22 22" version="1.1">
<g id="surface1">
<path style=" stroke:none;fill-rule:nonzero;fill:rgb(0%,0%,0%);fill-opacity:1;" d="M 5.8125 7.535156 C 2.625 9.417969 0.015625 10.972656 0.0078125 10.992188 C -0.00390625 11.03125 11.585938 17.894531 11.65625 17.894531 C 11.6875 17.894531 11.699219 16.984375 11.703125 14.867188 L 11.714844 11.84375 L 16.808594 14.855469 C 19.609375 16.507812 21.921875 17.871094 21.949219 17.882812 C 21.992188 17.898438 22 16.804688 22 11 C 22 5.195312 21.992188 4.101562 21.949219 4.117188 C 21.921875 4.128906 19.609375 5.492188 16.808594 7.144531 L 11.714844 10.15625 L 11.703125 7.132812 C 11.695312 4.75 11.6875 4.105469 11.648438 4.105469 C 11.628906 4.109375 8.996094 5.648438 5.8125 7.535156 Z M 5.8125 7.535156 "/>
</g>
</svg>
