<?xml version="1.0" encoding="UTF-8" standalone="no"?>
<!-- Created with Inkscape (http://www.inkscape.org/) -->

<svg
   xmlns:dc="http://purl.org/dc/elements/1.1/"
   xmlns:cc="http://creativecommons.org/ns#"
   xmlns:rdf="http://www.w3.org/1999/02/22-rdf-syntax-ns#"
   xmlns:svg="http://www.w3.org/2000/svg"
   xmlns="http://www.w3.org/2000/svg"
   xmlns:sodipodi="http://sodipodi.sourceforge.net/DTD/sodipodi-0.dtd"
   xmlns:inkscape="http://www.inkscape.org/namespaces/inkscape"
   width="22"
   height="22"
   id="svg2"
   version="1.1"
   inkscape:version="0.92.3 (2405546, 2018-03-11)"
   sodipodi:docname="coordinate-system-draw.svg">
  <defs
     id="defs4" />
  <sodipodi:namedview
     id="base"
     pagecolor="#ffffff"
     bordercolor="#666666"
     borderopacity="1.0"
     inkscape:pageopacity="0.0"
     inkscape:pageshadow="2"
     inkscape:zoom="8"
     inkscape:cx="3.1801006"
     inkscape:cy="12.378547"
     inkscape:document-units="px"
     inkscape:current-layer="layer1"
     showgrid="false"
     inkscape:window-width="2560"
     inkscape:window-height="1377"
     inkscape:window-x="0"
     inkscape:window-y="30"
     inkscape:window-maximized="1"
     inkscape:snap-object-midpoints="true"
     inkscape:snap-center="true" />
  <metadata
     id="metadata7">
    <rdf:RDF>
      <cc:Work
         rdf:about="">
        <dc:format>image/svg+xml</dc:format>
        <dc:type
           rdf:resource="http://purl.org/dc/dcmitype/StillImage" />
        <dc:title></dc:title>
      </cc:Work>
    </rdf:RDF>
  </metadata>
  <g
     inkscape:label="Ebene 1"
     inkscape:groupmode="layer"
     id="layer1"
     transform="translate(0,-1030.3622)">
    <path
       style="fill:none;stroke:#68b723;stroke-width:5;stroke-linecap:round;stroke-linejoin:round;stroke-miterlimit:4;stroke-dasharray:none;stroke-opacity:1"
       d="m 4.8720091,1035.0764 v 12.7299 H 17.118049"
       id="path4535"
       inkscape:connector-curvature="0"
       sodipodi:nodetypes="ccc" />
    <circle
       style="fill:#68b723;fill-opacity:1;stroke:none;stroke-width:1.76100028;stroke-linejoin:round;stroke-miterlimit:4;stroke-dasharray:none;stroke-opacity:1"
       id="path2985-3"
       cx="4.8720093"
       cy="1035.0764"
       r="3.7898562" />
    <circle
       r="3.7898562"
       cy="1047.8063"
       cx="17.11805"
       id="circle4551"
       style="fill:#68b723;fill-opacity:1;stroke:none;stroke-width:1.76100028;stroke-linejoin:round;stroke-miterlimit:4;stroke-dasharray:none;stroke-opacity:1" />
    <path
       style="color:#000000;font-style:normal;font-variant:normal;font-weight:normal;font-stretch:normal;font-size:medium;line-height:normal;font-family:sans-serif;font-variant-ligatures:normal;font-variant-position:normal;font-variant-caps:normal;font-variant-numeric:normal;font-variant-alternates:normal;font-feature-settings:normal;text-indent:0;text-align:start;text-decoration:none;text-decoration-line:none;text-decoration-style:solid;text-decoration-color:#000000;letter-spacing:normal;word-spacing:normal;text-transform:none;writing-mode:lr-tb;direction:ltr;text-orientation:mixed;dominant-baseline:auto;baseline-shift:baseline;text-anchor:start;white-space:normal;shape-padding:0;clip-rule:nonzero;display:inline;overflow:visible;visibility:visible;opacity:1;isolation:auto;mix-blend-mode:normal;color-interpolation:sRGB;color-interpolation-filters:linearRGB;solid-color:#000000;solid-opacity:1;vector-effect:none;fill:none;fill-opacity:1;fill-rule:nonzero;stroke:#3a9104;stroke-width:1;stroke-linecap:round;stroke-linejoin:round;stroke-miterlimit:4;stroke-dasharray:none;stroke-dashoffset:0;stroke-opacity:1;color-rendering:auto;image-rendering:auto;shape-rendering:auto;text-rendering:auto;enable-background:accumulate"
       d="m 4.8722356,1031.2857 a 3.7898562,3.7898562 0 0 0 -3.7910156,3.791 3.7898562,3.7898562 0 0 0 1.2910156,2.8437 v 9.8868 a 2.50025,2.50025 0 0 0 2.5,2.5 h 9.4042964 a 3.7898562,3.7898562 0 0 0 2.841797,1.289 3.7898562,3.7898562 0 0 0 3.789063,-3.789 3.7898562,3.7898562 0 0 0 -3.789063,-3.7911 3.7898562,3.7898562 0 0 0 -2.84375,1.2911 H 7.3722356 v -7.3887 a 3.7898562,3.7898562 0 0 0 1.2890625,-2.8418 3.7898562,3.7898562 0 0 0 -3.7890625,-3.791 z"
       id="path4557"
       inkscape:connector-curvature="0" />
    <path
       style="color:#000000;font-style:normal;font-variant:normal;font-weight:normal;font-stretch:normal;font-size:medium;line-height:normal;font-family:sans-serif;font-variant-ligatures:normal;font-variant-position:normal;font-variant-caps:normal;font-variant-numeric:normal;font-variant-alternates:normal;font-feature-settings:normal;text-indent:0;text-align:start;text-decoration:none;text-decoration-line:none;text-decoration-style:solid;text-decoration-color:#000000;letter-spacing:normal;word-spacing:normal;text-transform:none;writing-mode:lr-tb;direction:ltr;text-orientation:mixed;dominant-baseline:auto;baseline-shift:baseline;text-anchor:start;white-space:normal;shape-padding:0;clip-rule:nonzero;display:inline;overflow:visible;visibility:visible;opacity:1;isolation:auto;mix-blend-mode:normal;color-interpolation:sRGB;color-interpolation-filters:linearRGB;solid-color:#000000;solid-opacity:1;vector-effect:none;fill:#9bdb4d;fill-opacity:1;fill-rule:nonzero;stroke:none;stroke-width:1;stroke-linecap:round;stroke-linejoin:round;stroke-miterlimit:4;stroke-dasharray:none;stroke-dashoffset:0;stroke-opacity:1;color-rendering:auto;image-rendering:auto;shape-rendering:auto;text-rendering:auto;enable-background:accumulate"
       d="M 4.8730469 0.92382812 A 3.7898562 3.7898562 0 0 0 1.7480469 2.5742188 A 3.7898233 3.7898562 0 0 1 3.8710938 1.9238281 A 3.7898233 3.7898562 0 0 1 7.6601562 5.7148438 A 3.7898233 3.7898562 0 0 1 6.3710938 8.5566406 L 6.3710938 15.945312 L 13.273438 15.945312 A 3.7898233 3.7898562 0 0 1 16.117188 14.654297 A 3.7898233 3.7898562 0 0 1 19.90625 18.445312 A 3.7898233 3.7898562 0 0 1 19.240234 20.582031 A 3.7898562 3.7898562 0 0 0 20.908203 17.445312 A 3.7898562 3.7898562 0 0 0 17.119141 13.654297 A 3.7898562 3.7898562 0 0 0 14.275391 14.945312 L 7.3730469 14.945312 L 7.3730469 7.5566406 A 3.7898562 3.7898562 0 0 0 8.6621094 4.7148438 A 3.7898562 3.7898562 0 0 0 4.8730469 0.92382812 z "
       transform="translate(0,1030.3622)"
       id="path4566" />
  </g>
</svg>
