<?xml version="1.0" encoding="UTF-8" standalone="no"?>
<svg
   xmlns:dc="http://purl.org/dc/elements/1.1/"
   xmlns:cc="http://creativecommons.org/ns#"
   xmlns:rdf="http://www.w3.org/1999/02/22-rdf-syntax-ns#"
   xmlns:svg="http://www.w3.org/2000/svg"
   xmlns="http://www.w3.org/2000/svg"
   xmlns:sodipodi="http://sodipodi.sourceforge.net/DTD/sodipodi-0.dtd"
   xmlns:inkscape="http://www.inkscape.org/namespaces/inkscape"
   sodipodi:docname="coordinate-system-draw.svg"
   inkscape:version="1.1-dev (952cbafb2b, 2020-02-29)"
   version="1.1"
   id="svg2"
   height="22"
   width="22">
  <defs
     id="defs4" />
  <sodipodi:namedview
     inkscape:snap-center="true"
     inkscape:snap-object-midpoints="true"
     inkscape:window-maximized="1"
     inkscape:window-y="30"
     inkscape:window-x="0"
     inkscape:window-height="1377"
     inkscape:window-width="2560"
     showgrid="false"
     inkscape:current-layer="layer1"
     inkscape:document-units="px"
     inkscape:cy="14.532465"
     inkscape:cx="7.6276475"
     inkscape:zoom="4"
     inkscape:pageshadow="2"
     inkscape:pageopacity="0.0"
     borderopacity="1.0"
     bordercolor="#666666"
     pagecolor="#ffffff"
     id="base" />
  <metadata
     id="metadata7">
    <rdf:RDF>
      <cc:Work
         rdf:about="">
        <dc:format>image/svg+xml</dc:format>
        <dc:type
           rdf:resource="http://purl.org/dc/dcmitype/StillImage" />
        <dc:title />
      </cc:Work>
    </rdf:RDF>
  </metadata>
  <g
     transform="translate(0,-1030.3622)"
     id="layer1"
     inkscape:groupmode="layer"
     inkscape:label="Ebene 1">
    <path
       sodipodi:nodetypes="ccc"
       inkscape:connector-curvature="0"
       id="path4535"
       d="m 4.8720091,1035.0764 v 12.7299 H 17.118049"
       style="fill:none;stroke:#68b723;stroke-width:4;stroke-linecap:round;stroke-linejoin:round;stroke-miterlimit:4;stroke-dasharray:none;stroke-opacity:1" />
    <circle
       r="3.7898562"
       cy="1035.0764"
       cx="4.8720093"
       id="path2985-3"
       style="fill:#68b723;fill-opacity:1;stroke:none;stroke-width:1.76100028;stroke-linejoin:round;stroke-miterlimit:4;stroke-dasharray:none;stroke-opacity:1" />
    <circle
       style="fill:#68b723;fill-opacity:1;stroke:none;stroke-width:1.76100028;stroke-linejoin:round;stroke-miterlimit:4;stroke-dasharray:none;stroke-opacity:1"
       id="circle4551"
       cx="17.11805"
       cy="1047.8063"
       r="3.7898562" />
    <path
       inkscape:connector-curvature="0"
       d="m 4.8710057,1031.2861 a 3.7898562,3.7898562 0 0 0 -3.7890626,3.791 3.7898562,3.7898562 0 0 0 1.7890626,3.1328 v 9.5977 a 2.0002,2.0002 0 0 0 2,2 h 9.1132813 a 3.7898562,3.7898562 0 0 0 3.132813,1.789 3.7898562,3.7898562 0 0 0 3.791015,-3.791 3.7898562,3.7898562 0 0 0 -3.791015,-3.7891 3.7898562,3.7898562 0 0 0 -3.134766,1.7911 H 6.8710057 v -7.5157 a 3.7898562,3.7898562 0 0 0 1.7910156,-3.2148 3.7898562,3.7898562 0 0 0 -3.7910156,-3.791 z"
       style="color:#000000;fill:none;stroke:#3a9104;stroke-width:1;stroke-linecap:round;stroke-linejoin:round;stroke-miterlimit:4;stroke-dasharray:none;stroke-opacity:1"
       id="path855" />
    <path
       transform="translate(0,1030.3622)"
       d="M 4.8710938 0.92382812 A 3.7898562 3.7898562 0 0 0 2.0390625 2.2636719 A 3.7898562 3.7898562 0 0 1 4.1386719 1.5410156 A 3.7898562 3.7898562 0 0 1 7.9296875 5.3320312 A 3.7898562 3.7898562 0 0 1 6.1386719 8.546875 L 6.1386719 16.0625 L 13.25 16.0625 A 3.7898562 3.7898562 0 0 1 13.791016 15.445312 L 6.8710938 15.445312 L 6.8710938 7.9296875 A 3.7898562 3.7898562 0 0 0 8.6621094 4.7148438 A 3.7898562 3.7898562 0 0 0 4.8710938 0.92382812 z M 17.117188 13.654297 A 3.7898562 3.7898562 0 0 0 14.458984 14.902344 A 3.7898562 3.7898562 0 0 1 16.384766 14.271484 A 3.7898562 3.7898562 0 0 1 20.175781 18.060547 A 3.7898562 3.7898562 0 0 1 19.154297 20.638672 A 3.7898562 3.7898562 0 0 0 20.908203 17.443359 A 3.7898562 3.7898562 0 0 0 17.117188 13.654297 z "
       style="color:#000000;fill:#d1ff82;stroke:none;stroke-width:1;stroke-linecap:round;stroke-linejoin:round;stroke-miterlimit:4;stroke-dasharray:none;stroke-opacity:1;fill-opacity:1"
       id="path862" />
    <path
       transform="translate(0,1030.3622)"
       d="M 2.5546875 1.7929688 A 3.7898562 3.7898562 0 0 0 1.0820312 4.7148438 A 3.7898562 3.7898562 0 0 0 2.8710938 7.8476562 L 2.8710938 17.445312 A 2.0002 2.0002 0 0 0 4.8710938 19.445312 L 13.984375 19.445312 A 3.7898562 3.7898562 0 0 0 17.117188 21.234375 A 3.7898562 3.7898562 0 0 0 20.121094 19.742188 A 3.7898562 3.7898562 0 0 1 17.757812 20.578125 A 3.7898562 3.7898562 0 0 1 14.625 18.789062 L 5.5117188 18.789062 A 2.0002 2.0002 0 0 1 3.5117188 16.789062 L 3.5117188 7.1914062 A 3.7898562 3.7898562 0 0 1 1.7226562 4.0585938 A 3.7898562 3.7898562 0 0 1 2.5546875 1.7929688 z M 7.9238281 6.90625 A 3.7898562 3.7898562 0 0 1 7.5117188 7.2734375 L 7.5117188 7.3632812 A 3.7898562 3.7898562 0 0 0 7.9238281 6.90625 z M 14.931641 14.435547 A 3.7898562 3.7898562 0 0 0 14.558594 14.789062 L 14.623047 14.789062 A 3.7898562 3.7898562 0 0 1 14.931641 14.435547 z "
       style="color:#000000;fill:#206b00;stroke:none;stroke-width:1;stroke-linecap:round;stroke-linejoin:round;stroke-miterlimit:4;stroke-dasharray:none;stroke-opacity:1;fill-opacity:1"
       id="path867" />
  </g>
</svg>
