<?xml version="1.0" encoding="UTF-8" standalone="no"?>
<!-- Created with Inkscape (http://www.inkscape.org/) -->

<svg
   xmlns:dc="http://purl.org/dc/elements/1.1/"
   xmlns:cc="http://creativecommons.org/ns#"
   xmlns:rdf="http://www.w3.org/1999/02/22-rdf-syntax-ns#"
   xmlns:svg="http://www.w3.org/2000/svg"
   xmlns="http://www.w3.org/2000/svg"
   xmlns:sodipodi="http://sodipodi.sourceforge.net/DTD/sodipodi-0.dtd"
   xmlns:inkscape="http://www.inkscape.org/namespaces/inkscape"
   width="22"
   height="22"
   viewBox="0 0 20.625 20.625"
   version="1.1"
   id="svg41"
   inkscape:version="0.92.4 (unknown)"
   sodipodi:docname="floating_toolbox.svg">
  <defs
     id="defs35" />
  <sodipodi:namedview
     id="base"
     pagecolor="#ffffff"
     bordercolor="#666666"
     borderopacity="1.0"
     inkscape:pageopacity="0"
     inkscape:pageshadow="2"
     inkscape:zoom="22.627417"
     inkscape:cx="7.4008411"
     inkscape:cy="5.2535639"
     inkscape:document-units="px"
     inkscape:current-layer="g4666"
     showgrid="false"
     inkscape:window-width="2560"
     inkscape:window-height="1377"
     inkscape:window-x="0"
     inkscape:window-y="30"
     inkscape:window-maximized="1"
     units="px"
     inkscape:snap-page="false"
     scale-x="1e-05"
     inkscape:snap-object-midpoints="true"
     inkscape:snap-bbox="false"
     inkscape:snap-bbox-midpoints="true"
     inkscape:snap-bbox-edge-midpoints="false"
     inkscape:bbox-nodes="true"
     inkscape:bbox-paths="false"
     inkscape:snap-others="true"
     inkscape:snap-nodes="true"
     inkscape:snap-global="false"
     inkscape:object-paths="true"
     inkscape:snap-intersection-paths="true"
     inkscape:snap-grids="false"
     inkscape:snap-smooth-nodes="true"
     inkscape:snap-midpoints="true" />
  <metadata
     id="metadata38">
    <rdf:RDF>
      <cc:Work
         rdf:about="">
        <dc:format>image/svg+xml</dc:format>
        <dc:type
           rdf:resource="http://purl.org/dc/dcmitype/StillImage" />
        <dc:title></dc:title>
      </cc:Work>
    </rdf:RDF>
  </metadata>
  <g
     inkscape:label="Ebene 1"
     inkscape:groupmode="layer"
     id="layer1"
     transform="translate(0.05960665,-289.96858)">
    <g
       id="use18"
       style="fill:#333333;stroke:#ff0000;stroke-width:0.98215002"
       transform="matrix(0.00172838,0,0,-0.0015338,0.65072341,289.30392)">
      <g
         style="clip-rule:evenodd"
         id="g3838">
        <g
           id="g4162"
           transform="matrix(0.92900719,0.14588654,-0.09169444,1.1369171,21.027059,-136.15221)"
           style="fill:#ff4343;fill-opacity:1">
          <g
             transform="matrix(0.86313882,-0.22943906,0.21454484,0.8594656,-13.863256,-6.6037461)"
             id="g4666"
             style="fill:#ff4343;fill-opacity:1">
            <g
               id="g1040"
               transform="matrix(0.98963321,0.142317,-0.1678132,0.98634253,-735.16641,-1711.325)">
              <path
                 inkscape:connector-curvature="0"
                 id="path878"
                 d="M 12013.36,-278.33459 2204.9944,-1590.7283"
                 style="fill:none;stroke:#abacae;stroke-width:1251.94384766;stroke-linecap:round;stroke-linejoin:miter;stroke-miterlimit:4;stroke-dasharray:none;stroke-opacity:1" />
              <path
                 inkscape:connector-curvature="0"
                 id="path880"
                 d="M 2225.7305,-2217.2402 A 626.03452,626.03452 0 0 0 2121.9766,-970.28516 L 11930.342,342.10742 a 626.03452,626.03452 0 1 0 166.035,-1240.88476 L 2288.0117,-2211.1699 a 626.03452,626.03452 0 0 0 -62.2812,-6.0703 z"
                 style="color:#000000;font-style:normal;font-variant:normal;font-weight:normal;font-stretch:normal;font-size:medium;line-height:normal;font-family:sans-serif;font-variant-ligatures:normal;font-variant-position:normal;font-variant-caps:normal;font-variant-numeric:normal;font-variant-alternates:normal;font-feature-settings:normal;text-indent:0;text-align:start;text-decoration:none;text-decoration-line:none;text-decoration-style:solid;text-decoration-color:#000000;letter-spacing:normal;word-spacing:normal;text-transform:none;writing-mode:lr-tb;direction:ltr;text-orientation:mixed;dominant-baseline:auto;baseline-shift:baseline;text-anchor:start;white-space:normal;shape-padding:0;clip-rule:nonzero;display:inline;overflow:visible;visibility:visible;opacity:1;isolation:auto;mix-blend-mode:normal;color-interpolation:sRGB;color-interpolation-filters:linearRGB;solid-color:#000000;solid-opacity:1;vector-effect:none;fill:none;fill-opacity:1;fill-rule:nonzero;stroke:#555761;stroke-width:625.97192383;stroke-linecap:round;stroke-linejoin:miter;stroke-miterlimit:4;stroke-dasharray:none;stroke-dashoffset:0;stroke-opacity:1;color-rendering:auto;image-rendering:auto;shape-rendering:auto;text-rendering:auto;enable-background:accumulate" />
              <path
                 transform="matrix(646.48343,86.50175,87.053149,-594.46322,-459.29453,-346.70704)"
                 id="path884"
                 d="M 3.7109375,1.5996094 A 0.95940501,1.0425211 4.2844314 0 0 2.8925781,3.1171875 0.95940501,1.0425211 4.2844314 0 1 3.7773438,2.5273438 H 18.949219 A 0.95940501,1.0425211 4.2844314 0 1 19.810547,3.0917969 0.95940501,1.0425211 4.2844314 0 0 18.949219,1.5996094 H 3.7773438 a 0.95940501,1.0425211 4.2844314 0 0 -0.066406,0 z"
                 style="color:#000000;font-style:normal;font-variant:normal;font-weight:normal;font-stretch:normal;font-size:medium;line-height:normal;font-family:sans-serif;font-variant-ligatures:normal;font-variant-position:normal;font-variant-caps:normal;font-variant-numeric:normal;font-variant-alternates:normal;font-feature-settings:normal;text-indent:0;text-align:start;text-decoration:none;text-decoration-line:none;text-decoration-style:solid;text-decoration-color:#000000;letter-spacing:normal;word-spacing:normal;text-transform:none;writing-mode:lr-tb;direction:ltr;text-orientation:mixed;dominant-baseline:auto;baseline-shift:baseline;text-anchor:start;white-space:normal;shape-padding:0;clip-rule:nonzero;display:inline;overflow:visible;visibility:visible;opacity:1;isolation:auto;mix-blend-mode:normal;color-interpolation:sRGB;color-interpolation-filters:linearRGB;solid-color:#000000;solid-opacity:1;vector-effect:none;fill:#d4d4d4;fill-opacity:1;fill-rule:nonzero;stroke:none;stroke-width:2;stroke-linecap:round;stroke-linejoin:miter;stroke-miterlimit:4;stroke-dasharray:none;stroke-dashoffset:0;stroke-opacity:1;color-rendering:auto;image-rendering:auto;shape-rendering:auto;text-rendering:auto;enable-background:accumulate"
                 inkscape:connector-curvature="0" />
              <g
                 transform="translate(-248.67764,-461.8593)"
                 id="g866">
                <rect
                   ry="379.9205"
                   rx="272.56149"
                   transform="matrix(0.99116674,0.13262159,0.14489456,-0.9894471,0,0)"
                   y="666.3891"
                   x="11477.276"
                   height="5099.998"
                   width="1350.0836"
                   id="rect848"
                   style="fill:#abacae;fill-opacity:1;stroke:none;stroke-width:965.64190674;stroke-linecap:round;stroke-linejoin:round;stroke-miterlimit:4;stroke-dasharray:none;stroke-opacity:1" />
                <rect
                   style="fill:none;fill-opacity:1;stroke:#555761;stroke-width:625.99597168;stroke-linecap:round;stroke-linejoin:round;stroke-miterlimit:4;stroke-dasharray:none;stroke-opacity:1"
                   id="rect850"
                   width="1350.0836"
                   height="5099.998"
                   x="11477.276"
                   y="666.3891"
                   transform="matrix(0.99116674,0.13262159,0.14489456,-0.9894471,0,0)"
                   rx="272.56149"
                   ry="379.9205" />
                <path
                   inkscape:connector-curvature="0"
                   style="fill:#7e8087;fill-opacity:1;stroke:none;stroke-width:1.54256892;stroke-linecap:round;stroke-linejoin:round;stroke-miterlimit:4;stroke-dasharray:none;stroke-opacity:1"
                   d="m 18.371094,7.8828125 v 0.609375 c 0,0.3516038 0.185228,0.6347656 0.416015,0.6347656 h 1.236329 c 0.230787,0 0.416015,-0.2831618 0.416015,-0.6347656 v -0.609375 c 0,0.3516038 -0.185228,0.6347656 -0.416015,0.6347656 h -1.236329 c -0.230787,0 -0.416015,-0.2831618 -0.416015,-0.6347656 z"
                   transform="matrix(646.48343,86.50175,87.053149,-594.46322,-459.29453,-346.70704)"
                   id="rect852" />
                <path
                   inkscape:connector-curvature="0"
                   style="fill:#d4d4d4;fill-opacity:1;stroke:none;stroke-width:1.54256892;stroke-linecap:round;stroke-linejoin:round;stroke-miterlimit:4;stroke-dasharray:none;stroke-opacity:1"
                   d="m 18.787109,0.63867188 c -0.230787,0 -0.416015,0.28316184 -0.416015,0.63476562 v 0.53125 c 0,-0.3516038 0.185228,-0.6347656 0.416015,-0.6347656 h 1.236329 c 0.230787,0 0.416015,0.2831618 0.416015,0.6347656 v -0.53125 c 0,-0.35160378 -0.185228,-0.63476563 -0.416015,-0.63476562 z"
                   transform="matrix(646.48343,86.50175,87.053149,-594.46322,-459.29453,-346.70704)"
                   id="rect854" />
              </g>
              <g
                 transform="translate(-10071.796,-1776.227)"
                 id="g876">
                <rect
                   style="fill:#abacae;fill-opacity:1;stroke:none;stroke-width:965.64190674;stroke-linecap:round;stroke-linejoin:round;stroke-miterlimit:4;stroke-dasharray:none;stroke-opacity:1"
                   id="rect868"
                   width="1350.0836"
                   height="5099.998"
                   x="11477.276"
                   y="666.3891"
                   transform="matrix(0.99116674,0.13262159,0.14489456,-0.9894471,0,0)"
                   rx="272.56149"
                   ry="379.9205" />
                <rect
                   ry="379.9205"
                   rx="272.56149"
                   transform="matrix(0.99116674,0.13262159,0.14489456,-0.9894471,0,0)"
                   y="666.3891"
                   x="11477.276"
                   height="5099.998"
                   width="1350.0836"
                   id="rect870"
                   style="fill:none;fill-opacity:1;stroke:#555761;stroke-width:625.99597168;stroke-linecap:round;stroke-linejoin:round;stroke-miterlimit:4;stroke-dasharray:none;stroke-opacity:1" />
                <path
                   inkscape:connector-curvature="0"
                   id="path872"
                   transform="matrix(646.48343,86.50175,87.053149,-594.46322,-459.29453,-346.70704)"
                   d="m 18.371094,7.8828125 v 0.609375 c 0,0.3516038 0.185228,0.6347656 0.416015,0.6347656 h 1.236329 c 0.230787,0 0.416015,-0.2831618 0.416015,-0.6347656 v -0.609375 c 0,0.3516038 -0.185228,0.6347656 -0.416015,0.6347656 h -1.236329 c -0.230787,0 -0.416015,-0.2831618 -0.416015,-0.6347656 z"
                   style="fill:#7e8087;fill-opacity:1;stroke:none;stroke-width:1.54256892;stroke-linecap:round;stroke-linejoin:round;stroke-miterlimit:4;stroke-dasharray:none;stroke-opacity:1" />
                <path
                   inkscape:connector-curvature="0"
                   id="path874"
                   transform="matrix(646.48343,86.50175,87.053149,-594.46322,-459.29453,-346.70704)"
                   d="m 18.787109,0.63867188 c -0.230787,0 -0.416015,0.28316184 -0.416015,0.63476562 v 0.53125 c 0,-0.3516038 0.185228,-0.6347656 0.416015,-0.6347656 h 1.236329 c 0.230787,0 0.416015,0.2831618 0.416015,0.6347656 v -0.53125 c 0,-0.35160378 -0.185228,-0.63476563 -0.416015,-0.63476562 z"
                   style="fill:#d4d4d4;fill-opacity:1;stroke:none;stroke-width:1.54256892;stroke-linecap:round;stroke-linejoin:round;stroke-miterlimit:4;stroke-dasharray:none;stroke-opacity:1" />
              </g>
              <rect
                 rx="597.12177"
                 ry="546.32391"
                 transform="matrix(0.99116674,0.13262159,0.14489456,-0.9894471,0,0)"
                 y="3624.9517"
                 x="940.61841"
                 height="7453.7178"
                 width="11886.741"
                 id="rect823"
                 style="fill:#c6262e;fill-opacity:1;stroke:none;stroke-width:1713.93383789;stroke-linecap:round;stroke-linejoin:round;stroke-miterlimit:4;stroke-dasharray:none;stroke-opacity:1" />
              <path
                 transform="matrix(646.48343,86.50175,87.053149,-594.46322,-459.29453,-346.70704)"
                 id="rect955"
                 d="m 2.2167969,15.685547 v 1.371094 c 0,0.505604 0.4065048,0.912109 0.9121093,0.912109 H 19.527344 c 0.505604,0 0.912109,-0.406505 0.912109,-0.912109 v -1.371094 c 0,0.505604 -0.406505,0.914062 -0.912109,0.914062 H 3.1289062 c -0.5056045,0 -0.9121093,-0.408458 -0.9121093,-0.914062 z"
                 style="fill:#a10705;fill-opacity:1;stroke:none;stroke-width:2.73793101;stroke-linecap:round;stroke-linejoin:round;stroke-miterlimit:4;stroke-dasharray:none;stroke-opacity:1"
                 inkscape:connector-curvature="0" />
              <path
                 sodipodi:nodetypes="cssc"
                 inkscape:connector-curvature="0"
                 id="rect945"
                 d="m 13699.134,-6634.4817 c -144.683,987.9978 -1126.154,1667.6504 -2200.61,1523.8843 l -7440.7107,-995.5931 c -1074.455,-143.7659 -1822.973,-1054.897 -1678.2911,-2042.8948"
                 style="fill:none;fill-opacity:1;stroke:#7a0000;stroke-width:625.97192383;stroke-linecap:round;stroke-linejoin:round;stroke-miterlimit:4;stroke-dasharray:none;stroke-opacity:1" />
              <path
                 inkscape:connector-curvature="0"
                 id="rect950"
                 d="m 2092.5044,-3390.1544 c -326.8649,-43.7357 -554.276,-320.5512 -510.2615,-621.1146 l 134.6603,-919.5603 c -44.0144,300.5634 183.3967,577.3789 510.2616,621.1146 l 10601.3182,1418.4935 c 326.865,43.7357 625.051,-162.7531 669.065,-463.3164 l -134.66,919.5603 c -44.014,300.5633 -342.201,507.0521 -669.065,463.3164 z"
                 style="fill:#ed5353;fill-opacity:1;stroke:none;stroke-width:1713.86804199;stroke-linecap:round;stroke-linejoin:round;stroke-miterlimit:4;stroke-dasharray:none;stroke-opacity:1" />
              <path
                 inkscape:connector-curvature="0"
                 id="rect960"
                 d="M 3943.0037,-5291.9806 C 2906.4943,-5430.6692 2119.067,-6214.3104 1999.2525,-7157.3091 l 73.7911,-503.9003 c 119.8146,942.9987 907.2418,1726.6397 1943.7513,1865.3284 l 7439.6101,995.4459 c 1034.937,138.4785 2010.225,-401.3841 2395.584,-1272.8721 l -73.791,503.9003 c -385.359,871.488 -1360.647,1411.3508 -2395.584,1272.8722 z"
                 style="fill:#ed5353;fill-opacity:1;stroke:none;stroke-width:1713.86804199;stroke-linecap:round;stroke-linejoin:round;stroke-miterlimit:4;stroke-dasharray:none;stroke-opacity:1" />
              <path
                 inkscape:connector-curvature="0"
                 id="rect972"
                 d="m 4100.0121,-6416.9011 c -921.1005,-123.2465 -1529.4871,-878.7744 -1411.2273,-1686.3487 30.4435,-186.7352 -110.4369,-357.5897 -299.5525,-363.2615 -76.157,-2.0075 -150.4319,23.833 -208.9022,72.6724 l 63.4197,-433.076 c 58.4702,-48.8394 132.7451,-74.6793 208.902,-72.6717 189.1162,5.6718 329.996,176.5263 299.5525,363.2615 -118.2597,807.5737 490.1269,1563.1015 1411.2274,1686.348 l 7439.6103,995.446 c 921.104,123.2469 1731.897,-450.6771 1850.159,-1258.2499 38.687,-285.5763 410.093,-371.5583 570.344,-132.0367 l -63.42,433.0759 c -160.25,-239.5215 -531.656,-153.5394 -570.344,132.0367 -118.261,807.573 -929.055,1381.4968 -1850.158,1258.2499 z"
                 style="fill:#a10705;fill-opacity:1;stroke:none;stroke-width:1713.86804199;stroke-linecap:round;stroke-linejoin:round;stroke-miterlimit:4;stroke-dasharray:none;stroke-opacity:1" />
              <rect
                 style="fill:none;fill-opacity:1;stroke:#7a0000;stroke-width:625.99597168;stroke-linecap:round;stroke-linejoin:round;stroke-miterlimit:4;stroke-dasharray:none;stroke-opacity:1"
                 id="rect948"
                 width="11886.741"
                 height="7453.7178"
                 x="940.61841"
                 y="3624.9517"
                 transform="matrix(0.99116674,0.13262159,0.14489456,-0.9894471,0,0)"
                 ry="546.32391"
                 rx="597.12177" />
              <rect
                 ry="598.61688"
                 rx="654.27698"
                 transform="matrix(0.99116674,0.13262159,0.14489456,-0.9894471,0,0)"
                 y="4882.6553"
                 x="5457.2041"
                 height="3586.0454"
                 width="3077.7805"
                 id="rect982"
                 style="fill:#abacae;fill-opacity:1;stroke:none;stroke-width:625.99597168;stroke-linecap:round;stroke-linejoin:round;stroke-miterlimit:4;stroke-dasharray:none;stroke-opacity:1" />
              <path
                 transform="matrix(646.48343,86.50175,87.053149,-594.46322,-459.29453,-346.70704)"
                 sodipodi:nodetypes="sscsscsss"
                 inkscape:connector-curvature="0"
                 id="rect986"
                 d="m 10.140625,7.65625 c -0.554,0 -1,0.446 -1,1 v 1.203125 c 0,-0.554 0.446,-1 1,-1 h 2.71875 c 0.554,0 1,0.446 1,1 V 8.65625 c 0,-0.554 -0.446,-1 -1,-1 z"
                 style="fill:#d4d4d4;fill-opacity:1;stroke:none;stroke-width:1;stroke-linecap:round;stroke-linejoin:round;stroke-miterlimit:4;stroke-dasharray:none;stroke-opacity:1" />
              <path
                 transform="matrix(646.48343,86.50175,87.053149,-594.46322,-459.29453,-346.70704)"
                 id="rect991"
                 d="M 9.140625,11.328125 V 12.625 c 0,0.554 0.446,1 1,1 h 2.71875 c 0.554,0 1,-0.446 1,-1 v -1.296875 c 0,0.554 -0.446,1 -1,1 h -2.71875 c -0.554,0 -1,-0.446 -1,-1 z"
                 style="fill:#7e8087;fill-opacity:1;stroke:none;stroke-width:1;stroke-linecap:round;stroke-linejoin:round;stroke-miterlimit:4;stroke-dasharray:none;stroke-opacity:1"
                 inkscape:connector-curvature="0" />
              <rect
                 style="fill:none;fill-opacity:1;stroke:#555761;stroke-width:625.99597168;stroke-linecap:round;stroke-linejoin:round;stroke-miterlimit:4;stroke-dasharray:none;stroke-opacity:1"
                 id="rect984"
                 width="3077.7805"
                 height="3586.0454"
                 x="5457.2041"
                 y="4882.6553"
                 transform="matrix(0.99116674,0.13262159,0.14489456,-0.9894471,0,0)"
                 rx="654.27698"
                 ry="598.61688" />
            </g>
            <path
               style="fill:#3689e6;fill-opacity:1;stroke:none;stroke-width:625.97192383;stroke-linecap:round;stroke-linejoin:round;stroke-miterlimit:4;stroke-dasharray:none;stroke-opacity:1"
               d="m 16327.368,-7907.4727 c -80.828,551.9522 -680.258,991.7652 -1572.491,1153.7654 -892.233,162 -1941.717,21.5754 -2753.123,-368.3776 -811.405,-389.9529 -1261.459,-970.1905 -1180.631,-1522.1437 v 0 c 80.828,-551.9531 -369.226,-1132.1908 -1180.6318,-1522.1434 -811.4051,-389.953 -1860.8896,-530.378 -2753.1227,-368.378 -892.2334,162 -1491.6637,601.8133 -1572.4911,1153.7665 h -1e-4 c -80.8282,551.9521 -680.2585,991.7651 -1572.4913,1153.7653 -892.233,162 -1941.7175,21.5753 -2753.1227,-368.3775 -811.4054,-389.9529 -1261.45952,-970.1906 -1180.63124,-1522.1433 L 1045.573,-14203.712 c 0,0 15871.333,2619.192 15940.837,2641.885 69.502,22.693 -659.042,3654.3543 -659.042,3654.3543 z"
               id="path1000"
               inkscape:connector-curvature="0"
               sodipodi:nodetypes="cssccssccsscccc" />
            <path
               sodipodi:nodetypes="cssccssccsscccc"
               inkscape:connector-curvature="0"
               id="path1009"
               d="m 16327.368,-7907.4727 c -80.828,551.9522 -680.258,991.7652 -1572.491,1153.7654 -892.233,162 -1941.717,21.5754 -2753.123,-368.3776 -811.405,-389.9529 -1261.459,-970.1905 -1180.631,-1522.1437 v 0 c 80.828,-551.9531 -369.226,-1132.1908 -1180.6318,-1522.1434 -811.4051,-389.953 -1860.8896,-530.378 -2753.1227,-368.378 -892.2334,162 -1491.6637,601.8133 -1572.4911,1153.7665 h -1e-4 c -80.8282,551.9521 -680.2585,991.7651 -1572.4913,1153.7653 -892.233,162 -1941.7175,21.5753 -2753.1227,-368.3775 -811.4054,-389.9529 -1261.45952,-970.1906 -1180.63124,-1522.1433 L 1045.573,-14203.712 c 0,0 15871.333,2619.192 15940.837,2641.885 69.502,22.693 -659.042,3654.3543 -659.042,3654.3543 z"
               style="fill:none;fill-opacity:1;stroke:#0d52bf;stroke-width:625.97192383;stroke-linecap:round;stroke-linejoin:round;stroke-miterlimit:4;stroke-dasharray:none;stroke-opacity:1" />
            <path
               style="fill:#8cd5ff;fill-opacity:1;stroke:none;stroke-width:1;stroke-linecap:round;stroke-linejoin:round;stroke-miterlimit:4;stroke-dasharray:none;stroke-opacity:1"
               d="M 2.4941406 13.582031 C 1.7588922 13.582031 1.0240441 13.697565 0.36523438 13.929688 C -0.95238544 14.393932 -1.7636724 15.251198 -1.7636719 16.179688 L -1.6328125 17.126953 C -1.3563877 16.452108 -0.64700644 15.862508 0.36523438 15.505859 C 1.6828539 15.041615 3.3054276 15.041615 4.6230469 15.505859 C 5.9406658 15.970104 6.7519525 16.827371 6.7519531 17.755859 C 6.7519523 18.684349 7.5651926 19.541615 8.8828125 20.005859 C 10.200432 20.470104 11.823006 20.470104 13.140625 20.005859 C 14.458245 19.541614 15.269531 18.684349 15.269531 17.755859 C 15.269531 16.827369 16.082771 15.970104 17.400391 15.505859 C 18.718011 15.041615 20.340584 15.041615 21.658203 15.505859 C 22.975822 15.970104 23.787109 16.827371 23.787109 17.755859 C 23.787109 17.755859 23.918933 20.527508 23.972656 22.355469 C 23.972665 22.355467 23.974601 22.35547 23.974609 22.355469 C 24.085093 22.333372 23.787109 16.179688 23.787109 16.179688 C 23.787109 15.251199 22.975822 14.393932 21.658203 13.929688 C 20.340584 13.465443 18.718011 13.465443 17.400391 13.929688 C 16.082771 14.393932 15.269531 15.251197 15.269531 16.179688 C 15.269531 17.108177 14.458245 17.967396 13.140625 18.431641 C 11.823006 18.895886 10.200432 18.895885 8.8828125 18.431641 C 7.5651926 17.967396 6.7519522 17.108177 6.7519531 16.179688 C 6.7519526 15.251199 5.9406658 14.393932 4.6230469 13.929688 C 3.9642372 13.697565 3.229389 13.582031 2.4941406 13.582031 z "
               transform="matrix(646.48343,86.50175,87.053149,-594.46322,-459.29453,-346.70704)"
               id="path1011" />
          </g>
        </g>
      </g>
    </g>
  </g>
</svg>
