<?xml version="1.0" encoding="UTF-8" standalone="no"?>
<!-- Created with Inkscape (http://www.inkscape.org/) -->

<svg
   xmlns:dc="http://purl.org/dc/elements/1.1/"
   xmlns:cc="http://creativecommons.org/ns#"
   xmlns:rdf="http://www.w3.org/1999/02/22-rdf-syntax-ns#"
   xmlns:svg="http://www.w3.org/2000/svg"
   xmlns="http://www.w3.org/2000/svg"
   xmlns:sodipodi="http://sodipodi.sourceforge.net/DTD/sodipodi-0.dtd"
   xmlns:inkscape="http://www.inkscape.org/namespaces/inkscape"
   width="22"
   height="22"
   viewBox="0 0 1.42076 1.42076"
   version="1.1"
   id="svg41"
   inkscape:version="0.92.4 (unknown)"
   sodipodi:docname="hand.svg">
  <defs
     id="defs35" />
  <sodipodi:namedview
     id="base"
     pagecolor="#ffffff"
     bordercolor="#666666"
     borderopacity="1.0"
     inkscape:pageopacity="0.0"
     inkscape:pageshadow="2"
     inkscape:zoom="39.672131"
     inkscape:cx="6.6216053"
     inkscape:cy="13.023464"
     inkscape:document-units="px"
     inkscape:current-layer="layer1"
     showgrid="false"
     inkscape:window-width="2560"
     inkscape:window-height="1377"
     inkscape:window-x="0"
     inkscape:window-y="30"
     inkscape:window-maximized="1"
     units="px"
     inkscape:snap-page="false"
     scale-x="1e-05"
     inkscape:snap-object-midpoints="true"
     inkscape:snap-bbox="true"
     inkscape:snap-bbox-midpoints="true"
     inkscape:snap-bbox-edge-midpoints="false"
     inkscape:bbox-nodes="true"
     inkscape:bbox-paths="false"
     inkscape:snap-nodes="true"
     inkscape:snap-grids="false"
     inkscape:snap-others="false" />
  <metadata
     id="metadata38">
    <rdf:RDF>
      <cc:Work
         rdf:about="">
        <dc:format>image/svg+xml</dc:format>
        <dc:type
           rdf:resource="http://purl.org/dc/dcmitype/StillImage" />
        <dc:title />
      </cc:Work>
    </rdf:RDF>
  </metadata>
  <g
     inkscape:label="Ebene 1"
     inkscape:groupmode="layer"
     id="layer1"
     transform="translate(0.05960665,-288.59358)">
    <path
       style="fill:#ffa154;stroke-width:0.08598968"
       inkscape:connector-curvature="0"
       d="m 1.0140156,289.05417 c -0.0503864,0 -0.0912793,0.0409 -0.0912793,0.0913 v -0.0609 c 0,-0.0504 -0.0408929,-0.0914 -0.0912794,-0.0914 -0.0503864,0 -0.0912794,0.0409 -0.0912794,0.0914 v -0.0609 c 0,-0.0504 -0.0408929,-0.0914 -0.0912794,-0.0914 -0.0503864,0 -0.0912794,0.0409 -0.0912794,0.0914 v -0.28859 c 0,-0.0504 -0.0408929,-0.0914 -0.0912794,-0.0914 -0.0503864,0 -0.0912794,0.0409 -0.0912794,0.0914 v 0.67259 l -0.22618181,-0.0963 h -1.8944e-4 c -0.0133822,-0.009 -0.0298173,-0.0134 -0.0474671,-0.0134 -0.05050896,0 -0.09127939,0.0408 -0.09127939,0.0913 0,0.0177 0.00486931,0.0347 0.01399498,0.0487 l -1.1141e-4,-2.3e-4 0.27967682,0.40846 c 0.0445477,0.0711 0.12243384,0.11415 0.20622546,0.11415 h 0.2913096 c 0.16800667,0 0.30425719,-0.13631 0.30425719,-0.3044 v -0.51047 c 0,-0.0505 -0.040893,-0.0913 -0.09128,-0.0913 z"
       id="path833"
       sodipodi:nodetypes="ccsscsscssscccsscccsssscc" />
    <path
       sodipodi:nodetypes="ccsscsscssscccsscccsssscc"
       id="path866"
       d="m 1.0140156,289.05417 c -0.0503864,0 -0.0912793,0.0409 -0.0912793,0.0913 v -0.0609 c 0,-0.0504 -0.0408929,-0.0914 -0.0912794,-0.0914 -0.0503864,0 -0.0912794,0.0409 -0.0912794,0.0914 v -0.0609 c 0,-0.0504 -0.0408929,-0.0914 -0.0912794,-0.0914 -0.0503864,0 -0.0912794,0.0409 -0.0912794,0.0914 v -0.28859 c 0,-0.0504 -0.0408929,-0.0914 -0.0912794,-0.0914 -0.0503864,0 -0.0912794,0.0409 -0.0912794,0.0914 v 0.67259 l -0.22618181,-0.0963 h -1.8944e-4 c -0.0133822,-0.009 -0.0298173,-0.0134 -0.0474671,-0.0134 -0.05050896,0 -0.09127939,0.0408 -0.09127939,0.0913 0,0.0177 0.00486931,0.0347 0.01399498,0.0487 l -1.1141e-4,-2.3e-4 0.27967682,0.40846 c 0.0445477,0.0711 0.12243384,0.11415 0.20622546,0.11415 h 0.2913096 c 0.16800667,0 0.30425719,-0.13631 0.30425719,-0.3044 v -0.51047 c 0,-0.0505 -0.040893,-0.0913 -0.09128,-0.0913 z"
       inkscape:connector-curvature="0"
       style="fill:none;stroke:#0e141f;stroke-width:0.06458;stroke-linecap:round;stroke-linejoin:round;stroke-miterlimit:4;stroke-dasharray:none;stroke-opacity:1" />
    <path
       style="fill:#f37329;stroke-width:0.08598968"
       d="m 0.0251546,289.33898 c -0.0095443,0.0144 -0.01526207,0.0317 -0.01526207,0.0503 0,0.0177 0.00487507,0.0347 0.01400075,0.0487 l 0.27963644,0.40816 c 0.0445477,0.0711 0.12243553,0.11415 0.20622714,0.11415 h 0.29124068 c 0.16800668,0 0.30435846,-0.13627 0.30435846,-0.30436 v -0.1009 c 0,0.16809 -0.13635178,0.30436 -0.30435846,0.30436 H 0.50975686 c -0.0837916,0 -0.16167944,-0.0431 -0.20622714,-0.11415 z"
       id="path870"
       inkscape:connector-curvature="0" />
    <path
       style="fill:#ffc27d;stroke-width:0.08598968"
       d="m 0.46636717,288.64374 c -0.0503864,0 -0.0913201,0.0408 -0.0913201,0.0913 v 0.0863 c 0,-0.0505 0.0409337,-0.0913 0.0913201,-0.0913 0.0503865,0 0.091194,0.0409 0.091194,0.0913 v -0.0863 c 0,-0.0504 -0.0408075,-0.0913 -0.091194,-0.0913 z m 0.18251418,0.28846 c -0.0503864,0 -0.0913202,0.0409 -0.0913202,0.0914 v 0.0863 c 0,-0.0505 0.0409337,-0.0913 0.0913202,-0.0913 0.0503865,0 0.0913202,0.0409 0.0913202,0.0913 v 0.0609 c 0,-0.0505 0.0408076,-0.0914 0.091194,-0.0914 0.0503865,0 0.0913202,0.041 0.0913202,0.0914 v 0.0609 c -7e-8,-0.0504 0.0409337,-0.0913 0.0913201,-0.0913 0.050387,0 0.09132,0.0408 0.09132,0.0913 v -0.0863 c 0,-0.0505 -0.040933,-0.0913 -0.09132,-0.0913 -0.0503864,0 -0.0913201,0.0409 -0.0913201,0.0913 v -0.0609 c 0,-0.0504 -0.0409337,-0.0914 -0.0913202,-0.0914 -0.0503864,0 -0.091194,0.0409 -0.091194,0.0914 v -0.0609 c 0,-0.0504 -0.0409337,-0.0914 -0.0913202,-0.0914 z m -0.54766866,0.36579 c -0.05050896,0 -0.09132016,0.0408 -0.09132016,0.0913 0,0.0155 0.00429664,0.0301 0.01135195,0.043 0.0154228,-0.0285 0.04521272,-0.0481 0.07996821,-0.0481 0.0176498,0 0.0340437,0.004 0.0474259,0.0134 h 2.525e-4 l 0.22615614,0.0964 c 0.0455502,-0.0389 0,-0.0863 0,-0.0863 l -0.22615638,-0.0964 h -2.5251e-4 c -0.013382,-0.009 -0.0297759,-0.0134 -0.0474257,-0.0134 z"
       id="path881"
       inkscape:connector-curvature="0"
       sodipodi:nodetypes="sscscsssscsscsscscsscsscsssscsccccccs" />
    <path
       style="fill:none;stroke:#a62100;stroke-width:0.06458;stroke-linecap:round;stroke-linejoin:round;stroke-miterlimit:4;stroke-dasharray:none;stroke-opacity:1"
       inkscape:connector-curvature="0"
       d="m 1.0140156,289.05417 c -0.0503864,0 -0.0912793,0.0409 -0.0912793,0.0913 v -0.0609 c 0,-0.0504 -0.0408929,-0.0914 -0.0912794,-0.0914 -0.0503864,0 -0.0912794,0.0409 -0.0912794,0.0914 v -0.0609 c 0,-0.0504 -0.0408929,-0.0914 -0.0912794,-0.0914 -0.0503864,0 -0.0912794,0.0409 -0.0912794,0.0914 v -0.28859 c 0,-0.0504 -0.0408929,-0.0914 -0.0912794,-0.0914 -0.0503864,0 -0.0912794,0.0409 -0.0912794,0.0914 v 0.67259 l -0.22618181,-0.0963 h -1.8944e-4 c -0.0133822,-0.009 -0.0298173,-0.0134 -0.0474671,-0.0134 -0.05050896,0 -0.09127939,0.0408 -0.09127939,0.0913 0,0.0177 0.00486931,0.0347 0.01399498,0.0487 l -1.1141e-4,-2.3e-4 0.27967682,0.40846 c 0.0445477,0.0711 0.12243384,0.11415 0.20622546,0.11415 h 0.2913096 c 0.16800667,0 0.30425719,-0.13631 0.30425719,-0.3044 v -0.51047 c 0,-0.0505 -0.040893,-0.0913 -0.09128,-0.0913 z"
       id="path868"
       sodipodi:nodetypes="ccsscsscssscccsscccsssscc" />
    <path
       style="fill:none;stroke:#a62100;stroke-width:0.06457999px;stroke-linecap:round;stroke-linejoin:miter;stroke-opacity:1"
       d="m 0.92273633,289.12466 v 0.19744"
       id="path875"
       inkscape:connector-curvature="0" />
    <path
       style="fill:none;stroke:#a62100;stroke-width:0.06457999px;stroke-linecap:round;stroke-linejoin:miter;stroke-opacity:1"
       d="m 0.74017754,289.07237 v 0.22603"
       id="path877"
       inkscape:connector-curvature="0" />
    <path
       style="fill:none;stroke:#a62100;stroke-width:0.06458px;stroke-linecap:round;stroke-linejoin:miter;stroke-opacity:1"
       d="m 0.55761872,289.02238 v 0.2445"
       id="path879"
       inkscape:connector-curvature="0" />
  </g>
</svg>
