<?xml version="1.0" encoding="UTF-8" standalone="no"?>
<svg
   xmlns:dc="http://purl.org/dc/elements/1.1/"
   xmlns:cc="http://creativecommons.org/ns#"
   xmlns:rdf="http://www.w3.org/1999/02/22-rdf-syntax-ns#"
   xmlns:svg="http://www.w3.org/2000/svg"
   xmlns="http://www.w3.org/2000/svg"
   xmlns:sodipodi="http://sodipodi.sourceforge.net/DTD/sodipodi-0.dtd"
   xmlns:inkscape="http://www.inkscape.org/namespaces/inkscape"
   version="1.0"
   width="22"
   height="22"
   viewBox="0 0 17.6 17.6"
   preserveAspectRatio="xMidYMid meet"
   id="svg2"
   inkscape:version="0.92.4 (unknown)"
   sodipodi:docname="object-select.svg">
  <defs
     id="defs12" />
  <sodipodi:namedview
     pagecolor="#ffffff"
     bordercolor="#666666"
     borderopacity="1"
     objecttolerance="10"
     gridtolerance="10"
     guidetolerance="10"
     inkscape:pageopacity="0"
     inkscape:pageshadow="2"
     inkscape:window-width="1920"
     inkscape:window-height="1047"
     id="namedview10"
     showgrid="false"
     inkscape:zoom="16.000001"
     inkscape:cx="14.968129"
     inkscape:cy="13.238919"
     inkscape:window-x="2560"
     inkscape:window-y="0"
     inkscape:window-maximized="1"
     inkscape:current-layer="svg2" />
  <metadata
     id="metadata4">
Created by potrace 1.11, written by Peter Selinger 2001-2013
<rdf:RDF>
  <cc:Work
     rdf:about="">
    <dc:format>image/svg+xml</dc:format>
    <dc:type
       rdf:resource="http://purl.org/dc/dcmitype/StillImage" />
  </cc:Work>
</rdf:RDF>
</metadata>
  <g
     id="g853">
    <path
       inkscape:connector-curvature="0"
       id="path4"
       d="m 4.122256,0.65286879 a 0.34577128,0.34609975 0 0 0 -0.3457712,0.34609975 0.34577128,0.34609975 0 0 0 0.00151,0.0302271 0.38617038,0.38653723 0 0 0 0,0.00151 0.38617038,0.38653723 0 0 0 -0.00151,0.010579 0.38617038,0.38653723 0 0 0 0,0.034761 0.38617038,0.38653723 0 0 0 0,0.013602 0.38617038,0.38653723 0 0 0 0,0.012091 0.38617038,0.38653723 0 0 0 0,0.060454 V 13.854534 a 0.38617038,0.38653723 0 0 0 0.6522846,0.2796 l 2.7978785,-2.632776 2.2573281,5.217188 a 0.38617038,0.38653723 0 0 0 0.519412,0.191943 l 1.688088,-0.772302 a 0.38617038,0.38653723 0 0 0 0.193269,-0.506303 L 9.5322934,10.485729 13.46563,10.147186 A 0.38617038,0.38653723 0 0 0 13.695138,9.4716118 L 4.4891662,0.88410575 a 0.38617038,0.38653723 0 0 0 -0.060397,-0.0604541 0.38617038,0.38653723 0 0 0 -0.025668,-0.0272043 0.34577128,0.34609975 0 0 0 -0.00151,0 A 0.34577128,0.34609975 0 0 0 4.122256,0.65286879 Z"
       style="line-height:normal;font-family:'Bitstream Vera Sans';-inkscape-font-specification:'Bitstream Vera Sans';text-indent:0;text-align:start;text-transform:none;overflow:visible;fill:#ffffff;fill-opacity:1;stroke:none;stroke-width:0.62420827;stroke-opacity:1;enable-background:accumulate" />
    <path
       style="line-height:normal;font-family:'Bitstream Vera Sans';-inkscape-font-specification:'Bitstream Vera Sans';text-indent:0;text-align:start;text-transform:none;overflow:visible;fill:none;fill-opacity:1;stroke:#000000;stroke-width:0.80000001;stroke-miterlimit:4;stroke-dasharray:none;stroke-opacity:1;enable-background:accumulate"
       d="m 4.122256,0.65286879 a 0.34577128,0.34609975 0 0 0 -0.3457712,0.34609975 0.34577128,0.34609975 0 0 0 0.00151,0.0302271 0.38617038,0.38653723 0 0 0 0,0.00151 0.38617038,0.38653723 0 0 0 -0.00151,0.010579 0.38617038,0.38653723 0 0 0 0,0.034761 0.38617038,0.38653723 0 0 0 0,0.013602 0.38617038,0.38653723 0 0 0 0,0.012091 0.38617038,0.38653723 0 0 0 0,0.060454 V 13.854534 a 0.38617038,0.38653723 0 0 0 0.6522846,0.2796 l 2.7978785,-2.632776 2.2573281,5.217188 a 0.38617038,0.38653723 0 0 0 0.519412,0.191943 l 1.688088,-0.772302 a 0.38617038,0.38653723 0 0 0 0.193269,-0.506303 L 9.5322934,10.485729 13.46563,10.147186 A 0.38617038,0.38653723 0 0 0 13.695138,9.4716118 L 4.4891662,0.88410575 a 0.38617038,0.38653723 0 0 0 -0.060397,-0.0604541 0.38617038,0.38653723 0 0 0 -0.025668,-0.0272043 0.34577128,0.34609975 0 0 0 -0.00151,0 A 0.34577128,0.34609975 0 0 0 4.122256,0.65286879 Z"
       id="path836"
       inkscape:connector-curvature="0" />
    <path
       id="path838"
       transform="scale(0.8)"
       d="M 5.1523438 0.81640625 A 0.4322141 0.43262469 0 0 0 4.7207031 1.2480469 A 0.4322141 0.43262469 0 0 0 4.7226562 1.2871094 A 0.48271297 0.48317154 0 0 0 4.7226562 1.2890625 A 0.48271297 0.48317154 0 0 0 4.7207031 1.3007812 A 0.48271297 0.48317154 0 0 0 4.7207031 1.3457031 A 0.48271297 0.48317154 0 0 0 4.7207031 1.3613281 A 0.48271297 0.48317154 0 0 0 4.7207031 1.3769531 A 0.48271297 0.48317154 0 0 0 4.7207031 1.453125 L 4.7207031 2.4414062 A 0.4322141 0.43262469 0 0 1 5.1523438 2.0097656 A 0.4322141 0.43262469 0 0 1 5.5019531 2.1894531 A 0.4322141 0.43262469 0 0 0 5.5039062 2.1894531 A 0.48271297 0.48317154 0 0 1 5.5351562 2.2226562 A 0.48271297 0.48317154 0 0 1 5.6113281 2.2988281 L 16.751953 12.691406 L 16.832031 12.683594 A 0.48271297 0.48317154 0 0 0 17.119141 11.839844 L 5.6113281 1.1054688 A 0.48271297 0.48317154 0 0 0 5.5351562 1.0292969 A 0.48271297 0.48317154 0 0 0 5.5039062 0.99609375 A 0.4322141 0.43262469 0 0 0 5.5019531 0.99609375 A 0.4322141 0.43262469 0 0 0 5.1523438 0.81640625 z M 4.7207031 2.4414062 L 4.7207031 2.4941406 A 0.48271297 0.48317154 0 0 1 4.7226562 2.4824219 A 0.48271297 0.48317154 0 0 0 4.7226562 2.4804688 A 0.4322141 0.43262469 0 0 1 4.7207031 2.4414062 z M 12.441406 14.255859 L 11.916016 14.300781 L 14.601562 20.177734 L 14.615234 20.171875 A 0.48271297 0.48317154 0 0 0 14.855469 19.539062 L 12.441406 14.255859 z "
       style="line-height:normal;font-family:'Bitstream Vera Sans';-inkscape-font-specification:'Bitstream Vera Sans';text-indent:0;text-align:start;text-transform:none;overflow:visible;fill:#d4d4d4;fill-opacity:1;stroke:none;stroke-width:0.78026032;stroke-opacity:1;enable-background:accumulate" />
    <path
       id="path843"
       transform="scale(0.8)"
       d="M 4.7207031 1.3769531 A 0.48271297 0.48317154 0 0 0 4.7207031 1.453125 L 4.7207031 1.3769531 z M 17.121094 11.841797 A 0.48271297 0.48317154 0 0 1 16.832031 11.964844 L 11.916016 12.388672 L 12.232422 13.080078 L 16.832031 12.683594 A 0.48271297 0.48317154 0 0 0 17.121094 11.841797 z M 9.0332031 13.658203 L 5.5351562 16.949219 A 0.48271297 0.48317154 0 0 1 4.7207031 16.599609 L 4.7207031 17.318359 A 0.48271297 0.48317154 0 0 0 5.5351562 17.667969 L 9.0332031 14.376953 L 11.855469 20.898438 A 0.48271297 0.48317154 0 0 0 12.503906 21.138672 L 14.615234 20.171875 A 0.48271297 0.48317154 0 0 0 14.855469 19.539062 L 14.765625 19.34375 A 0.48271297 0.48317154 0 0 1 14.615234 19.453125 L 12.503906 20.419922 A 0.48271297 0.48317154 0 0 1 11.855469 20.179688 L 9.0332031 13.658203 z "
       style="line-height:normal;font-family:'Bitstream Vera Sans';-inkscape-font-specification:'Bitstream Vera Sans';text-indent:0;text-align:start;text-transform:none;overflow:visible;fill:#555761;fill-opacity:1;stroke:none;stroke-width:0.78026032;stroke-opacity:1;enable-background:accumulate" />
  </g>
</svg>
