<?xml version="1.0" encoding="UTF-8" standalone="no"?>
<svg
   xmlns:dc="http://purl.org/dc/elements/1.1/"
   xmlns:cc="http://creativecommons.org/ns#"
   xmlns:rdf="http://www.w3.org/1999/02/22-rdf-syntax-ns#"
   xmlns:svg="http://www.w3.org/2000/svg"
   xmlns="http://www.w3.org/2000/svg"
   xmlns:xlink="http://www.w3.org/1999/xlink"
   xmlns:sodipodi="http://sodipodi.sourceforge.net/DTD/sodipodi-0.dtd"
   xmlns:inkscape="http://www.inkscape.org/namespaces/inkscape"
   version="1.0"
   width="22"
   height="22"
   viewBox="0 0 17.6 17.6"
   preserveAspectRatio="xMidYMid meet"
   id="svg2"
   inkscape:version="0.92.4 (unknown)"
   sodipodi:docname="object-play.svg">
  <defs
     id="defs12">
    <linearGradient
       id="linearGradient2395"
       y2="43.877998"
       gradientUnits="userSpaceOnUse"
       x2="18.037001"
       gradientTransform="matrix(0.3608068,0,0,0.31393635,-2.1784132,-0.29902998)"
       y1="14.511"
       x1="18.037001">
      <stop
         id="stop2266"
         style="stop-color:#d7e866"
         offset="0" />
      <stop
         id="stop2268"
         style="stop-color:#8cab2a"
         offset="1" />
    </linearGradient>
    <linearGradient
       id="linearGradient2392"
       y2="46.874001"
       gradientUnits="userSpaceOnUse"
       x2="13.759"
       gradientTransform="matrix(0.30016815,0,0,0.28595857,-0.3497084,0.29843031)"
       y1="14.66"
       x1="34.403999">
      <stop
         id="stop4224"
         style="stop-color:#fff"
         offset="0" />
      <stop
         id="stop4226"
         style="stop-color:#fff;stop-opacity:0"
         offset="1" />
    </linearGradient>
    <linearGradient
       id="linearGradient2395-3"
       y2="43.877998"
       gradientUnits="userSpaceOnUse"
       x2="18.037001"
       gradientTransform="matrix(0.61021244,0,0,0.51936283,-21.290976,-16.216856)"
       y1="14.511"
       x1="18.037001">
      <stop
         id="stop2266-6"
         style="stop-color:#d7e866"
         offset="0" />
      <stop
         id="stop2268-7"
         style="stop-color:#8cab2a"
         offset="1" />
    </linearGradient>
    <linearGradient
       id="linearGradient2392-5"
       y2="46.874001"
       gradientUnits="userSpaceOnUse"
       x2="13.759"
       gradientTransform="matrix(0.50765768,0,0,0.47307759,-18.198189,-15.228443)"
       y1="14.66"
       x1="34.403999">
      <stop
         id="stop4224-3"
         style="stop-color:#fff"
         offset="0" />
      <stop
         id="stop4226-5"
         style="stop-color:#fff;stop-opacity:0"
         offset="1" />
    </linearGradient>
    <linearGradient
       id="linearGradient2395-3-3"
       y2="43.877998"
       gradientUnits="userSpaceOnUse"
       x2="18.037001"
       gradientTransform="matrix(0.61021244,0,0,0.51936283,-21.273636,-8.4108414)"
       y1="14.511"
       x1="18.037001">
      <stop
         id="stop2266-6-6"
         style="stop-color:#d7e866"
         offset="0" />
      <stop
         id="stop2268-7-7"
         style="stop-color:#8cab2a"
         offset="1" />
    </linearGradient>
    <linearGradient
       id="linearGradient2392-5-5"
       y2="46.874001"
       gradientUnits="userSpaceOnUse"
       x2="13.759"
       gradientTransform="matrix(0.50765768,0,0,0.47307759,-18.180849,-7.4224284)"
       y1="14.66"
       x1="34.403999">
      <stop
         id="stop4224-3-3"
         style="stop-color:#fff"
         offset="0" />
      <stop
         id="stop4226-5-5"
         style="stop-color:#fff;stop-opacity:0"
         offset="1" />
    </linearGradient>
    <linearGradient
       id="linearGradient28086">
      <stop
         style="stop-color:#ecba3d;stop-opacity:1"
         offset="0"
         id="stop28082" />
      <stop
         style="stop-color:#f2d666;stop-opacity:1"
         offset="1"
         id="stop28084" />
    </linearGradient>
    <marker
       inkscape:isstock="true"
       style="overflow:visible"
       id="TriangleOutS"
       refX="0.0"
       refY="0.0"
       orient="auto"
       inkscape:stockid="TriangleOutS">
      <path
         transform="scale(0.2)"
         style="fill-rule:evenodd;stroke:#000000;stroke-width:1pt;stroke-opacity:1;fill:#000000;fill-opacity:1"
         d="M 5.77,0.0 L -2.88,5.0 L -2.88,-5.0 L 5.77,0.0 z "
         id="path1114" />
    </marker>
    <marker
       inkscape:isstock="true"
       style="overflow:visible"
       id="DotM"
       refX="0.0"
       refY="0.0"
       orient="auto"
       inkscape:stockid="DotM">
      <path
         transform="scale(0.4) translate(7.4, 1)"
         style="fill-rule:evenodd;stroke:#000000;stroke-width:1pt;stroke-opacity:1;fill:#000000;fill-opacity:1"
         d="M -2.5,-1.0 C -2.5,1.7600000 -4.7400000,4.0 -7.5,4.0 C -10.260000,4.0 -12.5,1.7600000 -12.5,-1.0 C -12.5,-3.7600000 -10.260000,-6.0 -7.5,-6.0 C -4.7400000,-6.0 -2.5,-3.7600000 -2.5,-1.0 z "
         id="path1030" />
    </marker>
    <marker
       inkscape:isstock="true"
       style="overflow:visible"
       id="DiamondL"
       refX="0.0"
       refY="0.0"
       orient="auto"
       inkscape:stockid="DiamondL">
      <path
         transform="scale(0.8)"
         style="fill-rule:evenodd;stroke:#000000;stroke-width:1pt;stroke-opacity:1;fill:#000000;fill-opacity:1"
         d="M 0,-7.0710768 L -7.0710894,0 L 0,7.0710589 L 7.0710462,0 L 0,-7.0710768 z "
         id="path1045" />
    </marker>
    <marker
       inkscape:stockid="TriangleInS"
       orient="auto"
       refY="0.0"
       refX="0.0"
       id="marker24093"
       style="overflow:visible"
       inkscape:isstock="true">
      <path
         id="path24091"
         d="M 5.77,0.0 L -2.88,5.0 L -2.88,-5.0 L 5.77,0.0 z "
         style="fill-rule:evenodd;stroke:#85caf2;stroke-width:1pt;stroke-opacity:1;fill:#85caf2;fill-opacity:1"
         transform="scale(-0.2)" />
    </marker>
    <marker
       inkscape:isstock="true"
       style="overflow:visible"
       id="marker22425"
       refX="0.0"
       refY="0.0"
       orient="auto"
       inkscape:stockid="TriangleInS">
      <path
         transform="scale(-0.2)"
         style="fill-rule:evenodd;stroke:#01090d;stroke-width:1pt;stroke-opacity:1;fill:#01090d;fill-opacity:1"
         d="M 5.77,0.0 L -2.88,5.0 L -2.88,-5.0 L 5.77,0.0 z "
         id="path22423" />
    </marker>
    <marker
       inkscape:stockid="TriangleInS"
       orient="auto"
       refY="0.0"
       refX="0.0"
       id="marker9795"
       style="overflow:visible"
       inkscape:isstock="true">
      <path
         id="path9793"
         d="M 5.77,0.0 L -2.88,5.0 L -2.88,-5.0 L 5.77,0.0 z "
         style="fill-rule:evenodd;stroke:#85caf2;stroke-width:1pt;stroke-opacity:1;fill:#85caf2;fill-opacity:1"
         transform="scale(-0.2)" />
    </marker>
    <marker
       inkscape:stockid="TriangleInS"
       orient="auto"
       refY="0.0"
       refX="0.0"
       id="marker4975"
       style="overflow:visible"
       inkscape:isstock="true">
      <path
         id="path4973"
         d="M 5.77,0.0 L -2.88,5.0 L -2.88,-5.0 L 5.77,0.0 z "
         style="fill-rule:evenodd;stroke:#85caf2;stroke-width:1pt;stroke-opacity:1;fill:#85caf2;fill-opacity:1"
         transform="scale(-0.2)" />
    </marker>
    <marker
       inkscape:stockid="TriangleInS"
       orient="auto"
       refY="0.0"
       refX="0.0"
       id="marker4471"
       style="overflow:visible"
       inkscape:isstock="true">
      <path
         id="path4469"
         d="M 5.77,0.0 L -2.88,5.0 L -2.88,-5.0 L 5.77,0.0 z "
         style="fill-rule:evenodd;stroke:#341654;stroke-width:1pt;stroke-opacity:1;fill:#341654;fill-opacity:1"
         transform="scale(-0.2)" />
    </marker>
    <marker
       inkscape:stockid="TriangleInS"
       orient="auto"
       refY="0.0"
       refX="0.0"
       id="marker4135"
       style="overflow:visible"
       inkscape:isstock="true">
      <path
         id="path4133"
         d="M 5.77,0.0 L -2.88,5.0 L -2.88,-5.0 L 5.77,0.0 z "
         style="fill-rule:evenodd;stroke:#85caf2;stroke-width:1pt;stroke-opacity:1;fill:#85caf2;fill-opacity:1"
         transform="scale(-0.2)" />
    </marker>
    <marker
       inkscape:isstock="true"
       style="overflow:visible"
       id="marker3467"
       refX="0.0"
       refY="0.0"
       orient="auto"
       inkscape:stockid="TriangleInS">
      <path
         transform="scale(-0.2)"
         style="fill-rule:evenodd;stroke:#341654;stroke-width:1pt;stroke-opacity:1;fill:#341654;fill-opacity:1"
         d="M 5.77,0.0 L -2.88,5.0 L -2.88,-5.0 L 5.77,0.0 z "
         id="path3465" />
    </marker>
    <linearGradient
       id="linearGradient36194">
      <stop
         offset="0"
         style="stop-color:#e2e2e2;stop-opacity:0.73333335"
         id="stop36186" />
      <stop
         offset=".063"
         style="stop-color:#dadada;stop-opacity:0.14901961"
         id="stop36188" />
      <stop
         offset=".951"
         style="stop-color:#d9d9d9;stop-opacity:0.22352941"
         id="stop36190" />
      <stop
         offset="1"
         style="stop-color:#c1c1c1;stop-opacity:0.47398844"
         id="stop36192" />
    </linearGradient>
    <linearGradient
       inkscape:collect="always"
       id="linearGradient31686">
      <stop
         style="stop-color:#c6f27b;stop-opacity:1"
         offset="0"
         id="stop31682" />
      <stop
         style="stop-color:#8ec947;stop-opacity:1"
         offset="1"
         id="stop31684" />
    </linearGradient>
    <marker
       inkscape:isstock="true"
       style="overflow:visible"
       id="marker1293"
       refX="0.0"
       refY="0.0"
       orient="auto"
       inkscape:stockid="TriangleInS">
      <path
         transform="scale(-0.2)"
         style="fill-rule:evenodd;stroke:#9f9f9f;stroke-width:1pt;stroke-opacity:1;fill:none;fill-opacity:0.43930634"
         d="M 5.77,0.0 L -2.88,5.0 L -2.88,-5.0 L 5.77,0.0 z "
         id="path1169" />
    </marker>
    <linearGradient
       id="linearGradient1011">
      <stop
         id="stop1003"
         style="stop-color:#e2e2e2;stop-opacity:0.73333335"
         offset="0" />
      <stop
         id="stop1005"
         style="stop-color:#ffffff;stop-opacity:0.23529412"
         offset=".063" />
      <stop
         id="stop1007"
         style="stop-color:#ffffff;stop-opacity:0.15686275"
         offset=".951" />
      <stop
         id="stop1009"
         style="stop-color:#c1c1c1;stop-opacity:0.39306358"
         offset="1" />
    </linearGradient>
    <linearGradient
       id="linearGradient966-6"
       inkscape:collect="always">
      <stop
         id="stop962"
         offset="0"
         style="stop-color:#c6f27b;stop-opacity:1" />
      <stop
         id="stop964"
         offset="1"
         style="stop-color:#93d049;stop-opacity:1" />
    </linearGradient>
    <marker
       inkscape:stockid="Arrow2Sstart"
       orient="auto"
       refY="0.0"
       refX="0.0"
       id="marker3551"
       style="overflow:visible"
       inkscape:isstock="true">
      <path
         id="path3549"
         style="fill-rule:evenodd;stroke-width:0.625;stroke-linejoin:round;stroke:none;stroke-opacity:1;fill:#93d049;fill-opacity:1"
         d="M 8.7185878,4.0337352 L -2.2072895,0.016013256 L 8.7185884,-4.0017078 C 6.9730900,-1.6296469 6.9831476,1.6157441 8.7185878,4.0337352 z "
         transform="scale(0.3) translate(-2.3,0)" />
    </marker>
    <marker
       inkscape:isstock="true"
       id="ExperimentalArrow"
       refX="5.0"
       refY="3.0"
       orient="auto-start-reverse"
       inkscape:stockid="ExperimentalArrow">
      <path
         style="fill:context-stroke;stroke:#93d049;stroke-opacity:1"
         d="m 10,3 -10,3 0,-6 z"
         id="path1341" />
    </marker>
    <marker
       inkscape:isstock="true"
       style="overflow:visible"
       id="TriangleInM"
       refX="0.0"
       refY="0.0"
       orient="auto"
       inkscape:stockid="TriangleInM">
      <path
         transform="scale(-0.4)"
         style="fill-rule:evenodd;stroke:#85caf2;stroke-width:1pt;stroke-opacity:1;fill:#85caf2;fill-opacity:1"
         d="M 5.77,0.0 L -2.88,5.0 L -2.88,-5.0 L 5.77,0.0 z "
         id="path1224" />
    </marker>
    <marker
       inkscape:isstock="true"
       style="overflow:visible"
       id="TriangleInS"
       refX="0.0"
       refY="0.0"
       orient="auto"
       inkscape:stockid="TriangleInS">
      <path
         transform="scale(-0.2)"
         style="fill-rule:evenodd;stroke:#000000;stroke-width:1pt;stroke-opacity:1;fill:#000000;fill-opacity:1"
         d="M 5.77,0.0 L -2.88,5.0 L -2.88,-5.0 L 5.77,0.0 z "
         id="path1227" />
    </marker>
    <marker
       inkscape:isstock="true"
       style="overflow:visible"
       id="Arrow1Sstart"
       refX="0.0"
       refY="0.0"
       orient="auto"
       inkscape:stockid="Arrow1Sstart">
      <path
         transform="scale(0.2) translate(6,0)"
         style="fill-rule:evenodd;stroke:#93d049;stroke-width:1pt;stroke-opacity:1;fill:#93d049;fill-opacity:1"
         d="M 0.0,0.0 L 5.0,-5.0 L -12.5,0.0 L 5.0,5.0 L 0.0,0.0 z "
         id="path1100" />
    </marker>
    <marker
       inkscape:stockid="TriangleInM"
       orient="auto"
       refY="0.0"
       refX="0.0"
       id="marker3234"
       style="overflow:visible"
       inkscape:isstock="true">
      <path
         id="path3232"
         d="M 5.77,0.0 L -2.88,5.0 L -2.88,-5.0 L 5.77,0.0 z "
         style="fill-rule:evenodd;stroke:#93d049;stroke-width:1pt;stroke-opacity:1;fill:#93d049;fill-opacity:1"
         transform="scale(-0.4)" />
    </marker>
    <linearGradient
       id="linearGradient2920-4"
       inkscape:collect="always">
      <stop
         id="stop2916"
         offset="0"
         style="stop-color:#c396eb;stop-opacity:1;" />
      <stop
         id="stop2918"
         offset="1"
         style="stop-color:#9d68d7;stop-opacity:1" />
    </linearGradient>
    <marker
       inkscape:isstock="true"
       style="overflow:visible"
       id="marker1974"
       refX="0.0"
       refY="0.0"
       orient="auto"
       inkscape:stockid="TriangleInM">
      <path
         transform="scale(-0.4)"
         style="fill-rule:evenodd;stroke:#93d049;stroke-width:1pt;stroke-opacity:1;fill:#93d049;fill-opacity:1"
         d="M 5.77,0.0 L -2.88,5.0 L -2.88,-5.0 L 5.77,0.0 z "
         id="path1972" />
    </marker>
    <marker
       inkscape:isstock="true"
       style="overflow:visible"
       id="marker1562"
       refX="0.0"
       refY="0.0"
       orient="auto"
       inkscape:stockid="TriangleInM">
      <path
         transform="scale(-0.4)"
         style="fill-rule:evenodd;stroke:#93d049;stroke-width:1pt;stroke-opacity:1;fill:#93d049;fill-opacity:1"
         d="M 5.77,0.0 L -2.88,5.0 L -2.88,-5.0 L 5.77,0.0 z "
         id="path1560" />
    </marker>
    <linearGradient
       id="linearGradient3242-7-3-8-0-4-58-06">
      <stop
         id="stop3244-5-8-5-6-4-3-8"
         style="stop-color:#cdf87e;stop-opacity:1"
         offset="0" />
      <stop
         id="stop3246-9-5-1-5-3-0-7"
         style="stop-color:#a2e34f;stop-opacity:1"
         offset="0.26238" />
      <stop
         id="stop3248-7-2-0-7-5-35-9"
         style="stop-color:#68b723;stop-opacity:1"
         offset="0.66093999" />
      <stop
         id="stop3250-8-2-8-5-6-40-4"
         style="stop-color:#1d7e0d;stop-opacity:1"
         offset="1" />
    </linearGradient>
    <linearGradient
       x1="25.353951"
       y1="20.774603"
       x2="17.064001"
       y2="35.86034"
       id="linearGradient3038"
       xlink:href="#linearGradient4275"
       gradientUnits="userSpaceOnUse"
       gradientTransform="matrix(9.3095984,0,0,9.1781554,-110.46784,-115.44323)" />
    <linearGradient
       id="linearGradient4275">
      <stop
         offset="0"
         style="stop-color:#ffffff;stop-opacity:1"
         id="stop4277" />
      <stop
         offset="0.00205602"
         style="stop-color:#ffffff;stop-opacity:0.23529412"
         id="stop4279" />
      <stop
         offset="0.39239356"
         style="stop-color:#ffffff;stop-opacity:0.15686275"
         id="stop4281" />
      <stop
         offset="1"
         style="stop-color:#ffffff;stop-opacity:0.39215687"
         id="stop4283" />
    </linearGradient>
    <radialGradient
       cx="65.079536"
       cy="48.189987"
       r="31.000002"
       fx="65.079536"
       fy="48.189987"
       id="radialGradient3900-3"
       xlink:href="#linearGradient3242-7-3-8-0-4-58-06"
       gradientUnits="userSpaceOnUse"
       gradientTransform="matrix(0,11.915656,-12.930884,0,748.25752,-778.00996)" />
    <linearGradient
       xlink:href="#linearGradient5048"
       id="linearGradient3118"
       gradientUnits="userSpaceOnUse"
       gradientTransform="matrix(0.05498057,0,0,0.01200487,-79.643568,21.932608)"
       x1="302.85715"
       y1="366.64789"
       x2="302.85715"
       y2="609.50507" />
    <linearGradient
       id="linearGradient5048">
      <stop
         id="stop5050"
         style="stop-color:#000000;stop-opacity:0"
         offset="0" />
      <stop
         id="stop5056"
         style="stop-color:#000000;stop-opacity:1"
         offset="0.5" />
      <stop
         id="stop5052"
         style="stop-color:#000000;stop-opacity:0"
         offset="1" />
    </linearGradient>
    <radialGradient
       xlink:href="#linearGradient5060"
       id="radialGradient3115"
       gradientUnits="userSpaceOnUse"
       gradientTransform="matrix(-0.01881546,0,0,0.01200487,-61.70656,21.932632)"
       cx="605.71429"
       cy="486.64789"
       fx="605.71429"
       fy="486.64789"
       r="117.14286" />
    <linearGradient
       id="linearGradient5060">
      <stop
         id="stop5062"
         style="stop-color:#000000;stop-opacity:1"
         offset="0" />
      <stop
         id="stop5064"
         style="stop-color:#000000;stop-opacity:0"
         offset="1" />
    </linearGradient>
    <radialGradient
       xlink:href="#linearGradient5060"
       id="radialGradient3112"
       gradientUnits="userSpaceOnUse"
       gradientTransform="matrix(0.01881548,0,0,0.01200487,-57.837481,21.932632)"
       cx="605.71429"
       cy="486.64789"
       fx="605.71429"
       fy="486.64789"
       r="117.14286" />
    <linearGradient
       xlink:href="#linearGradient3600"
       id="linearGradient3109"
       gradientUnits="userSpaceOnUse"
       gradientTransform="matrix(0.79331097,0,0,0.76300776,-78.80495,-9.4242501)"
       x1="25.132275"
       y1="0.98520643"
       x2="25.132275"
       y2="47.013336" />
    <linearGradient
       id="linearGradient3600">
      <stop
         id="stop3602"
         style="stop-color:#f4f4f4;stop-opacity:1"
         offset="0" />
      <stop
         id="stop3604"
         style="stop-color:#dbdbdb;stop-opacity:1"
         offset="1" />
    </linearGradient>
    <linearGradient
       xlink:href="#linearGradient3403"
       id="linearGradient3106"
       gradientUnits="userSpaceOnUse"
       gradientTransform="matrix(0.72835954,0,0,0.92700303,-77.246109,-12.189602)"
       x1="23.99999"
       y1="5.9404659"
       x2="23.99999"
       y2="42.110645" />
    <linearGradient
       id="linearGradient3403">
      <stop
         offset="0"
         style="stop-color:#ffffff;stop-opacity:1"
         id="stop3405" />
      <stop
         offset="0"
         style="stop-color:#ffffff;stop-opacity:0.23529412"
         id="stop3407" />
      <stop
         offset="1"
         style="stop-color:#ffffff;stop-opacity:0.15686275"
         id="stop3409" />
      <stop
         offset="1"
         style="stop-color:#ffffff;stop-opacity:0.39215687"
         id="stop3411" />
    </linearGradient>
    <linearGradient
       xlink:href="#linearGradient3104-6"
       id="linearGradient3170"
       gradientUnits="userSpaceOnUse"
       gradientTransform="matrix(0.65943871,0,0,0.73066678,-30.847878,-10.747496)"
       x1="-51.786404"
       y1="50.786446"
       x2="-51.786404"
       y2="2.9062471" />
    <linearGradient
       id="linearGradient3104-6">
      <stop
         offset="0"
         style="stop-color:#000000;stop-opacity:0.31782946"
         id="stop3106-3" />
      <stop
         offset="1"
         style="stop-color:#000000;stop-opacity:0.24031007"
         id="stop3108-9" />
    </linearGradient>
    <linearGradient
       xlink:href="#linearGradient4417"
       id="linearGradient4321"
       gradientUnits="userSpaceOnUse"
       gradientTransform="matrix(0.57327507,-0.15542386,0.15428046,0.58258687,-12.738349,1.8787687)"
       x1="38.172356"
       y1="21.421766"
       x2="23.504675"
       y2="75.923912" />
    <linearGradient
       id="linearGradient4417">
      <stop
         id="stop4419"
         offset="0"
         style="stop-color:#ffa154;stop-opacity:1" />
      <stop
         id="stop4421"
         offset="1"
         style="stop-color:#cc3b02;stop-opacity:1" />
    </linearGradient>
    <linearGradient
       id="linearGradient4170">
      <stop
         style="stop-color:#93d049;stop-opacity:1"
         offset="0"
         id="stop869" />
      <stop
         style="stop-color:#378a04;stop-opacity:1"
         offset="1"
         id="stop871" />
    </linearGradient>
    <linearGradient
       id="linearGradient3180"
       x1="24"
       x2="24"
       y1="5"
       y2="43"
       gradientTransform="matrix(5.9559031,0,0,5.9719143,-14.941906,-14.983766)"
       gradientUnits="userSpaceOnUse"
       xlink:href="#linearGradient3924-2-2-5-8" />
    <linearGradient
       id="linearGradient3924-2-2-5-8">
      <stop
         offset="0"
         style="stop-color:#ffffff;stop-opacity:1"
         id="stop875" />
      <stop
         offset=".063"
         style="stop-color:#ffffff;stop-opacity:0.23529412"
         id="stop877" />
      <stop
         offset=".951"
         style="stop-color:#ffffff;stop-opacity:0.15686275"
         id="stop879" />
      <stop
         offset="1"
         style="stop-color:#ffffff;stop-opacity:0.39215687"
         id="stop881" />
    </linearGradient>
    <radialGradient
       id="radialGradient3337-2-2"
       cx="4.993"
       cy="43.5"
       r="2.5"
       fx="4.993"
       fy="43.5"
       gradientTransform="matrix(2.003784,0,0,1.4,27.98813,-17.4)"
       gradientUnits="userSpaceOnUse"
       xlink:href="#linearGradient3688-166-749-4-0-3-8" />
    <linearGradient
       id="linearGradient3688-166-749-4-0-3-8">
      <stop
         offset="0"
         style="stop-color:#181818;stop-opacity:1"
         id="stop885" />
      <stop
         offset="1"
         style="stop-color:#181818;stop-opacity:0"
         id="stop887" />
    </linearGradient>
    <radialGradient
       id="radialGradient3339-1-4"
       cx="4.993"
       cy="43.5"
       r="2.5"
       fx="4.993"
       fy="43.5"
       gradientTransform="matrix(2.003784,0,0,1.4,-20.01187,-104.4)"
       gradientUnits="userSpaceOnUse"
       xlink:href="#linearGradient3688-166-749-4-0-3-8" />
    <linearGradient
       id="linearGradient3702-501-757-8-4-1-1">
      <stop
         offset="0"
         style="stop-color:#181818;stop-opacity:0"
         id="stop896" />
      <stop
         offset=".5"
         style="stop-color:#181818;stop-opacity:1"
         id="stop898" />
      <stop
         offset="1"
         style="stop-color:#181818;stop-opacity:0"
         id="stop900" />
    </linearGradient>
    <linearGradient
       id="linearGradient4159"
       x1="25.058"
       x2="25.058"
       y1="47.028"
       y2="39.999"
       gradientUnits="userSpaceOnUse"
       xlink:href="#linearGradient3702-501-757-8-4-1-1" />
    <linearGradient
       gradientTransform="matrix(4.1578947,0,0,4.1578947,-5.052852,-4.7105311)"
       id="linearGradient4166"
       x1="32"
       x2="32"
       y1="5"
       y2="59"
       gradientUnits="userSpaceOnUse"
       xlink:href="#linearGradient4170" />
    <radialGradient
       id="radialGradient3337-2-2-5"
       cx="4.993"
       cy="43.5"
       r="2.5"
       fx="4.993"
       fy="43.5"
       gradientTransform="matrix(2.003784,0,0,1.4,27.98813,-17.4)"
       gradientUnits="userSpaceOnUse"
       xlink:href="#linearGradient3688-166-749-4-0-3-8" />
    <radialGradient
       id="radialGradient3339-1-4-9"
       cx="4.993"
       cy="43.5"
       r="2.5"
       fx="4.993"
       fy="43.5"
       gradientTransform="matrix(2.003784,0,0,1.4,-20.01187,-104.4)"
       gradientUnits="userSpaceOnUse"
       xlink:href="#linearGradient3688-166-749-4-0-3-8" />
    <linearGradient
       y2="55.669369"
       x2="176.62102"
       y1="194.85635"
       x1="61.557583"
       gradientUnits="userSpaceOnUse"
       id="linearGradient2950"
       xlink:href="#linearGradient2920-4"
       inkscape:collect="always" />
    <mask
       id="mask2946"
       maskUnits="userSpaceOnUse">
      <path
         inkscape:connector-curvature="0"
         id="path2948"
         d="m 170.80687,54.608298 c -0.63049,-0.110013 -1.31829,-0.06231 -2.04762,0.147016 L 98.189969,75.186312 c -2.917145,0.844734 -5.260454,4.11052 -5.260454,7.319385 v 78.261983 c -5.044674,-2.17975 -11.007317,-2.53929 -16.697696,-1.00682 -12.481026,3.38368 -20.306762,14.78039 -17.478294,25.45382 2.830956,10.66526 15.231468,16.56931 27.705076,13.19073 10.276734,-2.79851 17.677849,-11.17588 18.009979,-20.3857 l 0.0452,-1.58379 v -71.7911 l 57.92155,-16.765569 v 55.511929 c -5.04468,-2.17975 -11.0073,-2.53929 -16.69769,-1.00682 -12.48102,3.38369 -20.30676,14.78038 -17.4783,25.4538 2.83094,10.66527 15.23147,16.56932 27.70508,13.19075 10.27672,-2.79854 17.67785,-11.17591 18.00997,-20.3857 l 0.045,-0.61083 V 59.020349 c 0,-2.406658 -1.32169,-4.082654 -3.21282,-4.412005 z"
         style="color:#000000;clip-rule:nonzero;display:inline;overflow:visible;visibility:visible;opacity:1;isolation:auto;mix-blend-mode:normal;color-interpolation:sRGB;color-interpolation-filters:linearRGB;solid-color:#000000;solid-opacity:1;fill:url(#linearGradient2950);fill-opacity:1;fill-rule:nonzero;stroke:none;stroke-width:5.79221392;stroke-linecap:butt;stroke-linejoin:miter;stroke-miterlimit:4;stroke-dasharray:none;stroke-dashoffset:0;stroke-opacity:1;marker:none;color-rendering:auto;image-rendering:auto;shape-rendering:auto;text-rendering:auto;enable-background:accumulate" />
    </mask>
    <linearGradient
       y2="55.669369"
       x2="176.62102"
       y1="194.85635"
       x1="61.557583"
       gradientTransform="matrix(0.88430848,0,0,0.88430848,266.56393,17.630474)"
       gradientUnits="userSpaceOnUse"
       id="linearGradient947"
       xlink:href="#linearGradient2920-4"
       inkscape:collect="always" />
    <linearGradient
       y2="228.81905"
       x2="133.45816"
       y1="22.770271"
       x1="128.26543"
       gradientUnits="userSpaceOnUse"
       id="linearGradient1021"
       xlink:href="#linearGradient966-6"
       inkscape:collect="always" />
    <mask
       id="mask1017"
       maskUnits="userSpaceOnUse">
      <circle
         style="opacity:1;fill:url(#linearGradient1021);fill-opacity:1;fill-rule:evenodd;stroke:none;stroke-width:0;stroke-linecap:round;stroke-linejoin:round;stroke-miterlimit:4;stroke-dasharray:none;stroke-dashoffset:0;stroke-opacity:0.52156863;paint-order:markers fill stroke"
         id="circle1019"
         cx="128"
         cy="127.09547"
         r="103.01913" />
    </mask>
    <linearGradient
       y2="197.26253"
       x2="68.534927"
       y1="57.027744"
       x1="173.64993"
       gradientTransform="matrix(0.9187645,0,0,0.9187645,14.976287,11.252045)"
       gradientUnits="userSpaceOnUse"
       id="linearGradient1799"
       xlink:href="#linearGradient31686"
       inkscape:collect="always" />
    <radialGradient
       r="2.5"
       fy="43.5"
       fx="4.9929786"
       cy="43.5"
       cx="4.9929786"
       gradientTransform="matrix(1.9740983,0,0,1.4,26.451271,-17.402531)"
       gradientUnits="userSpaceOnUse"
       id="radialGradient3946"
       xlink:href="#linearGradient3688-166-749-4-0-3-8" />
    <radialGradient
       r="2.5"
       fy="43.5"
       fx="4.9929786"
       cy="43.5"
       cx="4.9929786"
       gradientTransform="matrix(1.9740983,0,0,1.4,-21.548734,-104.39747)"
       gradientUnits="userSpaceOnUse"
       id="radialGradient3948"
       xlink:href="#linearGradient3688-166-749-4-0-3-8" />
    <linearGradient
       gradientTransform="matrix(0.87962965,0,0,1,2.8888916,-0.00253193)"
       y2="39.999443"
       x2="25.058096"
       y1="47.027729"
       x1="25.058096"
       gradientUnits="userSpaceOnUse"
       id="linearGradient3950"
       xlink:href="#linearGradient3702-501-757-8-4-1-1" />
    <radialGradient
       r="35.338131"
       fy="93.467628"
       fx="-4.0287771"
       cy="93.467628"
       cx="-4.0287771"
       gradientTransform="matrix(1.4149022,0,0,0.16978827,406.00322,133.74366)"
       gradientUnits="userSpaceOnUse"
       id="radialGradient3976"
       xlink:href="#linearGradient5060" />
    <linearGradient
       y2="48.534767"
       x2="23.99999"
       y1="6.0395865"
       x1="23.99999"
       gradientTransform="matrix(2.7297298,0,0,2.7297298,321.78939,17.098737)"
       gradientUnits="userSpaceOnUse"
       id="linearGradient3965"
       xlink:href="#linearGradient3924" />
    <linearGradient
       id="linearGradient3924">
      <stop
         offset="0"
         style="stop-color:#ffffff;stop-opacity:1"
         id="stop3926" />
      <stop
         offset="0.06316455"
         style="stop-color:#ffffff;stop-opacity:0.23529412"
         id="stop3928" />
      <stop
         offset="0.95056331"
         style="stop-color:#ffffff;stop-opacity:0.15686275"
         id="stop3930" />
      <stop
         offset="1"
         style="stop-color:#ffffff;stop-opacity:0.39215687"
         id="stop3932" />
    </linearGradient>
    <linearGradient
       y2="123.027"
       x2="201.47743"
       y1="6.0270019"
       x1="201.47743"
       gradientTransform="translate(198.82547,27.085224)"
       gradientUnits="userSpaceOnUse"
       id="linearGradient910"
       xlink:href="#linearGradient899" />
    <linearGradient
       id="linearGradient899">
      <stop
         id="stop895"
         style="stop-color:#f282f1;stop-opacity:1"
         offset="0" />
      <stop
         id="stop897"
         style="stop-color:#a56de2;stop-opacity:1"
         offset="1" />
    </linearGradient>
    <linearGradient
       gradientUnits="userSpaceOnUse"
       y2="119"
       x2="32"
       y1="1"
       x1="32"
       id="linearGradient904"
       xlink:href="#linearGradient902"
       gradientTransform="translate(329.3029,31.612226)" />
    <linearGradient
       id="linearGradient902">
      <stop
         id="stop898-6"
         offset="0"
         style="stop-color:#770087;stop-opacity:1;" />
      <stop
         id="stop900-4"
         offset="1"
         style="stop-color:#452981;stop-opacity:1" />
    </linearGradient>
    <linearGradient
       gradientTransform="matrix(4.5263531,-1.2128326,1.2203911,4.5545615,-640.62377,175.25833)"
       gradientUnits="userSpaceOnUse"
       xlink:href="#linearGradient966-6"
       id="linearGradient5228-5"
       y2="41.644444"
       x2="158.69711"
       y1="33.439537"
       x1="183.86665" />
    <linearGradient
       id="linearGradient5803">
      <stop
         offset="0"
         style="stop-color:#ffffff;stop-opacity:1"
         id="stop5805" />
      <stop
         offset="1"
         style="stop-color:#fafafa;stop-opacity:1"
         id="stop5807" />
    </linearGradient>
  </defs>
  <sodipodi:namedview
     pagecolor="#ffffff"
     bordercolor="#666666"
     borderopacity="1"
     objecttolerance="10"
     gridtolerance="10"
     guidetolerance="10"
     inkscape:pageopacity="0"
     inkscape:pageshadow="2"
     inkscape:window-width="2560"
     inkscape:window-height="1377"
     id="namedview10"
     showgrid="false"
     inkscape:zoom="4.344799"
     inkscape:cx="22.019829"
     inkscape:cy="4.757017"
     inkscape:window-x="0"
     inkscape:window-y="30"
     inkscape:window-maximized="1"
     inkscape:current-layer="svg2" />
  <metadata
     id="metadata4">
Created by potrace 1.11, written by Peter Selinger 2001-2013
<rdf:RDF>
  <cc:Work
     rdf:about="">
    <dc:format>image/svg+xml</dc:format>
    <dc:type
       rdf:resource="http://purl.org/dc/dcmitype/StillImage" />
    <dc:title></dc:title>
  </cc:Work>
</rdf:RDF>
</metadata>
  <path
     inkscape:transform-center-x="-2.3556274"
     transform="matrix(0.00131464,0.2241311,-0.2241311,0.00131464,-1.4043564,18.097327)"
     inkscape:transform-center-y="-0.12225259"
     d="m -13.694646,-41.682562 c -1.405569,2.434516 -45.446709,2.434516 -46.852277,0 -1.405569,-2.434516 20.615002,-40.575262 23.426138,-40.575262 2.811137,0 24.831707,38.140747 23.426139,40.575262 z"
     inkscape:randomized="0"
     inkscape:rounded="0.06"
     inkscape:flatsided="true"
     sodipodi:arg2="1.5707963"
     sodipodi:arg1="0.52359878"
     sodipodi:r2="13.525088"
     sodipodi:r1="27.050175"
     sodipodi:cy="-55.207649"
     sodipodi:cx="-37.120785"
     sodipodi:sides="3"
     id="path27831"
     style="opacity:1;fill:#9bdb4d;fill-opacity:1;fill-rule:evenodd;stroke:none;stroke-width:19.53256989;stroke-linecap:round;stroke-linejoin:round;stroke-miterlimit:4;stroke-dasharray:none;stroke-dashoffset:0;stroke-opacity:1;paint-order:markers fill stroke"
     sodipodi:type="star" />
  <path
     sodipodi:type="star"
     style="opacity:1;fill:none;fill-opacity:1;fill-rule:evenodd;stroke:#3a9104;stroke-width:3.56927815;stroke-linecap:round;stroke-linejoin:round;stroke-miterlimit:4;stroke-dasharray:none;stroke-dashoffset:0;stroke-opacity:1;paint-order:markers fill stroke"
     id="path1440"
     sodipodi:sides="3"
     sodipodi:cx="-37.120785"
     sodipodi:cy="-55.207649"
     sodipodi:r1="27.050175"
     sodipodi:r2="13.525088"
     sodipodi:arg1="0.52359878"
     sodipodi:arg2="1.5707963"
     inkscape:flatsided="true"
     inkscape:rounded="0.06"
     inkscape:randomized="0"
     d="m -13.694646,-41.682562 c -1.405569,2.434516 -45.446709,2.434516 -46.852277,0 -1.405569,-2.434516 20.615002,-40.575262 23.426138,-40.575262 2.811137,0 24.831707,38.140747 23.426139,40.575262 z"
     inkscape:transform-center-y="-0.12225259"
     transform="matrix(0.00131464,0.2241311,-0.2241311,0.00131464,-1.4043564,18.097327)"
     inkscape:transform-center-x="-2.3556274" />
  <path
     style="opacity:1;fill:#d1ff82;fill-opacity:1;fill-rule:evenodd;stroke:none;stroke-width:5.47241449;stroke-linecap:round;stroke-linejoin:round;stroke-miterlimit:4;stroke-dasharray:none;stroke-dashoffset:0;stroke-opacity:1;paint-order:markers fill stroke"
     d="M 10.0625 5.5878906 C 9.9466297 5.5648229 9.8647502 5.5649819 9.8222656 5.5898438 C 9.4719626 5.7948402 9.3254598 9.1655406 9.3554688 12.443359 C 9.3615787 9.5101117 9.5074757 6.7525737 9.8222656 6.5683594 C 10.422109 6.2173323 18.832172 10.925693 20.806641 12.580078 C 21.070955 12.353952 21.229063 12.179258 21.228516 12.085938 C 21.224185 11.347582 11.800554 5.9339071 10.0625 5.5878906 z "
     transform="scale(0.8)"
     id="path1442" />
  <path
     style="opacity:1;fill:#68b723;fill-opacity:1;fill-rule:evenodd;stroke:none;stroke-width:5.47241449;stroke-linecap:round;stroke-linejoin:round;stroke-miterlimit:4;stroke-dasharray:none;stroke-dashoffset:0;stroke-opacity:1;paint-order:markers fill stroke"
     d="M 9.3554688 11.505859 C 9.3500224 14.894758 9.5344449 18.50837 9.9003906 18.716797 C 10.584764 19.106586 21.233135 12.873516 21.228516 12.085938 C 21.227999 11.997892 21.077283 11.835338 20.837891 11.630859 C 18.943283 13.282696 10.507619 18.140773 9.9003906 17.794922 C 9.5680587 17.60564 9.3831261 14.594859 9.3554688 11.505859 z "
     transform="scale(0.8)"
     id="path1447" />
  <g
     transform="translate(-2.5429761,0.07693594)"
     id="g853">
    <path
       inkscape:connector-curvature="0"
       id="path4-3"
       d="m 4.122256,0.65286879 a 0.34577128,0.34609975 0 0 0 -0.3457712,0.34609975 0.34577128,0.34609975 0 0 0 0.00151,0.0302271 0.38617038,0.38653723 0 0 0 0,0.00151 0.38617038,0.38653723 0 0 0 -0.00151,0.010579 0.38617038,0.38653723 0 0 0 0,0.034761 0.38617038,0.38653723 0 0 0 0,0.013602 0.38617038,0.38653723 0 0 0 0,0.012091 0.38617038,0.38653723 0 0 0 0,0.060454 V 13.854534 a 0.38617038,0.38653723 0 0 0 0.6522846,0.2796 l 2.7978785,-2.632776 2.2573281,5.217188 a 0.38617038,0.38653723 0 0 0 0.519412,0.191943 l 1.688088,-0.772302 a 0.38617038,0.38653723 0 0 0 0.193269,-0.506303 L 9.5322934,10.485729 13.46563,10.147186 A 0.38617038,0.38653723 0 0 0 13.695138,9.4716118 L 4.4891662,0.88410575 a 0.38617038,0.38653723 0 0 0 -0.060397,-0.0604541 0.38617038,0.38653723 0 0 0 -0.025668,-0.0272043 0.34577128,0.34609975 0 0 0 -0.00151,0 A 0.34577128,0.34609975 0 0 0 4.122256,0.65286879 Z"
       style="line-height:normal;font-family:'Bitstream Vera Sans';-inkscape-font-specification:'Bitstream Vera Sans';text-indent:0;text-align:start;text-transform:none;overflow:visible;fill:#ffffff;fill-opacity:1;stroke:none;stroke-width:0.62420827;stroke-opacity:1;enable-background:accumulate" />
    <path
       style="line-height:normal;font-family:'Bitstream Vera Sans';-inkscape-font-specification:'Bitstream Vera Sans';text-indent:0;text-align:start;text-transform:none;overflow:visible;fill:none;fill-opacity:1;stroke:#000000;stroke-width:0.80000001;stroke-miterlimit:4;stroke-dasharray:none;stroke-opacity:1;enable-background:accumulate"
       d="m 4.122256,0.65286879 a 0.34577128,0.34609975 0 0 0 -0.3457712,0.34609975 0.34577128,0.34609975 0 0 0 0.00151,0.0302271 0.38617038,0.38653723 0 0 0 0,0.00151 0.38617038,0.38653723 0 0 0 -0.00151,0.010579 0.38617038,0.38653723 0 0 0 0,0.034761 0.38617038,0.38653723 0 0 0 0,0.013602 0.38617038,0.38653723 0 0 0 0,0.012091 0.38617038,0.38653723 0 0 0 0,0.060454 V 13.854534 a 0.38617038,0.38653723 0 0 0 0.6522846,0.2796 l 2.7978785,-2.632776 2.2573281,5.217188 a 0.38617038,0.38653723 0 0 0 0.519412,0.191943 l 1.688088,-0.772302 a 0.38617038,0.38653723 0 0 0 0.193269,-0.506303 L 9.5322934,10.485729 13.46563,10.147186 A 0.38617038,0.38653723 0 0 0 13.695138,9.4716118 L 4.4891662,0.88410575 a 0.38617038,0.38653723 0 0 0 -0.060397,-0.0604541 0.38617038,0.38653723 0 0 0 -0.025668,-0.0272043 0.34577128,0.34609975 0 0 0 -0.00151,0 A 0.34577128,0.34609975 0 0 0 4.122256,0.65286879 Z"
       id="path836"
       inkscape:connector-curvature="0" />
    <path
       inkscape:connector-curvature="0"
       id="path838"
       transform="scale(0.8)"
       d="m 5.1523438,0.81640625 a 0.4322141,0.43262469 0 0 0 -0.4316407,0.43164065 0.4322141,0.43262469 0 0 0 0.00195,0.039063 0.48271297,0.48317154 0 0 0 0,0.00195 0.48271297,0.48317154 0 0 0 -0.00195,0.011719 0.48271297,0.48317154 0 0 0 0,0.044922 0.48271297,0.48317154 0 0 0 0,0.015625 0.48271297,0.48317154 0 0 0 0,0.015625 0.48271297,0.48317154 0 0 0 0,0.076172 v 0.9882812 a 0.4322141,0.43262469 0 0 1 0.4316407,-0.4316406 0.4322141,0.43262469 0 0 1 0.3496093,0.1796875 0.4322141,0.43262469 0 0 0 0.00195,0 0.48271297,0.48317154 0 0 1 0.03125,0.033203 0.48271297,0.48317154 0 0 1 0.076172,0.076172 l 11.1406249,10.392578 0.08008,-0.0078 a 0.48271297,0.48317154 0 0 0 0.28711,-0.84375 L 5.6113281,1.1054688 a 0.48271297,0.48317154 0 0 0 -0.076172,-0.076172 0.48271297,0.48317154 0 0 0 -0.03125,-0.0332032 0.4322141,0.43262469 0 0 0 -0.00195,0 A 0.4322141,0.43262469 0 0 0 5.1523468,0.8164061 Z M 4.7207031,2.4414062 v 0.052734 a 0.48271297,0.48317154 0 0 1 0.00195,-0.011719 0.48271297,0.48317154 0 0 0 0,-0.00195 0.4322141,0.43262469 0 0 1 -0.00195,-0.039063 z m 7.7207029,11.8144528 -0.52539,0.04492 2.685546,5.876953 0.01367,-0.0059 a 0.48271297,0.48317154 0 0 0 0.240235,-0.632813 z"
       style="line-height:normal;font-family:'Bitstream Vera Sans';-inkscape-font-specification:'Bitstream Vera Sans';text-indent:0;text-align:start;text-transform:none;overflow:visible;fill:#d4d4d4;fill-opacity:1;stroke:none;stroke-width:0.78026032;stroke-opacity:1;enable-background:accumulate" />
    <path
       inkscape:connector-curvature="0"
       id="path843"
       transform="scale(0.8)"
       d="m 4.7207031,1.3769531 a 0.48271297,0.48317154 0 0 0 0,0.076172 z M 17.121094,11.841797 a 0.48271297,0.48317154 0 0 1 -0.289063,0.123047 l -4.916015,0.423828 0.316406,0.691406 4.599609,-0.396484 a 0.48271297,0.48317154 0 0 0 0.289063,-0.841797 z m -8.0878909,1.816406 -3.4980469,3.291016 a 0.48271297,0.48317154 0 0 1 -0.8144531,-0.34961 v 0.71875 a 0.48271297,0.48317154 0 0 0 0.8144531,0.34961 l 3.4980469,-3.291016 2.8222659,6.521485 a 0.48271297,0.48317154 0 0 0 0.648437,0.240234 l 2.111328,-0.966797 a 0.48271297,0.48317154 0 0 0 0.240235,-0.632813 l -0.08984,-0.195312 a 0.48271297,0.48317154 0 0 1 -0.150391,0.109375 l -2.111328,0.966797 a 0.48271297,0.48317154 0 0 1 -0.648437,-0.240234 z"
       style="line-height:normal;font-family:'Bitstream Vera Sans';-inkscape-font-specification:'Bitstream Vera Sans';text-indent:0;text-align:start;text-transform:none;overflow:visible;fill:#555761;fill-opacity:1;stroke:none;stroke-width:0.78026032;stroke-opacity:1;enable-background:accumulate" />
  </g>
  <g
     id="layer1-6"
     inkscape:label="Layer 1"
     style="display:none"
     transform="matrix(0.8,0,0,0.8,162.04874,51.60374)">
    <rect
       style="opacity:1;fill:#000000;fill-opacity:0.48554915;fill-rule:evenodd;stroke:none;stroke-width:2.40792823;stroke-linecap:round;stroke-linejoin:round;stroke-miterlimit:4;stroke-dasharray:none;stroke-opacity:1;paint-order:markers fill stroke"
       id="rect866"
       width="256"
       height="256"
       x="-3.6408e-08"
       y="-2.8855096e-14" />
  </g>
  <g
     id="layer2"
     inkscape:label="Layer 2"
     style="display:none"
     transform="matrix(0.8,0,0,0.8,162.04874,51.60374)">
    <g
       transform="matrix(6.5651087,0,0,2.9699247,-29.562602,111.41353)"
       style="opacity:0.6"
       id="g1015">
      <rect
         width="5"
         height="7"
         x="38"
         y="40"
         style="fill:url(#radialGradient3337-2-2-5);fill-opacity:1;stroke:none"
         id="rect1009" />
      <rect
         width="5"
         height="7"
         x="-10"
         y="-47"
         transform="scale(-1)"
         style="fill:url(#radialGradient3339-1-4-9);fill-opacity:1;stroke:none"
         id="rect1011" />
      <rect
         width="28"
         height="7"
         x="10"
         y="40"
         style="fill:url(#linearGradient4159);fill-opacity:1;stroke:none"
         id="rect1013" />
    </g>
    <rect
       width="228.6842"
       height="228.6842"
       x="13.65764"
       y="13.999998"
       rx="12.473684"
       ry="12.473684"
       style="color:#000000;display:inline;overflow:visible;visibility:visible;opacity:1;fill:url(#linearGradient4166);fill-opacity:1;fill-rule:nonzero;stroke:none;stroke-width:4.15789461;marker:none;enable-background:accumulate"
       id="rect1017" />
    <rect
       width="220.36842"
       height="220.95883"
       x="17.815535"
       y="17.866842"
       rx="8.3157892"
       ry="8.3157892"
       style="opacity:0.3;fill:none;stroke:url(#linearGradient3180);stroke-width:4.15789461;stroke-linecap:round;stroke-linejoin:round;stroke-miterlimit:4;stroke-dasharray:none;stroke-dashoffset:0;stroke-opacity:1"
       id="rect1021" />
    <rect
       width="228.6842"
       height="228.6842"
       x="13.65764"
       y="13.999998"
       rx="12.473684"
       ry="12.473684"
       style="color:#000000;display:inline;overflow:visible;visibility:visible;opacity:0.7;fill:none;stroke:#000000;stroke-width:4.15789461;stroke-linecap:round;stroke-linejoin:round;stroke-miterlimit:4;stroke-dasharray:none;stroke-dashoffset:0;stroke-opacity:1;marker:none;enable-background:accumulate"
       id="rect1023" />
  </g>
  <g
     id="layer3"
     inkscape:label="Layer 3"
     style="display:none"
     transform="matrix(0.8,0,0,0.8,162.04874,51.60374)">
    <g
       id="g1785"
       transform="matrix(1.3983224,0,0,1.3983224,-44.45293,-50.942562)">
      <path
         inkscape:connector-curvature="0"
         id="path1781"
         d="m 171.90758,61.424212 c -0.57928,-0.101069 -1.2112,-0.05725 -1.88127,0.135073 l -64.83657,18.771276 c -2.68017,0.776111 -4.83311,3.776596 -4.83311,6.724791 v 71.904338 c -4.634867,-2.00269 -10.113127,-2.33302 -15.341251,-0.92503 -11.467119,3.1088 -18.657135,13.5797 -16.058439,23.38607 2.600983,9.79885 13.99413,15.22329 25.454446,12.11917 9.441894,-2.57118 16.241784,-10.268 16.546924,-18.72966 l 0.0415,-1.45513 V 107.39599 L 164.2161,91.992384 v 51.002396 c -4.63487,-2.00268 -10.11311,-2.33302 -15.34125,-0.92504 -11.46712,3.10881 -18.65713,13.57969 -16.05844,23.38605 2.60097,9.79887 13.99413,15.22331 25.45444,12.11919 9.44189,-2.57119 16.24179,-10.26802 16.54693,-18.72965 l 0.0413,-0.56122 V 65.477848 c 0,-2.211152 -1.21433,-3.750998 -2.95183,-4.053593 z"
         style="color:#000000;clip-rule:nonzero;display:inline;overflow:visible;visibility:visible;opacity:1;isolation:auto;mix-blend-mode:normal;color-interpolation:sRGB;color-interpolation-filters:linearRGB;solid-color:#000000;solid-opacity:1;fill:url(#linearGradient1799);fill-opacity:1;fill-rule:nonzero;stroke:none;stroke-width:5.32168055;stroke-linecap:butt;stroke-linejoin:miter;stroke-miterlimit:4;stroke-dasharray:none;stroke-dashoffset:0;stroke-opacity:1;marker:none;color-rendering:auto;image-rendering:auto;shape-rendering:auto;text-rendering:auto;enable-background:accumulate" />
      <path
         sodipodi:nodetypes="cccscccccccscccccccccccccccc"
         inkscape:connector-curvature="0"
         style="color:#000000;clip-rule:nonzero;display:inline;overflow:visible;visibility:visible;opacity:1;isolation:auto;mix-blend-mode:normal;color-interpolation:sRGB;color-interpolation-filters:linearRGB;solid-color:#000000;solid-opacity:1;fill:#276e07;fill-opacity:1;fill-rule:nonzero;stroke:none;stroke-width:5.32168055;stroke-linecap:butt;stroke-linejoin:miter;stroke-miterlimit:4;stroke-dasharray:none;stroke-dashoffset:0;stroke-opacity:1;marker:none;color-rendering:auto;image-rendering:auto;shape-rendering:auto;text-rendering:auto;enable-background:accumulate"
         d="m 171.46267,61.376257 c -0.45352,-0.02131 -0.93281,0.03935 -1.43537,0.183592 l -64.8376,18.770315 c -2.68017,0.77611 -4.83392,3.777991 -4.83392,6.726186 v 71.90385 c -4.634871,-2.00268 -10.11233,-2.33429 -15.340455,-0.92632 -11.467119,3.10881 -18.656847,13.5809 -16.05815,23.38727 0.917117,3.45509 2.94343,6.34973 5.664273,8.535 -1.36729,-1.70952 -2.411082,-3.66916 -2.993827,-5.86456 -2.598697,-9.80636 4.591031,-20.27845 16.058151,-23.38726 5.228124,-1.40797 10.705583,-1.07637 15.340448,0.92632 V 89.724709 c 0,-2.948194 2.15376,-5.947988 4.83393,-6.7241 l 64.83551,-18.770314 c 0.67008,-0.192317 1.30254,-0.23668 1.88183,-0.135609 0.0355,0.0062 0.0672,0.01992 0.10223,0.02712 -0.3921,-1.469056 -1.41958,-2.461918 -2.77268,-2.697568 -0.14482,-0.02527 -0.29319,-0.04088 -0.44437,-0.04799 z m -4.57732,33.286692 -2.66921,-2.670565 8.6e-4,51.001466 c -4.63487,-2.00268 -10.11441,-2.3322 -15.34255,-0.92422 -11.46711,3.1088 -18.65682,13.57881 -16.05814,23.38517 0.9171,3.4551 2.94342,6.35183 5.66426,8.53708 -1.36729,-1.70951 -2.41108,-3.67123 -2.99382,-5.86664 -2.59869,-9.80636 4.59103,-20.27636 16.05815,-23.38516 5.22813,-1.408 10.70559,-1.07846 15.34045,0.92422 z"
         id="path1783" />
    </g>
    <flowRoot
       style="font-style:normal;font-weight:normal;font-size:40px;line-height:1.25;font-family:sans-serif;letter-spacing:0px;word-spacing:0px;fill:#000000;fill-opacity:1;stroke:none"
       id="flowRoot81"
       xml:space="preserve"
       transform="translate(336.3029,31.612226)"><flowRegion
         id="flowRegion83"><rect
           y="-10.609092"
           x="-189.29451"
           height="581.07208"
           width="281.61438"
           id="rect85" /></flowRegion><flowPara
         id="flowPara87" /></flowRoot>  </g>
</svg>
