<?xml version="1.0" encoding="UTF-8" standalone="no"?>
<svg
   xmlns:dc="http://purl.org/dc/elements/1.1/"
   xmlns:cc="http://creativecommons.org/ns#"
   xmlns:rdf="http://www.w3.org/1999/02/22-rdf-syntax-ns#"
   xmlns:svg="http://www.w3.org/2000/svg"
   xmlns="http://www.w3.org/2000/svg"
   xmlns:sodipodi="http://sodipodi.sourceforge.net/DTD/sodipodi-0.dtd"
   xmlns:inkscape="http://www.inkscape.org/namespaces/inkscape"
   version="1.0"
   width="22"
   height="22"
   viewBox="0 0 17.6 17.6"
   preserveAspectRatio="xMidYMid meet"
   id="svg2"
   inkscape:version="0.91 r13725"
   sodipodi:docname="object-select.svg">
  <defs
     id="defs12" />
  <sodipodi:namedview
     pagecolor="#ffffff"
     bordercolor="#666666"
     borderopacity="1"
     objecttolerance="10"
     gridtolerance="10"
     guidetolerance="10"
     inkscape:pageopacity="0"
     inkscape:pageshadow="2"
     inkscape:window-width="1920"
     inkscape:window-height="1176"
     id="namedview10"
     showgrid="false"
     inkscape:zoom="11.313709"
     inkscape:cx="4.109418"
     inkscape:cy="10.757146"
     inkscape:window-x="0"
     inkscape:window-y="24"
     inkscape:window-maximized="1"
     inkscape:current-layer="svg2" />
  <metadata
     id="metadata4">
Created by potrace 1.11, written by Peter Selinger 2001-2013
<rdf:RDF>
  <cc:Work
     rdf:about="">
    <dc:format>image/svg+xml</dc:format>
    <dc:type
       rdf:resource="http://purl.org/dc/dcmitype/StillImage" />
  </cc:Work>
</rdf:RDF>
</metadata>
  <path
     style="line-height:normal;font-family:'Bitstream Vera Sans';-inkscape-font-specification:'Bitstream Vera Sans';text-indent:0;text-align:start;text-transform:none;block-progression:tb;overflow:visible;fill:#ffffff;fill-opacity:1;stroke:#000000;stroke-width:0.62420827;stroke-opacity:1;enable-background:accumulate"
     d="m 3.959366,0.37715855 a 0.3578125,0.3578125 0 0 0 -0.3578125,0.35781251 0.3578125,0.3578125 0 0 0 0.00156,0.03125 0.39961847,0.39961847 0 0 0 0,0.001563 0.39961847,0.39961847 0 0 0 -0.00156,0.0109375 0.39961847,0.39961847 0 0 0 0,0.0359375 0.39961847,0.39961847 0 0 0 0,0.0140625 0.39961847,0.39961847 0 0 0 0,0.0125 0.39961847,0.39961847 0 0 0 0,0.0625 l 0,13.12187444 a 0.39961847,0.39961847 0 0 0 0.675,0.289063 l 2.8953125,-2.721875 2.3359378,5.393749 a 0.39961847,0.39961847 0 0 0 0.5375002,0.198438 l 1.746874,-0.798438 a 0.39961847,0.39961847 0 0 0 0.2,-0.523437 l -2.4343742,-5.320312 4.0703122,-0.35 a 0.39961847,0.39961847 0 0 0 0.2375,-0.6984374 L 4.3390535,0.61622106 a 0.39961847,0.39961847 0 0 0 -0.0625,-0.0625 0.39961847,0.39961847 0 0 0 -0.026562,-0.028125 0.3578125,0.3578125 0 0 0 -0.00156,0 A 0.3578125,0.3578125 0 0 0 3.959366,0.37715855 Z"
     id="path4"
     inkscape:connector-curvature="0" />
</svg>
