<?xml version="1.0" encoding="UTF-8" standalone="no"?>
<svg
   xmlns:dc="http://purl.org/dc/elements/1.1/"
   xmlns:cc="http://creativecommons.org/ns#"
   xmlns:rdf="http://www.w3.org/1999/02/22-rdf-syntax-ns#"
   xmlns:svg="http://www.w3.org/2000/svg"
   xmlns="http://www.w3.org/2000/svg"
   xmlns:sodipodi="http://sodipodi.sourceforge.net/DTD/sodipodi-0.dtd"
   xmlns:inkscape="http://www.inkscape.org/namespaces/inkscape"
   sodipodi:docname="ruler.svg"
   inkscape:version="1.1-dev (952cbafb2b, 2020-02-29)"
   version="1.1"
   id="svg2"
   height="22"
   width="22">
  <defs
     id="defs4" />
  <sodipodi:namedview
     inkscape:snap-nodes="false"
     inkscape:object-paths="true"
     inkscape:snap-center="true"
     inkscape:snap-object-midpoints="true"
     inkscape:window-maximized="1"
     inkscape:window-y="30"
     inkscape:window-x="0"
     inkscape:window-height="1377"
     inkscape:window-width="2560"
     showgrid="false"
     inkscape:current-layer="layer1"
     inkscape:document-units="px"
     inkscape:cy="9.7662904"
     inkscape:cx="10.569679"
     inkscape:zoom="1.4142136"
     inkscape:pageshadow="2"
     inkscape:pageopacity="0.0"
     borderopacity="1.0"
     bordercolor="#666666"
     pagecolor="#ffffff"
     id="base" />
  <metadata
     id="metadata7">
    <rdf:RDF>
      <cc:Work
         rdf:about="">
        <dc:format>image/svg+xml</dc:format>
        <dc:type
           rdf:resource="http://purl.org/dc/dcmitype/StillImage" />
        <dc:title />
      </cc:Work>
    </rdf:RDF>
  </metadata>
  <g
     transform="translate(0,-1030.3622)"
     id="layer1"
     inkscape:groupmode="layer"
     inkscape:label="Ebene 1">
    <path
       inkscape:connector-curvature="0"
       id="path3765"
       d="M 19.264896,1049.86 3.0014396,1033.4198 v 0"
       style="fill:none;stroke:#68b723;stroke-width:4;stroke-linecap:butt;stroke-linejoin:miter;stroke-miterlimit:4;stroke-dasharray:none;stroke-opacity:1" />
    <circle
       r="3.7898562"
       cy="1035.0005"
       cx="4.5776119"
       id="path2985-3"
       style="fill:#68b723;fill-opacity:1;stroke:none;stroke-width:1.76100028;stroke-linejoin:round;stroke-miterlimit:4;stroke-dasharray:none;stroke-opacity:1" />
    <circle
       style="fill:#68b723;fill-opacity:1;stroke:none;stroke-width:1.76100028;stroke-linejoin:round;stroke-miterlimit:4;stroke-dasharray:none;stroke-opacity:1"
       id="circle848"
       cx="17.363422"
       cy="1047.9253"
       r="3.7898562" />
    <path
       style="color:#000000;fill:none;stroke-width:4"
       d="M 19.264896,1049.86 3.0014396,1033.4198 v 0"
       id="path845"
       inkscape:connector-curvature="0" />
    <path
       transform="translate(0,1030.3622)"
       d="M 4.578125 0.84765625 A 3.7898562 3.7898562 0 0 0 0.78710938 4.6386719 A 3.7898562 3.7898562 0 0 0 4.578125 8.4277344 A 3.7898562 3.7898562 0 0 0 5.3476562 8.2734375 L 13.734375 16.751953 A 3.7898562 3.7898562 0 0 0 13.574219 17.5625 A 3.7898562 3.7898562 0 0 0 17.363281 21.353516 A 3.7898562 3.7898562 0 0 0 21.152344 17.5625 A 3.7898562 3.7898562 0 0 0 17.363281 13.773438 A 3.7898562 3.7898562 0 0 0 16.572266 13.931641 L 8.2011719 5.4707031 A 3.7898562 3.7898562 0 0 0 8.3671875 4.6386719 A 3.7898562 3.7898562 0 0 0 4.578125 0.84765625 z "
       style="color:#000000;fill:none;stroke-width:1;stroke:#3a9104;stroke-opacity:1;stroke-miterlimit:4;stroke-dasharray:none"
       id="path847" />
    <path
       transform="translate(0,1030.3622)"
       d="M 4.578125 0.84765625 A 3.7898562 3.7898562 0 0 0 1.4863281 2.5722656 A 3.7898562 3.7898562 0 0 1 4.0566406 1.5371094 A 3.7898562 3.7898562 0 0 1 7.8457031 5.328125 A 3.7898562 3.7898562 0 0 1 7.6796875 6.1601562 L 16.050781 14.621094 A 3.7898562 3.7898562 0 0 1 16.841797 14.462891 A 3.7898562 3.7898562 0 0 1 20.630859 18.251953 A 3.7898562 3.7898562 0 0 1 20.099609 20.171875 A 3.7898562 3.7898562 0 0 0 21.152344 17.5625 A 3.7898562 3.7898562 0 0 0 17.363281 13.773438 A 3.7898562 3.7898562 0 0 0 16.572266 13.931641 L 8.2011719 5.4707031 A 3.7898562 3.7898562 0 0 0 8.3671875 4.6386719 A 3.7898562 3.7898562 0 0 0 4.578125 0.84765625 z "
       style="color:#000000;fill:#d1ff82;stroke-width:1;stroke:none;stroke-opacity:1;stroke-miterlimit:4;stroke-dasharray:none;fill-opacity:1"
       id="path859" />
    <path
       transform="translate(0,1030.3622)"
       d="M 1.5917969 2.4121094 A 3.7898562 3.7898562 0 0 0 0.78710938 4.6386719 A 3.7898562 3.7898562 0 0 0 4.578125 8.4277344 A 3.7898562 3.7898562 0 0 0 5.3476562 8.2734375 L 13.734375 16.751953 A 3.7898562 3.7898562 0 0 0 13.574219 17.5625 A 3.7898562 3.7898562 0 0 0 17.363281 21.353516 A 3.7898562 3.7898562 0 0 0 20.925781 18.832031 A 3.7898562 3.7898562 0 0 1 17.933594 20.308594 A 3.7898562 3.7898562 0 0 1 14.144531 16.517578 A 3.7898562 3.7898562 0 0 1 14.304688 15.707031 L 5.9179688 7.2285156 A 3.7898562 3.7898562 0 0 1 5.1484375 7.3828125 A 3.7898562 3.7898562 0 0 1 1.3574219 3.59375 A 3.7898562 3.7898562 0 0 1 1.5917969 2.4121094 z "
       style="color:#000000;fill:#206b00;stroke-width:1;stroke:none;stroke-opacity:1;stroke-miterlimit:4;stroke-dasharray:none;fill-opacity:1"
       id="path864" />
  </g>
</svg>
