<?xml version="1.0" encoding="UTF-8" standalone="no"?>
<!-- Created with Inkscape (http://www.inkscape.org/) -->

<svg
   xmlns:dc="http://purl.org/dc/elements/1.1/"
   xmlns:cc="http://creativecommons.org/ns#"
   xmlns:rdf="http://www.w3.org/1999/02/22-rdf-syntax-ns#"
   xmlns:svg="http://www.w3.org/2000/svg"
   xmlns="http://www.w3.org/2000/svg"
   xmlns:sodipodi="http://sodipodi.sourceforge.net/DTD/sodipodi-0.dtd"
   xmlns:inkscape="http://www.inkscape.org/namespaces/inkscape"
   id="svg2876"
   height="22"
   width="22"
   version="1.1"
   sodipodi:docname="sidebar_bookmarks.svg"
   inkscape:version="0.92.4 (unknown)">
  <sodipodi:namedview
     pagecolor="#ffffff"
     bordercolor="#666666"
     borderopacity="1"
     objecttolerance="10"
     gridtolerance="10"
     guidetolerance="10"
     inkscape:pageopacity="0"
     inkscape:pageshadow="2"
     inkscape:window-width="2560"
     inkscape:window-height="1377"
     id="namedview23"
     showgrid="false"
     inkscape:zoom="2.6818182"
     inkscape:cx="38.181775"
     inkscape:cy="7.0582947"
     inkscape:window-x="0"
     inkscape:window-y="30"
     inkscape:window-maximized="1"
     inkscape:current-layer="svg2876" />
  <defs
     id="defs2878">
    <linearGradient
       id="linearGradient2907"
       y2="35.051"
       gradientUnits="userSpaceOnUse"
       x2="23.47"
       gradientTransform="matrix(0.77056,0,0,0.77078,-5.6009202,-6.199)"
       y1="11.21"
       x1="23.47">
      <stop
         id="stop3644"
         style="stop-color:#fff"
         offset="0" />
      <stop
         id="stop3646"
         style="stop-color:#fff;stop-opacity:0"
         offset="1" />
    </linearGradient>
    <linearGradient
       id="linearGradient3683"
       y2="33.955"
       gradientUnits="userSpaceOnUse"
       x2="15.215"
       gradientTransform="matrix(0.48936,0,0,0.48936,0.6669798,-1.272)"
       y1="22.292"
       x1="11.566">
      <stop
         id="stop2687"
         style="stop-color:#fff;stop-opacity:.27451"
         offset="0" />
      <stop
         id="stop2689"
         style="stop-color:#fff;stop-opacity:0"
         offset="1" />
    </linearGradient>
    <radialGradient
       id="radialGradient2872"
       gradientUnits="userSpaceOnUse"
       cx="13.139"
       cy="25.625"
       r="13.931"
       gradientTransform="matrix(0,1.2347,-1.4763,0,45.11239,-11.61)">
      <stop
         id="stop3692"
         style="stop-color:#ffeb9f"
         offset="0" />
      <stop
         id="stop3694"
         style="stop-color:#ffd57e"
         offset=".26238" />
      <stop
         id="stop3696"
         style="stop-color:#ffbc43"
         offset=".66094" />
      <stop
         id="stop3698"
         style="stop-color:#ff921a"
         offset="1" />
    </radialGradient>
    <linearGradient
       id="linearGradient2874"
       y2="9.58"
       gradientUnits="userSpaceOnUse"
       y1="36.255"
       gradientTransform="matrix(0.77056,0,0,0.77078,-5.6009102,-6.199)"
       x2="21.483"
       x1="21.483">
      <stop
         id="stop3605"
         style="stop-color:#a7651c"
         offset="0" />
      <stop
         id="stop3607"
         style="stop-color:#c8a700"
         offset="1" />
    </linearGradient>
  </defs>
  <metadata
     id="metadata2881">
    <rdf:RDF>
      <cc:Work
         rdf:about="">
        <dc:format>image/svg+xml</dc:format>
        <dc:type
           rdf:resource="http://purl.org/dc/dcmitype/StillImage" />
        <dc:title />
      </cc:Work>
    </rdf:RDF>
  </metadata>
  <path
     inkscape:connector-curvature="0"
     d="m 10.95339,1.3313082 c 0.70891,0 2.9944,5.7107 3.5679,6.1275 0.57352,0.4168 6.7095,0.82636 6.9285,1.5008 0.21907,0.6744 -4.5043,4.6133998 -4.7234,5.2877998 -0.21906,0.6744 1.2876,6.6382 0.71412,7.055 -0.573,0.417 -5.778,-2.859 -6.487,-2.859 -0.70891,0 -5.9137002,3.2763 -6.4872002,2.8595 -0.5735,-0.418 0.9332,-6.3814 0.7141,-7.0558 -0.219,-0.6744 -4.94239997,-4.6133998 -4.72339997,-5.2877998 0.21909,-0.6744 6.35499997,-1.084 6.92859997,-1.5008 0.5735,-0.4168 2.8589002,-6.1275 3.5679002,-6.1275 z"
     style="fill:#f9c440;stroke:none;stroke-width:0.99226999;stroke-linejoin:round"
     id="path1307" />
  <path
     id="path833"
     style="fill:none;stroke:#ad5f00;stroke-width:0.99226999;stroke-linejoin:round;stroke-opacity:1"
     d="m 10.95339,1.3313082 c 0.70891,0 2.9944,5.7107 3.5679,6.1275 0.57352,0.4168 6.7095,0.82636 6.9285,1.5008 0.21907,0.6744 -4.5043,4.6133998 -4.7234,5.2877998 -0.21906,0.6744 1.2876,6.6382 0.71412,7.055 -0.573,0.417 -5.778,-2.859 -6.487,-2.859 -0.70891,0 -5.9137002,3.2763 -6.4872002,2.8595 -0.5735,-0.418 0.9332,-6.3814 0.7141,-7.0558 -0.219,-0.6744 -4.94239997,-4.6133998 -4.72339997,-5.2877998 0.21909,-0.6744 6.35499997,-1.084 6.92859997,-1.5008 0.5735,-0.4168 2.8589002,-6.1275 3.5679002,-6.1275 z"
     inkscape:connector-curvature="0" />
  <path
     style="fill:#d48e15;stroke:none;stroke-width:0.99226999;stroke-linejoin:round"
     d="M 0.99804688 8.6601562 C 0.71155608 8.7548585 0.49177013 8.8520516 0.45703125 8.9589844 C 0.24523076 9.6112138 4.6190717 13.291538 5.1074219 14.144531 C 5.1849243 13.603711 5.2276467 13.174964 5.1796875 13.027344 C 5.0112365 12.508607 2.197425 10.070528 0.99804688 8.6601562 z M 20.910156 8.6601562 C 19.710893 10.070503 16.895097 12.508587 16.726562 13.027344 C 16.678612 13.174964 16.721323 13.603694 16.798828 14.144531 C 17.286689 13.29192 21.661104 9.6112651 21.449219 8.9589844 C 21.414507 8.8520834 21.196464 8.7548316 20.910156 8.6601562 z M 10.953125 17.224609 C 10.244215 17.224609 5.0402969 20.500784 4.4667969 20.083984 C 4.4343984 20.06037 4.4104321 20.014087 4.390625 19.957031 C 4.3187435 20.657207 4.3130824 21.190698 4.4667969 21.302734 C 5.0402969 21.719534 10.244215 18.443359 10.953125 18.443359 C 11.662125 18.443359 16.868406 21.719734 17.441406 21.302734 C 17.595115 21.19102 17.589459 20.657077 17.517578 19.957031 C 17.49778 20.013933 17.473769 20.058511 17.441406 20.082031 C 16.868406 20.499031 11.662125 17.224609 10.953125 17.224609 z "
     id="path840" />
  <path
     style="fill:#ffe16b;stroke:none;stroke-width:0.99226999;stroke-linejoin:round"
     d="m 10.95339,1.3313082 c -0.709,0 -2.9948594,5.7121063 -3.5683594,6.1289063 -0.5736,0.4168 -6.70864435,0.8256 -6.92773435,1.5 C 0.41268338,9.0975977 0.60711251,9.3922317 0.89284312,9.7453707 2.3193387,9.2257441 6.8924142,8.8728562 7.3850306,8.514902 7.9585306,8.098102 10.24439,2.3859957 10.95339,2.3859957 v 0.00195 c 0.70891,0 2.994859,5.7101531 3.568359,6.1269531 0.492394,0.3578418 5.064196,0.7110931 6.492188,1.2304687 0.285797,-0.3532125 0.48018,-0.6477534 0.435547,-0.7851562 -0.219,-0.67444 -6.354215,-1.0832 -6.927735,-1.5 -0.5735,-0.4168 -2.859449,-6.1269532 -3.568359,-6.1269532 z"
     id="path835"
     inkscape:connector-curvature="0"
     sodipodi:nodetypes="ccccccccccccc" />
</svg>
