<?xml version="1.0" encoding="UTF-8" standalone="no"?>
<!-- Created with Inkscape (http://www.inkscape.org/) -->

<svg
   xmlns:dc="http://purl.org/dc/elements/1.1/"
   xmlns:cc="http://creativecommons.org/ns#"
   xmlns:rdf="http://www.w3.org/1999/02/22-rdf-syntax-ns#"
   xmlns:svg="http://www.w3.org/2000/svg"
   xmlns="http://www.w3.org/2000/svg"
   xmlns:sodipodi="http://sodipodi.sourceforge.net/DTD/sodipodi-0.dtd"
   xmlns:inkscape="http://www.inkscape.org/namespaces/inkscape"
   width="22"
   height="22"
   id="svg2"
   version="1.1"
   inkscape:version="0.92.4 (unknown)"
   sodipodi:docname="tool_math_tex.svg">
  <defs
     id="defs4" />
  <sodipodi:namedview
     id="base"
     pagecolor="#ffffff"
     bordercolor="#666666"
     borderopacity="1.0"
     inkscape:pageopacity="0.0"
     inkscape:pageshadow="2"
     inkscape:zoom="14.481547"
     inkscape:cx="4.7006542"
     inkscape:cy="14.770784"
     inkscape:document-units="px"
     inkscape:current-layer="layer2"
     showgrid="false"
     inkscape:window-width="1920"
     inkscape:window-height="1047"
     inkscape:window-x="2560"
     inkscape:window-y="0"
     inkscape:window-maximized="1"
     inkscape:snap-page="true" />
  <metadata
     id="metadata7">
    <rdf:RDF>
      <cc:Work
         rdf:about="">
        <dc:format>image/svg+xml</dc:format>
        <dc:type
           rdf:resource="http://purl.org/dc/dcmitype/StillImage" />
        <dc:title />
        <cc:license
           rdf:resource="http://creativecommons.org/licenses/by/4.0/" />
      </cc:Work>
      <cc:License
         rdf:about="http://creativecommons.org/licenses/by/4.0/">
        <cc:permits
           rdf:resource="http://creativecommons.org/ns#Reproduction" />
        <cc:permits
           rdf:resource="http://creativecommons.org/ns#Distribution" />
        <cc:requires
           rdf:resource="http://creativecommons.org/ns#Notice" />
        <cc:requires
           rdf:resource="http://creativecommons.org/ns#Attribution" />
        <cc:permits
           rdf:resource="http://creativecommons.org/ns#DerivativeWorks" />
      </cc:License>
    </rdf:RDF>
  </metadata>
  <g
     inkscape:label="Ebene 1"
     inkscape:groupmode="layer"
     id="layer1"
     transform="translate(0,-1030.3622)"
     style="display:none">
    <rect
       style="opacity:1;fill:#5e5e5e;fill-opacity:1;stroke:none;stroke-width:2;stroke-linecap:round;stroke-linejoin:round;stroke-miterlimit:4;stroke-dasharray:none;stroke-opacity:1"
       id="rect841"
       width="22"
       height="22"
       x="0"
       y="1030.3622"
       rx="0.884"
       ry="0.136957" />
    <flowRoot
       xml:space="preserve"
       id="flowRoot2989"
       style="font-style:normal;font-weight:normal;line-height:0.01%;font-family:'Bitstream Vera Sans';letter-spacing:0px;word-spacing:0px;fill:#000000;fill-opacity:1;stroke:none;stroke-width:1px;stroke-linecap:butt;stroke-linejoin:miter;stroke-opacity:1"><flowRegion
         id="flowRegion2991"><rect
           id="rect2993"
           width="387.5"
           height="400"
           x="-3.125"
           y="-921.75" /></flowRegion><flowPara
         id="flowPara2995"
         style="font-size:40px;line-height:1.25"> </flowPara></flowRoot>    <flowRoot
       xml:space="preserve"
       id="flowRoot2997"
       style="font-style:normal;font-weight:normal;line-height:0.01%;font-family:'Bitstream Vera Sans';letter-spacing:0px;word-spacing:0px;fill:#000000;fill-opacity:1;stroke:none;stroke-width:1px;stroke-linecap:butt;stroke-linejoin:miter;stroke-opacity:1"><flowRegion
         id="flowRegion2999"><rect
           id="rect3001"
           width="50.195312"
           height="41.015625"
           x="-11.71875"
           y="-5.1484375" /></flowRegion><flowPara
         id="flowPara3003"
         style="font-size:40px;line-height:1.25"> </flowPara></flowRoot>  </g>
  <g
     inkscape:groupmode="layer"
     id="layer2"
     inkscape:label="Ebene 2">
    <path
       style="color:#000000;font-style:normal;font-variant:normal;font-weight:normal;font-stretch:normal;font-size:medium;line-height:normal;font-family:sans-serif;font-variant-ligatures:normal;font-variant-position:normal;font-variant-caps:normal;font-variant-numeric:normal;font-variant-alternates:normal;font-feature-settings:normal;text-indent:0;text-align:start;text-decoration:none;text-decoration-line:none;text-decoration-style:solid;text-decoration-color:#000000;letter-spacing:normal;word-spacing:normal;text-transform:none;writing-mode:lr-tb;direction:ltr;text-orientation:mixed;dominant-baseline:auto;baseline-shift:baseline;text-anchor:start;white-space:normal;shape-padding:0;clip-rule:nonzero;display:inline;overflow:visible;visibility:visible;opacity:1;isolation:auto;mix-blend-mode:normal;color-interpolation:sRGB;color-interpolation-filters:linearRGB;solid-color:#000000;solid-opacity:1;vector-effect:none;fill:#5b5b5b;fill-opacity:1;fill-rule:nonzero;stroke:none;stroke-width:2.90179801;stroke-linecap:round;stroke-linejoin:miter;stroke-miterlimit:4;stroke-dasharray:none;stroke-dashoffset:0;stroke-opacity:1;color-rendering:auto;image-rendering:auto;shape-rendering:auto;text-rendering:auto;enable-background:accumulate"
       d="m 6.0560113,2.9417421 a 1.1606058,1.16496 0 0 0 -0.8842001,1.8597096 1.1606058,1.16496 0 0 0 0.070299,0.087811 1.160709,1.1650636 0 0 0 0.00313,0.00314 L 10.61761,10.999961 5.3936423,16.938173 a 1.1606058,1.16496 0 0 0 0.1671544,1.986722 1.1606058,1.16496 0 0 0 0.7123592,0.12074 c 0.1527498,2.07e-4 2.2705614,0.0032 4.5865931,0.0047 1.199035,7.28e-4 2.410208,0.0021 3.344651,0.0016 0.934444,-5.46e-4 1.464373,0.0018 1.71841,-0.0063 a 1.1606058,1.16496 0 1 0 -0.07343,-2.328556 c 0.07025,-0.0022 -0.713877,0.0042 -1.64655,0.0047 -0.932672,5.46e-4 -2.142968,7.29e-4 -3.341526,0 -1.1003546,-6.63e-4 -1.3214135,-6.23e-4 -2.179257,-0.0016 l 4.353827,-4.948772 a 1.1606058,1.16496 0 0 0 0,-1.542964 L 8.6867386,5.2860552 c 0.8568488,9.313e-4 1.075733,8.992e-4 2.1730084,0.00157 1.199034,7.282e-4 2.410208,5.466e-4 3.34465,0 0.934444,-5.465e-4 1.464385,0.00335 1.718411,-0.0047 A 1.1606058,1.16496 0 1 0 15.849382,2.954359 c 0.07024,-0.00223 -0.713876,0.00416 -1.646549,0.0047 C 13.27016,2.9596045 12.059864,2.9582192 10.861306,2.957489 8.5383354,2.956079 6.3994206,2.952979 6.2606535,2.952789 A 1.1606058,1.16496 0 0 0 6.0560113,2.9417421 Z"
       id="path823"
       inkscape:connector-curvature="0" />
    <g
       transform="translate(24.137765,-78.575878)"
       id="layer1-7"
       inkscape:label="Ebene 1">
      <g
         id="text2985"
         style="font-style:normal;font-variant:normal;font-weight:normal;font-stretch:normal;font-size:28px;line-height:125%;font-family:'URW Bookman L';-inkscape-font-specification:'URW Bookman L';text-align:start;letter-spacing:0px;word-spacing:0px;writing-mode:lr-tb;text-anchor:start;fill:#5b5b5b;fill-opacity:1;stroke:#313131;stroke-width:1;stroke-linecap:round;stroke-linejoin:round;stroke-miterlimit:1;stroke-dasharray:none;stroke-opacity:1">
        <path
           id="path3006"
           style="line-height:125%;font-family:'URW Bookman L';-inkscape-font-specification:'URW Bookman L';fill:#5b5b5b;fill-opacity:1;stroke:#313131;stroke-width:1;stroke-linecap:round;stroke-linejoin:round;stroke-miterlimit:1;stroke-dasharray:none;stroke-opacity:1"
           d="M 19.480701,1032.2986 H 3.2407015 l -1.596,4.928 0.924,0.336 c 1.6519983,-2.912 3.5840026,-4.2 6.16,-4.2 0.9239991,0 1.232,0.28 1.232,1.12 v 12.852 c 0,2.268 -0.4200014,2.968 -1.82,3.08 l -1.092,0.084 v 0.868 h 8.6239995 v -0.868 l -1.092,-0.084 c -1.399998,-0.112 -1.82,-0.812 -1.82,-3.08 v -12.74 c 0,-0.98 0.224001,-1.232 1.148,-1.232 2.463998,0 4.592002,1.456 6.16,4.2 l 0.98,-0.336 -1.568,-4.928"
           inkscape:connector-curvature="0" />
      </g>
      <flowRoot
         style="font-style:normal;font-weight:normal;line-height:0.01%;font-family:'Bitstream Vera Sans';letter-spacing:0px;word-spacing:0px;fill:#000000;fill-opacity:1;stroke:none;stroke-width:1px;stroke-linecap:butt;stroke-linejoin:miter;stroke-opacity:1"
         id="flowRoot2989-2"
         xml:space="preserve"><flowRegion
           id="flowRegion2991-7"><rect
             y="-921.75"
             x="-3.125"
             height="400"
             width="387.5"
             id="rect2993-2" /></flowRegion><flowPara
           style="font-size:40px;line-height:1.25"
           id="flowPara2995-2"> </flowPara></flowRoot>      <flowRoot
         style="font-style:normal;font-weight:normal;line-height:0.01%;font-family:'Bitstream Vera Sans';letter-spacing:0px;word-spacing:0px;fill:#000000;fill-opacity:1;stroke:none;stroke-width:1px;stroke-linecap:butt;stroke-linejoin:miter;stroke-opacity:1"
         id="flowRoot2997-6"
         xml:space="preserve"><flowRegion
           id="flowRegion2999-1"><rect
             y="-5.1484375"
             x="-11.71875"
             height="41.015625"
             width="50.195312"
             id="rect3001-0" /></flowRegion><flowPara
           style="font-size:40px;line-height:1.25"
           id="flowPara3003-6"> </flowPara></flowRoot>    </g>
    <g
       transform="translate(36.100656,-61.144237)"
       id="layer1-0"
       inkscape:label="Ebene 1">
      <g
         id="text2985-9"
         style="font-style:normal;font-variant:normal;font-weight:normal;font-stretch:normal;font-size:28px;line-height:125%;font-family:'URW Bookman L';-inkscape-font-specification:'URW Bookman L';text-align:start;letter-spacing:0px;word-spacing:0px;writing-mode:lr-tb;text-anchor:start;fill:#5b5b5b;fill-opacity:1;stroke:#313131;stroke-width:1;stroke-linecap:round;stroke-linejoin:round;stroke-miterlimit:1;stroke-dasharray:none;stroke-opacity:1">
        <path
           id="path3006-1"
           style="line-height:125%;font-family:'URW Bookman L';-inkscape-font-specification:'URW Bookman L';fill:#5b5b5b;fill-opacity:1;stroke:#313131;stroke-width:1;stroke-linecap:round;stroke-linejoin:round;stroke-miterlimit:1;stroke-dasharray:none;stroke-opacity:1"
           d="M 19.480701,1032.2986 H 3.2407015 l -1.596,4.928 0.924,0.336 c 1.6519983,-2.912 3.5840026,-4.2 6.16,-4.2 0.9239991,0 1.232,0.28 1.232,1.12 v 12.852 c 0,2.268 -0.4200014,2.968 -1.82,3.08 l -1.092,0.084 v 0.868 h 8.6239995 v -0.868 l -1.092,-0.084 c -1.399998,-0.112 -1.82,-0.812 -1.82,-3.08 v -12.74 c 0,-0.98 0.224001,-1.232 1.148,-1.232 2.463998,0 4.592002,1.456 6.16,4.2 l 0.98,-0.336 -1.568,-4.928"
           inkscape:connector-curvature="0" />
      </g>
      <flowRoot
         style="font-style:normal;font-weight:normal;line-height:0.01%;font-family:'Bitstream Vera Sans';letter-spacing:0px;word-spacing:0px;fill:#000000;fill-opacity:1;stroke:none;stroke-width:1px;stroke-linecap:butt;stroke-linejoin:miter;stroke-opacity:1"
         id="flowRoot2989-7"
         xml:space="preserve"><flowRegion
           id="flowRegion2991-71"><rect
             y="-921.75"
             x="-3.125"
             height="400"
             width="387.5"
             id="rect2993-1" /></flowRegion><flowPara
           style="font-size:40px;line-height:1.25"
           id="flowPara2995-5"> </flowPara></flowRoot>      <flowRoot
         style="font-style:normal;font-weight:normal;line-height:0.01%;font-family:'Bitstream Vera Sans';letter-spacing:0px;word-spacing:0px;fill:#000000;fill-opacity:1;stroke:none;stroke-width:1px;stroke-linecap:butt;stroke-linejoin:miter;stroke-opacity:1"
         id="flowRoot2997-9"
         xml:space="preserve"><flowRegion
           id="flowRegion2999-7"><rect
             y="-5.1484375"
             x="-11.71875"
             height="41.015625"
             width="50.195312"
             id="rect3001-7" /></flowRegion><flowPara
           style="font-size:40px;line-height:1.25"
           id="flowPara3003-67"> </flowPara></flowRoot>    </g>
    <g
       transform="translate(6.327299,-1030.8837)"
       style="font-style:normal;font-variant:normal;font-weight:normal;font-stretch:normal;font-size:28px;line-height:125%;font-family:'URW Bookman L';-inkscape-font-specification:'URW Bookman L';text-align:start;letter-spacing:0px;word-spacing:0px;writing-mode:lr-tb;text-anchor:start;fill:#5b5b5b;fill-opacity:1;stroke:#313131;stroke-width:1;stroke-linecap:round;stroke-linejoin:round;stroke-miterlimit:1;stroke-dasharray:none;stroke-opacity:1"
       id="text2985-3" />
    <path
       id="path927"
       d="m 6.0560113,2.9417421 a 1.1606058,1.16496 0 0 0 -0.8842001,1.8597096 1.1606058,1.16496 0 0 0 0.070299,0.087811 1.160709,1.1650636 0 0 0 0.00313,0.00314 L 10.61761,10.999961 5.3936423,16.938173 a 1.1606058,1.16496 0 0 0 0.1671544,1.986722 1.1606058,1.16496 0 0 0 0.7123592,0.12074 c 0.1527498,2.07e-4 2.2705614,0.0032 4.5865931,0.0047 1.199035,7.28e-4 2.410208,0.0021 3.344651,0.0016 0.934444,-5.46e-4 1.464373,0.0018 1.71841,-0.0063 a 1.1606058,1.16496 0 1 0 -0.07343,-2.328556 c 0.07025,-0.0022 -0.713877,0.0042 -1.64655,0.0047 -0.932672,5.46e-4 -2.142968,7.29e-4 -3.341526,0 -1.1003546,-6.63e-4 -1.3214135,-6.23e-4 -2.179257,-0.0016 l 4.353827,-4.948772 a 1.1606058,1.16496 0 0 0 0,-1.542964 L 8.6867386,5.2860552 c 0.8568488,9.313e-4 1.075733,8.992e-4 2.1730084,0.00157 1.199034,7.282e-4 2.410208,5.466e-4 3.34465,0 0.934444,-5.465e-4 1.464385,0.00335 1.718411,-0.0047 A 1.1606058,1.16496 0 1 0 15.849382,2.954359 c 0.07024,-0.00223 -0.713876,0.00416 -1.646549,0.0047 C 13.27016,2.9596045 12.059864,2.9582192 10.861306,2.957489 8.5383354,2.956079 6.3994206,2.952979 6.2606535,2.952789 A 1.1606058,1.16496 0 0 0 6.0560113,2.9417421 Z"
       style="color:#000000;font-style:normal;font-variant:normal;font-weight:normal;font-stretch:normal;font-size:medium;line-height:normal;font-family:sans-serif;font-variant-ligatures:normal;font-variant-position:normal;font-variant-caps:normal;font-variant-numeric:normal;font-variant-alternates:normal;font-feature-settings:normal;text-indent:0;text-align:start;text-decoration:none;text-decoration-line:none;text-decoration-style:solid;text-decoration-color:#000000;letter-spacing:normal;word-spacing:normal;text-transform:none;writing-mode:lr-tb;direction:ltr;text-orientation:mixed;dominant-baseline:auto;baseline-shift:baseline;text-anchor:start;white-space:normal;shape-padding:0;clip-rule:nonzero;display:inline;overflow:visible;visibility:visible;opacity:1;isolation:auto;mix-blend-mode:normal;color-interpolation:sRGB;color-interpolation-filters:linearRGB;solid-color:#000000;solid-opacity:1;vector-effect:none;fill:none;fill-opacity:1;fill-rule:nonzero;stroke:#313131;stroke-width:1;stroke-linecap:round;stroke-linejoin:round;stroke-miterlimit:4;stroke-dasharray:none;stroke-dashoffset:0;stroke-opacity:1;color-rendering:auto;image-rendering:auto;shape-rendering:auto;text-rendering:auto;enable-background:accumulate"
       inkscape:connector-curvature="0" />
  </g>
</svg>
