<?xml version="1.0" encoding="UTF-8" standalone="no"?>
<!-- Created with Inkscape (http://www.inkscape.org/) -->

<svg
   xmlns:dc="http://purl.org/dc/elements/1.1/"
   xmlns:cc="http://creativecommons.org/ns#"
   xmlns:rdf="http://www.w3.org/1999/02/22-rdf-syntax-ns#"
   xmlns:svg="http://www.w3.org/2000/svg"
   xmlns="http://www.w3.org/2000/svg"
   xmlns:xlink="http://www.w3.org/1999/xlink"
   xmlns:sodipodi="http://sodipodi.sourceforge.net/DTD/sodipodi-0.dtd"
   xmlns:inkscape="http://www.inkscape.org/namespaces/inkscape"
   id="svg3844"
   sodipodi:docname="tool_highlighter.svg"
   viewBox="0 0 22 22"
   version="1.1"
   inkscape:version="0.92.3 (2405546, 2018-03-11)"
   width="22"
   height="22">
  <defs
     id="defs3848">
    <linearGradient
       inkscape:collect="always"
       id="linearGradient910">
      <stop
         style="stop-color:#fafafa;stop-opacity:1"
         offset="0"
         id="stop906" />
      <stop
         style="stop-color:#ffffff;stop-opacity:0"
         offset="1"
         id="stop908" />
    </linearGradient>
    <radialGradient
       id="radialGradient4423"
       gradientUnits="userSpaceOnUse"
       cy="205.64999"
       cx="50"
       gradientTransform="matrix(1.8027238,-0.07464316,0.03004111,0.72612344,-91.29059,13.720142)"
       r="32.768002"
       inkscape:collect="always">
      <stop
         id="stop4393"
         style="stop-color:#000000"
         offset="0" />
      <stop
         id="stop4395"
         style="stop-color:#191919"
         offset="1" />
    </radialGradient>
    <linearGradient
       inkscape:collect="always"
       xlink:href="#linearGradient910"
       id="linearGradient912"
       x1="20.810125"
       y1="8.3496332"
       x2="29.589155"
       y2="9.2297535"
       gradientUnits="userSpaceOnUse"
       gradientTransform="translate(0.08755891,0.22395487)" />
    <clipPath
       clipPathUnits="userSpaceOnUse"
       id="clipPath918">
      <path
         id="path920"
         d="m 26.397752,-0.16761959 c 0.176363,-0.29969378 5.110532,0.0479492 5.69812,0.30409826 0.517132,0.39512366 1.067859,16.80150633 0.995444,18.12693933 -0.551858,0.240293 -8.216696,0.357355 -8.444189,0.235163 0.139656,-4.943032 1.014623,-17.4155112 1.750625,-18.66620059 z"
         sodipodi:nodetypes="scccs"
         style="fill:#68b723;stroke-width:0.1164753"
         inkscape:connector-curvature="0" />
    </clipPath>
    <linearGradient
       inkscape:collect="always"
       xlink:href="#linearGradient910"
       id="linearGradient929"
       gradientUnits="userSpaceOnUse"
       gradientTransform="matrix(0.72852846,0.54012793,-0.54012793,0.72852846,-3.6508896,-12.469835)"
       x1="23.181007"
       y1="8.572258"
       x2="36.415535"
       y2="9.3085089" />
    <clipPath
       id="clipPath1027"
       clipPathUnits="userSpaceOnUse">
      <rect
         style="opacity:1;fill:#8cd5ff;fill-opacity:1;stroke:#000000;stroke-width:1.05890512;stroke-linecap:round;stroke-linejoin:round;stroke-miterlimit:4;stroke-dasharray:none;stroke-opacity:1"
         id="rect1029"
         width="20.298611"
         height="13.951644"
         x="0.86882812"
         y="3.5739653" />
    </clipPath>
    <clipPath
       id="clipPath1033"
       clipPathUnits="userSpaceOnUse">
      <rect
         style="opacity:1;fill:#8cd5ff;fill-opacity:1;stroke:#000000;stroke-width:1.05890512;stroke-linecap:round;stroke-linejoin:round;stroke-miterlimit:4;stroke-dasharray:none;stroke-opacity:1"
         id="rect1035"
         width="20.298611"
         height="13.951644"
         x="0.86882812"
         y="3.5739653" />
    </clipPath>
  </defs>
  <sodipodi:namedview
     id="namedview3846"
     bordercolor="#666666"
     inkscape:pageshadow="2"
     guidetolerance="10"
     pagecolor="#ffffff"
     gridtolerance="10"
     inkscape:window-maximized="1"
     inkscape:zoom="22.627417"
     objecttolerance="10"
     borderopacity="1"
     inkscape:current-layer="layer2"
     inkscape:cx="20.2135"
     inkscape:cy="12.020931"
     inkscape:window-y="30"
     inkscape:window-x="0"
     inkscape:window-width="2560"
     showgrid="false"
     inkscape:pageopacity="0"
     inkscape:window-height="1377"
     inkscape:snap-intersection-paths="true"
     inkscape:object-paths="true">
    <inkscape:grid
       id="grid4373"
       enabled="true"
       visible="true"
       snapvisiblegridlinesonly="true"
       type="xygrid"
       empspacing="5" />
  </sodipodi:namedview>
  <metadata
     id="metadata20">
    <rdf:RDF>
      <cc:Work>
        <dc:format>image/svg+xml</dc:format>
        <dc:type
           rdf:resource="http://purl.org/dc/dcmitype/StillImage" />
        <cc:license
           rdf:resource="http://creativecommons.org/publicdomain/zero/1.0/" />
        <dc:publisher>
          <cc:Agent
             rdf:about="http://openclipart.org/">
            <dc:title>Openclipart</dc:title>
          </cc:Agent>
        </dc:publisher>
        <dc:title />
      </cc:Work>
      <cc:License
         rdf:about="http://creativecommons.org/publicdomain/zero/1.0/">
        <cc:permits
           rdf:resource="http://creativecommons.org/ns#Reproduction" />
        <cc:permits
           rdf:resource="http://creativecommons.org/ns#Distribution" />
        <cc:permits
           rdf:resource="http://creativecommons.org/ns#DerivativeWorks" />
      </cc:License>
    </rdf:RDF>
  </metadata>
  <g
     inkscape:groupmode="layer"
     id="layer1"
     inkscape:label="Layer 1">
    <path
       id="path839"
       d="m 10.649669,18.498678 c 0,0 -2.1236505,-0.596106 -4.3209866,0.888831 M 3.6695125,18.772441 C 5.3681717,16.228022 4.370819,14.109058 4.370819,14.109058"
       sodipodi:nodetypes="cccc"
       style="fill:none;stroke:#000000;stroke-width:1;stroke-linecap:round;stroke-miterlimit:4;stroke-dasharray:none;stroke-opacity:1"
       inkscape:connector-curvature="0" />
    <path
       id="path841"
       d="m 4.0419754,18.13277 c -0.1080885,0.210163 -0.2268166,0.42201 -0.3719763,0.639445 -0.00117,0.0017 -6.386e-4,0.0035 -0.00177,0.0053 -1.449e-4,2.23e-4 -0.00162,-2.22e-4 -0.00177,0 l -1.1265565,1.521561 2.6782286,0.09565 1.107072,-1.002565 -0.00531,-0.0018 c 0.00238,-0.0015 0.00651,-0.002 0.00886,-0.0035 0.316268,-0.21373 0.628152,-0.374649 0.9352545,-0.510138"
       style="fill:none;fill-opacity:1;stroke:#7a0000;stroke-width:1;stroke-linecap:round;stroke-miterlimit:4;stroke-dasharray:none;stroke-opacity:1"
       inkscape:connector-curvature="0"
       sodipodi:nodetypes="cccccccccc" />
    <path
       id="path837"
       d="M 4.370819,14.109058 C 7.142432,10.583351 14.516605,1.9693891 15.728336,1.4557615 16.018694,1.3326847 19.425605,4.251035 19.715326,4.7550196 19.878654,5.3221958 11.418329,17.572176 10.649669,18.498678"
       sodipodi:nodetypes="cscc"
       style="fill:none;stroke:#7a0000;stroke-width:1;stroke-miterlimit:4;stroke-dasharray:none;stroke-opacity:1"
       inkscape:connector-curvature="0" />
    <path
       inkscape:connector-curvature="0"
       style="fill:#c6262e;stroke-width:0.1164753"
       sodipodi:nodetypes="scccs"
       d="M 15.728336,1.4557615 C 16.018694,1.3326847 19.425605,4.251035 19.715326,4.7550196 19.878654,5.3221958 11.418329,17.572176 10.649669,18.498678 10.117836,18.375664 4.4705548,14.320954 4.370819,14.109058 7.142432,10.583351 14.516605,1.9693891 15.728336,1.4557615 Z"
       id="rect3854" />
    <path
       inkscape:connector-curvature="0"
       style="fill:url(#radialGradient4423);stroke-width:0.1164753"
       sodipodi:nodetypes="ccssc"
       d="m 4.370819,14.109058 6.27885,4.38962 c 0,0 -2.1236505,-0.596106 -4.3209866,0.888831 C 5.5962342,19.882487 3.1840331,19.49972 3.6695125,18.772441 5.3681717,16.228022 4.370819,14.109058 4.370819,14.109058 Z"
       id="rect4385" />
    <path
       style="fill:#c6262e;fill-opacity:1;stroke-width:0.1164753"
       d="m 4.0419754,18.13277 c -0.1080885,0.210163 -0.2268166,0.42201 -0.3719763,0.639445 -0.00117,0.0017 -6.386e-4,0.0035 -0.00177,0.0053 -1.449e-4,2.23e-4 -0.00162,-2.22e-4 -0.00177,0 l -1.1265565,1.521561 2.6782286,0.09565 1.107072,-1.002565 -0.00531,-0.0018 c 0.00238,-0.0015 0.00651,-0.002 0.00886,-0.0035 0.316268,-0.21373 0.628152,-0.374649 0.9352545,-0.510138 l 0.00177,-0.0089 z"
       id="rect4388"
       inkscape:connector-curvature="0" />
    <path
       style="opacity:1;fill:url(#linearGradient929);fill-opacity:1;stroke:none;stroke-width:1;stroke-linecap:round;stroke-linejoin:round;stroke-miterlimit:4;stroke-dasharray:none;stroke-opacity:1"
       d="M 15.842241,1.9918808 C 12.125502,5.7539482 8.6985405,9.7594323 5.4862118,13.94521 5.5200438,14.01709 6.1786502,14.508064 7.1411526,15.201925 10.27298,10.894002 13.635214,6.891682 17.297317,3.2870988 Z"
       id="rect901"
       inkscape:connector-curvature="0"
       sodipodi:nodetypes="ccccc" />
    <path
       style="fill:#a10705;fill-opacity:1;stroke:none;stroke-width:1.10264111px;stroke-linecap:butt;stroke-linejoin:miter;stroke-opacity:1"
       d="m 31.190957,-0.78848196 c 0.443519,0.56208955 1.103025,20.47119596 1.030892,20.87550196 -0.07213,0.404305 3.605275,-2.028311 3.605275,-2.028311 0,0 -1.359823,-18.87584194 -1.498744,-18.85246373 -0.138921,0.0233782 -2.706289,0.14164445 -2.706289,0.14164445 z"
       id="path914"
       inkscape:connector-curvature="0"
       clip-path="url(#clipPath918)"
       transform="matrix(0.72852846,0.54012793,-0.54012793,0.72852846,-3.5937142,-12.680286)"
       sodipodi:nodetypes="cccscc" />
    <g
       transform="translate(45.897531,-75.878613)"
       id="layer1-4"
       inkscape:label="Ebene 1">
      <g
         id="text2985"
         style="font-style:normal;font-variant:normal;font-weight:normal;font-stretch:normal;font-size:28px;line-height:125%;font-family:'URW Bookman L';-inkscape-font-specification:'URW Bookman L';text-align:start;letter-spacing:0px;word-spacing:0px;writing-mode:lr-tb;text-anchor:start;fill:#5b5b5b;fill-opacity:1;stroke:#313131;stroke-width:1;stroke-linecap:round;stroke-linejoin:round;stroke-miterlimit:1;stroke-dasharray:none;stroke-opacity:1">
        <path
           id="path3006"
           style="line-height:125%;font-family:'URW Bookman L';-inkscape-font-specification:'URW Bookman L';fill:#5b5b5b;fill-opacity:1;stroke:#313131;stroke-width:1;stroke-linecap:round;stroke-linejoin:round;stroke-miterlimit:1;stroke-dasharray:none;stroke-opacity:1"
           d="M 19.480701,1032.2986 H 3.2407015 l -1.596,4.928 0.924,0.336 c 1.6519983,-2.912 3.5840026,-4.2 6.16,-4.2 0.9239991,0 1.232,0.28 1.232,1.12 v 12.852 c 0,2.268 -0.4200014,2.968 -1.82,3.08 l -1.092,0.084 v 0.868 h 8.6239995 v -0.868 l -1.092,-0.084 c -1.399998,-0.112 -1.82,-0.812 -1.82,-3.08 v -12.74 c 0,-0.98 0.224001,-1.232 1.148,-1.232 2.463998,0 4.592002,1.456 6.16,4.2 l 0.98,-0.336 -1.568,-4.928"
           inkscape:connector-curvature="0" />
      </g>
      <flowRoot
         style="font-style:normal;font-weight:normal;line-height:0.01%;font-family:'Bitstream Vera Sans';letter-spacing:0px;word-spacing:0px;fill:#000000;fill-opacity:1;stroke:none;stroke-width:1px;stroke-linecap:butt;stroke-linejoin:miter;stroke-opacity:1"
         id="flowRoot2989"
         xml:space="preserve"><flowRegion
           id="flowRegion2991"><rect
             y="-921.75"
             x="-3.125"
             height="400"
             width="387.5"
             id="rect2993" /></flowRegion><flowPara
           style="font-size:40px;line-height:1.25"
           id="flowPara2995"> </flowPara></flowRoot>      <flowRoot
         style="font-style:normal;font-weight:normal;line-height:0.01%;font-family:'Bitstream Vera Sans';letter-spacing:0px;word-spacing:0px;fill:#000000;fill-opacity:1;stroke:none;stroke-width:1px;stroke-linecap:butt;stroke-linejoin:miter;stroke-opacity:1"
         id="flowRoot2997"
         xml:space="preserve"><flowRegion
           id="flowRegion2999"><rect
             y="-5.1484375"
             x="-11.71875"
             height="41.015625"
             width="50.195312"
             id="rect3001" /></flowRegion><flowPara
           style="font-size:40px;line-height:1.25"
           id="flowPara3003"> </flowPara></flowRoot>    </g>
  </g>
  <g
     inkscape:groupmode="layer"
     id="layer2"
     inkscape:label="Layer 2">
    <g
       transform="translate(33.085031,-81.941113)"
       id="layer1-6"
       inkscape:label="Ebene 1">
      <g
         id="text2985-2"
         style="font-style:normal;font-variant:normal;font-weight:normal;font-stretch:normal;font-size:28px;line-height:125%;font-family:'URW Bookman L';-inkscape-font-specification:'URW Bookman L';text-align:start;letter-spacing:0px;word-spacing:0px;writing-mode:lr-tb;text-anchor:start;fill:#5b5b5b;fill-opacity:1;stroke:#313131;stroke-width:1;stroke-linecap:round;stroke-linejoin:round;stroke-miterlimit:1;stroke-dasharray:none;stroke-opacity:1">
        <path
           id="path3006-6"
           style="line-height:125%;font-family:'URW Bookman L';-inkscape-font-specification:'URW Bookman L';fill:#5b5b5b;fill-opacity:1;stroke:#313131;stroke-width:1;stroke-linecap:round;stroke-linejoin:round;stroke-miterlimit:1;stroke-dasharray:none;stroke-opacity:1"
           d="M 19.480701,1032.2986 H 3.2407015 l -1.596,4.928 0.924,0.336 c 1.6519983,-2.912 3.5840026,-4.2 6.16,-4.2 0.9239991,0 1.232,0.28 1.232,1.12 v 12.852 c 0,2.268 -0.4200014,2.968 -1.82,3.08 l -1.092,0.084 v 0.868 h 8.6239995 v -0.868 l -1.092,-0.084 c -1.399998,-0.112 -1.82,-0.812 -1.82,-3.08 v -12.74 c 0,-0.98 0.224001,-1.232 1.148,-1.232 2.463998,0 4.592002,1.456 6.16,4.2 l 0.98,-0.336 -1.568,-4.928"
           inkscape:connector-curvature="0" />
      </g>
      <flowRoot
         style="font-style:normal;font-weight:normal;line-height:0.01%;font-family:'Bitstream Vera Sans';letter-spacing:0px;word-spacing:0px;fill:#000000;fill-opacity:1;stroke:none;stroke-width:1px;stroke-linecap:butt;stroke-linejoin:miter;stroke-opacity:1"
         id="flowRoot2989-7"
         xml:space="preserve"><flowRegion
           id="flowRegion2991-5"><rect
             y="-921.75"
             x="-3.125"
             height="400"
             width="387.5"
             id="rect2993-6" /></flowRegion><flowPara
           style="font-size:40px;line-height:1.25"
           id="flowPara2995-9"> </flowPara></flowRoot>      <flowRoot
         style="font-style:normal;font-weight:normal;line-height:0.01%;font-family:'Bitstream Vera Sans';letter-spacing:0px;word-spacing:0px;fill:#000000;fill-opacity:1;stroke:none;stroke-width:1px;stroke-linecap:butt;stroke-linejoin:miter;stroke-opacity:1"
         id="flowRoot2997-8"
         xml:space="preserve"><flowRegion
           id="flowRegion2999-7"><rect
             y="-5.1484375"
             x="-11.71875"
             height="41.015625"
             width="50.195312"
             id="rect3001-2" /></flowRegion><flowPara
           style="font-size:40px;line-height:1.25"
           id="flowPara3003-8"> </flowPara></flowRoot>    </g>
  </g>
</svg>
