<?xml version="1.0" encoding="UTF-8" standalone="no"?>
<svg
   width="22"
   height="22"
   id="svg2"
   version="1.1"
   inkscape:version="1.1 (c68e22c387, 2021-05-23)"
   sodipodi:docname="xopp-thickness-thick.svg"
   xmlns:inkscape="http://www.inkscape.org/namespaces/inkscape"
   xmlns:sodipodi="http://sodipodi.sourceforge.net/DTD/sodipodi-0.dtd"
   xmlns="http://www.w3.org/2000/svg"
   xmlns:svg="http://www.w3.org/2000/svg"
   xmlns:rdf="http://www.w3.org/1999/02/22-rdf-syntax-ns#"
   xmlns:cc="http://creativecommons.org/ns#"
   xmlns:dc="http://purl.org/dc/elements/1.1/">
  <defs
     id="defs4" />
  <sodipodi:namedview
     inkscape:document-rotation="0"
     id="base"
     pagecolor="#ffffff"
     bordercolor="#666666"
     borderopacity="1.0"
     inkscape:pageopacity="0.0"
     inkscape:pageshadow="2"
     inkscape:zoom="44.8"
     inkscape:cx="11.283482"
     inkscape:cy="12.287946"
     inkscape:document-units="px"
     inkscape:current-layer="layer1"
     showgrid="false"
     inkscape:window-width="1280"
     inkscape:window-height="1000"
     inkscape:window-x="0"
     inkscape:window-y="24"
     inkscape:window-maximized="1"
     inkscape:pagecheckerboard="0"
     showguides="false" />
  <metadata
     id="metadata7">
    <rdf:RDF>
      <cc:Work
         rdf:about="">
        <dc:format>image/svg+xml</dc:format>
        <dc:type
           rdf:resource="http://purl.org/dc/dcmitype/StillImage" />
        <dc:title />
      </cc:Work>
    </rdf:RDF>
  </metadata>
  <g
     inkscape:label="Ebene 1"
     inkscape:groupmode="layer"
     id="layer1"
     transform="translate(0,-1030.3622)">
    <path
       sodipodi:type="arc"
       style="fill:#666666;fill-opacity:1;stroke:none"
       id="path2985"
       sodipodi:cx="14.285714"
       sodipodi:cy="14.857142"
       sodipodi:rx="10.491072"
       sodipodi:ry="10.491072"
       d="m 24.776786,14.857142 a 10.491072,10.491072 0 1 1 -20.9821436,0 10.491072,10.491072 0 1 1 20.9821436,0 z"
       transform="matrix(0.59148937,0,0,0.59148937,2.5322947,1032.5922)" />
    <path
       id="path849"
       style="fill:#4d4d4d;fill-opacity:1;stroke:none;stroke-width:0.591489"
       d="M 4.8554688 10.517578 A 6.2053576 6.2053576 0 0 0 4.7773438 11.017578 A 6.2053576 6.2053576 0 0 0 10.982422 17.222656 A 6.2053576 6.2053576 0 0 0 17.1875 11.017578 A 6.2053576 6.2053576 0 0 0 17.144531 10.740234 A 6.2053576 6.2053576 0 0 1 10.982422 16.222656 A 6.2053576 6.2053576 0 0 1 4.8554688 10.517578 z "
       transform="translate(0,1030.3622)" />
    <path
       id="path856"
       style="fill:#7e8087;fill-opacity:1;stroke:none;stroke-width:0.591489"
       d="M 10.982422 4.8125 A 6.2053576 6.2053576 0 0 0 4.7773438 11.017578 A 6.2053576 6.2053576 0 0 0 4.8554688 11.517578 A 6.2053576 6.2053576 0 0 1 10.982422 5.8125 A 6.2053576 6.2053576 0 0 1 17.107422 11.517578 A 6.2053576 6.2053576 0 0 0 17.1875 11.017578 A 6.2053576 6.2053576 0 0 0 10.982422 4.8125 z "
       transform="translate(0,1030.3622)" />
    <path
       transform="matrix(0.59148937,0,0,0.59148937,2.5322947,1032.5922)"
       d="m 24.776786,14.857142 a 10.491072,10.491072 0 1 1 -20.9821436,0 10.491072,10.491072 0 1 1 20.9821436,0 z"
       sodipodi:ry="10.491072"
       sodipodi:rx="10.491072"
       sodipodi:cy="14.857142"
       sodipodi:cx="14.285714"
       id="path863"
       style="fill:none;fill-opacity:1;stroke:#1a1a1a;stroke-opacity:1;stroke-width:1.69064746;stroke-miterlimit:4;stroke-dasharray:none"
       sodipodi:type="arc" />
  </g>
</svg>
