<svg viewBox="0 0 5.821 5.821" height="22" width="22" xmlns="http://www.w3.org/2000/svg"><defs><linearGradient id="a"><stop offset="0" style="stop-color:#3689e6;stop-opacity:1"/><stop offset="1" style="stop-color:#64baff;stop-opacity:1"/></linearGradient><linearGradient id="c"><stop offset="0" style="stop-color:#f9f9f9;stop-opacity:1"/><stop offset="1" style="stop-color:#d8d8d8;stop-opacity:1"/></linearGradient><linearGradient id="b"><stop offset="0" style="stop-color:#efdfc4;stop-opacity:1"/><stop offset="1" style="stop-color:#e7c591;stop-opacity:1"/></linearGradient><linearGradient id="d"><stop offset="0" style="stop-color:#9bdb4d;stop-opacity:1"/><stop offset="1" style="stop-color:#68b723;stop-opacity:1"/></linearGradient><linearGradient id="f"><stop offset="0" style="stop-color:#c6f27b;stop-opacity:1"/><stop offset="1" style="stop-color:#93d049;stop-opacity:1"/></linearGradient><linearGradient id="e"><stop offset="0" style="stop-color:#c396eb;stop-opacity:1"/><stop offset="1" style="stop-color:#9d68d7;stop-opacity:1"/></linearGradient></defs><g transform="translate(-124.09 -217.458)"><path style="fill:none;stroke:#666;stroke-width:.79375;stroke-linecap:round;stroke-linejoin:miter;stroke-miterlimit:4;stroke-dasharray:none;stroke-opacity:1" d="M125.588 222.117s2.239 1.047 2.55.001c.384-1.296-2.942-1.897-2.232-3.206.587-1.084 2.506-.182 2.506-.182"/><path style="color:#000;font-style:normal;font-variant:normal;font-weight:400;font-stretch:normal;font-size:medium;line-height:normal;font-family:sans-serif;font-variant-ligatures:normal;font-variant-position:normal;font-variant-caps:normal;font-variant-numeric:normal;font-variant-alternates:normal;font-variant-east-asian:normal;font-feature-settings:normal;font-variation-settings:normal;text-indent:0;text-align:start;text-decoration:none;text-decoration-line:none;text-decoration-style:solid;text-decoration-color:#000;letter-spacing:normal;word-spacing:normal;text-transform:none;writing-mode:lr-tb;direction:ltr;text-orientation:mixed;dominant-baseline:auto;baseline-shift:baseline;text-anchor:start;white-space:normal;shape-padding:0;shape-margin:0;inline-size:0;clip-rule:nonzero;display:inline;overflow:visible;visibility:visible;isolation:auto;mix-blend-mode:normal;color-interpolation:sRGB;color-interpolation-filters:linearRGB;solid-color:#000;solid-opacity:1;vector-effect:none;fill:#1a1a1a;fill-opacity:1;fill-rule:nonzero;stroke:none;stroke-linecap:round;stroke-linejoin:miter;stroke-miterlimit:4;stroke-dasharray:none;stroke-dashoffset:0;stroke-opacity:1;color-rendering:auto;image-rendering:auto;shape-rendering:auto;text-rendering:auto;enable-background:accumulate;stop-color:#000;stop-opacity:1;opacity:1" d="M127.443 218.023c-.31-.05-.655-.07-.998.018-.342.089-.687.31-.888.682-.246.452-.123.973.14 1.306.264.334.628.579.979.819.35.24.69.471.888.68.199.207.243.311.194.478-.036.12-.063.133-.225.164s-.43.012-.701-.047a6.071 6.071 0 0 1-1.076-.365.397.397 0 0 0-.527.191.397.397 0 0 0 .19.528s.587.278 1.243.421c.328.072.677.118 1.022.051.345-.066.714-.315.834-.719.143-.481-.084-.94-.38-1.25-.294-.31-.669-.553-1.013-.789-.344-.235-.656-.466-.805-.654-.148-.188-.175-.236-.066-.437.093-.171.208-.242.39-.29.183-.047.428-.043.67-.003.486.079.93.283.93.283a.397.397 0 0 0 .527-.192.397.397 0 0 0-.19-.527s-.517-.246-1.138-.348z"/><path style="color:#000;font-style:normal;font-variant:normal;font-weight:400;font-stretch:normal;font-size:medium;line-height:normal;font-family:sans-serif;font-variant-ligatures:normal;font-variant-position:normal;font-variant-caps:normal;font-variant-numeric:normal;font-variant-alternates:normal;font-variant-east-asian:normal;font-feature-settings:normal;font-variation-settings:normal;text-indent:0;text-align:start;text-decoration:none;text-decoration-line:none;text-decoration-style:solid;text-decoration-color:#000;letter-spacing:normal;word-spacing:normal;text-transform:none;writing-mode:lr-tb;direction:ltr;text-orientation:mixed;dominant-baseline:auto;baseline-shift:baseline;text-anchor:start;white-space:normal;shape-padding:0;shape-margin:0;inline-size:0;clip-rule:nonzero;display:inline;overflow:visible;visibility:visible;isolation:auto;mix-blend-mode:normal;color-interpolation:sRGB;color-interpolation-filters:linearRGB;solid-color:#000;solid-opacity:1;vector-effect:none;fill:#666;fill-opacity:1;fill-rule:nonzero;stroke:#1a1a1a;stroke-linecap:round;stroke-linejoin:miter;stroke-miterlimit:4;stroke-dasharray:none;stroke-dashoffset:0;stroke-opacity:1;color-rendering:auto;image-rendering:auto;shape-rendering:auto;text-rendering:auto;enable-background:accumulate;stop-color:#000;stop-opacity:1;opacity:1;stroke-width:.26458333" d="M127.443 218.023c-.31-.05-.655-.07-.998.018-.342.089-.687.31-.888.682-.246.452-.123.973.14 1.306.264.334.628.579.979.819.35.24.69.471.888.68.199.207.243.311.194.478-.036.12-.063.133-.225.164s-.43.012-.701-.047a6.071 6.071 0 0 1-1.076-.365.397.397 0 0 0-.527.191.397.397 0 0 0 .19.528s.587.278 1.243.421c.328.072.677.118 1.022.051.345-.066.714-.315.834-.719.143-.481-.084-.94-.38-1.25-.294-.31-.669-.553-1.013-.789-.344-.235-.656-.466-.805-.654-.148-.188-.175-.236-.066-.437.093-.171.208-.242.39-.29.183-.047.428-.043.67-.003.486.079.93.283.93.283a.397.397 0 0 0 .527-.192.397.397 0 0 0-.19-.527s-.517-.246-1.138-.348z"/><circle style="fill:#c6262e;fill-opacity:1;stroke:none;stroke-width:.264583;stroke-linecap:round;stroke-linejoin:round;stroke-miterlimit:4;stroke-dasharray:none;paint-order:stroke markers fill;stop-color:#000" cx="125.588" cy="222.117" r=".754"/><path style="fill:#ed5353;fill-opacity:1;stroke:none;stroke-width:.999999;stroke-linecap:round;stroke-linejoin:round;stroke-miterlimit:4;stroke-dasharray:none;paint-order:stroke markers fill;stop-color:#000" d="M5.588 14.758a2.85 2.85 0 0 0-2.776 2.85 2.85 2.85 0 0 0 .045.5 2.85 2.85 0 0 1 2.807-2.35 2.85 2.85 0 0 1 2.805 2.347 2.85 2.85 0 0 0 .045-.498 2.85 2.85 0 0 0-2.85-2.85 2.85 2.85 0 0 0-.076 0z" transform="translate(124.09 217.458) scale(.26458)"/><circle style="fill:none;fill-opacity:1;stroke:#a10705;stroke-width:.26458333;stroke-linecap:round;stroke-linejoin:round;stroke-miterlimit:4;stroke-dasharray:none;paint-order:stroke markers fill;stop-color:#000" cx="125.588" cy="222.117" r=".754"/><circle style="fill:#c6262e;fill-opacity:1;stroke:none;stroke-width:.264583;stroke-linecap:round;stroke-linejoin:round;stroke-miterlimit:4;stroke-dasharray:none;paint-order:stroke markers fill;stop-color:#000" cx="128.412" cy="218.73" r=".754"/><path style="fill:#ed5353;fill-opacity:1;stroke:none;stroke-width:.999999;stroke-linecap:round;stroke-linejoin:round;stroke-miterlimit:4;stroke-dasharray:none;paint-order:stroke markers fill;stop-color:#000" d="M16.262 1.957a2.85 2.85 0 0 0-2.776 2.85 2.85 2.85 0 0 0 .045.498 2.85 2.85 0 0 1 2.805-2.35 2.85 2.85 0 0 1 2.807 2.35 2.85 2.85 0 0 0 .044-.498 2.85 2.85 0 0 0-2.851-2.85 2.85 2.85 0 0 0-.074 0z" transform="translate(124.09 217.458) scale(.26458)"/><circle style="fill:none;fill-opacity:1;stroke:#a10705;stroke-width:.264583;stroke-linecap:round;stroke-linejoin:round;stroke-miterlimit:4;stroke-dasharray:none;paint-order:stroke markers fill;stop-color:#000" cx="128.412" cy="218.73" r=".754"/></g></svg>