<svg xmlns="http://www.w3.org/2000/svg" xmlns:xlink="http://www.w3.org/1999/xlink" width="22" height="22" viewBox="0 0 5.821 5.821"><defs><linearGradient xlink:href="#a" id="b" x1="20.153" x2="2.547" y1="16.855" y2="2.855" gradientTransform="translate(.984 .423)scale(.12598)" gradientUnits="userSpaceOnUse"/><linearGradient id="a"><stop offset=".424" style="stop-color:#f25151;stop-opacity:1"/><stop offset=".926" style="stop-color:#f47373;stop-opacity:0"/></linearGradient></defs><path d="M4.337-1.85a.43.43 0 0 0-.43.43v-.287a.43.43 0 1 0-.86 0v-.286a.43.43 0 1 0-.86 0v-.355a.43.43 0 1 0-.86 0v2.182L.26-.62a.43.43 0 0 0-.589.597v-.001L.99 1.446c.21.335.577.537.971.537h1.373c.792 0 1.434-.642 1.434-1.434v-1.968a.43.43 0 0 0-.43-.43z" style="fill:#ffa154;stroke-width:.352299" transform="translate(1.993 4.325)scale(.70705)"/><path d="M1.756-2.779a.43.43 0 0 0-.43.43v.266a.43.43 0 1 1 .86 0v-.265a.43.43 0 0 0-.43-.43zm.86.355a.43.43 0 0 0-.43.43v.266a.43.43 0 1 1 .86 0v-.266a.43.43 0 0 0-.43-.43m.86.287a.43.43 0 0 0-.43.43v.265a.43.43 0 1 1 .86 0v-.265a.43.43 0 0 0-.43-.43m.86.287a.43.43 0 0 0-.43.43v.265a.43.43 0 0 1 .86.001v-.265a.43.43 0 0 0-.43-.43zM.036-.683a.43.43 0 0 0-.408.564.428.428 0 0 1 .631-.236l1.067.453v-.264L.26-.62a.4.4 0 0 0-.225-.063z" style="fill:#ffc27d;fill-opacity:1;stroke-width:.352298" transform="translate(1.993 4.325)scale(.70705)"/><path d="M-.372-.383a.42.42 0 0 0 .043.36L.99 1.445c.21.336.576.538.971.538h1.373c.792 0 1.434-.642 1.434-1.434V.284c0 .792-.642 1.435-1.434 1.435H1.96c-.395 0-.76-.203-.97-.538L-.33-.288a.4.4 0 0 1-.043-.095" style="fill:#f37329;fill-opacity:1;stroke-width:.352298" transform="translate(1.993 4.325)scale(.70705)"/><path fill="none" d="M4.337-1.85a.43.43 0 0 0-.43.43v-.287a.43.43 0 1 0-.86 0v-.286a.43.43 0 1 0-.86 0v-.355a.43.43 0 1 0-.86 0v2.182L.26-.62h0a.43.43 0 0 0-.589.597v-.001L.99 1.446c.21.335.577.537.971.537h1.373c.792 0 1.434-.642 1.434-1.434v-1.968a.43.43 0 0 0-.43-.43z" style="fill:#000;fill-opacity:0;stroke:#a62100;stroke-width:.265;stroke-linecap:round;stroke-linejoin:round;stroke-miterlimit:4;stroke-dasharray:none;stroke-opacity:1" transform="translate(1.993 4.325)scale(.70705)"/><path d="M3.908-1.717v.931m-.86-1.177v1.065m-.86-1.3v1.152" style="fill:none;stroke:#a62100;stroke-width:.264583px;stroke-linecap:round;stroke-linejoin:miter;stroke-opacity:1" transform="translate(1.993 4.325)scale(.70705)"/><path d="M3.5 2.557c-1.238-.076-.221-.518.001-.96.19-.374-1.605.676-1.828.523-.278-.191.804-.778.771-1.19C2.427.72 1.604.735 1.422.88" style="fill:none;fill-opacity:1;stroke:url(#b);stroke-width:.327551;stroke-linecap:round;stroke-linejoin:miter;stroke-dasharray:none;stroke-opacity:1" transform="translate(-1.041 -.678)scale(1.11644)"/></svg>