<svg width="22" height="22" xmlns="http://www.w3.org/2000/svg"><path style="fill:#3689e6;stroke:none;stroke-width:1.99999;stroke-linecap:round;stroke-linejoin:round;paint-order:stroke markers fill;stop-color:#000" d="M4.441 1044.641 1 1046.362l4.998 2.5 5.002 2.5 5.002-2.5 4.998-2.5-3.441-1.72-6.336 3.167a.498.498 0 0 1-.446 0z" transform="translate(0 -1030.362)"/><path style="fill:#68b723;stroke:none;stroke-width:1.99999;stroke-linecap:round;stroke-linejoin:round;paint-order:stroke markers fill;stop-color:#000" d="M4.441 9.28 1 11l4.998 2.5L11 16l5.002-2.5L21 11l-3.441-1.72-6.336 3.167a.5.5 0 0 1-.446 0z"/><path style="fill:none;stroke:#206b00;stroke-width:1;stroke-linecap:round;stroke-linejoin:round;stroke-miterlimit:4;stroke-dasharray:none;paint-order:stroke markers fill;stop-color:#000" d="M4.441 1039.641 1 1041.362l4.999 2.5 5.001 2.5 5.001-2.5 4.999-2.5-3.441-1.72" transform="translate(0 -1030.362)"/><path style="fill:#c6262e;stroke:none;stroke-width:2;stroke-linecap:round;stroke-linejoin:round;paint-order:stroke markers fill;stop-color:#000;stroke-miterlimit:4;stroke-dasharray:none;fill-opacity:1" d="m11 1031.362-5.001 2.5-4.999 2.5 4.999 2.5 5.001 2.5 5.001-2.5 4.999-2.5-4.999-2.5z" transform="translate(0 -1030.362)"/><path style="fill:none;stroke:#7a0000;stroke-width:1;stroke-linecap:round;stroke-linejoin:round;paint-order:stroke markers fill;stop-color:#000;stroke-miterlimit:4;stroke-dasharray:none" d="m11 1031.362-5.001 2.5-4.999 2.5 4.999 2.5 5.001 2.5 5.001-2.5 4.999-2.5-4.999-2.5z" transform="translate(0 -1030.362)"/><path style="fill:none;stroke:#002e99;stroke-width:1;stroke-linecap:round;stroke-linejoin:round;stroke-miterlimit:4;stroke-dasharray:none;paint-order:stroke markers fill;stop-color:#000" d="M4.441 1044.641 1 1046.362l4.999 2.5 5.001 2.5 5.001-2.5 4.999-2.5-3.441-1.72" transform="translate(0 -1030.362)"/><path style="fill:none;stroke:#206b00;stroke-width:1;stroke-linecap:round;stroke-linejoin:round;paint-order:stroke markers fill;stop-color:#000;stroke-opacity:.98431373;stroke-miterlimit:4;stroke-dasharray:none" d="M4.441 9.28 1 11l4.998 2.5L11 16l5.002-2.5L21 11l-3.441-1.72-6.336 3.167a.5.5 0 0 1-.446 0z"/><path style="fill:none;stroke:#002e99;stroke-width:1;stroke-linecap:round;stroke-linejoin:round;paint-order:stroke markers fill;stop-color:#000;stroke-opacity:1;stroke-miterlimit:4;stroke-dasharray:none" d="M4.441 1044.641 1 1046.362l4.998 2.5 5.002 2.5 5.002-2.5 4.998-2.5-3.441-1.72-6.336 3.167a.498.498 0 0 1-.446 0z" transform="translate(0 -1030.362)"/></svg>