<svg width="22" height="22" xmlns="http://www.w3.org/2000/svg"><g transform="translate(0 -1030.362)"><circle style="fill:#666;fill-opacity:1;stroke:none" cx="10.982" cy="1041.38" r="9.821"/><path style="fill:#4d4d4d;fill-opacity:1;stroke:none" d="M1.227 10.518a9.821 9.821 0 0 0-.067.5 9.821 9.821 0 0 0 9.822 9.822 9.821 9.821 0 0 0 9.82-9.822 9.821 9.821 0 0 0-.032-.256 9.821 9.821 0 0 1-9.788 9.078 9.821 9.821 0 0 1-9.755-9.322z" transform="translate(0 1030.362)"/><path style="fill:#7e8087;fill-opacity:1;stroke:none" d="M10.982 1.197a9.821 9.821 0 0 0-9.822 9.82 9.821 9.821 0 0 0 .067.5 9.821 9.821 0 0 1 9.755-9.322 9.821 9.821 0 0 1 9.754 9.323 9.821 9.821 0 0 0 .067-.5 9.821 9.821 0 0 0-9.82-9.82z" transform="translate(0 1030.362)"/><circle r="9.821" cy="1041.38" cx="10.982" style="fill:none;fill-opacity:1;stroke:#1a1a1a;stroke-opacity:1"/></g></svg>