<svg width="22" height="22" xmlns="http://www.w3.org/2000/svg"><path style="fill:#666;fill-opacity:1;stroke:none" d="M24.777 14.857a10.491 10.491 0 1 1-20.982 0 10.491 10.491 0 1 1 20.982 0z" transform="translate(2.532 2.23) scale(.59149)"/><path style="fill:#4d4d4d;fill-opacity:1;stroke:none;stroke-width:.591489" d="M4.855 10.518a6.205 6.205 0 0 0-.078.5 6.205 6.205 0 0 0 6.205 6.205 6.205 6.205 0 0 0 6.206-6.205 6.205 6.205 0 0 0-.043-.278 6.205 6.205 0 0 1-6.163 5.483 6.205 6.205 0 0 1-6.127-5.705z"/><path style="fill:#7e8087;fill-opacity:1;stroke:none;stroke-width:.591489" d="M10.982 4.813a6.205 6.205 0 0 0-6.205 6.205 6.205 6.205 0 0 0 .078.5 6.205 6.205 0 0 1 6.127-5.706 6.205 6.205 0 0 1 6.125 5.706 6.205 6.205 0 0 0 .08-.5 6.205 6.205 0 0 0-6.205-6.206z"/><path transform="translate(2.532 2.23) scale(.59149)" d="M24.777 14.857a10.491 10.491 0 1 1-20.982 0 10.491 10.491 0 1 1 20.982 0z" style="fill:none;fill-opacity:1;stroke:#1a1a1a;stroke-opacity:1;stroke-width:1.69064746;stroke-miterlimit:4;stroke-dasharray:none"/></svg>