<?xml version="1.0" encoding="UTF-8" standalone="no"?>
<svg
   width="22"
   height="22"
   id="svg2"
   version="1.1"
   inkscape:version="1.1 (c68e22c387, 2021-05-23)"
   sodipodi:docname="xopp-thickness-thicker.svg"
   xmlns:inkscape="http://www.inkscape.org/namespaces/inkscape"
   xmlns:sodipodi="http://sodipodi.sourceforge.net/DTD/sodipodi-0.dtd"
   xmlns="http://www.w3.org/2000/svg"
   xmlns:svg="http://www.w3.org/2000/svg"
   xmlns:rdf="http://www.w3.org/1999/02/22-rdf-syntax-ns#"
   xmlns:cc="http://creativecommons.org/ns#"
   xmlns:dc="http://purl.org/dc/elements/1.1/">
  <defs
     id="defs4" />
  <sodipodi:namedview
     inkscape:document-rotation="0"
     id="base"
     pagecolor="#ffffff"
     bordercolor="#666666"
     borderopacity="1.0"
     inkscape:pageopacity="0.0"
     inkscape:pageshadow="2"
     inkscape:zoom="22.4"
     inkscape:cx="17.879464"
     inkscape:cy="9.3973214"
     inkscape:document-units="px"
     inkscape:current-layer="layer1"
     showgrid="false"
     inkscape:window-width="1275"
     inkscape:window-height="774"
     inkscape:window-x="1806"
     inkscape:window-y="925"
     inkscape:window-maximized="0"
     inkscape:pagecheckerboard="0"
     showguides="false" />
  <metadata
     id="metadata7">
    <rdf:RDF>
      <cc:Work
         rdf:about="">
        <dc:format>image/svg+xml</dc:format>
        <dc:type
           rdf:resource="http://purl.org/dc/dcmitype/StillImage" />
        <dc:title />
      </cc:Work>
    </rdf:RDF>
  </metadata>
  <g
     inkscape:label="Ebene 1"
     inkscape:groupmode="layer"
     id="layer1"
     transform="translate(0,-1030.3622)">
    <circle
       style="fill:#666666;fill-opacity:1;stroke:none"
       id="path2985"
       cx="10.982142"
       cy="1041.38"
       r="9.8214283" />
    <path
       id="circle849"
       style="fill:#4d4d4d;fill-opacity:1;stroke:none"
       d="M 1.2265625 10.517578 A 9.8214283 9.8214283 0 0 0 1.1601562 11.017578 A 9.8214283 9.8214283 0 0 0 10.982422 20.839844 A 9.8214283 9.8214283 0 0 0 20.802734 11.017578 A 9.8214283 9.8214283 0 0 0 20.769531 10.761719 A 9.8214283 9.8214283 0 0 1 10.982422 19.839844 A 9.8214283 9.8214283 0 0 1 1.2265625 10.517578 z "
       transform="translate(0,1030.3622)" />
    <path
       id="circle856"
       style="fill:#7e8087;fill-opacity:1;stroke:none"
       d="M 10.982422 1.1972656 A 9.8214283 9.8214283 0 0 0 1.1601562 11.017578 A 9.8214283 9.8214283 0 0 0 1.2265625 11.517578 A 9.8214283 9.8214283 0 0 1 10.982422 2.1953125 A 9.8214283 9.8214283 0 0 1 20.736328 11.517578 A 9.8214283 9.8214283 0 0 0 20.802734 11.017578 A 9.8214283 9.8214283 0 0 0 10.982422 1.1972656 z "
       transform="translate(0,1030.3622)" />
    <circle
       r="9.8214283"
       cy="1041.38"
       cx="10.982142"
       id="circle863"
       style="fill:none;fill-opacity:1;stroke:#1a1a1a;stroke-opacity:1" />
  </g>
</svg>
