<?xml version="1.0" encoding="UTF-8" standalone="no"?>
<!-- Generator: Adobe Illustrator 10.0.3, SVG Export Plug-In . SVG Version: 3.0.0 Build 77)  -->

<svg
   xmlns:a="http://ns.adobe.com/AdobeSVGViewerExtensions/3.0/"
   xmlns:dc="http://purl.org/dc/elements/1.1/"
   xmlns:cc="http://creativecommons.org/ns#"
   xmlns:rdf="http://www.w3.org/1999/02/22-rdf-syntax-ns#"
   xmlns:svg="http://www.w3.org/2000/svg"
   xmlns="http://www.w3.org/2000/svg"
   xmlns:sodipodi="http://sodipodi.sourceforge.net/DTD/sodipodi-0.dtd"
   xmlns:inkscape="http://www.inkscape.org/namespaces/inkscape"
   width="128"
   height="128"
   viewBox="0 0 128 128"
   overflow="visible"
   enable-background="new 0 0 128 128"
   xml:space="preserve"
   id="svg2326"
   sodipodi:version="0.32"
   inkscape:version="0.91 r13725"
   sodipodi:docname="xojpt.svg"
   inkscape:output_extension="org.inkscape.output.svg.inkscape"
   version="1.1"><metadata
     id="metadata2428"><rdf:RDF><cc:Work
         rdf:about=""><dc:format>image/svg+xml</dc:format><dc:type
           rdf:resource="http://purl.org/dc/dcmitype/StillImage" /></cc:Work></rdf:RDF></metadata><defs
     id="defs2426"><inkscape:perspective
       sodipodi:type="inkscape:persp3d"
       inkscape:vp_x="0 : 64 : 1"
       inkscape:vp_y="0 : 1000 : 0"
       inkscape:vp_z="128 : 64 : 1"
       inkscape:persp3d-origin="64 : 42.666667 : 1"
       id="perspective73" /><linearGradient
       id="linearGradient9920"><stop
         style="stop-color:#5b90c8;stop-opacity:1;"
         offset="0"
         id="stop9922" /><stop
         id="stop9924"
         offset="0.31578946"
         style="stop-color:#8fb0d1;stop-opacity:1;" /><stop
         style="stop-color:#34679d;stop-opacity:1;"
         offset="1"
         id="stop9926" /></linearGradient><linearGradient
       id="linearGradient9910"><stop
         id="stop9912"
         offset="0"
         style="stop-color:#729fcf;stop-opacity:1;" /><stop
         style="stop-color:#a5bfda;stop-opacity:1;"
         offset="0.31578946"
         id="stop9918" /><stop
         id="stop9914"
         offset="1"
         style="stop-color:#376ca4;stop-opacity:1;" /></linearGradient></defs><sodipodi:namedview
     inkscape:window-height="1176"
     inkscape:window-width="1920"
     inkscape:pageshadow="2"
     inkscape:pageopacity="0.0"
     guidetolerance="10.0"
     gridtolerance="10.0"
     objecttolerance="10.0"
     borderopacity="1.0"
     bordercolor="#666666"
     pagecolor="#ffffff"
     id="base"
     inkscape:zoom="19.754846"
     inkscape:cx="24.136999"
     inkscape:cy="122.59887"
     inkscape:window-x="0"
     inkscape:window-y="24"
     inkscape:current-layer="g2329"
     showgrid="false"
     inkscape:window-maximized="1" /><g
     id="Layer_1"><g
       id="g2329"><g
         id="g2331"><path
           fill="#FFFFFF"
           d="M121.164,1.052H6.836v125.896h80.701l33.627-33.627V1.052z"
           id="path2333" /><linearGradient
           id="XMLID_1_"
           gradientUnits="userSpaceOnUse"
           x1="63.9204"
           y1="154.5645"
           x2="63.9204"
           y2="-100.9347"><stop
             offset="0"
             style="stop-color:#FFFFFF"
             id="stop2336" /><stop
             offset="0.2457"
             style="stop-color:#F6F6F6"
             id="stop2338" /><stop
             offset="0.6374"
             style="stop-color:#DFDFDF"
             id="stop2340" /><stop
             offset="1"
             style="stop-color:#C4C4C4"
             id="stop2342" /><a:midPointStop
             offset="0"
             style="stop-color:#FFFFFF" /><a:midPointStop
             offset="0.6045"
             style="stop-color:#FFFFFF" /><a:midPointStop
             offset="1"
             style="stop-color:#C4C4C4" /></linearGradient><path
           fill="url(#XMLID_1_)"
           d="M117.734,4.019H10.266l-0.16,122.654h76.457l31.172-31.252V4.019z"
           id="path2344" /><linearGradient
           id="XMLID_2_"
           gradientUnits="userSpaceOnUse"
           x1="-26.333"
           y1="-26.333"
           x2="56.1662"
           y2="56.1662"><stop
             offset="0"
             style="stop-color:#B3B3B3"
             id="stop2347" /><stop
             offset="1"
             style="stop-color:#828282"
             id="stop2349" /><a:midPointStop
             offset="0"
             style="stop-color:#B3B3B3" /><a:midPointStop
             offset="0.5"
             style="stop-color:#B3B3B3" /><a:midPointStop
             offset="1"
             style="stop-color:#828282" /></linearGradient><path
           fill="url(#XMLID_2_)"
           d="M121.164,0.552H6.336v126.896h81.408l33.92-33.92V0.552H121.164z M120.664,1.552      c0,0.987,0,91.152,0,91.562c-0.289,0.289-33.045,33.045-33.334,33.334c-0.41,0-79.01,0-79.994,0c0-0.988,0-123.909,0-124.896      C8.322,1.552,119.678,1.552,120.664,1.552z"
           id="path2351" /><linearGradient
           id="XMLID_3_"
           gradientUnits="userSpaceOnUse"
           x1="43.0229"
           y1="25.4214"
           x2="204.0073"
           y2="111.0652"><stop
             offset="0"
             style="stop-color:#FFFFFF"
             id="stop2354" /><stop
             offset="0.8603"
             style="stop-color:#DADADA"
             id="stop2356" /><stop
             offset="1"
             style="stop-color:#D4D4D4"
             id="stop2358" /><a:midPointStop
             offset="0"
             style="stop-color:#FFFFFF" /><a:midPointStop
             offset="0.5254"
             style="stop-color:#FFFFFF" /><a:midPointStop
             offset="1"
             style="stop-color:#D4D4D4" /></linearGradient><path
           fill="url(#XMLID_3_)"
           d="M118.006,15.223V3.94H10.199l-0.096,65.34c9.975,4.547,21.151,7.096,32.954,7.096      C80.402,76.376,111.455,48.876,118.006,15.223z"
           id="path2360" /></g><linearGradient
         id="XMLID_4_"
         gradientUnits="userSpaceOnUse"
         x1="-3.7275"
         y1="10.6514"
         x2="127.5933"
         y2="10.6514"><stop
           offset="0"
           style="stop-color:#B3CAFF"
           id="stop2363" /><stop
           offset="1"
           style="stop-color:#0053BD"
           id="stop2365" /><a:midPointStop
           offset="0"
           style="stop-color:#B3CAFF" /><a:midPointStop
           offset="0.5"
           style="stop-color:#B3CAFF" /><a:midPointStop
           offset="1"
           style="stop-color:#0053BD" /></linearGradient><path
         d="M117.692,17.023H10.308V4.279h107.385V17.023z"
         id="path2367"
         fill="url(#XMLID_4_)" /><g
         id="g2384"><radialGradient
           id="XMLID_6_"
           cx="108.4668"
           cy="118.249"
           r="34.7364"
           fx="108.4668"
           fy="118.249"
           gradientUnits="userSpaceOnUse"><stop
             offset="0"
             style="stop-color:#000000"
             id="stop2387" /><stop
             offset="1"
             style="stop-color:#000000"
             id="stop2389" /><a:midPointStop
             offset="0"
             style="stop-color:#000000" /><a:midPointStop
             offset="0.5"
             style="stop-color:#000000" /><a:midPointStop
             offset="1"
             style="stop-color:#000000" /></radialGradient><path
           opacity="0.1"
           fill="url(#XMLID_6_)"
           d="M85.191,90.976v35.754h1.793l33.639-33.639v-2.115H85.191z"
           id="path2391" /><path
           fill="#FFFFFF"
           d="M87.537,126.948l33.627-33.627H87.537V126.948z"
           id="path2393" /><linearGradient
           id="XMLID_7_"
           gradientUnits="userSpaceOnUse"
           x1="104.0166"
           y1="98.1807"
           x2="95.0883"
           y2="135.7938"><stop
             offset="0"
             style="stop-color:#FFFFFF"
             id="stop2396" /><stop
             offset="1"
             style="stop-color:#CCCCCC"
             id="stop2398" /><a:midPointStop
             offset="0"
             style="stop-color:#FFFFFF" /><a:midPointStop
             offset="0.5"
             style="stop-color:#FFFFFF" /><a:midPointStop
             offset="1"
             style="stop-color:#CCCCCC" /></linearGradient><path
           fill="url(#XMLID_7_)"
           d="M89.865,125.056l29.594-29.592H89.865V125.056z"
           id="path2400" /><linearGradient
           id="XMLID_8_"
           gradientUnits="userSpaceOnUse"
           x1="82.3086"
           y1="88.0928"
           x2="96.1043"
           y2="101.8885"><stop
             offset="0"
             style="stop-color:#B3B3B3"
             id="stop2403" /><stop
             offset="1"
             style="stop-color:#828282"
             id="stop2405" /><a:midPointStop
             offset="0"
             style="stop-color:#B3B3B3" /><a:midPointStop
             offset="0.5"
             style="stop-color:#B3B3B3" /><a:midPointStop
             offset="1"
             style="stop-color:#828282" /></linearGradient><path
           fill="url(#XMLID_8_)"
           d="M87.537,92.821c-0.277,0-0.5,0.223-0.5,0.5v33.627c0,0.203,0.121,0.385,0.309,0.463      c0.186,0.076,0.402,0.033,0.545-0.109l33.627-33.627c0.143-0.145,0.186-0.359,0.109-0.545c-0.078-0.188-0.26-0.309-0.463-0.309      H87.537z M119.957,93.821c-1.58,1.578-30.342,30.34-31.92,31.92c0-2.209,0-30.986,0-31.92      C88.971,93.821,117.748,93.821,119.957,93.821z"
           id="path2407" /></g><path
         style="font-size:62.90097427000001318px;font-style:italic;font-variant:normal;font-weight:normal;font-stretch:normal;text-align:start;line-height:125%;writing-mode:lr-tb;text-anchor:start;fill:#ff6600;fill-opacity:1;stroke:none;stroke-width:1px;stroke-linecap:butt;stroke-linejoin:miter;stroke-opacity:1;font-family:Andy MT"
         d="M 56.378404,53.727644 C 56.668877,54.044686 57.440051,54.748517 58.691911,55.839135 C 76.26413,72.746011 84.710366,82.212429 84.030658,84.238414 C 83.542134,85.728697 82.133994,86.992396 79.806235,88.029514 C 77.482319,89.006293 75.388674,89.449224 73.525301,89.358281 C 72.049981,89.286317 65.045123,82.161374 52.510691,67.983438 C 49.981499,65.013564 48.496025,63.336141 48.054267,62.951159 C 46.217767,64.799641 43.472596,68.602352 39.818747,74.359305 C 36.246459,80.059738 33.765764,84.571838 32.376657,87.895625 C 34.806155,86.500085 36.797364,85.840188 38.350293,85.915942 C 39.126687,85.953843 39.642135,86.40294 39.896636,87.263235 C 40.232698,88.066979 40.252215,88.946109 39.95519,89.900625 C 39.678117,90.553327 37.804116,91.794295 34.33318,93.623537 C 31.833974,94.894575 30.255777,95.786591 29.59858,96.2996 C 27.565246,97.59337 26.159852,99.40227 25.382393,101.72633 C 24.299788,105.12565 21.545641,106.71734 17.119954,106.5014 C 14.790614,106.38775 13.35947,105.65172 12.826525,104.29331 C 12.293546,102.93489 12.511493,100.8258 13.480366,97.96599 C 15.340414,92.242619 24.285789,78.355714 40.316531,56.305247 C 40.225329,55.33182 37.928391,51.797888 33.425692,45.703433 C 28.922916,39.60909 25.348113,35.376885 22.701276,33.006805 C 19.833476,30.444392 18.639798,28.478386 19.120241,27.108783 C 20.202794,23.709537 23.616911,22.150045 29.362604,22.43031 C 32.15776,22.566772 37.139648,27.89722 44.308294,38.421666 C 47.370341,42.750047 49.376015,45.391592 50.325311,46.346312 C 51.978351,44.912928 54.33478,42.272245 57.394595,38.424256 C 60.458301,34.516024 62.57704,31.348952 63.750835,28.923025 C 64.912472,26.678352 66.744903,24.890281 69.248153,23.5588 C 71.751253,22.227483 74.128678,21.616715 76.380435,21.726501 C 79.874332,21.897057 81.138905,23.382012 80.174144,26.181363 C 79.091486,29.580762 72.791895,37.055854 61.275357,48.606664 C 58.27165,51.609486 56.63934,53.316475 56.378404,53.727644"
         id="text1485" /><g
         style="font-style:normal;font-weight:normal;font-size:40px;font-family:'Bitstream Vera Sans';fill:#ffffff;fill-opacity:1;stroke:none"
         id="text2879"
         transform="translate(0,-0.11875441)"><text
           xml:space="preserve"
           style="font-style:normal;font-weight:normal;font-size:40px;line-height:125%;font-family:'Bitstream Vera Sans';letter-spacing:0px;word-spacing:0px;fill:#000000;fill-opacity:1;stroke:none;stroke-width:1px;stroke-linecap:butt;stroke-linejoin:miter;stroke-opacity:1"
           x="11.541471"
           y="16.229959"
           id="text4200"
           sodipodi:linespacing="125%"><tspan
             sodipodi:role="line"
             id="tspan4202"
             x="11.541471"
             y="16.229959"
             style="font-style:normal;font-variant:normal;font-weight:bold;font-stretch:normal;font-size:15px;line-height:125%;font-family:'Bitstream Vera Sans';-inkscape-font-specification:'Bitstream Vera Sans, Bold';text-align:start;writing-mode:lr-tb;text-anchor:start;fill:#ffffff;fill-opacity:1">XOPT</tspan></text>
</g></g><path
       fill="none"
       d="M128,128H0V0h128V128z"
       id="path2423" /></g></svg>