<?xml version="1.0" encoding="UTF-8" standalone="no"?>
<!-- Generator: Adobe Illustrator 16.0.0, SVG Export Plug-In . SVG Version: 6.00 Build 0)  -->

<svg
   xmlns:dc="http://purl.org/dc/elements/1.1/"
   xmlns:cc="http://creativecommons.org/ns#"
   xmlns:rdf="http://www.w3.org/1999/02/22-rdf-syntax-ns#"
   xmlns:svg="http://www.w3.org/2000/svg"
   xmlns="http://www.w3.org/2000/svg"
   xmlns:sodipodi="http://sodipodi.sourceforge.net/DTD/sodipodi-0.dtd"
   xmlns:inkscape="http://www.inkscape.org/namespaces/inkscape"
   version="1.1"
   id="Layer_1"
   x="0px"
   y="0px"
   width="22"
   height="22"
   viewBox="0 0 22 22"
   enable-background="new 0 0 300 300"
   xml:space="preserve"
   inkscape:version="0.48.4 r9939"
   sodipodi:docname="tool_pencil.svg"><metadata
     id="metadata29"><rdf:RDF><cc:Work
         rdf:about=""><dc:format>image/svg+xml</dc:format><dc:type
           rdf:resource="http://purl.org/dc/dcmitype/StillImage" /></cc:Work></rdf:RDF></metadata><defs
     id="defs27" /><sodipodi:namedview
     pagecolor="#ffffff"
     bordercolor="#666666"
     borderopacity="1"
     objecttolerance="10"
     gridtolerance="10"
     guidetolerance="10"
     inkscape:pageopacity="0"
     inkscape:pageshadow="2"
     inkscape:window-width="1280"
     inkscape:window-height="1000"
     id="namedview25"
     showgrid="false"
     inkscape:zoom="4.4500586"
     inkscape:cx="-8.2541061"
     inkscape:cy="40.11599"
     inkscape:window-x="0"
     inkscape:window-y="24"
     inkscape:window-maximized="1"
     inkscape:current-layer="Layer_1" /><path
     style="fill:#cdb790;fill-opacity:1;stroke-width:0.5;stroke-miterlimit:4;stroke-dasharray:none;stroke:#000000;stroke-opacity:1"
     d="m 11.650425,0.32680084 c -0.297061,-9.829e-4 -0.594831,0.1783003 -0.71875,0.46875 l -0.375,0.87499996 -0.3125,0.71875 -0.2812512,0.65625 -4.5625,10.7187492 -0.1875,5.15625 -0.03125,2.625 0.28125,0.09375 1.84375,-1.8125 3.7187512,-3.71875 4.5625,-10.6874992 0.28125,-0.65625 0.3125,-0.71875 0.375,-0.875 c 0.165313,-0.3870922 -0.01907,-0.8347745 -0.40625,-1 l -4.21875,-1.78124996 c -0.0968,-0.0413281 -0.18223,-0.0621724 -0.28125,-0.0625 z"
     id="polygon5-1"
     inkscape:connector-curvature="0" /><polygon
     style="fill:#cdb790;fill-opacity:1"
     id="polygon5"
     points="124.718,209.404 167.671,252.387 191.555,241.953 189.412,182.266 "
     transform="matrix(-0.08700657,0,0,0.08700657,21.888248,-2.1442011)" /><rect
     style="fill:#94e46e;fill-opacity:1"
     id="rect7"
     height="11.623891"
     width="1.8798479"
     transform="matrix(-0.91970788,-0.39260338,-0.39260338,0.91970788,0,0)"
     y="-1.1500709"
     x="-16.46825" /><rect
     style="fill:#368b25;fill-opacity:1"
     id="rect9"
     height="11.644511"
     width="2.4737494"
     transform="matrix(-0.91970788,-0.39260338,-0.39260338,0.91970788,0,0)"
     y="-1.1453366"
     x="-14.594447" /><rect
     style="fill:#94e46e;fill-opacity:1"
     id="rect11"
     height="11.687405"
     width="1.778399"
     transform="matrix(-0.91970788,-0.39260338,-0.39260338,0.91970788,0,0)"
     y="-1.1694225"
     x="-12.136273" /><rect
     style="fill:#6c8086"
     id="rect13"
     height="0.72414947"
     width="6.0971942"
     transform="matrix(0.91970788,0.39260338,0.39260338,-0.91970788,0,0)"
     y="1.142969"
     x="10.358271" /><path
     style="fill:#ff7b3c;fill-opacity:1"
     inkscape:connector-curvature="0"
     id="path15"
     d="m 11.93313,0.37072381 4.205811,1.79538059 c 0.387179,0.1652255 0.567022,0.6131353 0.401709,1.0002275 L 16.166696,4.0425751 15.863739,4.7523747 10.255818,2.3584759 10.558774,1.6487633 10.932816,0.77260715 C 11.098041,0.38534091 11.545951,0.20541132 11.93313,0.37072381 z" /><path
     style="fill:#94e46e;fill-opacity:1"
     inkscape:connector-curvature="0"
     id="path17"
     d="m 11.036963,16.075323 c 0,0 -0.54179,0.573547 -0.862236,0.450607 L 9.8627219,16.399422 c 0,0 -0.1386014,-0.597648 -0.4479968,-0.729637 l -0.2019422,-0.09327 0.097273,-0.227609 1.7269068,0.726418 z" /><path
     style="fill:#94e46e;fill-opacity:1"
     inkscape:connector-curvature="0"
     id="path19"
     d="m 5.4081596,13.714138 c 0,0 -0.054292,0.774446 0.278508,0.916702 l 0.1755793,0.07474 c 0,0 0.5550149,-0.305306 1.0106683,-0.110585 l 0.077436,0.03654 0.09736,-0.227871 -1.6395518,-0.689527 z" /><path
     style="fill:#368b25;fill-opacity:1"
     inkscape:connector-curvature="0"
     id="path21"
     d="m 9.2126088,15.576514 -0.3938787,-0.16131 c 0,0 -0.4138032,0.355161 -0.9744736,0.115719 L 7.4975353,15.372571 c 0,0 -0.1310319,-0.542747 -0.3500274,-0.636192 L 6.950351,14.63171 l 0.09736,-0.227871 2.2622578,0.944979 -0.09736,0.227696 z" /><polygon
     style="fill:#000000;fill-opacity:1"
     id="polygon23"
     points="167.482,252.229 188.854,273.188 192.001,272.005 191.555,241.953 "
     transform="matrix(-0.08700657,0,0,0.08700657,21.888248,-2.1442011)" /></svg>