<?xml version="1.0" encoding="UTF-8" standalone="no"?>
<!-- Created with Inkscape (http://www.inkscape.org/) -->

<svg
   xmlns:svg="http://www.w3.org/2000/svg"
   xmlns="http://www.w3.org/2000/svg"
   xmlns:xlink="http://www.w3.org/1999/xlink"
   version="1.1"
   width="22"
   height="22"
   id="svg2">
  <defs
     id="defs4">
    <linearGradient
       id="linearGradient9786">
      <stop
         id="stop9788"
         style="stop-color:#949494;stop-opacity:1"
         offset="0" />
      <stop
         id="stop9790"
         style="stop-color:#f1f1f1;stop-opacity:1"
         offset="1" />
    </linearGradient>
    <linearGradient
       x1="126.42094"
       y1="92.375"
       x2="126.33946"
       y2="95.25"
       id="linearGradient9800"
       xlink:href="#linearGradient9786"
       gradientUnits="userSpaceOnUse" />
    <filter
       x="-0.014214266"
       y="-0.22269017"
       width="1.0284286"
       height="1.4453803"
       color-interpolation-filters="sRGB"
       id="filter9103-2">
      <feGaussianBlur
         id="feGaussianBlur9105-6"
         stdDeviation="1.3918135" />
    </filter>
    <linearGradient
       id="linearGradient9127-5">
      <stop
         id="stop9129-8"
         style="stop-color:#f0f0f0;stop-opacity:1"
         offset="0" />
      <stop
         id="stop9131-7"
         style="stop-color:#a0a0a0;stop-opacity:1"
         offset="1" />
    </linearGradient>
    <linearGradient
       id="linearGradient10169-6">
      <stop
         id="stop10171-0"
         style="stop-color:#939393;stop-opacity:1"
         offset="0" />
      <stop
         id="stop10177-4"
         style="stop-color:#636363;stop-opacity:1"
         offset="0.08803241" />
      <stop
         id="stop10179-1"
         style="stop-color:#515151;stop-opacity:1"
         offset="0.92655754" />
      <stop
         id="stop10173-0"
         style="stop-color:#9a9a9a;stop-opacity:1"
         offset="1" />
    </linearGradient>
    <linearGradient
       id="linearGradient9349-8">
      <stop
         id="stop9351-7"
         style="stop-color:black;stop-opacity:1"
         offset="0" />
      <stop
         id="stop9353-0"
         style="stop-color:black;stop-opacity:0"
         offset="1" />
    </linearGradient>
    <linearGradient
       id="linearGradient11071-9">
      <stop
         id="stop11073-2"
         style="stop-color:white;stop-opacity:1"
         offset="0" />
      <stop
         id="stop11075-8"
         style="stop-color:#060606;stop-opacity:1"
         offset="1" />
    </linearGradient>
    <linearGradient
       id="linearGradient9119-9">
      <stop
         id="stop9121-1"
         style="stop-color:white;stop-opacity:1"
         offset="0" />
      <stop
         id="stop9123-5"
         style="stop-color:white;stop-opacity:0"
         offset="1" />
    </linearGradient>
    <linearGradient
       id="linearGradient9517-7-0">
      <stop
         id="stop9519-6-8"
         style="stop-color:#ababab;stop-opacity:1"
         offset="0" />
      <stop
         id="stop9525-3-1"
         style="stop-color:white;stop-opacity:1"
         offset="0.36250788" />
      <stop
         id="stop9521-8-9"
         style="stop-color:#52544e;stop-opacity:1"
         offset="1" />
    </linearGradient>
    <linearGradient
       id="linearGradient11064-7">
      <stop
         id="stop11066-8"
         style="stop-color:#e1e2e2;stop-opacity:1"
         offset="0" />
      <stop
         id="stop11068-2"
         style="stop-color:#181b1c;stop-opacity:1"
         offset="1" />
    </linearGradient>
    <linearGradient
       id="linearGradient9396-7-3">
      <stop
         id="stop9398-0-4"
         style="stop-color:#cfcfcf;stop-opacity:1"
         offset="0" />
      <stop
         id="stop9408-2-9"
         style="stop-color:#dfdfdf;stop-opacity:1"
         offset="0.17611465" />
      <stop
         id="stop9410-6-0"
         style="stop-color:#b3b3b3;stop-opacity:1"
         offset="0.26417196" />
      <stop
         id="stop9412-8-2"
         style="stop-color:white;stop-opacity:1"
         offset="0.36967784" />
      <stop
         id="stop9404-2-0"
         style="stop-color:#f0f0f0;stop-opacity:1"
         offset="0.47518376" />
      <stop
         id="stop9406-5-1"
         style="stop-color:#999;stop-opacity:1"
         offset="0.75" />
      <stop
         id="stop9400-1-9"
         style="stop-color:#d9d9d9;stop-opacity:1"
         offset="1" />
    </linearGradient>
    <linearGradient
       id="linearGradient11017-2">
      <stop
         id="stop11019-1"
         style="stop-color:#67767d;stop-opacity:1"
         offset="0" />
      <stop
         id="stop11025-2"
         style="stop-color:#eef0f1;stop-opacity:1"
         offset="0.17504421" />
      <stop
         id="stop11027-0"
         style="stop-color:#f1f3f4;stop-opacity:1"
         offset="0.825611" />
      <stop
         id="stop11021-7"
         style="stop-color:#89939d;stop-opacity:1"
         offset="1" />
    </linearGradient>
    <clipPath
       id="clipPath10731-4">
      <path
         d="m 225.55424,397.96981 35.5064,0 c 0.13661,0 0.24657,0.11972 0.24657,0.2685 4.1015,9.60683 2.90618,22.29519 0,28.98217 0,0.14878 -0.10994,0.26851 -0.24657,0.26851 l -35.5064,0 c -0.13659,0 -0.24656,-0.11973 -0.24656,-0.26851 -4.14573,-8.19397 -4.08078,-21.3758 0,-28.98217 0,-0.14878 0.10994,-0.2685 0.24656,-0.2685 z"
         id="path10733-7"
         style="color:black;fill:black;fill-opacity:1;fill-rule:nonzero;stroke:none;stroke-width:1;marker:none;visibility:visible;display:inline;overflow:visible;enable-background:new" />
    </clipPath>
    <linearGradient
       id="linearGradient10695-6">
      <stop
         id="stop10697-0"
         style="stop-color:#0052cb;stop-opacity:1"
         offset="0" />
      <stop
         id="stop10699-7"
         style="stop-color:#204a87;stop-opacity:0"
         offset="1" />
    </linearGradient>
    <linearGradient
       id="linearGradient9739-9-4">
      <stop
         id="stop9741-0-5"
         style="stop-color:#eeeeec;stop-opacity:1"
         offset="0" />
      <stop
         id="stop9743-0-1"
         style="stop-color:#cdcdcd;stop-opacity:1"
         offset="1" />
    </linearGradient>
    <linearGradient
       id="linearGradient9843-7">
      <stop
         id="stop9845-5"
         style="stop-color:#bfbfbf;stop-opacity:1"
         offset="0" />
      <stop
         id="stop9865-9"
         style="stop-color:black;stop-opacity:1"
         offset="0.30804455" />
      <stop
         id="stop9859-7"
         style="stop-color:#f5f5f5;stop-opacity:1"
         offset="0.3509562" />
      <stop
         id="stop9861-8"
         style="stop-color:#3b3b3b;stop-opacity:1"
         offset="0.44290981" />
      <stop
         id="stop9867-5"
         style="stop-color:#8d8d8d;stop-opacity:1"
         offset="0.50114709" />
      <stop
         id="stop9863-3"
         style="stop-color:#343434;stop-opacity:1"
         offset="0.66666353" />
      <stop
         id="stop9847-3"
         style="stop-color:#8f8f8f;stop-opacity:1"
         offset="1" />
    </linearGradient>
    <linearGradient
       id="linearGradient9786-0">
      <stop
         id="stop9788-9"
         style="stop-color:#949494;stop-opacity:1"
         offset="0" />
      <stop
         id="stop9790-8"
         style="stop-color:#f1f1f1;stop-opacity:1"
         offset="1" />
    </linearGradient>
    <linearGradient
       id="linearGradient9760-5">
      <stop
         id="stop9762-8"
         style="stop-color:#555;stop-opacity:1"
         offset="0" />
      <stop
         id="stop9764-4"
         style="stop-color:#242424;stop-opacity:1"
         offset="1" />
    </linearGradient>
    <linearGradient
       id="linearGradient9727-7">
      <stop
         id="stop9729-1"
         style="stop-color:#bfbfbf;stop-opacity:1"
         offset="0" />
      <stop
         id="stop9731-3"
         style="stop-color:#6e6e6e;stop-opacity:1"
         offset="0.10442464" />
      <stop
         id="stop9734-8"
         style="stop-color:#f5f5f5;stop-opacity:1"
         offset="0.3509562" />
      <stop
         id="stop9736-0"
         style="stop-color:#3b3b3b;stop-opacity:1"
         offset="0.44290981" />
      <stop
         id="stop9738-9"
         style="stop-color:#8d8d8d;stop-opacity:1"
         offset="0.50114709" />
      <stop
         id="stop9740-7"
         style="stop-color:#343434;stop-opacity:1"
         offset="0.62146091" />
      <stop
         id="stop9752-9"
         style="stop-color:silver;stop-opacity:1"
         offset="0.77172673" />
      <stop
         id="stop9742-9"
         style="stop-color:#505050;stop-opacity:1"
         offset="1" />
    </linearGradient>
    <clipPath
       id="clipPath9796-2">
      <rect
         width="17.918524"
         height="6.3775067"
         rx="3.1887534"
         ry="3.1887534"
         x="111.29594"
         y="89.936249"
         id="rect9798-2"
         style="color:black;fill:url(#linearGradient9800);fill-opacity:1;fill-rule:nonzero;stroke:none;stroke-width:1;marker:none;visibility:visible;display:inline;overflow:visible;enable-background:new" />
    </clipPath>
    <filter
       x="-0.028216554"
       y="-0.11459376"
       width="1.0564331"
       height="1.2291875"
       color-interpolation-filters="sRGB"
       id="filter9723-0">
      <feGaussianBlur
         id="feGaussianBlur9725-2"
         stdDeviation="0.14622642" />
    </filter>
    <radialGradient
       cx="33.5"
       cy="164.25"
       r="1"
       fx="33.5"
       fy="164.25"
       id="radialGradient4695"
       xlink:href="#linearGradient9119-9"
       gradientUnits="userSpaceOnUse"
       gradientTransform="matrix(7.2500014,-4.5784784e-5,0.001125,5.9749143,-263.63496,-970.5797)" />
    <radialGradient
       cx="33.5"
       cy="164.25"
       r="1"
       fx="33.5"
       fy="164.25"
       id="radialGradient4698"
       xlink:href="#linearGradient9119-9"
       gradientUnits="userSpaceOnUse"
       gradientTransform="matrix(7.5944265,-4.5784784e-5,0.00117844,5.9749143,-256.08312,-970.5797)" />
    <linearGradient
       x1="157.06261"
       y1="215.46954"
       x2="202.40768"
       y2="215.46954"
       id="linearGradient4720"
       xlink:href="#linearGradient11017-2"
       gradientUnits="userSpaceOnUse"
       gradientTransform="matrix(0.1145103,0,0,0.12470573,-6.9101827,-12.870281)" />
    <linearGradient
       x1="140"
       y1="185"
       x2="244"
       y2="185"
       id="linearGradient4725"
       xlink:href="#linearGradient9517-7-0"
       gradientUnits="userSpaceOnUse"
       gradientTransform="matrix(0.08899834,0,0,0.10103104,-2.3560656,-7.6925895)" />
    <linearGradient
       x1="146.22133"
       y1="154.23547"
       x2="181.36229"
       y2="238.73117"
       id="linearGradient4727"
       xlink:href="#linearGradient11064-7"
       gradientUnits="userSpaceOnUse"
       gradientTransform="matrix(0.08315052,0,0,0.089348,-1.4612303,-3.7061338)" />
    <radialGradient
       cx="160.5"
       cy="246.5"
       r="88.5"
       fx="160.5"
       fy="246.5"
       id="radialGradient4734"
       xlink:href="#linearGradient9119-9"
       gradientUnits="userSpaceOnUse"
       gradientTransform="matrix(0.08901268,0,0,0.08554251,-2.3352882,-2.5593852)" />
    <radialGradient
       cx="146.25"
       cy="95.75"
       r="112.25"
       fx="146.25"
       fy="95.75"
       id="radialGradient4745"
       xlink:href="#linearGradient9349-8"
       gradientUnits="userSpaceOnUse"
       gradientTransform="matrix(0.23650809,-5.4067064e-8,0,0.00550641,-23.606636,3.9986533)" />
    <radialGradient
       cx="171.85692"
       cy="163.66652"
       r="106.11422"
       fx="171.85692"
       fy="163.66652"
       id="radialGradient4751"
       xlink:href="#linearGradient9127-5"
       gradientUnits="userSpaceOnUse"
       gradientTransform="matrix(0.15024797,-0.04420017,0.05635231,0.22705659,-21.95033,-17.200552)" />
    <radialGradient
       cx="77.988358"
       cy="99.142876"
       r="15"
       fx="77.988358"
       fy="99.142876"
       id="radialGradient4770"
       xlink:href="#linearGradient9739-9-4"
       gradientUnits="userSpaceOnUse"
       gradientTransform="matrix(0.24266078,0,0,0.08977489,-12.568343,-3.9927731)" />
    <radialGradient
       cx="171.25"
       cy="188.5"
       r="19"
       fx="171.25"
       fy="188.5"
       id="radialGradient4790"
       xlink:href="#linearGradient10695-6"
       gradientUnits="userSpaceOnUse"
       gradientTransform="matrix(1.263432,0,0,1.263432,-45.112728,-49.65693)" />
    <linearGradient
       x1="175.10832"
       y1="230.26801"
       x2="284.31732"
       y2="160.23564"
       id="linearGradient4794"
       xlink:href="#linearGradient9396-7-3"
       gradientUnits="userSpaceOnUse"
       gradientTransform="matrix(0.07339377,0,0,0.0735172,-0.47246657,-0.0131619)" />
    <linearGradient
       x1="181.95502"
       y1="224.42067"
       x2="249.37886"
       y2="185"
       id="linearGradient4796"
       xlink:href="#linearGradient9396-7-3"
       gradientUnits="userSpaceOnUse"
       gradientTransform="matrix(0.1062416,0,0,0.10235686,-6.7792488,-7.1060909)" />
    <linearGradient
       x1="311.12067"
       y1="57.490234"
       x2="311.12067"
       y2="62.195351"
       id="linearGradient4798"
       xlink:href="#linearGradient9349-8"
       gradientUnits="userSpaceOnUse"
       gradientTransform="matrix(0.76876906,0,0,0.48484839,-232.21177,-25.030292)" />
    <linearGradient
       x1="188.80269"
       y1="135.56474"
       x2="188.80269"
       y2="207.77724"
       id="linearGradient4800"
       xlink:href="#linearGradient11071-9"
       gradientUnits="userSpaceOnUse"
       gradientTransform="matrix(0.12299085,0,0,0.11937724,-10.210056,-10.477471)" />
    <linearGradient
       x1="1"
       y1="12.5"
       x2="23"
       y2="12.5"
       id="linearGradient5582"
       xlink:href="#linearGradient10169-6"
       gradientUnits="userSpaceOnUse"
       gradientTransform="translate(-1,-1)" />
    <linearGradient
       x1="59.3125"
       y1="103"
       x2="100.09394"
       y2="103"
       id="linearGradient5586"
       xlink:href="#linearGradient9843-7"
       gradientUnits="userSpaceOnUse"
       gradientTransform="matrix(0.17853503,0,0,0.13865211,-7.6286518,-8.6670133)" />
    <linearGradient
       x1="124.13738"
       y1="91.8125"
       x2="129.21875"
       y2="91.8125"
       id="linearGradient5606"
       xlink:href="#linearGradient9760-5"
       gradientUnits="userSpaceOnUse"
       gradientTransform="matrix(0.37570854,0,0,0.37156103,-30.734212,-30.790255)" />
    <linearGradient
       x1="126.42094"
       y1="92.375"
       x2="126.33946"
       y2="95.25"
       id="linearGradient5609"
       xlink:href="#linearGradient9786-0"
       gradientUnits="userSpaceOnUse"
       gradientTransform="matrix(0.37570854,0,0,0.37156103,-30.734212,-30.790255)" />
    <linearGradient
       x1="111.76712"
       y1="92.842941"
       x2="125.59375"
       y2="92.842941"
       id="linearGradient5627"
       xlink:href="#linearGradient9727-7"
       gradientUnits="userSpaceOnUse"
       gradientTransform="matrix(0.37570854,0,0,0.30973458,-30.922066,-24.512061)" />
    <radialGradient
       cx="79"
       cy="87.75"
       r="15"
       fx="79"
       fy="87.75"
       id="radialGradient5646"
       xlink:href="#linearGradient9119-9"
       gradientUnits="userSpaceOnUse"
       gradientTransform="matrix(0.17853503,0,0,0.0593878,-7.2025527,-1.5421244)" />
  </defs>
  <rect
     width="235"
     height="15"
     rx="16.518124"
     ry="18.043623"
     x="29"
     y="236"
     transform="matrix(0.08545701,0,0,0.05949902,-1.5194524,3.834334)"
     id="rect11477"
     style="opacity:0.8125;fill:black;fill-opacity:1;fill-rule:evenodd;stroke:none;stroke-width:1;marker:none;visibility:visible;display:inline;overflow:visible;filter:url(#filter9103-2);enable-background:accumulate" />
  <rect
     width="21"
     height="16"
     rx="1"
     ry="1"
     x="0.5"
     y="3.5"
     id="rect11481"
     style="fill:url(#radialGradient4751);fill-opacity:1;fill-rule:nonzero;stroke:url(#linearGradient5582);stroke-width:1;stroke-opacity:1;marker:none;visibility:visible;display:inline;overflow:visible;enable-background:new" />
  <rect
     width="19.983349"
     height="1.2361891"
     rx="1.2594562"
     ry="1.2455528"
     x="0.99099994"
     y="3.9077916"
     id="rect11485"
     style="opacity:0.32692339;fill:url(#radialGradient4745);fill-opacity:1;fill-rule:evenodd;stroke:none;stroke-width:1;marker:none;visibility:visible;display:inline;overflow:visible;enable-background:accumulate" />
  <path
     d="m 19.799711,11.607319 a 6.3955242,6.446371 0 0 1 -12.7910482,0 6.3955242,6.446371 0 1 1 12.7910482,0 z"
     id="path11489"
     style="opacity:0.60096154;fill:url(#linearGradient4800);fill-opacity:1;fill-rule:nonzero;stroke:none;stroke-width:0.86844039;marker:none;visibility:visible;display:inline;overflow:visible;enable-background:new" />
  <path
     d="m 21.102645,4.4057595 c 0,0 -0.364565,0.8202508 -0.662847,0.8202508 l -14.3396613,0 c -0.7512305,0.3937206 -1.5319206,0.3937206 -2.3420709,0 l -2.2315957,0 C 1.17295,5.2096037 0.95199998,4.5698104 0.95199998,4.5698104 c 0,0 0.27618752,0.2788858 0.75123012,0.2624792 l 1.9443608,0 c 0.8690702,0.7874413 1.9185829,0.7874413 2.6403532,0 l 14.0192819,0 c 0.541328,0.016407 0.795419,-0.4265301 0.795419,-0.4265301 l 0,0 z"
     id="path11501"
     style="fill:white;fill-opacity:1;fill-rule:nonzero;stroke:none;stroke-width:1;marker:none;visibility:visible;display:inline;overflow:visible;enable-background:new" />
  <path
     d="m 10.575109,4.0000054 a 4.0000016,1.4999998 0 0 1 -8.0000033,0 4.0000016,1.4999998 0 1 1 8.0000033,0 z"
     id="path11503"
     style="opacity:0.7;fill:none;stroke:url(#linearGradient4798);stroke-width:0.99999976;stroke-opacity:1;marker:none;visibility:visible;display:inline;overflow:visible;enable-background:new" />
  <g
     transform="matrix(0.1865861,0,0,0.18452635,-3.5677877,-18.814967)"
     id="g11505" />
  <rect
     width="15.755246"
     height="0.94631398"
     x="4.0736265"
     y="18.053694"
     id="rect11507"
     style="opacity:0.5;fill:url(#radialGradient4734);fill-opacity:1;fill-rule:evenodd;stroke:none;stroke-width:1;marker:none;visibility:visible;display:inline;overflow:visible;enable-background:accumulate" />
  <path
     d="m 19.143702,11.829928 a 5.5245634,5.5272706 0 0 1 -11.0491268,0 5.5245634,5.5272706 0 1 1 11.0491268,0 z"
     id="path11527"
     style="fill:url(#linearGradient4796);fill-opacity:1;fill-rule:evenodd;stroke:none;stroke-width:1;marker:none;visibility:visible;display:inline;overflow:visible;enable-background:accumulate" />
  <path
     d="m 13.619138,7.8807477 c -2.199997,0 -4.009639,2.0019664 -4.009639,4.4308083 0,0 -0.04537,1.071491 -0.04537,1.071491 0,2.456319 1.829964,4.422523 4.055007,4.422523 2.225042,0 4.055005,-1.966204 4.055005,-4.422523 0,0 -0.04537,-1.071491 -0.04537,-1.071491 0,-2.4288419 -1.809639,-4.4308083 -4.009639,-4.4308083 z"
     id="path11529"
     style="fill:url(#linearGradient4725);fill-opacity:1;fill-rule:evenodd;stroke:url(#linearGradient4727);stroke-width:0.99999988;stroke-miterlimit:4;stroke-opacity:1;stroke-dasharray:none;marker:none;visibility:visible;display:inline;overflow:visible;enable-background:accumulate" />
  <path
     d="m 17.435613,13.58752 a 3.816476,3.9699288 0 0 1 -7.632952,0 3.816476,3.9699288 0 1 1 7.632952,0 z"
     id="path11531"
     style="fill:url(#linearGradient4794);fill-opacity:1;fill-rule:evenodd;stroke:none;stroke-width:1.51115859;marker:none;visibility:visible;display:inline;overflow:visible;enable-background:accumulate" />
  <path
     d="m 16.481492,13.587517 a 2.8623566,2.9774461 0 0 1 -5.724713,0 2.8623566,2.9774461 0 1 1 5.724713,0 z"
     id="path11533"
     style="fill:#999;fill-opacity:1;fill-rule:evenodd;stroke:none;stroke-width:1;marker:none;visibility:visible;display:inline;overflow:visible;enable-background:accumulate" />
  <path
     d="m 11.489635,12.000004 4.417949,0 c 0.017,0 0.03068,0.01622 0.03068,0.03638 0.510336,1.301777 0.361607,3.021121 0,3.927235 0,0.02016 -0.01369,0.03638 -0.03068,0.03638 l -4.417949,0 c -0.01699,0 -0.03067,-0.01622 -0.03067,-0.03638 -0.515842,-1.110325 -0.50776,-2.896528 0,-3.927235 0,-0.02015 0.01368,-0.03638 0.03067,-0.03638 z"
     id="path11535"
     style="fill:url(#linearGradient4720);fill-opacity:1;fill-rule:nonzero;stroke:none;stroke-width:1;marker:none;visibility:visible;display:inline;overflow:visible;enable-background:new" />
  <path
     d="m 11.619716,12.000004 3.854284,0 c 0.01484,0 0.02677,0.01212 0.02677,0.0272 0.445225,0.973246 0.315471,2.258672 0,2.936115 0,0.01506 -0.01194,0.0272 -0.02677,0.0272 l -3.854284,0 c -0.01483,0 -0.02676,-0.01212 -0.02676,-0.0272 -0.450027,-0.830113 -0.442976,-2.16553 0,-2.936115 0,-0.01506 0.01193,-0.0272 0.02676,-0.0272 l 0,0 z"
     id="path11537"
     style="fill:black;fill-opacity:1;fill-rule:nonzero;stroke:none;stroke-width:1;marker:none;visibility:visible;display:inline;overflow:visible;enable-background:new" />
  <path
     d="M 9.852578,15.502397 A 5.0667309,5.2122724 0 0 1 17.610423,8.7957033 5.0667309,5.2122724 0 1 1 9.852578,15.502397 z"
     id="path11539"
     style="fill:none;stroke:none;stroke-width:1.07430112;marker:none;visibility:visible;display:inline;overflow:visible;enable-background:new" />
  <g
     transform="matrix(0.50812339,0,0,0.50459182,-1.1880811,-80.520003)"
     id="g11541" />
  <path
     d="m 19.878027,7.0135494 a 1.135532,1.1681501 0 0 1 -2.271064,0 1.135532,1.1681501 0 1 1 2.271064,0 z"
     id="path11549"
     style="fill:#555;fill-opacity:1;fill-rule:nonzero;stroke:none;stroke-width:1;marker:none;visibility:visible;display:inline;overflow:visible;enable-background:new" />
  <path
     d="m 19.878027,6.8466704 a 1.135532,1.1681501 0 0 1 -2.271064,0 1.135532,1.1681501 0 1 1 2.271064,0 z"
     id="path11551"
     style="fill:black;fill-opacity:1;fill-rule:nonzero;stroke:none;stroke-width:1;marker:none;visibility:visible;display:inline;overflow:visible;enable-background:new" />
  <path
     d="m 18.742495,6.0644271 c -0.421031,0 -0.760401,0.3491183 -0.760401,0.7822433 0,0.067242 0.0099,0.1306543 0.02535,0.1929534 0.05649,-0.2320246 0.210046,-0.4227869 0.415686,-0.5214956 -0.0082,0.029723 -0.0152,0.061456 -0.0152,0.093869 0,0.1888632 0.150987,0.3389722 0.334577,0.3389722 0.183589,0 0.334576,-0.150109 0.334576,-0.3389722 0,-0.032413 -0.007,-0.064146 -0.0152,-0.093869 0.20564,0.098709 0.359193,0.289471 0.415686,0.5214956 0.01549,-0.062299 0.02535,-0.1257113 0.02535,-0.1929534 0,-0.433125 -0.33937,-0.7822433 -0.760401,-0.7822433 l -1.6e-5,0 z"
     id="path11553"
     style="fill:#828282;fill-opacity:1;fill-rule:nonzero;stroke:none;stroke-width:1;marker:none;visibility:visible;display:inline;overflow:visible;enable-background:new" />
  <g
     transform="matrix(0.09381064,0,0,0.09919436,-9.3385928,-27.413978)"
     clip-path="url(#clipPath10731-4)"
     id="g11558">
    <path
       d="m 200,201 a 19,19 0 1 1 -38,0 19,19 0 1 1 38,0 z"
       transform="translate(62.194154,210.14054)"
       id="path11570"
       style="fill:url(#radialGradient4790);fill-opacity:1;fill-rule:evenodd;stroke:none;stroke-width:0.94462639;marker:none;visibility:visible;display:inline;overflow:visible;enable-background:accumulate" />
  </g>
  <rect
     width="1.047507"
     height="11.949829"
     rx="5.0301938"
     ry="1.9545221"
     x="-2.0000005"
     y="4.8234835"
     transform="scale(-1,1)"
     id="rect11572"
     style="opacity:0.5;fill:url(#radialGradient4698);fill-opacity:1;stroke:none;stroke-width:2;marker:none;visibility:visible;display:inline;overflow:visible;enable-background:new" />
  <rect
     width="1"
     height="11.949829"
     rx="1.5360204"
     ry="1.9545221"
     x="-21.0751"
     y="4.8234835"
     transform="scale(-1,1)"
     id="rect11574"
     style="opacity:0.5;fill:url(#radialGradient4695);fill-opacity:1;stroke:none;stroke-width:2;marker:none;visibility:visible;display:inline;overflow:visible;enable-background:new" />
  <path
     d="m 14.485758,6.8882658 a 4.8125939,5.1780872 0 0 1 4.125549,5.5569872"
     id="path11584"
     style="opacity:0.57692309;fill:none;stroke:#2e3436;stroke-width:0.99999982;stroke-opacity:1;marker:none;visibility:visible;display:inline;overflow:visible;enable-background:new" />
  <path
     d="m 10.24177,4.2216298 a 3.6399117,1.3466234 0 0 1 -7.2798231,0 3.6399117,1.3466234 0 1 1 7.2798231,0 z"
     id="path11616"
     style="fill:url(#radialGradient4770);fill-opacity:1;fill-rule:nonzero;stroke:none;stroke-width:0.67771512;marker:none;visibility:visible;display:inline;overflow:visible;enable-background:new" />
  <path
     d="m 9.57974,3.8918593 a 2.6780255,0.890817 0 0 1 -5.3560508,0 2.6780255,0.890817 0 1 1 5.3560508,0 z"
     id="path11618"
     style="opacity:0.8;fill:url(#radialGradient5646);fill-opacity:1;fill-rule:nonzero;stroke:none;stroke-width:1;marker:none;visibility:visible;display:inline;overflow:visible;enable-background:new" />
  <path
     d="m 3.0053409,3.9069999 c -0.028529,0.083976 -0.044634,0.1680213 -0.044634,0.2556399 0,0.5916865 0.7919415,1.126685 1.5827812,1.3568738 0.9707378,0.703409 3.2941795,0.5851803 4.2786095,-0.035143 0.7386184,-0.2612322 1.4194914,-0.7843555 1.4194914,-1.3217307 0,-0.087578 -0.01055,-0.171699 -0.03905,-0.2556399 -0.2064,0.5983144 -1.112678,1.0881755 -2.3209554,1.295531 l 0,-0.00435 C 7.3178929,4.9262689 5.8241084,4.913712 5.3597716,5.2155298 l 0,-0.00435 C 4.1346821,5.0072543 3.2138166,4.510793 3.0053409,3.9069999 z"
     id="path11626"
     style="fill:url(#linearGradient5586);fill-opacity:1;fill-rule:nonzero;stroke:none;stroke-width:1;marker:none;visibility:visible;display:inline;overflow:visible;enable-background:new" />
  <rect
     width="6.732142"
     height="2.3696332"
     rx="1.0571589"
     ry="1.0571589"
     x="11.080616"
     y="2.6265488"
     id="rect11644"
     style="fill:url(#linearGradient5609);fill-opacity:1;fill-rule:nonzero;stroke:none;stroke-width:1;marker:none;visibility:visible;display:inline;overflow:visible;enable-background:new" />
  <path
     d="m 12.284418,2.6270148 c -0.663714,0 -1.209312,0.5279622 -1.209312,1.1843505 0,0.070562 0.02337,0.1418963 0.03519,0.2090031 0.09329,-0.3976314 0.577381,-0.696677 1.174088,-0.696677 l 4.332387,0 c 0.597055,0 1.081213,0.2987015 1.174092,0.696677 0.01178,-0.066991 0.02349,-0.1385704 0.02349,-0.2090031 0,-0.6563883 -0.533856,-1.1843505 -1.19757,-1.1843505 l -4.332387,0 2.5e-5,0 z"
     id="path11646"
     style="fill:url(#linearGradient5606);fill-opacity:1;fill-rule:nonzero;stroke:none;stroke-width:1;marker:none;visibility:visible;display:inline;overflow:visible;enable-background:new" />
  <path
     d="m 13.646359,2.000006 c -0.37726,0 -0.680971,0.2794521 -0.680971,0.6258991 0,0.1511284 -0.2583,0.1726618 -0.2583,0.1726618 l -0.422672,0 c -0.663716,0 -1.209312,0.4576978 -1.209312,1.0251795 l 0,0.1510791 c 0,0.5674818 0.545596,1.0251796 1.209312,1.0251796 l 2.782591,0 c 0.663716,0 1.197571,-0.4576978 1.197571,-1.0251796 l 0,-0.1510791 c 0,-0.5674817 -0.533855,-1.0251795 -1.197571,-1.0251795 l -0.387449,0 c 0,0 -0.352227,0 -0.352227,-0.1726618 0,-0.3467481 -0.303711,-0.6258991 -0.680972,-0.6258991 z"
     id="path11650"
     style="fill:url(#linearGradient5627);fill-opacity:1;fill-rule:nonzero;stroke:none;stroke-width:1;marker:none;visibility:visible;display:inline;overflow:visible;enable-background:new" />
  <rect
     width="0.51659924"
     height="1.6834527"
     rx="0.12827794"
     ry="0.11790365"
     x="13.129755"
     y="2.1726677"
     id="rect11660"
     style="fill:white;fill-opacity:1;fill-rule:nonzero;stroke:none;stroke-width:1.5;marker:none;visibility:visible;display:inline;overflow:visible;enable-background:new" />
  <path
     d="m 111.9375,94.956496 c 0,0 0.31125,1.4375 1.875,1.4375 l 8.0625,0 c 1.4375,0 2.5,-1.3125 2.5,-1.3125 0,0 -1.625,1.125 -2.5625,1 l -2,0 c -0.875,0 -0.5625,-2.6875 -1.5,-2.75 l -1.0625,0 c -0.75,0.125 -0.5,2.625 -1.4375,2.5625 l -2,0 c -1,0.0625 -1.875,-0.9375 -1.875,-0.9375 z"
     transform="matrix(0.37570854,0,0,0.34532364,-30.434356,-28.282201)"
     clip-path="url(#clipPath9796-2)"
     id="path11664"
     style="fill:#191919;fill-opacity:1;fill-rule:nonzero;stroke:none;stroke-width:1;marker:none;visibility:visible;display:inline;overflow:visible;filter:url(#filter9723-0);enable-background:new" />
</svg>
