<svg width="22" height="22" viewBox="0 0 5.821 5.821" xmlns:xlink="http://www.w3.org/1999/xlink" xmlns="http://www.w3.org/2000/svg"><defs><linearGradient id="a"><stop offset="0" style="stop-color:#3689e6;stop-opacity:1"/><stop offset="1" style="stop-color:#64baff;stop-opacity:1"/></linearGradient><linearGradient id="c"><stop offset="0" style="stop-color:#f9f9f9;stop-opacity:1"/><stop offset="1" style="stop-color:#d8d8d8;stop-opacity:1"/></linearGradient><linearGradient id="b"><stop offset="0" style="stop-color:#efdfc4;stop-opacity:1"/><stop offset="1" style="stop-color:#e7c591;stop-opacity:1"/></linearGradient><linearGradient id="d"><stop style="stop-color:#fff;stop-opacity:1" offset="0"/><stop style="stop-color:#fff;stop-opacity:0" offset="1"/></linearGradient><linearGradient xlink:href="#d" id="f" gradientUnits="userSpaceOnUse" gradientTransform="matrix(.09616 0 0 .10983 -281.078 -14.99)" x1="45.962" y1="1024.128" x2="46.429" y2="1042.795"/><linearGradient id="e"><stop offset="0" style="stop-color:#9bdb4d;stop-opacity:1"/><stop offset="1" style="stop-color:#68b723;stop-opacity:1"/></linearGradient></defs><g transform="translate(0 -291.18)"><path style="fill:#ffe16b;fill-opacity:1;stroke:none;stroke-width:.264583;stroke-linejoin:round;stroke-miterlimit:4;stroke-dasharray:none;stroke-opacity:0" d="m2.701 291.695 1.587.425-.566 2.993-2.098-.562z"/><path style="fill:#000;fill-opacity:1;stroke:none;stroke-width:.999999;stroke-linejoin:round;stroke-miterlimit:4;stroke-dasharray:none;stroke-opacity:0;opacity:.15007589" d="m14.71 3.156-2.444 11.23 1.8.483 2.14-11.312-1.495-.4z" transform="translate(0 291.18) scale(.26458)"/><rect style="fill:url(#f);fill-opacity:1;stroke:none;stroke-width:.123723;stroke-linecap:round;stroke-linejoin:round;stroke-miterlimit:4;stroke-dasharray:none;stroke-opacity:1" width="2.876" height=".483" x="-278.216" y="98.023" rx=".129" ry=".103" transform="rotate(-70.943) skewX(.129)"/><path style="fill:#f9c440;fill-opacity:1;stroke:none;stroke-width:.264583;stroke-linejoin:round;stroke-miterlimit:4;stroke-dasharray:none;stroke-opacity:0" d="m2.89 295.834-.919-.246-.147.549-.14.52 1.058-.274z"/><path d="m2.59 296.159-.438-.118-.07.262-.108.404.546-.286z" style="fill:#000;fill-opacity:0;stroke:none;stroke-width:.264583;stroke-linejoin:round;stroke-miterlimit:4;stroke-dasharray:none;stroke-opacity:0"/><path d="m2.89 295.834-.919-.246-.147.549-.14.52 1.058-.274z" style="fill:none;fill-opacity:1;stroke:#ad5f00;stroke-width:.264583;stroke-linejoin:round;stroke-miterlimit:4;stroke-dasharray:none;stroke-opacity:1"/><path style="fill:#273445;fill-opacity:1;stroke:none;stroke-width:.265;stroke-linecap:round;stroke-linejoin:round;stroke-miterlimit:4;stroke-dasharray:none;stroke-opacity:1" d="M1.624 294.551c.199.571.24.733.347 1.037l.918.246c.245-.21.558-.482.833-.72l-1.012-.272-.085-.023-1.001-.268z"/><path d="m2.701 291.695 1.587.425-.566 2.993-2.098-.562z" style="fill:none;fill-opacity:1;stroke:#ad5f00;stroke-width:.264583;stroke-linejoin:round;stroke-miterlimit:4;stroke-dasharray:none;stroke-opacity:1"/><path d="M1.624 294.551c.199.571.24.733.347 1.037l.918.246c.245-.21.558-.482.833-.72l-1.012-.272-.085-.023-1.001-.268z" style="fill:none;fill-opacity:1;stroke:#0e141f;stroke-width:.265;stroke-linecap:round;stroke-linejoin:round;stroke-miterlimit:4;stroke-dasharray:none;stroke-opacity:1"/></g></svg>