<svg viewBox="0 0 5.821 5.821" height="22" width="22" xmlns="http://www.w3.org/2000/svg"><defs><linearGradient id="b"><stop style="stop-color:#c6f27b;stop-opacity:1" offset="0"/><stop style="stop-color:#93d049;stop-opacity:1" offset="1"/></linearGradient><linearGradient id="a"><stop style="stop-color:#c396eb;stop-opacity:1" offset="0"/><stop style="stop-color:#9d68d7;stop-opacity:1" offset="1"/></linearGradient></defs><path transform="matrix(.00039 .06635 -.06634 .00039 -.201 5.599)" style="fill:#9bdb4d;fill-opacity:1;fill-rule:evenodd;stroke:none;stroke-width:21.8236;stroke-linecap:round;stroke-linejoin:round;stroke-miterlimit:4;stroke-dasharray:none;stroke-dashoffset:0;stroke-opacity:1;paint-order:markers fill stroke" d="M-13.695-41.683c-1.405 2.435-45.446 2.435-46.852 0-1.405-2.434 20.615-40.575 23.426-40.575s24.832 38.14 23.426 40.575z"/><path style="fill:none;fill-opacity:1;fill-rule:evenodd;stroke:#3a9104;stroke-width:3.98794;stroke-linecap:round;stroke-linejoin:round;stroke-miterlimit:4;stroke-dasharray:none;stroke-dashoffset:0;stroke-opacity:1;paint-order:markers fill stroke" transform="matrix(.00039 .06635 -.06634 .00039 -.201 5.599)" d="M-13.695-41.683c-1.405 2.435-45.446 2.435-46.852 0-1.405-2.434 20.615-40.575 23.426-40.575s24.832 38.14 23.426 40.575z"/><path style="fill:#d1ff82;fill-opacity:1;fill-rule:evenodd;stroke:none;stroke-width:1.44791;stroke-linecap:round;stroke-linejoin:round;stroke-miterlimit:4;stroke-dasharray:none;stroke-dashoffset:0;stroke-opacity:1;paint-order:markers fill stroke" d="M78.306 207.323c-.027-.005-.047-.005-.057 0-.083.049-.118.847-.11 1.624.001-.695.036-1.348.11-1.392.142-.083 2.133 1.032 2.601 1.424.063-.054.1-.095.1-.117-.001-.175-2.233-1.457-2.644-1.539z" transform="translate(-75.709 -205.758)"/><path style="fill:#68b723;fill-opacity:1;fill-rule:evenodd;stroke:none;stroke-width:1.44791;stroke-linecap:round;stroke-linejoin:round;stroke-miterlimit:4;stroke-dasharray:none;stroke-dashoffset:0;stroke-opacity:1;paint-order:markers fill stroke" d="M78.139 208.725c-.002.802.042 1.658.129 1.707.162.093 2.683-1.384 2.682-1.57 0-.02-.036-.06-.093-.108-.448.391-2.446 1.542-2.59 1.46-.078-.045-.122-.758-.128-1.49z" transform="translate(-75.709 -205.758)"/><path style="line-height:normal;font-family:'Bitstream Vera Sans';-inkscape-font-specification:'Bitstream Vera Sans';text-indent:0;text-align:start;text-transform:none;overflow:visible;fill:#fff;fill-opacity:1;stroke:none;stroke-width:.206444;stroke-opacity:1;enable-background:accumulate" d="M76.39 206.142a.102.102 0 0 0-.102.102.102.102 0 0 0 0 .01.114.114 0 0 0 0 .003.114.114 0 0 0 0 .01.114.114 0 0 0 0 .004.114.114 0 0 0 0 .004.114.114 0 0 0 0 .018v3.757a.114.114 0 0 0 .193.083l.829-.78.668 1.545a.114.114 0 0 0 .153.057l.5-.229a.114.114 0 0 0 .057-.15l-.696-1.523 1.164-.1a.114.114 0 0 0 .068-.2L76.5 206.21a.114.114 0 0 0-.018-.018.114.114 0 0 0-.007-.008.102.102 0 0 0-.083-.042z" transform="translate(-75.709 -205.758)"/><path d="M76.39 206.142a.102.102 0 0 0-.102.102.102.102 0 0 0 0 .01.114.114 0 0 0 0 .003.114.114 0 0 0 0 .01.114.114 0 0 0 0 .004.114.114 0 0 0 0 .004.114.114 0 0 0 0 .018v3.757a.114.114 0 0 0 .193.083l.829-.78.668 1.545a.114.114 0 0 0 .153.057l.5-.229a.114.114 0 0 0 .057-.15l-.696-1.523 1.164-.1a.114.114 0 0 0 .068-.2L76.5 206.21a.114.114 0 0 0-.018-.018.114.114 0 0 0-.007-.008.102.102 0 0 0-.083-.042z" style="line-height:normal;font-family:'Bitstream Vera Sans';-inkscape-font-specification:'Bitstream Vera Sans';text-indent:0;text-align:start;text-transform:none;overflow:visible;fill:none;fill-opacity:1;stroke:#000;stroke-width:.264583;stroke-miterlimit:4;stroke-dasharray:none;stroke-opacity:1;enable-background:accumulate" transform="translate(-75.709 -205.758)"/><path style="line-height:normal;font-family:'Bitstream Vera Sans';-inkscape-font-specification:'Bitstream Vera Sans';text-indent:0;text-align:start;text-transform:none;overflow:visible;fill:#d4d4d4;fill-opacity:1;stroke:none;stroke-width:.206444;stroke-opacity:1;enable-background:accumulate" d="M76.39 206.142a.102.102 0 0 0-.102.102.102.102 0 0 0 0 .01.114.114 0 0 0 0 .003.114.114 0 0 0 0 .01.114.114 0 0 0 0 .004.114.114 0 0 0 0 .004.114.114 0 0 0 0 .018v.234a.102.102 0 0 1 .103-.102.102.102 0 0 1 .082.043.114.114 0 0 1 .008.008.114.114 0 0 1 .018.018l2.638 2.46.02-.001a.114.114 0 0 0 .067-.2l-2.725-2.542a.114.114 0 0 0-.018-.018.114.114 0 0 0-.007-.008.102.102 0 0 0-.083-.043zm-.102.385v.012a.114.114 0 0 1 0-.003.102.102 0 0 1 0-.01zm1.829 2.798-.125.01.636 1.392h.003a.114.114 0 0 0 .057-.15z" transform="translate(-75.709 -205.758)"/><path style="line-height:normal;font-family:'Bitstream Vera Sans';-inkscape-font-specification:'Bitstream Vera Sans';text-indent:0;text-align:start;text-transform:none;overflow:visible;fill:#555761;fill-opacity:1;stroke:none;stroke-width:.206444;stroke-opacity:1;enable-background:accumulate" d="M76.288 206.275a.114.114 0 0 0 0 .018zm2.937 2.478a.114.114 0 0 1-.069.03l-1.164.1.075.163 1.09-.094a.114.114 0 0 0 .068-.199zm-1.915.43-.829.78a.114.114 0 0 1-.193-.083v.17a.114.114 0 0 0 .193.083l.829-.78.668 1.545a.114.114 0 0 0 .153.057l.5-.23a.114.114 0 0 0 .057-.149l-.021-.046a.114.114 0 0 1-.036.026l-.5.229a.114.114 0 0 1-.153-.057z" transform="translate(-75.709 -205.758)"/></svg>