<svg xmlns="http://www.w3.org/2000/svg" xmlns:xlink="http://www.w3.org/1999/xlink" width="24" height="24" fill="none" stroke="currentColor" stroke-linecap="round" stroke-linejoin="round" stroke-width="2"><defs><linearGradient id="a"><stop offset=".424" style="stop-color:#f25151;stop-opacity:1"/><stop offset=".926" style="stop-color:#f47373;stop-opacity:0"/></linearGradient><linearGradient xlink:href="#a" id="b" x1="20.153" x2="2.547" y1="16.855" y2="2.855" gradientUnits="userSpaceOnUse"/><clipPath id="c"><path d="M0 0v13.127A8 8 0 0 1 7 9a8 8 0 0 1 8 8 8 8 0 0 1-4.127 7H24V0z"/></clipPath></defs><path d="M19.97 16.941c-9.825-.607-1.757-4.112.01-7.62 1.5-2.976-12.743 5.363-14.51 4.149-2.212-1.52 6.381-6.177 6.117-9.442-.136-1.68-6.676-1.558-8.117-.411" style="fill:none;fill-opacity:1;stroke:url(#b);stroke-width:2.6;stroke-linecap:round;stroke-linejoin:miter;stroke-dasharray:none;stroke-opacity:1;clip-path:url(#c)"/><circle cx="7" cy="17" r="6" style="fill:none;stroke:#f9f9f9;stroke-width:2px;stroke-opacity:1"/><path d="m10 20-3-3v-2.3" style="fill:none;stroke:#f9f9f9;stroke-width:1.5px;stroke-linecap:round;stroke-linejoin:miter;stroke-opacity:1"/></svg>