<svg viewBox="0 0 5.821 5.821" height="22" width="22" xmlns:xlink="http://www.w3.org/1999/xlink" xmlns="http://www.w3.org/2000/svg"><defs><linearGradient id="j"><stop style="stop-color:#3689e6;stop-opacity:1" offset="0"/><stop style="stop-color:#64baff;stop-opacity:1" offset="1"/></linearGradient><linearGradient xlink:href="#j" id="a" gradientUnits="userSpaceOnUse" x1="13.013" y1="19.627" x2="13.071" y2="-2.197"/><linearGradient xlink:href="#j" id="b" x1="15.897" y1="20.63" x2="15.94" y2="0" gradientUnits="userSpaceOnUse"/><linearGradient id="z"><stop offset="0" style="stop-color:#f9c440;stop-opacity:1"/><stop offset="1" style="stop-color:#ffe16b;stop-opacity:1"/></linearGradient><linearGradient id="u"><stop style="stop-color:#c6f27b;stop-opacity:1" offset="0"/><stop style="stop-color:#93d049;stop-opacity:1" offset="1"/></linearGradient><linearGradient id="t"><stop style="stop-color:#c396eb;stop-opacity:1" offset="0"/><stop style="stop-color:#9d68d7;stop-opacity:1" offset="1"/></linearGradient><linearGradient id="f"><stop offset="0" style="stop-color:#cdf87e;stop-opacity:1"/><stop offset=".262" style="stop-color:#a2e34f;stop-opacity:1"/><stop offset=".661" style="stop-color:#68b723;stop-opacity:1"/><stop offset="1" style="stop-color:#1d7e0d;stop-opacity:1"/></linearGradient><linearGradient id="k"><stop style="stop-color:#fff;stop-opacity:1" offset="0"/><stop style="stop-color:#fff;stop-opacity:.23529412" offset=".002"/><stop style="stop-color:#fff;stop-opacity:.15686275" offset=".392"/><stop style="stop-color:#fff;stop-opacity:.39215687" offset="1"/></linearGradient><linearGradient id="l"><stop offset="0" style="stop-color:#000;stop-opacity:0"/><stop offset=".5" style="stop-color:#000;stop-opacity:1"/><stop offset="1" style="stop-color:#000;stop-opacity:0"/></linearGradient><linearGradient id="g"><stop offset="0" style="stop-color:#000;stop-opacity:1"/><stop offset="1" style="stop-color:#000;stop-opacity:0"/></linearGradient><linearGradient id="m"><stop offset="0" style="stop-color:#f4f4f4;stop-opacity:1"/><stop offset="1" style="stop-color:#dbdbdb;stop-opacity:1"/></linearGradient><linearGradient id="n"><stop style="stop-color:#fff;stop-opacity:1" offset="0"/><stop style="stop-color:#fff;stop-opacity:.23529412" offset="0"/><stop style="stop-color:#fff;stop-opacity:.15686275" offset="1"/><stop style="stop-color:#fff;stop-opacity:.39215687" offset="1"/></linearGradient><linearGradient id="o"><stop style="stop-color:#000;stop-opacity:.31782946" offset="0"/><stop style="stop-color:#000;stop-opacity:.24031007" offset="1"/></linearGradient><linearGradient id="p"><stop style="stop-color:#ffa154;stop-opacity:1" offset="0"/><stop style="stop-color:#cc3b02;stop-opacity:1" offset="1"/></linearGradient><linearGradient id="s"><stop offset="0" style="stop-color:#93d049;stop-opacity:1"/><stop offset="1" style="stop-color:#378a04;stop-opacity:1"/></linearGradient><linearGradient id="q"><stop style="stop-color:#fff;stop-opacity:1" offset="0"/><stop style="stop-color:#fff;stop-opacity:.23529412" offset=".063"/><stop style="stop-color:#fff;stop-opacity:.15686275" offset=".951"/><stop style="stop-color:#fff;stop-opacity:.39215687" offset="1"/></linearGradient><linearGradient id="h"><stop style="stop-color:#181818;stop-opacity:1" offset="0"/><stop style="stop-color:#181818;stop-opacity:0" offset="1"/></linearGradient><linearGradient id="r"><stop style="stop-color:#181818;stop-opacity:0" offset="0"/><stop style="stop-color:#181818;stop-opacity:1" offset=".5"/><stop style="stop-color:#181818;stop-opacity:0" offset="1"/></linearGradient><linearGradient xlink:href="#t" id="A" gradientUnits="userSpaceOnUse" x1="61.558" y1="194.856" x2="176.621" y2="55.669"/><linearGradient xlink:href="#u" id="B" gradientUnits="userSpaceOnUse" x1="128.265" y1="22.77" x2="133.458" y2="228.819"/><linearGradient id="v"><stop style="stop-color:#fff;stop-opacity:1" offset="0"/><stop style="stop-color:#fff;stop-opacity:.23529412" offset=".063"/><stop style="stop-color:#fff;stop-opacity:.15686275" offset=".951"/><stop style="stop-color:#fff;stop-opacity:.39215687" offset="1"/></linearGradient><linearGradient id="w"><stop offset="0" style="stop-color:#f282f1;stop-opacity:1"/><stop offset="1" style="stop-color:#a56de2;stop-opacity:1"/></linearGradient><linearGradient id="x"><stop style="stop-color:#770087;stop-opacity:1" offset="0"/><stop style="stop-color:#452981;stop-opacity:1" offset="1"/></linearGradient><linearGradient id="y"><stop style="stop-color:#a00" offset="0"/><stop style="stop-color:#a00;stop-opacity:0" offset="1"/></linearGradient><linearGradient id="i"><stop offset="0" style="stop-color:#737373;stop-opacity:1"/><stop offset=".262" style="stop-color:#636363;stop-opacity:1"/><stop offset=".705" style="stop-color:#4b4b4b;stop-opacity:1"/><stop offset="1" style="stop-color:#3f3f3f;stop-opacity:1"/></linearGradient><linearGradient xlink:href="#z" id="C" gradientUnits="userSpaceOnUse" gradientTransform="rotate(.427 178009.919 491.325) scale(4.53811)" x1="2.7" y1="296.505" x2="2.69" y2="291.933"/><linearGradient xlink:href="#z" id="c" gradientUnits="userSpaceOnUse" gradientTransform="translate(-.37 -59.002) scale(1.2007)" x1="2.7" y1="296.505" x2="2.69" y2="291.933"/><linearGradient xlink:href="#z" id="d" gradientUnits="userSpaceOnUse" gradientTransform="translate(-.37 -59.002) scale(1.2007)" x1="2.7" y1="296.505" x2="2.69" y2="291.933"/><linearGradient xlink:href="#z" id="e" gradientUnits="userSpaceOnUse" gradientTransform="rotate(.427 178009.919 491.325) scale(4.53811)" x1="2.7" y1="296.505" x2="2.69" y2="291.933"/><clipPath clipPathUnits="userSpaceOnUse" id="D"><path style="fill:url(#d);fill-opacity:1;stroke-width:.264583;stroke-linecap:round;stroke-linejoin:round;stroke-miterlimit:4;stroke-dasharray:none;paint-order:stroke markers fill;stop-color:#000" d="M4.517 296.709c-.082.06-1.487-.59-1.59-.59-.1 0-1.497.672-1.58.613-.082-.06.102-1.597.07-1.694-.032-.096-1.102-1.217-1.071-1.314.03-.097 1.55-.397 1.632-.457.082-.06.817-1.424.919-1.425.102 0 .856 1.352.94 1.412.082.059 1.606.336 1.638.433.032.096-1.021 1.232-1.052 1.33-.03.096.176 1.631.094 1.692z"/></clipPath><clipPath clipPathUnits="userSpaceOnUse" id="E"><path style="fill:url(#e);fill-opacity:1;stroke-width:.264583;stroke-linecap:round;stroke-linejoin:round;stroke-miterlimit:4;stroke-dasharray:none;paint-order:stroke markers fill;stop-color:#000" d="M11.086 2.035c-.384 0-3.2 5.132-3.512 5.358-.31.225-6.063 1.316-6.181 1.681-.12.366 3.89 4.63 4.01 4.996.118.366-.622 6.173-.311 6.399.31.226 5.608-2.27 5.992-2.27.384 0 5.677 2.5 5.988 2.274.311-.226-.425-6.035-.306-6.4.118-.366 4.13-4.63 4.011-4.995-.05-.156-1.179-.449-2.422-.746l-5.214 6.824a1.5 1.5 0 0 1-.584.46l-3.53 1.564a1.5 1.5 0 0 1-2.088-1.602l.59-3.824a1.5 1.5 0 0 1 .29-.68l4.994-6.537c-.77-1.276-1.54-2.502-1.727-2.502z"/></clipPath></defs><g transform="translate(0 -291.18)"><path style="fill:url(#C);fill-opacity:1;stroke-width:.999999;stroke-linecap:round;stroke-linejoin:round;stroke-miterlimit:4;stroke-dasharray:none;paint-order:stroke markers fill;stop-color:#000" d="M11.086 2.035c-.384 0-3.2 5.132-3.512 5.358-.31.225-6.063 1.316-6.181 1.681-.12.366 3.89 4.63 4.01 4.996.118.366-.622 6.173-.311 6.399.31.226 5.608-2.27 5.992-2.27.384 0 5.677 2.5 5.988 2.274.311-.226-.425-6.035-.306-6.4.118-.366 4.13-4.63 4.011-4.995-.05-.156-1.179-.449-2.422-.746l-5.214 6.824a1.5 1.5 0 0 1-.584.46l-3.53 1.564a1.5 1.5 0 0 1-2.088-1.602l.59-3.824a1.5 1.5 0 0 1 .29-.68l4.994-6.537c-.77-1.276-1.54-2.502-1.727-2.502z" transform="translate(0 291.18) scale(.26458)"/><path style="fill:none;fill-opacity:1;stroke:#d48e15;stroke-width:.79375;stroke-linecap:round;stroke-linejoin:round;stroke-miterlimit:4;stroke-dasharray:none;paint-order:stroke markers fill;stop-color:#000" d="M5.475 293.687c.032.096-1.021 1.232-1.052 1.33-.03.096.176 1.631.094 1.692-.082.06-1.487-.59-1.59-.59-.1 0-1.497.672-1.58.613-.082-.06.102-1.597.07-1.694-.032-.096-1.102-1.217-1.071-1.314" transform="rotate(.426 19.715 296.667)" clip-path="url(#D)"/><path style="color:#000;font-style:normal;font-variant:normal;font-weight:400;font-stretch:normal;font-size:medium;line-height:normal;font-family:sans-serif;font-variant-ligatures:normal;font-variant-position:normal;font-variant-caps:normal;font-variant-numeric:normal;font-variant-alternates:normal;font-variant-east-asian:normal;font-feature-settings:normal;font-variation-settings:normal;text-indent:0;text-align:start;text-decoration:none;text-decoration-line:none;text-decoration-style:solid;text-decoration-color:#000;letter-spacing:normal;word-spacing:normal;text-transform:none;writing-mode:lr-tb;direction:ltr;text-orientation:mixed;dominant-baseline:auto;baseline-shift:baseline;text-anchor:start;white-space:normal;shape-padding:0;shape-margin:0;inline-size:0;clip-rule:nonzero;display:inline;overflow:visible;visibility:visible;opacity:1;isolation:auto;mix-blend-mode:normal;color-interpolation:sRGB;color-interpolation-filters:linearRGB;solid-color:#000;solid-opacity:1;vector-effect:none;fill:#ffe16b;fill-opacity:1;fill-rule:nonzero;stroke:none;stroke-width:3.77953;stroke-linecap:round;stroke-linejoin:round;stroke-miterlimit:4;stroke-dasharray:none;stroke-dashoffset:0;stroke-opacity:1;paint-order:stroke markers fill;color-rendering:auto;image-rendering:auto;shape-rendering:auto;text-rendering:auto;enable-background:accumulate;stop-color:#000;stop-opacity:1" d="M11.088.533c-.859 0-.962.316-1.104.444-.14.127-.227.23-.312.336a9.03 9.03 0 0 0-.498.697c-.35.525-.76 1.184-1.158 1.845-.4.662-.787 1.325-1.092 1.823-.113.184-.197.308-.278.433-.144.038-.291.08-.501.13-.568.135-1.318.303-2.07.478-.754.175-1.508.353-2.116.523-.304.085-.57.17-.822.268a2.581 2.581 0 0 0-.407.19c-.164.094-.501.09-.767.907a1.5 1.5 0 0 0 .967 1.899 1.5 1.5 0 0 0 1.33-.213 7.8 7.8 0 0 1 .511-.158 50.16 50.16 0 0 1 1.983-.494c.739-.172 1.49-.335 2.092-.479.3-.072.563-.14.785-.201.11-.03.208-.064.316-.102.108-.037.156 0 .504-.254a1.5 1.5 0 0 0 .008 0c.348-.252.326-.313.395-.404.068-.091.13-.175.193-.271.127-.192.272-.42.433-.684.323-.528.716-1.194 1.108-1.844.18-.299.329-.516.5-.793.17.276.316.495.496.793l.25.416 1.844-2.414a1.5 1.5 0 0 1 .115-.13c-.271-.444-.55-.904-.79-1.264a9.01 9.01 0 0 0-.503-.697c-.085-.106-.165-.21-.307-.336-.14-.128-.247-.444-1.105-.444zm4.371 5.477-1.887 2.472c.048.042.061.066.143.125.306.223.38.22.469.243l1.97-2.58-.125-.03c-.21-.05-.357-.085-.502-.123l-.068-.107zm3.787.996a1.5 1.5 0 0 1-.244.48l-1.64 2.147.06.013c.739.172 1.467.35 1.98.495.236.066.406.115.502.15a1.5 1.5 0 0 0 1.334.217 1.5 1.5 0 0 0 .967-1.889c-.265-.816-.597-.819-.762-.914a2.708 2.708 0 0 0-.412-.195 9.16 9.16 0 0 0-.824-.264c-.277-.078-.639-.16-.96-.24z" transform="translate(0 291.18) scale(.26458)" clip-path="url(#E)"/><rect ry=".172" rx=".172" style="fill:#ed5353;fill-opacity:1;stroke:none;stroke-width:.157457;stroke-linecap:round;stroke-linejoin:round;stroke-miterlimit:4;stroke-dasharray:none;stroke-opacity:1" width=".981" height="1.606" x="180.636" y="228.325" transform="matrix(.79218 .61028 -.60724 .79452 0 0)"/><path style="fill:#3689e6;fill-opacity:1;stroke:none;stroke-width:.211726;stroke-linecap:round;stroke-linejoin:round;stroke-miterlimit:4;stroke-dasharray:none;stroke-opacity:1" transform="matrix(.79218 .61028 -.60724 .79452 0 0)" d="M180.636 229.172h.981v2.554h-.981z"/><path d="m3.161 294.948-.933.414.156-1.012z" style="fill:#a3907c;fill-opacity:1;stroke:none;stroke-width:.239175px;stroke-linecap:butt;stroke-linejoin:miter;stroke-opacity:1"/><path style="fill:none;fill-opacity:1;stroke:#57392d;stroke-width:.264583;stroke-linecap:round;stroke-linejoin:round;stroke-miterlimit:4;stroke-dasharray:none;stroke-opacity:1" d="m2.384 294.35-.156 1.012.933-.414"/><path style="fill:#000;fill-opacity:0;stroke:#002e99;stroke-width:.264583;stroke-linecap:round;stroke-linejoin:round;stroke-miterlimit:4;stroke-dasharray:none;stroke-opacity:1" d="m3.935 292.32-1.551 2.03m.777.598 1.551-2.029"/><path style="fill:none;fill-opacity:1;stroke:#7a0000;stroke-width:.264583;stroke-linecap:round;stroke-linejoin:round;stroke-miterlimit:4;stroke-dasharray:none;stroke-opacity:1" d="m4.712 292.92.41-.537a.173.173 0 0 0-.032-.242l-.505-.389a.17.17 0 0 0-.24.032l-.41.536"/><path style="color:#000;font-style:normal;font-variant:normal;font-weight:400;font-stretch:normal;font-size:medium;line-height:normal;font-family:sans-serif;font-variant-ligatures:normal;font-variant-position:normal;font-variant-caps:normal;font-variant-numeric:normal;font-variant-alternates:normal;font-variant-east-asian:normal;font-feature-settings:normal;font-variation-settings:normal;text-indent:0;text-align:start;text-decoration:none;text-decoration-line:none;text-decoration-style:solid;text-decoration-color:#000;letter-spacing:normal;word-spacing:normal;text-transform:none;writing-mode:lr-tb;direction:ltr;text-orientation:mixed;dominant-baseline:auto;baseline-shift:baseline;text-anchor:start;white-space:normal;shape-padding:0;shape-margin:0;inline-size:0;clip-rule:nonzero;display:inline;overflow:visible;visibility:visible;isolation:auto;mix-blend-mode:normal;color-interpolation:sRGB;color-interpolation-filters:linearRGB;solid-color:#000;solid-opacity:1;vector-effect:none;fill:#000;fill-opacity:0;fill-rule:nonzero;stroke:none;stroke-width:.79375;stroke-linecap:round;stroke-linejoin:round;stroke-miterlimit:4;stroke-dasharray:none;stroke-dashoffset:0;stroke-opacity:1;color-rendering:auto;image-rendering:auto;shape-rendering:auto;text-rendering:auto;enable-background:accumulate;stop-color:#000" d="m3.935 292.32-1.551 2.03-.156 1.012.933-.414 1.551-2.029"/><g style="opacity:1"><path style="color:#000;font-style:normal;font-variant:normal;font-weight:400;font-stretch:normal;font-size:medium;line-height:normal;font-family:sans-serif;font-variant-ligatures:normal;font-variant-position:normal;font-variant-caps:normal;font-variant-numeric:normal;font-variant-alternates:normal;font-variant-east-asian:normal;font-feature-settings:normal;font-variation-settings:normal;text-indent:0;text-align:start;text-decoration:none;text-decoration-line:none;text-decoration-style:solid;text-decoration-color:#000;letter-spacing:normal;word-spacing:normal;text-transform:none;writing-mode:lr-tb;direction:ltr;text-orientation:mixed;dominant-baseline:auto;baseline-shift:baseline;text-anchor:start;white-space:normal;shape-padding:0;shape-margin:0;inline-size:0;clip-rule:nonzero;display:inline;overflow:visible;visibility:visible;isolation:auto;mix-blend-mode:normal;color-interpolation:sRGB;color-interpolation-filters:linearRGB;solid-color:#000;solid-opacity:1;vector-effect:none;fill:#000;fill-opacity:0;fill-rule:nonzero;stroke:none;stroke-width:.79375;stroke-linecap:round;stroke-linejoin:round;stroke-miterlimit:4;stroke-dasharray:none;stroke-dashoffset:0;stroke-opacity:1;color-rendering:auto;image-rendering:auto;shape-rendering:auto;text-rendering:auto;enable-background:accumulate;stop-color:#000;stop-opacity:1" d="m3.935 292.32-1.551 2.03-.156 1.012.933-.414 1.551-2.029"/></g><path style="fill:none;fill-opacity:1;stroke-width:.999999;stroke-linecap:round;stroke-linejoin:round;stroke-miterlimit:4;stroke-dasharray:none;paint-order:stroke markers fill;stop-color:#000;stroke:#ad5f00" d="M11.086 2.035c-.384 0-3.2 5.132-3.512 5.358-.31.225-6.063 1.316-6.181 1.681-.12.366 3.89 4.63 4.01 4.996.118.366-.622 6.173-.311 6.399.31.226 5.608-2.27 5.992-2.27.384 0 5.677 2.5 5.988 2.274.311-.226-.425-6.035-.306-6.4.118-.366 4.13-4.63 4.011-4.995-.05-.156-1.179-.449-2.422-.746l-5.214 6.824a1.5 1.5 0 0 1-.584.46l-3.53 1.564a1.5 1.5 0 0 1-2.088-1.602l.59-3.824a1.5 1.5 0 0 1 .29-.68l4.994-6.537c-.77-1.276-1.54-2.502-1.727-2.502z" transform="translate(0 291.18) scale(.26458)"/></g></svg>