<?xml version="1.0" encoding="UTF-8" standalone="no"?>
<svg
   sodipodi:docname="xopp-thickness-finer.svg"
   inkscape:version="1.1 (c68e22c387, 2021-05-23)"
   version="1.1"
   id="svg2"
   height="22"
   width="22"
   xmlns:inkscape="http://www.inkscape.org/namespaces/inkscape"
   xmlns:sodipodi="http://sodipodi.sourceforge.net/DTD/sodipodi-0.dtd"
   xmlns="http://www.w3.org/2000/svg"
   xmlns:svg="http://www.w3.org/2000/svg"
   xmlns:rdf="http://www.w3.org/1999/02/22-rdf-syntax-ns#"
   xmlns:cc="http://creativecommons.org/ns#"
   xmlns:dc="http://purl.org/dc/elements/1.1/">
  <defs
     id="defs4" />
  <sodipodi:namedview
     inkscape:document-rotation="0"
     inkscape:window-maximized="1"
     inkscape:window-y="24"
     inkscape:window-x="0"
     inkscape:window-height="1000"
     inkscape:window-width="1280"
     showgrid="false"
     inkscape:current-layer="layer1"
     inkscape:document-units="px"
     inkscape:cy="13.203009"
     inkscape:cx="8.1995976"
     inkscape:zoom="63.356768"
     inkscape:pageshadow="2"
     inkscape:pageopacity="0.0"
     borderopacity="1.0"
     bordercolor="#666666"
     pagecolor="#ffffff"
     id="base"
     inkscape:pagecheckerboard="0"
     showguides="false" />
  <metadata
     id="metadata7">
    <rdf:RDF>
      <cc:Work
         rdf:about="">
        <dc:format>image/svg+xml</dc:format>
        <dc:type
           rdf:resource="http://purl.org/dc/dcmitype/StillImage" />
        <dc:title />
      </cc:Work>
    </rdf:RDF>
  </metadata>
  <g
     transform="translate(0,-1030.3622)"
     id="layer1"
     inkscape:groupmode="layer"
     inkscape:label="Ebene 1">
    <ellipse
       ry="1.9696709"
       rx="1.9696715"
       cy="1041.38"
       cx="10.982143"
       style="fill:#d9d9d9;fill-opacity:1;stroke:none;stroke-width:0.34468"
       id="path2985" />
    <path
       id="ellipse839"
       style="fill:#fafafa;fill-opacity:1;stroke:none;stroke-width:0.34468"
       d="M 10.957031 9.0488281 A 1.9696715 1.9696709 0 0 0 9.0117188 11.017578 A 1.9696715 1.9696709 0 0 0 9.0761719 11.517578 A 1.9696715 1.9696709 0 0 1 10.982422 10.046875 A 1.9696715 1.9696709 0 0 1 12.886719 11.519531 A 1.9696715 1.9696709 0 0 0 12.951172 11.017578 A 1.9696715 1.9696709 0 0 0 10.982422 9.0488281 A 1.9696715 1.9696709 0 0 0 10.957031 9.0488281 z "
       transform="translate(0,1030.3622)" />
    <path
       id="ellipse844"
       style="fill:#b2b2b2;fill-opacity:1;stroke:none;stroke-width:0.34468"
       d="M 12.886719 10.517578 A 1.9696715 1.9696709 0 0 1 10.982422 11.986328 A 1.9696715 1.9696709 0 0 1 9.0761719 10.519531 A 1.9696715 1.9696709 0 0 0 9.0117188 11.017578 A 1.9696715 1.9696709 0 0 0 10.982422 12.988281 A 1.9696715 1.9696709 0 0 0 12.951172 11.017578 A 1.9696715 1.9696709 0 0 0 12.886719 10.517578 z "
       transform="translate(0,1030.3622)" />
    <ellipse
       ry="1.9696709"
       rx="1.9696715"
       cy="1041.38"
       cx="10.982143"
       id="path863"
       style="fill:none;fill-opacity:1;stroke:#241f31;stroke-width:1;stroke-miterlimit:4;stroke-dasharray:none;stroke-opacity:1" />
  </g>
</svg>
