<svg viewBox="0 0 5.821 5.821" height="22" width="22" xmlns:xlink="http://www.w3.org/1999/xlink" xmlns="http://www.w3.org/2000/svg"><defs><linearGradient id="g"><stop offset="0" style="stop-color:#fff;stop-opacity:1"/><stop offset=".2" style="stop-color:#fff;stop-opacity:.23529412"/><stop offset=".783" style="stop-color:#fff;stop-opacity:.15686275"/><stop offset="1" style="stop-color:#fff;stop-opacity:.39215687"/></linearGradient><linearGradient id="e"><stop offset="0" style="stop-color:#3689e6;stop-opacity:1"/><stop offset="1" style="stop-color:#64baff;stop-opacity:1"/></linearGradient><linearGradient id="a"><stop offset="0" style="stop-color:#3689e6;stop-opacity:1"/><stop offset="1" style="stop-color:#64baff;stop-opacity:1"/></linearGradient><linearGradient id="f"><stop offset="0" style="stop-color:#f4f4f4;stop-opacity:1"/><stop offset="1" style="stop-color:#dbdbdb;stop-opacity:1"/></linearGradient><linearGradient id="d"><stop offset="0" style="stop-color:#efdfc4;stop-opacity:1"/><stop offset="1" style="stop-color:#e9c998;stop-opacity:1"/></linearGradient><linearGradient id="c"><stop style="stop-color:#f9f9f9;stop-opacity:1" offset="0"/><stop style="stop-color:#d8d8d8;stop-opacity:1" offset="1"/></linearGradient><linearGradient id="b"><stop style="stop-color:#efdfc4;stop-opacity:1" offset="0"/><stop style="stop-color:#e7c591;stop-opacity:1" offset="1"/></linearGradient><linearGradient gradientTransform="translate(144.694 200.32) scale(.35276)" gradientUnits="userSpaceOnUse" y2="-20.602" x2="-12.979" y1="18.4" x1="-12.979" id="i" xlink:href="#e"/><linearGradient xlink:href="#g" id="j" x1="140.116" y1="192.258" x2="140.116" y2="198.872" gradientUnits="userSpaceOnUse"/><linearGradient xlink:href="#e" id="h" gradientUnits="userSpaceOnUse" gradientTransform="translate(144.694 200.32) scale(.35276)" x1="-12.979" y1="18.4" x2="-12.979" y2="-20.602"/><clipPath clipPathUnits="userSpaceOnUse" id="k"><path style="fill:url(#h);fill-opacity:1;stroke-width:.0110013" d="M137.45 193.051c-.126 0-.25.09-.25.203v4.877c0 .12.1.212.226.212h4.85c.126 0 .226-.099.226-.212v-4.301a.216.216 0 0 0-.067-.152l-.596-.57a.17.17 0 0 0-.136-.057z"/></clipPath></defs><path style="fill:url(#i);fill-opacity:1;stroke-width:.0110013" d="M137.45 193.051c-.126 0-.25.09-.25.203v4.877c0 .12.1.212.226.212h4.85c.126 0 .226-.099.226-.212v-4.301a.216.216 0 0 0-.067-.152l-.596-.57a.17.17 0 0 0-.136-.057z" transform="translate(-136.94 -192.787)"/><path d="M138.198 193.052v1.448c0 .073.059.139.137.139h2.9a.14.14 0 0 0 .138-.139v-1.448h-1.938z" style="fill:#fafafa;fill-opacity:1;stroke:none;stroke-width:.264583;stroke-miterlimit:4;stroke-dasharray:none" transform="translate(-136.94 -192.787)"/><path style="fill:none;fill-opacity:1;stroke-width:.26458333;stroke:#0d52bf;stroke-opacity:1;stroke-miterlimit:4;stroke-dasharray:none" d="M137.45 193.051c-.126 0-.25.09-.25.203v4.877c0 .12.1.212.226.212h4.85c.126 0 .226-.099.226-.212v-4.301a.216.216 0 0 0-.067-.152l-.596-.57a.17.17 0 0 0-.136-.057z" transform="translate(-136.94 -192.787)"/><path d="M138.198 198.343v-1.53a.14.14 0 0 1 .137-.138h2.9a.14.14 0 0 1 .138.139v1.53h-1.938z" style="fill:#fafafa;fill-opacity:1;stroke:none;stroke-width:.264583;stroke-miterlimit:4;stroke-dasharray:none" transform="translate(-136.94 -192.787)"/><path d="M138.198 198.343v-1.53a.14.14 0 0 1 .137-.138h2.9a.14.14 0 0 1 .138.139v1.53h-1.938z" style="fill:none;fill-opacity:1;stroke:#0d52bf;stroke-width:.264583;stroke-miterlimit:4;stroke-dasharray:none" transform="translate(-136.94 -192.787)"/><path d="M138.198 193.052v1.448c0 .073.059.139.137.139h2.9a.14.14 0 0 0 .138-.139v-1.448h-1.938z" style="fill:#fafafa;fill-opacity:1;stroke:#0d52bf;stroke-width:.264583;stroke-linejoin:round;stroke-miterlimit:4;stroke-dasharray:none;stroke-opacity:1" transform="translate(-136.94 -192.787)"/><path style="fill:none;fill-opacity:1;stroke-width:.52916666;stroke:url(#j);stroke-opacity:1;stroke-miterlimit:4;stroke-dasharray:none" d="M137.45 193.051c-.126 0-.25.09-.25.203v4.877c0 .12.1.212.226.212h4.85c.126 0 .226-.099.226-.212v-4.301a.216.216 0 0 0-.067-.152l-.596-.57a.17.17 0 0 0-.136-.057z" clip-path="url(#k)" transform="translate(-136.94 -192.787)"/></svg>