<svg width="22" height="22" xmlns="http://www.w3.org/2000/svg"><path style="fill:#64baff;stroke:none;stroke-width:1.99999;stroke-linecap:round;stroke-linejoin:round;paint-order:stroke markers fill;stop-color:#000" d="M4.441 14.28 1 16l4.998 2.5 3.43 1.715A1.974 1.974 0 0 1 9 19v-2.441l-4.559-2.28zm13.118 0L13 16.558V19c0 .456-.164.876-.428 1.215l3.43-1.715L21 16l-3.441-1.72z"/><path style="fill:#9bdb4d;stroke:none;stroke-width:1.99999;stroke-linecap:round;stroke-linejoin:round;paint-order:stroke markers fill;stop-color:#000" d="M4.441 9.28 1 11l4.998 2.5L9 15v-3.441l-4.559-2.28zm13.118 0L13 11.558V15l3.002-1.5L21 11l-3.441-1.72z"/><path style="fill:#ed5353;fill-opacity:1;stroke:none;stroke-width:2;stroke-linecap:round;stroke-linejoin:round;stroke-miterlimit:4;stroke-dasharray:none;paint-order:stroke markers fill;stop-color:#000" d="M11 2 6.477 4.25 1.955 6.5l4.522 2.25L9 10.006V9h-.625A2.03 2.03 0 0 1 6.52 7.748a2.03 2.03 0 0 1 .468-2.19l2.57-2.466.06-.078.095-.065c.013-.011.025-.024.039-.035l.016-.012.017-.013.033-.024.012-.008.035-.025.002-.002.026-.018a2 2 0 0 1 .078-.05l.013-.01.016-.008a2 2 0 0 1 .203-.101l.016-.006.013-.006.008-.002a2 2 0 0 1 .078-.031l.014-.006.012-.004a2 2 0 0 1 .324-.082l-.066.014.056-.014.059-.008.04-.004a2 2 0 0 1 .237-.015h.027c.022 0 .043.002.065.003h.06l.032.004.015.002a2 2 0 0 1 .164.024l-.002-.002.008.002h.026l.123.033h.002a2 2 0 0 1 .093.027l.008.002.006.002.059.022.008.002.082.033.085.035.01.008.006.002.043.02.045.025.018.01.002.001h.003a2 2 0 0 1 .028.016l.006.004.005.004c.007.003.012.008.018.012l.027.015.04.024.037.027c.025.018.05.037.074.057l.004.002c.011.009.021.02.033.029l.016.012.003.002.05.037.046.045-.025-.022a2 2 0 0 1 .076.072l.025.026 2.567 2.463a2.03 2.03 0 0 1 .468 2.189A2.03 2.03 0 0 1 13.625 9H13v1.006l2.523-1.256 4.522-2.25-4.522-2.25L11 2zm-.002 2.48-.002.002-.008.008L8.375 7h5.25l-2.6-2.498-.004-.002-.013-.012v-.002l-.004-.004-.002-.002h-.004z"/><path style="fill:none;stroke:#fafafa;stroke-width:2;stroke-linecap:round;stroke-linejoin:miter;stroke-miterlimit:4;stroke-dasharray:none;stroke-opacity:1" d="M11 1034.84v14.522" transform="translate(0 -1030.362)"/><path style="fill:none;fill-opacity:1;stroke:#fafafa;stroke-width:2;stroke-linecap:round;stroke-linejoin:round;stroke-miterlimit:4;stroke-dasharray:none;stroke-opacity:1;paint-order:stroke markers fill;stop-color:#000" d="M8.375 1037.362 11 1034.84l2.625 2.522z" transform="translate(0 -1030.362)"/><path style="fill:none;fill-opacity:1;stroke:#a10705;stroke-width:1;stroke-linecap:round;stroke-linejoin:round;stroke-miterlimit:4;stroke-dasharray:none;stroke-opacity:1;paint-order:stroke markers fill;stop-color:#000" d="M11 2 6.477 4.25 1.955 6.5l4.522 2.25L9 10.006V9h-.625A2.03 2.03 0 0 1 6.52 7.748a2.03 2.03 0 0 1 .468-2.19l2.57-2.466.06-.078.095-.065c.013-.011.025-.024.039-.035l.016-.012.017-.013.033-.024.012-.008.035-.025.002-.002.026-.017a2 2 0 0 1 .078-.051l.013-.01.016-.008a2 2 0 0 1 .203-.101l.016-.006.013-.006.008-.002a2 2 0 0 1 .078-.031l.014-.006.012-.004a2 2 0 0 1 .324-.082l-.066.014.056-.014.059-.008.04-.004a2 2 0 0 1 .237-.015h.028l.064.003h.06l.032.004.015.002a1.996 1.996 0 0 1 .164.024l-.002-.002.008.002h.026l.123.033h.002l.093.027.008.002.006.002.059.022.008.002.082.033.085.035.01.008.006.002.043.02.045.025.018.01.002.001h.004l.027.016.006.004.006.004c.006.003.011.008.017.012l.028.015.039.024.037.027c.025.018.05.037.074.057l.004.002c.012.009.022.02.033.029l.016.012.004.001.048.038.047.045-.025-.022c.026.023.051.048.076.072l.026.026 2.566 2.463a2.03 2.03 0 0 1 .469 2.189A2.03 2.03 0 0 1 13.625 9H13v1.006l2.523-1.256 4.522-2.25-4.522-2.25z"/><path style="color:#000;font-style:normal;font-variant:normal;font-weight:400;font-stretch:normal;font-size:medium;line-height:normal;font-family:sans-serif;font-variant-ligatures:normal;font-variant-position:normal;font-variant-caps:normal;font-variant-numeric:normal;font-variant-alternates:normal;font-variant-east-asian:normal;font-feature-settings:normal;font-variation-settings:normal;text-indent:0;text-align:start;text-decoration:none;text-decoration-line:none;text-decoration-style:solid;text-decoration-color:#000;letter-spacing:normal;word-spacing:normal;text-transform:none;writing-mode:lr-tb;direction:ltr;text-orientation:mixed;dominant-baseline:auto;baseline-shift:baseline;text-anchor:start;white-space:normal;shape-padding:0;shape-margin:0;inline-size:0;clip-rule:nonzero;display:inline;overflow:visible;visibility:visible;isolation:auto;mix-blend-mode:normal;color-interpolation:sRGB;color-interpolation-filters:linearRGB;solid-color:#000;solid-opacity:1;vector-effect:none;fill:none;fill-opacity:1;fill-rule:nonzero;stroke:#555761;stroke-linecap:round;stroke-linejoin:miter;stroke-miterlimit:4;stroke-dasharray:none;stroke-dashoffset:0;stroke-opacity:1;color-rendering:auto;image-rendering:auto;shape-rendering:auto;text-rendering:auto;enable-background:accumulate;stop-color:#000;stop-opacity:1;opacity:1" d="M11 3.479a1 1 0 0 0-.123.007 1 1 0 0 0-.037.004 1 1 0 0 0-.008.002 1 1 0 0 0-.162.041 1 1 0 0 0-.04.016 1 1 0 0 0-.03.012 1 1 0 0 0-.102.05 1 1 0 0 0-.053.035 1 1 0 0 0-.062.045 1 1 0 0 0-.006.004 1 1 0 0 0-.059.051 1 1 0 0 0-.005.004 1 1 0 0 0-.006.008 1 1 0 0 0-.024.023L7.682 6.28A1 1 0 0 0 8.375 8H10v11a1 1 0 0 0 1 1 1 1 0 0 0 1-1V8h1.625a1 1 0 0 0 .693-1.72l-2.591-2.49a1 1 0 0 0-.051-.049 1 1 0 0 0-.01-.01 1 1 0 0 0-.008-.005 1 1 0 0 0-.056-.047 1 1 0 0 0-.04-.03 1 1 0 0 0-.013-.007 1 1 0 0 0-.043-.028 1 1 0 0 0-.014-.008 1 1 0 0 0-.033-.017 1 1 0 0 0-.01-.006 1 1 0 0 0-.06-.025 1 1 0 0 0-.006-.004 1 1 0 0 0-.045-.018 1 1 0 0 0-.033-.012 1 1 0 0 0-.047-.013 1 1 0 0 0-.004 0 1 1 0 0 0-.078-.018 1 1 0 0 0-.035-.006 1 1 0 0 0-.047-.006 1 1 0 0 0-.006 0 1 1 0 0 0-.078-.003 1 1 0 0 0-.01 0z"/><path style="fill:none;stroke:#3a9104;stroke-width:1;stroke-linecap:round;stroke-linejoin:round;paint-order:stroke markers fill;stop-color:#000;stroke-opacity:1;stroke-miterlimit:4;stroke-dasharray:none" d="M4.441 9.28 1 11l4.998 2.5L9 15v-3.441l-4.559-2.28zm13.118 0L13 11.558V15l3.002-1.5L21 11l-3.441-1.72z"/><path style="fill:none;stroke:#0d52bf;stroke-width:1;stroke-linecap:round;stroke-linejoin:round;paint-order:stroke markers fill;stop-color:#000;stroke-opacity:1;stroke-miterlimit:4;stroke-dasharray:none" d="M4.441 14.28 1 16l4.998 2.5 3.43 1.715A1.974 1.974 0 0 1 9 19v-2.441l-4.559-2.28zm13.118 0L13 16.558V19c0 .456-.164.876-.428 1.215l3.43-1.715L21 16l-3.441-1.72z"/></svg>