<svg viewBox="0 0 5.821 5.821" height="22" width="22" xmlns:xlink="http://www.w3.org/1999/xlink" xmlns="http://www.w3.org/2000/svg"><defs><linearGradient id="k"><stop style="stop-color:#c6f27b;stop-opacity:1" offset="0"/><stop style="stop-color:#93d049;stop-opacity:1" offset="1"/></linearGradient><linearGradient id="j"><stop style="stop-color:#c396eb;stop-opacity:1" offset="0"/><stop style="stop-color:#9d68d7;stop-opacity:1" offset="1"/></linearGradient><linearGradient id="p"><stop offset="0" style="stop-color:#cdf87e;stop-opacity:1"/><stop offset=".262" style="stop-color:#a2e34f;stop-opacity:1"/><stop offset=".661" style="stop-color:#68b723;stop-opacity:1"/><stop offset="1" style="stop-color:#1d7e0d;stop-opacity:1"/></linearGradient><linearGradient id="a"><stop style="stop-color:#fff;stop-opacity:1" offset="0"/><stop style="stop-color:#fff;stop-opacity:.23529412" offset=".002"/><stop style="stop-color:#fff;stop-opacity:.15686275" offset=".392"/><stop style="stop-color:#fff;stop-opacity:.39215687" offset="1"/></linearGradient><linearGradient id="b"><stop offset="0" style="stop-color:#000;stop-opacity:0"/><stop offset=".5" style="stop-color:#000;stop-opacity:1"/><stop offset="1" style="stop-color:#000;stop-opacity:0"/></linearGradient><linearGradient id="q"><stop offset="0" style="stop-color:#000;stop-opacity:1"/><stop offset="1" style="stop-color:#000;stop-opacity:0"/></linearGradient><linearGradient id="c"><stop offset="0" style="stop-color:#f4f4f4;stop-opacity:1"/><stop offset="1" style="stop-color:#dbdbdb;stop-opacity:1"/></linearGradient><linearGradient id="d"><stop style="stop-color:#fff;stop-opacity:1" offset="0"/><stop style="stop-color:#fff;stop-opacity:.23529412" offset="0"/><stop style="stop-color:#fff;stop-opacity:.15686275" offset="1"/><stop style="stop-color:#fff;stop-opacity:.39215687" offset="1"/></linearGradient><linearGradient id="e"><stop style="stop-color:#000;stop-opacity:.31782946" offset="0"/><stop style="stop-color:#000;stop-opacity:.24031007" offset="1"/></linearGradient><linearGradient id="f"><stop style="stop-color:#ffa154;stop-opacity:1" offset="0"/><stop style="stop-color:#cc3b02;stop-opacity:1" offset="1"/></linearGradient><linearGradient id="i"><stop offset="0" style="stop-color:#93d049;stop-opacity:1"/><stop offset="1" style="stop-color:#378a04;stop-opacity:1"/></linearGradient><linearGradient id="g"><stop style="stop-color:#fff;stop-opacity:1" offset="0"/><stop style="stop-color:#fff;stop-opacity:.23529412" offset=".063"/><stop style="stop-color:#fff;stop-opacity:.15686275" offset=".951"/><stop style="stop-color:#fff;stop-opacity:.39215687" offset="1"/></linearGradient><linearGradient id="r"><stop style="stop-color:#181818;stop-opacity:1" offset="0"/><stop style="stop-color:#181818;stop-opacity:0" offset="1"/></linearGradient><linearGradient id="h"><stop style="stop-color:#181818;stop-opacity:0" offset="0"/><stop style="stop-color:#181818;stop-opacity:1" offset=".5"/><stop style="stop-color:#181818;stop-opacity:0" offset="1"/></linearGradient><linearGradient xlink:href="#j" id="t" gradientUnits="userSpaceOnUse" x1="61.558" y1="194.856" x2="176.621" y2="55.669"/><linearGradient xlink:href="#k" id="u" gradientUnits="userSpaceOnUse" x1="128.265" y1="22.77" x2="133.458" y2="228.819"/><linearGradient id="l"><stop style="stop-color:#fff;stop-opacity:1" offset="0"/><stop style="stop-color:#fff;stop-opacity:.23529412" offset=".063"/><stop style="stop-color:#fff;stop-opacity:.15686275" offset=".951"/><stop style="stop-color:#fff;stop-opacity:.39215687" offset="1"/></linearGradient><linearGradient id="m"><stop offset="0" style="stop-color:#f282f1;stop-opacity:1"/><stop offset="1" style="stop-color:#a56de2;stop-opacity:1"/></linearGradient><linearGradient id="n"><stop style="stop-color:#770087;stop-opacity:1" offset="0"/><stop style="stop-color:#452981;stop-opacity:1" offset="1"/></linearGradient><linearGradient id="o"><stop style="stop-color:#a00" offset="0"/><stop style="stop-color:#a00;stop-opacity:0" offset="1"/></linearGradient><linearGradient id="s"><stop offset="0" style="stop-color:#737373;stop-opacity:1"/><stop offset=".262" style="stop-color:#636363;stop-opacity:1"/><stop offset=".705" style="stop-color:#4b4b4b;stop-opacity:1"/><stop offset="1" style="stop-color:#3f3f3f;stop-opacity:1"/></linearGradient></defs><g transform="translate(-64.297 -265.695)"><rect style="fill:#abacae;fill-opacity:1;fill-rule:evenodd;stroke:none;stroke-width:.264582;stroke-linecap:round;stroke-linejoin:round" width="5.504" height="1.999" x="64.456" y="269.276" rx=".529" ry=".529"/><rect ry=".529" rx=".529" y="269.276" x="64.456" height="1.999" width="5.504" style="fill:none;fill-opacity:1;fill-rule:evenodd;stroke:#555761;stroke-width:.264582;stroke-linecap:round;stroke-linejoin:round;stroke-opacity:1"/><path style="fill:#7e8087;fill-opacity:1;fill-rule:evenodd;stroke:none;stroke-width:.264582;stroke-linecap:round;stroke-linejoin:round" d="M64.456 270.405v.34c0 .293.236.529.529.529h4.446c.293 0 .53-.236.53-.53v-.34c0 .294-.237.53-.53.53h-4.446a.528.528 0 0 1-.53-.53z"/><path style="fill:#fafafa;fill-opacity:1;fill-rule:evenodd;stroke:none;stroke-width:.264582;stroke-linecap:round;stroke-linejoin:round" d="M64.985 269.275a.528.528 0 0 0-.53.53v.379a.53.53 0 0 1 .53-.53h4.446a.53.53 0 0 1 .53.53v-.38a.528.528 0 0 0-.53-.529z"/><path d="M69.066 267.69h-.1a1.874 1.874 0 0 0-.12-.292l.07-.07a.429.429 0 0 0 0-.606l-.207-.207a.429.429 0 0 0-.607 0l-.07.07a1.884 1.884 0 0 0-.292-.121v-.1a.43.43 0 0 0-.428-.428h-.293a.43.43 0 0 0-.429.429v.099c-.1.032-.198.073-.292.121l-.07-.07a.429.429 0 0 0-.606 0l-.207.207a.429.429 0 0 0 0 .606l.07.07a1.849 1.849 0 0 0-.12.292h-.1a.43.43 0 0 0-.428.429v.292a.43.43 0 0 0 .428.429h.1c.031.1.072.198.12.292l-.07.07a.429.429 0 0 0 0 .606l.207.207c.165.165.437.17.606 0l.07-.07c.094.048.192.09.293.121v.1a.43.43 0 0 0 .428.428h.293a.43.43 0 0 0 .428-.429v-.099c.1-.032.199-.073.292-.121l.07.07c.17.17.442.166.607 0l.206-.207a.429.429 0 0 0 0-.606l-.07-.07c.049-.094.09-.192.122-.292h.099a.43.43 0 0 0 .428-.429v-.292a.43.43 0 0 0-.428-.429zm-1.9 1.588a1.015 1.015 0 0 1 0-2.026 1.015 1.015 0 0 1 0 2.026z" style="fill:#667885;fill-opacity:1;fill-rule:evenodd;stroke-width:.264583"/><path style="fill:none;fill-opacity:1;fill-rule:evenodd;stroke:#273445;stroke-width:.264583;stroke-opacity:1" d="M69.066 267.69h-.1a1.874 1.874 0 0 0-.12-.292l.07-.07a.429.429 0 0 0 0-.606l-.207-.207a.429.429 0 0 0-.607 0l-.07.07a1.884 1.884 0 0 0-.292-.121v-.1a.43.43 0 0 0-.428-.428h-.293a.43.43 0 0 0-.429.429v.099c-.1.032-.198.073-.292.121l-.07-.07a.429.429 0 0 0-.606 0l-.207.207a.429.429 0 0 0 0 .606l.07.07a1.849 1.849 0 0 0-.12.292h-.1a.43.43 0 0 0-.428.429v.292a.43.43 0 0 0 .428.429h.1c.031.1.072.198.12.292l-.07.07a.429.429 0 0 0 0 .606l.207.207c.165.165.437.17.606 0l.07-.07c.094.048.192.09.293.121v.1a.43.43 0 0 0 .428.428h.293a.43.43 0 0 0 .428-.429v-.099c.1-.032.199-.073.292-.121l.07.07c.17.17.442.166.607 0l.206-.207a.429.429 0 0 0 0-.606l-.07-.07c.049-.094.09-.192.122-.292h.099a.43.43 0 0 0 .428-.429v-.292a.43.43 0 0 0-.428-.429zm-1.9 1.588a1.015 1.015 0 0 1 0-2.026 1.015 1.015 0 0 1 0 2.026z"/><path style="fill:#485a6c;fill-opacity:1;fill-rule:evenodd;stroke-width:.264583" d="M65.32 266.866a.427.427 0 0 0 .07.433c.028-.075.059-.149.095-.22l-.07-.07a.426.426 0 0 1-.094-.143zm3.69 0a.426.426 0 0 1-.094.143l-.07.07a1.9 1.9 0 0 1 .094.22.427.427 0 0 0 .07-.433zm-4.172 1.24-.002.013v.292a.43.43 0 0 0 .429.429h.099c.008.025.018.049.027.073l.024-.03.07-.07a1.874 1.874 0 0 1-.12-.292h-.1a.428.428 0 0 1-.427-.415zm4.655 0a.428.428 0 0 1-.427.415h-.1a1.88 1.88 0 0 1-.12.292l.07.07.024.03c.009-.024.019-.048.027-.073h.099a.43.43 0 0 0 .429-.429v-.292a.057.057 0 0 0-.002-.013zm-4.172 1.24a.429.429 0 0 0 .094.462l.207.207a.43.43 0 0 0 .607 0l.07-.07c.093.049.19.089.291.121v.1a.43.43 0 0 0 .43.428h.292a.43.43 0 0 0 .429-.429v-.099c.1-.032.198-.072.292-.12l.07.069c.169.17.44.165.606 0l.207-.207a.43.43 0 0 0 .094-.462.425.425 0 0 1-.094.144l-.207.206a.429.429 0 0 1-.607 0l-.07-.07a1.875 1.875 0 0 1-.291.121v.1a.43.43 0 0 1-.43.428h-.292a.43.43 0 0 1-.429-.429v-.099a1.88 1.88 0 0 1-.292-.12l-.07.069a.429.429 0 0 1-.606 0l-.207-.206a.427.427 0 0 1-.094-.144z"/><path style="fill:#95a3ab;fill-opacity:1;fill-rule:evenodd;stroke-width:.264583" d="M67.02 265.936a.43.43 0 0 0-.43.43v.098c-.1.032-.198.073-.292.121l-.07-.07a.429.429 0 0 0-.606 0l-.206.207a.429.429 0 0 0-.116.392.428.428 0 0 1 .116-.213l.206-.206a.429.429 0 0 1 .606 0l.07.07c.094-.049.192-.09.292-.121v-.1a.43.43 0 0 1 .43-.428h.292a.43.43 0 0 1 .429.429v.099c.1.032.198.072.292.121l.07-.07a.429.429 0 0 1 .606 0l.207.206a.43.43 0 0 1 .115.213.429.429 0 0 0-.115-.392l-.207-.207a.429.429 0 0 0-.607 0l-.07.07a1.888 1.888 0 0 0-.291-.121v-.099a.43.43 0 0 0-.43-.429zm-1.592 1.585a1.881 1.881 0 0 0-.064.169h-.099a.43.43 0 0 0-.429.429v.18a.43.43 0 0 1 .43-.43h.098c.033-.1.073-.197.121-.291zm3.475 0-.058.057c.049.094.09.191.122.292h.099a.43.43 0 0 1 .428.429v-.18a.43.43 0 0 0-.428-.429h-.1a1.88 1.88 0 0 0-.063-.169zm-3.474 1.668-.013.013a.427.427 0 0 0-.116.394.424.424 0 0 1 .116-.214l.07-.07a1.371 1.371 0 0 1-.057-.123zm3.474 0a1.862 1.862 0 0 1-.058.123l.07.07a.423.423 0 0 1 .116.214.426.426 0 0 0-.115-.394z"/></g></svg>