<svg viewBox="0 0 5.821 5.821" height="22" width="22" xmlns="http://www.w3.org/2000/svg"><defs><linearGradient id="b"><stop style="stop-color:#c6f27b;stop-opacity:1" offset="0"/><stop style="stop-color:#93d049;stop-opacity:1" offset="1"/></linearGradient><linearGradient id="a"><stop style="stop-color:#c396eb;stop-opacity:1" offset="0"/><stop style="stop-color:#9d68d7;stop-opacity:1" offset="1"/></linearGradient></defs><path style="line-height:normal;font-family:'Bitstream Vera Sans';-inkscape-font-specification:'Bitstream Vera Sans';text-indent:0;text-align:start;text-transform:none;overflow:visible;fill:#fff;fill-opacity:1;stroke:none;stroke-width:.206444;stroke-opacity:1;enable-background:accumulate" d="M264.705 187.268a.103.101 0 0 0-.103.1.103.101 0 0 0 0 .01.115.113 0 0 0 0 .003.115.113 0 0 0 0 .01.115.113 0 0 0 0 .005.115.113 0 0 0 0 .004.115.113 0 0 0 0 .017v3.717a.115.113 0 0 0 .194.082l.831-.77.67 1.527a.115.113 0 0 0 .155.056l.501-.226a.115.113 0 0 0 .057-.148l-.698-1.507 1.168-.1a.115.113 0 0 0 .068-.197l-2.734-2.515a.115.113 0 0 0-.018-.018.115.113 0 0 0-.008-.008.103.101 0 0 0-.083-.042z" transform="translate(-263.185 -186.832)"/><path d="M264.705 187.268a.103.101 0 0 0-.103.1.103.101 0 0 0 0 .01.115.113 0 0 0 0 .003.115.113 0 0 0 0 .01.115.113 0 0 0 0 .005.115.113 0 0 0 0 .004.115.113 0 0 0 0 .017v3.717a.115.113 0 0 0 .194.082l.831-.77.67 1.527a.115.113 0 0 0 .155.056l.501-.226a.115.113 0 0 0 .057-.148l-.698-1.507 1.168-.1a.115.113 0 0 0 .068-.197l-2.734-2.515a.115.113 0 0 0-.018-.018.115.113 0 0 0-.008-.008.103.101 0 0 0-.083-.042z" style="line-height:normal;font-family:'Bitstream Vera Sans';-inkscape-font-specification:'Bitstream Vera Sans';text-indent:0;text-align:start;text-transform:none;overflow:visible;fill:none;fill-opacity:1;stroke:#000;stroke-width:.264584;stroke-miterlimit:4;stroke-dasharray:none;stroke-opacity:1;enable-background:accumulate" transform="translate(-263.185 -186.832)"/><path style="line-height:normal;font-family:'Bitstream Vera Sans';-inkscape-font-specification:'Bitstream Vera Sans';text-indent:0;text-align:start;text-transform:none;overflow:visible;fill:#d4d4d4;fill-opacity:1;stroke:none;stroke-width:.206443;stroke-opacity:1;enable-background:accumulate" d="M264.705 187.268a.103.101 0 0 0-.103.1.103.101 0 0 0 0 .01.115.113 0 0 0 0 .003.115.113 0 0 0 0 .01.115.113 0 0 0 0 .005.115.113 0 0 0 0 .004.115.113 0 0 0 0 .018v.231a.103.101 0 0 1 .103-.101.103.101 0 0 1 .083.042.115.113 0 0 1 .008.008.115.113 0 0 1 .018.018l2.646 2.435.02-.002a.115.113 0 0 0 .068-.198l-2.734-2.515a.115.113 0 0 0-.018-.018.115.113 0 0 0-.007-.008.103.101 0 0 0-.084-.042zm-.103.38v.013a.115.113 0 0 1 0-.003.103.101 0 0 1 0-.01zm1.835 2.768-.125.01.638 1.378.003-.001a.115.113 0 0 0 .057-.149z" transform="translate(-263.185 -186.832)"/><path style="line-height:normal;font-family:'Bitstream Vera Sans';-inkscape-font-specification:'Bitstream Vera Sans';text-indent:0;text-align:start;text-transform:none;overflow:visible;fill:#555761;fill-opacity:1;stroke:none;stroke-width:.206443;stroke-opacity:1;enable-background:accumulate" d="M264.602 187.399a.115.113 0 0 0 0 .018zm2.947 2.452a.115.113 0 0 1-.07.029l-1.167.099.075.162 1.093-.093a.115.113 0 0 0 .069-.197zm-1.922.425-.831.771a.115.113 0 0 1-.194-.082v.169a.115.113 0 0 0 .194.082l.831-.771.67 1.528a.115.113 0 0 0 .155.056l.501-.227a.115.113 0 0 0 .057-.148l-.021-.046a.115.113 0 0 1-.036.026l-.501.226a.115.113 0 0 1-.154-.056z" transform="translate(-263.185 -186.832)"/></svg>