<svg viewBox="0 0 16.5 16.5" height="22" width="22" xmlns:xlink="http://www.w3.org/1999/xlink" xmlns="http://www.w3.org/2000/svg"><defs><linearGradient id="a"><stop offset="0" style="stop-color:#3689e6;stop-opacity:1"/><stop offset="1" style="stop-color:#64baff;stop-opacity:1"/></linearGradient><linearGradient id="c"><stop offset="0" style="stop-color:#f9f9f9;stop-opacity:1"/><stop offset="1" style="stop-color:#d8d8d8;stop-opacity:1"/></linearGradient><linearGradient id="b"><stop offset="0" style="stop-color:#efdfc4;stop-opacity:1"/><stop offset="1" style="stop-color:#e7c591;stop-opacity:1"/></linearGradient><linearGradient id="d"><stop style="stop-color:#d1d1d1;stop-opacity:1" offset="0"/><stop style="stop-color:#eaeaea;stop-opacity:1" offset="1"/></linearGradient><radialGradient cx="15" cy="1039.7" r="3.527" fx="15" fy="1039.7" id="e" xlink:href="#d" gradientUnits="userSpaceOnUse" gradientTransform="matrix(.38796 -.77591 1.16387 .58194 -1204.875 -579.614)"/><radialGradient r="3.527" fy="1039.7" fx="15" cy="1039.7" cx="15" gradientTransform="matrix(-.38796 -.77591 -1.16387 .58194 1221.372 -579.614)" gradientUnits="userSpaceOnUse" id="f" xlink:href="#d"/></defs><path d="m8.624 13.79 3.625-6.705s2.532 5.336-3.625 8.757z" style="fill:url(#e);fill-opacity:1;stroke:#555761;stroke-width:.75;stroke-linecap:butt;stroke-linejoin:miter;stroke-miterlimit:4;stroke-dasharray:none;stroke-opacity:1" transform="translate(0 -5.5)"/><path style="opacity:.29800002;fill:none;fill-opacity:1;stroke:#fafafa;stroke-width:.75;stroke-linecap:round;stroke-linejoin:round;stroke-miterlimit:4;stroke-dasharray:none;stroke-opacity:1" d="m8.952 14.697.051-.85 3.246-5.89s.341.877.176 2.547" transform="translate(0 -5.5)"/><path style="fill:url(#f);fill-opacity:1;stroke:#555761;stroke-width:.75;stroke-linecap:butt;stroke-linejoin:miter;stroke-miterlimit:4;stroke-dasharray:none;stroke-opacity:1" d="M7.874 13.79 4.248 7.084s-2.531 5.336 3.626 8.757z" transform="translate(0 -5.5)"/><path d="m7.546 14.697-.052-.85-3.246-5.89s-.34.877-.175 2.547" style="opacity:.29800002;fill:none;fill-opacity:1;stroke:#fafafa;stroke-width:.75;stroke-linecap:round;stroke-linejoin:round;stroke-miterlimit:4;stroke-dasharray:none;stroke-opacity:1" transform="translate(0 -5.5)"/><path style="fill:#ee5050;fill-opacity:1;stroke:#7a0000;stroke-width:.7568149;stroke-linecap:butt;stroke-linejoin:miter;stroke-miterlimit:4;stroke-dasharray:none;stroke-opacity:1" d="M9.864 14.845c-.552.118-1.243.894-1.21 2.824.04 2.421 1.765 3.229 2.824 3.229 1.06 0 2.825-.841 2.825-3.229s-3.886-2.943-4.439-2.824zm.353 1.513s4.229.72 1.816 2.522c-2.17 1.621-1.816-2.522-1.816-2.522z" transform="matrix(.997 0 0 .997 .023 -5.463)"/><path d="M14.007 18c0-2.387-3.59-2.943-4.143-2.824-.552.118-.912.895-.88 2.824" style="opacity:.3;fill:none;fill-opacity:1;stroke:#fafafa;stroke-width:.7568149;stroke-linecap:round;stroke-linejoin:miter;stroke-miterlimit:4;stroke-dasharray:none;stroke-opacity:1" transform="matrix(.997 0 0 .997 .023 -5.463)"/><path d="M9.86 14.837c-.552.119-1.24.893-1.208 2.817.041 2.413 1.76 3.218 2.817 3.218 1.056 0 2.816-.838 2.816-3.218s-3.875-2.935-4.426-2.817zm.351 1.51s4.216.716 1.81 2.514c-2.162 1.616-1.81-2.515-1.81-2.515z" style="fill:#ee5050;fill-opacity:1;stroke:#7a0000;stroke-width:.75454324;stroke-linecap:butt;stroke-linejoin:miter;stroke-miterlimit:4;stroke-dasharray:none;stroke-opacity:1" transform="matrix(-1 0 0 1 16.501 -5.5)"/><path style="opacity:.3;fill:none;fill-opacity:1;stroke:#fafafa;stroke-width:.7568149;stroke-linecap:round;stroke-linejoin:miter;stroke-miterlimit:4;stroke-dasharray:none;stroke-opacity:1" d="M14.007 18c0-2.387-3.59-2.943-4.143-2.824-.552.118-.912.895-.88 2.824" transform="matrix(-1 0 0 1 16.501 -5.5)"/></svg>