<svg height="22" width="22" xmlns="http://www.w3.org/2000/svg"><g transform="translate(0 -1030.362)"><circle cy="1041.38" cx="10.982" style="fill:#d9d9d9;fill-opacity:1;stroke:none;stroke-width:.34468" r="1.97"/><path style="fill:#fafafa;fill-opacity:1;stroke:none;stroke-width:.34468" d="M10.957 9.049a1.97 1.97 0 0 0-1.945 1.969 1.97 1.97 0 0 0 .064.5 1.97 1.97 0 0 1 1.906-1.471 1.97 1.97 0 0 1 1.905 1.473 1.97 1.97 0 0 0 .064-.502 1.97 1.97 0 0 0-1.969-1.97 1.97 1.97 0 0 0-.025 0z" transform="translate(0 1030.362)"/><path style="fill:#b2b2b2;fill-opacity:1;stroke:none;stroke-width:.34468" d="M12.887 10.518a1.97 1.97 0 0 1-1.905 1.468 1.97 1.97 0 0 1-1.906-1.466 1.97 1.97 0 0 0-.064.498 1.97 1.97 0 0 0 1.97 1.97 1.97 1.97 0 0 0 1.97-1.97 1.97 1.97 0 0 0-.065-.5z" transform="translate(0 1030.362)"/><circle cy="1041.38" cx="10.982" style="fill:none;fill-opacity:1;stroke:#241f31;stroke-width:1;stroke-miterlimit:4;stroke-dasharray:none;stroke-opacity:1" r="1.97"/></g></svg>