<svg viewBox="0 0 5.821 5.821" height="22" width="22" xmlns:xlink="http://www.w3.org/1999/xlink" xmlns="http://www.w3.org/2000/svg"><defs><linearGradient id="a"><stop style="stop-color:#3689e6;stop-opacity:1" offset="0"/><stop style="stop-color:#64baff;stop-opacity:1" offset="1"/></linearGradient><linearGradient xlink:href="#a" id="b" gradientUnits="userSpaceOnUse" x1="13.013" y1="19.627" x2="13.071" y2="-2.197"/><linearGradient gradientTransform="matrix(-.24285 0 0 .24285 30.351 150.239)" y2="-2.197" x2="13.071" y1="19.627" x1="13.013" gradientUnits="userSpaceOnUse" id="c" xlink:href="#a"/><linearGradient gradientTransform="matrix(-.24285 0 0 .24285 32.865 150.239)" y2="-2.197" x2="13.071" y1="19.627" x1="13.013" gradientUnits="userSpaceOnUse" id="f" xlink:href="#a"/><clipPath id="e" clipPathUnits="userSpaceOnUse"><path d="M21.036 2.987v15.526l-10.35-7.763z" overflow="visible" style="color:#bebebe;overflow:visible;fill:url(#b);fill-opacity:1;stroke-width:.75;marker:none"/></clipPath><clipPath id="d" clipPathUnits="userSpaceOnUse"><path d="M21.036 2.987v15.526l-10.35-7.763z" overflow="visible" style="color:#bebebe;overflow:visible;fill:url(#b);fill-opacity:1;stroke-width:.75;marker:none"/></clipPath></defs><path style="color:#bebebe;overflow:visible;fill:url(#c);fill-opacity:1;stroke-width:.264583;marker:none" overflow="visible" d="M25.243 150.964v3.77l2.513-1.885z" transform="translate(-24.846 -150.006)"/><path transform="matrix(-.24285 0 0 .24285 5.505 .233)" clip-path="url(#d)" d="M21.036 2.987v15.526l-10.35-7.763" style="fill:none;stroke:#3689e6;stroke-width:2.17899;stroke-linecap:butt;stroke-linejoin:miter;stroke-miterlimit:4;stroke-dasharray:none;stroke-opacity:1"/><path transform="matrix(-.24285 0 0 .24285 5.505 .233)" clip-path="url(#e)" d="m21.036 2.987-10.35 7.763" style="fill:none;stroke:#8cd5ff;stroke-width:3.26848;stroke-linecap:round;stroke-linejoin:round;stroke-miterlimit:4;stroke-dasharray:none;stroke-opacity:1"/><path d="M27.756 150.964v3.77l2.514-1.885z" overflow="visible" style="color:#bebebe;overflow:visible;fill:url(#f);fill-opacity:1;stroke-width:.264583;marker:none" transform="translate(-24.846 -150.006)"/><path transform="matrix(-.24285 0 0 .24285 8.019 .233)" style="fill:none;stroke:#3689e6;stroke-width:2.17899;stroke-linecap:butt;stroke-linejoin:miter;stroke-miterlimit:4;stroke-dasharray:none;stroke-opacity:1" d="M21.036 2.987v15.526l-10.35-7.763" clip-path="url(#d)"/><path transform="matrix(-.24285 0 0 .24285 8.019 .233)" style="fill:none;stroke:#8cd5ff;stroke-width:3.26848;stroke-linecap:round;stroke-linejoin:round;stroke-miterlimit:4;stroke-dasharray:none;stroke-opacity:1" d="m21.036 2.987-10.35 7.763" clip-path="url(#e)"/><path d="M25.243 154.735v-3.77l2.513 1.884v-1.885l2.514 1.885-2.514 1.886v-1.78z" style="fill:none;stroke:#002e99;stroke-width:.264583px;stroke-linecap:round;stroke-linejoin:round;stroke-opacity:1" transform="translate(-24.846 -150.006)"/></svg>