<svg viewBox="0 0 5.821 5.821" height="22" width="22" xmlns:xlink="http://www.w3.org/1999/xlink" xmlns="http://www.w3.org/2000/svg"><defs><linearGradient id="j"><stop style="stop-color:#3689e6;stop-opacity:1" offset="0"/><stop style="stop-color:#64baff;stop-opacity:1" offset="1"/></linearGradient><linearGradient xlink:href="#j" id="a" gradientUnits="userSpaceOnUse" x1="13.013" y1="19.627" x2="13.071" y2="-2.197"/><linearGradient xlink:href="#j" id="b" x1="15.897" y1="20.63" x2="15.94" y2="0" gradientUnits="userSpaceOnUse"/><linearGradient id="z"><stop offset="0" style="stop-color:#f9c440;stop-opacity:1"/><stop offset="1" style="stop-color:#ffe16b;stop-opacity:1"/></linearGradient><linearGradient id="u"><stop style="stop-color:#c6f27b;stop-opacity:1" offset="0"/><stop style="stop-color:#93d049;stop-opacity:1" offset="1"/></linearGradient><linearGradient id="t"><stop style="stop-color:#c396eb;stop-opacity:1" offset="0"/><stop style="stop-color:#9d68d7;stop-opacity:1" offset="1"/></linearGradient><linearGradient id="f"><stop offset="0" style="stop-color:#cdf87e;stop-opacity:1"/><stop offset=".262" style="stop-color:#a2e34f;stop-opacity:1"/><stop offset=".661" style="stop-color:#68b723;stop-opacity:1"/><stop offset="1" style="stop-color:#1d7e0d;stop-opacity:1"/></linearGradient><linearGradient id="k"><stop style="stop-color:#fff;stop-opacity:1" offset="0"/><stop style="stop-color:#fff;stop-opacity:.23529412" offset=".002"/><stop style="stop-color:#fff;stop-opacity:.15686275" offset=".392"/><stop style="stop-color:#fff;stop-opacity:.39215687" offset="1"/></linearGradient><linearGradient id="l"><stop offset="0" style="stop-color:#000;stop-opacity:0"/><stop offset=".5" style="stop-color:#000;stop-opacity:1"/><stop offset="1" style="stop-color:#000;stop-opacity:0"/></linearGradient><linearGradient id="g"><stop offset="0" style="stop-color:#000;stop-opacity:1"/><stop offset="1" style="stop-color:#000;stop-opacity:0"/></linearGradient><linearGradient id="m"><stop offset="0" style="stop-color:#f4f4f4;stop-opacity:1"/><stop offset="1" style="stop-color:#dbdbdb;stop-opacity:1"/></linearGradient><linearGradient id="n"><stop style="stop-color:#fff;stop-opacity:1" offset="0"/><stop style="stop-color:#fff;stop-opacity:.23529412" offset="0"/><stop style="stop-color:#fff;stop-opacity:.15686275" offset="1"/><stop style="stop-color:#fff;stop-opacity:.39215687" offset="1"/></linearGradient><linearGradient id="o"><stop style="stop-color:#000;stop-opacity:.31782946" offset="0"/><stop style="stop-color:#000;stop-opacity:.24031007" offset="1"/></linearGradient><linearGradient id="p"><stop style="stop-color:#ffa154;stop-opacity:1" offset="0"/><stop style="stop-color:#cc3b02;stop-opacity:1" offset="1"/></linearGradient><linearGradient id="s"><stop offset="0" style="stop-color:#93d049;stop-opacity:1"/><stop offset="1" style="stop-color:#378a04;stop-opacity:1"/></linearGradient><linearGradient id="q"><stop style="stop-color:#fff;stop-opacity:1" offset="0"/><stop style="stop-color:#fff;stop-opacity:.23529412" offset=".063"/><stop style="stop-color:#fff;stop-opacity:.15686275" offset=".951"/><stop style="stop-color:#fff;stop-opacity:.39215687" offset="1"/></linearGradient><linearGradient id="h"><stop style="stop-color:#181818;stop-opacity:1" offset="0"/><stop style="stop-color:#181818;stop-opacity:0" offset="1"/></linearGradient><linearGradient id="r"><stop style="stop-color:#181818;stop-opacity:0" offset="0"/><stop style="stop-color:#181818;stop-opacity:1" offset=".5"/><stop style="stop-color:#181818;stop-opacity:0" offset="1"/></linearGradient><linearGradient xlink:href="#t" id="B" gradientUnits="userSpaceOnUse" x1="61.558" y1="194.856" x2="176.621" y2="55.669"/><linearGradient xlink:href="#u" id="C" gradientUnits="userSpaceOnUse" x1="128.265" y1="22.77" x2="133.458" y2="228.819"/><linearGradient id="v"><stop style="stop-color:#fff;stop-opacity:1" offset="0"/><stop style="stop-color:#fff;stop-opacity:.23529412" offset=".063"/><stop style="stop-color:#fff;stop-opacity:.15686275" offset=".951"/><stop style="stop-color:#fff;stop-opacity:.39215687" offset="1"/></linearGradient><linearGradient id="w"><stop offset="0" style="stop-color:#f282f1;stop-opacity:1"/><stop offset="1" style="stop-color:#a56de2;stop-opacity:1"/></linearGradient><linearGradient id="x"><stop style="stop-color:#770087;stop-opacity:1" offset="0"/><stop style="stop-color:#452981;stop-opacity:1" offset="1"/></linearGradient><linearGradient id="y"><stop style="stop-color:#a00" offset="0"/><stop style="stop-color:#a00;stop-opacity:0" offset="1"/></linearGradient><linearGradient id="i"><stop offset="0" style="stop-color:#737373;stop-opacity:1"/><stop offset=".262" style="stop-color:#636363;stop-opacity:1"/><stop offset=".705" style="stop-color:#4b4b4b;stop-opacity:1"/><stop offset="1" style="stop-color:#3f3f3f;stop-opacity:1"/></linearGradient><linearGradient xlink:href="#z" id="c" gradientUnits="userSpaceOnUse" gradientTransform="translate(-.37 -59.002) scale(1.2007)" x1="2.7" y1="296.505" x2="2.69" y2="291.933"/><linearGradient xlink:href="#z" id="d" gradientUnits="userSpaceOnUse" gradientTransform="translate(-.37 -59.002) scale(1.2007)" x1="2.7" y1="296.505" x2="2.69" y2="291.933"/><linearGradient xlink:href="#z" id="e" gradientUnits="userSpaceOnUse" gradientTransform="rotate(.427 178009.919 491.325) scale(4.53811)" x1="2.7" y1="296.505" x2="2.69" y2="291.933"/><linearGradient id="A"><stop offset="0" style="stop-color:#3689e6;stop-opacity:1"/><stop offset="1" style="stop-color:#0d52bf;stop-opacity:.97428107"/></linearGradient><linearGradient xlink:href="#A" id="E" x1="9.14" y1="2" x2="20.25" y2="20.5" gradientUnits="userSpaceOnUse"/><linearGradient xlink:href="#A" id="D" x1="11.547" y1="2" x2="1.75" y2="20.5" gradientUnits="userSpaceOnUse"/></defs><path style="fill:#b9cfe7;fill-opacity:1;stroke:none;stroke-width:1;stroke-linecap:butt;stroke-linejoin:round;stroke-miterlimit:4;stroke-dasharray:8.00001,3.99998999999999993;stroke-dashoffset:0;stroke-opacity:1" d="M1.75 2v18.137c1.92.367 3.9.573 5.729.025 2.166-.65 4.347-2.05 5.468-4.014.872-1.527.92-3.536.526-5.25-.607-2.638-2.183-5.175-4.258-6.914-1.37-1.148-3.206-1.836-4.988-1.97-.124-.01-.25-.01-.373-.014H1.75zm0 18.146v.354h2.854c-.95-.031-1.909-.172-2.854-.354z" transform="scale(.26458)"/><path style="fill:#b9cfe7;fill-opacity:1;stroke:none;stroke-width:1;stroke-linecap:butt;stroke-linejoin:round;stroke-miterlimit:4;stroke-dasharray:8.00001,3.99999;stroke-dashoffset:0;stroke-opacity:1" d="M7.96 2a9.19 9.19 0 0 1 1.897 1.219c2.251 1.886 3.93 4.585 4.59 7.455.437 1.897.42 4.13-.63 5.97-.999 1.75-2.645 3.032-4.43 3.856H20.25V2H7.96z" transform="scale(.26458)"/><path style="fill:none;fill-opacity:1;stroke:url(#D);stroke-width:1.00000002;stroke-linecap:butt;stroke-linejoin:round;stroke-miterlimit:4;stroke-dasharray:none;stroke-dashoffset:0;stroke-opacity:1" d="M1.75 2v18.137c1.92.367 3.9.573 5.729.025 2.166-.65 4.347-2.05 5.468-4.014.872-1.527.92-3.536.526-5.25-.607-2.638-2.183-5.175-4.258-6.914-1.37-1.148-3.206-1.836-4.988-1.97-.124-.01-.25-.01-.373-.014H1.75zm0 18.146v.354h2.854c-.95-.031-1.909-.172-2.854-.354z" transform="scale(.26458)"/><path style="fill:none;fill-opacity:1;stroke:url(#E);stroke-width:1.00000002;stroke-linecap:butt;stroke-linejoin:round;stroke-miterlimit:4;stroke-dasharray:none;stroke-dashoffset:0;stroke-opacity:1" d="M7.96 2a9.19 9.19 0 0 1 1.897 1.219c2.251 1.886 3.93 4.585 4.59 7.455.437 1.897.42 4.13-.63 5.97-.999 1.75-2.645 3.032-4.43 3.856H20.25V2H7.96z" transform="scale(.26458)"/></svg>