<svg xmlns="http://www.w3.org/2000/svg" width="22" height="22" viewBox="0 0 20.625 20.625"><g style="fill:#333;stroke:red;stroke-width:.98215002"><g style="clip-rule:evenodd"><g style="fill:#ff4343;fill-opacity:1"><g transform="matrix(.00144 -.00002 -.00003 -.00156 -.677 2.054)"><path d="M12013.36-278.335 2204.994-1590.728" style="fill:none;stroke:#abacae;stroke-width:1251.94384766;stroke-linecap:round;stroke-linejoin:miter;stroke-miterlimit:4;stroke-dasharray:none;stroke-opacity:1"/><path d="M2225.73-2217.24a626.035 626.035 0 0 0-103.753 1246.955l9808.365 1312.392a626.035 626.035 0 1 0 166.035-1240.884L2288.012-2211.17a626.035 626.035 0 0 0-62.282-6.07z" style="color:#000;font-style:normal;font-variant:normal;font-weight:400;font-stretch:normal;font-size:medium;line-height:normal;font-family:sans-serif;font-variant-ligatures:normal;font-variant-position:normal;font-variant-caps:normal;font-variant-numeric:normal;font-variant-alternates:normal;font-feature-settings:normal;text-indent:0;text-align:start;text-decoration:none;text-decoration-line:none;text-decoration-style:solid;text-decoration-color:#000;letter-spacing:normal;word-spacing:normal;text-transform:none;writing-mode:lr-tb;direction:ltr;text-orientation:mixed;dominant-baseline:auto;baseline-shift:baseline;text-anchor:start;white-space:normal;shape-padding:0;clip-rule:nonzero;display:inline;overflow:visible;visibility:visible;opacity:1;isolation:auto;mix-blend-mode:normal;color-interpolation:sRGB;color-interpolation-filters:linearRGB;solid-color:#000;solid-opacity:1;vector-effect:none;fill:none;fill-opacity:1;fill-rule:nonzero;stroke:#555761;stroke-width:625.97192383;stroke-linecap:round;stroke-linejoin:miter;stroke-miterlimit:4;stroke-dasharray:none;stroke-dashoffset:0;stroke-opacity:1;color-rendering:auto;image-rendering:auto;shape-rendering:auto;text-rendering:auto;enable-background:accumulate"/><path transform="matrix(646.48343 86.50175 87.05315 -594.46322 -459.295 -346.707)" d="M3.71 1.6a.96 1.043 4.284 0 0-.817 1.517.96 1.043 4.284 0 1 .884-.59H18.95a.96 1.043 4.284 0 1 .862.565.96 1.043 4.284 0 0-.862-1.492H3.777a.96 1.043 4.284 0 0-.066 0z" style="color:#000;font-style:normal;font-variant:normal;font-weight:400;font-stretch:normal;font-size:medium;line-height:normal;font-family:sans-serif;font-variant-ligatures:normal;font-variant-position:normal;font-variant-caps:normal;font-variant-numeric:normal;font-variant-alternates:normal;font-feature-settings:normal;text-indent:0;text-align:start;text-decoration:none;text-decoration-line:none;text-decoration-style:solid;text-decoration-color:#000;letter-spacing:normal;word-spacing:normal;text-transform:none;writing-mode:lr-tb;direction:ltr;text-orientation:mixed;dominant-baseline:auto;baseline-shift:baseline;text-anchor:start;white-space:normal;shape-padding:0;clip-rule:nonzero;display:inline;overflow:visible;visibility:visible;opacity:1;isolation:auto;mix-blend-mode:normal;color-interpolation:sRGB;color-interpolation-filters:linearRGB;solid-color:#000;solid-opacity:1;vector-effect:none;fill:#d4d4d4;fill-opacity:1;fill-rule:nonzero;stroke:none;stroke-width:2;stroke-linecap:round;stroke-linejoin:miter;stroke-miterlimit:4;stroke-dasharray:none;stroke-dashoffset:0;stroke-opacity:1;color-rendering:auto;image-rendering:auto;shape-rendering:auto;text-rendering:auto;enable-background:accumulate"/><g transform="translate(-248.678 -461.86)"><rect ry="379.921" rx="272.561" transform="matrix(.99117 .13262 .1449 -.98945 0 0)" y="666.389" x="11477.276" height="5099.998" width="1350.084" style="fill:#abacae;fill-opacity:1;stroke:none;stroke-width:965.64190674;stroke-linecap:round;stroke-linejoin:round;stroke-miterlimit:4;stroke-dasharray:none;stroke-opacity:1"/><rect style="fill:none;fill-opacity:1;stroke:#555761;stroke-width:625.99597168;stroke-linecap:round;stroke-linejoin:round;stroke-miterlimit:4;stroke-dasharray:none;stroke-opacity:1" width="1350.084" height="5099.998" x="11477.276" y="666.389" transform="matrix(.99117 .13262 .1449 -.98945 0 0)" rx="272.561" ry="379.921"/><path style="fill:#7e8087;fill-opacity:1;stroke:none;stroke-width:1.54256892;stroke-linecap:round;stroke-linejoin:round;stroke-miterlimit:4;stroke-dasharray:none;stroke-opacity:1" d="M18.371 7.883v.61c0 .35.185.634.416.634h1.236c.231 0 .416-.283.416-.635v-.61c0 .352-.185.636-.416.636h-1.236c-.23 0-.416-.284-.416-.635z" transform="matrix(646.48343 86.50175 87.05315 -594.46322 -459.295 -346.707)"/><path style="fill:#d4d4d4;fill-opacity:1;stroke:none;stroke-width:1.54256892;stroke-linecap:round;stroke-linejoin:round;stroke-miterlimit:4;stroke-dasharray:none;stroke-opacity:1" d="M18.787.639c-.23 0-.416.283-.416.634v.532c0-.352.185-.635.416-.635h1.236c.231 0 .416.283.416.635v-.532c0-.351-.185-.634-.416-.634z" transform="matrix(646.48343 86.50175 87.05315 -594.46322 -459.295 -346.707)"/></g><g transform="translate(-10071.796 -1776.227)"><rect style="fill:#abacae;fill-opacity:1;stroke:none;stroke-width:965.64190674;stroke-linecap:round;stroke-linejoin:round;stroke-miterlimit:4;stroke-dasharray:none;stroke-opacity:1" width="1350.084" height="5099.998" x="11477.276" y="666.389" transform="matrix(.99117 .13262 .1449 -.98945 0 0)" rx="272.561" ry="379.921"/><rect ry="379.921" rx="272.561" transform="matrix(.99117 .13262 .1449 -.98945 0 0)" y="666.389" x="11477.276" height="5099.998" width="1350.084" style="fill:none;fill-opacity:1;stroke:#555761;stroke-width:625.99597168;stroke-linecap:round;stroke-linejoin:round;stroke-miterlimit:4;stroke-dasharray:none;stroke-opacity:1"/><path transform="matrix(646.48343 86.50175 87.05315 -594.46322 -459.295 -346.707)" d="M18.371 7.883v.61c0 .35.185.634.416.634h1.236c.231 0 .416-.283.416-.635v-.61c0 .352-.185.636-.416.636h-1.236c-.23 0-.416-.284-.416-.635z" style="fill:#7e8087;fill-opacity:1;stroke:none;stroke-width:1.54256892;stroke-linecap:round;stroke-linejoin:round;stroke-miterlimit:4;stroke-dasharray:none;stroke-opacity:1"/><path transform="matrix(646.48343 86.50175 87.05315 -594.46322 -459.295 -346.707)" d="M18.787.639c-.23 0-.416.283-.416.634v.532c0-.352.185-.635.416-.635h1.236c.231 0 .416.283.416.635v-.532c0-.351-.185-.634-.416-.634z" style="fill:#d4d4d4;fill-opacity:1;stroke:none;stroke-width:1.54256892;stroke-linecap:round;stroke-linejoin:round;stroke-miterlimit:4;stroke-dasharray:none;stroke-opacity:1"/></g><rect rx="597.122" ry="546.324" transform="matrix(.99117 .13262 .1449 -.98945 0 0)" y="3624.952" x="940.618" height="7453.718" width="11886.741" style="fill:#c6262e;fill-opacity:1;stroke:none;stroke-width:1713.93383789;stroke-linecap:round;stroke-linejoin:round;stroke-miterlimit:4;stroke-dasharray:none;stroke-opacity:1"/><path transform="matrix(646.48343 86.50175 87.05315 -594.46322 -459.295 -346.707)" d="M2.217 15.686v1.37a.91.91 0 0 0 .912.913h16.398a.91.91 0 0 0 .912-.912v-1.371a.911.911 0 0 1-.912.914H3.13a.911.911 0 0 1-.912-.914z" style="fill:#a10705;fill-opacity:1;stroke:none;stroke-width:2.73793101;stroke-linecap:round;stroke-linejoin:round;stroke-miterlimit:4;stroke-dasharray:none;stroke-opacity:1"/><path d="M13699.134-6634.482c-144.683 987.998-1126.154 1667.65-2200.61 1523.885l-7440.71-995.594C2983.357-6249.956 2234.84-7161.088 2379.521-8149.085" style="fill:none;fill-opacity:1;stroke:#7a0000;stroke-width:625.97192383;stroke-linecap:round;stroke-linejoin:round;stroke-miterlimit:4;stroke-dasharray:none;stroke-opacity:1"/><path d="M2092.504-3390.154c-326.865-43.736-554.276-320.552-510.261-621.115l134.66-919.56c-44.014 300.563 183.397 577.379 510.262 621.114L12828.483-2891.22c326.865 43.736 625.051-162.753 669.065-463.317l-134.66 919.56c-44.014 300.564-342.201 507.053-669.065 463.317zm1850.5-1901.826c-1036.51-138.69-1823.937-922.33-1943.751-1865.33l73.79-503.9c119.815 943 907.242 1726.64 1943.752 1865.329l7439.61 995.446c1034.937 138.478 2010.225-401.384 2395.584-1272.872l-73.791 503.9c-385.359 871.488-1360.647 1411.35-2395.584 1272.872z" style="fill:#ed5353;fill-opacity:1;stroke:none;stroke-width:1713.86804199;stroke-linecap:round;stroke-linejoin:round;stroke-miterlimit:4;stroke-dasharray:none;stroke-opacity:1"/><path d="M4100.012-6416.901c-921.1-123.247-1529.487-878.775-1411.227-1686.349 30.443-186.735-110.437-357.59-299.553-363.261a313.003 313.003 0 0 0-208.902 72.672l63.42-433.076a313.001 313.001 0 0 1 208.902-72.672c189.116 5.672 329.996 176.527 299.552 363.262-118.26 807.574 490.127 1563.101 1411.228 1686.348l7439.61 995.446c921.104 123.247 1731.897-450.677 1850.159-1258.25 38.687-285.576 410.093-371.558 570.344-132.037l-63.42 433.076c-160.25-239.521-531.656-153.54-570.344 132.037-118.261 807.573-929.055 1381.497-1850.158 1258.25z" style="fill:#a10705;fill-opacity:1;stroke:none;stroke-width:1713.86804199;stroke-linecap:round;stroke-linejoin:round;stroke-miterlimit:4;stroke-dasharray:none;stroke-opacity:1"/><rect style="fill:none;fill-opacity:1;stroke:#7a0000;stroke-width:625.99597168;stroke-linecap:round;stroke-linejoin:round;stroke-miterlimit:4;stroke-dasharray:none;stroke-opacity:1" width="11886.741" height="7453.718" x="940.618" y="3624.952" transform="matrix(.99117 .13262 .1449 -.98945 0 0)" ry="546.324" rx="597.122"/><rect ry="598.617" rx="654.277" transform="matrix(.99117 .13262 .1449 -.98945 0 0)" y="4882.655" x="5457.204" height="3586.045" width="3077.78" style="fill:#abacae;fill-opacity:1;stroke:none;stroke-width:625.99597168;stroke-linecap:round;stroke-linejoin:round;stroke-miterlimit:4;stroke-dasharray:none;stroke-opacity:1"/><path transform="matrix(646.48343 86.50175 87.05315 -594.46322 -459.295 -346.707)" d="M10.14 7.656c-.553 0-1 .446-1 1V9.86c0-.554.447-1 1-1h2.72c.553 0 1 .446 1 1V8.656c0-.554-.447-1-1-1z" style="fill:#d4d4d4;fill-opacity:1;stroke:none;stroke-width:1;stroke-linecap:round;stroke-linejoin:round;stroke-miterlimit:4;stroke-dasharray:none;stroke-opacity:1"/><path transform="matrix(646.48343 86.50175 87.05315 -594.46322 -459.295 -346.707)" d="M9.14 11.328v1.297c0 .554.447 1 1 1h2.72c.553 0 1-.446 1-1v-1.297c0 .554-.447 1-1 1h-2.72c-.553 0-1-.446-1-1z" style="fill:#7e8087;fill-opacity:1;stroke:none;stroke-width:1;stroke-linecap:round;stroke-linejoin:round;stroke-miterlimit:4;stroke-dasharray:none;stroke-opacity:1"/><rect style="fill:none;fill-opacity:1;stroke:#555761;stroke-width:625.99597168;stroke-linecap:round;stroke-linejoin:round;stroke-miterlimit:4;stroke-dasharray:none;stroke-opacity:1" width="3077.78" height="3586.045" x="5457.204" y="4882.655" transform="matrix(.99117 .13262 .1449 -.98945 0 0)" rx="654.277" ry="598.617"/></g><path style="fill:#3689e6;fill-opacity:1;stroke:none;stroke-width:625.97192383;stroke-linecap:round;stroke-linejoin:round;stroke-miterlimit:4;stroke-dasharray:none;stroke-opacity:1" d="M16327.368-7907.473c-80.828 551.952-680.258 991.765-1572.491 1153.766-892.233 162-1941.717 21.575-2753.123-368.378-811.405-389.953-1261.459-970.19-1180.631-1522.144 80.828-551.953-369.226-1132.19-1180.632-1522.143-811.405-389.953-1860.89-530.378-2753.122-368.378-892.234 162-1491.664 601.813-1572.492 1153.766-80.828 551.953-680.258 991.766-1572.491 1153.766-892.233 162-1941.717 21.575-2753.123-368.378-811.405-389.953-1261.46-970.19-1180.63-1522.143l1236.94-4085.973s15871.333 2619.192 15940.837 2641.885c69.502 22.693-659.042 3654.354-659.042 3654.354z" transform="matrix(.00142 .0002 .0002 -.00155 .725 -.441)"/><path d="M16327.368-7907.473c-80.828 551.952-680.258 991.765-1572.491 1153.766-892.233 162-1941.717 21.575-2753.123-368.378-811.405-389.953-1261.459-970.19-1180.631-1522.144v0c80.828-551.953-369.226-1132.19-1180.632-1522.143-811.405-389.953-1860.89-530.378-2753.122-368.378-892.234 162-1491.664 601.813-1572.492 1153.766h0c-80.828 551.953-680.258 991.766-1572.491 1153.766-892.233 162-1941.717 21.575-2753.123-368.378-811.405-389.953-1261.46-970.19-1180.63-1522.143l1236.94-4085.973s15871.333 2619.192 15940.837 2641.885c69.502 22.693-659.042 3654.354-659.042 3654.354z" style="fill:none;fill-opacity:1;stroke:#0d52bf;stroke-width:625.97192383;stroke-linecap:round;stroke-linejoin:round;stroke-miterlimit:4;stroke-dasharray:none;stroke-opacity:1" transform="matrix(.00142 .0002 .0002 -.00155 .725 -.441)"/><path style="fill:#8cd5ff;fill-opacity:1;stroke:none;stroke-width:1;stroke-linecap:round;stroke-linejoin:round;stroke-miterlimit:4;stroke-dasharray:none;stroke-opacity:1" d="M2.494 13.582a6.47 6.47 0 0 0-2.129.348c-1.317.464-2.129 1.321-2.129 2.25l.131.947c.277-.675.986-1.264 1.998-1.621 1.318-.464 2.94-.464 4.258 0s2.129 1.321 2.129 2.25c0 .928.813 1.786 2.13 2.25 1.318.464 2.941.464 4.259 0 1.317-.464 2.129-1.322 2.129-2.25 0-.929.813-1.786 2.13-2.25 1.318-.464 2.94-.464 4.258 0s2.13 1.321 2.13 2.25c0 0 .13 2.772.185 4.6h.002c.11-.023-.188-6.176-.188-6.176 0-.929-.811-1.786-2.129-2.25-1.317-.465-2.94-.465-4.258 0-1.317.464-2.13 1.321-2.13 2.25 0 .928-.812 1.787-2.13 2.252-1.317.464-2.94.464-4.257 0-1.318-.465-2.131-1.324-2.131-2.252 0-.929-.811-1.786-2.129-2.25a6.47 6.47 0 0 0-2.129-.348z" transform="scale(.9375)"/></g></g></g></svg>