<svg viewBox="0 0 5.821 5.821" height="22" width="22" xmlns="http://www.w3.org/2000/svg"><defs><linearGradient id="a"><stop style="stop-color:#3689e6;stop-opacity:1" offset="0"/><stop style="stop-color:#64baff;stop-opacity:1" offset="1"/></linearGradient></defs><g transform="translate(-110.268 -123.547)"><circle r="1.885" cy="126.391" cx="113.179" style="fill:#c6262e;fill-opacity:1;stroke:none;stroke-width:.264583;stroke-linecap:round;stroke-linejoin:round;stroke-miterlimit:4;stroke-dasharray:none;stroke-opacity:1"/><path style="fill:#ed5353;fill-opacity:1;stroke:none;stroke-width:.264583;stroke-linecap:round;stroke-linejoin:round;stroke-miterlimit:4;stroke-dasharray:none;stroke-opacity:1" d="M111.304 126.585a1.885 1.885 0 0 1-.01-.194 1.885 1.885 0 0 1 1.885-1.885 1.885 1.885 0 0 1 1.884 1.885 1.885 1.885 0 0 1-.01.178 1.885 1.885 0 0 0-1.874-1.69 1.885 1.885 0 0 0-1.875 1.706z"/><path d="M111.304 126.198a1.885 1.885 0 0 0-.01.193 1.885 1.885 0 0 0 1.885 1.885 1.885 1.885 0 0 0 1.884-1.885 1.885 1.885 0 0 0-.01-.178 1.885 1.885 0 0 1-1.874 1.69 1.885 1.885 0 0 1-1.875-1.706z" style="fill:#a10705;fill-opacity:1;stroke:none;stroke-width:.264583;stroke-linecap:round;stroke-linejoin:round;stroke-miterlimit:4;stroke-dasharray:none;stroke-opacity:1"/><circle style="fill:none;fill-opacity:1;stroke:#7a0000;stroke-width:.264583;stroke-linecap:round;stroke-linejoin:round;stroke-miterlimit:4;stroke-dasharray:none;stroke-opacity:1" cx="113.179" cy="126.391" r="1.885"/></g></svg>