<?xml version="1.0" encoding="utf-8"?>
<!-- Generator: Adobe Illustrator 25.3.1, SVG Export Plug-In . SVG Version: 6.00 Build 0)  -->
<svg version="1.1" id="Layer_1" xmlns="http://www.w3.org/2000/svg" xmlns:xlink="http://www.w3.org/1999/xlink" x="0px" y="0px"
	 viewBox="0 0 500 500" style="enable-background:new 0 0 500 500;" xml:space="preserve">
<style type="text/css">
	
		.st0{fill:none;stroke:#241F31;stroke-width:28;stroke-linecap:round;stroke-miterlimit:10;stroke-dasharray:0,65.5635,0,65.5635,0,65.5635;}
	
		.st1{fill:none;stroke:#DAD9D9;stroke-width:17;stroke-linecap:round;stroke-miterlimit:10;stroke-dasharray:0,65.5635,0,65.5635,0,65.5635;}
	.st2{fill:#DAD9D9;}
	.st3{fill:#FFFFFF;}
	.st4{fill:#B3B3B3;}
	.st5{fill:none;stroke:#241F31;stroke-width:7;stroke-miterlimit:10;}
</style>
<g>
	<ellipse class="st0" cx="250" cy="250" rx="159.5" ry="153.5"/>
	<ellipse class="st1" cx="250" cy="250" rx="159.5" ry="153.5"/>
</g>
<circle class="st2" cx="251.54" cy="250" r="63.5"/>
<g>
	<path class="st3" d="M309.06,240.54c-0.69-7-3.59-13.4-7.7-18.76c-2.02-2.71-4.33-5.2-6.83-7.47c-2.49-2.28-5.14-4.39-7.94-6.27
		c-5.62-3.73-11.66-6.86-18.02-8.98c-6.31-2.21-12.96-3.52-19.45-3.37c-6.5,0.14-13.07,1.78-19.33,4.17
		c-6.28,2.4-12.23,5.7-17.76,9.61c-5.47,3.97-10.55,8.58-14.57,14.06c-4.05,5.43-7,11.81-7.67,18.81
		c-0.32-3.49,0.08-7.08,1.03-10.53c0.93-3.46,2.44-6.75,4.23-9.87c3.67-6.19,8.6-11.59,14.17-16.13c5.54-4.6,11.81-8.29,18.46-11.15
		c6.66-2.83,13.83-4.73,21.3-4.95c7.48-0.13,14.72,1.49,21.53,3.97c3.39,1.3,6.67,2.84,9.83,4.59c3.16,1.74,6.19,3.72,9.03,5.95
		c2.84,2.22,5.54,4.62,7.98,7.28c2.43,2.67,4.63,5.54,6.5,8.63c1.82,3.11,3.32,6.42,4.25,9.88
		C309.01,233.45,309.39,237.04,309.06,240.54z"/>
</g>
<g>
	<path class="st4" d="M190.36,260.4c0.69,7,3.6,13.39,7.71,18.76c2.02,2.71,4.33,5.2,6.83,7.47c2.49,2.28,5.14,4.39,7.94,6.27
		c5.61,3.74,11.66,6.86,18.02,8.98c6.32,2.18,12.95,3.49,19.45,3.39c6.51-0.1,13.08-1.79,19.33-4.17c6.27-2.4,12.24-5.7,17.76-9.61
		c5.47-3.97,10.55-8.58,14.57-14.06c4.04-5.43,7-11.81,7.66-18.81c0.32,3.49-0.09,7.08-1.03,10.53c-0.93,3.46-2.44,6.75-4.23,9.86
		c-3.67,6.19-8.6,11.59-14.17,16.13c-5.55,4.59-11.81,8.29-18.45,11.15c-3.32,1.44-6.79,2.57-10.35,3.43
		c-3.56,0.85-7.22,1.41-10.95,1.51c-7.48,0.17-14.74-1.44-21.53-3.96c-3.39-1.3-6.67-2.84-9.83-4.59c-3.16-1.75-6.2-3.72-9.03-5.95
		c-2.84-2.22-5.54-4.63-7.98-7.28c-2.43-2.67-4.63-5.54-6.5-8.63c-1.82-3.11-3.32-6.42-4.25-9.88
		C190.4,267.49,190.02,263.9,190.36,260.4z"/>
</g>
<circle class="st5" cx="249.42" cy="251.76" r="63.5"/>
</svg>
