<svg viewBox="0 0 5.821 5.821" height="22" width="22" xmlns:xlink="http://www.w3.org/1999/xlink" xmlns="http://www.w3.org/2000/svg"><defs><linearGradient id="ai"><stop offset="0" style="stop-color:#fff;stop-opacity:1"/><stop offset=".438" style="stop-color:#fff;stop-opacity:.23529412"/><stop offset=".623" style="stop-color:#fff;stop-opacity:.15686275"/><stop offset="1" style="stop-color:#fff;stop-opacity:.39215687"/></linearGradient><linearGradient id="Y"><stop offset="0" style="stop-color:#fff;stop-opacity:1"/><stop offset=".325" style="stop-color:#fff;stop-opacity:.23529412"/><stop offset=".499" style="stop-color:#fff;stop-opacity:.15686275"/><stop offset="1" style="stop-color:#fff;stop-opacity:.39215687"/></linearGradient><linearGradient id="z"><stop style="stop-color:#efdfc4;stop-opacity:1" offset="0"/><stop style="stop-color:#e9c998;stop-opacity:1" offset="1"/></linearGradient><linearGradient id="r"><stop offset="0" style="stop-color:#3689e6;stop-opacity:1"/><stop offset="1" style="stop-color:#64baff;stop-opacity:1"/></linearGradient><linearGradient y2="-2.197" x2="13.071" y1="19.627" x1="13.013" gradientUnits="userSpaceOnUse" id="as" xlink:href="#r"/><linearGradient y2="0" x2="15.94" y1="20.63" x1="15.897" gradientUnits="userSpaceOnUse" id="at" xlink:href="#r"/><linearGradient id="s"><stop style="stop-color:#fff;stop-opacity:1" offset="0"/><stop style="stop-color:#fff;stop-opacity:.23529412" offset="0"/><stop style="stop-color:#fff;stop-opacity:.15686275" offset="1"/><stop style="stop-color:#fff;stop-opacity:.39215687" offset="1"/></linearGradient><linearGradient id="t"><stop offset="0" style="stop-color:#f4f4f4;stop-opacity:1"/><stop offset="1" style="stop-color:#dbdbdb;stop-opacity:1"/></linearGradient><linearGradient id="a"><stop offset="0" style="stop-color:#000;stop-opacity:1"/><stop offset="1" style="stop-color:#000;stop-opacity:0"/></linearGradient><linearGradient id="u"><stop offset="0" style="stop-color:#000;stop-opacity:0"/><stop offset=".5" style="stop-color:#000;stop-opacity:1"/><stop offset="1" style="stop-color:#000;stop-opacity:0"/></linearGradient><linearGradient id="v"><stop style="stop-color:#000;stop-opacity:.31782946" offset="0"/><stop style="stop-color:#000;stop-opacity:.24031007" offset="1"/></linearGradient><linearGradient id="b"><stop style="stop-color:#cdf87e;stop-opacity:1" offset="0"/><stop style="stop-color:#a2e34f;stop-opacity:1" offset=".262"/><stop style="stop-color:#68b723;stop-opacity:1" offset=".661"/><stop style="stop-color:#1d7e0d;stop-opacity:1" offset="1"/></linearGradient><linearGradient id="x"><stop offset="0" style="stop-color:#fff;stop-opacity:1"/><stop offset=".003" style="stop-color:#fff;stop-opacity:.23529412"/><stop offset=".99" style="stop-color:#fff;stop-opacity:.15686275"/><stop offset="1" style="stop-color:#fff;stop-opacity:.39215687"/></linearGradient><linearGradient id="w"><stop offset="0" style="stop-color:#f9f9f9;stop-opacity:1"/><stop offset="1" style="stop-color:#d8d8d8;stop-opacity:1"/></linearGradient><linearGradient id="y"><stop offset="0" style="stop-color:#fff;stop-opacity:1"/><stop offset=".024" style="stop-color:#fff;stop-opacity:.23529412"/><stop offset=".979" style="stop-color:#fff;stop-opacity:.15686275"/><stop offset="1" style="stop-color:#fff;stop-opacity:.39215687"/></linearGradient><linearGradient id="A"><stop offset="0" style="stop-color:#efdfc4;stop-opacity:1"/><stop offset="1" style="stop-color:#e7c591;stop-opacity:1"/></linearGradient><linearGradient y2="130.485" x2="413.606" y1="8.127" x1="413.606" gradientTransform="matrix(.06274 0 0 .0614 -17.463 13.153)" gradientUnits="userSpaceOnUse" id="au" xlink:href="#A"/><linearGradient y2="23.727" x2="63.344" y1="20.874" x1="63.378" gradientTransform="translate(-17.508 6.285) scale(.3437)" gradientUnits="userSpaceOnUse" id="av" xlink:href="#w"/><linearGradient id="d"><stop style="stop-color:#a60101;stop-opacity:1" offset="0"/><stop style="stop-color:#5f0101;stop-opacity:1" offset="1"/></linearGradient><linearGradient id="B"><stop style="stop-color:#444;stop-opacity:1" offset="0"/><stop style="stop-color:#9e9e9e;stop-opacity:1" offset="1"/></linearGradient><linearGradient id="c"><stop style="stop-color:#d1d1d1;stop-opacity:1" offset="0"/><stop style="stop-color:#eaeaea;stop-opacity:1" offset="1"/></linearGradient><linearGradient id="C"><stop style="stop-color:#fff;stop-opacity:1" offset="0"/><stop style="stop-color:#fff;stop-opacity:0" offset="1"/></linearGradient><linearGradient id="e"><stop style="stop-color:#f8b17e;stop-opacity:1" offset="0"/><stop style="stop-color:#e35d4f;stop-opacity:1" offset=".262"/><stop style="stop-color:#c6262e;stop-opacity:1" offset=".661"/><stop style="stop-color:#690b54;stop-opacity:1" offset="1"/></linearGradient><linearGradient id="D"><stop style="stop-color:#791235;stop-opacity:1" offset="0"/><stop style="stop-color:#dd3b27;stop-opacity:1" offset="1"/></linearGradient><linearGradient id="E"><stop style="stop-color:#000;stop-opacity:.33950618" offset="0"/><stop style="stop-color:#000;stop-opacity:.24691358" offset="1"/></linearGradient><linearGradient id="F"><stop style="stop-color:#fff;stop-opacity:1" offset="0"/><stop style="stop-color:#fff;stop-opacity:.23529412" offset=".512"/><stop style="stop-color:#fff;stop-opacity:.15686275" offset=".585"/><stop style="stop-color:#fff;stop-opacity:.39215687" offset="1"/></linearGradient><linearGradient id="G"><stop style="stop-color:#e2b369;stop-opacity:1" offset="0"/><stop style="stop-color:#c79b55;stop-opacity:1" offset="1"/></linearGradient><linearGradient id="H"><stop offset="0" style="stop-color:#fff;stop-opacity:1"/><stop offset=".062" style="stop-color:#fff;stop-opacity:.23529412"/><stop offset=".963" style="stop-color:#fff;stop-opacity:.15686275"/><stop offset="1" style="stop-color:#fff;stop-opacity:.39215687"/></linearGradient><linearGradient id="J"><stop offset="0" style="stop-color:#fff3cb;stop-opacity:1"/><stop offset=".262" style="stop-color:#fdde76;stop-opacity:1"/><stop offset=".661" style="stop-color:#f9c440;stop-opacity:1"/><stop offset="1" style="stop-color:#e48b20;stop-opacity:1"/></linearGradient><linearGradient id="K"><stop style="stop-color:#fafafa;stop-opacity:1" offset="0"/><stop style="stop-color:#fff;stop-opacity:0" offset="1"/></linearGradient><linearGradient id="P"><stop offset="0" style="stop-color:#9bdb4d;stop-opacity:1"/><stop offset="1" style="stop-color:#68b723;stop-opacity:1"/></linearGradient><linearGradient id="L"><stop style="stop-color:#fff5ef;stop-opacity:1" offset="0"/><stop style="stop-color:#fef8dd;stop-opacity:1" offset="1"/></linearGradient><linearGradient id="M"><stop style="stop-color:#fff;stop-opacity:1" offset="0"/><stop style="stop-color:#fff;stop-opacity:.23529412" offset=".063"/><stop style="stop-color:#fff;stop-opacity:.15686275" offset=".951"/><stop style="stop-color:#fff;stop-opacity:.39215687" offset="1"/></linearGradient><linearGradient id="f"><stop style="stop-color:#ffcd7d;stop-opacity:1" offset="0"/><stop style="stop-color:#fc8f36;stop-opacity:1" offset=".262"/><stop style="stop-color:#e23a0e;stop-opacity:1" offset=".705"/><stop style="stop-color:#ac441f;stop-opacity:1" offset="1"/></linearGradient><linearGradient id="g"><stop style="stop-color:#181818;stop-opacity:1" offset="0"/><stop style="stop-color:#181818;stop-opacity:0" offset="1"/></linearGradient><linearGradient id="N"><stop style="stop-color:#181818;stop-opacity:0" offset="0"/><stop style="stop-color:#181818;stop-opacity:1" offset=".5"/><stop style="stop-color:#181818;stop-opacity:0" offset="1"/></linearGradient><linearGradient id="h"><stop offset="0" style="stop-color:#d1ff82;stop-opacity:1"/><stop offset=".262" style="stop-color:#9bdb4d;stop-opacity:1"/><stop offset=".661" style="stop-color:#68b723;stop-opacity:1"/><stop offset="1" style="stop-color:#3a9104;stop-opacity:1"/></linearGradient><linearGradient id="O"><stop offset="0" style="stop-color:#fff;stop-opacity:1"/><stop offset=".333" style="stop-color:#fff;stop-opacity:.23529412"/><stop offset=".951" style="stop-color:#fff;stop-opacity:.15686275"/><stop offset="1" style="stop-color:#fff;stop-opacity:.39215687"/></linearGradient><linearGradient id="i"><stop offset="0" style="stop-color:#8cd5ff;stop-opacity:1"/><stop offset=".262" style="stop-color:#64baff;stop-opacity:1"/><stop offset=".705" style="stop-color:#3689e6;stop-opacity:1"/><stop offset="1" style="stop-color:#0d52bf;stop-opacity:1"/></linearGradient><linearGradient y2="-12.319" x2="32.973" y1="-12.359" x1="28.189" gradientTransform="matrix(1.08451 0 0 1 -2.654 0)" gradientUnits="userSpaceOnUse" id="aw" xlink:href="#P"/><linearGradient y2="-15.428" x2="33.225" y1="-15.49" x1="29.528" gradientTransform="matrix(1.08451 0 0 1 -2.654 0)" gradientUnits="userSpaceOnUse" id="ax" xlink:href="#P"/><linearGradient y2="-18.669" x2="33.809" y1="-18.621" x1="26.65" gradientTransform="matrix(1.08451 0 0 1 -2.654 0)" gradientUnits="userSpaceOnUse" id="ay" xlink:href="#P"/><linearGradient y2="-21.71" x2="34.488" y1="-21.753" x1="25.133" gradientTransform="matrix(1.08451 0 0 1 -2.654 0)" gradientUnits="userSpaceOnUse" id="az" xlink:href="#P"/><linearGradient id="Q"><stop style="stop-color:#fafafa;stop-opacity:1" offset="0"/><stop style="stop-color:#e2e1de;stop-opacity:1" offset="1"/></linearGradient><linearGradient id="X"><stop style="stop-color:#fff;stop-opacity:1" offset="0"/><stop style="stop-color:#fff;stop-opacity:.23529412" offset=".038"/><stop style="stop-color:#fff;stop-opacity:.15686275" offset=".926"/><stop style="stop-color:#fff;stop-opacity:.39215687" offset="1"/></linearGradient><linearGradient id="T"><stop offset="0" style="stop-color:#000;stop-opacity:1"/><stop offset="1" style="stop-color:#000;stop-opacity:.47402596"/></linearGradient><linearGradient id="S"><stop offset="0" style="stop-color:#fff;stop-opacity:1"/><stop offset=".038" style="stop-color:#fff;stop-opacity:.23529412"/><stop offset=".885" style="stop-color:#fff;stop-opacity:.15686275"/><stop offset="1" style="stop-color:#fff;stop-opacity:.39215687"/></linearGradient><linearGradient id="R"><stop offset="0" style="stop-color:#fff;stop-opacity:1"/><stop offset=".038" style="stop-color:#fff;stop-opacity:.23529412"/><stop offset=".967" style="stop-color:#fff;stop-opacity:.15686275"/><stop offset="1" style="stop-color:#fff;stop-opacity:.39215687"/></linearGradient><linearGradient id="U"><stop offset="0" style="stop-color:#918e88;stop-opacity:1"/><stop offset="1" style="stop-color:#605c58;stop-opacity:1"/></linearGradient><linearGradient id="W"><stop offset="0" style="stop-color:#5e5750;stop-opacity:1"/><stop offset="1" style="stop-color:#756d65;stop-opacity:1"/></linearGradient><linearGradient id="V"><stop offset="0" style="stop-color:#dad7bd;stop-opacity:1"/><stop offset="1" style="stop-color:#e8e5d4;stop-opacity:1"/></linearGradient><linearGradient id="af"><stop offset="0" style="stop-color:#c6f27b;stop-opacity:1"/><stop offset="1" style="stop-color:#93d049;stop-opacity:1"/></linearGradient><linearGradient id="ae"><stop offset="0" style="stop-color:#c396eb;stop-opacity:1"/><stop offset="1" style="stop-color:#9d68d7;stop-opacity:1"/></linearGradient><linearGradient id="aa"><stop offset="0" style="stop-color:#fff;stop-opacity:1"/><stop offset=".002" style="stop-color:#fff;stop-opacity:.23529412"/><stop offset=".392" style="stop-color:#fff;stop-opacity:.15686275"/><stop offset="1" style="stop-color:#fff;stop-opacity:.39215687"/></linearGradient><linearGradient id="ab"><stop offset="0" style="stop-color:#ffa154;stop-opacity:1"/><stop offset="1" style="stop-color:#cc3b02;stop-opacity:1"/></linearGradient><linearGradient id="ad"><stop style="stop-color:#93d049;stop-opacity:1" offset="0"/><stop style="stop-color:#378a04;stop-opacity:1" offset="1"/></linearGradient><linearGradient id="ac"><stop offset="0" style="stop-color:#fff;stop-opacity:1"/><stop offset=".063" style="stop-color:#fff;stop-opacity:.23529412"/><stop offset=".951" style="stop-color:#fff;stop-opacity:.15686275"/><stop offset="1" style="stop-color:#fff;stop-opacity:.39215687"/></linearGradient><linearGradient y2="55.669" x2="176.621" y1="194.856" x1="61.558" gradientUnits="userSpaceOnUse" id="aA" xlink:href="#ae"/><linearGradient y2="228.819" x2="133.458" y1="22.77" x1="128.265" gradientUnits="userSpaceOnUse" id="aB" xlink:href="#af"/><linearGradient id="ag"><stop style="stop-color:#f282f1;stop-opacity:1" offset="0"/><stop style="stop-color:#a56de2;stop-opacity:1" offset="1"/></linearGradient><linearGradient id="ah"><stop offset="0" style="stop-color:#770087;stop-opacity:1"/><stop offset="1" style="stop-color:#452981;stop-opacity:1"/></linearGradient><linearGradient id="al"><stop style="stop-color:#fff;stop-opacity:1" offset="0"/><stop style="stop-color:#fff;stop-opacity:.23529412" offset="0"/><stop style="stop-color:#fff;stop-opacity:.15686275" offset="1"/><stop style="stop-color:#fff;stop-opacity:.39215687" offset="1"/></linearGradient><linearGradient id="ak"><stop offset="0" style="stop-color:#fff;stop-opacity:1"/><stop offset=".035" style="stop-color:#fff;stop-opacity:.23529412"/><stop offset=".964" style="stop-color:#fff;stop-opacity:.15686275"/><stop offset="1" style="stop-color:#fff;stop-opacity:.39215687"/></linearGradient><linearGradient id="n"><stop style="stop-color:#90dbec;stop-opacity:1" offset="0"/><stop style="stop-color:#55c1ec;stop-opacity:1" offset=".262"/><stop style="stop-color:#3689e6;stop-opacity:1" offset=".705"/><stop style="stop-color:#2b63a0;stop-opacity:1" offset="1"/></linearGradient><linearGradient id="am"><stop style="stop-color:#feaf9d;stop-opacity:1" offset="0"/><stop style="stop-color:#7f4a98;stop-opacity:1" offset="1"/></linearGradient><linearGradient id="o"><stop style="stop-color:#ffe6ab;stop-opacity:1" offset="0"/><stop offset=".82" style="stop-color:#ffea8a;stop-opacity:.63921571"/><stop style="stop-color:#e6ff4d;stop-opacity:0" offset="1"/></linearGradient><linearGradient id="an"><stop offset="0" style="stop-color:#fff;stop-opacity:1"/><stop offset=".508" style="stop-color:#fff;stop-opacity:.23529412"/><stop offset=".835" style="stop-color:#fff;stop-opacity:.15686275"/><stop offset="1" style="stop-color:#fff;stop-opacity:.39215687"/></linearGradient><linearGradient id="p"><stop offset="0" style="stop-color:#f89b7e;stop-opacity:1"/><stop offset=".262" style="stop-color:#e35d4f;stop-opacity:1"/><stop offset=".661" style="stop-color:#c6262e;stop-opacity:1"/><stop offset="1" style="stop-color:#690b2c;stop-opacity:1"/></linearGradient><linearGradient id="ao"><stop style="stop-color:#fff;stop-opacity:1" offset="0"/><stop style="stop-color:#fff;stop-opacity:.23529412" offset=".012"/><stop style="stop-color:#fff;stop-opacity:.15686275" offset=".988"/><stop style="stop-color:#fff;stop-opacity:.39215687" offset="1"/></linearGradient><linearGradient id="ar"><stop style="stop-color:#a00" offset="0"/><stop style="stop-color:#a00;stop-opacity:0" offset="1"/></linearGradient><linearGradient id="q"><stop offset="0" style="stop-color:#737373;stop-opacity:1"/><stop offset=".262" style="stop-color:#636363;stop-opacity:1"/><stop offset=".705" style="stop-color:#4b4b4b;stop-opacity:1"/><stop offset="1" style="stop-color:#3f3f3f;stop-opacity:1"/></linearGradient><radialGradient cx="23.896" cy="3.99" r="20.397" id="I" gradientUnits="userSpaceOnUse" gradientTransform="matrix(0 1.23165 -1.62575 0 18.487 -28.722)"><stop style="stop-color:#fff;stop-opacity:1" offset="0"/><stop style="stop-color:#ddd;stop-opacity:1" offset=".066"/><stop style="stop-color:#abacae;stop-opacity:1" offset=".661"/><stop style="stop-color:#89898b;stop-opacity:1" offset="1"/></radialGradient><radialGradient gradientTransform="matrix(0 1.23165 -1.62575 0 18.487 -28.722)" gradientUnits="userSpaceOnUse" id="j" r="20.397" cy="3.99" cx="23.896"><stop offset="0" style="stop-color:#fff;stop-opacity:1"/><stop offset=".262" style="stop-color:#ddd;stop-opacity:1"/><stop offset=".661" style="stop-color:#abacae;stop-opacity:1"/><stop offset="1" style="stop-color:#89898b;stop-opacity:1"/></radialGradient><radialGradient gradientTransform="matrix(0 1.23165 -1.62575 0 18.487 -28.722)" gradientUnits="userSpaceOnUse" id="Z" r="20.397" cy="3.99" cx="23.896"><stop offset="0" style="stop-color:#fff;stop-opacity:1"/><stop offset=".066" style="stop-color:#ddd;stop-opacity:1"/><stop offset=".661" style="stop-color:#abacae;stop-opacity:1"/><stop offset="1" style="stop-color:#89898b;stop-opacity:1"/></radialGradient><radialGradient cx="23.896" cy="3.99" r="20.397" id="k" gradientUnits="userSpaceOnUse" gradientTransform="matrix(0 1.23165 -1.62575 0 18.487 -28.722)"><stop style="stop-color:#fff;stop-opacity:1" offset="0"/><stop style="stop-color:#ddd;stop-opacity:1" offset=".262"/><stop style="stop-color:#abacae;stop-opacity:1" offset=".661"/><stop style="stop-color:#89898b;stop-opacity:1" offset="1"/></radialGradient><radialGradient cx="23.896" cy="3.99" r="20.397" id="aj" gradientUnits="userSpaceOnUse" gradientTransform="matrix(0 1.23165 -1.62575 0 18.487 -28.722)"><stop style="stop-color:#fff;stop-opacity:1" offset="0"/><stop style="stop-color:#ddd;stop-opacity:1" offset=".066"/><stop style="stop-color:#abacae;stop-opacity:1" offset=".661"/><stop style="stop-color:#89898b;stop-opacity:1" offset="1"/></radialGradient><radialGradient gradientTransform="matrix(0 1.23165 -1.62575 0 18.487 -28.722)" gradientUnits="userSpaceOnUse" id="l" r="20.397" cy="3.99" cx="23.896"><stop offset="0" style="stop-color:#fff;stop-opacity:1"/><stop offset=".262" style="stop-color:#ddd;stop-opacity:1"/><stop offset=".661" style="stop-color:#abacae;stop-opacity:1"/><stop offset="1" style="stop-color:#89898b;stop-opacity:1"/></radialGradient><radialGradient cx="23.896" cy="3.99" r="20.397" id="m" gradientUnits="userSpaceOnUse" gradientTransform="matrix(0 1.23165 -1.62575 0 18.487 -28.722)"><stop style="stop-color:#fff;stop-opacity:1" offset="0"/><stop style="stop-color:#ddd;stop-opacity:1" offset=".262"/><stop style="stop-color:#abacae;stop-opacity:1" offset=".661"/><stop style="stop-color:#89898b;stop-opacity:1" offset="1"/></radialGradient><radialGradient cx="23.896" cy="3.99" r="20.397" id="ap" gradientUnits="userSpaceOnUse" gradientTransform="matrix(0 1.23165 -1.62575 0 18.487 -28.722)"><stop style="stop-color:#fff;stop-opacity:1" offset="0"/><stop style="stop-color:#ddd;stop-opacity:1" offset=".066"/><stop style="stop-color:#abacae;stop-opacity:1" offset=".661"/><stop style="stop-color:#89898b;stop-opacity:1" offset="1"/></radialGradient><radialGradient cx="23.896" cy="3.99" r="20.397" id="aq" gradientUnits="userSpaceOnUse" gradientTransform="matrix(0 1.23165 -1.62575 0 18.487 -28.722)"><stop style="stop-color:#fff;stop-opacity:1" offset="0"/><stop style="stop-color:#ddd;stop-opacity:1" offset=".066"/><stop style="stop-color:#abacae;stop-opacity:1" offset=".661"/><stop style="stop-color:#89898b;stop-opacity:1" offset="1"/></radialGradient></defs><path style="fill:none;stroke:#f37329;stroke-width:.529167;stroke-linecap:round;stroke-linejoin:miter;stroke-miterlimit:4;stroke-dasharray:none;stroke-opacity:1" d="m140.777 197.287-1.255 1.255" transform="translate(-135.638 -196.474)"/><path style="fill:none;fill-opacity:1;stroke:#f37329;stroke-width:.529167;stroke-linecap:round;stroke-linejoin:round;stroke-miterlimit:4;stroke-dasharray:none;stroke-opacity:1;paint-order:stroke markers fill;stop-color:#000" d="m139.814 197.267.963.02.02.963" transform="translate(-135.638 -196.474)"/><path style="fill:none;stroke:#f37329;stroke-width:.529167;stroke-linecap:round;stroke-linejoin:miter;stroke-miterlimit:4;stroke-dasharray:none;stroke-opacity:1" d="m136.318 197.288 1.256 1.255" transform="translate(-135.638 -196.474)"/><path style="fill:none;fill-opacity:1;stroke:#f37329;stroke-width:.529167;stroke-linecap:round;stroke-linejoin:round;stroke-miterlimit:4;stroke-dasharray:none;stroke-opacity:1;paint-order:stroke markers fill;stop-color:#000" d="m136.3 198.25.018-.962.963-.02" transform="translate(-135.638 -196.474)"/><path style="color:#000;font-style:normal;font-variant:normal;font-weight:400;font-stretch:normal;font-size:medium;line-height:normal;font-family:sans-serif;font-variant-ligatures:normal;font-variant-position:normal;font-variant-caps:normal;font-variant-numeric:normal;font-variant-alternates:normal;font-variant-east-asian:normal;font-feature-settings:normal;font-variation-settings:normal;text-indent:0;text-align:start;text-decoration:none;text-decoration-line:none;text-decoration-style:solid;text-decoration-color:#000;letter-spacing:normal;word-spacing:normal;text-transform:none;writing-mode:lr-tb;direction:ltr;text-orientation:mixed;dominant-baseline:auto;baseline-shift:baseline;text-anchor:start;white-space:normal;shape-padding:0;shape-margin:0;inline-size:0;clip-rule:nonzero;display:inline;overflow:visible;visibility:visible;isolation:auto;mix-blend-mode:normal;color-interpolation:sRGB;color-interpolation-filters:linearRGB;solid-color:#000;solid-opacity:1;vector-effect:none;fill:#ffc27d;fill-opacity:1;fill-rule:nonzero;stroke:none;stroke-width:.264583;stroke-linecap:round;stroke-linejoin:round;stroke-miterlimit:4;stroke-dasharray:none;stroke-dashoffset:0;stroke-opacity:1;color-rendering:auto;image-rendering:auto;shape-rendering:auto;text-rendering:auto;enable-background:accumulate;stop-color:#000" d="m137.277 197.003-.945.02a.265.265 0 0 0-.063.004.265.265 0 0 0-.022.005.265.265 0 0 0-.017.005.265.265 0 0 0-.004.001.265.265 0 0 0-.007.003.265.265 0 0 0-.014.006.265.265 0 0 0-.007.003.265.265 0 0 0-.013.007.265.265 0 0 0-.018.012.265.265 0 0 0-.014.01.265.265 0 0 0-.01.01.265.265 0 0 0-.01.008v.001a.265.265 0 0 0-.012.012.265.265 0 0 0-.005.007.265.265 0 0 0-.013.018.265.265 0 0 0-.011.017.265.265 0 0 0-.003.005.265.265 0 0 0-.01.016.265.265 0 0 0-.008.02.265.265 0 0 0-.007.022.265.265 0 0 0-.005.022.265.265 0 0 0-.004.021.265.265 0 0 0-.002.025l-.018.963a.265.265 0 0 0 .07.185.198.198 0 0 0 .127-.182l.02-.963a.198.198 0 0 0 0-.002v-.002a.198.198 0 0 0 .002-.01c0-.001 0-.004.002-.006v-.002c0-.002.003-.003.004-.006a.198.198 0 0 0 .002-.006v-.002l.002-.002a.198.198 0 0 0 0-.002h.002v-.002h.002l.002-.002v-.002l.002-.002a.198.198 0 0 0 .002-.002l.002-.002a.198.198 0 0 0 .002 0s0-.002.002-.002l.004-.004h.002s0-.002.002-.002h.004a.198.198 0 0 0 .002-.002l.004-.002h.004a.198.198 0 0 0 .008-.002h.015a.198.198 0 0 0 .011 0l.946-.02a.198.198 0 0 0 .18-.127.265.265 0 0 0-.184-.071zm-.959.161h.002l-.004.006a.198.198 0 0 0 .002-.006z" transform="translate(-135.638 -196.474)"/><path style="color:#000;font-style:normal;font-variant:normal;font-weight:400;font-stretch:normal;font-size:medium;line-height:normal;font-family:sans-serif;font-variant-ligatures:normal;font-variant-position:normal;font-variant-caps:normal;font-variant-numeric:normal;font-variant-alternates:normal;font-variant-east-asian:normal;font-feature-settings:normal;font-variation-settings:normal;text-indent:0;text-align:start;text-decoration:none;text-decoration-line:none;text-decoration-style:solid;text-decoration-color:#000;letter-spacing:normal;word-spacing:normal;text-transform:none;writing-mode:lr-tb;direction:ltr;text-orientation:mixed;dominant-baseline:auto;baseline-shift:baseline;text-anchor:start;white-space:normal;shape-padding:0;shape-margin:0;inline-size:0;clip-rule:nonzero;display:inline;overflow:visible;visibility:visible;isolation:auto;mix-blend-mode:normal;color-interpolation:sRGB;color-interpolation-filters:linearRGB;solid-color:#000;solid-opacity:1;vector-effect:none;fill:none;fill-opacity:1;fill-rule:nonzero;stroke:#a62100;stroke-width:.264583;stroke-linecap:round;stroke-linejoin:round;stroke-miterlimit:4;stroke-dasharray:none;stroke-dashoffset:0;stroke-opacity:1;color-rendering:auto;image-rendering:auto;shape-rendering:auto;text-rendering:auto;enable-background:accumulate;stop-color:#000" d="M136.133 197.098a.265.265 0 0 0-.012.012.265.265 0 0 0-.005.007.265.265 0 0 0-.013.017.265.265 0 0 0-.011.017.265.265 0 0 0-.003.005.265.265 0 0 0-.01.017.265.265 0 0 0-.008.02.265.265 0 0 0-.007.021.265.265 0 0 0-.005.022.265.265 0 0 0-.004.022.265.265 0 0 0-.002.025l-.018.963a.265.265 0 0 0 .258.269.265.265 0 0 0 .27-.258l.007-.345.816.817a.265.265 0 0 0 .374.001.265.265 0 0 0 0-.376l-.815-.815.342-.007a.265.265 0 0 0 .26-.27.265.265 0 0 0-.27-.259l-.945.02a.265.265 0 0 0-.063.004.265.265 0 0 0-.022.005.265.265 0 0 0-.017.005.265.265 0 0 0-.004.001.265.265 0 0 0-.007.003.265.265 0 0 0-.013.006.265.265 0 0 0-.007.003.265.265 0 0 0-.013.007.265.265 0 0 0 0 0 .265.265 0 0 0-.019.012.265.265 0 0 0-.013.01.265.265 0 0 0-.01.01.265.265 0 0 0-.011.008z" transform="translate(-135.638 -196.474)"/><path style="fill:none;stroke:#f37329;stroke-width:.529167;stroke-linecap:round;stroke-linejoin:miter;stroke-miterlimit:4;stroke-dasharray:none;stroke-opacity:1" d="m136.318 201.745 1.256-1.255" transform="translate(-135.638 -196.474)"/><path style="fill:none;fill-opacity:1;stroke:#f37329;stroke-width:.529167;stroke-linecap:round;stroke-linejoin:round;stroke-miterlimit:4;stroke-dasharray:none;stroke-opacity:1;paint-order:stroke markers fill;stop-color:#000" d="m136.3 200.782.018.963.963.02" transform="translate(-135.638 -196.474)"/><path style="color:#000;font-style:normal;font-variant:normal;font-weight:400;font-stretch:normal;font-size:medium;line-height:normal;font-family:sans-serif;font-variant-ligatures:normal;font-variant-position:normal;font-variant-caps:normal;font-variant-numeric:normal;font-variant-alternates:normal;font-variant-east-asian:normal;font-feature-settings:normal;font-variation-settings:normal;text-indent:0;text-align:start;text-decoration:none;text-decoration-line:none;text-decoration-style:solid;text-decoration-color:#000;letter-spacing:normal;word-spacing:normal;text-transform:none;writing-mode:lr-tb;direction:ltr;text-orientation:mixed;dominant-baseline:auto;baseline-shift:baseline;text-anchor:start;white-space:normal;shape-padding:0;shape-margin:0;inline-size:0;clip-rule:nonzero;display:inline;overflow:visible;visibility:visible;isolation:auto;mix-blend-mode:normal;color-interpolation:sRGB;color-interpolation-filters:linearRGB;solid-color:#000;solid-opacity:1;vector-effect:none;fill:#ffc27d;fill-opacity:1;fill-rule:nonzero;stroke:none;stroke-width:.264583;stroke-linecap:round;stroke-linejoin:round;stroke-miterlimit:4;stroke-dasharray:none;stroke-dashoffset:0;stroke-opacity:1;color-rendering:auto;image-rendering:auto;shape-rendering:auto;text-rendering:auto;enable-background:accumulate;stop-color:#000" d="m137.277 202.03-.945-.019a.265.265 0 0 1-.063-.005.265.265 0 0 1-.022-.005.265.265 0 0 1-.017-.005.265.265 0 0 1-.004 0 .265.265 0 0 1-.007-.004.265.265 0 0 1-.014-.006.265.265 0 0 1-.007-.003.265.265 0 0 1-.013-.007.265.265 0 0 1-.018-.011.265.265 0 0 1-.014-.01.265.265 0 0 1-.01-.01.265.265 0 0 1-.01-.008v-.001a.265.265 0 0 1-.012-.013.265.265 0 0 1-.005-.007.265.265 0 0 1-.013-.017.265.265 0 0 1-.011-.017.265.265 0 0 1-.003-.005.265.265 0 0 1-.01-.017.265.265 0 0 1-.008-.02.265.265 0 0 1-.007-.021.265.265 0 0 1-.005-.022.265.265 0 0 1-.004-.022.265.265 0 0 1-.002-.024l-.018-.963a.265.265 0 0 1 .07-.185.198.198 0 0 1 .127.182l.02.963a.198.198 0 0 1 0 .002v.002a.198.198 0 0 1 .002.01s0 .004.002.006v.002c0 .002.003.003.004.006a.198.198 0 0 1 .002.006v.002l.002.002a.198.198 0 0 1 0 .002h.002v.002h.002l.002.002v.002l.002.002a.198.198 0 0 1 .002.002l.002.002a.198.198 0 0 1 .002 0s0 .002.002.002l.004.004h.002l.002.002h.004a.198.198 0 0 1 .002.002l.004.002h.004a.198.198 0 0 1 .008.002h.015a.198.198 0 0 1 .011 0l.946.02a.198.198 0 0 1 .18.127.265.265 0 0 1-.184.07zm-.959-.16h.002l-.004-.007a.198.198 0 0 1 .002.006z" transform="translate(-135.638 -196.474)"/><path style="fill:none;stroke:#f37329;stroke-width:.529167;stroke-linecap:round;stroke-linejoin:miter;stroke-miterlimit:4;stroke-dasharray:none;stroke-opacity:1" d="m140.777 201.747-1.255-1.255" transform="translate(-135.638 -196.474)"/><path style="fill:none;fill-opacity:1;stroke:#f37329;stroke-width:.529167;stroke-linecap:round;stroke-linejoin:round;stroke-miterlimit:4;stroke-dasharray:none;stroke-opacity:1;paint-order:stroke markers fill;stop-color:#000" d="m139.814 201.766.963-.02.02-.962" transform="translate(-135.638 -196.474)"/><path style="color:#000;font-style:normal;font-variant:normal;font-weight:400;font-stretch:normal;font-size:medium;line-height:normal;font-family:sans-serif;font-variant-ligatures:normal;font-variant-position:normal;font-variant-caps:normal;font-variant-numeric:normal;font-variant-alternates:normal;font-variant-east-asian:normal;font-feature-settings:normal;font-variation-settings:normal;text-indent:0;text-align:start;text-decoration:none;text-decoration-line:none;text-decoration-style:solid;text-decoration-color:#000;letter-spacing:normal;word-spacing:normal;text-transform:none;writing-mode:lr-tb;direction:ltr;text-orientation:mixed;dominant-baseline:auto;baseline-shift:baseline;text-anchor:start;white-space:normal;shape-padding:0;shape-margin:0;inline-size:0;clip-rule:nonzero;display:inline;overflow:visible;visibility:visible;isolation:auto;mix-blend-mode:normal;color-interpolation:sRGB;color-interpolation-filters:linearRGB;solid-color:#000;solid-opacity:1;vector-effect:none;fill:#ffc27d;fill-opacity:1;fill-rule:nonzero;stroke:none;stroke-width:.264583;stroke-linecap:round;stroke-linejoin:round;stroke-miterlimit:4;stroke-dasharray:none;stroke-dashoffset:0;stroke-opacity:1;color-rendering:auto;image-rendering:auto;shape-rendering:auto;text-rendering:auto;enable-background:accumulate;stop-color:#000" d="m141.06 200.788-.02.945a.265.265 0 0 1-.004.063.265.265 0 0 1-.005.022.265.265 0 0 1-.005.017.265.265 0 0 1-.001.004.265.265 0 0 1-.003.007.265.265 0 0 1-.006.014.265.265 0 0 1-.003.007.265.265 0 0 1-.007.013.265.265 0 0 1-.012.018.265.265 0 0 1-.01.014.265.265 0 0 1-.01.01.265.265 0 0 1-.008.01h-.001a.265.265 0 0 1-.012.012.265.265 0 0 1-.007.005.265.265 0 0 1-.018.013.265.265 0 0 1-.017.011.265.265 0 0 1-.005.003.265.265 0 0 1-.016.01.265.265 0 0 1-.02.008.265.265 0 0 1-.022.007.265.265 0 0 1-.022.005.265.265 0 0 1-.021.004.265.265 0 0 1-.025.002l-.963.019a.265.265 0 0 1-.185-.07.198.198 0 0 1 .182-.128l.963-.02a.198.198 0 0 1 .002 0h.002a.198.198 0 0 1 .01-.001l.006-.002h.002l.006-.004a.198.198 0 0 1 .006-.002h.002l.002-.002a.198.198 0 0 1 .002 0v-.002h.002v-.002l.002-.002h.002l.002-.002a.198.198 0 0 1 .002-.002l.002-.002a.198.198 0 0 1 0-.002l.002-.002.004-.004v-.002l.002-.002v-.004a.198.198 0 0 1 .002-.002l.002-.004v-.004a.198.198 0 0 1 .002-.008v-.016a.198.198 0 0 1 0-.011l.02-.946a.198.198 0 0 1 .127-.18.265.265 0 0 1 .071.184zm-.161.959v-.002l-.006.004a.198.198 0 0 1 .006-.002z" transform="translate(-135.638 -196.474)"/><path style="color:#000;font-style:normal;font-variant:normal;font-weight:400;font-stretch:normal;font-size:medium;line-height:normal;font-family:sans-serif;font-variant-ligatures:normal;font-variant-position:normal;font-variant-caps:normal;font-variant-numeric:normal;font-variant-alternates:normal;font-variant-east-asian:normal;font-feature-settings:normal;font-variation-settings:normal;text-indent:0;text-align:start;text-decoration:none;text-decoration-line:none;text-decoration-style:solid;text-decoration-color:#000;letter-spacing:normal;word-spacing:normal;text-transform:none;writing-mode:lr-tb;direction:ltr;text-orientation:mixed;dominant-baseline:auto;baseline-shift:baseline;text-anchor:start;white-space:normal;shape-padding:0;shape-margin:0;inline-size:0;clip-rule:nonzero;display:inline;overflow:visible;visibility:visible;isolation:auto;mix-blend-mode:normal;color-interpolation:sRGB;color-interpolation-filters:linearRGB;solid-color:#000;solid-opacity:1;vector-effect:none;fill:none;fill-opacity:1;fill-rule:nonzero;stroke:#a62100;stroke-width:.264583;stroke-linecap:round;stroke-linejoin:round;stroke-miterlimit:4;stroke-dasharray:none;stroke-dashoffset:0;stroke-opacity:1;color-rendering:auto;image-rendering:auto;shape-rendering:auto;text-rendering:auto;enable-background:accumulate;stop-color:#000" d="M140.967 201.933a.265.265 0 0 1-.012.01.265.265 0 0 1-.007.006.265.265 0 0 1-.017.013.265.265 0 0 1-.017.011.265.265 0 0 1-.005.003.265.265 0 0 1-.017.01.265.265 0 0 1-.02.008.265.265 0 0 1-.021.007.265.265 0 0 1-.022.005.265.265 0 0 1-.022.004.265.265 0 0 1-.025.002l-.963.018a.265.265 0 0 1-.269-.258.265.265 0 0 1 .258-.27l.345-.006-.817-.817a.265.265 0 0 1-.001-.374.265.265 0 0 1 .376 0l.815.815.007-.341a.265.265 0 0 1 .27-.26.265.265 0 0 1 .259.27l-.019.944a.265.265 0 0 1-.005.063.265.265 0 0 1-.005.022.265.265 0 0 1-.005.017.265.265 0 0 1-.001.004.265.265 0 0 1-.003.007.265.265 0 0 1-.006.013.265.265 0 0 1-.003.007.265.265 0 0 1-.007.013.265.265 0 0 1 0 0 .265.265 0 0 1-.012.019.265.265 0 0 1-.01.013.265.265 0 0 1-.01.01.265.265 0 0 1-.008.011zM136.133 201.935a.265.265 0 0 1-.012-.012.265.265 0 0 1-.005-.007.265.265 0 0 1-.013-.017.265.265 0 0 1-.011-.017.265.265 0 0 1-.003-.005.265.265 0 0 1-.01-.017.265.265 0 0 1-.008-.02.265.265 0 0 1-.007-.021.265.265 0 0 1-.005-.022.265.265 0 0 1-.004-.022.265.265 0 0 1-.002-.025l-.018-.962a.265.265 0 0 1 .258-.27.265.265 0 0 1 .27.259l.007.344.816-.817a.265.265 0 0 1 .374 0 .265.265 0 0 1 0 .375l-.815.815.342.007a.265.265 0 0 1 .26.27.265.265 0 0 1-.27.26l-.945-.02a.265.265 0 0 1-.063-.005.265.265 0 0 1-.022-.005.265.265 0 0 1-.017-.005.265.265 0 0 1-.004 0 .265.265 0 0 1-.007-.004.265.265 0 0 1-.013-.006.265.265 0 0 1-.007-.003.265.265 0 0 1-.013-.007.265.265 0 0 1 0 0 .265.265 0 0 1-.019-.012.265.265 0 0 1-.013-.01.265.265 0 0 1-.01-.009.265.265 0 0 1-.011-.009z" transform="translate(-135.638 -196.474)"/><path style="color:#000;font-style:normal;font-variant:normal;font-weight:400;font-stretch:normal;font-size:medium;line-height:normal;font-family:sans-serif;font-variant-ligatures:normal;font-variant-position:normal;font-variant-caps:normal;font-variant-numeric:normal;font-variant-alternates:normal;font-variant-east-asian:normal;font-feature-settings:normal;font-variation-settings:normal;text-indent:0;text-align:start;text-decoration:none;text-decoration-line:none;text-decoration-style:solid;text-decoration-color:#000;letter-spacing:normal;word-spacing:normal;text-transform:none;writing-mode:lr-tb;direction:ltr;text-orientation:mixed;dominant-baseline:auto;baseline-shift:baseline;text-anchor:start;white-space:normal;shape-padding:0;shape-margin:0;inline-size:0;clip-rule:nonzero;display:inline;overflow:visible;visibility:visible;isolation:auto;mix-blend-mode:normal;color-interpolation:sRGB;color-interpolation-filters:linearRGB;solid-color:#000;solid-opacity:1;vector-effect:none;fill:#ffc27d;fill-opacity:1;fill-rule:nonzero;stroke:none;stroke-width:.264583;stroke-linecap:round;stroke-linejoin:round;stroke-miterlimit:4;stroke-dasharray:none;stroke-dashoffset:0;stroke-opacity:1;color-rendering:auto;image-rendering:auto;shape-rendering:auto;text-rendering:auto;enable-background:accumulate;stop-color:#000" d="m141.06 198.245-.02-.945a.265.265 0 0 0-.004-.063.265.265 0 0 0-.005-.022.265.265 0 0 0-.005-.017.265.265 0 0 0-.001-.004.265.265 0 0 0-.003-.007.265.265 0 0 0-.006-.013.265.265 0 0 0-.003-.007.265.265 0 0 0-.007-.013.265.265 0 0 0-.012-.019.265.265 0 0 0-.01-.013.265.265 0 0 0-.01-.01.265.265 0 0 0-.008-.011h-.001a.265.265 0 0 0-.012-.012.265.265 0 0 0-.007-.005.265.265 0 0 0-.018-.013.265.265 0 0 0-.017-.011.265.265 0 0 0-.005-.003.265.265 0 0 0-.016-.01.265.265 0 0 0-.02-.008.265.265 0 0 0-.022-.007.265.265 0 0 0-.022-.005.265.265 0 0 0-.021-.004.265.265 0 0 0-.025-.002l-.963-.018a.265.265 0 0 0-.185.07.198.198 0 0 0 .182.127l.963.02a.198.198 0 0 0 .002 0h.002a.198.198 0 0 0 .01.002c.001 0 .004 0 .006.002h.002c.002 0 .003.003.006.004a.198.198 0 0 0 .006.002h.002l.002.002a.198.198 0 0 0 .002 0v.002h.002v.002l.002.002h.002l.002.002a.198.198 0 0 0 .002.002l.002.002a.198.198 0 0 0 0 .002s.002 0 .002.002l.004.004v.002l.002.002v.004a.198.198 0 0 0 .002.002l.002.004v.004a.198.198 0 0 0 .002.008v.015a.198.198 0 0 0 0 .012l.02.945a.198.198 0 0 0 .127.18.265.265 0 0 0 .071-.184zm-.161-.959v.002l-.006-.004a.198.198 0 0 0 .006.002z" transform="translate(-135.638 -196.474)"/><path style="color:#000;font-style:normal;font-variant:normal;font-weight:400;font-stretch:normal;font-size:medium;line-height:normal;font-family:sans-serif;font-variant-ligatures:normal;font-variant-position:normal;font-variant-caps:normal;font-variant-numeric:normal;font-variant-alternates:normal;font-variant-east-asian:normal;font-feature-settings:normal;font-variation-settings:normal;text-indent:0;text-align:start;text-decoration:none;text-decoration-line:none;text-decoration-style:solid;text-decoration-color:#000;letter-spacing:normal;word-spacing:normal;text-transform:none;writing-mode:lr-tb;direction:ltr;text-orientation:mixed;dominant-baseline:auto;baseline-shift:baseline;text-anchor:start;white-space:normal;shape-padding:0;shape-margin:0;inline-size:0;clip-rule:nonzero;display:inline;overflow:visible;visibility:visible;isolation:auto;mix-blend-mode:normal;color-interpolation:sRGB;color-interpolation-filters:linearRGB;solid-color:#000;solid-opacity:1;vector-effect:none;fill:none;fill-opacity:1;fill-rule:nonzero;stroke:#a62100;stroke-width:.264583;stroke-linecap:round;stroke-linejoin:round;stroke-miterlimit:4;stroke-dasharray:none;stroke-dashoffset:0;stroke-opacity:1;color-rendering:auto;image-rendering:auto;shape-rendering:auto;text-rendering:auto;enable-background:accumulate;stop-color:#000" d="M140.967 197.1a.265.265 0 0 0-.012-.01.265.265 0 0 0-.007-.006.265.265 0 0 0-.017-.013.265.265 0 0 0-.017-.011.265.265 0 0 0-.005-.003.265.265 0 0 0-.017-.009.265.265 0 0 0-.02-.009.265.265 0 0 0-.021-.007.265.265 0 0 0-.022-.005.265.265 0 0 0-.022-.004.265.265 0 0 0-.025-.002l-.963-.018a.265.265 0 0 0-.269.258.265.265 0 0 0 .258.27l.345.007-.817.816a.265.265 0 0 0-.001.375.265.265 0 0 0 .376 0l.815-.816.007.342a.265.265 0 0 0 .27.26.265.265 0 0 0 .259-.27l-.019-.945a.265.265 0 0 0-.005-.063.265.265 0 0 0-.005-.022.265.265 0 0 0-.005-.017.265.265 0 0 0-.001-.004.265.265 0 0 0-.003-.007.265.265 0 0 0-.006-.013.265.265 0 0 0-.003-.007.265.265 0 0 0-.007-.013.265.265 0 0 0 0 0 .265.265 0 0 0-.012-.019.265.265 0 0 0-.01-.013.265.265 0 0 0-.01-.01.265.265 0 0 0-.008-.01z" transform="translate(-135.638 -196.474)"/></svg>