<svg width="22" height="22" viewBox="0 0 22 22" fill="none" xmlns="http://www.w3.org/2000/svg">
<g clip-path="url(#clip0_1_5)">
<path d="M13.2981 1.27728L11 3.57538L8.7019 5.87348C7.92085 6.65452 7.92085 7.92085 8.7019 8.7019L13.2981 13.2981C14.0791 14.0791 15.3455 14.0791 16.1265 13.2981L18.4246 11L20.7227 8.7019C21.5038 7.92085 21.5038 6.65452 20.7227 5.87348L16.1265 1.27728C15.3455 0.496233 14.0791 0.496233 13.2981 1.27728Z" fill="#666666"/>
<path d="M5.87348 8.7019L3.57538 11L1.27728 13.2981C0.496234 14.0791 0.496234 15.3455 1.27728 16.1265L5.87348 20.7227C6.65452 21.5038 7.92085 21.5038 8.7019 20.7227L11 18.4246L13.2981 16.1265C14.0791 15.3455 14.0791 14.0791 13.2981 13.2981L8.7019 8.7019C7.92085 7.92085 6.65452 7.92085 5.87348 8.7019Z" fill="#666666"/>
<path d="M10.4697 6.58059L14.0052 3.04505C14.3957 2.65453 15.0289 2.65453 15.4194 3.04505L18.955 6.58059C19.3455 6.97111 19.3455 7.60427 18.955 7.9948L15.4194 11.5303C15.0289 11.9209 14.3957 11.9209 14.0052 11.5303L10.4697 7.9948C10.0791 7.60427 10.0791 6.97111 10.4697 6.58059Z" stroke="white" stroke-width="1.5"/>
<path d="M3.04507 14.0052L6.58061 10.4697C6.97113 10.0791 7.6043 10.0791 7.99482 10.4697L11.5304 14.0052C11.9209 14.3957 11.9209 15.0289 11.5304 15.4194L7.99482 18.955C7.6043 19.3455 6.97113 19.3455 6.58061 18.955L3.04507 15.4194C2.65455 15.0289 2.65455 14.3957 3.04507 14.0052Z" stroke="white" stroke-width="1.5"/>
<path d="M4.81282 14.7123L14.7123 4.81281L17.1872 7.28769L7.28769 17.1872L4.81282 14.7123Z" fill="#666666"/>
<path d="M14.2998 7.70017L7.70018 14.2998" stroke="white" stroke-width="2" stroke-linecap="round"/>
</g>
<defs>
<clipPath id="clip0_1_5">
<rect width="22" height="22" fill="white"/>
</clipPath>
</defs>
</svg>
