<?xml version="1.0" encoding="UTF-8" standalone="no"?>
<svg
   sodipodi:docname="xopp-select-lasso.svg"
   inkscape:version="1.1 (c68e22c387, 2021-05-23)"
   id="svg3342"
   version="1.1"
   viewBox="0 0 5.8208332 5.8208335"
   height="22"
   width="22"
   xmlns:inkscape="http://www.inkscape.org/namespaces/inkscape"
   xmlns:sodipodi="http://sodipodi.sourceforge.net/DTD/sodipodi-0.dtd"
   xmlns:xlink="http://www.w3.org/1999/xlink"
   xmlns="http://www.w3.org/2000/svg"
   xmlns:svg="http://www.w3.org/2000/svg"
   xmlns:rdf="http://www.w3.org/1999/02/22-rdf-syntax-ns#"
   xmlns:cc="http://creativecommons.org/ns#"
   xmlns:dc="http://purl.org/dc/elements/1.1/">
  <defs
     id="defs3336">
    <linearGradient
       id="linearGradient896"
       inkscape:collect="always">
      <stop
         id="stop892"
         offset="0"
         style="stop-color:#3689e6;stop-opacity:1;" />
      <stop
         id="stop894"
         offset="1"
         style="stop-color:#0d52bf;stop-opacity:0.97428107" />
    </linearGradient>
    <clipPath
       clipPathUnits="userSpaceOnUse"
       id="clipPath5175">
      <path
         style="fill:#ffe16b;fill-opacity:1;stroke:none;stroke-width:0.9375;stroke-linecap:round;stroke-linejoin:round;stroke-miterlimit:4;stroke-dasharray:none;stroke-opacity:1"
         d="m 2.7829782,1046.3311 15.3447168,-15.3448 9.928837,9.9289 -15.344724,15.3447 z"
         id="path5177"
         inkscape:connector-curvature="0" />
    </clipPath>
    <clipPath
       clipPathUnits="userSpaceOnUse"
       id="clipPath945">
      <rect
         style="fill:#ffffff;fill-opacity:1;stroke:none;stroke-width:0.999999;stroke-linecap:butt;stroke-linejoin:round;stroke-miterlimit:4;stroke-dasharray:8.00001, 3.99999;stroke-dashoffset:0;stroke-opacity:1"
         id="rect947"
         width="19.166759"
         height="17.993876"
         x="1.4166161"
         y="1.5076531"
         clip-path="none" />
    </clipPath>
    <linearGradient
       inkscape:collect="always"
       xlink:href="#linearGradient896"
       id="linearGradient939"
       x1="20.092352"
       y1="0.74183154"
       x2="23.317513"
       y2="4.4981894"
       gradientUnits="userSpaceOnUse"
       gradientTransform="matrix(1.0278479,0,0,1.0277565,-19.242719,0.02864969)" />
    <clipPath
       clipPathUnits="userSpaceOnUse"
       id="clipPath1207">
      <path
         style="fill:#8cd5ff;fill-opacity:1;stroke:none;stroke-width:0.264582px;stroke-linecap:butt;stroke-linejoin:miter;stroke-opacity:1"
         d="m 3.2087793,17.926116 c 0.6763335,0.841477 1.9469084,0.984559 3.0008599,1.218239 2.3467132,0.520114 4.8993168,1.055626 7.2017128,0.365147 2.107416,-0.631977 4.229857,-1.995435 5.320275,-3.906384 0.847989,-1.486084 0.894199,-3.440109 0.510606,-5.107467 C 18.651735,7.9288718 17.118348,5.4588651 15.099722,3.7669781 13.766691,2.6499148 11.981129,1.9806927 10.246771,1.8505027 8.4683438,1.7169273 6.565493,2.1387702 5.0327041,3.0505723 3.9526534,3.6930661 2.696094,4.629136 2.536119,5.8756121 2.3807174,7.0869915 3.7450738,8.0076254 4.1907845,9.1447114 4.6220713,10.245067 5.3814256,11.391617 5.1657268,12.553598 4.928803,13.829715 3.1291849,14.402193 2.82276,15.663307 2.6421178,16.406864 2.729375,17.329728 3.2087793,17.926116 Z"
         id="path1209"
         inkscape:connector-curvature="0"
         sodipodi:nodetypes="aaaaaaaaaaaaa" />
    </clipPath>
  </defs>
  <sodipodi:namedview
     inkscape:snap-grids="false"
     inkscape:document-rotation="0"
     inkscape:object-paths="true"
     inkscape:object-nodes="false"
     inkscape:snap-nodes="true"
     inkscape:guide-bbox="true"
     showguides="false"
     units="px"
     showgrid="false"
     inkscape:current-layer="layer2"
     inkscape:document-units="px"
     inkscape:cy="13.058036"
     inkscape:cx="-1.4508929"
     inkscape:zoom="22.4"
     inkscape:pageshadow="2"
     inkscape:pageopacity="0.0"
     borderopacity="1.0"
     bordercolor="#666666"
     pagecolor="#ffffff"
     id="base"
     inkscape:pagecheckerboard="0">
    <inkscape:grid
       id="grid3887"
       type="xygrid" />
    <sodipodi:guide
       inkscape:locked="false"
       id="guide3889"
       orientation="0,1"
       position="4.2333332,5.2916668" />
    <sodipodi:guide
       inkscape:locked="false"
       id="guide3891"
       orientation="0,1"
       position="5.2916665,0.26458334" />
    <sodipodi:guide
       inkscape:locked="false"
       id="guide3893"
       orientation="0,1"
       position="5.5562499,0.52916668" />
  </sodipodi:namedview>
  <metadata
     id="metadata3339">
    <rdf:RDF>
      <cc:Work
         rdf:about="">
        <dc:format>image/svg+xml</dc:format>
        <dc:type
           rdf:resource="http://purl.org/dc/dcmitype/StillImage" />
        <dc:title />
      </cc:Work>
    </rdf:RDF>
  </metadata>
  <g
     inkscape:label="Layer 2"
     id="layer2"
     inkscape:groupmode="layer">
    <path
       style="fill:#b9cfe7;fill-opacity:1;stroke:none;stroke-width:0.264583px;stroke-linecap:butt;stroke-linejoin:miter;stroke-opacity:1"
       d="M 0.79158138,4.903256 C 0.97552091,5.1320669 1.3210443,5.1709857 1.6076792,5.2345185 2.2458607,5.3759623 2.9400538,5.5215737 3.5661807,5.3338265 4.1393015,5.1619688 4.716507,4.7912024 5.0130514,4.2715598 5.2436614,3.8674552 5.2562155,3.3361149 5.1519023,2.8827095 4.9913216,2.1847262 4.5743165,1.5130628 4.0253358,1.0530049 3.6628293,0.74923193 3.1772348,0.56726065 2.7055811,0.53185095 2.2219242,0.49553928 1.7044419,0.61024924 1.2876002,0.85819056 0.99388141,1.0328996 0.65215587,1.2874448 0.60866248,1.6263835 0.56639738,1.955794 0.93742786,2.2061477 1.0586368,2.515355 1.1759266,2.8145707 1.3824459,3.1263371 1.3237784,3.4423195 1.2593529,3.7893245 0.76994004,3.9450007 0.68660316,4.2879363 0.63747203,4.4901348 0.66121532,4.7410731 0.79158138,4.903256 Z"
       id="path1430"
       inkscape:connector-curvature="0"
       sodipodi:nodetypes="aaaaaaaaaaaaa" />
    <path
       sodipodi:nodetypes="aaaaaaaaaaaaa"
       inkscape:connector-curvature="0"
       id="path49744"
       d="M 0.79158138,4.903256 C 0.97552091,5.1320669 1.3210443,5.1709857 1.6076792,5.2345185 2.2458607,5.3759623 2.9400538,5.5215737 3.5661807,5.3338265 4.1393015,5.1619688 4.716507,4.7912024 5.0130514,4.2715598 5.2436614,3.8674552 5.2562155,3.3361149 5.1519023,2.8827095 4.9913216,2.1847262 4.5743165,1.5130628 4.0253358,1.0530049 3.6628293,0.74923193 3.1772348,0.56726065 2.7055811,0.53185095 2.2219242,0.49553928 1.7044419,0.61024924 1.2876002,0.85819056 0.99388141,1.0328996 0.65215587,1.2874448 0.60866248,1.6263835 0.56639738,1.955794 0.93742786,2.2061477 1.0586368,2.515355 1.1759266,2.8145707 1.3824459,3.1263371 1.3237784,3.4423195 1.2593529,3.7893245 0.76994004,3.9450007 0.68660316,4.2879363 0.63747203,4.4901348 0.66121532,4.7410731 0.79158138,4.903256 Z"
       style="fill:none;fill-opacity:1;stroke:url(#linearGradient939);stroke-width:0.264583px;stroke-linecap:butt;stroke-linejoin:miter;stroke-opacity:1" />
  </g>
</svg>
