<?xml version="1.0" encoding="UTF-8" standalone="no"?>
<svg
   width="22"
   height="22"
   id="svg2"
   version="1.1"
   inkscape:version="1.1 (c68e22c387, 2021-05-23)"
   sodipodi:docname="xopp-thickness-medium.svg"
   xmlns:inkscape="http://www.inkscape.org/namespaces/inkscape"
   xmlns:sodipodi="http://sodipodi.sourceforge.net/DTD/sodipodi-0.dtd"
   xmlns="http://www.w3.org/2000/svg"
   xmlns:svg="http://www.w3.org/2000/svg"
   xmlns:rdf="http://www.w3.org/1999/02/22-rdf-syntax-ns#"
   xmlns:cc="http://creativecommons.org/ns#"
   xmlns:dc="http://purl.org/dc/elements/1.1/">
  <defs
     id="defs4" />
  <sodipodi:namedview
     inkscape:document-rotation="0"
     id="base"
     pagecolor="#ffffff"
     bordercolor="#666666"
     borderopacity="1.0"
     inkscape:pageopacity="0.0"
     inkscape:pageshadow="2"
     inkscape:zoom="89.6"
     inkscape:cx="13.666295"
     inkscape:cy="10.809152"
     inkscape:document-units="px"
     inkscape:current-layer="layer1"
     showgrid="false"
     inkscape:window-width="1280"
     inkscape:window-height="1000"
     inkscape:window-x="0"
     inkscape:window-y="24"
     inkscape:window-maximized="1"
     inkscape:pagecheckerboard="0"
     showguides="false" />
  <metadata
     id="metadata7">
    <rdf:RDF>
      <cc:Work
         rdf:about="">
        <dc:format>image/svg+xml</dc:format>
        <dc:type
           rdf:resource="http://purl.org/dc/dcmitype/StillImage" />
        <dc:title />
      </cc:Work>
    </rdf:RDF>
  </metadata>
  <g
     inkscape:label="Ebene 1"
     inkscape:groupmode="layer"
     id="layer1"
     transform="translate(0,-1030.3622)">
    <path
       sodipodi:type="arc"
       style="fill:#d9d9d9;fill-opacity:1;stroke:none"
       id="path2985"
       sodipodi:cx="14.285714"
       sodipodi:cy="14.857142"
       sodipodi:rx="10.491072"
       sodipodi:ry="10.491072"
       d="m 24.776786,14.857142 a 10.491072,10.491072 0 1 1 -20.9821436,0 10.491072,10.491072 0 1 1 20.9821436,0 z"
       transform="matrix(0.34468087,0,0,0.34468087,6.0581305,1036.2591)" />
    <path
       id="path851"
       style="fill:#b2b2b2;fill-opacity:1;stroke:none;stroke-width:0.344681"
       d="M 7.4648438 10.517578 A 3.6160718 3.6160718 0 0 0 7.3652344 11.017578 A 3.6160718 3.6160718 0 0 0 10.982422 14.634766 A 3.6160718 3.6160718 0 0 0 14.597656 11.017578 A 3.6160718 3.6160718 0 0 0 14.529297 10.679688 A 3.6160717 3.6160717 0 0 1 10.982422 13.634766 A 3.6160717 3.6160717 0 0 1 7.4648438 10.517578 z "
       transform="translate(0,1030.3622)" />
    <path
       id="path856"
       style="fill:#ffffff;fill-opacity:1;stroke:none;stroke-width:0.344681"
       d="M 10.982422 7.4023438 A 3.6160718 3.6160718 0 0 0 7.3652344 11.017578 A 3.6160718 3.6160718 0 0 0 7.4648438 11.517578 A 3.6160717 3.6160717 0 0 1 10.982422 8.4023438 A 3.6160717 3.6160717 0 0 1 14.498047 11.517578 A 3.6160718 3.6160718 0 0 0 14.597656 11.017578 A 3.6160718 3.6160718 0 0 0 10.982422 7.4023438 z "
       transform="translate(0,1030.3622)" />
    <path
       id="path863"
       style="fill:none;fill-opacity:1;stroke:#241f31;stroke-opacity:1;stroke-width:2.90123441;stroke-miterlimit:4;stroke-dasharray:none"
       transform="matrix(0.34468087,0,0,0.34468087,6.0581305,1036.2591)"
       d="m 24.776786,14.857142 a 10.491072,10.491072 0 1 1 -20.9821436,0 10.491072,10.491072 0 1 1 20.9821436,0 z"
       sodipodi:type="arc"
       sodipodi:ry="10.491072"
       sodipodi:rx="10.491072"
       sodipodi:cy="14.857142"
       sodipodi:cx="14.285714" />
  </g>
</svg>
