<svg width="22" height="22" viewBox="0 0 5.821 5.821" xmlns:xlink="http://www.w3.org/1999/xlink" xmlns="http://www.w3.org/2000/svg"><defs><linearGradient id="a"><stop style="stop-color:#d4d4d4;stop-opacity:1" offset="0"/><stop style="stop-color:#fafafa;stop-opacity:1" offset="1"/></linearGradient><linearGradient xlink:href="#a" id="b" x1="12.863" y1="23.104" x2="13.108" y2="2.79" gradientUnits="userSpaceOnUse" gradientTransform="matrix(.25832 0 0 .26179 -5.895 290.709)"/></defs><path style="fill:url(#b);fill-opacity:1;stroke:none;stroke-width:.567145;stroke-linecap:butt;stroke-linejoin:round;stroke-miterlimit:4;stroke-dasharray:none;stroke-opacity:1" d="M-4.488 291.439h3.704v4.762h-3.704z" transform="translate(5.547 -291.174)"/><path style="fill:none;fill-opacity:1;stroke:#555761;stroke-width:.264583;stroke-linecap:butt;stroke-linejoin:round;stroke-miterlimit:4;stroke-dasharray:none;stroke-opacity:1" d="M-4.488 291.439h3.704v4.762h-3.704z" transform="translate(5.547 -291.174)"/><path style="opacity:.988;fill:#485a6c;fill-opacity:1;stroke:none;stroke-width:.132292;stroke-linecap:round;stroke-linejoin:round" d="M2.632 294.296a.24.24 0 0 0-.146.075.86.86 0 0 0-.232.464c-.028-.1-.06-.197-.096-.275-.105-.312-.394-.158-.47.096-.093.235-.196.488-.2.758.014.088.078.155.147.159.07-.12.167-.24.25-.37l.004.02c.072.232.164.561.395.556.279-.066.352-.45.427-.758.05.26.09.541.254.707.262.176.386-.185.456-.438.171-.253.249.298.462.22.192.036.64-.043.455-.41a1.31 1.31 0 0 1-.722-.295c-.17-.133-.362-.055-.479.119a1.472 1.472 0 0 0-.12-.33c-.079-.168-.234-.314-.385-.298z" transform="translate(0 -291.18)"/><path d="M3.055 292.131a.218.218 0 0 1 .135.073.86.86 0 0 1 .213.454 1.8 1.8 0 0 1 .09-.269c.096-.305.363-.154.433.093.086.23.181.477.185.74-.013.087-.072.152-.136.156-.064-.118-.155-.235-.23-.36l-.005.018c-.066.227-.15.548-.364.542-.257-.064-.325-.439-.394-.74-.047.255-.084.53-.235.692-.241.17-.356-.181-.42-.429-.159-.246-.23.291-.427.216-.177.035-.59-.043-.42-.402a1.17 1.17 0 0 0 .667-.287c.156-.13.333-.054.442.116.027-.113.06-.223.11-.322.073-.164.216-.307.356-.29z" style="opacity:.988;fill:#485a6c;fill-opacity:1;stroke:none;stroke-width:.132291;stroke-linecap:round;stroke-linejoin:round" transform="translate(0 -291.18)"/></svg>