<svg width="22" height="22" viewBox="0 0 5.821 5.821" xmlns:xlink="http://www.w3.org/1999/xlink" xmlns="http://www.w3.org/2000/svg"><defs><linearGradient id="a"><stop offset="0" style="stop-color:#3689e6;stop-opacity:1"/><stop offset="1" style="stop-color:#64baff;stop-opacity:1"/></linearGradient><linearGradient id="c"><stop offset="0" style="stop-color:#f9f9f9;stop-opacity:1"/><stop offset="1" style="stop-color:#d8d8d8;stop-opacity:1"/></linearGradient><linearGradient id="b"><stop offset="0" style="stop-color:#efdfc4;stop-opacity:1"/><stop offset="1" style="stop-color:#e7c591;stop-opacity:1"/></linearGradient><linearGradient id="d"><stop style="stop-color:#fafafa;stop-opacity:1" offset="0"/><stop style="stop-color:#fff;stop-opacity:0" offset="1"/></linearGradient><linearGradient xlink:href="#d" id="f" x1="24.557" y1="9.999" x2="28.551" y2="9.977" gradientUnits="userSpaceOnUse" gradientTransform="matrix(.24357 0 0 .1914 71.97 280.97)"/><linearGradient id="e"><stop offset="0" style="stop-color:#9bdb4d;stop-opacity:1"/><stop offset="1" style="stop-color:#68b723;stop-opacity:1"/></linearGradient></defs><g transform="translate(0 -291.18)"><rect transform="rotate(15)" ry=".244" rx=".225" style="fill:#ed5353;fill-opacity:1;stroke:none;stroke-width:.157457;stroke-linecap:round;stroke-linejoin:round;stroke-miterlimit:4;stroke-dasharray:none;stroke-opacity:1" width="1.607" height="1.731" x="78.016" y="280.973"/><path d="m3.881 291.925-.236.881.307.082.172-.645c.035-.13-.033-.262-.154-.295z" style="fill:#c01c28;fill-opacity:1;stroke:none;stroke-width:.157457;stroke-linecap:round;stroke-linejoin:round;stroke-miterlimit:4;stroke-dasharray:none;stroke-opacity:1"/><rect transform="rotate(15)" y="280.973" x="78.016" height="1.731" width="1.607" style="fill:none;fill-opacity:1;stroke:#7a0000;stroke-width:.264583;stroke-linecap:round;stroke-linejoin:round;stroke-miterlimit:4;stroke-dasharray:none;stroke-opacity:1" rx=".225" ry=".245"/><path transform="rotate(15)" style="fill:#f9c440;fill-opacity:1;stroke:none;stroke-width:.211725;stroke-linecap:round;stroke-linejoin:round;stroke-miterlimit:4;stroke-dasharray:none;stroke-opacity:1" d="M78.016 281.886h1.607v2.752h-1.607z"/><path d="m3.24 295.547-1.13 1.11-.422-1.526z" style="fill:#beaea1;fill-opacity:1;stroke:none;stroke-width:.239175px;stroke-linecap:butt;stroke-linejoin:miter;stroke-opacity:1"/><path d="m2.933 295.465-.906.89.083.302 1.13-1.11z" style="fill:#715344;fill-opacity:1;stroke:none;stroke-width:.239175px;stroke-linecap:butt;stroke-linejoin:miter;stroke-opacity:1"/><path style="fill:none;fill-opacity:1;stroke:#57392d;stroke-width:.264583;stroke-linecap:round;stroke-linejoin:round;stroke-miterlimit:4;stroke-dasharray:none;stroke-opacity:1" d="m3.24 295.547-1.13 1.11-.422-1.526"/><path d="m3.645 292.806-.712 2.659.306.082.713-2.659z" style="fill:#e5a50a;fill-opacity:1;stroke:none;stroke-width:.211725;stroke-linecap:round;stroke-linejoin:round;stroke-miterlimit:4;stroke-dasharray:none;stroke-opacity:1"/><path d="m3.952 292.888-.713 2.659m-1.551-.416.712-2.658" style="fill:none;fill-opacity:1;stroke:#ad5f00;stroke-width:.264583;stroke-linecap:round;stroke-linejoin:round;stroke-miterlimit:4;stroke-dasharray:none;stroke-opacity:1"/><rect transform="rotate(15)" ry=".135" rx=".147" y="281.326" x="78.265" height="3.085" width=".337" style="fill:url(#f);fill-opacity:1;stroke:none;stroke-width:.185539;stroke-linecap:round;stroke-linejoin:round;stroke-miterlimit:4;stroke-dasharray:none;stroke-opacity:1"/><path d="m1.942 296.05.168.607.449-.441-.617-.165z" style="fill:#0e141f;stroke:none;stroke-width:.288792px;stroke-linecap:butt;stroke-linejoin:miter;stroke-opacity:1"/></g></svg>