<?xml version="1.0" encoding="UTF-8" standalone="no"?>
<svg
   sodipodi:docname="xopp-page-delete.svg"
   inkscape:version="1.1 (c68e22c387, 2021-05-23)"
   id="svg8"
   version="1.1"
   viewBox="0 0 5.8208332 5.8208335"
   height="22"
   width="22"
   xmlns:inkscape="http://www.inkscape.org/namespaces/inkscape"
   xmlns:sodipodi="http://sodipodi.sourceforge.net/DTD/sodipodi-0.dtd"
   xmlns:xlink="http://www.w3.org/1999/xlink"
   xmlns="http://www.w3.org/2000/svg"
   xmlns:svg="http://www.w3.org/2000/svg"
   xmlns:rdf="http://www.w3.org/1999/02/22-rdf-syntax-ns#"
   xmlns:cc="http://creativecommons.org/ns#"
   xmlns:dc="http://purl.org/dc/elements/1.1/">
  <defs
     id="defs2">
    <linearGradient
       inkscape:collect="always"
       id="linearGradient1026">
      <stop
         style="stop-color:#ff8c82;stop-opacity:1"
         offset="0"
         id="stop1022" />
      <stop
         style="stop-color:#ed5353;stop-opacity:1"
         offset="1"
         id="stop1024" />
    </linearGradient>
    <clipPath
       id="clipPath900"
       clipPathUnits="userSpaceOnUse">
      <rect
         style="opacity:0.988;fill:#fafafa;stroke:none;stroke-width:0.264583;stroke-linecap:round;stroke-linejoin:round"
         id="rect902"
         width="4.4097233"
         height="5.291667"
         x="0.7055552"
         y="291.44376"
         rx="0.79376376"
         ry="0.79376376" />
    </clipPath>
    <linearGradient
       inkscape:collect="always"
       id="linearGradient1581">
      <stop
         style="stop-color:#d4d4d4;stop-opacity:1"
         offset="0"
         id="stop1577" />
      <stop
         style="stop-color:#fafafa;stop-opacity:1"
         offset="1"
         id="stop1579" />
    </linearGradient>
    <linearGradient
       inkscape:collect="always"
       xlink:href="#linearGradient1026"
       id="linearGradient1209"
       gradientUnits="userSpaceOnUse"
       gradientTransform="matrix(0.19843844,0.19843844,-0.19843844,0.19843844,3.7858056,284.56246)"
       x1="14.277955"
       y1="10.876392"
       x2="32.182049"
       y2="29.161646" />
    <linearGradient
       inkscape:collect="always"
       xlink:href="#linearGradient1581"
       id="linearGradient1583-3"
       x1="12.863297"
       y1="23.10371"
       x2="13.107655"
       y2="2.7898996"
       gradientUnits="userSpaceOnUse"
       gradientTransform="matrix(0.97631293,0,0,0.98943836,-1.3150447,-1.7605039)" />
  </defs>
  <sodipodi:namedview
     inkscape:guide-bbox="true"
     showguides="false"
     fit-margin-bottom="0"
     fit-margin-right="0"
     fit-margin-left="0"
     fit-margin-top="0"
     units="px"
     showgrid="false"
     inkscape:document-rotation="0"
     inkscape:current-layer="layer1"
     inkscape:document-units="px"
     inkscape:cy="14.754464"
     inkscape:cx="2.9241071"
     inkscape:zoom="22.4"
     inkscape:pageshadow="2"
     inkscape:pageopacity="0.0"
     borderopacity="1.0"
     bordercolor="#666666"
     pagecolor="#ffffff"
     id="base"
     inkscape:snap-grids="true"
     inkscape:snap-intersection-paths="true"
     inkscape:object-paths="true"
     inkscape:snap-to-guides="false"
     inkscape:pagecheckerboard="0">
    <inkscape:grid
       id="grid833"
       type="xygrid" />
    <sodipodi:guide
       id="guide835"
       orientation="0,1"
       position="5.55625,5.55625" />
    <sodipodi:guide
       id="guide837"
       orientation="0,1"
       position="5.55625,0.26458333" />
    <sodipodi:guide
       id="guide839"
       orientation="1,0"
       position="0.26458333,1.8520833" />
    <sodipodi:guide
       id="guide841"
       orientation="1,0"
       position="5.55625,0.79375" />
    <sodipodi:guide
       position="1.0133986,0.74292604"
       orientation="0,1"
       id="guide1199" />
  </sodipodi:namedview>
  <metadata
     id="metadata5">
    <rdf:RDF>
      <cc:Work
         rdf:about="">
        <dc:format>image/svg+xml</dc:format>
        <dc:type
           rdf:resource="http://purl.org/dc/dcmitype/StillImage" />
        <dc:title />
      </cc:Work>
    </rdf:RDF>
  </metadata>
  <g
     style="display:none"
     inkscape:label="Layer 2"
     id="layer2"
     inkscape:groupmode="layer">
    <rect
       y="0"
       x="0"
       height="5.8208332"
       width="5.8208332"
       id="rect846"
       style="opacity:0.988;fill:#deddda;stroke:none;stroke-width:0.264583;stroke-linecap:round;stroke-linejoin:round" />
  </g>
  <g
     transform="translate(0,-291.17916)"
     id="layer1"
     inkscape:groupmode="layer"
     inkscape:label="Layer 1">
    <path
       id="rect1575-5"
       style="fill:url(#linearGradient1583-3);fill-opacity:1;stroke:none;stroke-width:2.14354;stroke-linecap:butt;stroke-linejoin:round;stroke-miterlimit:4;stroke-dasharray:none;stroke-opacity:1"
       d="M 4 1 L 4 19 L 10.523438 19 A 1.50015 1.50015 0 0 1 10.939453 17.689453 L 12.128906 16.5 L 10.939453 15.3125 A 1.50015 1.50015 0 0 1 10.939453 13.185547 L 13.191406 10.941406 A 1.50015 1.50015 0 0 1 14.224609 10.5 A 1.50015 1.50015 0 0 1 15.310547 10.941406 L 16.498047 12.130859 L 17.6875 10.941406 A 1.50015 1.50015 0 0 1 18 10.701172 L 18 1 L 4 1 z M 14.246094 14.115234 L 14.121094 14.25 L 15.310547 15.4375 A 1.50015 1.50015 0 0 1 15.310547 17.564453 L 14.121094 18.751953 L 14.246094 18.884766 L 15.443359 17.689453 A 1.50015 1.50015 0 0 1 17.560547 17.689453 L 18 18.128906 L 18 17.876953 L 17.6875 17.564453 A 1.50015 1.50015 0 0 1 17.6875 15.4375 L 18 15.125 L 18 14.873047 L 17.560547 15.3125 A 1.50015 1.50015 0 0 1 15.443359 15.3125 L 14.246094 14.115234 z "
       transform="matrix(0.26458333,0,0,0.26458333,0,291.17916)" />
    <path
       id="path1203"
       style="fill:url(#linearGradient1209);fill-opacity:1;stroke:none;stroke-width:0.396875;stroke-linecap:round;stroke-linejoin:round;paint-order:stroke markers fill;stop-color:#000000"
       d="m 4.9609347,294.35415 -0.5953153,0.59532 -0.5953154,-0.59532 -0.5953153,0.59532 0.5953153,0.59532 -0.5953153,0.59531 0.5953153,0.59532 0.5953154,-0.59532 0.5953153,0.59532 L 5.55625,296.1401 4.9609347,295.54479 5.55625,294.94947 Z" />
    <path
       id="path1211"
       style="fill:#ff8c82;fill-opacity:1;stroke:none;stroke-width:1.5;stroke-linecap:round;stroke-linejoin:round;paint-order:stroke markers fill;stop-color:#000000"
       d="M 14.25 12 L 12 14.25 L 12.705078 14.955078 L 14.246094 13.414062 L 15.789062 14.957031 A 1.0001006 1.0001006 0 0 0 17.207031 14.957031 L 18.75 13.414062 L 20.292969 14.957031 L 21 14.25 L 18.75 12 L 16.5 14.25 L 14.25 12 z "
       transform="matrix(0.26458333,0,0,0.26458333,0,291.17916)" />
    <path
       id="path1207"
       style="fill:none;stroke:#7a0000;stroke-width:0.264583;stroke-linecap:round;stroke-linejoin:round;stroke-miterlimit:4;stroke-dasharray:none;paint-order:stroke markers fill;stop-color:#000000"
       d="m 4.9609347,294.35415 -0.5953153,0.59532 -0.5953154,-0.59532 -0.5953153,0.59532 0.5953153,0.59532 -0.5953153,0.59531 0.5953153,0.59532 0.5953154,-0.59532 0.5953153,0.59532 L 5.55625,296.1401 4.9609347,295.54479 5.55625,294.94947 Z" />
    <path
       id="path881"
       style="fill:none;fill-opacity:1;stroke:#555761;stroke-width:1;stroke-linecap:butt;stroke-linejoin:round;stroke-miterlimit:4;stroke-dasharray:none;stroke-opacity:1"
       d="M 18,10.701172 V 1 H 4 v 18 h 6.523438"
       sodipodi:nodetypes="ccccc"
       transform="matrix(0.26458333,0,0,0.26458333,0,291.17916)" />
  </g>
</svg>
