<svg width="22" height="22" viewBox="0 0 5.821 5.821" xmlns:xlink="http://www.w3.org/1999/xlink" xmlns="http://www.w3.org/2000/svg"><defs><linearGradient id="d"><stop offset="0" style="stop-color:#fff;stop-opacity:1"/><stop offset=".584" style="stop-color:#fff;stop-opacity:.23529412"/><stop offset=".752" style="stop-color:#fff;stop-opacity:.15686275"/><stop offset="1" style="stop-color:#fff;stop-opacity:.39215687"/></linearGradient><linearGradient id="c"><stop style="stop-color:#8cd5ff;stop-opacity:1" offset="0"/><stop style="stop-color:#64baff;stop-opacity:1" offset="1"/></linearGradient><linearGradient id="b"><stop style="stop-color:#c6f27b;stop-opacity:1" offset="0"/><stop style="stop-color:#93d049;stop-opacity:1" offset="1"/></linearGradient><linearGradient id="a"><stop style="stop-color:#c396eb;stop-opacity:1" offset="0"/><stop style="stop-color:#9d68d7;stop-opacity:1" offset="1"/></linearGradient><linearGradient y2="5.292" x2="2.938" y1="-.316" x1="2.959" gradientUnits="userSpaceOnUse" id="g" xlink:href="#d"/><clipPath id="f" clipPathUnits="userSpaceOnUse"><path style="fill:#000;fill-opacity:1;stroke:none;stroke-width:.264999;stroke-linecap:round;stroke-linejoin:round;stroke-miterlimit:4;stroke-dasharray:none;stroke-opacity:1" d="M2.901.694A.087.087 0 0 0 2.84.73l-.866 1.25a.065.065 0 0 0 .054.102h.446v1.689h-.446a.065.065 0 0 0-.054.102l.866 1.25a.087.087 0 0 0 .143 0l.866-1.25a.065.065 0 0 0-.054-.102h-.447V2.084h.447a.065.065 0 0 0 .054-.104L2.982.73a.087.087 0 0 0-.08-.036z"/></clipPath></defs><g style="opacity:1;stroke-width:.677102"><path style="color:#000;font-style:normal;font-variant:normal;font-weight:400;font-stretch:normal;font-size:medium;line-height:normal;font-family:sans-serif;font-variant-ligatures:normal;font-variant-position:normal;font-variant-caps:normal;font-variant-numeric:normal;font-variant-alternates:normal;font-variant-east-asian:normal;font-feature-settings:normal;font-variation-settings:normal;text-indent:0;text-align:start;text-decoration:none;text-decoration-line:none;text-decoration-style:solid;text-decoration-color:#000;letter-spacing:normal;word-spacing:normal;text-transform:none;writing-mode:lr-tb;direction:ltr;text-orientation:mixed;dominant-baseline:auto;baseline-shift:baseline;text-anchor:start;white-space:normal;shape-padding:0;shape-margin:0;inline-size:0;clip-rule:nonzero;display:inline;overflow:visible;visibility:visible;isolation:auto;mix-blend-mode:normal;color-interpolation:sRGB;color-interpolation-filters:linearRGB;solid-color:#000;solid-opacity:1;vector-effect:none;fill:#ffe16b;fill-opacity:1;fill-rule:nonzero;stroke:none;stroke-width:.223937;stroke-linecap:round;stroke-linejoin:round;stroke-miterlimit:4;stroke-dasharray:none;stroke-dashoffset:0;stroke-opacity:1;color-rendering:auto;image-rendering:auto;shape-rendering:auto;text-rendering:auto;enable-background:accumulate;stop-color:#000;stop-opacity:1" d="M.394 1.961h5.033" transform="matrix(.94455 0 0 2.30923 .161 -3.834)"/></g><path d="M.395.53h5.031v4.76H.395z" style="fill:#b9cfe7;fill-opacity:1;stroke:none;stroke-width:.330729;stroke-linecap:round;stroke-linejoin:round;stroke-miterlimit:4;stroke-dasharray:none;stroke-opacity:1"/><path style="fill:none;fill-opacity:1;stroke:#0d52bf;stroke-width:.264583;stroke-linecap:round;stroke-linejoin:round;stroke-miterlimit:4;stroke-dasharray:none;stroke-opacity:.98431373" d="M.395.53h5.031v4.76H.395z"/><path id="e" d="M3.787 2.083H2.034a.07.07 62.363 0 1-.057-.108L2.835.737a.092.092 0 0 1 .15 0l.859 1.238a.07.07 117.637 0 1-.057.108z" style="fill:#c6262e;fill-opacity:1;stroke:none;stroke-width:.264999;stroke-linecap:round;stroke-linejoin:round;stroke-miterlimit:4;stroke-dasharray:none;stroke-opacity:1"/><use style="stroke-width:1.0587" height="100%" width="100%" transform="matrix(1 0 0 -1 0 5.855)" xlink:href="#e"/><path d="M2.91 2.083v1.689" style="fill:none;stroke:#c6262e;stroke-width:.926;stroke-linecap:round;stroke-linejoin:miter;stroke-miterlimit:4;stroke-dasharray:none;stroke-opacity:1;fill-opacity:0"/><path d="M2.901.694A.087.087 0 0 0 2.84.73l-.866 1.25a.065.065 0 0 0 .054.102h.446a.437.437 0 0 0 0 0v1.689h-.446a.065.065 0 0 0-.054.102l.866 1.25a.087.087 0 0 0 .143 0l.866-1.25a.065.065 0 0 0-.054-.102h-.447V2.084a.437.437 0 0 0 0 0h.447a.065.065 0 0 0 .054-.104L2.982.73a.087.087 0 0 0-.08-.036z" style="fill:none;fill-opacity:1;stroke:#7a0000;stroke-width:.265;stroke-linecap:round;stroke-linejoin:round;stroke-miterlimit:4;stroke-dasharray:none;stroke-opacity:1"/><path clip-path="url(#f)" style="fill:none;fill-opacity:1;stroke:url(#g);stroke-width:.265;stroke-linecap:round;stroke-linejoin:round;stroke-miterlimit:4;stroke-dasharray:none;stroke-opacity:1" d="M2.901.694A.087.087 0 0 0 2.84.73l-.866 1.25a.065.065 0 0 0 .054.102h.446a.437.437 0 0 0 0 0v1.689h-.446a.065.065 0 0 0-.054.102l.866 1.25a.087.087 0 0 0 .143 0l.866-1.25a.065.065 0 0 0-.054-.102h-.447V2.084a.437.437 0 0 0 0 0h.447a.065.065 0 0 0 .054-.104L2.982.73a.087.087 0 0 0-.08-.036z"/></svg>