<?xml version="1.0" encoding="UTF-8" standalone="no"?>
<svg
   sodipodi:docname="xopp-page-add.svg"
   inkscape:version="1.1 (c68e22c387, 2021-05-23)"
   id="svg8"
   version="1.1"
   viewBox="0 0 5.8208332 5.8208335"
   height="22"
   width="22"
   xmlns:inkscape="http://www.inkscape.org/namespaces/inkscape"
   xmlns:sodipodi="http://sodipodi.sourceforge.net/DTD/sodipodi-0.dtd"
   xmlns:xlink="http://www.w3.org/1999/xlink"
   xmlns="http://www.w3.org/2000/svg"
   xmlns:svg="http://www.w3.org/2000/svg"
   xmlns:rdf="http://www.w3.org/1999/02/22-rdf-syntax-ns#"
   xmlns:cc="http://creativecommons.org/ns#"
   xmlns:dc="http://purl.org/dc/elements/1.1/">
  <defs
     id="defs2">
    <linearGradient
       id="linearGradient902">
      <stop
         offset="0"
         style="stop-color:#ffffff;stop-opacity:1"
         id="stop894" />
      <stop
         offset="0.45753163"
         style="stop-color:#ffffff;stop-opacity:0.23529412"
         id="stop896" />
      <stop
         offset="0.82945329"
         style="stop-color:#ffffff;stop-opacity:0.15686275"
         id="stop898" />
      <stop
         offset="1"
         style="stop-color:#ffffff;stop-opacity:0.39215687"
         id="stop900" />
    </linearGradient>
    <linearGradient
       inkscape:collect="always"
       id="linearGradient882">
      <stop
         style="stop-color:#68b723;stop-opacity:1;"
         offset="0"
         id="stop878" />
      <stop
         style="stop-color:#3a9104;stop-opacity:1"
         offset="1"
         id="stop880" />
    </linearGradient>
    <clipPath
       id="clipPath900"
       clipPathUnits="userSpaceOnUse">
      <rect
         style="opacity:0.988;fill:#fafafa;stroke:none;stroke-width:0.264583;stroke-linecap:round;stroke-linejoin:round"
         id="rect902"
         width="4.4097233"
         height="5.291667"
         x="0.7055552"
         y="291.44376"
         rx="0.79376376"
         ry="0.79376376" />
    </clipPath>
    <linearGradient
       inkscape:collect="always"
       id="linearGradient1581">
      <stop
         style="stop-color:#d4d4d4;stop-opacity:1"
         offset="0"
         id="stop1577" />
      <stop
         style="stop-color:#fafafa;stop-opacity:1"
         offset="1"
         id="stop1579" />
    </linearGradient>
    <linearGradient
       inkscape:collect="always"
       xlink:href="#linearGradient882"
       id="linearGradient884"
       x1="4.4979167"
       y1="294.35416"
       x2="4.4955244"
       y2="299.55844"
       gradientUnits="userSpaceOnUse" />
    <linearGradient
       id="linearGradient1924">
      <stop
         offset="0"
         style="stop-color:#ffffff;stop-opacity:1"
         id="stop1916" />
      <stop
         offset="0.39062729"
         style="stop-color:#ffffff;stop-opacity:0.23529412"
         id="stop1918" />
      <stop
         offset="0.74072355"
         style="stop-color:#ffffff;stop-opacity:0.15686275"
         id="stop1920" />
      <stop
         offset="1"
         style="stop-color:#ffffff;stop-opacity:0.39215687"
         id="stop1922" />
    </linearGradient>
    <clipPath
       id="clipPath1928"
       clipPathUnits="userSpaceOnUse">
      <path
         id="path1930"
         d="m -20.603558,-20.629215 c -0.356912,0 -0.638672,0.282717 -0.638672,0.602051 v 0.675293 12.4731444 0.676758 c 0,0.3381067 0.28176,0.6005858 0.638672,0.6005858 h 13.7490233 c 0.356911,0 0.638672,-0.281253 0.638672,-0.6005858 v -0.6577148 -10.8764646 -0.657715 c 0,-0.169054 -0.07479,-0.319427 -0.1875,-0.432129 l -1.6904303,-1.615723 c -0.1127017,-0.112733 -0.2821177,-0.1875 -0.4511715,-0.1875 z"
         style="fill:url(#linearGradient1932);fill-opacity:1;stroke-width:0.0311849" />
    </clipPath>
    <clipPath
       clipPathUnits="userSpaceOnUse"
       id="clipPath906">
      <path
         id="path908"
         style="fill:url(#linearGradient910);fill-opacity:1;stroke:none;stroke-width:0.396878;stroke-linecap:round;stroke-linejoin:round;paint-order:stroke markers fill;stop-color:#000000"
         d="m 3.96875,294.35416 v 0.79375 H 3.175 v 0.79375 h 0.79375 v 0.79375 H 4.7625 v -0.79375 h 0.79375 v -0.79375 H 4.7625 v -0.79375 z" />
    </clipPath>
    <linearGradient
       inkscape:collect="always"
       xlink:href="#linearGradient882"
       id="linearGradient910"
       gradientUnits="userSpaceOnUse"
       x1="4.4979167"
       y1="294.35416"
       x2="4.4955244"
       y2="299.55844"
       gradientTransform="translate(0,-1.1458727e-5)" />
    <linearGradient
       inkscape:collect="always"
       xlink:href="#linearGradient1581"
       id="linearGradient1583-3"
       x1="12.863297"
       y1="23.10371"
       x2="13.107655"
       y2="2.7898996"
       gradientUnits="userSpaceOnUse"
       gradientTransform="matrix(0.97631293,0,0,0.98943836,-1.3150447,-1.7604661)" />
  </defs>
  <sodipodi:namedview
     inkscape:guide-bbox="true"
     showguides="false"
     fit-margin-bottom="0"
     fit-margin-right="0"
     fit-margin-left="0"
     fit-margin-top="0"
     units="px"
     showgrid="false"
     inkscape:document-rotation="0"
     inkscape:current-layer="layer1"
     inkscape:document-units="px"
     inkscape:cy="28.973214"
     inkscape:cx="6.6517857"
     inkscape:zoom="11.2"
     inkscape:pageshadow="2"
     inkscape:pageopacity="0.0"
     borderopacity="1.0"
     bordercolor="#666666"
     pagecolor="#ffffff"
     id="base"
     inkscape:snap-grids="false"
     inkscape:snap-intersection-paths="true"
     inkscape:object-paths="true"
     inkscape:pagecheckerboard="0">
    <inkscape:grid
       id="grid833"
       type="xygrid" />
    <sodipodi:guide
       id="guide835"
       orientation="0,1"
       position="5.55625,5.55625" />
    <sodipodi:guide
       id="guide837"
       orientation="0,1"
       position="5.55625,0.26458333" />
    <sodipodi:guide
       id="guide839"
       orientation="1,0"
       position="0.26458333,1.8520833" />
    <sodipodi:guide
       id="guide841"
       orientation="1,0"
       position="5.55625,0.79375" />
    <sodipodi:guide
       position="4.4979164,2.6458335"
       orientation="0,1"
       id="guide876" />
    <sodipodi:guide
       position="1.3446998,0.74291315"
       orientation="0,1"
       id="guide886" />
  </sodipodi:namedview>
  <metadata
     id="metadata5">
    <rdf:RDF>
      <cc:Work
         rdf:about="">
        <dc:format>image/svg+xml</dc:format>
        <dc:type
           rdf:resource="http://purl.org/dc/dcmitype/StillImage" />
        <dc:title />
      </cc:Work>
    </rdf:RDF>
  </metadata>
  <g
     transform="translate(0,-291.17916)"
     id="layer1"
     inkscape:groupmode="layer"
     inkscape:label="Layer 1">
    <path
       id="rect1575-2"
       style="fill:url(#linearGradient1583-3);fill-opacity:1;stroke:none;stroke-width:2.14354;stroke-linecap:butt;stroke-linejoin:round;stroke-miterlimit:4;stroke-dasharray:none;stroke-opacity:1"
       d="M 4 1 L 4 19 L 10.882812 19 A 1.50015 1.50015 0 0 1 10.496094 18 L 10.496094 15.001953 A 1.50015 1.50015 0 0 1 12.003906 13.503906 L 13.501953 13.503906 L 13.501953 11.998047 A 1.50015 1.50015 0 0 1 15 10.5 L 17.996094 10.5 A 1.50015 1.50015 0 0 1 18 10.5 L 18 1 L 4 1 z M 16.498047 15.001953 A 1.50015 1.50015 0 0 1 15 16.5 A 1.50015 1.50015 0 0 1 16.498047 18 A 1.50015 1.50015 0 0 1 17.996094 16.5 A 1.50015 1.50015 0 0 1 16.498047 15.001953 z "
       transform="matrix(0.26458333,0,0,0.26458333,0,291.17916)" />
    <path
       id="rect1015"
       style="fill:url(#linearGradient884);fill-opacity:1;stroke:none;stroke-width:0.396875;stroke-linecap:round;stroke-linejoin:round;paint-order:stroke markers fill;stop-color:#000000"
       d="m 3.96875,294.35416 v 0.79375 H 3.175 v 0.79375 h 0.79375 v 0.79375 H 4.7625 v -0.79375 h 0.79375 v -0.79375 H 4.7625 v -0.79375 z" />
    <path
       id="path865"
       style="fill:#d1ff82;fill-opacity:1;stroke:none;stroke-width:1.5;stroke-linecap:round;stroke-linejoin:round;paint-order:stroke markers fill;stop-color:#000000"
       d="M 15 12 L 15 15 L 12 15 L 12 15.998047 A 1.0000006 1.0000006 0 0 0 12.003906 15.998047 L 15 15.998047 A 1.0001006 1.0001006 0 0 0 15.996094 15.001953 L 15.996094 13.001953 L 17 13.001953 L 17 15.001953 A 1.0001006 1.0001006 0 0 0 17.996094 15.998047 L 21 15.998047 L 21 15 L 18 15 L 18 12 L 15 12 z "
       transform="matrix(0.26458333,0,0,0.26458333,0,291.17916)" />
    <path
       id="path1020"
       style="fill:none;stroke:#206b00;stroke-width:0.26458333;stroke-linecap:round;stroke-linejoin:round;stroke-miterlimit:4;stroke-dasharray:none;paint-order:stroke markers fill;stop-color:#000000"
       d="m 3.96875,294.35416 v 0.79375 H 3.175 v 0.79375 h 0.79375 v 0.79375 H 4.7625 v -0.79375 h 0.79375 v -0.79375 H 4.7625 v -0.79375 z" />
    <path
       id="path890"
       style="fill:none;fill-opacity:1;stroke:#555761;stroke-width:1;stroke-linecap:butt;stroke-linejoin:round;stroke-miterlimit:4;stroke-dasharray:none;stroke-opacity:1"
       d="M 18,10.5 V 1 H 4 v 18 h 6.882812"
       transform="matrix(0.26458333,0,0,0.26458333,0,291.17916)"
       sodipodi:nodetypes="ccccc" />
  </g>
</svg>
