<?xml version="1.0" encoding="UTF-8" standalone="no"?>
<svg
   xmlns:dc="http://purl.org/dc/elements/1.1/"
   xmlns:cc="http://creativecommons.org/ns#"
   xmlns:rdf="http://www.w3.org/1999/02/22-rdf-syntax-ns#"
   xmlns:svg="http://www.w3.org/2000/svg"
   xmlns="http://www.w3.org/2000/svg"
   xmlns:xlink="http://www.w3.org/1999/xlink"
   xmlns:sodipodi="http://sodipodi.sourceforge.net/DTD/sodipodi-0.dtd"
   xmlns:inkscape="http://www.inkscape.org/namespaces/inkscape"
   viewBox="0 0 5.821 5.821"
   height="22"
   width="22"
   version="1.1"
   id="svg3799"
   sodipodi:docname="xopp-select-multilayer-lasso-V2.svg"
   inkscape:version="0.92.5 (2060ec1f9f, 2020-04-08)">
  <metadata
     id="metadata3803">
    <rdf:RDF>
      <cc:Work
         rdf:about="">
        <dc:format>image/svg+xml</dc:format>
        <dc:type
           rdf:resource="http://purl.org/dc/dcmitype/StillImage" />
        <dc:title></dc:title>
      </cc:Work>
    </rdf:RDF>
  </metadata>
  <sodipodi:namedview
     pagecolor="#ffffff"
     bordercolor="#666666"
     borderopacity="1"
     objecttolerance="10"
     gridtolerance="10"
     guidetolerance="10"
     inkscape:pageopacity="0"
     inkscape:pageshadow="2"
     inkscape:window-width="1637"
     inkscape:window-height="1082"
     id="namedview3801"
     showgrid="false"
     inkscape:zoom="32"
     inkscape:cx="11.972185"
     inkscape:cy="12.236023"
     inkscape:window-x="1241"
     inkscape:window-y="584"
     inkscape:window-maximized="0"
     inkscape:current-layer="svg3799" />
  <defs
     id="defs3793">
    <linearGradient
       id="a">
      <stop
         offset="0"
         style="stop-color:#3689e6;stop-opacity:1"
         id="stop3787" />
      <stop
         offset="1"
         style="stop-color:#0d52bf;stop-opacity:.97428107"
         id="stop3789" />
    </linearGradient>
    <linearGradient
       gradientUnits="userSpaceOnUse"
       y2="5.101"
       x2="5.446"
       y1=".429"
       x1=".375"
       id="b"
       xlink:href="#a"
       gradientTransform="matrix(0.97459361,0,-0.12344127,0.31987922,0.44157427,2.0195443)" />
    <linearGradient
       gradientUnits="userSpaceOnUse"
       y2="5.1009998"
       x2="5.4460001"
       y1="0.42899999"
       x1="0.375"
       id="b-2"
       xlink:href="#a"
       gradientTransform="matrix(0.9745936,0,-0.12344127,0.31987922,0.44984269,3.7826372)" />
    <linearGradient
       gradientUnits="userSpaceOnUse"
       y2="5.1009998"
       x2="5.4460001"
       y1="0.42899999"
       x1="0.375"
       id="b-6"
       xlink:href="#a"
       gradientTransform="matrix(0.9745936,0,-0.12344127,0.31987922,0.44157423,0.26027074)" />
    <linearGradient
       xlink:href="#a"
       id="b-7"
       x1="20.091999"
       y1="0.74199998"
       x2="23.318001"
       y2="4.4980001"
       gradientUnits="userSpaceOnUse"
       gradientTransform="matrix(0.79198882,0,-0.34642497,0.5178568,-12.922092,2.5293726)" />
    <linearGradient
       xlink:href="#a"
       id="b-7-9"
       x1="20.091999"
       y1="0.74199998"
       x2="23.318001"
       y2="4.4980001"
       gradientUnits="userSpaceOnUse"
       gradientTransform="matrix(0.57108701,0,-0.2498,0.28735221,-8.5292915,3.8399076)" />
    <linearGradient
       xlink:href="#a"
       id="b-7-7"
       x1="20.091999"
       y1="0.74199998"
       x2="23.318001"
       y2="4.4980001"
       gradientUnits="userSpaceOnUse"
       gradientTransform="matrix(0.57108701,0,-0.2498,0.28735221,-8.4218015,0.24312492)" />
    <linearGradient
       xlink:href="#a"
       id="b-7-97"
       x1="20.091999"
       y1="0.74199998"
       x2="23.318001"
       y2="4.4980001"
       gradientUnits="userSpaceOnUse"
       gradientTransform="matrix(0.79198882,0,-0.34642498,0.51785679,-13.049737,1.3977172)" />
    <linearGradient
       xlink:href="#a"
       id="b-7-93"
       x1="20.091999"
       y1="0.74199998"
       x2="23.318001"
       y2="4.4980001"
       gradientUnits="userSpaceOnUse"
       gradientTransform="matrix(0.79198882,0,-0.34642498,0.51785679,-12.951719,0.45977813)" />
  </defs>
  <path
     inkscape:connector-curvature="0"
     style="fill:#f2f2f2;fill-opacity:1;stroke:none;stroke-width:0.16486011px;stroke-linecap:butt;stroke-linejoin:miter;stroke-opacity:1"
     d="M 0.87260036,4.9852319 C 0.93685217,5.1011224 1.1898758,5.1202704 1.3894458,5.1525164 1.8335173,5.2235619 2.3190524,5.2971273 2.864773,5.2024009 3.3642622,5.1157342 3.93391,4.9287987 4.3376958,4.6672903 4.6514299,4.4632233 4.8404301,4.1956685 4.9133238,3.9669119 A 1.538757,3.0275617 71.581567 0 0 4.6614343,3.045335 1.052787,2.0713977 71.581567 0 0 3.8199475,2.7828189 1.0980968,2.1605462 71.581565 0 0 2.618223,2.9470804 C 2.3327006,3.0352563 1.9832268,3.1637442 1.8353946,3.3340521 1.6917995,3.500329 1.8941697,3.6262963 1.8821423,3.7824956 1.8722795,3.9331534 1.9261824,4.0898561 1.7749777,4.2490787 1.607931,4.4239216 1.1785597,4.5025252 0.99899154,4.6753523 0.89237699,4.7771344 0.82626594,4.9036051 0.87260036,4.9852319 Z"
     id="path4005" />
  <path
     inkscape:connector-curvature="0"
     d="M 0.87260036,4.9852319 C 0.93685217,5.1011224 1.1898758,5.1202704 1.3894458,5.1525164 1.8335173,5.2235619 2.3190524,5.2971273 2.864773,5.2024009 3.3642622,5.1157342 3.93391,4.9287987 4.3376958,4.6672903 4.6514299,4.4632233 4.8404301,4.1956685 4.9133238,3.9669119 A 1.538757,3.0275617 71.581567 0 0 4.6614343,3.045335 1.052787,2.0713977 71.581567 0 0 3.8199475,2.7828189 1.0980968,2.1605462 71.581565 0 0 2.618223,2.9470804 C 2.3327006,3.0352563 1.9832268,3.1637442 1.8353946,3.3340521 1.6917995,3.500329 1.8941697,3.6262963 1.8821423,3.7824956 1.8722795,3.9331534 1.9261824,4.0898561 1.7749777,4.2490787 1.607931,4.4239216 1.1785597,4.5025252 0.99899154,4.6753523 0.89237699,4.7771344 0.82626594,4.9036051 0.87260036,4.9852319 Z"
     style="fill:#f2f2f2;fill-opacity:1;stroke:url(#b-7);stroke-width:0.16486011px;stroke-linecap:butt;stroke-linejoin:miter;stroke-opacity:1"
     id="path4007" />
  <path
     inkscape:connector-curvature="0"
     style="fill:#f2f2f2;fill-opacity:1;stroke:none;stroke-width:0.16486011px;stroke-linecap:butt;stroke-linejoin:miter;stroke-opacity:1"
     d="M 0.74495546,3.8535766 C 0.80920728,3.9694671 1.0622309,3.988615 1.2618009,4.020861 1.7058724,4.0919066 2.1914075,4.1654719 2.7371281,4.0707455 3.2366174,3.9840788 3.8062648,3.7971433 4.210051,3.5356349 4.5237849,3.331568 4.7127852,3.064013 4.7856789,2.8352565 A 1.538757,3.0275617 71.581567 0 0 4.5337893,1.9136796 1.052787,2.0713977 71.581567 0 0 3.6923025,1.6511636 1.0980968,2.1605462 71.581565 0 0 2.4905781,1.815425 C 2.2050557,1.9036009 1.8555819,2.0320886 1.7077497,2.2023967 1.5641546,2.3686737 1.7665248,2.4946409 1.7544974,2.6508402 1.7446346,2.801498 1.7985375,2.9582007 1.6473328,3.1174234 1.4802862,3.2922663 1.0509148,3.3708698 0.87134664,3.5436969 0.76473209,3.645479 0.69862104,3.7719497 0.74495546,3.8535766 Z"
     id="path4005-1" />
  <path
     inkscape:connector-curvature="0"
     d="M 0.74495546,3.8535766 C 0.80920728,3.9694671 1.0622309,3.988615 1.2618009,4.020861 1.7058724,4.0919066 2.1914075,4.1654719 2.7371281,4.0707455 3.2366174,3.9840788 3.8062648,3.7971433 4.210051,3.5356349 4.5237849,3.331568 4.7127852,3.064013 4.7856789,2.8352565 A 1.538757,3.0275617 71.581567 0 0 4.5337893,1.9136796 1.052787,2.0713977 71.581567 0 0 3.6923025,1.6511636 1.0980968,2.1605462 71.581565 0 0 2.4905781,1.815425 C 2.2050557,1.9036009 1.8555819,2.0320886 1.7077497,2.2023967 1.5641546,2.3686737 1.7665248,2.4946409 1.7544974,2.6508402 1.7446346,2.801498 1.7985375,2.9582007 1.6473328,3.1174234 1.4802862,3.2922663 1.0509148,3.3708698 0.87134664,3.5436969 0.76473209,3.645479 0.69862104,3.7719497 0.74495546,3.8535766 Z"
     style="fill:#f2f2f2;fill-opacity:1;stroke:url(#b-7-97);stroke-width:0.16486011px;stroke-linecap:butt;stroke-linejoin:miter;stroke-opacity:1"
     id="path4007-2" />
  <path
     inkscape:connector-curvature="0"
     style="fill:#b9cfe7;fill-opacity:1;stroke:none;stroke-width:0.16486011px;stroke-linecap:butt;stroke-linejoin:miter;stroke-opacity:1"
     d="M 0.84297288,2.9156372 C 0.90722469,3.0315277 1.1602483,3.0506757 1.3598182,3.0829217 1.8038897,3.1539672 2.2894249,3.2275326 2.8351455,3.1328062 3.3346348,3.0461394 3.9042822,2.859204 4.3080684,2.5976956 4.6218023,2.3936286 4.8108026,2.1260738 4.8836963,1.8973173 A 1.538757,3.0275617 71.581567 0 0 4.6318067,0.97574047 1.052787,2.0713977 71.581567 0 0 3.7903199,0.71322448 1.0980968,2.1605462 71.581565 0 0 2.5885955,0.87748594 C 2.3030732,0.96566177 1.9535993,1.0941498 1.8057671,1.2644576 1.6621719,1.4307346 1.8645422,1.5567018 1.8525148,1.7129012 1.842652,1.863559 1.8965549,2.0202614 1.7453502,2.179484 1.5783036,2.3543269 1.1489322,2.4329305 0.96936406,2.6057575 0.8627495,2.7075397 0.79663845,2.8340104 0.84297288,2.9156372 Z"
     id="path4005-4" />
  <path
     inkscape:connector-curvature="0"
     d="M 0.84297288,2.9156372 C 0.90722469,3.0315277 1.1602483,3.0506757 1.3598182,3.0829217 1.8038897,3.1539672 2.2894249,3.2275326 2.8351455,3.1328062 3.3346348,3.0461394 3.9042822,2.859204 4.3080684,2.5976956 4.6218023,2.3936286 4.8108026,2.1260738 4.8836963,1.8973173 A 1.538757,3.0275617 71.581567 0 0 4.6318067,0.97574047 1.052787,2.0713977 71.581567 0 0 3.7903199,0.71322448 1.0980968,2.1605462 71.581565 0 0 2.5885955,0.87748594 C 2.3030732,0.96566177 1.9535993,1.0941498 1.8057671,1.2644576 1.6621719,1.4307346 1.8645422,1.5567018 1.8525148,1.7129012 1.842652,1.863559 1.8965549,2.0202614 1.7453502,2.179484 1.5783036,2.3543269 1.1489322,2.4329305 0.96936406,2.6057575 0.8627495,2.7075397 0.79663845,2.8340104 0.84297288,2.9156372 Z"
     style="fill:none;fill-opacity:1;stroke:url(#b-7-93);stroke-width:0.16486011px;stroke-linecap:butt;stroke-linejoin:miter;stroke-opacity:1"
     id="path4007-7" />
</svg>
