<?xml version="1.0" encoding="UTF-8" standalone="no"?>
<svg
   xmlns:dc="http://purl.org/dc/elements/1.1/"
   xmlns:cc="http://creativecommons.org/ns#"
   xmlns:rdf="http://www.w3.org/1999/02/22-rdf-syntax-ns#"
   xmlns:svg="http://www.w3.org/2000/svg"
   xmlns="http://www.w3.org/2000/svg"
   xmlns:xlink="http://www.w3.org/1999/xlink"
   xmlns:sodipodi="http://sodipodi.sourceforge.net/DTD/sodipodi-0.dtd"
   xmlns:inkscape="http://www.inkscape.org/namespaces/inkscape"
   width="22"
   height="22"
   viewBox="0 0 5.8208332 5.8208335"
   version="1.1"
   id="svg8"
   inkscape:version="1.0 (4035a4fb49, 2020-05-01)"
   sodipodi:docname="page-annotated-next.svg">
  <defs
     id="defs2">
    <linearGradient
       inkscape:collect="always"
       id="linearGradient24258">
      <stop
         style="stop-color:#000000;stop-opacity:1"
         offset="0"
         id="stop24254" />
      <stop
         style="stop-color:#ffffff;stop-opacity:1"
         offset="1"
         id="stop24256" />
    </linearGradient>
    <linearGradient
       inkscape:collect="always"
       id="linearGradient24242">
      <stop
         style="stop-color:#ffe16b;stop-opacity:1;"
         offset="0"
         id="stop24238" />
      <stop
         style="stop-color:#fff394;stop-opacity:1"
         offset="1"
         id="stop24240" />
    </linearGradient>
    <clipPath
       clipPathUnits="userSpaceOnUse"
       id="clipPath900">
      <rect
         ry="0.79376376"
         rx="0.79376376"
         y="291.44376"
         x="0.7055552"
         height="5.291667"
         width="4.4097233"
         id="rect902"
         style="opacity:0.988;fill:#fafafa;stroke:none;stroke-width:0.264583;stroke-linecap:round;stroke-linejoin:round" />
    </clipPath>
    <linearGradient
       inkscape:collect="always"
       xlink:href="#linearGradient24242"
       id="linearGradient24244"
       x1="2.6223547"
       y1="300.03091"
       x2="2.754159"
       y2="290.93164"
       gradientUnits="userSpaceOnUse" />
    <linearGradient
       inkscape:collect="always"
       xlink:href="#linearGradient24258"
       id="linearGradient24260"
       x1="8.5045671"
       y1="299.36215"
       x2="0.82056773"
       y2="291.97049"
       gradientUnits="userSpaceOnUse" />
  </defs>
  <sodipodi:namedview
     id="base"
     pagecolor="#ffffff"
     bordercolor="#666666"
     borderopacity="1.0"
     inkscape:pageopacity="0.0"
     inkscape:pageshadow="2"
     inkscape:zoom="15.839192"
     inkscape:cx="-7.150709"
     inkscape:cy="18.95483"
     inkscape:document-units="px"
     inkscape:current-layer="layer1"
     inkscape:document-rotation="0"
     showgrid="true"
     units="px"
     fit-margin-top="0"
     fit-margin-left="0"
     fit-margin-right="0"
     fit-margin-bottom="0"
     showguides="true"
     inkscape:guide-bbox="true"
     inkscape:snap-grids="false"
     inkscape:lockguides="true">
    <inkscape:grid
       type="xygrid"
       id="grid833" />
    <sodipodi:guide
       position="5.55625,5.55625"
       orientation="0,1"
       id="guide835"
       inkscape:locked="true" />
    <sodipodi:guide
       position="5.55625,0.26458333"
       orientation="0,1"
       id="guide837"
       inkscape:locked="true" />
    <sodipodi:guide
       position="0.26458333,1.8520833"
       orientation="1,0"
       id="guide839"
       inkscape:locked="true" />
    <sodipodi:guide
       position="5.55625,0.79375"
       orientation="1,0"
       id="guide841"
       inkscape:locked="true" />
  </sodipodi:namedview>
  <metadata
     id="metadata5">
    <rdf:RDF>
      <cc:Work
         rdf:about="">
        <dc:format>image/svg+xml</dc:format>
        <dc:type
           rdf:resource="http://purl.org/dc/dcmitype/StillImage" />
        <dc:title />
      </cc:Work>
    </rdf:RDF>
  </metadata>
  <g
     inkscape:groupmode="layer"
     id="layer2"
     inkscape:label="Layer 2"
     style="display:none">
    <rect
       style="opacity:0.988;fill:#deddda;stroke:none;stroke-width:0.264583;stroke-linecap:round;stroke-linejoin:round"
       id="rect846"
       width="5.8208332"
       height="5.8208332"
       x="0"
       y="0" />
  </g>
  <g
     inkscape:label="Layer 1"
     inkscape:groupmode="layer"
     id="layer1"
     transform="translate(0,-291.17916)">
    <rect
       style="opacity:0.988;fill:url(#linearGradient24244);fill-opacity:1;stroke:none;stroke-width:0.132292;stroke-linecap:round;stroke-linejoin:round;stroke-miterlimit:4;stroke-dasharray:none;stroke-opacity:1"
       id="rect23452"
       width="5.2916665"
       height="5.2916665"
       x="0.26458332"
       y="291.44376"
       rx="0.69215"
       ry="0.69215" />
    <path
       d="m 2.5395602,292.49636 c -0.061836,0.005 -0.1226688,0.0267 -0.179832,0.0703 -0.1444942,0.10433 -0.2407285,0.26334 -0.2837048,0.43614 -0.0343,-0.0945 -0.074626,-0.18542 -0.118856,-0.25836 -0.1283944,-0.29369 -0.4825207,-0.14857 -0.5756752,0.0894 -0.1145434,0.22154 -0.2415143,0.45898 -0.2470123,0.71213 0.018177,0.0833 0.09679,0.14581 0.1813825,0.14933 0.085328,-0.11263 0.2055547,-0.22558 0.3069589,-0.34674 0.00212,0.005 0.00291,0.0132 0.00516,0.018 0.088511,0.21812 0.2008135,0.52728 0.4847246,0.52194 0.341495,-0.0617 0.4314904,-0.42227 0.5239993,-0.7116 0.061336,0.2444 0.1107308,0.50859 0.3116078,0.66456 0.3212174,0.16454 0.474001,-0.17402 0.5596572,-0.41185 0.2099918,-0.23741 0.3051994,0.27958 0.5663723,0.20722 0.2356485,0.0336 0.785275,-0.0409 0.558107,-0.38603 -0.3038636,-0.0249 -0.612127,-0.10083 -0.8857353,-0.27646 -0.2084386,-0.12507 -0.4438119,-0.0515 -0.5875601,0.11163 -0.03652,-0.10848 -0.07973,-0.21471 -0.1462431,-0.30957 -0.097581,-0.15832 -0.2878429,-0.29506 -0.4733581,-0.28006 z"
       style="opacity:0.988;fill:#715344;fill-opacity:1;stroke:none;stroke-width:0.132292;stroke-linecap:round;stroke-linejoin:round"
       id="rect24284" />
    <path
       id="path24246"
       style="fill:#d48e15;stroke:none;stroke-width:0.999999px;stroke-linecap:butt;stroke-linejoin:miter;stroke-opacity:1;fill-opacity:1"
       d="M 21 13.140625 L 13.140625 21 L 18.384766 21 C 19.83403 21 21 19.834025 21 18.384766 L 21 13.140625 z "
       transform="matrix(0.26458333,0,0,0.26458333,0,291.17916)" />
    <rect
       ry="0.69215"
       rx="0.69215465"
       y="291.44376"
       x="0.26458332"
       height="5.2916665"
       width="5.2916665"
       id="rect24230"
       style="opacity:0.988;fill:none;fill-opacity:1;stroke:#ad5f00;stroke-width:0.264583;stroke-linecap:round;stroke-linejoin:round;stroke-miterlimit:4;stroke-dasharray:none;stroke-opacity:1" />
    <path
       id="path24303"
       style="opacity:0.988;fill:#715344;fill-opacity:1;stroke:none;stroke-width:0.132292;stroke-linecap:round;stroke-linejoin:round"
       d="m 2.5395602,294.29175 c -0.061836,0.005 -0.1226688,0.0267 -0.179832,0.0703 -0.1444942,0.10433 -0.2407285,0.26334 -0.2837048,0.43614 -0.0343,-0.0945 -0.074626,-0.18542 -0.118856,-0.25836 -0.1283944,-0.29369 -0.4825207,-0.14857 -0.5756752,0.0894 -0.1145434,0.22154 -0.2415143,0.45898 -0.2470123,0.71213 0.018177,0.0833 0.09679,0.14581 0.1813825,0.14933 0.085328,-0.11263 0.2055547,-0.22558 0.3069589,-0.34674 0.00212,0.005 0.00291,0.0132 0.00516,0.018 0.088511,0.21812 0.2008135,0.52728 0.4847246,0.52194 0.341495,-0.0617 0.4314904,-0.42227 0.5239993,-0.7116 0.061336,0.2444 0.1107308,0.50859 0.3116078,0.66456 0.3212174,0.16454 0.474001,-0.17402 0.5596572,-0.41185 0.2099918,-0.23741 0.3051994,0.27958 0.5663723,0.20722 0.2356485,0.0336 0.785275,-0.0409 0.558107,-0.38603 -0.3038636,-0.0249 -0.612127,-0.10083 -0.8857353,-0.27646 -0.2084386,-0.12507 -0.4438119,-0.0515 -0.5875601,0.11163 -0.03652,-0.10848 -0.07973,-0.21471 -0.1462431,-0.30957 -0.097581,-0.15832 -0.2878429,-0.29506 -0.4733581,-0.28006 z" />
    <path
       id="path24236"
       d="m 5.5562494,294.65573 -2.0796906,2.07968 v -2.07968 z"
       style="fill:#f9c440;stroke:none;stroke-width:0.26458333;stroke-linecap:round;stroke-linejoin:round;stroke-opacity:0.98823529;stroke-miterlimit:4;stroke-dasharray:none;fill-opacity:1" />
    <path
       style="fill:url(#linearGradient24260);stroke:none;stroke-width:0.26458333;stroke-linecap:round;stroke-linejoin:round;stroke-opacity:0.98823529;stroke-miterlimit:4;stroke-dasharray:none;fill-opacity:1;opacity:0.15"
       d="m 5.5562494,294.65573 -2.0796906,2.07968 v -2.07968 z"
       id="path24252" />
    <path
       style="fill:none;stroke:#ad5f00;stroke-width:0.26458333;stroke-linecap:round;stroke-linejoin:round;stroke-opacity:0.98823529;stroke-miterlimit:4;stroke-dasharray:none"
       d="m 5.5562494,294.65573 -2.0796906,2.07968 v -2.07968 z"
       id="path24234" />
  </g>
</svg>
