<svg width="22" height="22" xmlns="http://www.w3.org/2000/svg"><path style="fill:#d9d9d9;fill-opacity:1;stroke:none" d="M24.777 14.857a10.491 10.491 0 1 1-20.982 0 10.491 10.491 0 1 1 20.982 0z" transform="translate(6.058 5.897) scale(.34468)"/><path style="fill:#b2b2b2;fill-opacity:1;stroke:none;stroke-width:.344681" d="M7.465 10.518a3.616 3.616 0 0 0-.1.5 3.616 3.616 0 0 0 3.617 3.617 3.616 3.616 0 0 0 3.616-3.617 3.616 3.616 0 0 0-.069-.338 3.616 3.616 0 0 1-3.547 2.955 3.616 3.616 0 0 1-3.517-3.117z"/><path style="fill:#fff;fill-opacity:1;stroke:none;stroke-width:.344681" d="M10.982 7.402a3.616 3.616 0 0 0-3.617 3.616 3.616 3.616 0 0 0 .1.5 3.616 3.616 0 0 1 3.517-3.116 3.616 3.616 0 0 1 3.516 3.116 3.616 3.616 0 0 0 .1-.5 3.616 3.616 0 0 0-3.616-3.616z"/><path style="fill:none;fill-opacity:1;stroke:#241f31;stroke-opacity:1;stroke-width:2.90123441;stroke-miterlimit:4;stroke-dasharray:none" transform="translate(6.058 5.897) scale(.34468)" d="M24.777 14.857a10.491 10.491 0 1 1-20.982 0 10.491 10.491 0 1 1 20.982 0z"/></svg>