<svg viewBox="0 0 5.821 5.821" height="22" width="22" xmlns:xlink="http://www.w3.org/1999/xlink" xmlns="http://www.w3.org/2000/svg"><defs><linearGradient id="b"><stop offset="0" style="stop-color:#c6f27b;stop-opacity:1"/><stop offset="1" style="stop-color:#93d049;stop-opacity:1"/></linearGradient><linearGradient id="a"><stop offset="0" style="stop-color:#c396eb;stop-opacity:1"/><stop offset="1" style="stop-color:#9d68d7;stop-opacity:1"/></linearGradient><linearGradient id="g"><stop offset="0" style="stop-color:#ffa154;stop-opacity:1"/><stop offset="1" style="stop-color:#cc3b02;stop-opacity:1"/></linearGradient><linearGradient id="f"><stop style="stop-color:#836b59;stop-opacity:.8786127" offset="0"/><stop style="stop-color:#836b59;stop-opacity:1" offset="1"/></linearGradient><linearGradient id="e"><stop offset="0" style="stop-color:#ededed;stop-opacity:1"/><stop offset="1" style="stop-color:#85caf2;stop-opacity:1"/></linearGradient><linearGradient id="d"><stop offset="0" style="stop-color:#85caf2;stop-opacity:0"/><stop offset="1" style="stop-color:#ededed;stop-opacity:1"/></linearGradient><linearGradient id="c"><stop offset="0" style="stop-color:#85caf2;stop-opacity:1"/><stop offset="1" style="stop-color:#5fb1f2;stop-opacity:1"/></linearGradient><linearGradient gradientTransform="translate(-190.43 190.054) scale(.05562)" gradientUnits="userSpaceOnUse" y2="98.966" x2="145.585" y1="43.975" x1="113.609" id="n" xlink:href="#c"/><linearGradient gradientTransform="matrix(.06006 .01628 -.01628 .06006 1.186 260.15)" gradientUnits="userSpaceOnUse" y2="47.99" x2="116.924" y1="71.443" x1="132.475" id="o" xlink:href="#d"/><linearGradient gradientTransform="rotate(15.168 -977.344 135.619) scale(.05964)" gradientUnits="userSpaceOnUse" y2="66.52" x2="127.584" y1="52.755" x1="117.887" id="p" xlink:href="#e"/><linearGradient id="h"><stop offset="0" style="stop-color:#fff;stop-opacity:1"/><stop offset=".286" style="stop-color:#fff;stop-opacity:.23529412"/><stop offset=".731" style="stop-color:#fff;stop-opacity:.15686275"/><stop offset="1" style="stop-color:#fff;stop-opacity:.39215687"/></linearGradient><linearGradient xlink:href="#h" id="m" x1="37.881" y1="11.449" x2="38.042" y2="26.249" gradientUnits="userSpaceOnUse"/><linearGradient xlink:href="#i" id="k" x1="12.863" y1="23.104" x2="13.108" y2="2.79" gradientUnits="userSpaceOnUse" gradientTransform="matrix(.25832 0 0 .26179 -5.895 290.709)"/><linearGradient id="i"><stop style="stop-color:#d4d4d4;stop-opacity:1" offset="0"/><stop style="stop-color:#fafafa;stop-opacity:1" offset="1"/></linearGradient><linearGradient xlink:href="#i" id="j" gradientUnits="userSpaceOnUse" gradientTransform="matrix(.25832 0 0 .26179 -5.895 290.709)" x1="12.863" y1="23.104" x2="13.108" y2="2.79"/><clipPath clipPathUnits="userSpaceOnUse" id="l"><rect ry="1.5" rx="1.5" y="12.455" x="35.933" height="11.211" width="3.551" style="opacity:1;fill:#a3907c;fill-opacity:.984314;stroke-width:3.77953;stroke-linecap:round;stroke-linejoin:round"/></clipPath></defs><g transform="translate(-5.806 -264.818)"><g style="stroke-width:.812464"><path style="fill:url(#j);fill-opacity:1;stroke:none;stroke-width:.460785;stroke-linecap:butt;stroke-linejoin:round;stroke-miterlimit:4;stroke-dasharray:none;stroke-opacity:1" d="M-4.488 291.439h3.704v4.762h-3.704z" transform="translate(11.96 -98.237) scale(1.23082)"/><path style="fill:none;fill-opacity:1;stroke:#555761;stroke-width:.214964;stroke-linecap:butt;stroke-linejoin:round;stroke-miterlimit:4;stroke-dasharray:none;stroke-opacity:1" d="M-4.488 291.439h3.704v4.762h-3.704z" transform="translate(11.96 -98.237) scale(1.23082)"/></g><g style="stroke-width:.812464"><path style="fill:url(#k);fill-opacity:1;stroke:none;stroke-width:.460785;stroke-linecap:butt;stroke-linejoin:round;stroke-miterlimit:4;stroke-dasharray:none;stroke-opacity:1" d="M-4.488 291.439h3.704v4.762h-3.704z" transform="translate(11.96 -89.659) scale(1.23082)"/><path style="fill:none;fill-opacity:1;stroke:#555761;stroke-width:.214964;stroke-linecap:butt;stroke-linejoin:round;stroke-miterlimit:4;stroke-dasharray:none;stroke-opacity:1" d="M-4.488 291.439h3.704v4.762h-3.704z" transform="translate(11.96 -89.659) scale(1.23082)"/></g><rect ry=".397" rx=".397" y="195.268" x="-183.391" height="2.966" width=".94" style="fill:#a3907c;fill-opacity:.984314;stroke-width:1;stroke-linecap:round;stroke-linejoin:round" transform="rotate(-45)"/><rect style="fill:none;fill-opacity:.984314;stroke:#3d211b;stroke-width:.264583;stroke-linecap:round;stroke-linejoin:round;stroke-miterlimit:4;stroke-dasharray:none;stroke-opacity:1" width=".94" height="2.966" x="-183.391" y="195.268" rx=".397" ry=".397" transform="rotate(-45)"/><rect clip-path="url(#l)" ry="1.5" rx="1.5" y="12.455" x="35.933" height="11.211" width="3.551" style="fill:none;fill-opacity:.984314;stroke:url(#m);stroke-width:1;stroke-linecap:round;stroke-linejoin:round;stroke-miterlimit:4;stroke-dasharray:none;stroke-opacity:.791582" transform="rotate(-45 328.176 136.861) scale(.26458)"/><circle r="1.612" cy="194.265" cx="-182.922" style="fill:url(#n);fill-opacity:1;fill-rule:evenodd;stroke:none;stroke-width:.0157354;stroke-linecap:round;stroke-linejoin:round;stroke-miterlimit:4;stroke-dasharray:none;stroke-dashoffset:0;stroke-opacity:1;paint-order:markers fill stroke" transform="rotate(-45)"/><path style="fill:url(#o);fill-opacity:1;stroke:none;stroke-width:.0111471px;stroke-linecap:butt;stroke-linejoin:miter;stroke-opacity:1" d="M8.913 265.516c-.32-.164-.678-.3-1.042-.226a1.542 1.542 0 0 0-.838.386c-.192.18-.31.392-.413.627-.1.226-.039.366.153.513.204.14.348.048.497-.093.08-.078.168-.147.31-.366.107-.167.426-.332.663-.31.203.026.484.09.694 0 .154-.113.186-.402.004-.509z"/><path style="opacity:.42;fill:url(#p);fill-opacity:1;stroke:none;stroke-width:.0106838px;stroke-linecap:butt;stroke-linejoin:miter;stroke-opacity:1" d="M8.358 265.437a.852.852 0 0 0-.627-.06c-.15.047-.295.114-.434.188a.869.869 0 0 0-.307.262c-.062.087-.13.182-.132.293.014.088.112.127.189.142a.21.21 0 0 0 .206-.066c.09-.083.18-.167.267-.253.06-.045.132-.071.196-.11a.647.647 0 0 1 .384-.061c.09.035.24.066.334.048.08-.016.114-.07.102-.14a.34.34 0 0 0-.178-.243z"/><circle style="fill:none;fill-opacity:1;fill-rule:evenodd;stroke:#002e99;stroke-width:.264583;stroke-linecap:round;stroke-linejoin:round;stroke-miterlimit:4;stroke-dasharray:none;stroke-dashoffset:0;stroke-opacity:1;paint-order:markers fill stroke" cx="-182.893" cy="194.275" r="1.612" transform="rotate(-45)"/></g></svg>