<svg viewBox="0 0 5.821 5.821" height="22" width="22" xmlns:xlink="http://www.w3.org/1999/xlink" xmlns="http://www.w3.org/2000/svg"><defs><linearGradient id="a"><stop style="stop-color:#68b723;stop-opacity:1" offset="0"/><stop style="stop-color:#3a9104;stop-opacity:1" offset="1"/></linearGradient><linearGradient id="b"><stop style="stop-color:#d4d4d4;stop-opacity:1" offset="0"/><stop style="stop-color:#fafafa;stop-opacity:1" offset="1"/></linearGradient><linearGradient xlink:href="#a" id="d" x1="4.498" y1="294.354" x2="4.496" y2="299.558" gradientUnits="userSpaceOnUse"/><linearGradient xlink:href="#b" id="c" x1="12.863" y1="23.104" x2="13.108" y2="2.79" gradientUnits="userSpaceOnUse" gradientTransform="matrix(.97631 0 0 .98944 -1.315 -1.76)"/></defs><path style="fill:url(#c);fill-opacity:1;stroke:none;stroke-width:2.14354;stroke-linecap:butt;stroke-linejoin:round;stroke-miterlimit:4;stroke-dasharray:none;stroke-opacity:1" d="M4 1v18h6.883a1.5 1.5 0 0 1-.387-1v-2.998a1.5 1.5 0 0 1 1.508-1.498h1.498v-1.506A1.5 1.5 0 0 1 15 10.5h2.996a1.5 1.5 0 0 1 .004 0V1H4zm12.498 14.002A1.5 1.5 0 0 1 15 16.5a1.5 1.5 0 0 1 1.498 1.5 1.5 1.5 0 0 1 1.498-1.5 1.5 1.5 0 0 1-1.498-1.498z" transform="scale(.26458)"/><path style="fill:url(#d);fill-opacity:1;stroke:none;stroke-width:.396875;stroke-linecap:round;stroke-linejoin:round;paint-order:stroke markers fill;stop-color:#000" d="M3.969 294.354v.794h-.794v.794h.794v.793h.794v-.793h.793v-.794h-.793v-.794z" transform="translate(0 -291.18)"/><path style="fill:#d1ff82;fill-opacity:1;stroke:none;stroke-width:1.5;stroke-linecap:round;stroke-linejoin:round;paint-order:stroke markers fill;stop-color:#000" d="M15 12v3h-3v.998a1 1 0 0 0 .004 0H15a1 1 0 0 0 .996-.996v-2H17v2a1 1 0 0 0 .996.996H21V15h-3v-3h-3z" transform="scale(.26458)"/><path style="fill:none;stroke:#206b00;stroke-width:.26458333;stroke-linecap:round;stroke-linejoin:round;stroke-miterlimit:4;stroke-dasharray:none;paint-order:stroke markers fill;stop-color:#000" d="M3.969 294.354v.794h-.794v.794h.794v.793h.794v-.793h.793v-.794h-.793v-.794z" transform="translate(0 -291.18)"/><path style="fill:none;fill-opacity:1;stroke:#555761;stroke-width:1;stroke-linecap:butt;stroke-linejoin:round;stroke-miterlimit:4;stroke-dasharray:none;stroke-opacity:1" d="M18 10.5V1H4v18h6.883" transform="scale(.26458)"/></svg>