<svg width="22" height="22" viewBox="0 0 5.821 5.821" xmlns:xlink="http://www.w3.org/1999/xlink" xmlns="http://www.w3.org/2000/svg"><defs><linearGradient id="a"><stop offset="0" style="stop-color:#3689e6;stop-opacity:1"/><stop offset="1" style="stop-color:#64baff;stop-opacity:1"/></linearGradient><linearGradient id="c"><stop offset="0" style="stop-color:#f9f9f9;stop-opacity:1"/><stop offset="1" style="stop-color:#d8d8d8;stop-opacity:1"/></linearGradient><linearGradient id="b"><stop offset="0" style="stop-color:#efdfc4;stop-opacity:1"/><stop offset="1" style="stop-color:#e7c591;stop-opacity:1"/></linearGradient><linearGradient id="d"><stop style="stop-color:#fff;stop-opacity:1" offset="0"/><stop style="stop-color:#fff;stop-opacity:0" offset="1"/></linearGradient><linearGradient xlink:href="#d" id="f" x1="45.962" y1="1024.128" x2="46.429" y2="1042.795" gradientUnits="userSpaceOnUse" gradientTransform="matrix(.14109 0 0 .09924 -289.6 -24.204)"/><linearGradient id="e"><stop offset="0" style="stop-color:#9bdb4d;stop-opacity:1"/><stop offset="1" style="stop-color:#68b723;stop-opacity:1"/></linearGradient></defs><g transform="translate(0 -291.18)"><rect style="fill:#c6262e;fill-opacity:1;stroke:none;stroke-width:.264583;stroke-linecap:round;stroke-linejoin:round;stroke-miterlimit:4;stroke-dasharray:none;stroke-opacity:1;paint-order:normal" width="2.683" height="3.4" x="77.578" y="280.904" rx=".225" ry=".244" transform="rotate(15)"/><rect style="fill:#d4d4d4;fill-opacity:1;stroke:none;stroke-width:.264583;stroke-linecap:round;stroke-linejoin:round;stroke-miterlimit:4;stroke-dasharray:none;stroke-opacity:1;paint-order:normal" width="2.683" height="1.365" x="77.578" y="284.304" rx=".225" ry=".244" transform="rotate(15)"/><path style="fill:#d4d4d4;fill-opacity:1;stroke:none;stroke-width:.264582;stroke-linecap:round;stroke-linejoin:round;stroke-miterlimit:4;stroke-dasharray:none;stroke-opacity:1;paint-order:normal" transform="rotate(15)" d="M77.578 284.304h2.683v.277h-2.683z"/><path style="fill:#c6262e;fill-opacity:1;stroke:none;stroke-width:.264582;stroke-linecap:round;stroke-linejoin:round;stroke-miterlimit:4;stroke-dasharray:none;stroke-opacity:1;paint-order:normal" transform="rotate(15)" d="M77.578 284.027h2.683v.277h-2.683z"/><rect ry=".244" rx=".225" y="284.304" x="77.578" height="1.365" width="2.683" style="fill:#d4d4d4;fill-opacity:1;stroke:none;stroke-width:.264583;stroke-linecap:round;stroke-linejoin:round;stroke-miterlimit:4;stroke-dasharray:none;stroke-opacity:1;paint-order:normal" transform="rotate(15)"/><rect transform="rotate(-75)" ry=".103" rx=".129" y="77.913" x="-285.4" height=".436" width="4.22" style="fill:url(#f);fill-opacity:1;stroke:none;stroke-width:.122856;stroke-linecap:round;stroke-linejoin:round;stroke-miterlimit:4;stroke-dasharray:none;stroke-opacity:1"/><path style="fill:#7a0000;fill-opacity:1;stroke:none;stroke-width:.264583;stroke-linecap:round;stroke-linejoin:round;stroke-miterlimit:4;stroke-dasharray:none;stroke-opacity:1;paint-order:normal" d="m4.516 292.023-.88 3.284.09.024.217.058.063-.236.008-.03.746-2.781c.035-.131-.034-.263-.155-.295z"/><path style="fill:none;fill-opacity:1;stroke:#a10705;stroke-width:.264583;stroke-linecap:butt;stroke-linejoin:round;stroke-miterlimit:4;stroke-dasharray:none;stroke-opacity:1;paint-order:normal" d="m3.943 295.39.063-.237.008-.03.746-2.781c.035-.131-.034-.263-.155-.295l-2.156-.578c-.12-.032-.246.047-.281.178l-.745 2.781-.009.031-.063.236"/><path style="fill:#555761;fill-opacity:1;stroke:none;stroke-width:.264583;stroke-linecap:round;stroke-linejoin:round;stroke-miterlimit:4;stroke-dasharray:none;stroke-opacity:1;paint-order:normal" d="m3.636 295.307-.353 1.32.089.023c.12.032.246-.048.28-.178l.228-.846c.035-.131-.034-.263-.155-.295z"/><path style="fill:#555761;fill-opacity:1;stroke:none;stroke-width:.264583;stroke-linecap:butt;stroke-linejoin:round;stroke-miterlimit:4;stroke-dasharray:none;stroke-opacity:1;paint-order:normal" transform="rotate(15)" d="M79.944 284.304h.317v.335h-.317z"/><path style="fill:none;fill-opacity:1;stroke:#7e8087;stroke-width:.264583;stroke-linecap:butt;stroke-linejoin:round;stroke-miterlimit:4;stroke-dasharray:none;stroke-opacity:1;paint-order:normal" d="m1.351 294.695-.063.236-.008.032-.219.814c-.035.131.034.263.155.295l2.156.578c.12.032.246-.048.28-.178l.228-.846.063-.236"/></g></svg>