<svg viewBox="0 0 16.5 16.5" height="22" width="22" xmlns:xlink="http://www.w3.org/1999/xlink" xmlns="http://www.w3.org/2000/svg"><defs><linearGradient id="a"><stop offset="0" style="stop-color:#3689e6;stop-opacity:1"/><stop offset="1" style="stop-color:#64baff;stop-opacity:1"/></linearGradient><linearGradient id="d"><stop style="stop-color:#fff;stop-opacity:1" offset="0"/><stop style="stop-color:#fff;stop-opacity:.23529412" offset="0"/><stop style="stop-color:#fff;stop-opacity:.15686275" offset="1"/><stop style="stop-color:#fff;stop-opacity:.39215687" offset="1"/></linearGradient><linearGradient id="e"><stop offset="0" style="stop-color:#f4f4f4;stop-opacity:1"/><stop offset="1" style="stop-color:#dbdbdb;stop-opacity:1"/></linearGradient><linearGradient id="h"><stop offset="0" style="stop-color:#000;stop-opacity:1"/><stop offset="1" style="stop-color:#000;stop-opacity:0"/></linearGradient><linearGradient id="f"><stop style="stop-color:#cdf87e;stop-opacity:1" offset="0"/><stop style="stop-color:#a2e34f;stop-opacity:1" offset=".262"/><stop style="stop-color:#68b723;stop-opacity:1" offset=".661"/><stop style="stop-color:#1d7e0d;stop-opacity:1" offset="1"/></linearGradient><linearGradient id="c"><stop offset="0" style="stop-color:#f9f9f9;stop-opacity:1"/><stop offset="1" style="stop-color:#d8d8d8;stop-opacity:1"/></linearGradient><linearGradient id="b"><stop offset="0" style="stop-color:#efdfc4;stop-opacity:1"/><stop offset="1" style="stop-color:#e7c591;stop-opacity:1"/></linearGradient><linearGradient x1="24" y1="6.923" x2="24" y2="41.077" id="m" xlink:href="#d" gradientUnits="userSpaceOnUse" gradientTransform="matrix(.18243 0 0 .26351 6.122 8.925)"/><linearGradient x1="25.132" y1=".985" x2="25.132" y2="47.013" id="l" xlink:href="#e" gradientUnits="userSpaceOnUse" gradientTransform="matrix(.21429 0 0 .22815 5.357 9.424)"/><linearGradient x1="25.469" y1="32.841" x2="25.469" y2="2.724" id="n" xlink:href="#f" gradientUnits="userSpaceOnUse" gradientTransform="matrix(.20971 0 0 -.19587 3.017 18.024)"/><linearGradient x1="20.797" y1="20.649" x2="37.474" y2="20.649" id="o" xlink:href="#g" gradientUnits="userSpaceOnUse" gradientTransform="matrix(0 .22955 .24577 0 3.39 7.427)"/><linearGradient id="g"><stop style="stop-color:#fff;stop-opacity:1" offset="0"/><stop style="stop-color:#fff;stop-opacity:.23529412" offset=".512"/><stop style="stop-color:#fff;stop-opacity:.15686275" offset=".585"/><stop style="stop-color:#fff;stop-opacity:.39215687" offset="1"/></linearGradient><linearGradient y2="47.013" x2="25.132" y1=".985" x1="25.132" gradientTransform="matrix(.21429 0 0 .22815 .857 6.424)" gradientUnits="userSpaceOnUse" id="i" xlink:href="#e"/><linearGradient y2="41.077" x2="24" y1="6.923" x1="24" gradientTransform="matrix(.18243 0 0 .26351 1.622 5.925)" gradientUnits="userSpaceOnUse" id="j" xlink:href="#d"/><radialGradient cx="24.837" cy="36.421" r="15.645" fx="24.837" fy="36.421" id="k" xlink:href="#h" gradientUnits="userSpaceOnUse" gradientTransform="matrix(-.19176 0 0 -.14382 12.265 21.242)"/></defs><path d="M2.25 7h7.5v10.5h-7.5V7z" style="display:inline;fill:url(#i);fill-opacity:1;stroke:none;stroke-width:.75" transform="translate(0 -5.5)"/><path d="M9.375 17.125h-6.75v-9.75h6.75z" style="fill:none;stroke:url(#j);stroke-width:.75;stroke-linecap:round;stroke-linejoin:miter;stroke-miterlimit:4;stroke-dasharray:none;stroke-dashoffset:0;stroke-opacity:1" transform="translate(0 -5.5)"/><path d="M1.875 6.625h8.25v11.25h-8.25V6.625z" style="display:inline;fill:none;stroke:#7e8087;stroke-width:.74994147;stroke-linecap:butt;stroke-linejoin:round;stroke-miterlimit:4;stroke-dasharray:none;stroke-dashoffset:0;stroke-opacity:1" transform="translate(0 -5.5)"/><path d="M5.25 8.499h5.25v9.75H5.25V8.5z" style="display:inline;opacity:.05;fill:#000;fill-opacity:1;stroke:none;stroke-width:.75" transform="translate(0 -5.5)"/><path style="display:inline;overflow:visible;visibility:visible;opacity:.14117647;fill:url(#k);fill-opacity:1;fill-rule:evenodd;stroke:none;stroke-width:.75;marker:none" d="M4.502 16.004a3 2.25 0 1 1 6 0 3 2.25 0 0 1-6 0z" transform="translate(0 -5.5)"/><path d="M6.75 10h7.5v10.5h-7.5V10z" style="display:inline;fill:url(#l);fill-opacity:1;stroke:none;stroke-width:.75" transform="translate(0 -5.5)"/><path d="M13.875 20.125h-6.75v-9.75h6.75z" style="fill:none;stroke:url(#m);stroke-width:.75;stroke-linecap:round;stroke-linejoin:miter;stroke-miterlimit:4;stroke-dasharray:none;stroke-dashoffset:0;stroke-opacity:1" transform="translate(0 -5.5)"/><path d="M6.375 9.625h8.25v11.25h-8.25V9.625z" style="display:inline;fill:none;stroke:#7e8087;stroke-width:.74994147;stroke-linecap:butt;stroke-linejoin:round;stroke-miterlimit:4;stroke-dasharray:none;stroke-dashoffset:0;stroke-opacity:1" transform="translate(0 -5.5)"/><path style="display:block;overflow:visible;visibility:visible;fill:url(#n);fill-opacity:1;fill-rule:nonzero;stroke:none;stroke-width:.7229436;stroke-linecap:butt;stroke-linejoin:round;stroke-miterlimit:7;stroke-dasharray:none;stroke-dashoffset:0;stroke-opacity:1;marker:none" d="M6.227 10.446c-2.663 1.803-1.063 5.263 1.65 5.263v1.433l3.75-2.678-3.75-2.505v1.5c-1.914.075-2.751-1.755-1.383-3.013z" transform="translate(0 -5.5)"/><path style="display:block;overflow:visible;visibility:visible;opacity:.8;fill:none;stroke:url(#o);stroke-width:.7229436;stroke-linecap:butt;stroke-linejoin:miter;stroke-miterlimit:7;stroke-dasharray:none;stroke-dashoffset:0;stroke-opacity:1;marker:none" d="M5.716 11.379c-.94 1.103-.094 3.983 2.911 3.589v.741l1.748-1.245-1.748-1.132v.594c-3.298.176-3.192-2.101-2.911-2.547z" transform="translate(0 -5.5)"/><path style="color:#000;clip-rule:nonzero;display:inline;overflow:visible;visibility:visible;opacity:1;isolation:auto;mix-blend-mode:normal;color-interpolation:sRGB;color-interpolation-filters:linearRGB;solid-color:#000;solid-opacity:1;fill:none;fill-opacity:1;fill-rule:nonzero;stroke:#3a9104;stroke-width:.75;stroke-linecap:round;stroke-linejoin:round;stroke-miterlimit:4;stroke-dasharray:none;stroke-dashoffset:0;stroke-opacity:1;marker:none;color-rendering:auto;image-rendering:auto;shape-rendering:auto;text-rendering:auto;enable-background:accumulate" d="M6.227 10.446c-2.663 1.803-1.063 5.263 1.65 5.263v1.433l3.75-2.678-3.75-2.505v1.5c-1.914.075-2.751-1.755-1.383-3.013z" transform="translate(0 -5.5)"/><path d="M6.375 9.625v2.472" style="fill:none;stroke:#7e8087;stroke-width:.75px;stroke-linecap:butt;stroke-linejoin:miter;stroke-opacity:1" transform="translate(0 -5.5)"/><path d="M6.75 10.375h.623" style="fill:none;stroke:#fff;stroke-width:.75px;stroke-linecap:butt;stroke-linejoin:miter;stroke-opacity:1" transform="translate(0 -5.5)"/></svg>