<svg viewBox="0 0 5.821 5.821" height="22" width="22" xmlns:xlink="http://www.w3.org/1999/xlink" xmlns="http://www.w3.org/2000/svg"><defs><linearGradient id="a"><stop offset="0" style="stop-color:#3689e6;stop-opacity:1"/><stop offset="1" style="stop-color:#0d52bf;stop-opacity:.97428107"/></linearGradient><linearGradient xlink:href="#a" id="b" x1="20.092" y1=".742" x2="23.318" y2="4.498" gradientUnits="userSpaceOnUse" gradientTransform="matrix(1.02785 0 0 1.02776 -19.243 .029)"/></defs><path style="fill:#b9cfe7;fill-opacity:1;stroke:none;stroke-width:.264583px;stroke-linecap:butt;stroke-linejoin:miter;stroke-opacity:1" d="M.792 4.903c.184.23.529.268.816.332.638.141 1.332.287 1.958.099.573-.172 1.15-.543 1.447-1.062.23-.405.243-.936.139-1.39a3.464 3.464 0 0 0-1.127-1.829 2.37 2.37 0 0 0-1.32-.521 2.472 2.472 0 0 0-1.417.326c-.294.175-.636.43-.68.768-.042.33.33.58.45.89.118.299.324.61.266.926-.065.347-.554.503-.637.846-.05.202-.026.453.105.615z"/><path d="M.792 4.903c.184.23.529.268.816.332.638.141 1.332.287 1.958.099.573-.172 1.15-.543 1.447-1.062.23-.405.243-.936.139-1.39a3.464 3.464 0 0 0-1.127-1.829 2.37 2.37 0 0 0-1.32-.521 2.472 2.472 0 0 0-1.417.326c-.294.175-.636.43-.68.768-.042.33.33.58.45.89.118.299.324.61.266.926-.065.347-.554.503-.637.846-.05.202-.026.453.105.615z" style="fill:none;fill-opacity:1;stroke:url(#b);stroke-width:.264583px;stroke-linecap:butt;stroke-linejoin:miter;stroke-opacity:1"/></svg>