<svg viewBox="0 0 5.821 5.821" height="22" width="22" xmlns:xlink="http://www.w3.org/1999/xlink" xmlns="http://www.w3.org/2000/svg"><defs><linearGradient id="a"><stop offset="0" style="stop-color:#3689e6;stop-opacity:1"/><stop offset="1" style="stop-color:#64baff;stop-opacity:1"/></linearGradient><linearGradient id="c"><stop offset="0" style="stop-color:#f9f9f9;stop-opacity:1"/><stop offset="1" style="stop-color:#d8d8d8;stop-opacity:1"/></linearGradient><linearGradient id="b"><stop offset="0" style="stop-color:#efdfc4;stop-opacity:1"/><stop offset="1" style="stop-color:#e7c591;stop-opacity:1"/></linearGradient><linearGradient id="g"><stop offset="0" style="stop-color:#fff3cb;stop-opacity:1"/><stop offset=".262" style="stop-color:#fdde76;stop-opacity:1"/><stop offset=".661" style="stop-color:#f9c440;stop-opacity:1"/><stop offset="1" style="stop-color:#e48b20;stop-opacity:1"/></linearGradient><linearGradient id="d"><stop offset="0" style="stop-color:#9bdb4d;stop-opacity:1"/><stop offset="1" style="stop-color:#68b723;stop-opacity:1"/></linearGradient><linearGradient id="f"><stop offset="0" style="stop-color:#c6f27b;stop-opacity:1"/><stop offset="1" style="stop-color:#93d049;stop-opacity:1"/></linearGradient><linearGradient id="e"><stop offset="0" style="stop-color:#c396eb;stop-opacity:1"/><stop offset="1" style="stop-color:#9d68d7;stop-opacity:1"/></linearGradient><linearGradient y2="56.673" x2="62.192" y1="42.537" x1="76.787" gradientTransform="translate(71.761 300.868) scale(.10086)" gradientUnits="userSpaceOnUse" id="k" xlink:href="#g"/><linearGradient y2="48.763" x2="74.227" y1="48.763" x1="56.077" gradientTransform="translate(73.846 302.286) scale(.07433)" gradientUnits="userSpaceOnUse" id="l" xlink:href="#h"/><linearGradient id="h"><stop style="stop-color:#445567;stop-opacity:1" offset="0"/><stop style="stop-color:#253141;stop-opacity:1" offset="1"/></linearGradient><linearGradient y2="56.673" x2="62.192" y1="42.537" x1="76.787" gradientTransform="translate(70.176 303.955) scale(.10086)" gradientUnits="userSpaceOnUse" id="m" xlink:href="#g"/><linearGradient y2="48.763" x2="74.227" y1="48.763" x1="56.077" gradientTransform="translate(72.261 305.374) scale(.07433)" gradientUnits="userSpaceOnUse" id="n" xlink:href="#h"/><clipPath id="i" clipPathUnits="userSpaceOnUse"><path style="opacity:1;fill:#fafafa;fill-opacity:1;stroke:#0e141f;stroke-width:.426032;stroke-linecap:round;stroke-linejoin:round;stroke-miterlimit:4;stroke-dasharray:none;stroke-opacity:1" d="M19.762 1017.144v2.766h4.107c.379 0 .684-.385.684-.863v-1.04c0-.478-.305-.863-.684-.863z"/></clipPath><clipPath id="j" clipPathUnits="userSpaceOnUse"><path d="M14.658 1017.143v2.768H27.4v-2.768z" style="opacity:1;fill:#273445;fill-opacity:1;stroke:#0e141f;stroke-width:.478602;stroke-linecap:round;stroke-linejoin:round;stroke-miterlimit:4;stroke-dasharray:none;stroke-opacity:1"/></clipPath></defs><g transform="translate(-74.953 -304.4)"><rect style="fill:#273445;fill-opacity:1;stroke:#0e141f;stroke-width:.148202;stroke-linecap:round;stroke-linejoin:round;stroke-miterlimit:4;stroke-dasharray:none;stroke-opacity:1" width="5.793" height=".985" x="269.659" y="161.945" rx=".529" ry=".529" transform="rotate(45)"/><path style="fill:#d4d4d4;fill-opacity:1;stroke:none;stroke-width:.131924;stroke-linecap:round;stroke-linejoin:round;stroke-miterlimit:4;stroke-dasharray:none;stroke-opacity:1" d="m79.382 308.406-.697.696.755.755c.07.07.222.029.343-.092l.261-.262c.12-.12.162-.273.092-.343z"/><path clip-path="url(#i)" style="fill:#485a6c;fill-opacity:1;stroke:none;stroke-width:1.01838;stroke-linecap:round;stroke-linejoin:round;stroke-miterlimit:4;stroke-dasharray:none;stroke-opacity:1" transform="matrix(.18371 .18371 -.25164 .25164 331.7 48.826)" d="M13.382 1019.212h16.14v3.24h-16.14z"/><path d="m77.04 306.065-.695.696-.755-.754c-.07-.07-.029-.223.092-.343l.261-.262c.12-.12.274-.16.343-.091z" style="fill:#d4d4d4;fill-opacity:1;stroke:none;stroke-width:.131924;stroke-linecap:round;stroke-linejoin:round;stroke-miterlimit:4;stroke-dasharray:none;stroke-opacity:1"/><path transform="matrix(-.18371 -.18371 -.25164 .25164 336.621 53.746)" style="fill:#485a6c;fill-opacity:1;stroke:none;stroke-width:1.01838;stroke-linecap:round;stroke-linejoin:round;stroke-miterlimit:4;stroke-dasharray:none;stroke-opacity:1" clip-path="url(#i)" d="M13.382 1019.212h16.14v3.24h-16.14z"/><path style="fill:#0e141f;fill-opacity:1;stroke:none;stroke-width:1.01838;stroke-linecap:round;stroke-linejoin:round;stroke-miterlimit:4;stroke-dasharray:none;stroke-opacity:1" clip-path="url(#j)" transform="matrix(.18371 .18372 -.25164 .25163 330.307 47.422)" d="M13.382 1019.212h16.14v3.24h-16.14z"/><rect style="fill:#fafafa;fill-opacity:1;stroke:none;stroke-width:.232281;stroke-linecap:round;stroke-linejoin:round;stroke-miterlimit:4;stroke-dasharray:none;stroke-opacity:1" width="5.329" height=".218" x="269.836" y="162.112" rx=".132" ry=".132" transform="rotate(45)"/><path d="m79.382 308.406-.697.696.755.755c.07.07.222.029.343-.092l.261-.262c.12-.12.162-.273.092-.343zm-2.342-2.341-.695.696-.755-.754c-.07-.07-.029-.223.092-.343l.261-.262c.12-.12.274-.16.343-.091z" style="fill:none;fill-opacity:1;stroke:#0e141f;stroke-width:.131924;stroke-linecap:round;stroke-linejoin:round;stroke-miterlimit:4;stroke-dasharray:none;stroke-opacity:1"/><path style="display:inline;fill:url(#k);fill-opacity:1;fill-rule:evenodd;stroke:none;stroke-width:.112825;stroke-linecap:butt;stroke-linejoin:round;stroke-miterlimit:4;stroke-dasharray:none;stroke-dashoffset:0;stroke-opacity:.235294;paint-order:markers fill stroke" d="M79.313 305.91c0 .057-.386.16-.426.2-.04.04-.142.425-.198.425-.056 0-.159-.386-.199-.426-.04-.04-.425-.142-.425-.198 0-.057.385-.159.425-.199.04-.04.143-.425.199-.425.056 0 .159.385.198.425.04.04.426.143.426.199z"/><path style="display:inline;opacity:.5;fill:none;fill-opacity:1;fill-rule:evenodd;stroke:url(#l);stroke-width:.153216;stroke-linecap:butt;stroke-linejoin:round;stroke-miterlimit:4;stroke-dasharray:none;stroke-dashoffset:0;stroke-opacity:1;paint-order:markers fill stroke" d="M79.313 305.91c0 .057-.386.16-.426.2-.04.04-.142.425-.198.425-.056 0-.159-.386-.199-.426-.04-.04-.425-.142-.425-.198 0-.057.385-.159.425-.199.04-.04.143-.425.199-.425.056 0 .159.385.198.425.04.04.426.143.426.199z"/><path style="display:inline;fill:url(#m);fill-opacity:1;fill-rule:evenodd;stroke:none;stroke-width:.112825;stroke-linecap:butt;stroke-linejoin:round;stroke-miterlimit:4;stroke-dasharray:none;stroke-dashoffset:0;stroke-opacity:.235294;paint-order:markers fill stroke" d="M77.728 308.998c0 .057-.386.16-.425.199-.04.04-.143.425-.199.425-.056 0-.159-.385-.199-.425-.04-.04-.425-.142-.425-.199 0-.056.386-.158.425-.198.04-.04.143-.426.199-.426.056 0 .159.386.199.426.04.04.425.142.425.198z"/><path style="display:inline;opacity:.5;fill:none;fill-opacity:1;fill-rule:evenodd;stroke:url(#n);stroke-width:.153216;stroke-linecap:butt;stroke-linejoin:round;stroke-miterlimit:4;stroke-dasharray:none;stroke-dashoffset:0;stroke-opacity:1;paint-order:markers fill stroke" d="M77.728 308.998c0 .057-.386.16-.425.199-.04.04-.143.425-.199.425-.056 0-.159-.385-.199-.425-.04-.04-.425-.142-.425-.199 0-.056.386-.158.425-.198.04-.04.143-.426.199-.426.056 0 .159.386.199.426.04.04.425.142.425.198z"/></g></svg>