<svg viewBox="0 0 5.821 5.821" height="22" width="22" xmlns:xlink="http://www.w3.org/1999/xlink" xmlns="http://www.w3.org/2000/svg"><defs><linearGradient id="a"><stop style="stop-color:#ff8c82;stop-opacity:1" offset="0"/><stop style="stop-color:#ed5353;stop-opacity:1" offset="1"/></linearGradient><linearGradient id="b"><stop style="stop-color:#d4d4d4;stop-opacity:1" offset="0"/><stop style="stop-color:#fafafa;stop-opacity:1" offset="1"/></linearGradient><linearGradient xlink:href="#a" id="d" gradientUnits="userSpaceOnUse" gradientTransform="rotate(45 -341.6 146.849) scale(.28063)" x1="14.278" y1="10.876" x2="32.182" y2="29.162"/><linearGradient xlink:href="#b" id="c" x1="12.863" y1="23.104" x2="13.108" y2="2.79" gradientUnits="userSpaceOnUse" gradientTransform="matrix(.97631 0 0 .98944 -1.315 -1.76)"/></defs><path style="fill:url(#c);fill-opacity:1;stroke:none;stroke-width:2.14354;stroke-linecap:butt;stroke-linejoin:round;stroke-miterlimit:4;stroke-dasharray:none;stroke-opacity:1" d="M4 1v18h6.523a1.5 1.5 0 0 1 .416-1.31l1.19-1.19-1.19-1.188a1.5 1.5 0 0 1 0-2.126l2.252-2.245a1.5 1.5 0 0 1 1.034-.441 1.5 1.5 0 0 1 1.086.441l1.187 1.19 1.19-1.19a1.5 1.5 0 0 1 .312-.24V1H4zm10.246 13.115-.125.135 1.19 1.188a1.5 1.5 0 0 1 0 2.126l-1.19 1.188.125.133 1.197-1.196a1.5 1.5 0 0 1 2.118 0l.439.44v-.252l-.313-.313a1.5 1.5 0 0 1 0-2.127l.313-.312v-.252l-.44.44a1.5 1.5 0 0 1-2.117 0l-1.197-1.198z" transform="scale(.26458)"/><path style="fill:url(#d);fill-opacity:1;stroke:none;stroke-width:.396875;stroke-linecap:round;stroke-linejoin:round;paint-order:stroke markers fill;stop-color:#000" d="m4.96 294.354-.594.595-.596-.595-.595.595.595.596-.595.595.595.595.596-.595.595.595.595-.595-.595-.595.595-.596z" transform="translate(0 -291.18)"/><path style="fill:#ff8c82;fill-opacity:1;stroke:none;stroke-width:1.5;stroke-linecap:round;stroke-linejoin:round;paint-order:stroke markers fill;stop-color:#000" d="M14.25 12 12 14.25l.705.705 1.541-1.54 1.543 1.542a1 1 0 0 0 1.418 0l1.543-1.543 1.543 1.543.707-.707L18.75 12l-2.25 2.25L14.25 12z" transform="scale(.26458)"/><path style="fill:none;stroke:#7a0000;stroke-width:.264583;stroke-linecap:round;stroke-linejoin:round;stroke-miterlimit:4;stroke-dasharray:none;paint-order:stroke markers fill;stop-color:#000" d="m4.96 294.354-.594.595-.596-.595-.595.595.595.596-.595.595.595.595.596-.595.595.595.595-.595-.595-.595.595-.596z" transform="translate(0 -291.18)"/><path style="fill:none;fill-opacity:1;stroke:#555761;stroke-width:1;stroke-linecap:butt;stroke-linejoin:round;stroke-miterlimit:4;stroke-dasharray:none;stroke-opacity:1" d="M18 10.701V1H4v18h6.523" transform="scale(.26458)"/></svg>