<?xml version="1.0" encoding="UTF-8" standalone="no"?>
<svg
   xmlns:dc="http://purl.org/dc/elements/1.1/"
   xmlns:cc="http://creativecommons.org/ns#"
   xmlns:rdf="http://www.w3.org/1999/02/22-rdf-syntax-ns#"
   xmlns:svg="http://www.w3.org/2000/svg"
   xmlns="http://www.w3.org/2000/svg"
   xmlns:sodipodi="http://sodipodi.sourceforge.net/DTD/sodipodi-0.dtd"
   xmlns:inkscape="http://www.inkscape.org/namespaces/inkscape"
   sodipodi:docname="thickness-finer.svg"
   inkscape:version="1.0 (4035a4fb49, 2020-05-01)"
   version="1.1"
   id="svg2"
   height="22"
   width="22">
  <defs
     id="defs4" />
  <sodipodi:namedview
     inkscape:document-rotation="0"
     inkscape:window-maximized="1"
     inkscape:window-y="24"
     inkscape:window-x="0"
     inkscape:window-height="1000"
     inkscape:window-width="1280"
     showgrid="false"
     inkscape:current-layer="layer1"
     inkscape:document-units="px"
     inkscape:cy="12.164063"
     inkscape:cx="14.725295"
     inkscape:zoom="31.678384"
     inkscape:pageshadow="2"
     inkscape:pageopacity="0.0"
     borderopacity="1.0"
     bordercolor="#666666"
     pagecolor="#ffffff"
     id="base" />
  <metadata
     id="metadata7">
    <rdf:RDF>
      <cc:Work
         rdf:about="">
        <dc:format>image/svg+xml</dc:format>
        <dc:type
           rdf:resource="http://purl.org/dc/dcmitype/StillImage" />
        <dc:title />
      </cc:Work>
    </rdf:RDF>
  </metadata>
  <g
     transform="translate(0,-1030.3622)"
     id="layer1"
     inkscape:groupmode="layer"
     inkscape:label="Ebene 1">
    <g
       id="g855"
       transform="matrix(0.76133777,0,0,0.76133819,3.4045844,249.32105)"
       style="stroke-width:1.31348">
      <ellipse
         ry="2.587117"
         rx="2.5871191"
         cy="1040.3511"
         cx="9.9529524"
         style="fill:#d9d9d9;fill-opacity:1;stroke:none;stroke-width:0.452729"
         id="path2985" />
      <path
         id="path851"
         style="fill:#b2b2b2;fill-opacity:1;stroke:none;stroke-width:0.452731"
         d="m 7.4364999,1039.9932 a 2.5871191,2.587117 0 0 0 -0.071265,0.3577 2.5871191,2.587117 0 0 0 2.5879175,2.5879 2.5871191,2.587117 0 0 0 2.5865196,-2.5879 2.5871191,2.587117 0 0 0 -0.04891,-0.2417 2.5871191,2.5871169 0 0 1 -2.5376124,2.1142 2.5871191,2.5871169 0 0 1 -2.5166514,-2.2302 z" />
      <path
         id="path856"
         style="fill:#ffffff;fill-opacity:1;stroke:none;stroke-width:0.452731"
         d="m 9.9531518,1037.7644 a 2.5871191,2.587117 0 0 0 -2.5879175,2.5865 2.5871191,2.587117 0 0 0 0.071265,0.3577 2.5871191,2.5871169 0 0 1 2.5166519,-2.2287 2.5871191,2.5871169 0 0 1 2.5152548,2.2287 2.5871191,2.587117 0 0 0 0.07127,-0.3577 2.5871191,2.587117 0 0 0 -2.5865205,-2.5865 z" />
      <ellipse
         ry="2.587117"
         rx="2.5871191"
         cy="1040.3511"
         cx="9.9529524"
         id="path863"
         style="fill:none;fill-opacity:1;stroke:#241f31;stroke-width:1.31348;stroke-miterlimit:4;stroke-dasharray:none;stroke-opacity:1" />
    </g>
  </g>
</svg>
