<svg viewBox="0 0 5.821 5.821" height="22" width="22" xmlns:xlink="http://www.w3.org/1999/xlink" xmlns="http://www.w3.org/2000/svg"><defs><linearGradient id="g"><stop offset="0" style="stop-color:#0d52bf;stop-opacity:1"/><stop offset="1" style="stop-color:#3689e6;stop-opacity:.99425286"/></linearGradient><linearGradient id="f"><stop style="stop-color:#fff;stop-opacity:1" offset="0"/><stop style="stop-color:#fff;stop-opacity:.23529412" offset=".434"/><stop style="stop-color:#fff;stop-opacity:.15686275" offset="1"/><stop style="stop-color:#fff;stop-opacity:.39215687" offset="1"/></linearGradient><linearGradient id="e"><stop offset="0" style="stop-color:#fff;stop-opacity:1"/><stop offset=".297" style="stop-color:#fff;stop-opacity:.23529412"/><stop offset="1" style="stop-color:#fff;stop-opacity:.15686275"/><stop offset="1" style="stop-color:#fff;stop-opacity:.39215687"/></linearGradient><linearGradient id="a"><stop offset="0" style="stop-color:#3689e6;stop-opacity:1"/><stop offset="1" style="stop-color:#64baff;stop-opacity:1"/></linearGradient><linearGradient id="h"><stop offset="0" style="stop-color:#f4f4f4;stop-opacity:1"/><stop offset="1" style="stop-color:#dbdbdb;stop-opacity:1"/></linearGradient><linearGradient id="c"><stop offset="0" style="stop-color:#efdfc4;stop-opacity:1"/><stop offset="1" style="stop-color:#e9c998;stop-opacity:1"/></linearGradient><linearGradient id="b"><stop style="stop-color:#f9f9f9;stop-opacity:1" offset="0"/><stop style="stop-color:#d8d8d8;stop-opacity:1" offset="1"/></linearGradient><linearGradient y2="23.727" y1="20.874" x2="63.344" x1="63.378" id="k" xlink:href="#b" gradientUnits="userSpaceOnUse" gradientTransform="translate(-46.884 101.552) scale(.12125)"/><linearGradient id="d"><stop style="stop-color:#efdfc4;stop-opacity:1" offset="0"/><stop style="stop-color:#e7c591;stop-opacity:1" offset="1"/></linearGradient><linearGradient xlink:href="#c" id="n" gradientUnits="userSpaceOnUse" gradientTransform="matrix(.02213 0 0 .02166 -46.854 103.974)" x1="413.606" y1="8.127" x2="413.606" y2="130.485"/><linearGradient y2="130.485" x2="413.606" y1="8.127" x1="413.606" gradientTransform="matrix(.06274 0 0 .0614 15.472 13.194)" gradientUnits="userSpaceOnUse" id="i" xlink:href="#c"/><linearGradient gradientUnits="userSpaceOnUse" y2="21.706" x2="41.221" y1="12.883" x1="41.282" id="p" xlink:href="#e"/><linearGradient y2="23.727" x2="63.344" y1="20.874" x1="63.378" gradientTransform="translate(15.386 6.33) scale(.3437)" gradientUnits="userSpaceOnUse" id="j" xlink:href="#b"/><linearGradient gradientUnits="userSpaceOnUse" y2="17.373" x2="37.679" y1="9.217" x1="37.782" id="m" xlink:href="#f"/><clipPath id="o" clipPathUnits="userSpaceOnUse"><path d="m33.366 14.96.56 6.069s0 .249.25.249h13.937c.249 0 .249-.25.249-.25l.56-6.068c.012-.124.062-.373-.249-.373H33.677c-.373 0-.325.252-.31.373z" style="color:#000;display:inline;overflow:visible;visibility:visible;opacity:1;vector-effect:none;fill:url(#i);fill-opacity:1;fill-rule:nonzero;stroke:none;stroke-width:.75;stroke-linecap:butt;stroke-linejoin:miter;stroke-miterlimit:4;stroke-dasharray:none;stroke-dashoffset:0;stroke-opacity:.988636;marker:none;enable-background:accumulate"/></clipPath><clipPath id="l" clipPathUnits="userSpaceOnUse"><path d="M34.777 10.802c-.138 0-.229.134-.229.272v.765h-.373a.248.248 0 0 0-.249.248v2.411h14.436l.004-2.41a.248.248 0 0 0-.248-.25h-7.845l-.006-.786a.249.249 0 0 0-.249-.25z" style="color:#000;display:inline;overflow:visible;visibility:visible;fill:url(#j);fill-opacity:1;fill-rule:nonzero;stroke:none;stroke-width:0;stroke-miterlimit:4;stroke-dasharray:none;marker:none;enable-background:accumulate"/></clipPath></defs><path style="color:#000;display:inline;overflow:visible;visibility:visible;fill:url(#k);fill-opacity:1;fill-rule:nonzero;stroke:none;stroke-width:0;stroke-miterlimit:4;stroke-dasharray:none;marker:none;enable-background:accumulate" d="M-40.044 103.13c-.048 0-.08.048-.08.096v.27h-.132a.088.088 0 0 0-.088.088v.85h5.093l.001-.85a.088.088 0 0 0-.088-.088h-2.767l-.002-.277a.088.088 0 0 0-.088-.088z" transform="translate(40.708 -101.27)"/><path d="m-35.251 104.434.001-.85a.088.088 0 0 0-.088-.088h-2.767l-.002-.277a.088.088 0 0 0-.088-.088h-1.849c-.048 0-.08.047-.08.095v.27h-.132a.088.088 0 0 0-.088.088v.85" style="color:#000;display:inline;overflow:visible;visibility:visible;fill:none;fill-opacity:1;fill-rule:nonzero;stroke:#666;stroke-width:.264583;stroke-linecap:round;stroke-linejoin:miter;stroke-miterlimit:4;stroke-dasharray:none;stroke-opacity:1;marker:none;enable-background:accumulate" transform="translate(40.708 -101.27)"/><path clip-path="url(#l)" style="color:#000;display:inline;overflow:visible;visibility:visible;fill:none;fill-opacity:1;fill-rule:nonzero;stroke:url(#m);stroke-width:1.5;stroke-linecap:round;stroke-linejoin:round;stroke-miterlimit:4;stroke-dasharray:none;stroke-opacity:1;marker:none;enable-background:accumulate" d="m48.362 14.498.004-2.41a.248.248 0 0 0-.248-.25h-7.845l-.006-.786a.25.25 0 0 0-.25-.25h-5.24c-.138 0-.229.134-.229.272v.765h-.373a.248.248 0 0 0-.249.248v2.411" transform="translate(-11.604 -1.95) scale(.35278)"/><path style="color:#000;display:inline;overflow:visible;visibility:visible;vector-effect:none;fill:url(#n);fill-opacity:1;fill-rule:nonzero;stroke:none;stroke-width:.264583;stroke-linecap:butt;stroke-linejoin:miter;stroke-miterlimit:4;stroke-dasharray:none;stroke-dashoffset:0;stroke-opacity:.988636;marker:none;enable-background:accumulate" d="m-40.541 104.597.197 2.141s0 .088.088.088h4.917c.088 0 .088-.088.088-.088l.197-2.14c.005-.045.022-.132-.088-.132h-5.29c-.131 0-.115.088-.11.131z" transform="translate(40.708 -101.27)"/><path d="m-40.541 104.597.197 2.141s0 .088.088.088h4.917c.088 0 .088-.088.088-.088l.197-2.14c.005-.045.022-.132-.088-.132h-5.29c-.131 0-.115.088-.11.131z" style="color:#000;display:inline;overflow:visible;visibility:visible;vector-effect:none;fill:none;fill-opacity:1;fill-rule:nonzero;stroke:#715344;stroke-width:.264583;stroke-linecap:butt;stroke-linejoin:miter;stroke-miterlimit:4;stroke-dasharray:none;stroke-dashoffset:0;stroke-opacity:.988636;marker:none;enable-background:accumulate" transform="translate(40.708 -101.27)"/><path clip-path="url(#o)" style="color:#000;display:inline;overflow:visible;visibility:visible;vector-effect:none;fill:none;fill-opacity:1;fill-rule:nonzero;stroke:url(#p);stroke-width:.75;stroke-linecap:butt;stroke-linejoin:miter;stroke-miterlimit:4;stroke-dasharray:none;stroke-dashoffset:0;stroke-opacity:.988636;marker:none;enable-background:accumulate" d="m33.366 14.96.56 6.069s0 .249.25.249h13.937c.249 0 .249-.25.249-.25l.56-6.068c.012-.124.062-.373-.249-.373H33.677c-.373 0-.325.252-.31.373z" transform="translate(-11.604 -1.95) scale(.35278)"/></svg>