<svg height="22" width="22" xmlns="http://www.w3.org/2000/svg"><g transform="translate(0 -1030.362)"><circle cy="1041.38" cx="10.982" style="fill:#d9d9d9;fill-opacity:1;stroke:none;stroke-width:.34468" r="2.587"/><path style="fill:#fafafa;fill-opacity:1;stroke:none;stroke-width:.34468" d="M10.977 8.432a2.587 2.587 0 0 0-2.582 2.586 2.587 2.587 0 0 0 .05.5 2.587 2.587 0 0 1 2.537-2.086 2.587 2.587 0 0 1 2.538 2.086 2.587 2.587 0 0 0 .048-.5 2.587 2.587 0 0 0-2.586-2.586 2.587 2.587 0 0 0-.005 0z" transform="translate(0 1030.362)"/><path style="fill:#b2b2b2;fill-opacity:1;stroke:none;stroke-width:.34468" d="M8.445 10.518a2.587 2.587 0 0 0-.05.5 2.587 2.587 0 0 0 2.587 2.587 2.587 2.587 0 0 0 2.586-2.587 2.587 2.587 0 0 0-.048-.5 2.587 2.587 0 0 1-2.538 2.087 2.587 2.587 0 0 1-2.537-2.087z" transform="translate(0 1030.362)"/><circle cy="1041.38" cx="10.982" style="fill:none;fill-opacity:1;stroke:#241f31;stroke-width:1;stroke-miterlimit:4;stroke-dasharray:none;stroke-opacity:1" r="2.587"/></g></svg>