<?xml version="1.0" encoding="UTF-8" standalone="no"?>
<svg
   viewBox="0 0 5.821 5.821"
   height="22"
   width="22"
   version="1.1"
   id="svg7"
   sodipodi:docname="xopp-touch-drawing.svg"
   inkscape:version="1.4.2 (ebf0e940d0, 2025-05-08)"
   xmlns:inkscape="http://www.inkscape.org/namespaces/inkscape"
   xmlns:sodipodi="http://sodipodi.sourceforge.net/DTD/sodipodi-0.dtd"
   xmlns:xlink="http://www.w3.org/1999/xlink"
   xmlns="http://www.w3.org/2000/svg"
   xmlns:svg="http://www.w3.org/2000/svg">
  <sodipodi:namedview
     id="namedview7"
     pagecolor="#505050"
     bordercolor="#eeeeee"
     borderopacity="1"
     inkscape:showpageshadow="0"
     inkscape:pageopacity="0"
     inkscape:pagecheckerboard="0"
     inkscape:deskcolor="#505050"
     inkscape:zoom="27.19147"
     inkscape:cx="5.9025864"
     inkscape:cy="6.6564993"
     inkscape:window-width="1920"
     inkscape:window-height="1052"
     inkscape:window-x="0"
     inkscape:window-y="0"
     inkscape:window-maximized="1"
     inkscape:current-layer="svg7" />
  <defs
     id="defs4">
    <linearGradient
       id="fingerGradient"
       x1="0%"
       y1="0%"
       x2="100%"
       y2="100%">
      <stop
         offset="0%"
         style="stop-color:#ffc27d;stop-opacity:1"
         id="stop1" />
      <stop
         offset="100%"
         style="stop-color:#ffa154;stop-opacity:1"
         id="stop2" />
    </linearGradient>
    <linearGradient
       id="drawingGradient"
       x1="0%"
       y1="0%"
       x2="100%"
       y2="100%">
      <stop
         offset="0%"
         style="stop-color:#64baff;stop-opacity:1"
         id="stop3" />
      <stop
         offset="100%"
         style="stop-color:#3689e6;stop-opacity:1"
         id="stop4" />
    </linearGradient>
    <linearGradient
       xlink:href="#a"
       id="b"
       x1="20.153"
       x2="2.5469999"
       y1="16.855"
       y2="2.855"
       gradientUnits="userSpaceOnUse"
       gradientTransform="matrix(0.12598138,0,0,0.12598138,0.98437669,0.42324541)" />
    <linearGradient
       id="a">
      <stop
         offset=".424"
         style="stop-color:#f25151;stop-opacity:1"
         id="stop1-9" />
      <stop
         offset=".926"
         style="stop-color:#f47373;stop-opacity:0"
         id="stop2-1" />
    </linearGradient>
  </defs>
  <!-- Touch screen/tablet outline -->
  <!-- Finger touching screen -->
  <!-- Fingertip contact point -->
  <!-- Drawing lines emanating from touch point -->
  <!-- Small sparkle/touch effect -->
  <g
     id="g8"
     transform="matrix(1.1164422,0,0,1.1164422,-1.0410113,-0.67780995)">
    <g
       id="g7"
       transform="matrix(0.63330852,0,0,0.63330852,2.7179782,4.4812358)">
      <path
         style="fill:#ffa154;stroke-width:0.352299"
         d="m 4.3372,-1.85 a 0.43,0.43 0 0 0 -0.43,0.43 v -0.287 a 0.43,0.43 0 1 0 -0.86,0 v -0.286 a 0.4305,0.4305 0 1 0 -0.861,0 v -0.355 a 0.43,0.43 0 1 0 -0.86,0 v 2.182 L 0.2602,-0.62 h -0.001 a 0.43,0.43 0 0 0 -0.588,0.597 v -0.001 l 1.318,1.47 c 0.21,0.335 0.577,0.537 0.971,0.537 h 1.373 c 0.792,0 1.434,-0.642 1.434,-1.434 v -1.968 a 0.43,0.43 0 0 0 -0.43,-0.43 z"
         id="path235" />
      <path
         style="fill:#ffc27d;fill-opacity:1;stroke-width:0.352298"
         d="m 1.7562,-2.779 a 0.43,0.43 0 0 0 -0.43,0.43 v 0.266 a 0.43,0.43 0 1 1 0.86,0 v -0.265 a 0.43,0.43 0 0 0 -0.43,-0.43 z m 0.86,0.355 a 0.43,0.43 0 0 0 -0.43,0.43 v 0.266 a 0.43,0.43 0 1 1 0.86,0 v -0.266 a 0.43,0.43 0 0 0 -0.43,-0.43 z m 0.86,0.287 a 0.43,0.43 0 0 0 -0.43,0.43 v 0.265 a 0.43,0.43 0 1 1 0.86,0 v -0.265 a 0.43,0.43 0 0 0 -0.43,-0.43 z m 0.86,0.287 a 0.43,0.43 0 0 0 -0.43,0.43 v 0.265 a 0.43000029,0.43000029 0 0 1 0.86,0.001 v -0.265 a 0.43,0.43 0 0 0 -0.43,-0.43 z m -4.3,1.167 a 0.43,0.43 0 0 0 -0.408,0.564 0.428,0.428 0 0 1 0.631,-0.236 l 1.067,0.453 V -0.166 L 0.2602,-0.62 h -0.001 a 0.396,0.396 0 0 0 -0.224,-0.063 z"
         id="path236" />
      <path
         style="fill:#f37329;fill-opacity:1;stroke-width:0.352298"
         d="m -0.3718,-0.383 a 0.42,0.42 0 0 0 0.043,0.36 l 1.318,1.468 c 0.21,0.336 0.576,0.538 0.971,0.538 h 1.373 c 0.792,0 1.434,-0.642 1.434,-1.434 V 0.284 c 0,0.792 -0.642,1.435 -1.434,1.435 h -1.373 c -0.395,0 -0.761,-0.203 -0.971,-0.538 l -1.318,-1.469 a 0.398,0.398 0 0 1 -0.043,-0.095 z"
         id="path237" />
      <path
         d="m 4.3372,-1.85 a 0.43,0.43 0 0 0 -0.43,0.43 v -0.287 a 0.43,0.43 0 1 0 -0.86,0 v -0.286 a 0.4305,0.4305 0 1 0 -0.861,0 v -0.355 a 0.43,0.43 0 1 0 -0.86,0 v 2.182 L 0.2602,-0.62 h -0.001 a 0.43,0.43 0 0 0 -0.588,0.597 v -0.001 l 1.318,1.47 c 0.21,0.335 0.577,0.537 0.971,0.537 h 1.373 c 0.792,0 1.434,-0.642 1.434,-1.434 v -1.968 a 0.43,0.43 0 0 0 -0.43,-0.43 z"
         style="fill:#000000;fill-opacity:0;stroke:#a62100;stroke-width:0.265;stroke-linecap:round;stroke-linejoin:round;stroke-miterlimit:4;stroke-dasharray:none;stroke-opacity:1"
         id="path238" />
      <path
         style="fill:none;stroke:#a62100;stroke-width:0.264583px;stroke-linecap:round;stroke-linejoin:miter;stroke-opacity:1"
         d="m 3.9082,-1.717 v 0.931 m -0.861,-1.177 v 1.065 m -0.86,-1.3 v 1.152"
         id="path239" />
    </g>
    <path
       d="M 3.5002249,2.5574959 C 2.2624578,2.4810252 3.2788756,2.0394605 3.5014847,1.5975178 3.6904568,1.2225973 1.896104,2.2731559 1.6734949,2.1202146 1.394824,1.9287228 2.4773821,1.3420276 2.444123,0.93069843 2.4269895,0.71904972 1.6030713,0.73441945 1.4215321,0.87892006"
       style="fill:none;fill-opacity:1;stroke:url(#b);stroke-width:0.327551;stroke-linecap:round;stroke-linejoin:miter;stroke-dasharray:none;stroke-opacity:1"
       clip-path="none"
       id="path3" />
  </g>
</svg>
