<?xml version="1.0" encoding="UTF-8" standalone="no"?>
<svg
   width="24.0px"
   height="24.0px"
   viewBox="0 0 24.0 24.0"
   version="1.1"
   id="SVGRoot"
   sodipodi:docname="xopp-draw-polyneg.svg"
   inkscape:version="1.4.2 (ebf0e940d0, 2025-05-08)"
   xmlns:inkscape="http://www.inkscape.org/namespaces/inkscape"
   xmlns:sodipodi="http://sodipodi.sourceforge.net/DTD/sodipodi-0.dtd"
   xmlns="http://www.w3.org/2000/svg"
   xmlns:svg="http://www.w3.org/2000/svg"
   xmlns:rdf="http://www.w3.org/1999/02/22-rdf-syntax-ns#"
   xmlns:cc="http://creativecommons.org/ns#"
   xmlns:dc="http://purl.org/dc/elements/1.1/">
  <defs
     id="defs1428" />
  <sodipodi:namedview
     id="base"
     pagecolor="#ffffff"
     bordercolor="#666666"
     borderopacity="1.0"
     inkscape:pageopacity="0.0"
     inkscape:pageshadow="2"
     inkscape:zoom="4.8301579"
     inkscape:cx="-13.767666"
     inkscape:cy="37.265862"
     inkscape:document-units="px"
     inkscape:current-layer="layer1"
     inkscape:document-rotation="0"
     showgrid="true"
     inkscape:window-width="1366"
     inkscape:window-height="699"
     inkscape:window-x="0"
     inkscape:window-y="0"
     inkscape:window-maximized="1"
     inkscape:showpageshadow="2"
     inkscape:pagecheckerboard="0"
     inkscape:deskcolor="#d1d1d1">
    <inkscape:grid
       type="xygrid"
       id="grid1998"
       originx="0"
       originy="0"
       spacingy="1"
       spacingx="1"
       units="px" />
  </sodipodi:namedview>
  <metadata
     id="metadata1431">
    <rdf:RDF>
      <cc:Work
         rdf:about="">
        <dc:format>image/svg+xml</dc:format>
        <dc:type
           rdf:resource="http://purl.org/dc/dcmitype/StillImage" />
      </cc:Work>
    </rdf:RDF>
  </metadata>
  <g
     inkscape:label="Layer 1"
     inkscape:groupmode="layer"
     id="layer1">
    <path
       style="fill:none;fill-opacity:0.3;stroke:#ffffff;stroke-width:2.07874;paint-order:fill markers stroke;stroke-opacity:1"
       d="m 2,1.9325473 c 0.35088,7.82706 0.70175,9.1497297 1.05263,10.8064497 0.35088,1.65672 0.70176,2.52682 1.05263,3.22496 0.35088,0.69815 0.70176,1.1674 1.05263,1.54999 0.35088,0.38258 0.70176,0.6698 1.05264,0.9109 0.35087,0.2411 0.70175,0.4338 1.05263,0.5995 0.35088,0.1658 0.70175,0.3037 1.05263,0.4245 0.35088,0.1209 0.70175,0.2244 1.05263,0.3164 0.35088,0.092 0.70178,0.1725 1.05268,0.2449 0.3508,0.0724 0.7017,0.1367 1.0526,0.1951 0.3509,0.0585 0.7017,0.111 1.0526,0.1592 0.3509,0.0482 0.7018,0.0919 1.0526,0.1323 0.3509,0.0404 0.7018,0.0774 1.0527,0.1118 0.3509,0.0343 0.7017,0.066 1.0526,0.0956 0.3509,0.0295 0.7018,0.057 1.0526,0.0827 0.3509,0.0257 0.7018,0.0497 1.0527,0.0723 0.3509,0.0225 0.7017,0.0437 1.0526,0.0637 0.3509,0.0199 0.7018,0.0387 1.0526,0.0565 0.3509,0.0178 0.7018,0.0346 1.0527,0.0506 0.3508,0.0159 0.7017,0.0311 1.0526,0.0455"
       title="1/x"
       id="path2055" />
  </g>
</svg>
