<svg xmlns="http://www.w3.org/2000/svg" xmlns:xlink="http://www.w3.org/1999/xlink" width="22" height="22" viewBox="0 0 5.821 5.821"><defs><linearGradient xlink:href="#a" id="b" x1="20.153" x2="2.547" y1="16.855" y2="2.855" gradientTransform="translate(.36 .207)scale(.12656)" gradientUnits="userSpaceOnUse"/><linearGradient id="a"><stop offset=".424" style="stop-color:#bdbdbd;stop-opacity:1"/><stop offset=".926" style="stop-color:#a4a4a4;stop-opacity:0"/></linearGradient></defs><path d="M2.887 2.351c-1.244-.076-.222-.52.001-.964.19-.377-1.613.679-1.836.525-.28-.192.807-.782.774-1.195C1.809.505.98.52.799.665" style="fill:none;fill-opacity:1;stroke:url(#b);stroke-width:.329059;stroke-linecap:round;stroke-linejoin:miter;stroke-dasharray:none;stroke-opacity:1" transform="translate(-.392 -.42)scale(1.07222)"/><path d="M8.636 2.047V1.2a.34.34 0 0 0-.338-.339v0a.34.34 0 0 0-.339.339v0m0 .677V.862a.34.34 0 0 0-.338-.338v0a.34.34 0 0 0-.339.338v.339m0 .761v-.761a.34.34 0 0 0-.338-.339v0a.34.34 0 0 0-.339.339v1.354" style="fill:none;stroke:#bdbdbd;stroke-width:.169225;stroke-linecap:round;stroke-opacity:1" transform="translate(-4.649 1.54)scale(1.07222)"/><path d="M8.636 1.54a.338.338 0 1 1 .677 0v1.015a1.354 1.354 0 0 1-1.354 1.353h-.338c-.474 0-.762-.145-1.014-.396l-.61-.609a.338.338 0 0 1 .48-.477l.298.298" style="fill:none;stroke:#bdbdbd;stroke-width:.169225;stroke-linecap:round;stroke-opacity:1" transform="translate(-4.649 1.54)scale(1.07222)"/></svg>