<svg xmlns="http://www.w3.org/2000/svg" viewBox="0 0 24 24"><path fill="#bdbdbd" d="M19.184 5.977a2.673 2.673 0 0 1 0 3.77l-2.218 2.218c-1.308 1.308-3.533.924-4.245-.708.782-.68 1.163-.46 1.909-.144.439.185.953.086 1.31-.27l2.166-2.167a1.21 1.21 0 0 0 0-1.703 1.21 1.21 0 0 0-1.704 0l-1.554 1.554a2.7 2.7 0 0 0-1.644-.22 2.7 2.7 0 0 1 .409-.528l1.801-1.802a2.673 2.673 0 0 1 3.77 0m-9.607 9.607a2.673 2.673 0 0 0 3.77 0l1.868-1.868a2.7 2.7 0 0 0 .421-.548 2.7 2.7 0 0 1-1.83-.192l-1.53 1.53a1.21 1.21 0 0 1-1.703 0 1.21 1.21 0 0 1 0-1.704l2.166-2.166c.444-.444 1.33-.576 2 .037.648-.069.9-.192 1.302-.578-.859-1.514-3-1.744-4.246-.498l-2.218 2.217a2.673 2.673 0 0 0 0 3.77"/><path fill="none" stroke="#bdbdbd" stroke-linecap="round" stroke-linejoin="round" stroke-width="2" d="m6.4 3-4.9 7.85 4.9 7.85"/></svg>