<?xml version="1.0" encoding="UTF-8" standalone="no"?>
<svg
   viewBox="0 0 5.821 5.821"
   height="22"
   width="22"
   version="1.1"
   id="svg7"
   sodipodi:docname="xopp-touch-drawing.svg"
   inkscape:version="1.4.2 (ebf0e940d0, 2025-05-08)"
   xmlns:inkscape="http://www.inkscape.org/namespaces/inkscape"
   xmlns:sodipodi="http://sodipodi.sourceforge.net/DTD/sodipodi-0.dtd"
   xmlns:xlink="http://www.w3.org/1999/xlink"
   xmlns="http://www.w3.org/2000/svg"
   xmlns:svg="http://www.w3.org/2000/svg">
  <sodipodi:namedview
     id="namedview7"
     pagecolor="#505050"
     bordercolor="#eeeeee"
     borderopacity="1"
     inkscape:showpageshadow="0"
     inkscape:pageopacity="0"
     inkscape:pagecheckerboard="0"
     inkscape:deskcolor="#505050"
     inkscape:zoom="27.19147"
     inkscape:cx="10.867379"
     inkscape:cy="9.5250459"
     inkscape:window-width="1920"
     inkscape:window-height="1052"
     inkscape:window-x="0"
     inkscape:window-y="0"
     inkscape:window-maximized="1"
     inkscape:current-layer="svg7" />
  <defs
     id="defs4">
    <linearGradient
       id="fingerGradient"
       x1="0%"
       y1="0%"
       x2="100%"
       y2="100%">
      <stop
         offset="0%"
         style="stop-color:#ffc27d;stop-opacity:1"
         id="stop1" />
      <stop
         offset="100%"
         style="stop-color:#ffa154;stop-opacity:1"
         id="stop2" />
    </linearGradient>
    <linearGradient
       id="drawingGradient"
       x1="0%"
       y1="0%"
       x2="100%"
       y2="100%">
      <stop
         offset="0%"
         style="stop-color:#64baff;stop-opacity:1"
         id="stop3" />
      <stop
         offset="100%"
         style="stop-color:#3689e6;stop-opacity:1"
         id="stop4" />
    </linearGradient>
    <linearGradient
       xlink:href="#a"
       id="b"
       x1="20.153"
       x2="2.5469999"
       y1="16.855"
       y2="2.855"
       gradientUnits="userSpaceOnUse"
       gradientTransform="matrix(0.12656136,0,0,0.12656136,0.35947973,0.20741747)" />
    <linearGradient
       id="a">
      <stop
         offset="0.42399999"
         style="stop-color:#bdbdbd;stop-opacity:1;"
         id="stop1-9" />
      <stop
         offset="0.926"
         style="stop-color:#a4a4a4;stop-opacity:0;"
         id="stop2-1" />
    </linearGradient>
  </defs>
  <!-- Touch screen/tablet outline -->
  <!-- Finger touching screen -->
  <!-- Fingertip contact point -->
  <!-- Drawing lines emanating from touch point -->
  <!-- Small sparkle/touch effect -->
  <g
     id="g9"
     transform="matrix(1.0722239,0,0,1.0722239,-0.39202702,-0.42045597)">
    <path
       d="M 2.8869101,2.3514933 C 1.6434447,2.2746706 2.6645418,1.831073 2.8881757,1.3870958 3.0780178,1.0104493 1.2754043,2.0658443 1.0517704,1.9121989 0.77181661,1.7198256 1.8593584,1.1304294 1.8259463,0.71720663 1.8087339,0.50458356 0.98102261,0.52002405 0.79864767,0.6651899"
       style="fill:none;fill-opacity:1;stroke:url(#b);stroke-width:0.329059;stroke-linecap:round;stroke-linejoin:miter;stroke-dasharray:none;stroke-opacity:1"
       clip-path="none"
       id="path3" />
    <g
       id="g8"
       transform="translate(-3.9701087,1.8280776)">
      <path
         d="M 8.6360736,2.0468752 V 1.2007513 A 0.33844957,0.33844957 0 0 0 8.2976243,0.86230167 v 0 A 0.33844957,0.33844957 0 0 0 7.9591747,1.2007513 v 0 m 0,0.6768991 V 0.86230167 A 0.33844957,0.33844957 0 0 0 7.6207252,0.52385212 v 0 A 0.33844957,0.33844957 0 0 0 7.2822756,0.86230167 V 1.2007513 m 0,0.7615115 V 1.2007513 A 0.33844957,0.33844957 0 0 0 6.9438261,0.86230167 v 0 A 0.33844957,0.33844957 0 0 0 6.6053765,1.2007513 v 1.3537982"
         style="fill:none;stroke:#bdbdbd;stroke-width:0.169225;stroke-linecap:round;stroke-opacity:1"
         id="path1" />
      <path
         d="m 8.6360736,1.5392008 a 0.3384497,0.3384497 0 1 1 0.6768994,0 V 2.5545495 A 1.3537983,1.3537983 0 0 1 7.9591747,3.9083478 H 7.6207252 c -0.4738294,0 -0.7615116,-0.1455333 -1.0136565,-0.395986 L 5.9978594,2.9031526 A 0.33844957,0.33844957 0 0 1 6.4767656,2.4259387 l 0.2978357,0.2978357"
         style="fill:none;stroke:#bdbdbd;stroke-width:0.169225;stroke-linecap:round;stroke-opacity:1"
         id="path2" />
    </g>
  </g>
</svg>
