<svg xmlns="http://www.w3.org/2000/svg" width="24" height="24" fill="none" stroke="currentColor" stroke-linecap="round" stroke-linejoin="round" stroke-width="2"><path stroke="none" d="M5 4a1 1 0 0 0-.707.293A1 1 0 0 0 4 5v6a1 1 0 0 0 1 1 1 1 0 0 0 1-1V7.414L16.586 18H13a1 1 0 0 0-1 1 1 1 0 0 0 1 1h6a1 1 0 0 0 .707-.293A1 1 0 0 0 20 19v-6a1 1 0 0 0-1-1 1 1 0 0 0-1 1v3.586L7.414 6H11a1 1 0 0 0 1-1 1 1 0 0 0-1-1Z" style="baseline-shift:baseline;display:inline;overflow:visible;opacity:1;vector-effect:none;fill:#bdbdbd;stroke:none;stroke-linecap:butt;stroke-linejoin:miter;stop-color:#000;stop-opacity:1"/></svg>